<?xml version="1.0" encoding="utf-8"?>
<!-- Generator: Adobe Illustrator 16.0.4, SVG Export Plug-In . SVG Version: 6.00 Build 0)  -->
<!DOCTYPE svg PUBLIC "-//W3C//DTD SVG 1.1//EN" "http://www.w3.org/Graphics/SVG/1.1/DTD/svg11.dtd">
<svg version="1.1" id="Layer_1" xmlns="http://www.w3.org/2000/svg" xmlns:xlink="http://www.w3.org/1999/xlink" x="0px" y="0px"
	 width="77.816px" height="76.943px" viewBox="0 0 77.816 76.943" enable-background="new 0 0 77.816 76.943" xml:space="preserve">
<g>
	<g>
		<polygon fill="#F3BCD1" points="142.462,-230.857 145.265,-235.717 142.462,-240.573 136.853,-240.573 134.047,-235.717 
			136.853,-230.857 		"/>
		<polygon opacity="0.04" points="142.462,-240.573 136.853,-230.857 142.462,-230.857 145.265,-235.717 		"/>
	</g>
	<g>
		<polygon fill="#F3BCD1" points="111.112,-230.857 108.308,-235.717 111.112,-240.573 116.721,-240.573 119.527,-235.717 
			116.721,-230.857 		"/>
		<polygon opacity="0.04" points="111.112,-240.573 116.721,-230.857 111.112,-230.857 108.308,-235.717 		"/>
	</g>
	<g>
		<polygon fill="#F3BCD1" points="94.246,-250.891 91.665,-255.362 94.246,-259.833 99.409,-259.833 101.99,-255.362 
			99.409,-250.891 		"/>
		<polygon fill="#F3BCD1" points="152.986,-250.287 150.404,-254.759 152.986,-259.229 158.149,-259.229 160.73,-254.759 
			158.149,-250.287 		"/>
		<polygon opacity="0.05" points="94.246,-250.811 91.665,-255.281 94.246,-259.752 99.409,-259.752 101.99,-255.281 
			99.409,-250.811 		"/>
		<polygon opacity="0.05" points="152.986,-250.287 150.404,-254.759 152.986,-259.229 158.149,-259.229 160.73,-254.759 
			158.149,-250.287 		"/>
	</g>
	<polygon fill="#F3BCD1" points="106.894,-237.939 87.44,-271.635 106.894,-305.329 145.801,-305.329 165.256,-271.635 
		145.801,-237.939 	"/>
	<polygon opacity="0.02" fill="#FFFFFF" points="106.894,-305.329 145.801,-237.939 106.894,-237.939 87.44,-271.635 	"/>
	<polygon opacity="0.01" points="125.776,-272.623 106.894,-237.939 145.801,-237.939 	"/>
	<polygon opacity="0.02" points="125.776,-272.623 145.801,-305.329 106.894,-305.329 	"/>
	<g>
		<path fill="#575757" d="M107.755-296.678c0,0,2.622-5.302,11.319-5.302"/>
		<path fill="#575757" d="M140.811-297.36c0,0-2.622-5.302-11.32-5.302"/>
		<circle opacity="0.3" fill="#D71E40" cx="105.542" cy="-268.339" r="11.96"/>
		<circle opacity="0.3" fill="#D71E40" cx="107.201" cy="-270.922" r="10.127"/>
		<circle opacity="0.3" fill="#D71E40" cx="143.48" cy="-270.922" r="10.127"/>
		<circle opacity="0.3" fill="#D71E40" cx="144.83" cy="-268.339" r="11.96"/>
		<circle fill="#FFFFFF" cx="138.297" cy="-278.767" r="9.792"/>
		<path fill="#575757" d="M128.535-279.843c0,0,1.272-8.717,9.792-8.717c8.521,0,9.733,8.717,9.733,8.717s-2.624-7.88-9.733-7.88
			C131.218-287.723,128.535-279.843,128.535-279.843z"/>
		<circle fill="#575757" cx="138.297" cy="-278.767" r="1.884"/>
		<path opacity="0.1" fill="#FFFFFF" d="M128.832-272.955c0,0,5.027,5.743,9.763,5.743c4.737,0,9.167-5.743,9.167-5.743
			s-3.401,7.22-9.167,7.22S128.832-272.955,128.832-272.955z"/>
		<path opacity="0.4" fill="#FFFFFF" d="M136.96-278.524c0,0,0.128,1.328,1.396,1.328c1.269,0,1.277-1.328,1.277-1.328
			s-0.363,0.664-1.337,0.664C137.324-277.86,136.96-278.524,136.96-278.524z"/>
		<circle fill="#FFFFFF" cx="112.84" cy="-278.767" r="9.792"/>
		<path fill="#575757" d="M103.048-279.843c0,0,1.272-8.717,9.792-8.717c8.519,0,9.732,8.717,9.732,8.717s-2.624-7.88-9.732-7.88
			C105.731-287.723,103.048-279.843,103.048-279.843z"/>
		<circle fill="#575757" cx="113.197" cy="-278.767" r="1.719"/>
		<path opacity="0.1" fill="#FFFFFF" d="M103.048-272.955c0,0,5.025,5.743,9.762,5.743c4.736,0,9.167-5.743,9.167-5.743
			s-3.402,7.22-9.167,7.22C107.044-265.735,103.048-272.955,103.048-272.955z"/>
		<path opacity="0.4" fill="#FFFFFF" d="M111.922-278.767c0,0,0.117,1.212,1.275,1.212c1.158,0,1.166-1.212,1.166-1.212
			s-0.333,0.605-1.22,0.605C112.254-278.161,111.922-278.767,111.922-278.767z"/>
		<path opacity="0.4" d="M130.396-252.363c0,0.549-0.445,0.993-0.994,0.993h-7.479c-0.549,0-0.993-0.444-0.993-0.993l0,0
			c0-0.549,0.444-0.993,0.993-0.993h7.479C129.951-253.356,130.396-252.912,130.396-252.363L130.396-252.363z"/>
	</g>
</g>
<g>
	<g>
		<polygon fill="#754D9E" points="22.493,-27.553 19.69,-32.411 22.493,-37.269 28.102,-37.269 30.909,-32.411 28.102,-27.553 		"/>
		<polygon opacity="0.05" points="22.493,-37.269 28.102,-27.553 22.493,-27.553 19.69,-32.411 		"/>
	</g>
	<g>
		<polygon fill="#754D9E" points="55.135,-27.553 57.804,-32.179 55.135,-36.804 49.794,-36.804 47.122,-32.179 49.794,-27.553 		
			"/>
		<polygon opacity="0.05" points="55.135,-36.804 49.794,-27.553 55.135,-27.553 57.804,-32.179 		"/>
	</g>
	<polygon fill="#754D9E" points="7.44,-46.743 4.858,-51.214 7.44,-55.686 12.603,-55.686 15.184,-51.214 12.603,-46.743 	"/>
	<polygon fill="#754D9E" points="64.974,-46.743 62.392,-51.214 64.974,-55.686 70.137,-55.686 72.718,-51.214 70.137,-46.743 	"/>
	<polygon opacity="0.05" points="64.974,-46.743 62.392,-51.214 64.974,-55.686 70.137,-55.686 72.718,-51.214 70.137,-46.743 	"/>
	<polygon opacity="0.05" points="7.44,-46.743 4.858,-51.214 7.44,-55.686 12.603,-55.686 15.184,-51.214 12.603,-46.743 	"/>
	<polygon fill="#754D9E" points="19.454,-35.025 0,-68.721 19.454,-102.417 58.361,-102.417 77.816,-68.721 58.361,-35.025 	"/>
	<polygon opacity="0.02" fill="#FFFFFF" points="19.454,-102.417 58.361,-35.025 19.454,-35.025 0,-68.721 	"/>
	<polygon opacity="0.03" points="38.336,-69.71 19.454,-35.025 58.361,-35.025 	"/>
	<polygon opacity="0.03" points="38.336,-69.71 58.361,-102.417 19.454,-102.417 	"/>
	<g>
		<ellipse opacity="0.3" cx="26.148" cy="-75.672" rx="11.344" ry="12.833"/>
		<ellipse opacity="0.3" cx="52.023" cy="-75.672" rx="11.344" ry="12.833"/>
		<g>
			<ellipse opacity="0.1" fill="#FFFFFF" cx="26.524" cy="-75.521" rx="12.838" ry="14.296"/>
			<ellipse opacity="0.1" fill="#FFFFFF" cx="52.136" cy="-75.521" rx="12.839" ry="14.296"/>
		</g>
		<path fill="#FFFFFF" stroke="#753D77" stroke-miterlimit="10" d="M16.926-77.966c0,0,0,12.04,10.159,12.04
			s10.159-12.04,10.159-12.04H16.926z"/>
		<path fill="#FFFFFF" stroke="#773D78" stroke-miterlimit="10" d="M41.154-77.966c0,0,0,12.04,10.159,12.04
			s10.159-12.04,10.159-12.04H41.154z"/>
		<ellipse fill="#A254A0" cx="24.048" cy="-77.02" rx="6.236" ry="4.461"/>
		<ellipse fill="#A254A0" cx="48.718" cy="-77.02" rx="6.178" ry="4.461"/>
		<ellipse fill="#050404" cx="23.924" cy="-76.354" rx="4.845" ry="2.989"/>
		<ellipse fill="#050404" cx="48.708" cy="-76.354" rx="4.619" ry="2.989"/>
		
			<ellipse transform="matrix(0.007 1 -1 0.007 -54.2646 -99.3507)" fill="#FFFFFF" cx="22.892" cy="-76.998" rx="1.397" ry="1.031"/>
		
			<ellipse transform="matrix(0.007 1 -1 0.007 -29.9098 -123.8764)" fill="#FFFFFF" cx="47.418" cy="-76.998" rx="1.397" ry="1.014"/>
		<g>
			<path fill="#8E4D90" d="M40.568-76.341h23.136c0,0-0.697-12.282-11.568-12.282C41.266-88.623,40.568-76.341,40.568-76.341z"/>
			<path fill="#8E4D90" d="M14.58-76.341h23.136c0,0-0.697-12.282-11.568-12.282C15.277-88.623,14.58-76.341,14.58-76.341z"/>
		</g>
		<ellipse opacity="0.1" fill="#FFFFFF" cx="37.508" cy="-59.588" rx="1.693" ry="1.865"/>
		<ellipse opacity="0.1" fill="#FFFFFF" cx="40.846" cy="-59.588" rx="1.694" ry="1.865"/>
		<ellipse cx="37.668" cy="-59.86" rx="1.079" ry="1.187"/>
		<ellipse cx="40.748" cy="-59.86" rx="1.065" ry="1.187"/>
		<path fill="none" stroke="#000000" stroke-miterlimit="10" d="M37.876-49.097c0.347-0.587,1.011-1.026,1.545-1.412
			c0.441-0.319,0.7-0.405,1.25-0.403c0.548,0.001,0.952,0.008,1.467,0.179c0.389,0.13,0.845,0.316,1.198,0.529"/>
		<path opacity="0.3" fill="none" stroke="#000000" stroke-miterlimit="10" d="M14.355-76.341c0,0,0.513-12.282,11.944-12.282
			c11.432,0,11.193,12.282,11.193,12.282"/>
		<path opacity="0.3" fill="none" stroke="#000000" stroke-miterlimit="10" d="M40.455-76.341c0,0,0.512-12.282,11.944-12.282
			c11.432,0,11.192,12.282,11.192,12.282"/>
	</g>
</g>
<g>
	<g>
		<polygon fill="#ED2A25" points="55.13,-130.011 57.933,-134.868 55.13,-139.727 49.521,-139.727 46.715,-134.868 49.521,-130.011 
					"/>
		<polygon opacity="0.04" points="55.13,-139.727 49.521,-130.011 55.13,-130.011 57.933,-134.868 		"/>
	</g>
	<g>
		<polygon fill="#ED2A25" points="22.779,-130.011 19.977,-134.868 22.779,-139.727 28.389,-139.727 31.194,-134.868 
			28.389,-130.011 		"/>
		<polygon opacity="0.04" points="22.779,-139.727 28.389,-130.011 22.779,-130.011 19.977,-134.868 		"/>
	</g>
	<g>
		<polygon fill="#ED2A25" points="5.47,-152.933 2.889,-157.404 5.47,-161.875 10.633,-161.875 13.215,-157.404 10.633,-152.933 		
			"/>
		<polygon opacity="0.05" points="5.47,-152.934 2.889,-157.404 5.47,-161.875 10.633,-161.875 13.215,-157.404 10.633,-152.934 		
			"/>
	</g>
	<g>
		<polygon fill="#ED2A25" points="66.623,-152.33 64.041,-156.801 66.623,-161.271 71.786,-161.271 74.367,-156.801 71.786,-152.33 
					"/>
		<polygon opacity="0.05" points="66.623,-152.33 64.041,-156.801 66.623,-161.271 71.786,-161.271 74.367,-156.801 71.786,-152.33 
					"/>
	</g>
	<polygon fill="#ED2A25" points="19.454,-137.848 0,-171.544 19.454,-205.238 58.361,-205.238 77.816,-171.544 58.361,-137.848 	"/>
	<polygon opacity="0.02" fill="#FFFFFF" points="19.454,-205.238 58.361,-137.848 19.454,-137.848 0,-171.544 	"/>
	<polygon opacity="0.02" points="38.336,-172.532 19.454,-137.848 58.361,-137.848 	"/>
	<polygon opacity="0.03" points="38.336,-172.532 58.361,-205.238 19.454,-205.238 	"/>
	<path d="M30.987-153.764c0,0,4.131-5.589,7.65-5.589c3.52,0,7.65,5.196,7.65,5.196s-3.771-6.409-7.65-6.409s-7.65,6.409-7.65,6.409
		"/>
	<path opacity="0.8" d="M35.952-182.748c0,0,0.241-3.237-1.546-5.025c-1.788-1.787-6.765-5.7-11.596-5.7s-5.315,1.449-4.349,2.415
		c0.966,0.967,8.166,1.691,10.63,4.155C31.555-184.439,35.952-182.748,35.952-182.748z"/>
	<ellipse fill="#FFFFFF" cx="30.117" cy="-179.366" rx="5.17" ry="6.958"/>
	<path opacity="0.6" d="M25.05-177.859c0,0,1.02,5.45,5.033,5.45s5.082-5.45,5.082-5.45s-2.054,4.573-5.082,4.573
		S25.05-177.859,25.05-177.859z"/>
	<path opacity="0.1" fill="#FFFFFF" d="M25.05-177.859c0,0,0.366,6.306,5.058,6.306c4.692,0,5.057-6.306,5.057-6.306
		s-1.079,5.45-5.082,5.45C26.08-172.409,25.05-177.859,25.05-177.859z"/>
	<ellipse fill="#C32127" cx="30.19" cy="-179.345" rx="2.527" ry="4.596"/>
	<path fill="#C32127" d="M25.418-181.803c0,0,1.083-4.276,4.771-4.276c3.689,0,4.772,4.276,4.772,4.276s-1.188-2.686-4.699-2.686
		C26.75-184.488,25.418-181.803,25.418-181.803z"/>
	<circle fill="#FFFFFF" cx="30.19" cy="-179.366" r="0.528"/>
	<path opacity="0.8" d="M42.121-182.446c0,0-0.242-3.237,1.546-5.025c1.788-1.787,6.764-5.701,11.596-5.701
		c4.832,0,5.315,1.449,4.349,2.416c-0.966,0.966-8.166,1.69-10.629,4.155C46.518-184.138,42.121-182.446,42.121-182.446z"/>
	<ellipse fill="#FFFFFF" cx="47.689" cy="-179.064" rx="5.17" ry="6.958"/>
	<path opacity="0.6" d="M42.631-177.559c0,0,1.02,5.45,5.033,5.45s5.082-5.45,5.082-5.45s-2.054,4.573-5.082,4.573
		C44.636-172.985,42.631-177.559,42.631-177.559z"/>
	<path opacity="0.1" fill="#FFFFFF" d="M42.631-177.559c0,0,0.366,6.307,5.058,6.307s5.057-6.307,5.057-6.307s-1.08,5.45-5.082,5.45
		S42.631-177.559,42.631-177.559z"/>
	<ellipse fill="#C32127" cx="47.689" cy="-179.043" rx="2.527" ry="4.596"/>
	<path fill="#C32127" d="M42.917-181.5c0,0,1.083-4.277,4.772-4.277c3.688,0,4.772,4.277,4.772,4.277s-1.188-2.687-4.7-2.687
		S42.917-181.5,42.917-181.5z"/>
	<circle fill="#FFFFFF" cx="47.689" cy="-179.064" r="0.528"/>
</g>
<g>
	<g>
		<polygon fill="#ED4798" points="109.767,-129.613 106.964,-134.471 109.767,-139.329 115.376,-139.329 118.183,-134.471 
			115.376,-129.613 		"/>
		<polygon opacity="0.03" points="109.767,-139.329 115.376,-129.613 109.767,-129.613 106.964,-134.471 		"/>
	</g>
	<g>
		<polygon fill="#ED4798" points="142.409,-129.613 145.078,-134.238 142.409,-138.863 137.068,-138.863 134.396,-134.238 
			137.068,-129.613 		"/>
		<polygon opacity="0.03" points="142.409,-138.863 137.068,-129.613 142.409,-129.613 145.078,-134.238 		"/>
	</g>
	<g>
		<polygon fill="#ED4798" points="93.402,-152.33 90.82,-156.801 93.402,-161.271 98.565,-161.271 101.146,-156.801 98.565,-152.33 
					"/>
		<polygon opacity="0.05" points="93.402,-152.33 90.82,-156.801 93.402,-161.271 98.565,-161.271 101.146,-156.801 98.565,-152.33 
					"/>
	</g>
	<g>
		<polygon fill="#ED4798" points="154.252,-152.33 151.671,-156.801 154.252,-161.271 159.416,-161.271 161.997,-156.801 
			159.416,-152.33 		"/>
		<polygon opacity="0.05" points="154.252,-152.33 151.671,-156.801 154.252,-161.271 159.416,-161.271 161.997,-156.801 
			159.416,-152.33 		"/>
	</g>
	<polygon fill="#ED4798" points="106.894,-137.848 87.44,-171.544 106.894,-205.238 145.801,-205.238 165.256,-171.544 
		145.801,-137.848 	"/>
	<polygon opacity="0.02" fill="#FFFFFF" points="106.894,-205.238 145.801,-137.848 106.894,-137.848 87.44,-171.544 	"/>
	<polygon opacity="0.03" points="125.776,-172.532 106.894,-137.848 145.801,-137.848 	"/>
	<polygon opacity="0.03" points="125.776,-172.532 145.801,-205.238 106.894,-205.238 	"/>
	
		<ellipse transform="matrix(0.9999 -0.012 0.012 0.9999 2.2177 1.3836)" fill="#FFFFFF" cx="116.062" cy="-183.56" rx="7.708" ry="7.841"/>
	
		<ellipse transform="matrix(0.9999 -0.0121 0.0121 0.9999 2.246 1.6138)" fill="#FFFFFF" cx="134.495" cy="-184.821" rx="7.708" ry="7.842"/>
	<path fill="#4A3E4D" d="M112.173-194.516c0,0,3.687-5.776,7.087-2.457"/>
	<path fill="#4A3E4D" d="M137.721-195.879c0,0-4.545-5.482-7.67-2.281"/>
	<path fill="#E10686" d="M120.58-187.685c-0.15-0.047-0.291-0.083-0.425-0.111c-1.071-0.226-1.681,0.128-2.417,0.706
		c-0.44-0.824-0.858-1.395-1.928-1.619c-0.135-0.028-0.278-0.051-0.434-0.069c-0.947-0.104-2.196,0.521-2.667,2.119l-0.114,0.541
		c-0.205,1.581,0.567,3.748,3.494,6.878c3.94-1.688,5.518-3.361,5.966-4.891l0.113-0.543
		C122.382-186.326,121.489-187.4,120.58-187.685z"/>
	<path fill="#E10686" d="M134.461-189.574c-0.152,0.04-0.292,0.082-0.419,0.126c-1.031,0.369-1.368,0.989-1.694,1.867
		c-0.806-0.473-1.459-0.741-2.488-0.374c-0.131,0.046-0.264,0.103-0.407,0.167c-0.861,0.406-1.601,1.59-1.167,3.2l0.184,0.521
		c0.654,1.454,2.442,2.898,6.573,4.039c2.479-3.498,2.95-5.75,2.532-7.287l-0.185-0.521
		C136.706-189.357,135.385-189.805,134.461-189.574z"/>
	<path opacity="0.2" fill="#FFFFFF" d="M108.543-181.83c0,0,1.235,6.111,7.614,6.111c6.377,0,7.42-6.111,7.42-6.111
		s-3.672,4.321-7.516,4.321C112.218-177.509,108.543-181.83,108.543-181.83z"/>
	<path fill="#4A3E4D" d="M108.457-185.062c0,0,0.932-6.485,7.276-6.485c6.345,0,7.878,6.01,7.878,6.01s-2.416-5.142-7.878-5.142
		C110.271-190.68,108.457-185.062,108.457-185.062z"/>
	<path fill="#4A3E4D" d="M126.786-185.562c0,0,0.719-7.097,7.708-7.097c6.99,0,7.708,7.097,7.708,7.097s-2.542-6.307-7.708-6.307
		C129.328-191.869,126.786-185.562,126.786-185.562z"/>
	<g>
		<path fill="#ED4798" d="M105.85-177.891c0,0,3.707-0.172,10.004,0.479c6.296,0.649,7.634,2.608,7.634,2.608l-7.917,0.143
			L105.85-177.891z"/>
		<path fill="#ED4798" d="M145.519-180.591c0,0-3.69,0.394-9.814,1.994c-6.125,1.601-7.148,3.739-7.148,3.739l7.847-1.063
			L145.519-180.591z"/>
	</g>
	<path fill="#FFFFFF" d="M116.687-187.095c0,0-0.336-1.21-1.627-1.21c-1.29,0-1.786,1.94-1.786,1.94s0.374-0.97,1.706-0.97
		C116.313-187.334,116.687-187.095,116.687-187.095z"/>
	<path fill="#FFFFFF" d="M136.347-187.901c0,0-0.335-1.21-1.625-1.21c-1.291,0-1.788,1.941-1.788,1.941s0.373-0.971,1.706-0.971
		C135.974-188.141,136.347-187.901,136.347-187.901z"/>
	<g>
		<path fill="none" stroke="#4A3E4D" stroke-width="0.5" stroke-miterlimit="10" d="M104.256-177.062
			c0,0,2.045,13.527,21.556,13.527c19.512,0,19.634-13.527,19.634-13.527"/>
		<path fill="none" stroke="#4A3E4D" stroke-width="0.5" stroke-miterlimit="10" d="M100.842-174.503c0,0,3.82-3.575,5.932-3.575"/>
		<path fill="none" stroke="#4A3E4D" stroke-width="0.5" stroke-miterlimit="10" d="M149.021-175.072c0,0-3.17-2.519-6.014-2.519"/>
	</g>
	<path opacity="0.1" fill="#4A3E4D" d="M114.668-163.616c0,0,6.294,2.274,11.184,2.274c4.889,0,10.169-2.274,10.169-2.274
		s-5.701,5.441-10.081,4.792C121.56-159.473,114.668-163.616,114.668-163.616z"/>
	<path opacity="0.2" fill="#FFFFFF" d="M111.628-166.521c0,0,5.842,3.352,14.224,3.352c8.382,0,13.318-3.352,13.318-3.352
		s-6.539,4.937-13.229,4.937C119.251-161.585,111.628-166.521,111.628-166.521z"/>
</g>
<g>
	<g>
		<polygon fill="#F8ED40" points="54.583,-230.127 57.386,-234.984 54.583,-239.842 48.974,-239.842 46.168,-234.984 
			48.974,-230.127 		"/>
		<polygon opacity="0.04" points="54.583,-239.842 48.974,-230.127 54.583,-230.127 57.386,-234.984 		"/>
	</g>
	<g>
		<polygon fill="#F8ED40" points="23.232,-230.127 20.429,-234.984 23.232,-239.842 28.842,-239.842 31.647,-234.984 
			28.842,-230.127 		"/>
		<polygon opacity="0.04" points="23.232,-239.842 28.842,-230.127 23.232,-230.127 20.429,-234.984 		"/>
	</g>
	<polygon fill="#F8ED40" points="6.234,-252.209 3.652,-256.681 6.234,-261.151 11.396,-261.151 13.978,-256.681 11.396,-252.209 	
		"/>
	<polygon fill="#F8ED40" points="66.18,-251.907 63.598,-256.379 66.18,-260.85 71.343,-260.85 73.924,-256.379 71.343,-251.907 	
		"/>
	<polygon opacity="0.05" points="6.234,-252.209 3.652,-256.681 6.234,-261.151 11.396,-261.151 13.978,-256.681 11.396,-252.209 	
		"/>
	<polygon opacity="0.05" points="66.18,-251.908 63.598,-256.379 66.18,-260.85 71.343,-260.85 73.924,-256.379 71.343,-251.908 	
		"/>
	<polygon fill="#F8ED40" points="19.454,-237.939 0,-271.635 19.454,-305.329 58.361,-305.329 77.816,-271.635 58.361,-237.939 	"/>
	<polygon opacity="0.02" fill="#020202" points="19.454,-305.329 38.908,-272.182 58.361,-305.329 	"/>
	<polygon opacity="0.03" fill="#020202" points="38.908,-272.182 19.454,-237.939 58.361,-237.939 	"/>
	<polygon opacity="0.02" fill="#020202" points="19.454,-305.329 38.908,-272.182 19.454,-237.939 0,-271.635 	"/>
	<path opacity="0.4" fill="none" stroke="#000000" stroke-miterlimit="10" d="M60.718-284.14c0,0,4.345,2.92,4.345,5.146"/>
	<g>
		<ellipse fill="#FFFFFF" cx="30.294" cy="-287.06" rx="7.439" ry="8.669"/>
		<ellipse fill="#FFFFFF" cx="46.829" cy="-287.06" rx="7.439" ry="8.669"/>
		<path opacity="0.1" d="M25.73-297.402c0,0,3.687-5.776,7.086-2.457"/>
		<path opacity="0.1" d="M51.277-298.766c0,0-4.545-5.482-7.67-2.281"/>
		<path fill="#575757" d="M22.717-289.243c0,0,0.931-6.486,7.275-6.486c6.345,0,7.879,6.011,7.879,6.011s-2.416-5.143-7.879-5.143
			C24.531-294.861,22.717-289.243,22.717-289.243z"/>
		<path fill="#575757" d="M39.251-289.243c0,0,0.932-6.486,7.276-6.486c6.345,0,7.878,6.011,7.878,6.011s-2.416-5.143-7.878-5.143
			C41.066-294.861,39.251-289.243,39.251-289.243z"/>
		<ellipse fill="#F6EB0F" cx="29.831" cy="-284.681" rx="6.032" ry="6.485"/>
		<ellipse fill="#F6EB0F" cx="47.432" cy="-284.681" rx="6.032" ry="6.485"/>
		<circle fill="#575757" cx="29.991" cy="-285.898" r="3.87"/>
		<circle fill="#575757" cx="46.828" cy="-285.898" r="3.835"/>
		<ellipse fill="#FFFFFF" cx="27.664" cy="-288.151" rx="0.754" ry="1.092"/>
		<ellipse fill="#FFFFFF" cx="49.373" cy="-288.642" rx="0.754" ry="1.091"/>
		<path opacity="0.4" fill="none" stroke="#000000" stroke-miterlimit="10" d="M16.908-282.255c0,0,10.271,18.452,22.752,18.452
			c12.48,0,23.23-18.452,23.23-18.452"/>
		<path opacity="0.4" fill="none" stroke="#000000" stroke-miterlimit="10" d="M19.421-284.14c0,0-4.346,2.92-4.346,5.146"/>
		<path fill="#FBED27" d="M43.199-279.493c0,0,11.069-2.023,11.069-5.868s2.197,4.807,1.136,5.868
			c-1.061,1.061-5.05,3.78-6.784,3.78C46.886-275.713,43.199-279.493,43.199-279.493z"/>
		<path fill="#EEE835" d="M34.081-279.521c0,0-11.069-2.022-11.069-5.868c0-3.844-2.197,4.808-1.136,5.868
			c1.062,1.062,5.051,3.781,6.785,3.781C30.394-275.739,34.081-279.521,34.081-279.521z"/>
	</g>
</g>
<g>
	<g>
		<polygon fill="#F7961D" points="109.533,-27.183 106.729,-32.041 109.533,-36.898 115.143,-36.898 117.948,-32.041 
			115.143,-27.183 		"/>
		<polygon opacity="0.03" points="109.533,-36.898 115.143,-27.183 109.533,-27.183 106.729,-32.041 		"/>
	</g>
	<g>
		<polygon fill="#F7961D" points="143.174,-27.183 145.844,-31.808 143.174,-36.434 137.834,-36.434 135.162,-31.808 
			137.834,-27.183 		"/>
		<polygon opacity="0.03" points="143.174,-36.434 137.834,-27.183 143.174,-27.183 145.844,-31.808 		"/>
	</g>
	<g>
		<polygon fill="#F7961D" points="151.823,-45.383 149.242,-49.854 151.823,-54.324 156.987,-54.324 159.568,-49.854 
			156.987,-45.383 		"/>
		<polygon opacity="0.05" points="151.823,-45.383 149.242,-49.854 151.823,-54.324 156.987,-54.324 159.568,-49.854 
			156.987,-45.383 		"/>
	</g>
	<g>
		<polygon fill="#F7961D" points="95.496,-45.685 92.914,-50.155 95.496,-54.626 100.658,-54.626 103.24,-50.155 100.658,-45.685 		
			"/>
		<polygon opacity="0.05" points="95.496,-45.685 92.914,-50.155 95.496,-54.626 100.658,-54.626 103.24,-50.155 100.658,-45.685 		
			"/>
	</g>
	<polygon fill="#F7961D" points="106.894,-35.025 87.44,-68.721 106.894,-102.417 145.801,-102.417 165.256,-68.721 
		145.801,-35.025 	"/>
	<polygon opacity="0.02" fill="#FFFFFF" points="106.894,-102.417 145.801,-35.025 106.894,-35.025 87.44,-68.721 	"/>
	<polygon opacity="0.03" points="125.776,-69.71 106.894,-35.025 145.801,-35.025 	"/>
	<polygon opacity="0.03" points="125.776,-69.71 145.801,-102.417 106.894,-102.417 	"/>
	<g>
		<path fill="none" stroke="#000000" stroke-miterlimit="10" d="M135.598-54.535c0,0,7.824,1.492,7.824-8.304"/>
		<path d="M104.919-93.12c0,0,2.412-5.427,5.578-5.427"/>
		<path d="M146.655-93.12c0,0-2.412-5.427-5.579-5.427"/>
		<g>
			<circle fill="#FFFFFF" cx="110.153" cy="-83.965" r="7.713"/>
			<g>
				<ellipse fill="#F5841F" cx="110.374" cy="-85.276" rx="4.441" ry="4.774"/>
				<circle fill="#575757" cx="110.491" cy="-86.174" r="2.849"/>
				<ellipse fill="#FFFFFF" cx="108.779" cy="-87.832" rx="0.555" ry="0.804"/>
			</g>
			<path fill="#575757" d="M101.918-84.544c0,0,1.024-8.24,7.996-8.24c6.973,0,8.659,7.636,8.659,7.636s-2.655-6.533-8.659-6.533
				C103.913-91.682,101.918-84.544,101.918-84.544z"/>
		</g>
		<g>
			<circle fill="#FFFFFF" cx="143.255" cy="-84.267" r="7.713"/>
			<g>
				<ellipse fill="#F5841F" cx="144.188" cy="-85.578" rx="4.441" ry="4.774"/>
				<circle fill="#575757" cx="144.305" cy="-86.476" r="2.849"/>
				<ellipse fill="#FFFFFF" cx="142.592" cy="-88.133" rx="0.555" ry="0.803"/>
			</g>
			<path fill="#575757" d="M151.583-84.278c0,0-1.023-8.241-7.996-8.241c-6.973,0-8.658,7.637-8.658,7.637s2.655-6.533,8.658-6.533
				C149.588-91.416,151.583-84.278,151.583-84.278z"/>
		</g>
		<g>
			<path d="M94.722-87.129l-1.415,2.119c0,0,3.537,3.715,3.537,7.074s4.243,11.668,12.021,11.668s13.613-2.654,14.143-7.78
				s2.121-5.657,2.121-5.657h3.183c0,0,2.298,3.183,2.298,5.657c0,2.477,4.42,10.61,14.322,7.78
				c9.9-2.828,11.844-6.542,11.844-11.314c0-4.775,2.121-5.659,3.183-7.249c1.06-1.592,0-2.298,0-2.298h-19.802
				c0,0-7.777,3.535-9.016,3.535c-1.238,0-7.07,0-7.07,0s-6.014-3.535-9.017-3.535C112.048-87.129,94.722-87.129,94.722-87.129z"/>
			<path fill="#FFFFFF" d="M103.579-82.851c0,0-5.742,3.326-2.62,6.448c3.121,3.121-1.452-0.125,0.845-2.422
				C104.102-81.122,103.579-82.851,103.579-82.851z"/>
			<path fill="#FFFFFF" d="M135.163-73.277c0,0,0.604,4.131,3.022,4.131c2.417,0,4.231,0,4.231,0s-2.191,0.174-3.627-1.262
				C137.354-71.844,135.163-73.277,135.163-73.277z"/>
			<path fill="#FFFFFF" d="M119.899-73.809c0,0-0.605,4.129-3.022,4.129c-2.418,0-4.232,0-4.232,0s2.192,0.176,3.627-1.26
				C117.708-72.375,119.899-73.809,119.899-73.809z"/>
			<path fill="#FFFFFF" d="M144.381-82.851c0,0,9.639-0.179,9.818,0c0.178,0.18,1.655,2.699,0,3.868
				c-1.657,1.169-1.053-1.975-3.17-1.975C148.914-80.957,144.381-82.851,144.381-82.851z"/>
		</g>
	</g>
</g>
<g>
	<polygon fill="#426EB5" points="22.493,76.943 19.69,72.086 22.493,67.229 28.102,67.229 30.909,72.086 28.102,76.943 	"/>
	<polygon opacity="0.03" points="22.493,67.229 28.102,76.943 22.493,76.943 19.69,72.086 	"/>
	<polygon fill="#426EB5" points="55.135,76.943 57.804,72.319 55.135,67.694 49.794,67.694 47.122,72.319 49.794,76.943 	"/>
	<polygon opacity="0.03" points="55.135,67.694 49.794,76.943 55.135,76.943 57.804,72.319 	"/>
	<polygon fill="#426EB5" points="6.494,56.658 3.913,52.188 6.494,47.717 11.657,47.717 14.238,52.188 11.657,56.658 	"/>
	<polygon fill="#426EB5" points="65.837,56.96 63.256,52.489 65.837,48.019 71,48.019 73.582,52.489 71,56.96 	"/>
	<polygon opacity="0.05" points="65.837,56.96 63.256,52.489 65.837,48.019 71,48.019 73.582,52.489 71,56.96 	"/>
	<polygon opacity="0.05" points="6.494,56.658 3.913,52.188 6.494,47.717 11.657,47.717 14.238,52.188 11.657,56.658 	"/>
	<polygon fill="#426EB5" points="19.454,69.681 0,35.985 19.454,2.29 58.361,2.29 77.816,35.985 58.361,69.681 	"/>
	<polygon opacity="0.02" fill="#FFFFFF" points="19.454,2.29 58.361,69.681 19.454,69.681 0,35.985 	"/>
	<polygon opacity="0.03" points="38.336,34.997 19.454,69.681 58.361,69.681 	"/>
	<polygon opacity="0.03" points="38.336,34.997 58.361,2.29 19.454,2.29 	"/>
	<circle fill="#FFFFFF" cx="52.101" cy="31.52" r="0.835"/>
	<path fill="#575757" d="M57.979,23.747c0,0-0.661,5.285-6.277,5.285c-5.616,0-7.762-5.285-7.762-5.285s3.799,2.642,7.432,2.642
		S57.979,23.747,57.979,23.747z"/>
	<ellipse fill="#FFFFFF" stroke="#000000" stroke-miterlimit="10" cx="27.506" cy="28.576" rx="6.716" ry="10.03"/>
	<ellipse fill="#FFFFFF" stroke="#000000" stroke-miterlimit="10" cx="48.962" cy="27.529" rx="6.716" ry="10.03"/>
	<path fill="#5295CF" d="M28.199,26.765c0,0-3.116,0.251-3.116,1.809s0.201,1.056,1.256,0
		C27.395,27.518,28.199,26.765,28.199,26.765z"/>
	<path fill="#5295CF" d="M51.265,26.765c0,0-3.115,0.251-3.115,1.809s0.201,1.056,1.256,0S51.265,26.765,51.265,26.765z"/>
	<path fill="#426EB5" d="M34.934,15.91c0,0-14.542,16.224-19.146,11.619c-4.604-4.604,3.506-4.499,7.99-8.983
		c4.484-4.484,5.427-5.802,9.046-5.802c3.618,0,3.316,3.934,3.316,4.756S34.934,15.91,34.934,15.91z"/>
	<path fill="#426EB5" d="M41.613,15.91c0,0,14.542,16.224,19.146,11.619c4.604-4.604-3.506-4.499-7.99-8.983
		c-4.484-4.484-5.427-5.802-9.046-5.802c-3.618,0-3.316,3.934-3.316,4.756S41.613,15.91,41.613,15.91z"/>
	<path fill="#426EB5" d="M15.279,35.352c0,0,4.135-0.19,11.159,0.534c7.023,0.725,8.515,2.909,8.515,2.909l-8.831,0.159
		L15.279,35.352z"/>
	<path fill="#426EB5" d="M62.338,32.354c0,0-4.018,0.43-10.683,2.171c-6.668,1.742-7.781,4.07-7.781,4.07l8.542-1.158L62.338,32.354
		z"/>
	<path opacity="0.5" d="M28.065,55.018c0,0,5.404-13.719,10.537-13.719s8.51,10.1,8.51,10.1s-2.836-7.99-8.375-7.99
		C33.198,43.408,28.065,55.018,28.065,55.018z"/>
	<circle fill="#5295CF" cx="29.034" cy="31.52" r="0.835"/>
	<circle fill="#5295CF" cx="51.265" cy="30.684" r="0.835"/>
	<path opacity="0.5" d="M36.146,48.158c0,0,2.729,2.541,5.271,0c2.541-2.541-1.322,1.313-2.635,0
		C37.468,46.845,36.146,48.158,36.146,48.158z"/>
	<path opacity="0.5" d="M34.934,15.91c0,0-10.804,12.253-16.834,12.253s3.055-0.765,8.417-6.126
		C31.879,16.674,34.934,15.91,34.934,15.91z"/>
	<path opacity="0.5" d="M41.651,15.91c0,0,10.804,12.253,16.835,12.253c6.03,0-3.055-0.765-8.418-6.126
		C44.705,16.674,41.651,15.91,41.651,15.91z"/>
	<path opacity="0.1" d="M19.467,34.507c0,0-5.561,10.568,0,10.568C25.028,45.075,19.467,34.507,19.467,34.507z"/>
	<path fill="#FFFFFF" d="M19.467,36.406c0,0-2.65,6.397,0,6.397C22.117,42.804,19.467,36.406,19.467,36.406z"/>
</g>
<g>
	<g>
		<polygon fill="#06B052" points="110.095,77.177 107.291,72.318 110.095,67.461 115.704,67.461 118.51,72.318 115.704,77.177 		"/>
		<polygon opacity="0.03" points="110.095,67.461 115.704,77.177 110.095,77.177 107.291,72.318 		"/>
	</g>
	<g>
		<polygon fill="#06B052" points="142.736,77.177 145.405,72.552 142.736,67.927 137.396,67.927 134.724,72.552 137.396,77.177 		
			"/>
		<polygon opacity="0.03" points="142.736,67.927 137.396,77.177 142.736,77.177 145.405,72.552 		"/>
	</g>
	<polygon fill="#06B052" points="153.036,57.11 150.455,52.64 153.036,48.169 158.199,48.169 160.781,52.64 158.199,57.11 	"/>
	<polygon fill="#06B052" points="94.095,56.81 91.513,52.338 94.095,47.867 99.257,47.867 101.839,52.338 99.257,56.81 	"/>
	<polygon opacity="0.05" points="94.095,56.81 91.513,52.338 94.095,47.867 99.257,47.867 101.839,52.338 99.257,56.81 	"/>
	<polygon opacity="0.05" points="153.036,57.11 150.455,52.64 153.036,48.169 158.199,48.169 160.781,52.64 158.199,57.11 	"/>
	<polygon fill="#06B052" points="106.894,69.681 87.44,35.985 106.894,2.29 145.801,2.29 165.256,35.985 145.801,69.681 	"/>
	<polygon opacity="0.02" fill="#FFFFFF" points="106.894,2.29 145.801,69.681 106.894,69.681 87.44,35.985 	"/>
	<polygon opacity="0.03" points="125.776,34.997 106.894,69.681 145.801,69.681 	"/>
	<polygon opacity="0.03" points="125.776,34.997 145.801,2.29 106.894,2.29 	"/>
	<path fill="#575757" d="M106.411,9.75c0,0,10.829,0.21,10.829-3.188"/>
	<path fill="#575757" d="M144.778,9.75c0,0-10.828,0.21-10.828-3.188"/>
	<g>
		<ellipse fill="#FFFFFF" cx="116.495" cy="21.314" rx="5.357" ry="8.132"/>
		<circle fill="#575757" cx="117.029" cy="22.234" r="3.456"/>
	</g>
	<g>
		<ellipse fill="#FFFFFF" cx="135.003" cy="21.314" rx="5.357" ry="8.132"/>
		<circle fill="#575757" cx="135.003" cy="22.234" r="3.457"/>
	</g>
	<path fill="#0EA94B" d="M110.404,26.064c0,0,7.984,3.346,10.714,0.617c2.729-2.73-2.813,4.073-5.899,4.073
		C112.133,30.755,110.404,26.064,110.404,26.064z"/>
	<path fill="#0EA94B" d="M140.436,26.129c0,0-7.983,3.346-10.713,0.617c-2.729-2.73,2.813,4.073,5.899,4.073
		C138.708,30.819,140.436,26.129,140.436,26.129z"/>
	<g>
		<ellipse opacity="0.1" cx="125.939" cy="53.731" rx="6.629" ry="12.799"/>
		<path fill="#FFFFFF" d="M121.118,60.902c0,0,1.847,4.484,4.821,4.484c2.974,0,4.34-4.484,4.34-4.484H121.118z"/>
	</g>
	<path fill="#FFFFFF" d="M145.953,22.364c0,0-2.642,6.376,0,6.376C148.592,28.74,145.953,22.364,145.953,22.364z"/>
	<path fill="#FFFFFF" d="M106.411,14.225c0,0-2.642,6.376,0,6.376C109.051,20.601,106.411,14.225,106.411,14.225z"/>
	<circle fill="#FFFFFF" cx="117.029" cy="22.234" r="0.835"/>
	<circle fill="#FFFFFF" cx="135.004" cy="22.234" r="0.835"/>
</g>
</svg>
