<?xml version="1.0" encoding="utf-8"?>
<!-- Generator: Adobe Illustrator 16.0.4, SVG Export Plug-In . SVG Version: 6.00 Build 0)  -->
<!DOCTYPE svg PUBLIC "-//W3C//DTD SVG 1.1//EN" "http://www.w3.org/Graphics/SVG/1.1/DTD/svg11.dtd">
<svg version="1.1" id="Layer_1" xmlns="http://www.w3.org/2000/svg" xmlns:xlink="http://www.w3.org/1999/xlink" x="0px" y="0px"
	 width="77.816px" height="76.947px" viewBox="0 0 77.816 76.947" enable-background="new 0 0 77.816 76.947" xml:space="preserve">
<g>
	<g>
		<polygon fill="#F3BCD1" points="142.462,-126.357 145.265,-131.217 142.462,-136.073 136.853,-136.073 134.047,-131.217 
			136.853,-126.357 		"/>
		<polygon opacity="0.04" points="142.462,-136.073 136.853,-126.357 142.462,-126.357 145.265,-131.217 		"/>
	</g>
	<g>
		<polygon fill="#F3BCD1" points="111.112,-126.357 108.308,-131.217 111.112,-136.073 116.721,-136.073 119.527,-131.217 
			116.721,-126.357 		"/>
		<polygon opacity="0.04" points="111.112,-136.073 116.721,-126.357 111.112,-126.357 108.308,-131.217 		"/>
	</g>
	<g>
		<polygon fill="#F3BCD1" points="94.246,-146.391 91.665,-150.862 94.246,-155.333 99.409,-155.333 101.99,-150.862 
			99.409,-146.391 		"/>
		<polygon fill="#F3BCD1" points="152.986,-145.787 150.404,-150.259 152.986,-154.729 158.149,-154.729 160.73,-150.259 
			158.149,-145.787 		"/>
		<polygon opacity="0.05" points="94.246,-146.311 91.665,-150.781 94.246,-155.252 99.409,-155.252 101.99,-150.781 
			99.409,-146.311 		"/>
		<polygon opacity="0.05" points="152.986,-145.787 150.404,-150.259 152.986,-154.729 158.149,-154.729 160.73,-150.259 
			158.149,-145.787 		"/>
	</g>
	<polygon fill="#F3BCD1" points="106.894,-133.439 87.44,-167.135 106.894,-200.829 145.801,-200.829 165.256,-167.135 
		145.801,-133.439 	"/>
	<polygon opacity="0.02" fill="#FFFFFF" points="106.894,-200.829 145.801,-133.439 106.894,-133.439 87.44,-167.135 	"/>
	<polygon opacity="0.01" points="125.776,-168.123 106.894,-133.439 145.801,-133.439 	"/>
	<polygon opacity="0.02" points="125.776,-168.123 145.801,-200.829 106.894,-200.829 	"/>
	<g>
		<path fill="#575757" d="M107.755-192.178c0,0,2.622-5.302,11.319-5.302"/>
		<path fill="#575757" d="M140.811-192.86c0,0-2.622-5.302-11.32-5.302"/>
		<circle opacity="0.3" fill="#D71E40" cx="105.542" cy="-163.839" r="11.96"/>
		<circle opacity="0.3" fill="#D71E40" cx="107.201" cy="-166.422" r="10.127"/>
		<circle opacity="0.3" fill="#D71E40" cx="143.48" cy="-166.422" r="10.127"/>
		<circle opacity="0.3" fill="#D71E40" cx="144.83" cy="-163.839" r="11.96"/>
		<circle fill="#FFFFFF" cx="138.297" cy="-174.267" r="9.792"/>
		<path fill="#575757" d="M128.535-175.343c0,0,1.272-8.717,9.792-8.717c8.521,0,9.733,8.717,9.733,8.717s-2.624-7.88-9.733-7.88
			C131.218-183.223,128.535-175.343,128.535-175.343z"/>
		<circle fill="#575757" cx="138.297" cy="-174.267" r="1.884"/>
		<path opacity="0.1" fill="#FFFFFF" d="M128.832-168.455c0,0,5.027,5.743,9.763,5.743c4.737,0,9.167-5.743,9.167-5.743
			s-3.401,7.22-9.167,7.22S128.832-168.455,128.832-168.455z"/>
		<path opacity="0.4" fill="#FFFFFF" d="M136.96-174.024c0,0,0.128,1.328,1.396,1.328c1.269,0,1.277-1.328,1.277-1.328
			s-0.363,0.664-1.337,0.664C137.324-173.36,136.96-174.024,136.96-174.024z"/>
		<circle fill="#FFFFFF" cx="112.84" cy="-174.267" r="9.792"/>
		<path fill="#575757" d="M103.048-175.343c0,0,1.272-8.717,9.792-8.717c8.519,0,9.732,8.717,9.732,8.717s-2.624-7.88-9.732-7.88
			C105.731-183.223,103.048-175.343,103.048-175.343z"/>
		<circle fill="#575757" cx="113.197" cy="-174.267" r="1.719"/>
		<path opacity="0.1" fill="#FFFFFF" d="M103.048-168.455c0,0,5.025,5.743,9.762,5.743c4.736,0,9.167-5.743,9.167-5.743
			s-3.402,7.22-9.167,7.22C107.044-161.235,103.048-168.455,103.048-168.455z"/>
		<path opacity="0.4" fill="#FFFFFF" d="M111.922-174.267c0,0,0.117,1.212,1.275,1.212c1.158,0,1.166-1.212,1.166-1.212
			s-0.333,0.605-1.22,0.605C112.254-173.661,111.922-174.267,111.922-174.267z"/>
		<path opacity="0.4" d="M130.396-147.863c0,0.549-0.445,0.993-0.994,0.993h-7.479c-0.549,0-0.993-0.444-0.993-0.993l0,0
			c0-0.549,0.444-0.993,0.993-0.993h7.479C129.951-148.856,130.396-148.412,130.396-147.863L130.396-147.863z"/>
	</g>
</g>
<g>
	<g>
		<polygon fill="#754D9E" points="22.493,76.947 19.69,72.089 22.493,67.231 28.102,67.231 30.909,72.089 28.102,76.947 		"/>
		<polygon opacity="0.05" points="22.493,67.231 28.102,76.947 22.493,76.947 19.69,72.089 		"/>
	</g>
	<g>
		<polygon fill="#754D9E" points="55.135,76.947 57.804,72.321 55.135,67.696 49.794,67.696 47.122,72.321 49.794,76.947 		"/>
		<polygon opacity="0.05" points="55.135,67.696 49.794,76.947 55.135,76.947 57.804,72.321 		"/>
	</g>
	<polygon fill="#754D9E" points="7.44,57.757 4.858,53.286 7.44,48.814 12.603,48.814 15.184,53.286 12.603,57.757 	"/>
	<polygon fill="#754D9E" points="64.974,57.757 62.392,53.286 64.974,48.814 70.137,48.814 72.718,53.286 70.137,57.757 	"/>
	<polygon opacity="0.05" points="64.974,57.757 62.392,53.286 64.974,48.814 70.137,48.814 72.718,53.286 70.137,57.757 	"/>
	<polygon opacity="0.05" points="7.44,57.757 4.858,53.286 7.44,48.814 12.603,48.814 15.184,53.286 12.603,57.757 	"/>
	<polygon fill="#754D9E" points="19.454,69.475 0,35.779 19.454,2.083 58.361,2.083 77.816,35.779 58.361,69.475 	"/>
	<polygon opacity="0.02" fill="#FFFFFF" points="19.454,2.083 58.361,69.475 19.454,69.475 0,35.779 	"/>
	<polygon opacity="0.03" points="38.336,34.79 19.454,69.475 58.361,69.475 	"/>
	<polygon opacity="0.03" points="38.336,34.79 58.361,2.083 19.454,2.083 	"/>
	<g>
		<ellipse opacity="0.3" cx="26.148" cy="28.828" rx="11.344" ry="12.833"/>
		<ellipse opacity="0.3" cx="52.023" cy="28.828" rx="11.344" ry="12.833"/>
		<g>
			<ellipse opacity="0.1" fill="#FFFFFF" cx="26.524" cy="28.979" rx="12.838" ry="14.296"/>
			<ellipse opacity="0.1" fill="#FFFFFF" cx="52.136" cy="28.979" rx="12.839" ry="14.296"/>
		</g>
		<path fill="#FFFFFF" stroke="#753D77" stroke-miterlimit="10" d="M16.926,26.534c0,0,0,12.04,10.159,12.04
			s10.159-12.04,10.159-12.04H16.926z"/>
		<path fill="#FFFFFF" stroke="#773D78" stroke-miterlimit="10" d="M41.154,26.534c0,0,0,12.04,10.159,12.04
			s10.159-12.04,10.159-12.04H41.154z"/>
		<ellipse fill="#A254A0" cx="24.048" cy="27.48" rx="6.236" ry="4.461"/>
		<ellipse fill="#A254A0" cx="48.718" cy="27.48" rx="6.178" ry="4.461"/>
		<ellipse fill="#050404" cx="23.924" cy="28.146" rx="4.845" ry="2.989"/>
		<ellipse fill="#050404" cx="48.708" cy="28.146" rx="4.619" ry="2.989"/>
		<ellipse transform="matrix(0.007 1 -1 0.007 50.2328 4.4186)" fill="#FFFFFF" cx="22.892" cy="27.502" rx="1.397" ry="1.031"/>
		<ellipse transform="matrix(0.007 1 -1 0.007 74.5877 -20.1072)" fill="#FFFFFF" cx="47.418" cy="27.502" rx="1.397" ry="1.014"/>
		<g>
			<path fill="#8E4D90" d="M40.568,28.159h23.136c0,0-0.697-12.282-11.568-12.282C41.266,15.877,40.568,28.159,40.568,28.159z"/>
			<path fill="#8E4D90" d="M14.58,28.159h23.136c0,0-0.697-12.282-11.568-12.282C15.277,15.877,14.58,28.159,14.58,28.159z"/>
		</g>
		<ellipse opacity="0.1" fill="#FFFFFF" cx="37.508" cy="44.912" rx="1.693" ry="1.865"/>
		<ellipse opacity="0.1" fill="#FFFFFF" cx="40.846" cy="44.912" rx="1.694" ry="1.865"/>
		<ellipse cx="37.668" cy="44.64" rx="1.079" ry="1.187"/>
		<ellipse cx="40.748" cy="44.64" rx="1.065" ry="1.187"/>
		<path fill="none" stroke="#000000" stroke-miterlimit="10" d="M37.876,55.403c0.347-0.587,1.011-1.026,1.545-1.412
			c0.441-0.319,0.7-0.405,1.25-0.403c0.548,0.001,0.952,0.008,1.467,0.179c0.389,0.13,0.845,0.316,1.198,0.529"/>
		<path opacity="0.3" fill="none" stroke="#000000" stroke-miterlimit="10" d="M14.355,28.159c0,0,0.513-12.282,11.944-12.282
			c11.432,0,11.193,12.282,11.193,12.282"/>
		<path opacity="0.3" fill="none" stroke="#000000" stroke-miterlimit="10" d="M40.455,28.159c0,0,0.512-12.282,11.944-12.282
			c11.432,0,11.192,12.282,11.192,12.282"/>
	</g>
</g>
<g>
	<g>
		<polygon fill="#ED2A25" points="55.13,-25.511 57.933,-30.368 55.13,-35.227 49.521,-35.227 46.715,-30.368 49.521,-25.511 		"/>
		<polygon opacity="0.04" points="55.13,-35.227 49.521,-25.511 55.13,-25.511 57.933,-30.368 		"/>
	</g>
	<g>
		<polygon fill="#ED2A25" points="22.779,-25.511 19.977,-30.368 22.779,-35.227 28.389,-35.227 31.194,-30.368 28.389,-25.511 		
			"/>
		<polygon opacity="0.04" points="22.779,-35.227 28.389,-25.511 22.779,-25.511 19.977,-30.368 		"/>
	</g>
	<g>
		<polygon fill="#ED2A25" points="5.47,-48.433 2.889,-52.904 5.47,-57.375 10.633,-57.375 13.215,-52.904 10.633,-48.433 		"/>
		<polygon opacity="0.05" points="5.47,-48.434 2.889,-52.904 5.47,-57.375 10.633,-57.375 13.215,-52.904 10.633,-48.434 		"/>
	</g>
	<g>
		<polygon fill="#ED2A25" points="66.623,-47.83 64.041,-52.301 66.623,-56.771 71.786,-56.771 74.367,-52.301 71.786,-47.83 		"/>
		<polygon opacity="0.05" points="66.623,-47.83 64.041,-52.301 66.623,-56.771 71.786,-56.771 74.367,-52.301 71.786,-47.83 		"/>
	</g>
	<polygon fill="#ED2A25" points="19.454,-33.348 0,-67.044 19.454,-100.738 58.361,-100.738 77.816,-67.044 58.361,-33.348 	"/>
	<polygon opacity="0.02" fill="#FFFFFF" points="19.454,-100.738 58.361,-33.348 19.454,-33.348 0,-67.044 	"/>
	<polygon opacity="0.02" points="38.336,-68.032 19.454,-33.348 58.361,-33.348 	"/>
	<polygon opacity="0.03" points="38.336,-68.032 58.361,-100.738 19.454,-100.738 	"/>
	<path d="M30.987-49.264c0,0,4.131-5.589,7.65-5.589c3.52,0,7.65,5.196,7.65,5.196s-3.771-6.409-7.65-6.409s-7.65,6.409-7.65,6.409"
		/>
	<path opacity="0.8" d="M35.952-78.248c0,0,0.241-3.237-1.546-5.025c-1.788-1.787-6.765-5.7-11.596-5.7s-5.315,1.449-4.349,2.415
		c0.966,0.967,8.166,1.691,10.63,4.155C31.555-79.939,35.952-78.248,35.952-78.248z"/>
	<ellipse fill="#FFFFFF" cx="30.117" cy="-74.866" rx="5.17" ry="6.958"/>
	<path opacity="0.6" d="M25.05-73.359c0,0,1.02,5.45,5.033,5.45s5.082-5.45,5.082-5.45s-2.054,4.573-5.082,4.573
		S25.05-73.359,25.05-73.359z"/>
	<path opacity="0.1" fill="#FFFFFF" d="M25.05-73.359c0,0,0.366,6.306,5.058,6.306c4.692,0,5.057-6.306,5.057-6.306
		s-1.079,5.45-5.082,5.45C26.08-67.909,25.05-73.359,25.05-73.359z"/>
	<ellipse fill="#C32127" cx="30.19" cy="-74.845" rx="2.527" ry="4.596"/>
	<path fill="#C32127" d="M25.418-77.303c0,0,1.083-4.276,4.771-4.276c3.689,0,4.772,4.276,4.772,4.276s-1.188-2.686-4.699-2.686
		C26.75-79.988,25.418-77.303,25.418-77.303z"/>
	<circle fill="#FFFFFF" cx="30.19" cy="-74.866" r="0.528"/>
	<path opacity="0.8" d="M42.121-77.946c0,0-0.242-3.237,1.546-5.025c1.788-1.787,6.764-5.701,11.596-5.701
		c4.832,0,5.315,1.449,4.349,2.416c-0.966,0.966-8.166,1.69-10.629,4.155C46.518-79.638,42.121-77.946,42.121-77.946z"/>
	<ellipse fill="#FFFFFF" cx="47.689" cy="-74.564" rx="5.17" ry="6.958"/>
	<path opacity="0.6" d="M42.631-73.059c0,0,1.02,5.45,5.033,5.45s5.082-5.45,5.082-5.45s-2.054,4.573-5.082,4.573
		C44.636-68.485,42.631-73.059,42.631-73.059z"/>
	<path opacity="0.1" fill="#FFFFFF" d="M42.631-73.059c0,0,0.366,6.307,5.058,6.307s5.057-6.307,5.057-6.307s-1.08,5.45-5.082,5.45
		S42.631-73.059,42.631-73.059z"/>
	<ellipse fill="#C32127" cx="47.689" cy="-74.543" rx="2.527" ry="4.596"/>
	<path fill="#C32127" d="M42.917-77c0,0,1.083-4.277,4.772-4.277c3.688,0,4.772,4.277,4.772,4.277s-1.188-2.687-4.7-2.687
		S42.917-77,42.917-77z"/>
	<circle fill="#FFFFFF" cx="47.689" cy="-74.564" r="0.528"/>
</g>
<g>
	<g>
		<polygon fill="#ED4798" points="109.767,-25.113 106.964,-29.971 109.767,-34.829 115.376,-34.829 118.183,-29.971 
			115.376,-25.113 		"/>
		<polygon opacity="0.03" points="109.767,-34.829 115.376,-25.113 109.767,-25.113 106.964,-29.971 		"/>
	</g>
	<g>
		<polygon fill="#ED4798" points="142.409,-25.113 145.078,-29.738 142.409,-34.363 137.068,-34.363 134.396,-29.738 
			137.068,-25.113 		"/>
		<polygon opacity="0.03" points="142.409,-34.363 137.068,-25.113 142.409,-25.113 145.078,-29.738 		"/>
	</g>
	<g>
		<polygon fill="#ED4798" points="93.402,-47.83 90.82,-52.301 93.402,-56.771 98.565,-56.771 101.146,-52.301 98.565,-47.83 		"/>
		<polygon opacity="0.05" points="93.402,-47.83 90.82,-52.301 93.402,-56.771 98.565,-56.771 101.146,-52.301 98.565,-47.83 		"/>
	</g>
	<g>
		<polygon fill="#ED4798" points="154.252,-47.83 151.671,-52.301 154.252,-56.771 159.416,-56.771 161.997,-52.301 159.416,-47.83 
					"/>
		<polygon opacity="0.05" points="154.252,-47.83 151.671,-52.301 154.252,-56.771 159.416,-56.771 161.997,-52.301 159.416,-47.83 
					"/>
	</g>
	<polygon fill="#ED4798" points="106.894,-33.348 87.44,-67.044 106.894,-100.738 145.801,-100.738 165.256,-67.044 
		145.801,-33.348 	"/>
	<polygon opacity="0.02" fill="#FFFFFF" points="106.894,-100.738 145.801,-33.348 106.894,-33.348 87.44,-67.044 	"/>
	<polygon opacity="0.03" points="125.776,-68.032 106.894,-33.348 145.801,-33.348 	"/>
	<polygon opacity="0.03" points="125.776,-68.032 145.801,-100.738 106.894,-100.738 	"/>
	
		<ellipse transform="matrix(0.9999 -0.012 0.012 0.9999 0.96 1.3912)" fill="#FFFFFF" cx="116.062" cy="-79.06" rx="7.708" ry="7.841"/>
	
		<ellipse transform="matrix(0.9999 -0.0121 0.0121 0.9999 0.9817 1.6214)" fill="#FFFFFF" cx="134.495" cy="-80.321" rx="7.708" ry="7.842"/>
	<path fill="#4A3E4D" d="M112.173-90.016c0,0,3.687-5.776,7.087-2.457"/>
	<path fill="#4A3E4D" d="M137.721-91.379c0,0-4.545-5.482-7.67-2.281"/>
	<path fill="#E10686" d="M120.58-83.185c-0.15-0.047-0.291-0.083-0.425-0.111c-1.071-0.226-1.681,0.128-2.417,0.706
		c-0.44-0.824-0.858-1.395-1.928-1.619c-0.135-0.028-0.278-0.051-0.434-0.069c-0.947-0.104-2.196,0.521-2.667,2.119l-0.114,0.541
		c-0.205,1.581,0.567,3.748,3.494,6.878c3.94-1.688,5.518-3.361,5.966-4.891l0.113-0.543C122.382-81.826,121.489-82.9,120.58-83.185
		z"/>
	<path fill="#E10686" d="M134.461-85.074c-0.152,0.04-0.292,0.082-0.419,0.126c-1.031,0.369-1.368,0.989-1.694,1.867
		c-0.806-0.473-1.459-0.741-2.488-0.374c-0.131,0.046-0.264,0.103-0.407,0.167c-0.861,0.406-1.601,1.59-1.167,3.2l0.184,0.521
		c0.654,1.454,2.442,2.898,6.573,4.039c2.479-3.498,2.95-5.75,2.532-7.287l-0.185-0.521
		C136.706-84.857,135.385-85.305,134.461-85.074z"/>
	<path opacity="0.2" fill="#FFFFFF" d="M108.543-77.33c0,0,1.235,6.111,7.614,6.111c6.377,0,7.42-6.111,7.42-6.111
		s-3.672,4.321-7.516,4.321C112.218-73.009,108.543-77.33,108.543-77.33z"/>
	<path fill="#4A3E4D" d="M108.457-80.562c0,0,0.932-6.485,7.276-6.485c6.345,0,7.878,6.01,7.878,6.01s-2.416-5.142-7.878-5.142
		C110.271-86.18,108.457-80.562,108.457-80.562z"/>
	<path fill="#4A3E4D" d="M126.786-81.062c0,0,0.719-7.097,7.708-7.097c6.99,0,7.708,7.097,7.708,7.097s-2.542-6.307-7.708-6.307
		C129.328-87.369,126.786-81.062,126.786-81.062z"/>
	<g>
		<path fill="#ED4798" d="M105.85-73.391c0,0,3.707-0.172,10.004,0.479c6.296,0.649,7.634,2.608,7.634,2.608l-7.917,0.143
			L105.85-73.391z"/>
		<path fill="#ED4798" d="M145.519-76.091c0,0-3.69,0.394-9.814,1.994c-6.125,1.601-7.148,3.739-7.148,3.739l7.847-1.063
			L145.519-76.091z"/>
	</g>
	<path fill="#FFFFFF" d="M116.687-82.595c0,0-0.336-1.21-1.627-1.21c-1.29,0-1.786,1.94-1.786,1.94s0.374-0.97,1.706-0.97
		C116.313-82.834,116.687-82.595,116.687-82.595z"/>
	<path fill="#FFFFFF" d="M136.347-83.401c0,0-0.335-1.21-1.625-1.21c-1.291,0-1.788,1.941-1.788,1.941s0.373-0.971,1.706-0.971
		C135.974-83.641,136.347-83.401,136.347-83.401z"/>
	<g>
		<path fill="none" stroke="#4A3E4D" stroke-width="0.5" stroke-miterlimit="10" d="M104.256-72.562c0,0,2.045,13.527,21.556,13.527
			c19.512,0,19.634-13.527,19.634-13.527"/>
		<path fill="none" stroke="#4A3E4D" stroke-width="0.5" stroke-miterlimit="10" d="M100.842-70.003c0,0,3.82-3.575,5.932-3.575"/>
		<path fill="none" stroke="#4A3E4D" stroke-width="0.5" stroke-miterlimit="10" d="M149.021-70.572c0,0-3.17-2.519-6.014-2.519"/>
	</g>
	<path opacity="0.1" fill="#4A3E4D" d="M114.668-59.116c0,0,6.294,2.274,11.184,2.274c4.889,0,10.169-2.274,10.169-2.274
		s-5.701,5.441-10.081,4.792C121.56-54.973,114.668-59.116,114.668-59.116z"/>
	<path opacity="0.2" fill="#FFFFFF" d="M111.628-62.021c0,0,5.842,3.352,14.224,3.352c8.382,0,13.318-3.352,13.318-3.352
		s-6.539,4.937-13.229,4.937C119.251-57.085,111.628-62.021,111.628-62.021z"/>
</g>
<g>
	<g>
		<polygon fill="#F8ED40" points="54.583,-125.627 57.386,-130.484 54.583,-135.342 48.974,-135.342 46.168,-130.484 
			48.974,-125.627 		"/>
		<polygon opacity="0.04" points="54.583,-135.342 48.974,-125.627 54.583,-125.627 57.386,-130.484 		"/>
	</g>
	<g>
		<polygon fill="#F8ED40" points="23.232,-125.627 20.429,-130.484 23.232,-135.342 28.842,-135.342 31.647,-130.484 
			28.842,-125.627 		"/>
		<polygon opacity="0.04" points="23.232,-135.342 28.842,-125.627 23.232,-125.627 20.429,-130.484 		"/>
	</g>
	<polygon fill="#F8ED40" points="6.234,-147.709 3.652,-152.181 6.234,-156.651 11.396,-156.651 13.978,-152.181 11.396,-147.709 	
		"/>
	<polygon fill="#F8ED40" points="66.18,-147.407 63.598,-151.879 66.18,-156.35 71.343,-156.35 73.924,-151.879 71.343,-147.407 	
		"/>
	<polygon opacity="0.05" points="6.234,-147.709 3.652,-152.181 6.234,-156.651 11.396,-156.651 13.978,-152.181 11.396,-147.709 	
		"/>
	<polygon opacity="0.05" points="66.18,-147.408 63.598,-151.879 66.18,-156.35 71.343,-156.35 73.924,-151.879 71.343,-147.408 	
		"/>
	<polygon fill="#F8ED40" points="19.454,-133.439 0,-167.135 19.454,-200.829 58.361,-200.829 77.816,-167.135 58.361,-133.439 	"/>
	<polygon opacity="0.02" fill="#020202" points="19.454,-200.829 38.908,-167.682 58.361,-200.829 	"/>
	<polygon opacity="0.03" fill="#020202" points="38.908,-167.682 19.454,-133.439 58.361,-133.439 	"/>
	<polygon opacity="0.02" fill="#020202" points="19.454,-200.829 38.908,-167.682 19.454,-133.439 0,-167.135 	"/>
	<path opacity="0.4" fill="none" stroke="#000000" stroke-miterlimit="10" d="M60.718-179.64c0,0,4.345,2.92,4.345,5.146"/>
	<g>
		<ellipse fill="#FFFFFF" cx="30.294" cy="-182.56" rx="7.439" ry="8.669"/>
		<ellipse fill="#FFFFFF" cx="46.829" cy="-182.56" rx="7.439" ry="8.669"/>
		<path opacity="0.1" d="M25.73-192.902c0,0,3.687-5.776,7.086-2.457"/>
		<path opacity="0.1" d="M51.277-194.266c0,0-4.545-5.482-7.67-2.281"/>
		<path fill="#575757" d="M22.717-184.743c0,0,0.931-6.486,7.275-6.486c6.345,0,7.879,6.011,7.879,6.011s-2.416-5.143-7.879-5.143
			C24.531-190.361,22.717-184.743,22.717-184.743z"/>
		<path fill="#575757" d="M39.251-184.743c0,0,0.932-6.486,7.276-6.486c6.345,0,7.878,6.011,7.878,6.011s-2.416-5.143-7.878-5.143
			C41.066-190.361,39.251-184.743,39.251-184.743z"/>
		<ellipse fill="#F6EB0F" cx="29.831" cy="-180.181" rx="6.032" ry="6.485"/>
		<ellipse fill="#F6EB0F" cx="47.432" cy="-180.181" rx="6.032" ry="6.485"/>
		<circle fill="#575757" cx="29.991" cy="-181.398" r="3.87"/>
		<circle fill="#575757" cx="46.828" cy="-181.398" r="3.835"/>
		<ellipse fill="#FFFFFF" cx="27.664" cy="-183.651" rx="0.754" ry="1.092"/>
		<ellipse fill="#FFFFFF" cx="49.373" cy="-184.142" rx="0.754" ry="1.091"/>
		<path opacity="0.4" fill="none" stroke="#000000" stroke-miterlimit="10" d="M16.908-177.755c0,0,10.271,18.452,22.752,18.452
			c12.48,0,23.23-18.452,23.23-18.452"/>
		<path opacity="0.4" fill="none" stroke="#000000" stroke-miterlimit="10" d="M19.421-179.64c0,0-4.346,2.92-4.346,5.146"/>
		<path fill="#FBED27" d="M43.199-174.993c0,0,11.069-2.023,11.069-5.868s2.197,4.807,1.136,5.868
			c-1.061,1.061-5.05,3.78-6.784,3.78C46.886-171.213,43.199-174.993,43.199-174.993z"/>
		<path fill="#EEE835" d="M34.081-175.021c0,0-11.069-2.022-11.069-5.868c0-3.844-2.197,4.808-1.136,5.868
			c1.062,1.062,5.051,3.781,6.785,3.781C30.394-171.239,34.081-175.021,34.081-175.021z"/>
	</g>
</g>
<g>
	<g>
		<polygon fill="#F7961D" points="109.533,77.317 106.729,72.459 109.533,67.602 115.143,67.602 117.948,72.459 115.143,77.317 		
			"/>
		<polygon opacity="0.03" points="109.533,67.602 115.143,77.317 109.533,77.317 106.729,72.459 		"/>
	</g>
	<g>
		<polygon fill="#F7961D" points="143.174,77.317 145.844,72.692 143.174,68.066 137.834,68.066 135.162,72.692 137.834,77.317 		
			"/>
		<polygon opacity="0.03" points="143.174,68.066 137.834,77.317 143.174,77.317 145.844,72.692 		"/>
	</g>
	<g>
		<polygon fill="#F7961D" points="151.823,59.117 149.242,54.646 151.823,50.176 156.987,50.176 159.568,54.646 156.987,59.117 		
			"/>
		<polygon opacity="0.05" points="151.823,59.117 149.242,54.646 151.823,50.176 156.987,50.176 159.568,54.646 156.987,59.117 		
			"/>
	</g>
	<g>
		<polygon fill="#F7961D" points="95.496,58.815 92.914,54.345 95.496,49.874 100.658,49.874 103.24,54.345 100.658,58.815 		"/>
		<polygon opacity="0.05" points="95.496,58.815 92.914,54.345 95.496,49.874 100.658,49.874 103.24,54.345 100.658,58.815 		"/>
	</g>
	<polygon fill="#F7961D" points="106.894,69.475 87.44,35.779 106.894,2.083 145.801,2.083 165.256,35.779 145.801,69.475 	"/>
	<polygon opacity="0.02" fill="#FFFFFF" points="106.894,2.083 145.801,69.475 106.894,69.475 87.44,35.779 	"/>
	<polygon opacity="0.03" points="125.776,34.79 106.894,69.475 145.801,69.475 	"/>
	<polygon opacity="0.03" points="125.776,34.79 145.801,2.083 106.894,2.083 	"/>
	<g>
		<path fill="none" stroke="#000000" stroke-miterlimit="10" d="M135.598,49.965c0,0,7.824,1.492,7.824-8.304"/>
		<path d="M104.919,11.38c0,0,2.412-5.427,5.578-5.427"/>
		<path d="M146.655,11.38c0,0-2.412-5.427-5.579-5.427"/>
		<g>
			<circle fill="#FFFFFF" cx="110.153" cy="20.535" r="7.713"/>
			<g>
				<ellipse fill="#F5841F" cx="110.374" cy="19.224" rx="4.441" ry="4.774"/>
				<circle fill="#575757" cx="110.491" cy="18.326" r="2.849"/>
				<ellipse fill="#FFFFFF" cx="108.779" cy="16.668" rx="0.555" ry="0.804"/>
			</g>
			<path fill="#575757" d="M101.918,19.956c0,0,1.024-8.24,7.996-8.24c6.973,0,8.659,7.636,8.659,7.636s-2.655-6.533-8.659-6.533
				C103.913,12.818,101.918,19.956,101.918,19.956z"/>
		</g>
		<g>
			<circle fill="#FFFFFF" cx="143.255" cy="20.233" r="7.713"/>
			<g>
				<ellipse fill="#F5841F" cx="144.188" cy="18.922" rx="4.441" ry="4.774"/>
				<circle fill="#575757" cx="144.305" cy="18.024" r="2.849"/>
				<ellipse fill="#FFFFFF" cx="142.592" cy="16.367" rx="0.555" ry="0.803"/>
			</g>
			<path fill="#575757" d="M151.583,20.222c0,0-1.023-8.241-7.996-8.241c-6.973,0-8.658,7.637-8.658,7.637s2.655-6.533,8.658-6.533
				C149.588,13.084,151.583,20.222,151.583,20.222z"/>
		</g>
		<g>
			<path d="M94.722,17.371l-1.415,2.119c0,0,3.537,3.715,3.537,7.074s4.243,11.668,12.021,11.668s13.613-2.654,14.143-7.78
				s2.121-5.657,2.121-5.657h3.183c0,0,2.298,3.183,2.298,5.657c0,2.477,4.42,10.61,14.322,7.78
				c9.9-2.828,11.844-6.542,11.844-11.314c0-4.775,2.121-5.659,3.183-7.249c1.06-1.592,0-2.298,0-2.298h-19.802
				c0,0-7.777,3.535-9.016,3.535c-1.238,0-7.07,0-7.07,0s-6.014-3.535-9.017-3.535C112.048,17.371,94.722,17.371,94.722,17.371z"/>
			<path fill="#FFFFFF" d="M103.579,21.649c0,0-5.742,3.326-2.62,6.448c3.121,3.121-1.452-0.125,0.845-2.422
				C104.102,23.378,103.579,21.649,103.579,21.649z"/>
			<path fill="#FFFFFF" d="M135.163,31.223c0,0,0.604,4.131,3.022,4.131c2.417,0,4.231,0,4.231,0s-2.191,0.174-3.627-1.262
				C137.354,32.656,135.163,31.223,135.163,31.223z"/>
			<path fill="#FFFFFF" d="M119.899,30.691c0,0-0.605,4.129-3.022,4.129c-2.418,0-4.232,0-4.232,0s2.192,0.176,3.627-1.26
				C117.708,32.125,119.899,30.691,119.899,30.691z"/>
			<path fill="#FFFFFF" d="M144.381,21.649c0,0,9.639-0.179,9.818,0c0.178,0.18,1.655,2.699,0,3.868
				c-1.657,1.169-1.053-1.975-3.17-1.975C148.914,23.543,144.381,21.649,144.381,21.649z"/>
		</g>
	</g>
</g>
<g>
	<polygon fill="#426EB5" points="22.493,181.443 19.69,176.586 22.493,171.729 28.102,171.729 30.909,176.586 28.102,181.443 	"/>
	<polygon opacity="0.03" points="22.493,171.729 28.102,181.443 22.493,181.443 19.69,176.586 	"/>
	<polygon fill="#426EB5" points="55.135,181.443 57.804,176.819 55.135,172.194 49.794,172.194 47.122,176.819 49.794,181.443 	"/>
	<polygon opacity="0.03" points="55.135,172.194 49.794,181.443 55.135,181.443 57.804,176.819 	"/>
	<polygon fill="#426EB5" points="6.494,161.158 3.913,156.688 6.494,152.217 11.657,152.217 14.238,156.688 11.657,161.158 	"/>
	<polygon fill="#426EB5" points="65.837,161.46 63.256,156.989 65.837,152.519 71,152.519 73.582,156.989 71,161.46 	"/>
	<polygon opacity="0.05" points="65.837,161.46 63.256,156.989 65.837,152.519 71,152.519 73.582,156.989 71,161.46 	"/>
	<polygon opacity="0.05" points="6.494,161.158 3.913,156.688 6.494,152.217 11.657,152.217 14.238,156.688 11.657,161.158 	"/>
	<polygon fill="#426EB5" points="19.454,174.181 0,140.485 19.454,106.79 58.361,106.79 77.816,140.485 58.361,174.181 	"/>
	<polygon opacity="0.02" fill="#FFFFFF" points="19.454,106.79 58.361,174.181 19.454,174.181 0,140.485 	"/>
	<polygon opacity="0.03" points="38.336,139.497 19.454,174.181 58.361,174.181 	"/>
	<polygon opacity="0.03" points="38.336,139.497 58.361,106.79 19.454,106.79 	"/>
	<circle fill="#FFFFFF" cx="52.101" cy="136.02" r="0.835"/>
	<path fill="#575757" d="M57.979,128.247c0,0-0.661,5.285-6.277,5.285c-5.616,0-7.762-5.285-7.762-5.285s3.799,2.642,7.432,2.642
		S57.979,128.247,57.979,128.247z"/>
	<ellipse fill="#FFFFFF" stroke="#000000" stroke-miterlimit="10" cx="27.506" cy="133.076" rx="6.716" ry="10.03"/>
	<ellipse fill="#FFFFFF" stroke="#000000" stroke-miterlimit="10" cx="48.962" cy="132.029" rx="6.716" ry="10.03"/>
	<path fill="#5295CF" d="M28.199,131.265c0,0-3.116,0.251-3.116,1.809s0.201,1.056,1.256,0
		C27.395,132.018,28.199,131.265,28.199,131.265z"/>
	<path fill="#5295CF" d="M51.265,131.265c0,0-3.115,0.251-3.115,1.809s0.201,1.056,1.256,0S51.265,131.265,51.265,131.265z"/>
	<path fill="#426EB5" d="M34.934,120.41c0,0-14.542,16.224-19.146,11.619c-4.604-4.604,3.506-4.499,7.99-8.983
		c4.484-4.484,5.427-5.802,9.046-5.802c3.618,0,3.316,3.934,3.316,4.756S34.934,120.41,34.934,120.41z"/>
	<path fill="#426EB5" d="M41.613,120.41c0,0,14.542,16.224,19.146,11.619c4.604-4.604-3.506-4.499-7.99-8.983
		c-4.484-4.484-5.427-5.802-9.046-5.802c-3.618,0-3.316,3.934-3.316,4.756S41.613,120.41,41.613,120.41z"/>
	<path fill="#426EB5" d="M15.279,139.852c0,0,4.135-0.19,11.159,0.534c7.023,0.725,8.515,2.909,8.515,2.909l-8.831,0.159
		L15.279,139.852z"/>
	<path fill="#426EB5" d="M62.338,136.854c0,0-4.018,0.43-10.683,2.171c-6.668,1.742-7.781,4.07-7.781,4.07l8.542-1.158
		L62.338,136.854z"/>
	<path opacity="0.5" d="M28.065,159.518c0,0,5.404-13.719,10.537-13.719s8.51,10.1,8.51,10.1s-2.836-7.99-8.375-7.99
		C33.198,147.908,28.065,159.518,28.065,159.518z"/>
	<circle fill="#5295CF" cx="29.034" cy="136.02" r="0.835"/>
	<circle fill="#5295CF" cx="51.265" cy="135.184" r="0.835"/>
	<path opacity="0.5" d="M36.146,152.658c0,0,2.729,2.541,5.271,0c2.541-2.541-1.322,1.313-2.635,0
		C37.468,151.345,36.146,152.658,36.146,152.658z"/>
	<path opacity="0.5" d="M34.934,120.41c0,0-10.804,12.253-16.834,12.253s3.055-0.765,8.417-6.126
		C31.879,121.174,34.934,120.41,34.934,120.41z"/>
	<path opacity="0.5" d="M41.651,120.41c0,0,10.804,12.253,16.835,12.253c6.03,0-3.055-0.765-8.418-6.126
		C44.705,121.174,41.651,120.41,41.651,120.41z"/>
	<path opacity="0.1" d="M19.467,139.007c0,0-5.561,10.568,0,10.568C25.028,149.575,19.467,139.007,19.467,139.007z"/>
	<path fill="#FFFFFF" d="M19.467,140.906c0,0-2.65,6.397,0,6.397C22.117,147.304,19.467,140.906,19.467,140.906z"/>
</g>
<g>
	<g>
		<polygon fill="#06B052" points="110.095,181.677 107.291,176.818 110.095,171.961 115.704,171.961 118.51,176.818 
			115.704,181.677 		"/>
		<polygon opacity="0.03" points="110.095,171.961 115.704,181.677 110.095,181.677 107.291,176.818 		"/>
	</g>
	<g>
		<polygon fill="#06B052" points="142.736,181.677 145.405,177.052 142.736,172.427 137.396,172.427 134.724,177.052 
			137.396,181.677 		"/>
		<polygon opacity="0.03" points="142.736,172.427 137.396,181.677 142.736,181.677 145.405,177.052 		"/>
	</g>
	<polygon fill="#06B052" points="153.036,161.61 150.455,157.14 153.036,152.669 158.199,152.669 160.781,157.14 158.199,161.61 	
		"/>
	<polygon fill="#06B052" points="94.095,161.31 91.513,156.838 94.095,152.367 99.257,152.367 101.839,156.838 99.257,161.31 	"/>
	<polygon opacity="0.05" points="94.095,161.31 91.513,156.838 94.095,152.367 99.257,152.367 101.839,156.838 99.257,161.31 	"/>
	<polygon opacity="0.05" points="153.036,161.61 150.455,157.14 153.036,152.669 158.199,152.669 160.781,157.14 158.199,161.61 	
		"/>
	<polygon fill="#06B052" points="106.894,174.181 87.44,140.485 106.894,106.79 145.801,106.79 165.256,140.485 145.801,174.181 	
		"/>
	<polygon opacity="0.02" fill="#FFFFFF" points="106.894,106.79 145.801,174.181 106.894,174.181 87.44,140.485 	"/>
	<polygon opacity="0.03" points="125.776,139.497 106.894,174.181 145.801,174.181 	"/>
	<polygon opacity="0.03" points="125.776,139.497 145.801,106.79 106.894,106.79 	"/>
	<path fill="#575757" d="M106.411,114.25c0,0,10.829,0.21,10.829-3.188"/>
	<path fill="#575757" d="M144.778,114.25c0,0-10.828,0.21-10.828-3.188"/>
	<g>
		<ellipse fill="#FFFFFF" cx="116.495" cy="125.814" rx="5.357" ry="8.132"/>
		<circle fill="#575757" cx="117.029" cy="126.734" r="3.456"/>
	</g>
	<g>
		<ellipse fill="#FFFFFF" cx="135.003" cy="125.814" rx="5.357" ry="8.132"/>
		<circle fill="#575757" cx="135.003" cy="126.734" r="3.457"/>
	</g>
	<path fill="#0EA94B" d="M110.404,130.564c0,0,7.984,3.346,10.714,0.617c2.729-2.73-2.813,4.073-5.899,4.073
		C112.133,135.255,110.404,130.564,110.404,130.564z"/>
	<path fill="#0EA94B" d="M140.436,130.629c0,0-7.983,3.346-10.713,0.617c-2.729-2.73,2.813,4.073,5.899,4.073
		C138.708,135.319,140.436,130.629,140.436,130.629z"/>
	<g>
		<ellipse opacity="0.1" cx="125.939" cy="158.231" rx="6.629" ry="12.799"/>
		<path fill="#FFFFFF" d="M121.118,165.402c0,0,1.847,4.484,4.821,4.484c2.974,0,4.34-4.484,4.34-4.484H121.118z"/>
	</g>
	<path fill="#FFFFFF" d="M145.953,126.864c0,0-2.642,6.376,0,6.376C148.592,133.24,145.953,126.864,145.953,126.864z"/>
	<path fill="#FFFFFF" d="M106.411,118.725c0,0-2.642,6.376,0,6.376C109.051,125.101,106.411,118.725,106.411,118.725z"/>
	<circle fill="#FFFFFF" cx="117.029" cy="126.734" r="0.835"/>
	<circle fill="#FFFFFF" cx="135.004" cy="126.734" r="0.835"/>
</g>
</svg>
