<?xml version="1.0" encoding="utf-8"?>
<!-- Generator: Adobe Illustrator 16.0.4, SVG Export Plug-In . SVG Version: 6.00 Build 0)  -->
<!DOCTYPE svg PUBLIC "-//W3C//DTD SVG 1.1//EN" "http://www.w3.org/Graphics/SVG/1.1/DTD/svg11.dtd">
<svg version="1.1" id="Layer_1" xmlns="http://www.w3.org/2000/svg" xmlns:xlink="http://www.w3.org/1999/xlink" x="0px" y="0px"
	 width="77.816px" height="77.887px" viewBox="0 0 77.816 77.887" enable-background="new 0 0 77.816 77.887" xml:space="preserve">
<g>
	<g>
		<polygon fill="#F3BCD1" points="55.022,-23.357 57.825,-28.217 55.022,-33.073 49.413,-33.073 46.607,-28.217 49.413,-23.357 		
			"/>
		<polygon opacity="0.04" points="55.022,-33.073 49.413,-23.357 55.022,-23.357 57.825,-28.217 		"/>
	</g>
	<g>
		<polygon fill="#F3BCD1" points="23.672,-23.357 20.868,-28.217 23.672,-33.073 29.281,-33.073 32.087,-28.217 29.281,-23.357 		
			"/>
		<polygon opacity="0.04" points="23.672,-33.073 29.281,-23.357 23.672,-23.357 20.868,-28.217 		"/>
	</g>
	<g>
		<polygon fill="#F3BCD1" points="6.806,-43.391 4.225,-47.862 6.806,-52.333 11.969,-52.333 14.55,-47.862 11.969,-43.391 		"/>
		<polygon fill="#F3BCD1" points="65.546,-42.787 62.964,-47.259 65.546,-51.729 70.709,-51.729 73.291,-47.259 70.709,-42.787 		
			"/>
		<polygon opacity="0.05" points="6.806,-43.311 4.225,-47.781 6.806,-52.252 11.969,-52.252 14.55,-47.781 11.969,-43.311 		"/>
		<polygon opacity="0.05" points="65.546,-42.787 62.964,-47.259 65.546,-51.729 70.709,-51.729 73.291,-47.259 70.709,-42.787 		
			"/>
	</g>
	<polygon fill="#F3BCD1" points="19.454,-30.439 0,-64.135 19.454,-97.829 58.361,-97.829 77.816,-64.135 58.361,-30.439 	"/>
	<polygon opacity="0.02" fill="#FFFFFF" points="19.454,-97.829 58.361,-30.439 19.454,-30.439 0,-64.135 	"/>
	<polygon opacity="0.01" points="38.336,-65.123 19.454,-30.439 58.361,-30.439 	"/>
	<polygon opacity="0.02" points="38.336,-65.123 58.361,-97.829 19.454,-97.829 	"/>
	<g>
		<path fill="#575757" d="M20.315-89.178c0,0,2.622-5.302,11.319-5.302"/>
		<path fill="#575757" d="M53.371-89.86c0,0-2.622-5.302-11.32-5.302"/>
		<circle opacity="0.3" fill="#D71E40" cx="18.102" cy="-60.839" r="11.96"/>
		<circle opacity="0.3" fill="#D71E40" cx="19.761" cy="-63.422" r="10.127"/>
		<circle opacity="0.3" fill="#D71E40" cx="56.041" cy="-63.422" r="10.127"/>
		<circle opacity="0.3" fill="#D71E40" cx="57.39" cy="-60.839" r="11.96"/>
		<circle fill="#FFFFFF" cx="50.857" cy="-71.267" r="9.792"/>
		<path fill="#575757" d="M41.095-72.343c0,0,1.272-8.717,9.792-8.717c8.521,0,9.733,8.717,9.733,8.717s-2.624-7.88-9.733-7.88
			C43.778-80.223,41.095-72.343,41.095-72.343z"/>
		<circle fill="#575757" cx="50.857" cy="-71.267" r="1.884"/>
		<path opacity="0.1" fill="#FFFFFF" d="M41.392-65.455c0,0,5.027,5.743,9.763,5.743c4.737,0,9.167-5.743,9.167-5.743
			s-3.401,7.22-9.167,7.22S41.392-65.455,41.392-65.455z"/>
		<path opacity="0.4" fill="#FFFFFF" d="M49.52-71.024c0,0,0.128,1.328,1.396,1.328c1.269,0,1.277-1.328,1.277-1.328
			s-0.363,0.664-1.337,0.664C49.884-70.36,49.52-71.024,49.52-71.024z"/>
		<circle fill="#FFFFFF" cx="25.4" cy="-71.267" r="9.792"/>
		<path fill="#575757" d="M15.608-72.343c0,0,1.272-8.717,9.792-8.717c8.519,0,9.732,8.717,9.732,8.717s-2.624-7.88-9.732-7.88
			C18.292-80.223,15.608-72.343,15.608-72.343z"/>
		<circle fill="#575757" cx="25.757" cy="-71.267" r="1.719"/>
		<path opacity="0.1" fill="#FFFFFF" d="M15.608-65.455c0,0,5.025,5.743,9.762,5.743c4.736,0,9.167-5.743,9.167-5.743
			s-3.402,7.22-9.167,7.22C19.604-58.235,15.608-65.455,15.608-65.455z"/>
		<path opacity="0.4" fill="#FFFFFF" d="M24.482-71.267c0,0,0.117,1.212,1.275,1.212c1.158,0,1.166-1.212,1.166-1.212
			s-0.333,0.605-1.22,0.605C24.814-70.661,24.482-71.267,24.482-71.267z"/>
		<path opacity="0.4" d="M42.956-44.863c0,0.549-0.445,0.993-0.994,0.993h-7.479c-0.549,0-0.993-0.444-0.993-0.993l0,0
			c0-0.549,0.444-0.993,0.993-0.993h7.479C42.511-45.856,42.956-45.412,42.956-44.863L42.956-44.863z"/>
	</g>
</g>
<g>
	<g>
		<polygon fill="#754D9E" points="-64.947,179.947 -67.75,175.089 -64.947,170.231 -59.338,170.231 -56.531,175.089 
			-59.338,179.947 		"/>
		<polygon opacity="0.05" points="-64.947,170.231 -59.338,179.947 -64.947,179.947 -67.75,175.089 		"/>
	</g>
	<g>
		<polygon fill="#754D9E" points="-32.305,179.947 -29.636,175.321 -32.305,170.696 -37.646,170.696 -40.318,175.321 
			-37.646,179.947 		"/>
		<polygon opacity="0.05" points="-32.305,170.696 -37.646,179.947 -32.305,179.947 -29.636,175.321 		"/>
	</g>
	<polygon fill="#754D9E" points="-80,160.757 -82.582,156.286 -80,151.814 -74.837,151.814 -72.256,156.286 -74.837,160.757 	"/>
	<polygon fill="#754D9E" points="-22.466,160.757 -25.048,156.286 -22.466,151.814 -17.303,151.814 -14.722,156.286 
		-17.303,160.757 	"/>
	<polygon opacity="0.05" points="-22.466,160.757 -25.048,156.286 -22.466,151.814 -17.303,151.814 -14.722,156.286 
		-17.303,160.757 	"/>
	<polygon opacity="0.05" points="-80,160.757 -82.582,156.286 -80,151.814 -74.837,151.814 -72.256,156.286 -74.837,160.757 	"/>
	<polygon fill="#754D9E" points="-67.986,172.475 -87.44,138.779 -67.986,105.083 -29.079,105.083 -9.624,138.779 -29.079,172.475 	
		"/>
	<polygon opacity="0.02" fill="#FFFFFF" points="-67.986,105.083 -29.079,172.475 -67.986,172.475 -87.44,138.779 	"/>
	<polygon opacity="0.03" points="-49.104,137.79 -67.986,172.475 -29.079,172.475 	"/>
	<polygon opacity="0.03" points="-49.104,137.79 -29.079,105.083 -67.986,105.083 	"/>
	<g>
		<ellipse opacity="0.3" cx="-61.292" cy="131.828" rx="11.344" ry="12.833"/>
		<ellipse opacity="0.3" cx="-35.417" cy="131.828" rx="11.344" ry="12.833"/>
		<g>
			<ellipse opacity="0.1" fill="#FFFFFF" cx="-60.916" cy="131.979" rx="12.838" ry="14.296"/>
			<ellipse opacity="0.1" fill="#FFFFFF" cx="-35.304" cy="131.979" rx="12.839" ry="14.296"/>
		</g>
		<path fill="#FFFFFF" stroke="#753D77" stroke-miterlimit="10" d="M-70.514,129.534c0,0,0,12.04,10.159,12.04
			s10.159-12.04,10.159-12.04H-70.514z"/>
		<path fill="#FFFFFF" stroke="#773D78" stroke-miterlimit="10" d="M-46.286,129.534c0,0,0,12.04,10.159,12.04
			s10.159-12.04,10.159-12.04H-46.286z"/>
		<ellipse fill="#A254A0" cx="-63.392" cy="130.48" rx="6.236" ry="4.461"/>
		<ellipse fill="#A254A0" cx="-38.722" cy="130.48" rx="6.178" ry="4.461"/>
		<ellipse fill="#050404" cx="-63.516" cy="131.146" rx="4.845" ry="2.989"/>
		<ellipse fill="#050404" cx="-38.732" cy="131.146" rx="4.619" ry="2.989"/>
		
			<ellipse transform="matrix(0.007 1 -1 0.007 66.4018 194.1361)" fill="#FFFFFF" cx="-64.548" cy="130.502" rx="1.397" ry="1.031"/>
		
			<ellipse transform="matrix(0.007 1 -1 0.007 90.7567 169.6104)" fill="#FFFFFF" cx="-40.022" cy="130.502" rx="1.397" ry="1.014"/>
		<g>
			<path fill="#8E4D90" d="M-46.872,131.159h23.136c0,0-0.697-12.282-11.568-12.282C-46.174,118.877-46.872,131.159-46.872,131.159z
				"/>
			<path fill="#8E4D90" d="M-72.86,131.159h23.136c0,0-0.697-12.282-11.568-12.282C-72.163,118.877-72.86,131.159-72.86,131.159z"/>
		</g>
		<ellipse opacity="0.1" fill="#FFFFFF" cx="-49.932" cy="147.912" rx="1.693" ry="1.865"/>
		<ellipse opacity="0.1" fill="#FFFFFF" cx="-46.594" cy="147.912" rx="1.694" ry="1.865"/>
		<ellipse cx="-49.771" cy="147.64" rx="1.079" ry="1.187"/>
		<ellipse cx="-46.692" cy="147.64" rx="1.065" ry="1.187"/>
		<path fill="none" stroke="#000000" stroke-miterlimit="10" d="M-49.563,158.403c0.347-0.587,1.011-1.026,1.545-1.412
			c0.441-0.319,0.7-0.405,1.25-0.403c0.548,0.001,0.952,0.008,1.467,0.179c0.389,0.13,0.845,0.316,1.198,0.529"/>
		<path opacity="0.3" fill="none" stroke="#000000" stroke-miterlimit="10" d="M-73.085,131.159c0,0,0.513-12.282,11.944-12.282
			c11.432,0,11.193,12.282,11.193,12.282"/>
		<path opacity="0.3" fill="none" stroke="#000000" stroke-miterlimit="10" d="M-46.985,131.159c0,0,0.512-12.282,11.944-12.282
			c11.432,0,11.192,12.282,11.192,12.282"/>
	</g>
</g>
<g>
	<g>
		<polygon fill="#ED2A25" points="-32.31,77.489 -29.507,72.632 -32.31,67.773 -37.919,67.773 -40.725,72.632 -37.919,77.489 		"/>
		<polygon opacity="0.04" points="-32.31,67.773 -37.919,77.489 -32.31,77.489 -29.507,72.632 		"/>
	</g>
	<g>
		<polygon fill="#ED2A25" points="-64.661,77.489 -67.463,72.632 -64.661,67.773 -59.051,67.773 -56.246,72.632 -59.051,77.489 		
			"/>
		<polygon opacity="0.04" points="-64.661,67.773 -59.051,77.489 -64.661,77.489 -67.463,72.632 		"/>
	</g>
	<g>
		<polygon fill="#ED2A25" points="-81.97,54.567 -84.551,50.096 -81.97,45.625 -76.807,45.625 -74.225,50.096 -76.807,54.567 		"/>
		<polygon opacity="0.05" points="-81.97,54.566 -84.551,50.096 -81.97,45.625 -76.807,45.625 -74.225,50.096 -76.807,54.566 		"/>
	</g>
	<g>
		<polygon fill="#ED2A25" points="-20.817,55.17 -23.399,50.699 -20.817,46.229 -15.654,46.229 -13.073,50.699 -15.654,55.17 		"/>
		<polygon opacity="0.05" points="-20.817,55.17 -23.399,50.699 -20.817,46.229 -15.654,46.229 -13.073,50.699 -15.654,55.17 		"/>
	</g>
	<polygon fill="#ED2A25" points="-67.986,69.652 -87.44,35.956 -67.986,2.262 -29.079,2.262 -9.624,35.956 -29.079,69.652 	"/>
	<polygon opacity="0.02" fill="#FFFFFF" points="-67.986,2.262 -29.079,69.652 -67.986,69.652 -87.44,35.956 	"/>
	<polygon opacity="0.02" points="-49.104,34.968 -67.986,69.652 -29.079,69.652 	"/>
	<polygon opacity="0.03" points="-49.104,34.968 -29.079,2.262 -67.986,2.262 	"/>
	<path d="M-56.453,53.736c0,0,4.131-5.589,7.65-5.589c3.52,0,7.65,5.196,7.65,5.196s-3.771-6.409-7.65-6.409s-7.65,6.409-7.65,6.409
		"/>
	<path opacity="0.8" d="M-51.488,24.752c0,0,0.241-3.237-1.546-5.025c-1.788-1.787-6.765-5.7-11.596-5.7s-5.315,1.449-4.349,2.415
		c0.966,0.967,8.166,1.691,10.63,4.155C-55.885,23.061-51.488,24.752-51.488,24.752z"/>
	<ellipse fill="#FFFFFF" cx="-57.323" cy="28.134" rx="5.17" ry="6.958"/>
	<path opacity="0.6" d="M-62.39,29.641c0,0,1.02,5.45,5.033,5.45s5.082-5.45,5.082-5.45s-2.054,4.573-5.082,4.573
		S-62.39,29.641-62.39,29.641z"/>
	<path opacity="0.1" fill="#FFFFFF" d="M-62.39,29.641c0,0,0.366,6.306,5.058,6.306c4.692,0,5.057-6.306,5.057-6.306
		s-1.079,5.45-5.082,5.45C-61.36,35.091-62.39,29.641-62.39,29.641z"/>
	<ellipse fill="#C32127" cx="-57.25" cy="28.155" rx="2.527" ry="4.596"/>
	<path fill="#C32127" d="M-62.021,25.697c0,0,1.083-4.276,4.771-4.276c3.689,0,4.772,4.276,4.772,4.276s-1.188-2.686-4.699-2.686
		C-60.689,23.012-62.021,25.697-62.021,25.697z"/>
	<circle fill="#FFFFFF" cx="-57.25" cy="28.134" r="0.528"/>
	<path opacity="0.8" d="M-45.319,25.054c0,0-0.242-3.237,1.546-5.025c1.788-1.787,6.764-5.701,11.596-5.701
		c4.832,0,5.315,1.449,4.349,2.416c-0.966,0.966-8.166,1.69-10.629,4.155C-40.922,23.362-45.319,25.054-45.319,25.054z"/>
	<ellipse fill="#FFFFFF" cx="-39.751" cy="28.436" rx="5.17" ry="6.958"/>
	<path opacity="0.6" d="M-44.809,29.941c0,0,1.02,5.45,5.033,5.45s5.082-5.45,5.082-5.45s-2.054,4.573-5.082,4.573
		C-42.804,34.515-44.809,29.941-44.809,29.941z"/>
	<path opacity="0.1" fill="#FFFFFF" d="M-44.809,29.941c0,0,0.366,6.307,5.058,6.307s5.057-6.307,5.057-6.307s-1.08,5.45-5.082,5.45
		S-44.809,29.941-44.809,29.941z"/>
	<ellipse fill="#C32127" cx="-39.751" cy="28.457" rx="2.527" ry="4.596"/>
	<path fill="#C32127" d="M-44.523,26c0,0,1.083-4.277,4.772-4.277c3.688,0,4.772,4.277,4.772,4.277s-1.188-2.687-4.7-2.687
		S-44.523,26-44.523,26z"/>
	<circle fill="#FFFFFF" cx="-39.751" cy="28.436" r="0.528"/>
</g>
<g>
	<g>
		<polygon fill="#ED4798" points="22.327,77.887 19.524,73.029 22.327,68.171 27.936,68.171 30.743,73.029 27.936,77.887 		"/>
		<polygon opacity="0.03" points="22.327,68.171 27.936,77.887 22.327,77.887 19.524,73.029 		"/>
	</g>
	<g>
		<polygon fill="#ED4798" points="54.969,77.887 57.638,73.262 54.969,68.637 49.628,68.637 46.956,73.262 49.628,77.887 		"/>
		<polygon opacity="0.03" points="54.969,68.637 49.628,77.887 54.969,77.887 57.638,73.262 		"/>
	</g>
	<g>
		<polygon fill="#ED4798" points="5.962,55.17 3.38,50.699 5.962,46.229 11.125,46.229 13.706,50.699 11.125,55.17 		"/>
		<polygon opacity="0.05" points="5.962,55.17 3.38,50.699 5.962,46.229 11.125,46.229 13.706,50.699 11.125,55.17 		"/>
	</g>
	<g>
		<polygon fill="#ED4798" points="66.812,55.17 64.231,50.699 66.812,46.229 71.976,46.229 74.557,50.699 71.976,55.17 		"/>
		<polygon opacity="0.05" points="66.812,55.17 64.231,50.699 66.812,46.229 71.976,46.229 74.557,50.699 71.976,55.17 		"/>
	</g>
	<polygon fill="#ED4798" points="19.454,69.652 0,35.956 19.454,2.262 58.361,2.262 77.816,35.956 58.361,69.652 	"/>
	<polygon opacity="0.02" fill="#FFFFFF" points="19.454,2.262 58.361,69.652 19.454,69.652 0,35.956 	"/>
	<polygon opacity="0.03" points="38.336,34.968 19.454,69.652 58.361,69.652 	"/>
	<polygon opacity="0.03" points="38.336,34.968 58.361,2.262 19.454,2.262 	"/>
	
		<ellipse transform="matrix(0.9999 -0.012 0.012 0.9999 -0.2861 0.3462)" fill="#FFFFFF" cx="28.622" cy="23.94" rx="7.708" ry="7.841"/>
	
		<ellipse transform="matrix(0.9999 -0.0121 0.0121 0.9999 -0.271 0.571)" fill="#FFFFFF" cx="47.055" cy="22.679" rx="7.708" ry="7.842"/>
	<path fill="#4A3E4D" d="M24.733,12.984c0,0,3.687-5.776,7.087-2.457"/>
	<path fill="#4A3E4D" d="M50.281,11.621c0,0-4.545-5.482-7.67-2.281"/>
	<path fill="#E10686" d="M33.14,19.815c-0.15-0.047-0.291-0.083-0.425-0.111c-1.071-0.226-1.681,0.128-2.417,0.706
		c-0.44-0.824-0.858-1.395-1.928-1.619c-0.135-0.028-0.278-0.051-0.434-0.069c-0.947-0.104-2.196,0.521-2.667,2.119l-0.114,0.541
		c-0.205,1.581,0.567,3.748,3.494,6.878c3.94-1.688,5.518-3.361,5.966-4.891l0.113-0.543C34.942,21.174,34.049,20.1,33.14,19.815z"
		/>
	<path fill="#E10686" d="M47.021,17.926c-0.152,0.04-0.292,0.082-0.419,0.126c-1.031,0.369-1.368,0.989-1.694,1.867
		c-0.806-0.473-1.459-0.741-2.488-0.374c-0.131,0.046-0.264,0.103-0.407,0.167c-0.861,0.406-1.601,1.59-1.167,3.2l0.184,0.521
		c0.654,1.454,2.442,2.898,6.573,4.039c2.479-3.498,2.95-5.75,2.532-7.287l-0.185-0.521C49.266,18.143,47.945,17.695,47.021,17.926z
		"/>
	<path opacity="0.2" fill="#FFFFFF" d="M21.104,25.67c0,0,1.235,6.111,7.614,6.111c6.377,0,7.42-6.111,7.42-6.111
		s-3.672,4.321-7.516,4.321C24.778,29.991,21.104,25.67,21.104,25.67z"/>
	<path fill="#4A3E4D" d="M21.017,22.438c0,0,0.932-6.485,7.276-6.485c6.345,0,7.878,6.01,7.878,6.01s-2.416-5.142-7.878-5.142
		C22.832,16.82,21.017,22.438,21.017,22.438z"/>
	<path fill="#4A3E4D" d="M39.346,21.938c0,0,0.719-7.097,7.708-7.097c6.99,0,7.708,7.097,7.708,7.097s-2.542-6.307-7.708-6.307
		C41.888,15.631,39.346,21.938,39.346,21.938z"/>
	<g>
		<path fill="#ED4798" d="M18.41,29.609c0,0,3.707-0.172,10.004,0.479c6.296,0.649,7.634,2.608,7.634,2.608l-7.917,0.143
			L18.41,29.609z"/>
		<path fill="#ED4798" d="M58.079,26.909c0,0-3.69,0.394-9.814,1.994c-6.125,1.601-7.148,3.739-7.148,3.739l7.847-1.063
			L58.079,26.909z"/>
	</g>
	<path fill="#FFFFFF" d="M29.247,20.405c0,0-0.336-1.21-1.627-1.21c-1.29,0-1.786,1.94-1.786,1.94s0.374-0.97,1.706-0.97
		C28.874,20.166,29.247,20.405,29.247,20.405z"/>
	<path fill="#FFFFFF" d="M48.907,19.599c0,0-0.335-1.21-1.625-1.21c-1.291,0-1.788,1.941-1.788,1.941s0.373-0.971,1.706-0.971
		C48.534,19.359,48.907,19.599,48.907,19.599z"/>
	<g>
		<path fill="none" stroke="#4A3E4D" stroke-width="0.5" stroke-miterlimit="10" d="M16.816,30.438c0,0,2.045,13.527,21.556,13.527
			c19.512,0,19.634-13.527,19.634-13.527"/>
		<path fill="none" stroke="#4A3E4D" stroke-width="0.5" stroke-miterlimit="10" d="M13.402,32.997c0,0,3.82-3.575,5.932-3.575"/>
		<path fill="none" stroke="#4A3E4D" stroke-width="0.5" stroke-miterlimit="10" d="M61.581,32.428c0,0-3.17-2.519-6.014-2.519"/>
	</g>
	<path opacity="0.1" fill="#4A3E4D" d="M27.229,43.884c0,0,6.294,2.274,11.184,2.274c4.889,0,10.169-2.274,10.169-2.274
		s-5.701,5.441-10.081,4.792C34.12,48.027,27.229,43.884,27.229,43.884z"/>
	<path opacity="0.2" fill="#FFFFFF" d="M24.188,40.979c0,0,5.842,3.352,14.224,3.352c8.382,0,13.318-3.352,13.318-3.352
		s-6.539,4.937-13.229,4.937C31.811,45.915,24.188,40.979,24.188,40.979z"/>
</g>
<g>
	<g>
		<polygon fill="#F8ED40" points="-32.857,-22.627 -30.054,-27.484 -32.857,-32.342 -38.466,-32.342 -41.272,-27.484 
			-38.466,-22.627 		"/>
		<polygon opacity="0.04" points="-32.857,-32.342 -38.466,-22.627 -32.857,-22.627 -30.054,-27.484 		"/>
	</g>
	<g>
		<polygon fill="#F8ED40" points="-64.208,-22.627 -67.011,-27.484 -64.208,-32.342 -58.598,-32.342 -55.792,-27.484 
			-58.598,-22.627 		"/>
		<polygon opacity="0.04" points="-64.208,-32.342 -58.598,-22.627 -64.208,-22.627 -67.011,-27.484 		"/>
	</g>
	<polygon fill="#F8ED40" points="-81.206,-44.709 -83.788,-49.181 -81.206,-53.651 -76.043,-53.651 -73.462,-49.181 
		-76.043,-44.709 	"/>
	<polygon fill="#F8ED40" points="-21.26,-44.407 -23.842,-48.879 -21.26,-53.35 -16.097,-53.35 -13.516,-48.879 -16.097,-44.407 	
		"/>
	<polygon opacity="0.05" points="-81.206,-44.709 -83.788,-49.181 -81.206,-53.651 -76.043,-53.651 -73.462,-49.181 
		-76.043,-44.709 	"/>
	<polygon opacity="0.05" points="-21.26,-44.408 -23.842,-48.879 -21.26,-53.35 -16.097,-53.35 -13.516,-48.879 -16.097,-44.408 	
		"/>
	<polygon fill="#F8ED40" points="-67.986,-30.439 -87.44,-64.135 -67.986,-97.829 -29.079,-97.829 -9.624,-64.135 -29.079,-30.439 	
		"/>
	<polygon opacity="0.02" fill="#020202" points="-67.986,-97.829 -48.532,-64.682 -29.079,-97.829 	"/>
	<polygon opacity="0.03" fill="#020202" points="-48.532,-64.682 -67.986,-30.439 -29.079,-30.439 	"/>
	<polygon opacity="0.02" fill="#020202" points="-67.986,-97.829 -48.532,-64.682 -67.986,-30.439 -87.44,-64.135 	"/>
	<path opacity="0.4" fill="none" stroke="#000000" stroke-miterlimit="10" d="M-26.722-76.64c0,0,4.345,2.92,4.345,5.146"/>
	<g>
		<ellipse fill="#FFFFFF" cx="-57.146" cy="-79.56" rx="7.439" ry="8.669"/>
		<ellipse fill="#FFFFFF" cx="-40.611" cy="-79.56" rx="7.439" ry="8.669"/>
		<path opacity="0.1" d="M-61.71-89.902c0,0,3.687-5.776,7.086-2.457"/>
		<path opacity="0.1" d="M-36.163-91.266c0,0-4.545-5.482-7.67-2.281"/>
		<path fill="#575757" d="M-64.723-81.743c0,0,0.931-6.486,7.275-6.486c6.345,0,7.879,6.011,7.879,6.011s-2.416-5.143-7.879-5.143
			C-62.909-87.361-64.723-81.743-64.723-81.743z"/>
		<path fill="#575757" d="M-48.189-81.743c0,0,0.932-6.486,7.276-6.486c6.345,0,7.878,6.011,7.878,6.011s-2.416-5.143-7.878-5.143
			C-46.374-87.361-48.189-81.743-48.189-81.743z"/>
		<ellipse fill="#F6EB0F" cx="-57.609" cy="-77.181" rx="6.032" ry="6.485"/>
		<ellipse fill="#F6EB0F" cx="-40.008" cy="-77.181" rx="6.032" ry="6.485"/>
		<circle fill="#575757" cx="-57.449" cy="-78.398" r="3.87"/>
		<circle fill="#575757" cx="-40.612" cy="-78.398" r="3.835"/>
		<ellipse fill="#FFFFFF" cx="-59.776" cy="-80.651" rx="0.754" ry="1.092"/>
		<ellipse fill="#FFFFFF" cx="-38.067" cy="-81.142" rx="0.754" ry="1.091"/>
		<path opacity="0.4" fill="none" stroke="#000000" stroke-miterlimit="10" d="M-70.532-74.755c0,0,10.271,18.452,22.752,18.452
			c12.48,0,23.23-18.452,23.23-18.452"/>
		<path opacity="0.4" fill="none" stroke="#000000" stroke-miterlimit="10" d="M-68.019-76.64c0,0-4.346,2.92-4.346,5.146"/>
		<path fill="#FBED27" d="M-44.241-71.993c0,0,11.069-2.023,11.069-5.868s2.197,4.807,1.136,5.868
			c-1.061,1.061-5.05,3.78-6.784,3.78C-40.554-68.213-44.241-71.993-44.241-71.993z"/>
		<path fill="#EEE835" d="M-53.359-72.021c0,0-11.069-2.022-11.069-5.868c0-3.844-2.197,4.808-1.136,5.868
			c1.062,1.062,5.051,3.781,6.785,3.781C-57.046-68.239-53.359-72.021-53.359-72.021z"/>
	</g>
</g>
<g>
	<g>
		<polygon fill="#F7961D" points="22.093,180.317 19.29,175.459 22.093,170.602 27.703,170.602 30.508,175.459 27.703,180.317 		"/>
		<polygon opacity="0.03" points="22.093,170.602 27.703,180.317 22.093,180.317 19.29,175.459 		"/>
	</g>
	<g>
		<polygon fill="#F7961D" points="55.734,180.317 58.404,175.692 55.734,171.066 50.394,171.066 47.722,175.692 50.394,180.317 		
			"/>
		<polygon opacity="0.03" points="55.734,171.066 50.394,180.317 55.734,180.317 58.404,175.692 		"/>
	</g>
	<g>
		<polygon fill="#F7961D" points="64.383,162.117 61.802,157.646 64.383,153.176 69.547,153.176 72.128,157.646 69.547,162.117 		
			"/>
		<polygon opacity="0.05" points="64.383,162.117 61.802,157.646 64.383,153.176 69.547,153.176 72.128,157.646 69.547,162.117 		
			"/>
	</g>
	<g>
		<polygon fill="#F7961D" points="8.056,161.815 5.474,157.345 8.056,152.874 13.218,152.874 15.8,157.345 13.218,161.815 		"/>
		<polygon opacity="0.05" points="8.056,161.815 5.474,157.345 8.056,152.874 13.218,152.874 15.8,157.345 13.218,161.815 		"/>
	</g>
	<polygon fill="#F7961D" points="19.454,172.475 0,138.779 19.454,105.083 58.361,105.083 77.816,138.779 58.361,172.475 	"/>
	<polygon opacity="0.02" fill="#FFFFFF" points="19.454,105.083 58.361,172.475 19.454,172.475 0,138.779 	"/>
	<polygon opacity="0.03" points="38.336,137.79 19.454,172.475 58.361,172.475 	"/>
	<polygon opacity="0.03" points="38.336,137.79 58.361,105.083 19.454,105.083 	"/>
	<g>
		<path fill="none" stroke="#000000" stroke-miterlimit="10" d="M48.158,152.965c0,0,7.824,1.492,7.824-8.304"/>
		<path d="M17.479,114.38c0,0,2.412-5.427,5.578-5.427"/>
		<path d="M59.215,114.38c0,0-2.412-5.427-5.579-5.427"/>
		<g>
			<circle fill="#FFFFFF" cx="22.713" cy="123.535" r="7.713"/>
			<g>
				<ellipse fill="#F5841F" cx="22.934" cy="122.224" rx="4.441" ry="4.774"/>
				<circle fill="#575757" cx="23.052" cy="121.326" r="2.849"/>
				<ellipse fill="#FFFFFF" cx="21.339" cy="119.668" rx="0.555" ry="0.804"/>
			</g>
			<path fill="#575757" d="M14.479,122.956c0,0,1.024-8.24,7.996-8.24c6.973,0,8.659,7.636,8.659,7.636s-2.655-6.533-8.659-6.533
				C16.473,115.818,14.479,122.956,14.479,122.956z"/>
		</g>
		<g>
			<circle fill="#FFFFFF" cx="55.815" cy="123.233" r="7.713"/>
			<g>
				<ellipse fill="#F5841F" cx="56.748" cy="121.922" rx="4.441" ry="4.774"/>
				<circle fill="#575757" cx="56.865" cy="121.024" r="2.849"/>
				<ellipse fill="#FFFFFF" cx="55.152" cy="119.367" rx="0.555" ry="0.803"/>
			</g>
			<path fill="#575757" d="M64.143,123.222c0,0-1.023-8.241-7.996-8.241c-6.973,0-8.658,7.637-8.658,7.637s2.655-6.533,8.658-6.533
				C62.148,116.084,64.143,123.222,64.143,123.222z"/>
		</g>
		<g>
			<path d="M7.282,120.371l-1.415,2.119c0,0,3.537,3.715,3.537,7.074s4.243,11.668,12.021,11.668s13.613-2.654,14.143-7.78
				s2.121-5.657,2.121-5.657h3.183c0,0,2.298,3.183,2.298,5.657c0,2.477,4.42,10.61,14.322,7.78
				c9.9-2.828,11.844-6.542,11.844-11.314c0-4.775,2.121-5.659,3.183-7.249c1.06-1.592,0-2.298,0-2.298H52.717
				c0,0-7.777,3.535-9.016,3.535c-1.238,0-7.07,0-7.07,0s-6.014-3.535-9.017-3.535C24.608,120.371,7.282,120.371,7.282,120.371z"/>
			<path fill="#FFFFFF" d="M16.139,124.649c0,0-5.742,3.326-2.62,6.448c3.121,3.121-1.452-0.125,0.845-2.422
				C16.662,126.378,16.139,124.649,16.139,124.649z"/>
			<path fill="#FFFFFF" d="M47.723,134.223c0,0,0.604,4.131,3.022,4.131c2.417,0,4.231,0,4.231,0s-2.191,0.174-3.627-1.262
				C49.914,135.656,47.723,134.223,47.723,134.223z"/>
			<path fill="#FFFFFF" d="M32.459,133.691c0,0-0.605,4.129-3.022,4.129c-2.418,0-4.232,0-4.232,0s2.192,0.176,3.627-1.26
				C30.268,135.125,32.459,133.691,32.459,133.691z"/>
			<path fill="#FFFFFF" d="M56.941,124.649c0,0,9.639-0.179,9.818,0c0.178,0.18,1.655,2.699,0,3.868
				c-1.657,1.169-1.053-1.975-3.17-1.975C61.474,126.543,56.941,124.649,56.941,124.649z"/>
		</g>
	</g>
</g>
<g>
	<polygon fill="#426EB5" points="-64.947,284.443 -67.75,279.586 -64.947,274.729 -59.338,274.729 -56.531,279.586 -59.338,284.443 
			"/>
	<polygon opacity="0.03" points="-64.947,274.729 -59.338,284.443 -64.947,284.443 -67.75,279.586 	"/>
	<polygon fill="#426EB5" points="-32.305,284.443 -29.636,279.819 -32.305,275.194 -37.646,275.194 -40.318,279.819 
		-37.646,284.443 	"/>
	<polygon opacity="0.03" points="-32.305,275.194 -37.646,284.443 -32.305,284.443 -29.636,279.819 	"/>
	<polygon fill="#426EB5" points="-80.946,264.158 -83.527,259.688 -80.946,255.217 -75.783,255.217 -73.202,259.688 
		-75.783,264.158 	"/>
	<polygon fill="#426EB5" points="-21.603,264.46 -24.184,259.989 -21.603,255.519 -16.44,255.519 -13.858,259.989 -16.44,264.46 	
		"/>
	<polygon opacity="0.05" points="-21.603,264.46 -24.184,259.989 -21.603,255.519 -16.44,255.519 -13.858,259.989 -16.44,264.46 	
		"/>
	<polygon opacity="0.05" points="-80.946,264.158 -83.527,259.688 -80.946,255.217 -75.783,255.217 -73.202,259.688 
		-75.783,264.158 	"/>
	<polygon fill="#426EB5" points="-67.986,277.181 -87.44,243.485 -67.986,209.79 -29.079,209.79 -9.624,243.485 -29.079,277.181 	
		"/>
	<polygon opacity="0.02" fill="#FFFFFF" points="-67.986,209.79 -29.079,277.181 -67.986,277.181 -87.44,243.485 	"/>
	<polygon opacity="0.03" points="-49.104,242.497 -67.986,277.181 -29.079,277.181 	"/>
	<polygon opacity="0.03" points="-49.104,242.497 -29.079,209.79 -67.986,209.79 	"/>
	<circle fill="#FFFFFF" cx="-35.339" cy="239.02" r="0.835"/>
	<path fill="#575757" d="M-29.46,231.247c0,0-0.661,5.285-6.277,5.285c-5.616,0-7.762-5.285-7.762-5.285s3.799,2.642,7.432,2.642
		S-29.46,231.247-29.46,231.247z"/>
	<ellipse fill="#FFFFFF" stroke="#000000" stroke-miterlimit="10" cx="-59.934" cy="236.076" rx="6.716" ry="10.03"/>
	<ellipse fill="#FFFFFF" stroke="#000000" stroke-miterlimit="10" cx="-38.478" cy="235.029" rx="6.716" ry="10.03"/>
	<path fill="#5295CF" d="M-59.241,234.265c0,0-3.116,0.251-3.116,1.809s0.201,1.056,1.256,0
		C-60.045,235.018-59.241,234.265-59.241,234.265z"/>
	<path fill="#5295CF" d="M-36.175,234.265c0,0-3.115,0.251-3.115,1.809s0.201,1.056,1.256,0S-36.175,234.265-36.175,234.265z"/>
	<path fill="#426EB5" d="M-52.506,223.41c0,0-14.542,16.224-19.146,11.619c-4.604-4.604,3.506-4.499,7.99-8.983
		c4.484-4.484,5.427-5.802,9.046-5.802c3.618,0,3.316,3.934,3.316,4.756S-52.506,223.41-52.506,223.41z"/>
	<path fill="#426EB5" d="M-45.827,223.41c0,0,14.542,16.224,19.146,11.619c4.604-4.604-3.506-4.499-7.99-8.983
		c-4.484-4.484-5.427-5.802-9.046-5.802c-3.618,0-3.316,3.934-3.316,4.756S-45.827,223.41-45.827,223.41z"/>
	<path fill="#426EB5" d="M-72.161,242.852c0,0,4.135-0.19,11.159,0.534c7.023,0.725,8.515,2.909,8.515,2.909l-8.831,0.159
		L-72.161,242.852z"/>
	<path fill="#426EB5" d="M-25.102,239.854c0,0-4.018,0.43-10.683,2.171c-6.668,1.742-7.781,4.07-7.781,4.07l8.542-1.158
		L-25.102,239.854z"/>
	<path opacity="0.5" d="M-59.375,262.518c0,0,5.404-13.719,10.537-13.719s8.51,10.1,8.51,10.1s-2.836-7.99-8.375-7.99
		C-54.242,250.908-59.375,262.518-59.375,262.518z"/>
	<circle fill="#5295CF" cx="-58.406" cy="239.02" r="0.835"/>
	<circle fill="#5295CF" cx="-36.175" cy="238.184" r="0.835"/>
	<path opacity="0.5" d="M-51.294,255.658c0,0,2.729,2.541,5.271,0c2.541-2.541-1.322,1.313-2.635,0
		C-49.972,254.345-51.294,255.658-51.294,255.658z"/>
	<path opacity="0.5" d="M-52.506,223.41c0,0-10.804,12.253-16.834,12.253s3.055-0.765,8.417-6.126
		C-55.561,224.174-52.506,223.41-52.506,223.41z"/>
	<path opacity="0.5" d="M-45.789,223.41c0,0,10.804,12.253,16.835,12.253c6.03,0-3.055-0.765-8.418-6.126
		C-42.735,224.174-45.789,223.41-45.789,223.41z"/>
	<path opacity="0.1" d="M-67.973,242.007c0,0-5.561,10.568,0,10.568C-62.412,252.575-67.973,242.007-67.973,242.007z"/>
	<path fill="#FFFFFF" d="M-67.973,243.906c0,0-2.65,6.397,0,6.397C-65.323,250.304-67.973,243.906-67.973,243.906z"/>
</g>
<g>
	<g>
		<polygon fill="#06B052" points="22.655,284.677 19.851,279.818 22.655,274.961 28.264,274.961 31.07,279.818 28.264,284.677 		"/>
		<polygon opacity="0.03" points="22.655,274.961 28.264,284.677 22.655,284.677 19.851,279.818 		"/>
	</g>
	<g>
		<polygon fill="#06B052" points="55.296,284.677 57.965,280.052 55.296,275.427 49.956,275.427 47.284,280.052 49.956,284.677 		
			"/>
		<polygon opacity="0.03" points="55.296,275.427 49.956,284.677 55.296,284.677 57.965,280.052 		"/>
	</g>
	<polygon fill="#06B052" points="65.596,264.61 63.015,260.14 65.596,255.669 70.759,255.669 73.341,260.14 70.759,264.61 	"/>
	<polygon fill="#06B052" points="6.655,264.31 4.073,259.838 6.655,255.367 11.817,255.367 14.399,259.838 11.817,264.31 	"/>
	<polygon opacity="0.05" points="6.655,264.31 4.073,259.838 6.655,255.367 11.817,255.367 14.399,259.838 11.817,264.31 	"/>
	<polygon opacity="0.05" points="65.596,264.61 63.015,260.14 65.596,255.669 70.759,255.669 73.341,260.14 70.759,264.61 	"/>
	<polygon fill="#06B052" points="19.454,277.181 0,243.485 19.454,209.79 58.361,209.79 77.816,243.485 58.361,277.181 	"/>
	<polygon opacity="0.02" fill="#FFFFFF" points="19.454,209.79 58.361,277.181 19.454,277.181 0,243.485 	"/>
	<polygon opacity="0.03" points="38.336,242.497 19.454,277.181 58.361,277.181 	"/>
	<polygon opacity="0.03" points="38.336,242.497 58.361,209.79 19.454,209.79 	"/>
	<path fill="#575757" d="M18.971,217.25c0,0,10.829,0.21,10.829-3.188"/>
	<path fill="#575757" d="M57.338,217.25c0,0-10.828,0.21-10.828-3.188"/>
	<g>
		<ellipse fill="#FFFFFF" cx="29.055" cy="228.814" rx="5.357" ry="8.132"/>
		<circle fill="#575757" cx="29.589" cy="229.734" r="3.456"/>
	</g>
	<g>
		<ellipse fill="#FFFFFF" cx="47.563" cy="228.814" rx="5.357" ry="8.132"/>
		<circle fill="#575757" cx="47.563" cy="229.734" r="3.457"/>
	</g>
	<path fill="#0EA94B" d="M22.964,233.564c0,0,7.984,3.346,10.714,0.617c2.729-2.73-2.813,4.073-5.899,4.073
		C24.693,238.255,22.964,233.564,22.964,233.564z"/>
	<path fill="#0EA94B" d="M52.996,233.629c0,0-7.983,3.346-10.713,0.617c-2.729-2.73,2.813,4.073,5.899,4.073
		C51.268,238.319,52.996,233.629,52.996,233.629z"/>
	<g>
		<ellipse opacity="0.1" cx="38.5" cy="261.231" rx="6.629" ry="12.799"/>
		<path fill="#FFFFFF" d="M33.678,268.402c0,0,1.847,4.484,4.821,4.484c2.974,0,4.34-4.484,4.34-4.484H33.678z"/>
	</g>
	<path fill="#FFFFFF" d="M58.513,229.864c0,0-2.642,6.376,0,6.376C61.152,236.24,58.513,229.864,58.513,229.864z"/>
	<path fill="#FFFFFF" d="M18.971,221.725c0,0-2.642,6.376,0,6.376C21.611,228.101,18.971,221.725,18.971,221.725z"/>
	<circle fill="#FFFFFF" cx="29.589" cy="229.734" r="0.835"/>
	<circle fill="#FFFFFF" cx="47.564" cy="229.734" r="0.835"/>
</g>
</svg>
