<?xml version="1.0" encoding="utf-8"?>
<!-- Generator: Adobe Illustrator 16.0.4, SVG Export Plug-In . SVG Version: 6.00 Build 0)  -->
<!DOCTYPE svg PUBLIC "-//W3C//DTD SVG 1.1//EN" "http://www.w3.org/Graphics/SVG/1.1/DTD/svg11.dtd">
<svg version="1.1" id="Layer_1" xmlns="http://www.w3.org/2000/svg" xmlns:xlink="http://www.w3.org/1999/xlink" x="0px" y="0px"
	 width="77.816px" height="77.177px" viewBox="0 0 77.816 77.177" enable-background="new 0 0 77.816 77.177" xml:space="preserve">
<g>
	<g>
		<polygon fill="#F3BCD1" points="55.022,-230.857 57.825,-235.717 55.022,-240.573 49.413,-240.573 46.607,-235.717 
			49.413,-230.857 		"/>
		<polygon opacity="0.04" points="55.022,-240.573 49.413,-230.857 55.022,-230.857 57.825,-235.717 		"/>
	</g>
	<g>
		<polygon fill="#F3BCD1" points="23.672,-230.857 20.868,-235.717 23.672,-240.573 29.281,-240.573 32.087,-235.717 
			29.281,-230.857 		"/>
		<polygon opacity="0.04" points="23.672,-240.573 29.281,-230.857 23.672,-230.857 20.868,-235.717 		"/>
	</g>
	<g>
		<polygon fill="#F3BCD1" points="6.806,-250.891 4.225,-255.362 6.806,-259.833 11.969,-259.833 14.55,-255.362 11.969,-250.891 		
			"/>
		<polygon fill="#F3BCD1" points="65.546,-250.287 62.964,-254.759 65.546,-259.229 70.709,-259.229 73.291,-254.759 
			70.709,-250.287 		"/>
		<polygon opacity="0.05" points="6.806,-250.811 4.225,-255.281 6.806,-259.752 11.969,-259.752 14.55,-255.281 11.969,-250.811 		
			"/>
		<polygon opacity="0.05" points="65.546,-250.287 62.964,-254.759 65.546,-259.229 70.709,-259.229 73.291,-254.759 
			70.709,-250.287 		"/>
	</g>
	<polygon fill="#F3BCD1" points="19.454,-237.939 0,-271.635 19.454,-305.329 58.361,-305.329 77.816,-271.635 58.361,-237.939 	"/>
	<polygon opacity="0.02" fill="#FFFFFF" points="19.454,-305.329 58.361,-237.939 19.454,-237.939 0,-271.635 	"/>
	<polygon opacity="0.01" points="38.336,-272.623 19.454,-237.939 58.361,-237.939 	"/>
	<polygon opacity="0.02" points="38.336,-272.623 58.361,-305.329 19.454,-305.329 	"/>
	<g>
		<path fill="#575757" d="M20.315-296.678c0,0,2.622-5.302,11.319-5.302"/>
		<path fill="#575757" d="M53.371-297.36c0,0-2.622-5.302-11.32-5.302"/>
		<circle opacity="0.3" fill="#D71E40" cx="18.102" cy="-268.339" r="11.96"/>
		<circle opacity="0.3" fill="#D71E40" cx="19.761" cy="-270.922" r="10.127"/>
		<circle opacity="0.3" fill="#D71E40" cx="56.041" cy="-270.922" r="10.127"/>
		<circle opacity="0.3" fill="#D71E40" cx="57.39" cy="-268.339" r="11.96"/>
		<circle fill="#FFFFFF" cx="50.857" cy="-278.767" r="9.792"/>
		<path fill="#575757" d="M41.095-279.843c0,0,1.272-8.717,9.792-8.717c8.521,0,9.733,8.717,9.733,8.717s-2.624-7.88-9.733-7.88
			C43.778-287.723,41.095-279.843,41.095-279.843z"/>
		<circle fill="#575757" cx="50.857" cy="-278.767" r="1.884"/>
		<path opacity="0.1" fill="#FFFFFF" d="M41.392-272.955c0,0,5.027,5.743,9.763,5.743c4.737,0,9.167-5.743,9.167-5.743
			s-3.401,7.22-9.167,7.22S41.392-272.955,41.392-272.955z"/>
		<path opacity="0.4" fill="#FFFFFF" d="M49.52-278.524c0,0,0.128,1.328,1.396,1.328c1.269,0,1.277-1.328,1.277-1.328
			s-0.363,0.664-1.337,0.664C49.884-277.86,49.52-278.524,49.52-278.524z"/>
		<circle fill="#FFFFFF" cx="25.4" cy="-278.767" r="9.792"/>
		<path fill="#575757" d="M15.608-279.843c0,0,1.272-8.717,9.792-8.717c8.519,0,9.732,8.717,9.732,8.717s-2.624-7.88-9.732-7.88
			C18.292-287.723,15.608-279.843,15.608-279.843z"/>
		<circle fill="#575757" cx="25.757" cy="-278.767" r="1.719"/>
		<path opacity="0.1" fill="#FFFFFF" d="M15.608-272.955c0,0,5.025,5.743,9.762,5.743c4.736,0,9.167-5.743,9.167-5.743
			s-3.402,7.22-9.167,7.22C19.604-265.735,15.608-272.955,15.608-272.955z"/>
		<path opacity="0.4" fill="#FFFFFF" d="M24.482-278.767c0,0,0.117,1.212,1.275,1.212c1.158,0,1.166-1.212,1.166-1.212
			s-0.333,0.605-1.22,0.605C24.814-278.161,24.482-278.767,24.482-278.767z"/>
		<path opacity="0.4" d="M42.956-252.363c0,0.549-0.445,0.993-0.994,0.993h-7.479c-0.549,0-0.993-0.444-0.993-0.993l0,0
			c0-0.549,0.444-0.993,0.993-0.993h7.479C42.511-253.356,42.956-252.912,42.956-252.363L42.956-252.363z"/>
	</g>
</g>
<g>
	<g>
		<polygon fill="#754D9E" points="-64.947,-27.553 -67.75,-32.411 -64.947,-37.269 -59.338,-37.269 -56.531,-32.411 
			-59.338,-27.553 		"/>
		<polygon opacity="0.05" points="-64.947,-37.269 -59.338,-27.553 -64.947,-27.553 -67.75,-32.411 		"/>
	</g>
	<g>
		<polygon fill="#754D9E" points="-32.305,-27.553 -29.636,-32.179 -32.305,-36.804 -37.646,-36.804 -40.318,-32.179 
			-37.646,-27.553 		"/>
		<polygon opacity="0.05" points="-32.305,-36.804 -37.646,-27.553 -32.305,-27.553 -29.636,-32.179 		"/>
	</g>
	<polygon fill="#754D9E" points="-80,-46.743 -82.582,-51.214 -80,-55.686 -74.837,-55.686 -72.256,-51.214 -74.837,-46.743 	"/>
	<polygon fill="#754D9E" points="-22.466,-46.743 -25.048,-51.214 -22.466,-55.686 -17.303,-55.686 -14.722,-51.214 
		-17.303,-46.743 	"/>
	<polygon opacity="0.05" points="-22.466,-46.743 -25.048,-51.214 -22.466,-55.686 -17.303,-55.686 -14.722,-51.214 
		-17.303,-46.743 	"/>
	<polygon opacity="0.05" points="-80,-46.743 -82.582,-51.214 -80,-55.686 -74.837,-55.686 -72.256,-51.214 -74.837,-46.743 	"/>
	<polygon fill="#754D9E" points="-67.986,-35.025 -87.44,-68.721 -67.986,-102.417 -29.079,-102.417 -9.624,-68.721 
		-29.079,-35.025 	"/>
	<polygon opacity="0.02" fill="#FFFFFF" points="-67.986,-102.417 -29.079,-35.025 -67.986,-35.025 -87.44,-68.721 	"/>
	<polygon opacity="0.03" points="-49.104,-69.71 -67.986,-35.025 -29.079,-35.025 	"/>
	<polygon opacity="0.03" points="-49.104,-69.71 -29.079,-102.417 -67.986,-102.417 	"/>
	<g>
		<ellipse opacity="0.3" cx="-61.292" cy="-75.672" rx="11.344" ry="12.833"/>
		<ellipse opacity="0.3" cx="-35.417" cy="-75.672" rx="11.344" ry="12.833"/>
		<g>
			<ellipse opacity="0.1" fill="#FFFFFF" cx="-60.916" cy="-75.521" rx="12.838" ry="14.296"/>
			<ellipse opacity="0.1" fill="#FFFFFF" cx="-35.304" cy="-75.521" rx="12.839" ry="14.296"/>
		</g>
		<path fill="#FFFFFF" stroke="#753D77" stroke-miterlimit="10" d="M-70.514-77.966c0,0,0,12.04,10.159,12.04
			s10.159-12.04,10.159-12.04H-70.514z"/>
		<path fill="#FFFFFF" stroke="#773D78" stroke-miterlimit="10" d="M-46.286-77.966c0,0,0,12.04,10.159,12.04
			s10.159-12.04,10.159-12.04H-46.286z"/>
		<ellipse fill="#A254A0" cx="-63.392" cy="-77.02" rx="6.236" ry="4.461"/>
		<ellipse fill="#A254A0" cx="-38.722" cy="-77.02" rx="6.178" ry="4.461"/>
		<ellipse fill="#050404" cx="-63.516" cy="-76.354" rx="4.845" ry="2.989"/>
		<ellipse fill="#050404" cx="-38.732" cy="-76.354" rx="4.619" ry="2.989"/>
		
			<ellipse transform="matrix(0.007 1 -1 0.007 -141.0931 -11.9128)" fill="#FFFFFF" cx="-64.548" cy="-76.998" rx="1.397" ry="1.031"/>
		
			<ellipse transform="matrix(0.007 1 -1 0.007 -116.7383 -36.4386)" fill="#FFFFFF" cx="-40.022" cy="-76.998" rx="1.397" ry="1.014"/>
		<g>
			<path fill="#8E4D90" d="M-46.872-76.341h23.136c0,0-0.697-12.282-11.568-12.282C-46.174-88.623-46.872-76.341-46.872-76.341z"/>
			<path fill="#8E4D90" d="M-72.86-76.341h23.136c0,0-0.697-12.282-11.568-12.282C-72.163-88.623-72.86-76.341-72.86-76.341z"/>
		</g>
		<ellipse opacity="0.1" fill="#FFFFFF" cx="-49.932" cy="-59.588" rx="1.693" ry="1.865"/>
		<ellipse opacity="0.1" fill="#FFFFFF" cx="-46.594" cy="-59.588" rx="1.694" ry="1.865"/>
		<ellipse cx="-49.771" cy="-59.86" rx="1.079" ry="1.187"/>
		<ellipse cx="-46.692" cy="-59.86" rx="1.065" ry="1.187"/>
		<path fill="none" stroke="#000000" stroke-miterlimit="10" d="M-49.563-49.097c0.347-0.587,1.011-1.026,1.545-1.412
			c0.441-0.319,0.7-0.405,1.25-0.403c0.548,0.001,0.952,0.008,1.467,0.179c0.389,0.13,0.845,0.316,1.198,0.529"/>
		<path opacity="0.3" fill="none" stroke="#000000" stroke-miterlimit="10" d="M-73.085-76.341c0,0,0.513-12.282,11.944-12.282
			c11.432,0,11.193,12.282,11.193,12.282"/>
		<path opacity="0.3" fill="none" stroke="#000000" stroke-miterlimit="10" d="M-46.985-76.341c0,0,0.512-12.282,11.944-12.282
			c11.432,0,11.192,12.282,11.192,12.282"/>
	</g>
</g>
<g>
	<g>
		<polygon fill="#ED2A25" points="-32.31,-130.011 -29.507,-134.868 -32.31,-139.727 -37.919,-139.727 -40.725,-134.868 
			-37.919,-130.011 		"/>
		<polygon opacity="0.04" points="-32.31,-139.727 -37.919,-130.011 -32.31,-130.011 -29.507,-134.868 		"/>
	</g>
	<g>
		<polygon fill="#ED2A25" points="-64.661,-130.011 -67.463,-134.868 -64.661,-139.727 -59.051,-139.727 -56.246,-134.868 
			-59.051,-130.011 		"/>
		<polygon opacity="0.04" points="-64.661,-139.727 -59.051,-130.011 -64.661,-130.011 -67.463,-134.868 		"/>
	</g>
	<g>
		<polygon fill="#ED2A25" points="-81.97,-152.933 -84.551,-157.404 -81.97,-161.875 -76.807,-161.875 -74.225,-157.404 
			-76.807,-152.933 		"/>
		<polygon opacity="0.05" points="-81.97,-152.934 -84.551,-157.404 -81.97,-161.875 -76.807,-161.875 -74.225,-157.404 
			-76.807,-152.934 		"/>
	</g>
	<g>
		<polygon fill="#ED2A25" points="-20.817,-152.33 -23.399,-156.801 -20.817,-161.271 -15.654,-161.271 -13.073,-156.801 
			-15.654,-152.33 		"/>
		<polygon opacity="0.05" points="-20.817,-152.33 -23.399,-156.801 -20.817,-161.271 -15.654,-161.271 -13.073,-156.801 
			-15.654,-152.33 		"/>
	</g>
	<polygon fill="#ED2A25" points="-67.986,-137.848 -87.44,-171.544 -67.986,-205.238 -29.079,-205.238 -9.624,-171.544 
		-29.079,-137.848 	"/>
	<polygon opacity="0.02" fill="#FFFFFF" points="-67.986,-205.238 -29.079,-137.848 -67.986,-137.848 -87.44,-171.544 	"/>
	<polygon opacity="0.02" points="-49.104,-172.532 -67.986,-137.848 -29.079,-137.848 	"/>
	<polygon opacity="0.03" points="-49.104,-172.532 -29.079,-205.238 -67.986,-205.238 	"/>
	<path d="M-56.453-153.764c0,0,4.131-5.589,7.65-5.589c3.52,0,7.65,5.196,7.65,5.196s-3.771-6.409-7.65-6.409
		s-7.65,6.409-7.65,6.409"/>
	<path opacity="0.8" d="M-51.488-182.748c0,0,0.241-3.237-1.546-5.025c-1.788-1.787-6.765-5.7-11.596-5.7s-5.315,1.449-4.349,2.415
		c0.966,0.967,8.166,1.691,10.63,4.155C-55.885-184.439-51.488-182.748-51.488-182.748z"/>
	<ellipse fill="#FFFFFF" cx="-57.323" cy="-179.366" rx="5.17" ry="6.958"/>
	<path opacity="0.6" d="M-62.39-177.859c0,0,1.02,5.45,5.033,5.45s5.082-5.45,5.082-5.45s-2.054,4.573-5.082,4.573
		S-62.39-177.859-62.39-177.859z"/>
	<path opacity="0.1" fill="#FFFFFF" d="M-62.39-177.859c0,0,0.366,6.306,5.058,6.306c4.692,0,5.057-6.306,5.057-6.306
		s-1.079,5.45-5.082,5.45C-61.36-172.409-62.39-177.859-62.39-177.859z"/>
	<ellipse fill="#C32127" cx="-57.25" cy="-179.345" rx="2.527" ry="4.596"/>
	<path fill="#C32127" d="M-62.021-181.803c0,0,1.083-4.276,4.771-4.276c3.689,0,4.772,4.276,4.772,4.276s-1.188-2.686-4.699-2.686
		C-60.689-184.488-62.021-181.803-62.021-181.803z"/>
	<circle fill="#FFFFFF" cx="-57.25" cy="-179.366" r="0.528"/>
	<path opacity="0.8" d="M-45.319-182.446c0,0-0.242-3.237,1.546-5.025c1.788-1.787,6.764-5.701,11.596-5.701
		c4.832,0,5.315,1.449,4.349,2.416c-0.966,0.966-8.166,1.69-10.629,4.155C-40.922-184.138-45.319-182.446-45.319-182.446z"/>
	<ellipse fill="#FFFFFF" cx="-39.751" cy="-179.064" rx="5.17" ry="6.958"/>
	<path opacity="0.6" d="M-44.809-177.559c0,0,1.02,5.45,5.033,5.45s5.082-5.45,5.082-5.45s-2.054,4.573-5.082,4.573
		C-42.804-172.985-44.809-177.559-44.809-177.559z"/>
	<path opacity="0.1" fill="#FFFFFF" d="M-44.809-177.559c0,0,0.366,6.307,5.058,6.307s5.057-6.307,5.057-6.307
		s-1.08,5.45-5.082,5.45S-44.809-177.559-44.809-177.559z"/>
	<ellipse fill="#C32127" cx="-39.751" cy="-179.043" rx="2.527" ry="4.596"/>
	<path fill="#C32127" d="M-44.523-181.5c0,0,1.083-4.277,4.772-4.277c3.688,0,4.772,4.277,4.772,4.277s-1.188-2.687-4.7-2.687
		S-44.523-181.5-44.523-181.5z"/>
	<circle fill="#FFFFFF" cx="-39.751" cy="-179.064" r="0.528"/>
</g>
<g>
	<g>
		<polygon fill="#ED4798" points="22.327,-129.613 19.524,-134.471 22.327,-139.329 27.936,-139.329 30.743,-134.471 
			27.936,-129.613 		"/>
		<polygon opacity="0.03" points="22.327,-139.329 27.936,-129.613 22.327,-129.613 19.524,-134.471 		"/>
	</g>
	<g>
		<polygon fill="#ED4798" points="54.969,-129.613 57.638,-134.238 54.969,-138.863 49.628,-138.863 46.956,-134.238 
			49.628,-129.613 		"/>
		<polygon opacity="0.03" points="54.969,-138.863 49.628,-129.613 54.969,-129.613 57.638,-134.238 		"/>
	</g>
	<g>
		<polygon fill="#ED4798" points="5.962,-152.33 3.38,-156.801 5.962,-161.271 11.125,-161.271 13.706,-156.801 11.125,-152.33 		
			"/>
		<polygon opacity="0.05" points="5.962,-152.33 3.38,-156.801 5.962,-161.271 11.125,-161.271 13.706,-156.801 11.125,-152.33 		
			"/>
	</g>
	<g>
		<polygon fill="#ED4798" points="66.812,-152.33 64.231,-156.801 66.812,-161.271 71.976,-161.271 74.557,-156.801 71.976,-152.33 
					"/>
		<polygon opacity="0.05" points="66.812,-152.33 64.231,-156.801 66.812,-161.271 71.976,-161.271 74.557,-156.801 71.976,-152.33 
					"/>
	</g>
	<polygon fill="#ED4798" points="19.454,-137.848 0,-171.544 19.454,-205.238 58.361,-205.238 77.816,-171.544 58.361,-137.848 	"/>
	<polygon opacity="0.02" fill="#FFFFFF" points="19.454,-205.238 58.361,-137.848 19.454,-137.848 0,-171.544 	"/>
	<polygon opacity="0.03" points="38.336,-172.532 19.454,-137.848 58.361,-137.848 	"/>
	<polygon opacity="0.03" points="38.336,-172.532 58.361,-205.238 19.454,-205.238 	"/>
	
		<ellipse transform="matrix(0.9999 -0.012 0.012 0.9999 2.2114 0.3312)" fill="#FFFFFF" cx="28.622" cy="-183.56" rx="7.708" ry="7.841"/>
	
		<ellipse transform="matrix(0.9999 -0.0121 0.0121 0.9999 2.2396 0.5558)" fill="#FFFFFF" cx="47.055" cy="-184.821" rx="7.708" ry="7.842"/>
	<path fill="#4A3E4D" d="M24.733-194.516c0,0,3.687-5.776,7.087-2.457"/>
	<path fill="#4A3E4D" d="M50.281-195.879c0,0-4.545-5.482-7.67-2.281"/>
	<path fill="#E10686" d="M33.14-187.685c-0.15-0.047-0.291-0.083-0.425-0.111c-1.071-0.226-1.681,0.128-2.417,0.706
		c-0.44-0.824-0.858-1.395-1.928-1.619c-0.135-0.028-0.278-0.051-0.434-0.069c-0.947-0.104-2.196,0.521-2.667,2.119l-0.114,0.541
		c-0.205,1.581,0.567,3.748,3.494,6.878c3.94-1.688,5.518-3.361,5.966-4.891l0.113-0.543C34.942-186.326,34.049-187.4,33.14-187.685
		z"/>
	<path fill="#E10686" d="M47.021-189.574c-0.152,0.04-0.292,0.082-0.419,0.126c-1.031,0.369-1.368,0.989-1.694,1.867
		c-0.806-0.473-1.459-0.741-2.488-0.374c-0.131,0.046-0.264,0.103-0.407,0.167c-0.861,0.406-1.601,1.59-1.167,3.2l0.184,0.521
		c0.654,1.454,2.442,2.898,6.573,4.039c2.479-3.498,2.95-5.75,2.532-7.287l-0.185-0.521
		C49.266-189.357,47.945-189.805,47.021-189.574z"/>
	<path opacity="0.2" fill="#FFFFFF" d="M21.104-181.83c0,0,1.235,6.111,7.614,6.111c6.377,0,7.42-6.111,7.42-6.111
		s-3.672,4.321-7.516,4.321C24.778-177.509,21.104-181.83,21.104-181.83z"/>
	<path fill="#4A3E4D" d="M21.017-185.062c0,0,0.932-6.485,7.276-6.485c6.345,0,7.878,6.01,7.878,6.01s-2.416-5.142-7.878-5.142
		C22.832-190.68,21.017-185.062,21.017-185.062z"/>
	<path fill="#4A3E4D" d="M39.346-185.562c0,0,0.719-7.097,7.708-7.097c6.99,0,7.708,7.097,7.708,7.097s-2.542-6.307-7.708-6.307
		C41.888-191.869,39.346-185.562,39.346-185.562z"/>
	<g>
		<path fill="#ED4798" d="M18.41-177.891c0,0,3.707-0.172,10.004,0.479c6.296,0.649,7.634,2.608,7.634,2.608l-7.917,0.143
			L18.41-177.891z"/>
		<path fill="#ED4798" d="M58.079-180.591c0,0-3.69,0.394-9.814,1.994c-6.125,1.601-7.148,3.739-7.148,3.739l7.847-1.063
			L58.079-180.591z"/>
	</g>
	<path fill="#FFFFFF" d="M29.247-187.095c0,0-0.336-1.21-1.627-1.21c-1.29,0-1.786,1.94-1.786,1.94s0.374-0.97,1.706-0.97
		C28.874-187.334,29.247-187.095,29.247-187.095z"/>
	<path fill="#FFFFFF" d="M48.907-187.901c0,0-0.335-1.21-1.625-1.21c-1.291,0-1.788,1.941-1.788,1.941s0.373-0.971,1.706-0.971
		C48.534-188.141,48.907-187.901,48.907-187.901z"/>
	<g>
		<path fill="none" stroke="#4A3E4D" stroke-width="0.5" stroke-miterlimit="10" d="M16.816-177.062c0,0,2.045,13.527,21.556,13.527
			c19.512,0,19.634-13.527,19.634-13.527"/>
		<path fill="none" stroke="#4A3E4D" stroke-width="0.5" stroke-miterlimit="10" d="M13.402-174.503c0,0,3.82-3.575,5.932-3.575"/>
		<path fill="none" stroke="#4A3E4D" stroke-width="0.5" stroke-miterlimit="10" d="M61.581-175.072c0,0-3.17-2.519-6.014-2.519"/>
	</g>
	<path opacity="0.1" fill="#4A3E4D" d="M27.229-163.616c0,0,6.294,2.274,11.184,2.274c4.889,0,10.169-2.274,10.169-2.274
		s-5.701,5.441-10.081,4.792C34.12-159.473,27.229-163.616,27.229-163.616z"/>
	<path opacity="0.2" fill="#FFFFFF" d="M24.188-166.521c0,0,5.842,3.352,14.224,3.352c8.382,0,13.318-3.352,13.318-3.352
		s-6.539,4.937-13.229,4.937C31.811-161.585,24.188-166.521,24.188-166.521z"/>
</g>
<g>
	<g>
		<polygon fill="#F8ED40" points="-32.857,-230.127 -30.054,-234.984 -32.857,-239.842 -38.466,-239.842 -41.272,-234.984 
			-38.466,-230.127 		"/>
		<polygon opacity="0.04" points="-32.857,-239.842 -38.466,-230.127 -32.857,-230.127 -30.054,-234.984 		"/>
	</g>
	<g>
		<polygon fill="#F8ED40" points="-64.208,-230.127 -67.011,-234.984 -64.208,-239.842 -58.598,-239.842 -55.792,-234.984 
			-58.598,-230.127 		"/>
		<polygon opacity="0.04" points="-64.208,-239.842 -58.598,-230.127 -64.208,-230.127 -67.011,-234.984 		"/>
	</g>
	<polygon fill="#F8ED40" points="-81.206,-252.209 -83.788,-256.681 -81.206,-261.151 -76.043,-261.151 -73.462,-256.681 
		-76.043,-252.209 	"/>
	<polygon fill="#F8ED40" points="-21.26,-251.907 -23.842,-256.379 -21.26,-260.85 -16.097,-260.85 -13.516,-256.379 
		-16.097,-251.907 	"/>
	<polygon opacity="0.05" points="-81.206,-252.209 -83.788,-256.681 -81.206,-261.151 -76.043,-261.151 -73.462,-256.681 
		-76.043,-252.209 	"/>
	<polygon opacity="0.05" points="-21.26,-251.908 -23.842,-256.379 -21.26,-260.85 -16.097,-260.85 -13.516,-256.379 
		-16.097,-251.908 	"/>
	<polygon fill="#F8ED40" points="-67.986,-237.939 -87.44,-271.635 -67.986,-305.329 -29.079,-305.329 -9.624,-271.635 
		-29.079,-237.939 	"/>
	<polygon opacity="0.02" fill="#020202" points="-67.986,-305.329 -48.532,-272.182 -29.079,-305.329 	"/>
	<polygon opacity="0.03" fill="#020202" points="-48.532,-272.182 -67.986,-237.939 -29.079,-237.939 	"/>
	<polygon opacity="0.02" fill="#020202" points="-67.986,-305.329 -48.532,-272.182 -67.986,-237.939 -87.44,-271.635 	"/>
	<path opacity="0.4" fill="none" stroke="#000000" stroke-miterlimit="10" d="M-26.722-284.14c0,0,4.345,2.92,4.345,5.146"/>
	<g>
		<ellipse fill="#FFFFFF" cx="-57.146" cy="-287.06" rx="7.439" ry="8.669"/>
		<ellipse fill="#FFFFFF" cx="-40.611" cy="-287.06" rx="7.439" ry="8.669"/>
		<path opacity="0.1" d="M-61.71-297.402c0,0,3.687-5.776,7.086-2.457"/>
		<path opacity="0.1" d="M-36.163-298.766c0,0-4.545-5.482-7.67-2.281"/>
		<path fill="#575757" d="M-64.723-289.243c0,0,0.931-6.486,7.275-6.486c6.345,0,7.879,6.011,7.879,6.011s-2.416-5.143-7.879-5.143
			C-62.909-294.861-64.723-289.243-64.723-289.243z"/>
		<path fill="#575757" d="M-48.189-289.243c0,0,0.932-6.486,7.276-6.486c6.345,0,7.878,6.011,7.878,6.011s-2.416-5.143-7.878-5.143
			C-46.374-294.861-48.189-289.243-48.189-289.243z"/>
		<ellipse fill="#F6EB0F" cx="-57.609" cy="-284.681" rx="6.032" ry="6.485"/>
		<ellipse fill="#F6EB0F" cx="-40.008" cy="-284.681" rx="6.032" ry="6.485"/>
		<circle fill="#575757" cx="-57.449" cy="-285.898" r="3.87"/>
		<circle fill="#575757" cx="-40.612" cy="-285.898" r="3.835"/>
		<ellipse fill="#FFFFFF" cx="-59.776" cy="-288.151" rx="0.754" ry="1.092"/>
		<ellipse fill="#FFFFFF" cx="-38.067" cy="-288.642" rx="0.754" ry="1.091"/>
		<path opacity="0.4" fill="none" stroke="#000000" stroke-miterlimit="10" d="M-70.532-282.255c0,0,10.271,18.452,22.752,18.452
			c12.48,0,23.23-18.452,23.23-18.452"/>
		<path opacity="0.4" fill="none" stroke="#000000" stroke-miterlimit="10" d="M-68.019-284.14c0,0-4.346,2.92-4.346,5.146"/>
		<path fill="#FBED27" d="M-44.241-279.493c0,0,11.069-2.023,11.069-5.868s2.197,4.807,1.136,5.868
			c-1.061,1.061-5.05,3.78-6.784,3.78C-40.554-275.713-44.241-279.493-44.241-279.493z"/>
		<path fill="#EEE835" d="M-53.359-279.521c0,0-11.069-2.022-11.069-5.868c0-3.844-2.197,4.808-1.136,5.868
			c1.062,1.062,5.051,3.781,6.785,3.781C-57.046-275.739-53.359-279.521-53.359-279.521z"/>
	</g>
</g>
<g>
	<g>
		<polygon fill="#F7961D" points="22.093,-27.183 19.29,-32.041 22.093,-36.898 27.703,-36.898 30.508,-32.041 27.703,-27.183 		"/>
		<polygon opacity="0.03" points="22.093,-36.898 27.703,-27.183 22.093,-27.183 19.29,-32.041 		"/>
	</g>
	<g>
		<polygon fill="#F7961D" points="55.734,-27.183 58.404,-31.808 55.734,-36.434 50.394,-36.434 47.722,-31.808 50.394,-27.183 		
			"/>
		<polygon opacity="0.03" points="55.734,-36.434 50.394,-27.183 55.734,-27.183 58.404,-31.808 		"/>
	</g>
	<g>
		<polygon fill="#F7961D" points="64.383,-45.383 61.802,-49.854 64.383,-54.324 69.547,-54.324 72.128,-49.854 69.547,-45.383 		
			"/>
		<polygon opacity="0.05" points="64.383,-45.383 61.802,-49.854 64.383,-54.324 69.547,-54.324 72.128,-49.854 69.547,-45.383 		
			"/>
	</g>
	<g>
		<polygon fill="#F7961D" points="8.056,-45.685 5.474,-50.155 8.056,-54.626 13.218,-54.626 15.8,-50.155 13.218,-45.685 		"/>
		<polygon opacity="0.05" points="8.056,-45.685 5.474,-50.155 8.056,-54.626 13.218,-54.626 15.8,-50.155 13.218,-45.685 		"/>
	</g>
	<polygon fill="#F7961D" points="19.454,-35.025 0,-68.721 19.454,-102.417 58.361,-102.417 77.816,-68.721 58.361,-35.025 	"/>
	<polygon opacity="0.02" fill="#FFFFFF" points="19.454,-102.417 58.361,-35.025 19.454,-35.025 0,-68.721 	"/>
	<polygon opacity="0.03" points="38.336,-69.71 19.454,-35.025 58.361,-35.025 	"/>
	<polygon opacity="0.03" points="38.336,-69.71 58.361,-102.417 19.454,-102.417 	"/>
	<g>
		<path fill="none" stroke="#000000" stroke-miterlimit="10" d="M48.158-54.535c0,0,7.824,1.492,7.824-8.304"/>
		<path d="M17.479-93.12c0,0,2.412-5.427,5.578-5.427"/>
		<path d="M59.215-93.12c0,0-2.412-5.427-5.579-5.427"/>
		<g>
			<circle fill="#FFFFFF" cx="22.713" cy="-83.965" r="7.713"/>
			<g>
				<ellipse fill="#F5841F" cx="22.934" cy="-85.276" rx="4.441" ry="4.774"/>
				<circle fill="#575757" cx="23.052" cy="-86.174" r="2.849"/>
				<ellipse fill="#FFFFFF" cx="21.339" cy="-87.832" rx="0.555" ry="0.804"/>
			</g>
			<path fill="#575757" d="M14.479-84.544c0,0,1.024-8.24,7.996-8.24c6.973,0,8.659,7.636,8.659,7.636s-2.655-6.533-8.659-6.533
				C16.473-91.682,14.479-84.544,14.479-84.544z"/>
		</g>
		<g>
			<circle fill="#FFFFFF" cx="55.815" cy="-84.267" r="7.713"/>
			<g>
				<ellipse fill="#F5841F" cx="56.748" cy="-85.578" rx="4.441" ry="4.774"/>
				<circle fill="#575757" cx="56.865" cy="-86.476" r="2.849"/>
				<ellipse fill="#FFFFFF" cx="55.152" cy="-88.133" rx="0.555" ry="0.803"/>
			</g>
			<path fill="#575757" d="M64.143-84.278c0,0-1.023-8.241-7.996-8.241c-6.973,0-8.658,7.637-8.658,7.637s2.655-6.533,8.658-6.533
				C62.148-91.416,64.143-84.278,64.143-84.278z"/>
		</g>
		<g>
			<path d="M7.282-87.129L5.867-85.01c0,0,3.537,3.715,3.537,7.074s4.243,11.668,12.021,11.668s13.613-2.654,14.143-7.78
				s2.121-5.657,2.121-5.657h3.183c0,0,2.298,3.183,2.298,5.657c0,2.477,4.42,10.61,14.322,7.78
				c9.9-2.828,11.844-6.542,11.844-11.314c0-4.775,2.121-5.659,3.183-7.249c1.06-1.592,0-2.298,0-2.298H52.717
				c0,0-7.777,3.535-9.016,3.535c-1.238,0-7.07,0-7.07,0s-6.014-3.535-9.017-3.535C24.608-87.129,7.282-87.129,7.282-87.129z"/>
			<path fill="#FFFFFF" d="M16.139-82.851c0,0-5.742,3.326-2.62,6.448c3.121,3.121-1.452-0.125,0.845-2.422
				C16.662-81.122,16.139-82.851,16.139-82.851z"/>
			<path fill="#FFFFFF" d="M47.723-73.277c0,0,0.604,4.131,3.022,4.131c2.417,0,4.231,0,4.231,0s-2.191,0.174-3.627-1.262
				C49.914-71.844,47.723-73.277,47.723-73.277z"/>
			<path fill="#FFFFFF" d="M32.459-73.809c0,0-0.605,4.129-3.022,4.129c-2.418,0-4.232,0-4.232,0s2.192,0.176,3.627-1.26
				C30.268-72.375,32.459-73.809,32.459-73.809z"/>
			<path fill="#FFFFFF" d="M56.941-82.851c0,0,9.639-0.179,9.818,0c0.178,0.18,1.655,2.699,0,3.868
				c-1.657,1.169-1.053-1.975-3.17-1.975C61.474-80.957,56.941-82.851,56.941-82.851z"/>
		</g>
	</g>
</g>
<g>
	<polygon fill="#426EB5" points="-64.947,76.943 -67.75,72.086 -64.947,67.229 -59.338,67.229 -56.531,72.086 -59.338,76.943 	"/>
	<polygon opacity="0.03" points="-64.947,67.229 -59.338,76.943 -64.947,76.943 -67.75,72.086 	"/>
	<polygon fill="#426EB5" points="-32.305,76.943 -29.636,72.319 -32.305,67.694 -37.646,67.694 -40.318,72.319 -37.646,76.943 	"/>
	<polygon opacity="0.03" points="-32.305,67.694 -37.646,76.943 -32.305,76.943 -29.636,72.319 	"/>
	<polygon fill="#426EB5" points="-80.946,56.658 -83.527,52.188 -80.946,47.717 -75.783,47.717 -73.202,52.188 -75.783,56.658 	"/>
	<polygon fill="#426EB5" points="-21.603,56.96 -24.184,52.489 -21.603,48.019 -16.44,48.019 -13.858,52.489 -16.44,56.96 	"/>
	<polygon opacity="0.05" points="-21.603,56.96 -24.184,52.489 -21.603,48.019 -16.44,48.019 -13.858,52.489 -16.44,56.96 	"/>
	<polygon opacity="0.05" points="-80.946,56.658 -83.527,52.188 -80.946,47.717 -75.783,47.717 -73.202,52.188 -75.783,56.658 	"/>
	<polygon fill="#426EB5" points="-67.986,69.681 -87.44,35.985 -67.986,2.29 -29.079,2.29 -9.624,35.985 -29.079,69.681 	"/>
	<polygon opacity="0.02" fill="#FFFFFF" points="-67.986,2.29 -29.079,69.681 -67.986,69.681 -87.44,35.985 	"/>
	<polygon opacity="0.03" points="-49.104,34.997 -67.986,69.681 -29.079,69.681 	"/>
	<polygon opacity="0.03" points="-49.104,34.997 -29.079,2.29 -67.986,2.29 	"/>
	<circle fill="#FFFFFF" cx="-35.339" cy="31.52" r="0.835"/>
	<path fill="#575757" d="M-29.46,23.747c0,0-0.661,5.285-6.277,5.285c-5.616,0-7.762-5.285-7.762-5.285s3.799,2.642,7.432,2.642
		S-29.46,23.747-29.46,23.747z"/>
	<ellipse fill="#FFFFFF" stroke="#000000" stroke-miterlimit="10" cx="-59.934" cy="28.576" rx="6.716" ry="10.03"/>
	<ellipse fill="#FFFFFF" stroke="#000000" stroke-miterlimit="10" cx="-38.478" cy="27.529" rx="6.716" ry="10.03"/>
	<path fill="#5295CF" d="M-59.241,26.765c0,0-3.116,0.251-3.116,1.809s0.201,1.056,1.256,0
		C-60.045,27.518-59.241,26.765-59.241,26.765z"/>
	<path fill="#5295CF" d="M-36.175,26.765c0,0-3.115,0.251-3.115,1.809s0.201,1.056,1.256,0S-36.175,26.765-36.175,26.765z"/>
	<path fill="#426EB5" d="M-52.506,15.91c0,0-14.542,16.224-19.146,11.619c-4.604-4.604,3.506-4.499,7.99-8.983
		c4.484-4.484,5.427-5.802,9.046-5.802c3.618,0,3.316,3.934,3.316,4.756S-52.506,15.91-52.506,15.91z"/>
	<path fill="#426EB5" d="M-45.827,15.91c0,0,14.542,16.224,19.146,11.619c4.604-4.604-3.506-4.499-7.99-8.983
		c-4.484-4.484-5.427-5.802-9.046-5.802c-3.618,0-3.316,3.934-3.316,4.756S-45.827,15.91-45.827,15.91z"/>
	<path fill="#426EB5" d="M-72.161,35.352c0,0,4.135-0.19,11.159,0.534c7.023,0.725,8.515,2.909,8.515,2.909l-8.831,0.159
		L-72.161,35.352z"/>
	<path fill="#426EB5" d="M-25.102,32.354c0,0-4.018,0.43-10.683,2.171c-6.668,1.742-7.781,4.07-7.781,4.07l8.542-1.158
		L-25.102,32.354z"/>
	<path opacity="0.5" d="M-59.375,55.018c0,0,5.404-13.719,10.537-13.719s8.51,10.1,8.51,10.1s-2.836-7.99-8.375-7.99
		C-54.242,43.408-59.375,55.018-59.375,55.018z"/>
	<circle fill="#5295CF" cx="-58.406" cy="31.52" r="0.835"/>
	<circle fill="#5295CF" cx="-36.175" cy="30.684" r="0.835"/>
	<path opacity="0.5" d="M-51.294,48.158c0,0,2.729,2.541,5.271,0c2.541-2.541-1.322,1.313-2.635,0
		C-49.972,46.845-51.294,48.158-51.294,48.158z"/>
	<path opacity="0.5" d="M-52.506,15.91c0,0-10.804,12.253-16.834,12.253s3.055-0.765,8.417-6.126
		C-55.561,16.674-52.506,15.91-52.506,15.91z"/>
	<path opacity="0.5" d="M-45.789,15.91c0,0,10.804,12.253,16.835,12.253c6.03,0-3.055-0.765-8.418-6.126
		C-42.735,16.674-45.789,15.91-45.789,15.91z"/>
	<path opacity="0.1" d="M-67.973,34.507c0,0-5.561,10.568,0,10.568C-62.412,45.075-67.973,34.507-67.973,34.507z"/>
	<path fill="#FFFFFF" d="M-67.973,36.406c0,0-2.65,6.397,0,6.397C-65.323,42.804-67.973,36.406-67.973,36.406z"/>
</g>
<g>
	<g>
		<polygon fill="#06B052" points="22.655,77.177 19.851,72.318 22.655,67.461 28.264,67.461 31.07,72.318 28.264,77.177 		"/>
		<polygon opacity="0.03" points="22.655,67.461 28.264,77.177 22.655,77.177 19.851,72.318 		"/>
	</g>
	<g>
		<polygon fill="#06B052" points="55.296,77.177 57.965,72.552 55.296,67.927 49.956,67.927 47.284,72.552 49.956,77.177 		"/>
		<polygon opacity="0.03" points="55.296,67.927 49.956,77.177 55.296,77.177 57.965,72.552 		"/>
	</g>
	<polygon fill="#06B052" points="65.596,57.11 63.015,52.64 65.596,48.169 70.759,48.169 73.341,52.64 70.759,57.11 	"/>
	<polygon fill="#06B052" points="6.655,56.81 4.073,52.338 6.655,47.867 11.817,47.867 14.399,52.338 11.817,56.81 	"/>
	<polygon opacity="0.05" points="6.655,56.81 4.073,52.338 6.655,47.867 11.817,47.867 14.399,52.338 11.817,56.81 	"/>
	<polygon opacity="0.05" points="65.596,57.11 63.015,52.64 65.596,48.169 70.759,48.169 73.341,52.64 70.759,57.11 	"/>
	<polygon fill="#06B052" points="19.454,69.681 0,35.985 19.454,2.29 58.361,2.29 77.816,35.985 58.361,69.681 	"/>
	<polygon opacity="0.02" fill="#FFFFFF" points="19.454,2.29 58.361,69.681 19.454,69.681 0,35.985 	"/>
	<polygon opacity="0.03" points="38.336,34.997 19.454,69.681 58.361,69.681 	"/>
	<polygon opacity="0.03" points="38.336,34.997 58.361,2.29 19.454,2.29 	"/>
	<path fill="#575757" d="M18.971,9.75c0,0,10.829,0.21,10.829-3.188"/>
	<path fill="#575757" d="M57.338,9.75c0,0-10.828,0.21-10.828-3.188"/>
	<g>
		<ellipse fill="#FFFFFF" cx="29.055" cy="21.314" rx="5.357" ry="8.132"/>
		<circle fill="#575757" cx="29.589" cy="22.234" r="3.456"/>
	</g>
	<g>
		<ellipse fill="#FFFFFF" cx="47.563" cy="21.314" rx="5.357" ry="8.132"/>
		<circle fill="#575757" cx="47.563" cy="22.234" r="3.457"/>
	</g>
	<path fill="#0EA94B" d="M22.964,26.064c0,0,7.984,3.346,10.714,0.617c2.729-2.73-2.813,4.073-5.899,4.073
		C24.693,30.755,22.964,26.064,22.964,26.064z"/>
	<path fill="#0EA94B" d="M52.996,26.129c0,0-7.983,3.346-10.713,0.617c-2.729-2.73,2.813,4.073,5.899,4.073
		C51.268,30.819,52.996,26.129,52.996,26.129z"/>
	<g>
		<ellipse opacity="0.1" cx="38.5" cy="53.731" rx="6.629" ry="12.799"/>
		<path fill="#FFFFFF" d="M33.678,60.902c0,0,1.847,4.484,4.821,4.484c2.974,0,4.34-4.484,4.34-4.484H33.678z"/>
	</g>
	<path fill="#FFFFFF" d="M58.513,22.364c0,0-2.642,6.376,0,6.376C61.152,28.74,58.513,22.364,58.513,22.364z"/>
	<path fill="#FFFFFF" d="M18.971,14.225c0,0-2.642,6.376,0,6.376C21.611,20.601,18.971,14.225,18.971,14.225z"/>
	<circle fill="#FFFFFF" cx="29.589" cy="22.234" r="0.835"/>
	<circle fill="#FFFFFF" cx="47.564" cy="22.234" r="0.835"/>
</g>
</svg>
