<?xml version="1.0" encoding="utf-8"?>
<!-- Generator: Adobe Illustrator 16.0.4, SVG Export Plug-In . SVG Version: 6.00 Build 0)  -->
<!DOCTYPE svg PUBLIC "-//W3C//DTD SVG 1.1//EN" "http://www.w3.org/Graphics/SVG/1.1/DTD/svg11.dtd">
<svg version="1.1" id="Layer_1" xmlns="http://www.w3.org/2000/svg" xmlns:xlink="http://www.w3.org/1999/xlink" x="0px" y="0px"
	 width="77.816px" height="76.643px" viewBox="0 0 77.816 76.643" enable-background="new 0 0 77.816 76.643" xml:space="preserve">
<g>
	<polygon fill="#754D9E" points="-64.947,279.947 -67.75,275.089 -64.947,270.231 -59.338,270.231 -56.531,275.089 -59.338,279.947 
			"/>
	<polygon opacity="0.05" enable-background="new    " points="-64.947,270.231 -59.338,279.947 -64.947,279.947 -67.75,275.089 	"/>
</g>
<g>
	<polygon fill="#754D9E" points="-32.305,279.947 -29.636,275.321 -32.305,270.696 -37.646,270.696 -40.318,275.321 
		-37.646,279.947 	"/>
	<polygon opacity="0.05" enable-background="new    " points="-32.305,270.696 -37.646,279.947 -32.305,279.947 -29.636,275.321 	
		"/>
</g>
<polygon fill="#754D9E" points="-80,260.757 -82.582,256.286 -80,251.814 -74.837,251.814 -72.256,256.286 -74.837,260.757 "/>
<polygon fill="#754D9E" points="-22.466,260.757 -25.048,256.286 -22.466,251.814 -17.303,251.814 -14.722,256.286 -17.303,260.757 
	"/>
<polygon opacity="0.05" enable-background="new    " points="-22.466,260.757 -25.048,256.286 -22.466,251.814 -17.303,251.814 
	-14.722,256.286 -17.303,260.757 "/>
<polygon opacity="0.05" enable-background="new    " points="-80,260.757 -82.582,256.286 -80,251.814 -74.837,251.814 
	-72.256,256.286 -74.837,260.757 "/>
<polygon fill="#754D9E" points="-67.986,272.475 -87.44,238.779 -67.986,205.083 -29.079,205.083 -9.624,238.779 -29.079,272.475 
	"/>
<polygon opacity="0.02" fill="#FFFFFF" enable-background="new    " points="-67.986,205.083 -29.079,272.475 -67.986,272.475 
	-87.44,238.779 "/>
<polygon opacity="0.03" enable-background="new    " points="-49.104,237.79 -67.986,272.475 -29.079,272.475 "/>
<polygon opacity="0.03" enable-background="new    " points="-49.104,237.79 -29.079,205.083 -67.986,205.083 "/>
<g>
	<ellipse opacity="0.3" enable-background="new    " cx="-61.292" cy="231.828" rx="11.344" ry="12.833"/>
	<ellipse opacity="0.3" enable-background="new    " cx="-35.417" cy="231.828" rx="11.344" ry="12.833"/>
	<g>
		<ellipse opacity="0.1" fill="#FFFFFF" enable-background="new    " cx="-60.916" cy="231.979" rx="12.838" ry="14.296"/>
		<ellipse opacity="0.1" fill="#FFFFFF" enable-background="new    " cx="-35.304" cy="231.979" rx="12.839" ry="14.296"/>
	</g>
	<path fill="#FFFFFF" stroke="#753D77" stroke-miterlimit="10" d="M-70.514,229.534c0,0,0,12.04,10.159,12.04
		s10.159-12.04,10.159-12.04H-70.514z"/>
	<path fill="#FFFFFF" stroke="#773D78" stroke-miterlimit="10" d="M-46.286,229.534c0,0,0,12.04,10.159,12.04
		s10.159-12.04,10.159-12.04H-46.286z"/>
	<ellipse fill="#A254A0" cx="-63.392" cy="230.48" rx="6.235" ry="4.461"/>
	<ellipse fill="#A254A0" cx="-38.722" cy="230.48" rx="6.178" ry="4.461"/>
	<ellipse fill="#050404" cx="-63.516" cy="231.146" rx="4.845" ry="2.989"/>
	<ellipse fill="#050404" cx="-38.732" cy="231.146" rx="4.619" ry="2.989"/>
	
		<ellipse transform="matrix(1 -0.0071 0.0071 1 -1.6395 -0.4529)" fill="#FFFFFF" cx="-64.554" cy="230.503" rx="1.031" ry="1.397"/>
	
		<ellipse transform="matrix(1 -0.0072 0.0072 1 -1.6657 -0.2831)" fill="#FFFFFF" cx="-40.028" cy="230.503" rx="1.014" ry="1.397"/>
	<g>
		<path fill="#8E4D90" d="M-46.872,231.159h23.137c0,0-0.697-12.282-11.568-12.282C-46.174,218.877-46.872,231.159-46.872,231.159z"
			/>
		<path fill="#8E4D90" d="M-72.86,231.159h23.136c0,0-0.697-12.282-11.568-12.282S-72.86,231.159-72.86,231.159z"/>
	</g>
	<ellipse opacity="0.1" fill="#FFFFFF" enable-background="new    " cx="-49.932" cy="247.912" rx="1.693" ry="1.865"/>
	<ellipse opacity="0.1" fill="#FFFFFF" enable-background="new    " cx="-46.594" cy="247.912" rx="1.694" ry="1.865"/>
	<ellipse cx="-49.771" cy="247.64" rx="1.079" ry="1.187"/>
	<ellipse cx="-46.692" cy="247.64" rx="1.064" ry="1.187"/>
	<path fill="none" stroke="#000000" stroke-miterlimit="10" d="M-49.563,258.403c0.347-0.587,1.011-1.025,1.545-1.411
		c0.44-0.319,0.7-0.405,1.25-0.403c0.548,0.001,0.952,0.008,1.467,0.179c0.389,0.13,0.845,0.316,1.198,0.529"/>
	<path opacity="0.3" fill="none" stroke="#000000" stroke-miterlimit="10" enable-background="new    " d="M-73.085,231.159
		c0,0,0.514-12.282,11.944-12.282c11.432,0,11.192,12.282,11.192,12.282"/>
	<path opacity="0.3" fill="none" stroke="#000000" stroke-miterlimit="10" enable-background="new    " d="M-46.985,231.159
		c0,0,0.512-12.282,11.943-12.282c11.433,0,11.192,12.282,11.192,12.282"/>
</g>
<g>
	<polygon fill="#ED2A25" points="-32.31,177.49 -29.507,172.632 -32.31,167.773 -37.919,167.773 -40.725,172.632 -37.919,177.49 	
		"/>
	<polygon opacity="0.04" enable-background="new    " points="-32.31,167.773 -37.919,177.49 -32.31,177.49 -29.507,172.632 	"/>
</g>
<g>
	<polygon fill="#ED2A25" points="-64.661,177.49 -67.463,172.632 -64.661,167.773 -59.051,167.773 -56.246,172.632 -59.051,177.49 	
		"/>
	<polygon opacity="0.04" enable-background="new    " points="-64.661,167.773 -59.051,177.49 -64.661,177.49 -67.463,172.632 	"/>
</g>
<g>
	<polygon fill="#ED2A25" points="-81.97,154.567 -84.551,150.096 -81.97,145.625 -76.807,145.625 -74.225,150.096 -76.807,154.567 	
		"/>
	<polygon opacity="0.05" enable-background="new    " points="-81.97,154.566 -84.551,150.096 -81.97,145.625 -76.807,145.625 
		-74.225,150.096 -76.807,154.566 	"/>
</g>
<g>
	<polygon fill="#ED2A25" points="-20.817,155.17 -23.399,150.699 -20.817,146.229 -15.654,146.229 -13.073,150.699 -15.654,155.17 	
		"/>
	<polygon opacity="0.05" enable-background="new    " points="-20.817,155.17 -23.399,150.699 -20.817,146.229 -15.654,146.229 
		-13.073,150.699 -15.654,155.17 	"/>
</g>
<polygon fill="#ED2A25" points="-67.986,169.652 -87.44,135.956 -67.986,102.262 -29.079,102.262 -9.624,135.956 -29.079,169.652 
	"/>
<polygon opacity="0.02" fill="#FFFFFF" enable-background="new    " points="-67.986,102.262 -29.079,169.652 -67.986,169.652 
	-87.44,135.956 "/>
<polygon opacity="0.02" enable-background="new    " points="-49.104,134.968 -67.986,169.652 -29.079,169.652 "/>
<polygon opacity="0.03" enable-background="new    " points="-49.104,134.968 -29.079,102.262 -67.986,102.262 "/>
<path d="M-56.453,153.736c0,0,4.132-5.589,7.65-5.589c3.52,0,7.65,5.196,7.65,5.196s-3.771-6.409-7.65-6.409s-7.65,6.409-7.65,6.409
	"/>
<path opacity="0.8" enable-background="new    " d="M-51.488,124.752c0,0,0.24-3.237-1.547-5.025c-1.787-1.787-6.765-5.7-11.596-5.7
	s-5.314,1.449-4.349,2.415c0.966,0.968,8.166,1.691,10.63,4.155S-51.488,124.752-51.488,124.752z"/>
<ellipse fill="#FFFFFF" cx="-57.323" cy="128.134" rx="5.171" ry="6.958"/>
<path opacity="0.6" enable-background="new    " d="M-62.39,129.641c0,0,1.02,5.45,5.033,5.45c4.013,0,5.082-5.45,5.082-5.45
	s-2.055,4.573-5.082,4.573C-60.385,134.214-62.39,129.641-62.39,129.641z"/>
<path opacity="0.1" fill="#FFFFFF" enable-background="new    " d="M-62.39,129.641c0,0,0.366,6.307,5.058,6.307
	c4.692,0,5.058-6.307,5.058-6.307s-1.079,5.45-5.082,5.45S-62.39,129.641-62.39,129.641z"/>
<ellipse fill="#C32127" cx="-57.25" cy="128.155" rx="2.527" ry="4.596"/>
<path fill="#C32127" d="M-62.021,125.698c0,0,1.083-4.276,4.771-4.276c3.689,0,4.772,4.276,4.772,4.276s-1.188-2.687-4.699-2.687
	C-60.689,123.012-62.021,125.698-62.021,125.698z"/>
<circle fill="#FFFFFF" cx="-57.25" cy="128.134" r="0.528"/>
<path opacity="0.8" enable-background="new    " d="M-45.319,125.054c0,0-0.242-3.237,1.546-5.025c1.788-1.786,6.764-5.7,11.596-5.7
	s5.315,1.448,4.349,2.416c-0.966,0.966-8.166,1.689-10.629,4.154C-40.922,123.362-45.319,125.054-45.319,125.054z"/>
<ellipse fill="#FFFFFF" cx="-39.751" cy="128.436" rx="5.17" ry="6.958"/>
<path opacity="0.6" enable-background="new    " d="M-44.809,129.941c0,0,1.02,5.45,5.033,5.45c4.013,0,5.082-5.45,5.082-5.45
	s-2.055,4.573-5.082,4.573C-42.804,134.515-44.809,129.941-44.809,129.941z"/>
<path opacity="0.1" fill="#FFFFFF" enable-background="new    " d="M-44.809,129.941c0,0,0.366,6.308,5.058,6.308
	c4.692,0,5.058-6.308,5.058-6.308s-1.08,5.45-5.082,5.45S-44.809,129.941-44.809,129.941z"/>
<ellipse fill="#C32127" cx="-39.751" cy="128.457" rx="2.527" ry="4.596"/>
<path fill="#C32127" d="M-44.523,126c0,0,1.083-4.277,4.771-4.277S-34.979,126-34.979,126s-1.188-2.688-4.7-2.688
	S-44.523,126-44.523,126z"/>
<circle fill="#FFFFFF" cx="-39.751" cy="128.436" r="0.528"/>
<g>
	<polygon fill="#ED4798" points="22.327,177.887 19.524,173.029 22.327,168.171 27.936,168.171 30.743,173.029 27.936,177.887 	"/>
	<polygon opacity="0.03" enable-background="new    " points="22.327,168.171 27.936,177.887 22.327,177.887 19.524,173.029 	"/>
</g>
<g>
	<polygon fill="#ED4798" points="54.969,177.887 57.638,173.262 54.969,168.637 49.628,168.637 46.956,173.262 49.628,177.887 	"/>
	<polygon opacity="0.03" enable-background="new    " points="54.969,168.637 49.628,177.887 54.969,177.887 57.638,173.262 	"/>
</g>
<g>
	<polygon fill="#ED4798" points="5.962,155.17 3.38,150.699 5.962,146.229 11.125,146.229 13.706,150.699 11.125,155.17 	"/>
	<polygon opacity="0.05" enable-background="new    " points="5.962,155.17 3.38,150.699 5.962,146.229 11.125,146.229 
		13.706,150.699 11.125,155.17 	"/>
</g>
<g>
	<polygon fill="#ED4798" points="66.812,155.17 64.231,150.699 66.812,146.229 71.976,146.229 74.557,150.699 71.976,155.17 	"/>
	<polygon opacity="0.05" enable-background="new    " points="66.812,155.17 64.231,150.699 66.812,146.229 71.976,146.229 
		74.557,150.699 71.976,155.17 	"/>
</g>
<polygon fill="#ED4798" points="19.454,169.652 0,135.956 19.454,102.262 58.361,102.262 77.816,135.956 58.361,169.652 "/>
<polygon opacity="0.02" fill="#FFFFFF" enable-background="new    " points="19.454,102.262 58.361,169.652 19.454,169.652 
	0,135.956 "/>
<polygon opacity="0.03" enable-background="new    " points="38.336,134.968 19.454,169.652 58.361,169.652 "/>
<polygon opacity="0.03" enable-background="new    " points="38.336,134.968 58.361,102.262 19.454,102.262 "/>
<ellipse transform="matrix(-0.012 -0.9999 0.9999 -0.012 -94.9684 154.0418)" fill="#FFFFFF" cx="28.616" cy="123.938" rx="7.84" ry="7.708"/>
<ellipse transform="matrix(-0.0121 -0.9999 0.9999 -0.0121 -75.0412 171.2155)" fill="#FFFFFF" cx="47.054" cy="122.676" rx="7.842" ry="7.708"/>
<path fill="#4A3E4D" d="M24.733,112.984c0,0,3.687-5.775,7.087-2.457"/>
<path fill="#4A3E4D" d="M50.281,111.621c0,0-4.545-5.482-7.67-2.281"/>
<path fill="#E10686" d="M33.14,119.815c-0.15-0.047-0.291-0.083-0.426-0.11c-1.07-0.227-1.681,0.128-2.417,0.706
	c-0.439-0.824-0.857-1.396-1.928-1.619c-0.135-0.028-0.278-0.051-0.434-0.069c-0.947-0.104-2.196,0.521-2.667,2.119l-0.114,0.541
	c-0.205,1.581,0.567,3.748,3.494,6.878c3.939-1.688,5.518-3.361,5.966-4.891l0.113-0.543C34.942,121.174,34.049,120.1,33.14,119.815
	z"/>
<path fill="#E10686" d="M47.021,117.926c-0.152,0.04-0.292,0.082-0.419,0.126c-1.031,0.369-1.368,0.989-1.694,1.867
	c-0.806-0.474-1.459-0.741-2.488-0.374c-0.131,0.046-0.264,0.103-0.406,0.167c-0.861,0.406-1.602,1.59-1.167,3.2l0.184,0.521
	c0.654,1.454,2.442,2.898,6.573,4.039c2.479-3.498,2.95-5.75,2.531-7.287l-0.185-0.521
	C49.266,118.143,47.945,117.695,47.021,117.926z"/>
<path opacity="0.2" fill="#FFFFFF" enable-background="new    " d="M21.104,125.67c0,0,1.234,6.111,7.613,6.111
	c6.378,0,7.421-6.111,7.421-6.111s-3.673,4.321-7.517,4.321S21.104,125.67,21.104,125.67z"/>
<path fill="#4A3E4D" d="M21.017,122.438c0,0,0.932-6.484,7.275-6.484c6.346,0,7.878,6.01,7.878,6.01s-2.416-5.143-7.878-5.143
	C22.832,116.82,21.017,122.438,21.017,122.438z"/>
<path fill="#4A3E4D" d="M39.346,121.938c0,0,0.719-7.097,7.708-7.097s7.708,7.097,7.708,7.097s-2.542-6.307-7.708-6.307
	S39.346,121.938,39.346,121.938z"/>
<g>
	<path fill="#ED4798" d="M18.41,129.609c0,0,3.707-0.172,10.004,0.479c6.296,0.648,7.634,2.607,7.634,2.607l-7.917,0.144
		L18.41,129.609z"/>
	<path fill="#ED4798" d="M58.079,126.909c0,0-3.689,0.394-9.813,1.993c-6.125,1.602-7.148,3.739-7.148,3.739l7.847-1.062
		L58.079,126.909z"/>
</g>
<path fill="#FFFFFF" d="M29.247,120.406c0,0-0.336-1.211-1.627-1.211c-1.29,0-1.786,1.94-1.786,1.94s0.374-0.97,1.706-0.97
	C28.874,120.166,29.247,120.406,29.247,120.406z"/>
<path fill="#FFFFFF" d="M48.907,119.599c0,0-0.335-1.21-1.625-1.21c-1.291,0-1.788,1.941-1.788,1.941s0.373-0.972,1.706-0.972
	C48.534,119.359,48.907,119.599,48.907,119.599z"/>
<g>
	<path fill="none" stroke="#4A3E4D" stroke-width="0.5" stroke-miterlimit="10" d="M16.816,130.438c0,0,2.045,13.527,21.556,13.527
		c19.512,0,19.634-13.527,19.634-13.527"/>
	<path fill="none" stroke="#4A3E4D" stroke-width="0.5" stroke-miterlimit="10" d="M13.402,132.997c0,0,3.82-3.575,5.932-3.575"/>
	<path fill="none" stroke="#4A3E4D" stroke-width="0.5" stroke-miterlimit="10" d="M61.581,132.428c0,0-3.17-2.519-6.014-2.519"/>
</g>
<path opacity="0.1" fill="#4A3E4D" enable-background="new    " d="M27.229,143.884c0,0,6.294,2.274,11.184,2.274
	c4.889,0,10.169-2.274,10.169-2.274s-5.701,5.441-10.081,4.792C34.12,148.027,27.229,143.884,27.229,143.884z"/>
<path opacity="0.2" fill="#FFFFFF" enable-background="new    " d="M24.188,140.979c0,0,5.842,3.353,14.224,3.353
	s13.318-3.353,13.318-3.353s-6.539,4.938-13.229,4.938C31.811,145.915,24.188,140.979,24.188,140.979z"/>
<g>
	<polygon fill="#F8ED40" points="-32.857,77.373 -30.054,72.516 -32.857,67.658 -38.466,67.658 -41.272,72.516 -38.466,77.373 	"/>
	<polygon opacity="0.04" enable-background="new    " points="-32.857,67.658 -38.466,77.373 -32.857,77.373 -30.054,72.516 	"/>
</g>
<g>
	<polygon fill="#F8ED40" points="-64.208,77.373 -67.011,72.516 -64.208,67.658 -58.598,67.658 -55.792,72.516 -58.598,77.373 	"/>
	<polygon opacity="0.04" enable-background="new    " points="-64.208,67.658 -58.598,77.373 -64.208,77.373 -67.011,72.516 	"/>
</g>
<polygon fill="#F8ED40" points="-81.206,55.291 -83.788,50.819 -81.206,46.349 -76.043,46.349 -73.462,50.819 -76.043,55.291 "/>
<polygon fill="#F8ED40" points="-21.26,55.593 -23.842,51.121 -21.26,46.65 -16.097,46.65 -13.516,51.121 -16.097,55.593 "/>
<polygon opacity="0.05" enable-background="new    " points="-81.206,55.291 -83.788,50.819 -81.206,46.349 -76.043,46.349 
	-73.462,50.819 -76.043,55.291 "/>
<polygon opacity="0.05" enable-background="new    " points="-21.26,55.592 -23.842,51.121 -21.26,46.65 -16.097,46.65 
	-13.516,51.121 -16.097,55.592 "/>
<polygon fill="#F8ED40" points="-67.986,69.561 -87.44,35.865 -67.986,2.171 -29.079,2.171 -9.624,35.865 -29.079,69.561 "/>
<polygon opacity="0.02" fill="#020202" enable-background="new    " points="-67.986,2.171 -48.532,35.318 -29.079,2.171 "/>
<polygon opacity="0.03" fill="#020202" enable-background="new    " points="-48.532,35.318 -67.986,69.561 -29.079,69.561 "/>
<polygon opacity="0.02" fill="#020202" enable-background="new    " points="-67.986,2.171 -48.532,35.318 -67.986,69.561 
	-87.44,35.865 "/>
<path opacity="0.4" fill="none" stroke="#000000" stroke-miterlimit="10" enable-background="new    " d="M-26.722,23.36
	c0,0,4.345,2.921,4.345,5.146"/>
<g>
	<ellipse fill="#FFFFFF" cx="-57.146" cy="20.44" rx="7.438" ry="8.669"/>
	<ellipse fill="#FFFFFF" cx="-40.611" cy="20.44" rx="7.438" ry="8.669"/>
	<path opacity="0.1" enable-background="new    " d="M-61.71,10.098c0,0,3.688-5.775,7.086-2.457"/>
	<path opacity="0.1" enable-background="new    " d="M-36.163,8.734c0,0-4.545-5.481-7.67-2.28"/>
	<path fill="#575757" d="M-64.723,18.257c0,0,0.931-6.486,7.274-6.486c6.346,0,7.88,6.012,7.88,6.012s-2.416-5.144-7.88-5.144
		C-62.909,12.639-64.723,18.257-64.723,18.257z"/>
	<path fill="#575757" d="M-48.189,18.257c0,0,0.932-6.486,7.275-6.486c6.346,0,7.878,6.012,7.878,6.012s-2.416-5.144-7.878-5.144
		C-46.374,12.639-48.189,18.257-48.189,18.257z"/>
	<ellipse fill="#F6EB0F" cx="-57.609" cy="22.819" rx="6.031" ry="6.485"/>
	<ellipse fill="#F6EB0F" cx="-40.008" cy="22.819" rx="6.032" ry="6.485"/>
	<circle fill="#575757" cx="-57.449" cy="21.602" r="3.87"/>
	<circle fill="#575757" cx="-40.612" cy="21.602" r="3.835"/>
	<ellipse fill="#FFFFFF" cx="-59.776" cy="19.349" rx="0.754" ry="1.092"/>
	<ellipse fill="#FFFFFF" cx="-38.067" cy="18.858" rx="0.754" ry="1.091"/>
	<path opacity="0.4" fill="none" stroke="#000000" stroke-miterlimit="10" enable-background="new    " d="M-70.532,25.245
		c0,0,10.271,18.452,22.753,18.452c12.479,0,23.229-18.452,23.229-18.452"/>
	<path opacity="0.4" fill="none" stroke="#000000" stroke-miterlimit="10" enable-background="new    " d="M-68.019,23.36
		c0,0-4.347,2.921-4.347,5.146"/>
	<path fill="#FBED27" d="M-44.241,28.007c0,0,11.069-2.023,11.069-5.868s2.197,4.807,1.136,5.868c-1.061,1.061-5.05,3.78-6.783,3.78
		C-40.554,31.787-44.241,28.007-44.241,28.007z"/>
	<path fill="#EEE835" d="M-53.359,27.979c0,0-11.069-2.021-11.069-5.868c0-3.844-2.197,4.809-1.136,5.868
		c1.062,1.062,5.051,3.781,6.785,3.781C-57.046,31.761-53.359,27.979-53.359,27.979z"/>
</g>
<g>
	<polygon fill="#F7961D" points="22.093,280.317 19.29,275.459 22.093,270.602 27.703,270.602 30.508,275.459 27.703,280.317 	"/>
	<polygon opacity="0.03" enable-background="new    " points="22.093,270.602 27.703,280.317 22.093,280.317 19.29,275.459 	"/>
</g>
<g>
	<polygon fill="#F7961D" points="55.734,280.317 58.404,275.692 55.734,271.066 50.394,271.066 47.722,275.692 50.394,280.317 	"/>
	<polygon opacity="0.03" enable-background="new    " points="55.734,271.066 50.394,280.317 55.734,280.317 58.404,275.692 	"/>
</g>
<g>
	<polygon fill="#F7961D" points="64.383,262.117 61.802,257.646 64.383,253.176 69.547,253.176 72.128,257.646 69.547,262.117 	"/>
	<polygon opacity="0.05" enable-background="new    " points="64.383,262.117 61.802,257.646 64.383,253.176 69.547,253.176 
		72.128,257.646 69.547,262.117 	"/>
</g>
<g>
	<polygon fill="#F7961D" points="8.056,261.815 5.474,257.345 8.056,252.874 13.218,252.874 15.8,257.345 13.218,261.815 	"/>
	<polygon opacity="0.05" enable-background="new    " points="8.056,261.815 5.474,257.345 8.056,252.874 13.218,252.874 
		15.8,257.345 13.218,261.815 	"/>
</g>
<polygon fill="#F7961D" points="19.454,272.475 0,238.779 19.454,205.083 58.361,205.083 77.816,238.779 58.361,272.475 "/>
<polygon opacity="0.02" fill="#FFFFFF" enable-background="new    " points="19.454,205.083 58.361,272.475 19.454,272.475 
	0,238.779 "/>
<polygon opacity="0.03" enable-background="new    " points="38.336,237.79 19.454,272.475 58.361,272.475 "/>
<polygon opacity="0.03" enable-background="new    " points="38.336,237.79 58.361,205.083 19.454,205.083 "/>
<g>
	<path fill="none" stroke="#000000" stroke-miterlimit="10" d="M48.158,252.965c0,0,7.824,1.492,7.824-8.304"/>
	<path d="M17.479,214.38c0,0,2.412-5.427,5.578-5.427"/>
	<path d="M59.215,214.38c0,0-2.411-5.427-5.579-5.427"/>
	<g>
		<circle fill="#FFFFFF" cx="22.713" cy="223.535" r="7.713"/>
		<g>
			<ellipse fill="#F5841F" cx="22.934" cy="222.224" rx="4.44" ry="4.774"/>
			<circle fill="#575757" cx="23.052" cy="221.326" r="2.849"/>
			<ellipse fill="#FFFFFF" cx="21.339" cy="219.668" rx="0.556" ry="0.804"/>
		</g>
		<path fill="#575757" d="M14.479,222.956c0,0,1.023-8.24,7.996-8.24s8.658,7.636,8.658,7.636s-2.654-6.533-8.658-6.533
			C16.473,215.818,14.479,222.956,14.479,222.956z"/>
	</g>
	<g>
		<circle fill="#FFFFFF" cx="55.815" cy="223.233" r="7.713"/>
		<g>
			<ellipse fill="#F5841F" cx="56.748" cy="221.922" rx="4.441" ry="4.774"/>
			<circle fill="#575757" cx="56.865" cy="221.024" r="2.849"/>
			<ellipse fill="#FFFFFF" cx="55.152" cy="219.367" rx="0.555" ry="0.803"/>
		</g>
		<path fill="#575757" d="M64.143,223.222c0,0-1.023-8.241-7.996-8.241c-6.974,0-8.658,7.638-8.658,7.638s2.655-6.533,8.658-6.533
			C62.148,216.084,64.143,223.222,64.143,223.222z"/>
	</g>
	<g>
		<path d="M7.282,220.371l-1.415,2.119c0,0,3.537,3.715,3.537,7.073c0,3.359,4.243,11.668,12.021,11.668
			c7.778,0,13.613-2.653,14.144-7.779s2.121-5.657,2.121-5.657h3.183c0,0,2.298,3.183,2.298,5.657c0,2.477,4.42,10.609,14.322,7.779
			c9.9-2.828,11.844-6.542,11.844-11.313c0-4.775,2.121-5.659,3.184-7.249c1.06-1.592,0-2.298,0-2.298H52.717
			c0,0-7.776,3.535-9.016,3.535c-1.238,0-7.07,0-7.07,0s-6.014-3.535-9.017-3.535C24.608,220.371,7.282,220.371,7.282,220.371z"/>
		<path fill="#FFFFFF" d="M16.139,224.649c0,0-5.742,3.326-2.62,6.448c3.121,3.121-1.452-0.125,0.845-2.422
			C16.662,226.378,16.139,224.649,16.139,224.649z"/>
		<path fill="#FFFFFF" d="M47.723,234.223c0,0,0.604,4.131,3.021,4.131c2.417,0,4.231,0,4.231,0s-2.191,0.174-3.627-1.262
			S47.723,234.223,47.723,234.223z"/>
		<path fill="#FFFFFF" d="M32.459,233.691c0,0-0.604,4.129-3.021,4.129c-2.418,0-4.232,0-4.232,0s2.192,0.177,3.627-1.26
			C30.268,235.125,32.459,233.691,32.459,233.691z"/>
		<path fill="#FFFFFF" d="M56.941,224.649c0,0,9.639-0.179,9.817,0c0.179,0.181,1.655,2.699,0,3.868
			c-1.656,1.169-1.053-1.975-3.17-1.975C61.474,226.543,56.941,224.649,56.941,224.649z"/>
	</g>
</g>
<polygon fill="#426EB5" points="-64.947,384.444 -67.75,379.586 -64.947,374.729 -59.338,374.729 -56.531,379.586 -59.338,384.444 
	"/>
<polygon opacity="0.03" enable-background="new    " points="-64.947,374.729 -59.338,384.444 -64.947,384.444 -67.75,379.586 "/>
<polygon fill="#426EB5" points="-32.305,384.444 -29.636,379.82 -32.305,375.195 -37.646,375.195 -40.318,379.82 -37.646,384.444 
	"/>
<polygon opacity="0.03" enable-background="new    " points="-32.305,375.195 -37.646,384.444 -32.305,384.444 -29.636,379.82 "/>
<polygon fill="#426EB5" points="-80.946,364.158 -83.527,359.688 -80.946,355.217 -75.783,355.217 -73.202,359.688 -75.783,364.158 
	"/>
<polygon fill="#426EB5" points="-21.603,364.46 -24.184,359.99 -21.603,355.519 -16.44,355.519 -13.858,359.99 -16.44,364.46 "/>
<polygon opacity="0.05" enable-background="new    " points="-21.603,364.46 -24.184,359.99 -21.603,355.519 -16.44,355.519 
	-13.858,359.99 -16.44,364.46 "/>
<polygon opacity="0.05" enable-background="new    " points="-80.946,364.158 -83.527,359.688 -80.946,355.217 -75.783,355.217 
	-73.202,359.688 -75.783,364.158 "/>
<polygon fill="#426EB5" points="-67.986,377.181 -87.44,343.486 -67.986,309.79 -29.079,309.79 -9.624,343.486 -29.079,377.181 "/>
<polygon opacity="0.02" fill="#FFFFFF" enable-background="new    " points="-67.986,309.79 -29.079,377.181 -67.986,377.181 
	-87.44,343.486 "/>
<polygon opacity="0.03" enable-background="new    " points="-49.104,342.497 -67.986,377.181 -29.079,377.181 "/>
<polygon opacity="0.03" enable-background="new    " points="-49.104,342.497 -29.079,309.79 -67.986,309.79 "/>
<circle fill="#FFFFFF" cx="-35.339" cy="339.02" r="0.835"/>
<path fill="#575757" d="M-29.46,331.247c0,0-0.661,5.285-6.276,5.285c-5.616,0-7.763-5.285-7.763-5.285s3.799,2.642,7.433,2.642
	C-32.434,333.889-29.46,331.247-29.46,331.247z"/>
<ellipse fill="#FFFFFF" stroke="#000000" stroke-miterlimit="10" cx="-59.934" cy="336.076" rx="6.716" ry="10.03"/>
<ellipse fill="#FFFFFF" stroke="#000000" stroke-miterlimit="10" cx="-38.478" cy="335.029" rx="6.716" ry="10.03"/>
<path fill="#5295CF" d="M-59.241,334.265c0,0-3.115,0.251-3.115,1.81c0,1.558,0.2,1.056,1.256,0
	C-60.045,335.018-59.241,334.265-59.241,334.265z"/>
<path fill="#5295CF" d="M-36.175,334.265c0,0-3.115,0.251-3.115,1.81c0,1.558,0.201,1.056,1.256,0
	C-36.979,335.018-36.175,334.265-36.175,334.265z"/>
<path fill="#426EB5" d="M-52.506,323.41c0,0-14.542,16.224-19.146,11.619c-4.604-4.604,3.506-4.499,7.989-8.983
	c4.484-4.484,5.428-5.802,9.046-5.802S-51.3,324.178-51.3,325S-52.506,323.41-52.506,323.41z"/>
<path fill="#426EB5" d="M-45.827,323.41c0,0,14.542,16.224,19.146,11.619c4.604-4.604-3.506-4.499-7.99-8.983
	c-4.483-4.484-5.427-5.802-9.046-5.802c-3.618,0-3.316,3.934-3.316,4.756S-45.827,323.41-45.827,323.41z"/>
<path fill="#426EB5" d="M-72.161,342.852c0,0,4.136-0.189,11.159,0.534c7.023,0.726,8.516,2.909,8.516,2.909l-8.831,0.159
	L-72.161,342.852z"/>
<path fill="#426EB5" d="M-25.102,339.854c0,0-4.019,0.431-10.684,2.172c-6.668,1.741-7.78,4.069-7.78,4.069l8.542-1.157
	L-25.102,339.854z"/>
<path opacity="0.5" enable-background="new    " d="M-59.375,362.518c0,0,5.404-13.719,10.537-13.719s8.51,10.101,8.51,10.101
	s-2.836-7.99-8.375-7.99C-54.242,350.908-59.375,362.518-59.375,362.518z"/>
<circle fill="#5295CF" cx="-58.406" cy="339.02" r="0.835"/>
<circle fill="#5295CF" cx="-36.175" cy="338.184" r="0.835"/>
<path opacity="0.5" enable-background="new    " d="M-51.294,355.658c0,0,2.729,2.541,5.271,0c2.541-2.541-1.322,1.312-2.636,0
	C-49.972,354.345-51.294,355.658-51.294,355.658z"/>
<path opacity="0.5" enable-background="new    " d="M-52.506,323.41c0,0-10.804,12.253-16.834,12.253s3.055-0.765,8.417-6.126
	C-55.561,324.174-52.506,323.41-52.506,323.41z"/>
<path opacity="0.5" enable-background="new    " d="M-45.789,323.41c0,0,10.805,12.253,16.835,12.253s-3.055-0.765-8.418-6.126
	C-42.735,324.174-45.789,323.41-45.789,323.41z"/>
<path opacity="0.1" enable-background="new    " d="M-67.973,342.007c0,0-5.562,10.568,0,10.568
	C-62.412,352.575-67.973,342.007-67.973,342.007z"/>
<path fill="#FFFFFF" d="M-67.973,343.906c0,0-2.65,6.396,0,6.396C-65.323,350.304-67.973,343.906-67.973,343.906z"/>
<g>
	<polygon fill="#06B052" points="22.655,384.677 19.851,379.819 22.655,374.961 28.264,374.961 31.07,379.819 28.264,384.677 	"/>
	<polygon opacity="0.03" enable-background="new    " points="22.655,374.961 28.264,384.677 22.655,384.677 19.851,379.819 	"/>
</g>
<g>
	<polygon fill="#06B052" points="55.296,384.677 57.965,380.052 55.296,375.427 49.956,375.427 47.284,380.052 49.956,384.677 	"/>
	<polygon opacity="0.03" enable-background="new    " points="55.296,375.427 49.956,384.677 55.296,384.677 57.965,380.052 	"/>
</g>
<polygon fill="#06B052" points="65.596,364.611 63.015,360.14 65.596,355.669 70.759,355.669 73.341,360.14 70.759,364.611 "/>
<polygon fill="#06B052" points="6.655,364.31 4.073,359.838 6.655,355.367 11.817,355.367 14.399,359.838 11.817,364.31 "/>
<polygon opacity="0.05" enable-background="new    " points="6.655,364.31 4.073,359.838 6.655,355.367 11.817,355.367 
	14.399,359.838 11.817,364.31 "/>
<polygon opacity="0.05" enable-background="new    " points="65.596,364.611 63.015,360.14 65.596,355.669 70.759,355.669 
	73.341,360.14 70.759,364.611 "/>
<polygon fill="#06B052" points="19.454,377.181 0,343.486 19.454,309.79 58.361,309.79 77.816,343.486 58.361,377.181 "/>
<polygon opacity="0.02" fill="#FFFFFF" enable-background="new    " points="19.454,309.79 58.361,377.181 19.454,377.181 
	0,343.486 "/>
<polygon opacity="0.03" enable-background="new    " points="38.336,342.497 19.454,377.181 58.361,377.181 "/>
<polygon opacity="0.03" enable-background="new    " points="38.336,342.497 58.361,309.79 19.454,309.79 "/>
<path fill="#575757" d="M18.971,317.25c0,0,10.828,0.21,10.828-3.188"/>
<path fill="#575757" d="M57.338,317.25c0,0-10.828,0.21-10.828-3.188"/>
<g>
	<ellipse fill="#FFFFFF" cx="29.055" cy="328.814" rx="5.356" ry="8.132"/>
	<circle fill="#575757" cx="29.589" cy="329.735" r="3.456"/>
</g>
<g>
	<ellipse fill="#FFFFFF" cx="47.563" cy="328.814" rx="5.356" ry="8.132"/>
	<circle fill="#575757" cx="47.563" cy="329.735" r="3.457"/>
</g>
<path fill="#0EA94B" d="M22.964,333.565c0,0,7.984,3.346,10.715,0.616c2.729-2.729-2.813,4.073-5.899,4.073
	C24.693,338.255,22.964,333.565,22.964,333.565z"/>
<path fill="#0EA94B" d="M52.996,333.629c0,0-7.982,3.346-10.713,0.617c-2.729-2.73,2.813,4.073,5.899,4.073
	S52.996,333.629,52.996,333.629z"/>
<g>
	<ellipse opacity="0.1" enable-background="new    " cx="38.5" cy="361.231" rx="6.629" ry="12.799"/>
	<path fill="#FFFFFF" d="M33.678,368.403c0,0,1.847,4.483,4.82,4.483c2.975,0,4.34-4.483,4.34-4.483H33.678z"/>
</g>
<path fill="#FFFFFF" d="M58.513,329.865c0,0-2.643,6.376,0,6.376C61.152,336.24,58.513,329.865,58.513,329.865z"/>
<path fill="#FFFFFF" d="M18.971,321.725c0,0-2.643,6.376,0,6.376C21.611,328.101,18.971,321.725,18.971,321.725z"/>
<circle fill="#FFFFFF" cx="29.589" cy="329.735" r="0.835"/>
<circle fill="#FFFFFF" cx="47.564" cy="329.735" r="0.835"/>
<g>
	<polygon fill="#F3BCD1" points="55.022,76.643 57.825,71.783 55.022,66.927 49.413,66.927 46.607,71.783 49.413,76.643 	"/>
	<polygon opacity="0.04" enable-background="new    " points="55.022,66.927 49.413,76.643 55.022,76.643 57.825,71.783 	"/>
	<polygon fill="#F3BCD1" points="23.672,76.643 20.868,71.783 23.672,66.927 29.281,66.927 32.087,71.783 29.281,76.643 	"/>
	<polygon opacity="0.04" enable-background="new    " points="23.672,66.927 29.281,76.643 23.672,76.643 20.868,71.783 	"/>
	<polygon fill="#F3BCD1" points="6.806,56.689 4.225,52.219 6.806,47.748 11.969,47.748 14.55,52.219 11.969,56.689 	"/>
	<polygon fill="#F3BCD1" points="65.546,57.213 62.964,52.741 65.546,48.271 70.709,48.271 73.291,52.741 70.709,57.213 	"/>
	<polygon fill="#F3BCD1" points="19.454,69.561 0,35.865 19.454,2.171 58.361,2.171 77.816,35.865 58.361,69.561 	"/>
	<polygon opacity="0.02" fill="#FFFFFF" enable-background="new    " points="19.454,2.171 58.361,69.561 19.454,69.561 0,35.865 	
		"/>
	<polygon opacity="0.01" enable-background="new    " points="38.336,34.877 19.454,69.561 58.361,69.561 	"/>
	<polygon opacity="0.02" enable-background="new    " points="38.336,34.877 58.361,2.171 19.454,2.171 	"/>
	<g>
		<path fill="#575757" d="M20.315,10.823c0,0,2.622-5.303,11.318-5.303"/>
		<path fill="#575757" d="M53.371,10.14c0,0-2.622-5.302-11.32-5.302"/>
		<circle opacity="0.3" fill="#D71E40" enable-background="new    " cx="18.102" cy="39.161" r="11.96"/>
		<circle opacity="0.3" fill="#D71E40" enable-background="new    " cx="19.761" cy="36.578" r="10.127"/>
		<circle opacity="0.3" fill="#D71E40" enable-background="new    " cx="56.041" cy="36.578" r="10.127"/>
		<circle opacity="0.3" fill="#D71E40" enable-background="new    " cx="57.39" cy="39.161" r="11.96"/>
		<circle fill="#FFFFFF" cx="50.857" cy="28.733" r="9.792"/>
		<path fill="#575757" d="M41.095,27.657c0,0,1.271-8.718,9.792-8.718s9.732,8.718,9.732,8.718s-2.624-7.881-9.732-7.881
			C43.778,19.777,41.095,27.657,41.095,27.657z"/>
		<circle fill="#575757" cx="50.857" cy="28.733" r="1.884"/>
		<path opacity="0.1" fill="#FFFFFF" enable-background="new    " d="M41.392,34.545c0,0,5.026,5.743,9.763,5.743
			c4.737,0,9.167-5.743,9.167-5.743s-3.401,7.22-9.167,7.22S41.392,34.545,41.392,34.545z"/>
		<path opacity="0.4" fill="#FFFFFF" enable-background="new    " d="M49.52,28.976c0,0,0.128,1.328,1.396,1.328
			c1.27,0,1.277-1.328,1.277-1.328s-0.363,0.664-1.337,0.664C49.884,29.64,49.52,28.976,49.52,28.976z"/>
		<circle fill="#FFFFFF" cx="25.4" cy="28.733" r="9.792"/>
		<path fill="#575757" d="M15.608,27.657c0,0,1.271-8.718,9.792-8.718c8.519,0,9.731,8.718,9.731,8.718s-2.624-7.881-9.731-7.881
			C18.292,19.777,15.608,27.657,15.608,27.657z"/>
		<circle fill="#575757" cx="25.757" cy="28.733" r="1.719"/>
		<path opacity="0.1" fill="#FFFFFF" enable-background="new    " d="M15.608,34.545c0,0,5.024,5.743,9.762,5.743
			c4.736,0,9.167-5.743,9.167-5.743s-3.402,7.22-9.167,7.22C19.604,41.765,15.608,34.545,15.608,34.545z"/>
		<path opacity="0.4" fill="#FFFFFF" enable-background="new    " d="M24.482,28.733c0,0,0.117,1.212,1.274,1.212
			c1.158,0,1.166-1.212,1.166-1.212s-0.333,0.605-1.22,0.605C24.814,29.339,24.482,28.733,24.482,28.733z"/>
		<path opacity="0.4" enable-background="new    " d="M42.956,55.137c0,0.549-0.444,0.993-0.994,0.993h-7.479
			c-0.549,0-0.993-0.444-0.993-0.993l0,0c0-0.549,0.444-0.993,0.993-0.993h7.479C42.511,54.144,42.956,54.588,42.956,55.137
			L42.956,55.137z"/>
	</g>
	<polygon opacity="0.05" enable-background="new    " points="6.72,47.748 4.225,52.219 6.806,56.689 12.022,56.689 	"/>
	<polygon opacity="0.05" enable-background="new    " points="70.679,48.226 73.291,52.741 70.709,57.213 65.49,57.213 	"/>
</g>
</svg>
