<?xml version="1.0" encoding="utf-8"?>
<!-- Generator: Adobe Illustrator 16.0.4, SVG Export Plug-In . SVG Version: 6.00 Build 0)  -->
<!DOCTYPE svg PUBLIC "-//W3C//DTD SVG 1.1//EN" "http://www.w3.org/Graphics/SVG/1.1/DTD/svg11.dtd">
<svg version="1.1" id="Layer_1" xmlns="http://www.w3.org/2000/svg" xmlns:xlink="http://www.w3.org/1999/xlink" x="0px" y="0px"
	 width="40px" height="40px" viewBox="0 0 40 40" enable-background="new 0 0 40 40" xml:space="preserve">
<g>
	<path fill="#D6D6D6" d="M35.5,20.421v-0.816c0-1.199-0.393-1.631-1.632-1.631H6.131c-1.248,0-1.631,0.424-1.631,1.631v0.816
		c0,1.266,0.424,1.633,1.631,1.633h27.737C35.092,22.054,35.5,21.661,35.5,20.421z"/>
</g>
<g>
	<path fill="#D6D6D6" d="M35.5,29.394v-0.814c0-1.2-0.393-1.632-1.632-1.632H6.131c-1.248,0-1.631,0.424-1.631,1.632v0.814
		c0,1.266,0.424,1.633,1.631,1.633h27.737C35.092,31.026,35.5,30.634,35.5,29.394z"/>
</g>
<g display="none">
	<g display="inline" opacity="0.75">
		<path d="M35.625,11.51v-0.816c0-1.199-0.393-1.631-1.632-1.631H6.256c-1.248,0-1.631,0.424-1.631,1.631v0.816
			c0,1.265,0.424,1.632,1.631,1.632h27.737C35.217,13.142,35.625,12.75,35.625,11.51z"/>
	</g>
	<g display="inline" opacity="0.75">
		<path d="M35.625,20.483v-0.815c0-1.2-0.393-1.632-1.632-1.632H6.256c-1.248,0-1.631,0.424-1.631,1.632v0.815
			c0,1.265,0.424,1.632,1.631,1.632h27.737C35.217,22.115,35.625,21.723,35.625,20.483z"/>
	</g>
	<g display="inline" opacity="0.75">
		<path d="M35.625,29.457v-0.814c0-1.201-0.393-1.633-1.632-1.633H6.256c-1.248,0-1.631,0.424-1.631,1.633v0.814
			c0,1.266,0.424,1.632,1.631,1.632h27.737C35.217,31.089,35.625,30.697,35.625,29.457z"/>
	</g>
</g>
<g>
	<path fill="#D6D6D6" d="M35.5,38.368v-0.814c0-1.201-0.393-1.633-1.632-1.633H6.131c-1.248,0-1.631,0.424-1.631,1.633v0.814
		C4.5,39.634,4.924,40,6.131,40h27.737C35.092,40,35.5,39.608,35.5,38.368z"/>
</g>
</svg>
