<?xml version="1.0" encoding="utf-8"?>
<!-- Generator: Adobe Illustrator 16.0.4, SVG Export Plug-In . SVG Version: 6.00 Build 0)  -->
<!DOCTYPE svg PUBLIC "-//W3C//DTD SVG 1.1//EN" "http://www.w3.org/Graphics/SVG/1.1/DTD/svg11.dtd">
<svg version="1.1" id="Layer_1" xmlns="http://www.w3.org/2000/svg" xmlns:xlink="http://www.w3.org/1999/xlink" x="0px" y="0px"
	 width="640px" height="1136px" viewBox="0 0 640 1136" enable-background="new 0 0 640 1136" xml:space="preserve">
<g display="none">
	<g display="inline" opacity="0.4">
		<rect x="46" y="908.328" opacity="0.4" fill="#FFFFFF" width="45" height="225.672"/>
		<rect x="1" y="868.336" opacity="0.4" fill="#FFFFFF" width="45" height="265.664"/>
		<rect x="91" y="877" opacity="0.4" fill="#FFFFFF" width="45" height="257"/>
		<rect x="316" y="929.669" opacity="0.4" fill="#FFFFFF" width="45" height="204.331"/>
		<rect x="361" y="905.003" opacity="0.4" fill="#FFFFFF" width="45" height="228.997"/>
		<rect x="406" y="835.004" opacity="0.4" fill="#FFFFFF" width="45" height="296.329"/>
		<rect x="181" y="984.336" opacity="0.4" fill="#FFFFFF" width="45" height="149.664"/>
		<rect x="451" y="1021.164" opacity="0.4" fill="#FFFFFF" width="45" height="112.836"/>
		<rect x="541" y="877" opacity="0.3" fill="#FFFFFF" width="45" height="257"/>
		<rect x="586" y="798" opacity="0.3" fill="#FFFFFF" width="45" height="336"/>
		<rect x="631" y="913" opacity="0.3" fill="#FFFFFF" width="45" height="221"/>
	</g>
	<g display="inline" opacity="0.4">
		<rect x="46" y="832.265" opacity="0.5" fill="#FFFFFF" width="45" height="302.015"/>
		<rect x="91" y="765.672" opacity="0.5" fill="#FFFFFF" width="45" height="368.607"/>
		<rect x="451" y="765.672" opacity="0.3" fill="#FFFFFF" width="45" height="368.607"/>
		<rect x="163" y="803.189" opacity="0.4" fill="#FFFFFF" width="63" height="335.311"/>
		<rect x="226" y="912.928" opacity="0.4" fill="#FFFFFF" width="45" height="221.117"/>
		<rect x="136" y="832.265" opacity="0.5" fill="#FFFFFF" width="13" height="302.015"/>
		<rect x="149" y="859.465" opacity="0.5" fill="#FFFFFF" width="14" height="274.814"/>
		<rect x="496" y="861.967" opacity="0.3" fill="#FFFFFF" width="22.5" height="272.312"/>
		<rect x="518.5" y="912.928" opacity="0.3" fill="#FFFFFF" width="22.5" height="221.352"/>
	</g>
	<g display="inline">
		<g>
			<rect x="1" y="925.651" opacity="0.3" fill="#FFFFFF" width="45" height="208.349"/>
			<rect x="46" y="1009.363" opacity="0.3" fill="#FFFFFF" width="45" height="124.637"/>
			<rect x="91" y="968.741" opacity="0.3" fill="#FFFFFF" width="45" height="165.259"/>
			<rect x="136" y="896.729" opacity="0.3" fill="#FFFFFF" width="45" height="237.271"/>
			<rect x="181" y="1051.371" opacity="0.3" fill="#FFFFFF" width="45" height="82.629"/>
			<rect x="226" y="1022.289" opacity="0.3" fill="#FFFFFF" width="45" height="111.711"/>
			<rect x="316" y="990.898" opacity="0.3" fill="#FFFFFF" width="45" height="143.102"/>
			<rect x="361" y="956.738" opacity="0.3" fill="#FFFFFF" width="45" height="177.262"/>
			<rect x="406" y="974.28" opacity="0.3" fill="#FFFFFF" width="45" height="159.72"/>
			<rect x="451" y="1062.449" opacity="0.3" fill="#FFFFFF" width="45" height="71.551"/>
			<rect x="496" y="980.436" opacity="0.4" fill="#FFFFFF" width="45" height="153.564"/>
			<rect x="541" y="980.436" opacity="0.4" fill="#FFFFFF" width="45" height="153.564"/>
			<rect x="586" y="869.955" opacity="0.3" fill="#FFFFFF" width="45" height="264.045"/>
			<rect x="631" y="961.355" opacity="0.3" fill="#FFFFFF" width="45" height="172.645"/>
			<rect x="271" y="833.113" opacity="0.3" fill="#FFFFFF" width="45" height="300.887"/>
		</g>
		<rect x="271" y="974.28" opacity="0.2" fill="#FFFFFF" width="45" height="159.488"/>
		<rect x="541" y="779.85" opacity="0.3" fill="#FFFFFF" width="90" height="354.15"/>
		<rect x="316" y="740.421" opacity="0.4" fill="#FFFFFF" width="45" height="393.579"/>
		<rect x="226" y="694.158" opacity="0.4" fill="#FFFFFF" width="45" height="439.842"/>
		<rect x="541" y="694.158" opacity="0.4" fill="#FFFFFF" width="45" height="439.842"/>
		<rect x="608.812" y="633.892" opacity="0.4" fill="#FFFFFF" width="31.876" height="500.108"/>
		<rect x="1" y="740.421" opacity="0.4" fill="#FFFFFF" width="31.876" height="391.117"/>
		<rect x="374.124" y="802.171" opacity="0.4" fill="#FFFFFF" width="31.876" height="330.598"/>
		<rect x="136" y="656.769" opacity="0.4" fill="#FFFFFF" width="45" height="477.231"/>
		<rect x="271" y="779.851" opacity="0.4" fill="#FFFFFF" width="45" height="354.149"/>
	</g>
	<rect x="451" y="877" display="inline" opacity="0.3" fill="#FFFFFF" width="45" height="254.333"/>
	<rect x="496" y="774.58" display="inline" opacity="0.3" fill="#FFFFFF" width="45" height="358.086"/>
	<rect x="406" y="670.404" display="inline" opacity="0.3" fill="#FFFFFF" width="45" height="460.929"/>
	<rect x="361" y="848" display="inline" opacity="0.5" fill="#FFFFFF" width="13.124" height="284.666"/>
	<rect x="32.876" y="781" display="inline" opacity="0.2" fill="#FFFFFF" width="12.686" height="353"/>
</g>
<text transform="matrix(1 0 0 1 183.5977 487.5962)" fill="#FFFFFF" font-family="'CenturyGothic'" font-size="30" letter-spacing="4">emotion-mapping</text>
<linearGradient id="SVGID_1_" gradientUnits="userSpaceOnUse" x1="-248" y1="568.9951" x2="886.8428" y2="568.9951" gradientTransform="matrix(0 -1 1 0 -248.1562 887.8438)">
	<stop  offset="0" style="stop-color:#2BB673"/>
	<stop  offset="0.0576" style="stop-color:#30B0A8"/>
	<stop  offset="0.1183" style="stop-color:#27AAE1"/>
	<stop  offset="0.1321" style="stop-color:#289FD8;stop-opacity:0.998"/>
	<stop  offset="0.1862" style="stop-color:#2A79BA;stop-opacity:0.9904"/>
	<stop  offset="0.2354" style="stop-color:#295EA7;stop-opacity:0.9834"/>
	<stop  offset="0.2779" style="stop-color:#294A9A;stop-opacity:0.9774"/>
	<stop  offset="0.312" style="stop-color:#2A3E92;stop-opacity:0.9725"/>
	<stop  offset="0.3335" style="stop-color:#2B3990;stop-opacity:0.9695"/>
	<stop  offset="0.3513" style="stop-color:#353890;stop-opacity:0.9738"/>
	<stop  offset="0.3809" style="stop-color:#4F358F;stop-opacity:0.9811"/>
	<stop  offset="0.4188" style="stop-color:#70308F;stop-opacity:0.9904"/>
	<stop  offset="0.4578" style="stop-color:#92278F"/>
	<stop  offset="0.4992" style="stop-color:#95278E"/>
	<stop  offset="0.5423" style="stop-color:#9D268B"/>
	<stop  offset="0.5861" style="stop-color:#AC2688"/>
	<stop  offset="0.6304" style="stop-color:#C02684"/>
	<stop  offset="0.6747" style="stop-color:#DA287E"/>
	<stop  offset="0.6992" style="stop-color:#EE2A7B"/>
	<stop  offset="0.7159" style="stop-color:#EE2D7A"/>
	<stop  offset="0.7354" style="stop-color:#EE3375"/>
	<stop  offset="0.7563" style="stop-color:#EF3D6E"/>
	<stop  offset="0.7783" style="stop-color:#EF4762"/>
	<stop  offset="0.8011" style="stop-color:#F05252"/>
	<stop  offset="0.8242" style="stop-color:#F15E36"/>
	<stop  offset="0.8383" style="stop-color:#F26522"/>
	<stop  offset="0.861" style="stop-color:#F26922"/>
	<stop  offset="0.8844" style="stop-color:#F27223"/>
	<stop  offset="0.9082" style="stop-color:#F28124"/>
	<stop  offset="0.9322" style="stop-color:#F29426"/>
	<stop  offset="0.9563" style="stop-color:#F4AE2A"/>
	<stop  offset="0.9803" style="stop-color:#F6CE2E"/>
	<stop  offset="1" style="stop-color:#F9ED32"/>
</linearGradient>
<rect y="1.001" opacity="0.8" fill="url(#SVGID_1_)" width="641.678" height="1134.843"/>
<rect y="610.438" opacity="0.04" fill="#FFFFFF" width="55.453" height="525.562"/>
<rect x="584.547" y="610.438" opacity="0.04" fill="#FFFFFF" width="55.453" height="525.562"/>
<rect x="55.453" y="676.477" opacity="0.04" fill="#FFFFFF" width="39.623" height="459.523"/>
<rect x="95.076" y="783" opacity="0.04" fill="#FFFFFF" width="59.424" height="353"/>
<rect x="153.885" y="725" opacity="0.04" fill="#FFFFFF" width="59.424" height="411"/>
<rect x="213.31" y="649" opacity="0.04" fill="#FFFFFF" width="59.424" height="487"/>
<rect x="273.093" y="701" opacity="0.04" fill="#FFFFFF" width="59.425" height="435"/>
<rect x="332.518" y="676.477" opacity="0.04" fill="#FFFFFF" width="59.425" height="459.523"/>
<rect x="391.942" y="725" opacity="0.04" fill="#FFFFFF" width="59.425" height="411"/>
<rect x="451.11" y="783" opacity="0.04" fill="#FFFFFF" width="59.425" height="353"/>
<rect x="510.535" y="725" opacity="0.04" fill="#FFFFFF" width="74.012" height="411"/>
<rect y="701" opacity="0.06" fill="#FFFFFF" width="55.453" height="435"/>
<rect x="55.453" y="747" opacity="0.06" fill="#FFFFFF" width="39.623" height="389"/>
<rect x="95.076" y="819" opacity="0.06" fill="#FFFFFF" width="58.81" height="317"/>
<rect x="154.5" y="755.58" opacity="0.06" fill="#FFFFFF" width="59.117" height="380.42"/>
<rect x="213.617" y="676.477" opacity="0.06" fill="#FFFFFF" width="59.476" height="459.523"/>
<rect x="272.734" y="725" opacity="0.06" fill="#FFFFFF" width="59.476" height="411"/>
<rect x="332.21" y="766.08" opacity="0.06" fill="#FFFFFF" width="59.732" height="369.92"/>
<rect x="392.25" y="799.078" opacity="0.06" fill="#FFFFFF" width="58.809" height="336.922"/>
<rect x="451.419" y="836.576" opacity="0.06" fill="#FFFFFF" width="58.809" height="299.424"/>
<rect x="510.228" y="783" opacity="0.06" fill="#FFFFFF" width="72.642" height="353"/>
<rect x="582.869" y="667.085" opacity="0.06" fill="#FFFFFF" width="58.809" height="468.915"/>
<rect y="766.08" opacity="0.08" fill="#FFFFFF" width="55.453" height="376.482"/>
<rect x="55.786" y="799.078" opacity="0.08" fill="#FFFFFF" width="39.214" height="343.484"/>
<rect x="95.038" y="873.219" opacity="0.08" fill="#FFFFFF" width="58.885" height="269.344"/>
<rect x="154.155" y="799.078" opacity="0.08" fill="#FFFFFF" width="58.885" height="343.484"/>
<rect x="213.579" y="735.5" opacity="0.08" fill="#FFFFFF" width="58.885" height="407.062"/>
<rect x="273.029" y="787.5" opacity="0.08" fill="#FFFFFF" width="58.885" height="355.062"/>
<rect x="332.634" y="830.5" opacity="0.08" fill="#FFFFFF" width="58.885" height="312.062"/>
<rect x="392.212" y="850" opacity="0.08" fill="#FFFFFF" width="58.885" height="292.562"/>
<rect x="451.38" y="873.219" opacity="0.08" fill="#FFFFFF" width="58.885" height="269.344"/>
<rect x="510.666" y="811.719" opacity="0.08" fill="#FFFFFF" width="72.203" height="331.562"/>
<rect x="583.05" y="747" opacity="0.08" fill="#FFFFFF" width="58.446" height="396.281"/>
<text transform="matrix(1 0 0 1 262 409)" fill="#FFFFFF" font-family="'CenturyGothic'" font-size="48" letter-spacing="7">Vibes</text>
<polygon fill="#FFFFFF" points="154.5,186.265 215.285,142.233 298.556,142.233 338.206,287.226 360.693,205.369 404.99,205.369 
	451.11,228.164 375.41,228.164 339.354,329.832 336.953,329.832 285.014,186.282 "/>
<rect y="847.667" opacity="0.06" fill="#FFFFFF" width="55.453" height="288.177"/>
<rect x="55.453" y="887.667" opacity="0.06" fill="#FFFFFF" width="39.623" height="248.255"/>
<rect x="95.076" y="945.79" opacity="0.06" fill="#FFFFFF" width="58.926" height="190.132"/>
<rect x="154.135" y="906.238" opacity="0.06" fill="#FFFFFF" width="58.926" height="229.684"/>
<rect x="213.04" y="858.333" opacity="0.06" fill="#FFFFFF" width="59.424" height="277.589"/>
<rect x="272.464" y="873.22" opacity="0.06" fill="#FFFFFF" width="59.45" height="262.702"/>
<rect x="331.914" y="873.22" opacity="0.06" fill="#FFFFFF" width="59.779" height="262.702"/>
<rect x="391.766" y="934.5" opacity="0.06" fill="#FFFFFF" width="59.779" height="201.422"/>
<rect x="451.545" y="959.5" opacity="0.06" fill="#FFFFFF" width="59.779" height="176.422"/>
<rect x="510.535" y="884" opacity="0.06" fill="#FFFFFF" width="72.334" height="251.844"/>
<rect x="583.05" y="830.5" opacity="0.06" fill="#FFFFFF" width="56.95" height="305.344"/>
<g>
	
		<text transform="matrix(1 0 0 1 208.5952 490.5952)" fill="#FFFFFF" font-family="'CenturyGothic'" font-size="24" letter-spacing="4">emotion-mapping</text>
</g>
</svg>
