<?xml version="1.0" encoding="utf-8"?>
<!-- Generator: Adobe Illustrator 16.0.4, SVG Export Plug-In . SVG Version: 6.00 Build 0)  -->
<!DOCTYPE svg PUBLIC "-//W3C//DTD SVG 1.1//EN" "http://www.w3.org/Graphics/SVG/1.1/DTD/svg11.dtd">
<svg version="1.1" id="Layer_1" xmlns="http://www.w3.org/2000/svg" xmlns:xlink="http://www.w3.org/1999/xlink" x="0px" y="0px"
	 width="450px" height="150px" viewBox="0 0 450 150" enable-background="new 0 0 450 150" xml:space="preserve">
<g>
	<polygon opacity="0.7" fill="#ED4798" points="199.884,-39.708 196.338,-36.617 202.165,-36.617 204.36,-30.592 205.722,-39.203 
		205.553,-39.708 	"/>
	<polygon opacity="0.7" fill="#F8ED40" points="180.507,-36.619 184.762,-39.702 190.097,-39.702 191.415,-36.618 	"/>
	<polygon opacity="0.7" fill="#F7961D" points="185.034,-39.702 186.702,-36.618 193.652,-36.617 195.003,-39.702 	"/>
	<polygon opacity="0.7" fill="#754D9E" points="205.639,-39.45 203.194,-33.791 204.971,-28.891 208.077,-30.592 	"/>
	<polygon opacity="0.7" fill="#426EB5" points="207.326,-33.321 204.875,-29.157 207.895,-20.822 211.013,-19.853 	"/>
	<polygon opacity="0.7" fill="#06B052" points="207.895,-20.822 209.72,-24.583 211.013,-19.853 210.805,-12.778 	"/>
	<polygon opacity="0.7" fill="#F8ED40" points="212.347,-24.583 214.089,-20.913 211.221,-12.778 211.013,-19.853 	"/>
	<polygon opacity="0.7" fill="#F7961D" points="211.013,-19.853 214.332,-31.956 215.907,-31.952 217.184,-29.64 213.903,-20.386 	
		"/>
	<polygon opacity="0.6" fill="#ED2A25" points="214.332,-31.956 213.17,-27.718 215.964,-26.201 217.184,-29.64 221.007,-29.66 
		221.402,-31.956 	"/>
	<polygon opacity="0.7" fill="#ED4798" points="218.944,-31.945 217.184,-29.64 227.098,-29.64 225.82,-31.61 225.114,-31.956 	"/>
	<polygon opacity="0.6" fill="#754D9E" points="221.684,-29.64 223.345,-31.956 225.114,-31.956 229.762,-29.64 	"/>
	<polygon opacity="0.6" fill="#ED2A25" points="201.196,-39.708 201.28,-36.618 191.876,-36.617 187.007,-39.708 	"/>
</g>
<g>
	<rect fill="#FFFFFF" width="450" height="150"/>
	<polyline opacity="0.7" fill="#F8ED40" points="0,150 145.999,150 70.666,0 0,86 	"/>
	<polygon opacity="0.7" fill="#ED2A25" points="0,14 145.999,150 92.666,0 0,0 	"/>
	<polygon opacity="0.8" fill="#426EB5" points="96.666,150 111.333,0 165.333,150 	"/>
	<polygon opacity="0.8" fill="#ED4798" points="141.999,0 115.999,75 196.338,0 	"/>
	<polygon opacity="0.8" fill="#06B052" points="0,44.667 57.332,108.666 0,121.333 	"/>
	<polygon opacity="0.8" fill="#754D9E" points="104.998,180 176.157,40.748 193.665,180 	"/>
</g>
</svg>
