<?xml version="1.0" encoding="utf-8"?>
<!-- Generator: Adobe Illustrator 16.0.4, SVG Export Plug-In . SVG Version: 6.00 Build 0)  -->
<!DOCTYPE svg PUBLIC "-//W3C//DTD SVG 1.1//EN" "http://www.w3.org/Graphics/SVG/1.1/DTD/svg11.dtd">
<svg version="1.1" xmlns="http://www.w3.org/2000/svg" xmlns:xlink="http://www.w3.org/1999/xlink" x="0px" y="0px" width="320px"
	 height="108px" viewBox="0 0 320 108" enable-background="new 0 0 320 108" xml:space="preserve">
<g id="Layer_1" display="none">
	<g id="Layer_1_2_">
		<g id="Layer_1_1_" display="inline">
			<polygon opacity="0.5" fill="#7ACDCA" enable-background="new    " points="0,0 101.737,96.852 109.701,0 			"/>
			<polygon opacity="0.5" fill="#FAED28" enable-background="new    " points="137.597,77.73 2,108.999 45.363,22.044 			"/>
			<polygon opacity="0.5" fill="#65BB47" enable-background="new    " points="176.75,-5.755 60.634,32.187 100.568,109 			"/>
			<polygon opacity="0.5" fill="#65BB47" enable-background="new    " points="37.369,152.42 -57.224,44.108 0.522,-0.084 			"/>
			<polygon opacity="0.5" fill="#F6851F" enable-background="new    " points="0,-0.171 98.634,107.178 42.389,153.43 			"/>
			<polygon opacity="0.5" fill="#EB3A93" enable-background="new    " points="2,109 96.593,0.69 38.849,-43.503 			"/>
			<polygon opacity="0.5" fill="#DD5E83" enable-background="new    " points="243.404,122.253 99.649,118.672 106.154,46.248 			
				"/>
			<polygon opacity="0.5" fill="#FAED28" enable-background="new    " points="319.998,-0.084 220.078,96.768 212.258,-0.084 			"/>
			<polygon opacity="0.5" fill="#C22328" enable-background="new    " points="184.4,77.646 319.998,108.914 276.635,21.959 			"/>
			<polygon opacity="0.5" fill="#65BB47" enable-background="new    " points="145.248,-5.84 261.363,32.102 221.43,108.915 			"/>
			<polygon opacity="0.5" fill="#EB3A93" enable-background="new    " points="282.67,152.42 377.264,44.108 319.518,-0.084 			"/>
			<polygon opacity="0.5" fill="#F6851F" enable-background="new    " points="319.998,0.367 221.363,107.716 277.607,153.968 			
				"/>
			<polygon opacity="0.5" fill="#DD5E83" enable-background="new    " points="319.998,108.915 225.404,0.605 283.148,-43.588 			
				"/>
			<polygon opacity="0.5" fill="#DD5E83" enable-background="new    " points="78.592,122.168 222.35,118.587 215.844,46.163 			"/>
			<polygon opacity="0.5" fill="#65BB47" enable-background="new    " points="148.196,-28.673 143.626,-36.589 148.196,-44.503 
				157.336,-44.503 161.904,-36.589 157.336,-28.673 			"/>
			<polygon opacity="0.5" fill="#7ACDCA" enable-background="new    " points="161.041,-28.673 156.472,-36.589 161.041,-44.503 
				170.182,-44.503 174.75,-36.589 170.182,-28.673 			"/>
			<polygon opacity="0.5" fill="#A15BA4" enable-background="new    " points="172.852,-28.673 168.279,-36.589 172.852,-44.503 
				181.988,-44.503 186.561,-36.589 181.988,-28.673 			"/>
			<polygon opacity="0.5" fill="#DD5E83" enable-background="new    " points="185.695,-28.673 181.127,-36.589 185.695,-44.503 
				194.836,-44.503 199.404,-36.589 194.836,-28.673 			"/>
			<polygon opacity="0.5" fill="#EB3A93" enable-background="new    " points="148.195,-12.061 143.626,-19.976 148.195,-27.891 
				157.335,-27.891 161.904,-19.976 157.335,-12.061 			"/>
			<polygon opacity="0.5" fill="#C22328" enable-background="new    " points="161.04,-12.061 156.471,-19.976 161.04,-27.891 
				170.182,-27.891 174.75,-19.976 170.182,-12.061 			"/>
			<polygon opacity="0.5" fill="#F6851F" enable-background="new    " points="172.852,-12.061 168.279,-19.976 172.852,-27.891 
				181.988,-27.891 186.561,-19.976 181.988,-12.061 			"/>
			<polygon opacity="0.5" fill="#FAED28" enable-background="new    " points="185.695,-12.061 181.126,-19.976 185.695,-27.891 
				194.836,-27.891 199.404,-19.976 194.836,-12.061 			"/>
			<polygon opacity="0.5" fill="#7ACDCA" enable-background="new    " points="160.825,76.63 170.32,-0.084 215.844,46.163 			"/>
			<polygon opacity="0.5" fill="#FAED28" enable-background="new    " points="160.825,76.63 151.338,-0.084 105.86,46.163 			"/>
			<polygon opacity="0.5" fill="#F6851F" enable-background="new    " points="109.701,0 160.825,76.63 160.825,0 			"/>
			<polygon opacity="0.5" fill="#DD5E83" enable-background="new    " points="211.949,-0.042 160.824,76.588 160.824,-0.042 			"/>
		</g>
		<g id="Layer_2" display="inline">
			<polygon opacity="0.5" fill="#65BB47" enable-background="new    " points="-4.09,108 68.727,36.001 68.727,108 			"/>
			<polygon opacity="0.5" fill="#7ACDCA" enable-background="new    " points="141.545,108 68.727,36.001 68.727,108 			"/>
			<polygon opacity="0.5" fill="#F6851F" enable-background="new    " points="-4.089,71.999 68.727,0 68.727,71.999 			"/>
			<polygon opacity="0.5" fill="#DD5E83" enable-background="new    " points="141.547,71.999 68.729,0 68.729,71.999 			"/>
			<polygon opacity="0.5" fill="#EB3A93" enable-background="new    " points="141.547,0 68.729,71.999 68.729,0 			"/>
			<polygon opacity="0.5" fill="#C22328" enable-background="new    " points="-4.088,0 68.727,71.999 68.727,0 			"/>
			<polygon opacity="0.5" fill="#FAED28" enable-background="new    " points="-4.089,36.001 68.727,108 68.727,36.001 			"/>
			<polygon opacity="0.5" fill="#A15BA4" enable-background="new    " points="141.545,36.001 68.727,108 68.727,36.001 			"/>
			<polygon opacity="0.5" fill="#65BB47" enable-background="new    " points="178.361,108 251.18,36.001 251.18,108 			"/>
			<polygon opacity="0.5" fill="#7ACDCA" enable-background="new    " points="323.998,108 251.18,36.001 251.18,108 			"/>
			<polygon opacity="0.5" fill="#F6851F" enable-background="new    " points="178.363,71.999 251.18,0 251.18,71.999 			"/>
			<polygon opacity="0.5" fill="#DD5E83" enable-background="new    " points="324,71.999 251.182,0 251.182,71.999 			"/>
			<polygon opacity="0.5" fill="#EB3A93" enable-background="new    " points="324,0 251.182,71.999 251.182,0 			"/>
			<polygon opacity="0.5" fill="#C22328" enable-background="new    " points="178.363,0 251.18,71.999 251.18,0 			"/>
			<polygon opacity="0.5" fill="#FAED28" enable-background="new    " points="178.363,36.001 251.18,108 251.18,36.001 			"/>
			<polygon opacity="0.5" fill="#A15BA4" enable-background="new    " points="323.998,36.001 251.18,108 251.18,36.001 			"/>
			<polygon opacity="0.5" fill="#7ACDCA" enable-background="new    " points="141.953,108 214.771,36.001 214.771,108 			"/>
			<polygon opacity="0.5" fill="#DD5E83" enable-background="new    " points="141.951,71.999 214.77,0 214.77,71.999 			"/>
			<polygon opacity="0.5" fill="#EB3A93" enable-background="new    " points="141.951,0 214.77,71.999 214.77,0 			"/>
			<polygon opacity="0.5" fill="#A15BA4" enable-background="new    " points="141.953,36.001 214.771,108 214.771,36.001 			"/>
			<polygon opacity="0.5" fill="#65BB47" enable-background="new    " points="178.359,108 105.544,36.001 105.544,108 			"/>
			<polygon opacity="0.5" fill="#F6851F" enable-background="new    " points="178.359,71.999 105.544,0 105.544,71.999 			"/>
			<polygon opacity="0.5" fill="#C22328" enable-background="new    " points="178.357,0 105.544,71.999 105.544,0 			"/>
			<polygon opacity="0.5" fill="#FAED28" enable-background="new    " points="178.359,36.001 105.544,108 105.544,36.001 			"/>
		</g>
		<g id="Layer_3" display="inline">
			<polygon opacity="0.5" fill="#7ACDCA" enable-background="new    " points="145.635,0 72.817,-71.999 72.817,0 			"/>
			<polygon opacity="0.5" fill="#F6851F" enable-background="new    " points="0,-36.001 72.817,-108 72.817,-36.001 			"/>
			<polygon opacity="0.5" fill="#DD5E83" enable-background="new    " points="145.637,-36.001 72.819,-108 72.819,-36.001 			"/>
			<polygon opacity="0.5" fill="#EB3A93" enable-background="new    " points="145.637,-108 72.819,-36.001 72.819,-108 			"/>
			<polygon opacity="0.5" fill="#C22328" enable-background="new    " points="0.002,-108 72.817,-36.001 72.817,-108 			"/>
			<polygon opacity="0.5" fill="#FAED28" enable-background="new    " points="0,-71.999 72.817,0 72.817,-71.999 			"/>
			<polygon opacity="0.5" fill="#A15BA4" enable-background="new    " points="145.635,-71.999 72.817,0 72.817,-71.999 			"/>
			<polygon opacity="0.5" fill="#65BB47" enable-background="new    " points="182.452,0 255.27,-71.999 255.27,0 			"/>
			<polygon opacity="0.5" fill="#F6851F" enable-background="new    " points="182.453,-36.001 255.27,-108 255.27,-36.001 			"/>
			<polygon opacity="0.5" fill="#EB3A93" enable-background="new    " points="328.09,-108 255.271,-36.001 255.271,-108 			"/>
			<polygon opacity="0.5" fill="#C22328" enable-background="new    " points="182.454,-108 255.27,-36.001 255.27,-108 			"/>
			<polygon opacity="0.5" fill="#FAED28" enable-background="new    " points="182.453,-71.999 255.27,0 255.27,-71.999 			"/>
			<polygon opacity="0.5" fill="#A15BA4" enable-background="new    " points="328.088,-71.999 255.27,0 255.27,-71.999 			"/>
			<polygon opacity="0.5" fill="#7ACDCA" enable-background="new    " points="146.043,0 218.861,-71.999 218.861,0 			"/>
			<polygon opacity="0.5" fill="#DD5E83" enable-background="new    " points="146.041,-36.001 218.859,-108 218.859,-36.001 			"/>
			<polygon opacity="0.5" fill="#EB3A93" enable-background="new    " points="146.041,-108 218.859,-36.001 218.859,-108 			"/>
			<polygon opacity="0.5" fill="#A15BA4" enable-background="new    " points="146.043,-71.999 218.861,0 218.861,-71.999 			"/>
			<polygon opacity="0.5" fill="#65BB47" enable-background="new    " points="182.45,0 109.634,-71.999 109.634,0 			"/>
			<polygon opacity="0.5" fill="#F6851F" enable-background="new    " points="182.449,-36.001 109.634,-108 109.634,-36.001 			"/>
			<polygon opacity="0.5" fill="#C22328" enable-background="new    " points="182.448,-108 109.634,-36.001 109.634,-108 			"/>
			<polygon opacity="0.5" fill="#FAED28" enable-background="new    " points="182.449,-71.999 109.634,0 109.634,-71.999 			"/>
			<polygon opacity="0.5" fill="#C22328" enable-background="new    " points="-2.508,136.846 -15.12,115 -2.508,93.154 
				22.716,93.154 35.328,115 22.716,136.846 			"/>
			<polygon opacity="0.5" fill="#EB3A93" enable-background="new    " points="22.716,130.346 10.104,108.5 22.716,86.654 
				47.94,86.654 60.552,108.5 47.94,130.346 			"/>
			<polygon opacity="0.5" fill="#DD5E83" enable-background="new    " points="47.94,136.846 35.328,115 47.94,93.154 
				73.164,93.154 85.776,115 73.164,136.846 			"/>
			<polygon opacity="0.5" fill="#A15BA4" enable-background="new    " points="73.165,130.346 60.552,108.5 73.165,86.654 
				98.388,86.654 111,108.5 98.388,130.346 			"/>
			<polygon opacity="0.5" fill="#7ACDCA" enable-background="new    " points="98.515,136.846 85.903,115 98.515,93.154 
				123.739,93.154 136.351,115 123.739,136.846 			"/>
			<polygon opacity="0.5" fill="#65BB47" enable-background="new    " points="123.739,130.346 111.127,108.5 123.739,86.654 
				148.963,86.654 161.575,108.5 148.963,130.346 			"/>
			<polygon opacity="0.5" fill="#FAED28" enable-background="new    " points="148.837,136.846 136.225,115 148.837,93.154 
				174.061,93.154 186.674,115 174.061,136.846 			"/>
			<polygon opacity="0.5" fill="#F6851F" enable-background="new    " points="174.062,130.346 161.449,108.5 174.062,86.654 
				199.285,86.654 211.898,108.5 199.285,130.346 			"/>
			<polygon opacity="0.5" fill="#C22328" enable-background="new    " points="199.287,136.596 186.674,114.75 199.287,92.904 
				224.51,92.904 237.123,114.75 224.51,136.596 			"/>
			<polygon opacity="0.5" fill="#EB3A93" enable-background="new    " points="224.512,130.346 211.898,108.5 224.512,86.654 
				249.734,86.654 262.348,108.5 249.734,130.346 			"/>
			<polygon opacity="0.5" fill="#DD5E83" enable-background="new    " points="249.611,136.846 236.998,115 249.611,93.154 
				274.834,93.154 287.447,115 274.834,136.846 			"/>
			<polygon opacity="0.5" fill="#A15BA4" enable-background="new    " points="274.711,130.346 262.098,108.5 274.711,86.654 
				299.934,86.654 312.547,108.5 299.934,130.346 			"/>
			<polygon opacity="0.5" fill="#7ACDCA" enable-background="new    " points="299.936,136.846 287.322,115 299.936,93.154 
				325.158,93.154 337.771,115 325.158,136.846 			"/>
		</g>
	</g>
	<g id="Layer_2_1_" display="inline">
		<polygon opacity="0.5" fill="#A25BA4" enable-background="new    " points="70,86.503 72.726,86.503 80,98.078 80,102.896 		"/>
		<polygon opacity="0.5" fill="#ED3794" enable-background="new    " points="90,86.503 87.274,86.503 80,98.078 80,102.896 		"/>
		<polygon opacity="0.5" fill="#79CDCB" enable-background="new    " points="47.41,86.503 42.894,82.079 70,82.079 72.726,86.503 
			71.687,89.27 70,86.503 		"/>
		<polygon opacity="0.5" fill="#C32127" enable-background="new    " points="112.584,86.503 117.101,82.079 89.994,82.079 
			87.269,86.503 88.307,89.27 89.994,86.503 		"/>
		<polygon opacity="0.5" fill="#F6851F" enable-background="new    " points="143.042,86.503 133.042,82.079 106.709,82.079 
			112.21,86.503 		"/>
		<polygon opacity="0.5" fill="#65BC46" enable-background="new    " points="145.209,86.503 155.209,82.079 181.543,82.079 
			176.042,86.503 		"/>
		<polygon opacity="0.5" fill="#DE5D83" enable-background="new    " points="77.877,94.699 77.061,98.078 80,102.896 
			82.939,98.078 82.112,94.699 80,98.078 		"/>
		<polygon opacity="0.5" fill="#FBEE29" enable-background="new    " points="123.176,86.503 133.042,82.079 155.125,82.079 
			161,86.503 		"/>
		<polygon opacity="0.5" fill="#79CDCB" enable-background="new    " points="175.764,86.503 170.459,82.079 208.969,82.079 
			204.752,86.503 		"/>
		<polygon opacity="0.5" fill="#ED3794" enable-background="new    " points="204.752,86.503 200.001,82.079 229.25,82.079 
			232.094,86.503 230.893,89.092 229.25,86.503 		"/>
		<polygon opacity="0.5" fill="#A25BA4" enable-background="new    " points="239.5,102.896 244.521,94.665 241.661,94.665 
			239.536,98.078 237.342,94.665 234.375,94.699 		"/>
		<polygon opacity="0.5" fill="#F6851F" enable-background="new    " points="229.25,86.503 232.094,86.503 239.536,98.078 
			239.5,102.896 		"/>
		<polygon opacity="0.5" fill="#79CDCB" enable-background="new    " points="239.5,102.896 249.5,86.503 246.745,86.503 
			239.536,98.078 		"/>
		<polygon opacity="0.5" fill="#65BC46" enable-background="new    " points="247.932,89.075 246.745,86.503 249.5,82.079 
			266.666,82.079 271.541,86.503 249.5,86.503 		"/>
		<polygon opacity="0.5" fill="#FBEE29" enable-background="new    " points="266.666,82.079 262.438,86.562 277.5,86.503 
			280.501,82.079 279.375,78.562 277.105,82.079 		"/>
		<polygon opacity="0.5" fill="#C32127" enable-background="new    " points="277.105,82.079 280.501,82.079 287,72.5 287,66.75 		
			"/>
		<polygon opacity="0.5" fill="#A25BA4" enable-background="new    " points="296.25,82.079 294.053,78.438 293.469,82.292 
			296.25,86.503 307.688,86.503 303.812,82.079 		"/>
		<polygon opacity="0.5" fill="#ED3794" enable-background="new    " points="287,66.75 296.25,82.079 293.469,82.292 287,72.5 		
			"/>
		<polygon opacity="0.5" fill="#F6851F" enable-background="new    " points="301.25,86.503 303.812,82.079 320,82.079 320,86.503 
					"/>
		<polygon opacity="0.5" fill="#FBEE29" enable-background="new    " points="53.334,82.079 57.562,86.562 42.5,86.503 
			39.499,82.079 40.625,78.562 42.895,82.079 		"/>
		<polygon opacity="0.5" fill="#C32127" enable-background="new    " points="42.895,82.079 39.499,82.079 33,72.5 33,66.75 		"/>
		<polygon opacity="0.5" fill="#A25BA4" enable-background="new    " points="23.75,82.079 25.947,78.438 26.531,82.292 
			23.75,86.503 12.312,86.503 16.188,82.079 		"/>
		<polygon opacity="0.5" fill="#ED3794" enable-background="new    " points="33,66.75 23.75,82.079 26.531,82.292 33,72.5 		"/>
		<polygon opacity="0.5" fill="#F6851F" enable-background="new    " points="18.75,86.503 16.188,82.079 0,82.079 0,86.503 		"/>
	</g>
</g>
<g id="Layer_2_2_">
	<linearGradient id="SVGID_1_" gradientUnits="userSpaceOnUse" x1="0" y1="84.8232" x2="320" y2="84.8232">
		<stop  offset="0" style="stop-color:#29B473"/>
		<stop  offset="0.0983" style="stop-color:#27ABCD"/>
		<stop  offset="0.1183" style="stop-color:#26A9E0"/>
		<stop  offset="0.1835" style="stop-color:#287DC0;stop-opacity:0.9908"/>
		<stop  offset="0.2484" style="stop-color:#2A57A5;stop-opacity:0.9815"/>
		<stop  offset="0.3006" style="stop-color:#2B4095;stop-opacity:0.9741"/>
		<stop  offset="0.3335" style="stop-color:#2B388F;stop-opacity:0.9695"/>
		<stop  offset="0.3547" style="stop-color:#35368F;stop-opacity:0.9747"/>
		<stop  offset="0.39" style="stop-color:#4E328F;stop-opacity:0.9833"/>
		<stop  offset="0.4348" style="stop-color:#782B8E;stop-opacity:0.9944"/>
		<stop  offset="0.4578" style="stop-color:#90278E"/>
		<stop  offset="0.5068" style="stop-color:#94278D"/>
		<stop  offset="0.5577" style="stop-color:#A1278B"/>
		<stop  offset="0.6095" style="stop-color:#B52886"/>
		<stop  offset="0.6616" style="stop-color:#D22880"/>
		<stop  offset="0.6992" style="stop-color:#EC297B"/>
		<stop  offset="0.7259" style="stop-color:#EC2C76"/>
		<stop  offset="0.7572" style="stop-color:#ED3668"/>
		<stop  offset="0.7907" style="stop-color:#EE4650"/>
		<stop  offset="0.8256" style="stop-color:#F05C30"/>
		<stop  offset="0.8383" style="stop-color:#F16522"/>
		<stop  offset="0.8654" style="stop-color:#F16922"/>
		<stop  offset="0.8934" style="stop-color:#F27624"/>
		<stop  offset="0.9218" style="stop-color:#F38A26"/>
		<stop  offset="0.9505" style="stop-color:#F5A729"/>
		<stop  offset="0.9791" style="stop-color:#F7CC2D"/>
		<stop  offset="1" style="stop-color:#F9EC31"/>
	</linearGradient>
	<polygon fill="url(#SVGID_1_)" points="0,82.079 23.75,82.079 33,66.75 42.894,82.079 70,82.079 80,98.078 89.994,82.079 
		229.25,82.079 239.536,98.078 249.5,82.079 277.105,82.079 287,66.75 296.25,82.079 320,82.079 320,86.503 296.25,86.503 287,72.5 
		277.5,86.503 249.5,86.503 239.5,102.896 229.25,86.503 89.994,86.503 80,102.896 70,86.503 42.5,86.503 33,72.5 23.75,86.503 
		0,86.503 	"/>
</g>
</svg>
