<?xml version="1.0" encoding="utf-8"?>
<!-- Generator: Adobe Illustrator 16.0.4, SVG Export Plug-In . SVG Version: 6.00 Build 0)  -->
<!DOCTYPE svg PUBLIC "-//W3C//DTD SVG 1.1//EN" "http://www.w3.org/Graphics/SVG/1.1/DTD/svg11.dtd">
<svg version="1.1" xmlns="http://www.w3.org/2000/svg" xmlns:xlink="http://www.w3.org/1999/xlink" x="0px" y="0px" width="320px"
	 height="108px" viewBox="0 0 320 108" enable-background="new 0 0 320 108" xml:space="preserve">
<g id="Layer_1" display="none">
	<polygon display="inline" opacity="0.5" fill="#7ACDCA" points="0,0 101.737,96.852 109.701,0 	"/>
	<polygon display="inline" opacity="0.5" fill="#FAED28" points="137.597,77.73 2,108.999 45.363,22.044 	"/>
	<polygon display="inline" opacity="0.5" fill="#65BB47" points="176.75,-5.755 60.634,32.187 100.568,109 	"/>
	<polygon display="inline" opacity="0.5" fill="#65BB47" points="37.369,152.42 -57.224,44.108 0.522,-0.084 	"/>
	<polygon display="inline" opacity="0.5" fill="#F6851F" points="0,-0.171 98.634,107.178 42.389,153.43 	"/>
	<polygon display="inline" opacity="0.5" fill="#EB3A93" points="2,109 96.593,0.69 38.849,-43.503 	"/>
	<polygon display="inline" opacity="0.5" fill="#DD5E83" points="243.405,122.253 99.649,118.672 106.154,46.248 	"/>
	<polygon display="inline" opacity="0.5" fill="#FAED28" points="319.998,-0.084 220.078,96.767 212.258,-0.084 	"/>
	<polygon display="inline" opacity="0.5" fill="#C22328" points="184.4,77.646 319.998,108.914 276.635,21.959 	"/>
	<polygon display="inline" opacity="0.5" fill="#65BB47" points="145.248,-5.84 261.363,32.102 221.43,108.915 	"/>
	<polygon display="inline" opacity="0.5" fill="#EB3A93" points="282.67,152.42 377.263,44.108 319.518,-0.084 	"/>
	<polygon display="inline" opacity="0.5" fill="#F6851F" points="319.998,0.367 221.363,107.716 277.608,153.968 	"/>
	<polygon display="inline" opacity="0.5" fill="#DD5E83" points="319.998,108.915 225.404,0.605 283.148,-43.588 	"/>
	<polygon display="inline" opacity="0.5" fill="#DD5E83" points="78.592,122.168 222.349,118.587 215.844,46.163 	"/>
	<polygon display="inline" opacity="0.5" fill="#65BB47" points="148.196,-28.673 143.626,-36.589 148.196,-44.503 157.336,-44.503 
		161.905,-36.589 157.336,-28.673 	"/>
	<polygon display="inline" opacity="0.5" fill="#7ACDCA" points="161.041,-28.673 156.472,-36.589 161.041,-44.503 170.181,-44.503 
		174.75,-36.589 170.181,-28.673 	"/>
	<polygon display="inline" opacity="0.5" fill="#A15BA4" points="172.851,-28.673 168.28,-36.589 172.851,-44.503 181.989,-44.503 
		186.56,-36.589 181.989,-28.673 	"/>
	<polygon display="inline" opacity="0.5" fill="#DD5E83" points="185.695,-28.673 181.127,-36.589 185.695,-44.503 194.836,-44.503 
		199.405,-36.589 194.836,-28.673 	"/>
	<polygon display="inline" opacity="0.5" fill="#EB3A93" points="148.195,-12.061 143.626,-19.976 148.195,-27.891 157.335,-27.891 
		161.905,-19.976 157.335,-12.061 	"/>
	<polygon display="inline" opacity="0.5" fill="#C22328" points="161.04,-12.061 156.471,-19.976 161.04,-27.891 170.181,-27.891 
		174.75,-19.976 170.181,-12.061 	"/>
	<polygon display="inline" opacity="0.5" fill="#F6851F" points="172.851,-12.061 168.28,-19.976 172.851,-27.891 181.989,-27.891 
		186.56,-19.976 181.989,-12.061 	"/>
	<polygon display="inline" opacity="0.5" fill="#FAED28" points="185.695,-12.061 181.126,-19.976 185.695,-27.891 194.836,-27.891 
		199.405,-19.976 194.836,-12.061 	"/>
	<polygon display="inline" opacity="0.5" fill="#7ACDCA" points="160.825,76.63 170.321,-0.084 215.844,46.163 	"/>
	<polygon display="inline" opacity="0.5" fill="#FAED28" points="160.825,76.63 151.338,-0.084 105.86,46.163 	"/>
	<polygon display="inline" opacity="0.5" fill="#F6851F" points="109.701,0 160.825,76.63 160.825,0 	"/>
	<polygon display="inline" opacity="0.5" fill="#DD5E83" points="211.949,-0.042 160.824,76.588 160.824,-0.042 	"/>
</g>
<g id="Layer_2" display="none">
	<polygon display="inline" opacity="0.5" fill="#65BB47" points="-4.09,108 68.727,36.001 68.727,108 	"/>
	<polygon display="inline" opacity="0.5" fill="#7ACDCA" points="141.545,108 68.727,36.001 68.727,108 	"/>
	<polygon display="inline" opacity="0.5" fill="#F6851F" points="-4.089,71.999 68.727,0 68.727,71.999 	"/>
	<polygon display="inline" opacity="0.5" fill="#DD5E83" points="141.547,71.999 68.729,0 68.729,71.999 	"/>
	<polygon display="inline" opacity="0.5" fill="#EB3A93" points="141.547,0 68.729,71.999 68.729,0 	"/>
	<polygon display="inline" opacity="0.5" fill="#C22328" points="-4.088,0 68.727,71.999 68.727,0 	"/>
	<polygon display="inline" opacity="0.5" fill="#FAED28" points="-4.089,36.001 68.727,108 68.727,36.001 	"/>
	<polygon display="inline" opacity="0.5" fill="#A15BA4" points="141.545,36.001 68.727,108 68.727,36.001 	"/>
	<polygon display="inline" opacity="0.5" fill="#65BB47" points="178.362,108 251.18,36.001 251.18,108 	"/>
	<polygon display="inline" opacity="0.5" fill="#7ACDCA" points="323.998,108 251.18,36.001 251.18,108 	"/>
	<polygon display="inline" opacity="0.5" fill="#F6851F" points="178.363,71.999 251.18,0 251.18,71.999 	"/>
	<polygon display="inline" opacity="0.5" fill="#DD5E83" points="324,71.999 251.182,0 251.182,71.999 	"/>
	<polygon display="inline" opacity="0.5" fill="#EB3A93" points="324,0 251.182,71.999 251.182,0 	"/>
	<polygon display="inline" opacity="0.5" fill="#C22328" points="178.364,0 251.18,71.999 251.18,0 	"/>
	<polygon display="inline" opacity="0.5" fill="#FAED28" points="178.363,36.001 251.18,108 251.18,36.001 	"/>
	<polygon display="inline" opacity="0.5" fill="#A15BA4" points="323.998,36.001 251.18,108 251.18,36.001 	"/>
	<polygon display="inline" opacity="0.5" fill="#7ACDCA" points="141.953,108 214.771,36.001 214.771,108 	"/>
	<polygon display="inline" opacity="0.5" fill="#DD5E83" points="141.951,71.999 214.77,0 214.77,71.999 	"/>
	<polygon display="inline" opacity="0.5" fill="#EB3A93" points="141.951,0 214.77,71.999 214.77,0 	"/>
	<polygon display="inline" opacity="0.5" fill="#A15BA4" points="141.953,36.001 214.771,108 214.771,36.001 	"/>
	<polygon display="inline" opacity="0.5" fill="#65BB47" points="178.36,108 105.544,36.001 105.544,108 	"/>
	<polygon display="inline" opacity="0.5" fill="#F6851F" points="178.359,71.999 105.544,0 105.544,71.999 	"/>
	<polygon display="inline" opacity="0.5" fill="#C22328" points="178.358,0 105.544,71.999 105.544,0 	"/>
	<polygon display="inline" opacity="0.5" fill="#FAED28" points="178.359,36.001 105.544,108 105.544,36.001 	"/>
</g>
<g id="Layer_3">
	<polygon opacity="0.5" fill="#7ACDCA" points="145.635,0 72.817,-71.999 72.817,0 	"/>
	<polygon opacity="0.5" fill="#F6851F" points="0,-36.001 72.817,-108 72.817,-36.001 	"/>
	<polygon opacity="0.5" fill="#DD5E83" points="145.637,-36.001 72.819,-108 72.819,-36.001 	"/>
	<polygon opacity="0.5" fill="#EB3A93" points="145.637,-108 72.819,-36.001 72.819,-108 	"/>
	<polygon opacity="0.5" fill="#C22328" points="0.002,-108 72.817,-36.001 72.817,-108 	"/>
	<polygon opacity="0.5" fill="#FAED28" points="0,-71.999 72.817,0 72.817,-71.999 	"/>
	<polygon opacity="0.5" fill="#A15BA4" points="145.635,-71.999 72.817,0 72.817,-71.999 	"/>
	<polygon opacity="0.5" fill="#65BB47" points="182.452,0 255.27,-71.999 255.27,0 	"/>
	<polygon opacity="0.5" fill="#F6851F" points="182.453,-36.001 255.27,-108 255.27,-36.001 	"/>
	<polygon opacity="0.5" fill="#EB3A93" points="328.09,-108 255.271,-36.001 255.271,-108 	"/>
	<polygon opacity="0.5" fill="#C22328" points="182.454,-108 255.27,-36.001 255.27,-108 	"/>
	<polygon opacity="0.5" fill="#FAED28" points="182.453,-71.999 255.27,0 255.27,-71.999 	"/>
	<polygon opacity="0.5" fill="#A15BA4" points="328.088,-71.999 255.27,0 255.27,-71.999 	"/>
	<polygon opacity="0.5" fill="#7ACDCA" points="146.043,0 218.861,-71.999 218.861,0 	"/>
	<polygon opacity="0.5" fill="#DD5E83" points="146.041,-36.001 218.859,-108 218.859,-36.001 	"/>
	<polygon opacity="0.5" fill="#EB3A93" points="146.041,-108 218.859,-36.001 218.859,-108 	"/>
	<polygon opacity="0.5" fill="#A15BA4" points="146.043,-71.999 218.861,0 218.861,-71.999 	"/>
	<polygon opacity="0.5" fill="#65BB47" points="182.45,0 109.634,-71.999 109.634,0 	"/>
	<polygon opacity="0.5" fill="#F6851F" points="182.449,-36.001 109.634,-108 109.634,-36.001 	"/>
	<polygon opacity="0.5" fill="#C22328" points="182.448,-108 109.634,-36.001 109.634,-108 	"/>
	<polygon opacity="0.5" fill="#FAED28" points="182.449,-71.999 109.634,0 109.634,-71.999 	"/>
	<polygon opacity="0.5" fill="#C22328" points="-2.508,136.845 -15.12,115 -2.508,93.155 22.716,93.155 35.328,115 22.716,136.845 	
		"/>
	<polygon opacity="0.5" fill="#EB3A93" points="22.716,130.345 10.104,108.5 22.716,86.655 47.94,86.655 60.552,108.5 
		47.94,130.345 	"/>
	<polygon opacity="0.5" fill="#DD5E83" points="47.94,136.845 35.328,115 47.94,93.155 73.164,93.155 85.776,115 73.164,136.845 	
		"/>
	<polygon opacity="0.5" fill="#A15BA4" points="73.165,130.345 60.552,108.5 73.165,86.655 98.388,86.655 111,108.5 98.388,130.345 
			"/>
	<polygon opacity="0.5" fill="#7ACDCA" points="98.515,136.845 85.903,115 98.515,93.155 123.739,93.155 136.351,115 
		123.739,136.845 	"/>
	<polygon opacity="0.5" fill="#65BB47" points="123.739,130.345 111.127,108.5 123.739,86.655 148.963,86.655 161.575,108.5 
		148.963,130.345 	"/>
	<polygon opacity="0.5" fill="#FAED28" points="148.837,136.845 136.225,115 148.837,93.155 174.061,93.155 186.674,115 
		174.061,136.845 	"/>
	<polygon opacity="0.5" fill="#F6851F" points="174.062,130.345 161.449,108.5 174.062,86.655 199.285,86.655 211.898,108.5 
		199.285,130.345 	"/>
	<polygon opacity="0.5" fill="#C22328" points="199.287,136.595 186.674,114.75 199.287,92.905 224.51,92.905 237.123,114.75 
		224.51,136.595 	"/>
	<polygon opacity="0.5" fill="#EB3A93" points="224.512,130.345 211.898,108.5 224.512,86.655 249.734,86.655 262.348,108.5 
		249.734,130.345 	"/>
	<polygon opacity="0.5" fill="#DD5E83" points="249.611,136.845 236.998,115 249.611,93.155 274.834,93.155 287.447,115 
		274.834,136.845 	"/>
	<polygon opacity="0.5" fill="#A15BA4" points="274.711,130.345 262.098,108.5 274.711,86.655 299.934,86.655 312.547,108.5 
		299.934,130.345 	"/>
	<polygon opacity="0.5" fill="#7ACDCA" points="299.936,136.845 287.322,115 299.936,93.155 325.158,93.155 337.771,115 
		325.158,136.845 	"/>
</g>
</svg>
