<?xml version="1.0" encoding="utf-8"?>
<!-- Generator: Adobe Illustrator 16.0.4, SVG Export Plug-In . SVG Version: 6.00 Build 0)  -->
<!DOCTYPE svg PUBLIC "-//W3C//DTD SVG 1.1//EN" "http://www.w3.org/Graphics/SVG/1.1/DTD/svg11.dtd">
<svg version="1.1" xmlns="http://www.w3.org/2000/svg" xmlns:xlink="http://www.w3.org/1999/xlink" x="0px" y="0px" width="320px"
	 height="108px" viewBox="0 0 320 108" enable-background="new 0 0 320 108" xml:space="preserve">
<g id="Layer_1" display="none">
	<polygon display="inline" opacity="0.5" fill="#7ACDCA" points="0,0 101.737,96.852 109.701,0 	"/>
	<polygon display="inline" opacity="0.5" fill="#FAED28" points="137.597,77.73 2,108.999 45.363,22.044 	"/>
	<polygon display="inline" opacity="0.5" fill="#65BB47" points="176.75,-5.755 60.634,32.187 100.568,109 	"/>
	<polygon display="inline" opacity="0.5" fill="#65BB47" points="37.369,152.42 -57.224,44.108 0.522,-0.084 	"/>
	<polygon display="inline" opacity="0.5" fill="#F6851F" points="0,-0.171 98.634,107.178 42.389,153.43 	"/>
	<polygon display="inline" opacity="0.5" fill="#EB3A93" points="2,109 96.593,0.69 38.849,-43.503 	"/>
	<polygon display="inline" opacity="0.5" fill="#DD5E83" points="243.405,122.253 99.649,118.672 106.154,46.248 	"/>
	<polygon display="inline" opacity="0.5" fill="#FAED28" points="319.998,-0.084 220.078,96.767 212.258,-0.084 	"/>
	<polygon display="inline" opacity="0.5" fill="#C22328" points="184.4,77.646 319.998,108.914 276.635,21.959 	"/>
	<polygon display="inline" opacity="0.5" fill="#65BB47" points="145.248,-5.84 261.363,32.102 221.43,108.915 	"/>
	<polygon display="inline" opacity="0.5" fill="#EB3A93" points="282.67,152.42 377.263,44.108 319.518,-0.084 	"/>
	<polygon display="inline" opacity="0.5" fill="#F6851F" points="319.998,0.367 221.363,107.716 277.608,153.968 	"/>
	<polygon display="inline" opacity="0.5" fill="#DD5E83" points="319.998,108.915 225.404,0.605 283.148,-43.588 	"/>
	<polygon display="inline" opacity="0.5" fill="#DD5E83" points="78.592,122.168 222.349,118.587 215.844,46.163 	"/>
	<polygon display="inline" opacity="0.5" fill="#65BB47" points="148.196,-28.673 143.626,-36.589 148.196,-44.503 157.336,-44.503 
		161.905,-36.589 157.336,-28.673 	"/>
	<polygon display="inline" opacity="0.5" fill="#7ACDCA" points="161.041,-28.673 156.472,-36.589 161.041,-44.503 170.181,-44.503 
		174.75,-36.589 170.181,-28.673 	"/>
	<polygon display="inline" opacity="0.5" fill="#A15BA4" points="172.851,-28.673 168.28,-36.589 172.851,-44.503 181.989,-44.503 
		186.56,-36.589 181.989,-28.673 	"/>
	<polygon display="inline" opacity="0.5" fill="#DD5E83" points="185.695,-28.673 181.127,-36.589 185.695,-44.503 194.836,-44.503 
		199.405,-36.589 194.836,-28.673 	"/>
	<polygon display="inline" opacity="0.5" fill="#EB3A93" points="148.195,-12.061 143.626,-19.976 148.195,-27.891 157.335,-27.891 
		161.905,-19.976 157.335,-12.061 	"/>
	<polygon display="inline" opacity="0.5" fill="#C22328" points="161.04,-12.061 156.471,-19.976 161.04,-27.891 170.181,-27.891 
		174.75,-19.976 170.181,-12.061 	"/>
	<polygon display="inline" opacity="0.5" fill="#F6851F" points="172.851,-12.061 168.28,-19.976 172.851,-27.891 181.989,-27.891 
		186.56,-19.976 181.989,-12.061 	"/>
	<polygon display="inline" opacity="0.5" fill="#FAED28" points="185.695,-12.061 181.126,-19.976 185.695,-27.891 194.836,-27.891 
		199.405,-19.976 194.836,-12.061 	"/>
	<polygon display="inline" opacity="0.5" fill="#7ACDCA" points="160.825,76.63 170.321,-0.084 215.844,46.163 	"/>
	<polygon display="inline" opacity="0.5" fill="#FAED28" points="160.825,76.63 151.338,-0.084 105.86,46.163 	"/>
	<polygon display="inline" opacity="0.5" fill="#F6851F" points="109.701,0 160.825,76.63 160.825,0 	"/>
	<polygon display="inline" opacity="0.5" fill="#DD5E83" points="211.949,-0.042 160.824,76.588 160.824,-0.042 	"/>
</g>
<g id="Layer_2" display="none">
	<polygon display="inline" opacity="0.5" fill="#65BB47" points="-4.09,108 68.727,36.001 68.727,108 	"/>
	<polygon display="inline" opacity="0.5" fill="#7ACDCA" points="141.545,108 68.727,36.001 68.727,108 	"/>
	<polygon display="inline" opacity="0.5" fill="#F6851F" points="-4.089,71.999 68.727,0 68.727,71.999 	"/>
	<polygon display="inline" opacity="0.5" fill="#DD5E83" points="141.547,71.999 68.729,0 68.729,71.999 	"/>
	<polygon display="inline" opacity="0.5" fill="#EB3A93" points="141.547,0 68.729,71.999 68.729,0 	"/>
	<polygon display="inline" opacity="0.5" fill="#C22328" points="-4.088,0 68.727,71.999 68.727,0 	"/>
	<polygon display="inline" opacity="0.5" fill="#FAED28" points="-4.089,36.001 68.727,108 68.727,36.001 	"/>
	<polygon display="inline" opacity="0.5" fill="#A15BA4" points="141.545,36.001 68.727,108 68.727,36.001 	"/>
	<polygon display="inline" opacity="0.5" fill="#65BB47" points="178.362,108 251.18,36.001 251.18,108 	"/>
	<polygon display="inline" opacity="0.5" fill="#7ACDCA" points="323.998,108 251.18,36.001 251.18,108 	"/>
	<polygon display="inline" opacity="0.5" fill="#F6851F" points="178.363,71.999 251.18,0 251.18,71.999 	"/>
	<polygon display="inline" opacity="0.5" fill="#DD5E83" points="324,71.999 251.182,0 251.182,71.999 	"/>
	<polygon display="inline" opacity="0.5" fill="#EB3A93" points="324,0 251.182,71.999 251.182,0 	"/>
	<polygon display="inline" opacity="0.5" fill="#C22328" points="178.364,0 251.18,71.999 251.18,0 	"/>
	<polygon display="inline" opacity="0.5" fill="#FAED28" points="178.363,36.001 251.18,108 251.18,36.001 	"/>
	<polygon display="inline" opacity="0.5" fill="#A15BA4" points="323.998,36.001 251.18,108 251.18,36.001 	"/>
	<polygon display="inline" opacity="0.5" fill="#7ACDCA" points="141.953,108 214.771,36.001 214.771,108 	"/>
	<polygon display="inline" opacity="0.5" fill="#DD5E83" points="141.951,71.999 214.77,0 214.77,71.999 	"/>
	<polygon display="inline" opacity="0.5" fill="#EB3A93" points="141.951,0 214.77,71.999 214.77,0 	"/>
	<polygon display="inline" opacity="0.5" fill="#A15BA4" points="141.953,36.001 214.771,108 214.771,36.001 	"/>
	<polygon display="inline" opacity="0.5" fill="#65BB47" points="178.36,108 105.544,36.001 105.544,108 	"/>
	<polygon display="inline" opacity="0.5" fill="#F6851F" points="178.359,71.999 105.544,0 105.544,71.999 	"/>
	<polygon display="inline" opacity="0.5" fill="#C22328" points="178.358,0 105.544,71.999 105.544,0 	"/>
	<polygon display="inline" opacity="0.5" fill="#FAED28" points="178.359,36.001 105.544,108 105.544,36.001 	"/>
</g>
<g id="Layer_3">
	<polygon opacity="0.5" fill="#7ACDCA" points="134.018,-6.827 61.2,-78.825 61.2,-6.827 	"/>
	<polygon opacity="0.5" fill="#DD5E83" points="134.02,-42.828 61.202,-114.827 61.202,-42.828 	"/>
	<polygon opacity="0.5" fill="#EB3A93" points="134.02,-114.827 61.202,-42.828 61.202,-114.827 	"/>
	<polygon opacity="0.5" fill="#C22328" points="-11.615,-114.827 61.2,-42.828 61.2,-114.827 	"/>
	<polygon opacity="0.5" fill="#A15BA4" points="134.018,-78.825 61.2,-6.827 61.2,-78.825 	"/>
	<polygon opacity="0.5" fill="#65BB47" points="170.835,-6.827 243.652,-78.825 243.652,-6.827 	"/>
	<polygon opacity="0.5" fill="#F6851F" points="170.836,-42.828 243.652,-114.827 243.652,-42.828 	"/>
	<polygon opacity="0.5" fill="#C22328" points="170.837,-114.827 243.652,-42.828 243.652,-114.827 	"/>
	<polygon opacity="0.5" fill="#FAED28" points="170.836,-78.825 243.652,-6.827 243.652,-78.825 	"/>
	<polygon opacity="0.5" fill="#7ACDCA" points="134.426,-6.827 207.244,-78.825 207.244,-6.827 	"/>
	<polygon opacity="0.5" fill="#DD5E83" points="134.424,-42.828 207.242,-114.827 207.242,-42.828 	"/>
	<polygon opacity="0.5" fill="#A15BA4" points="134.426,-78.825 207.244,-6.827 207.244,-78.825 	"/>
	<polygon opacity="0.5" fill="#65BB47" points="170.833,-6.827 98.017,-78.825 98.017,-6.827 	"/>
	<polygon opacity="0.5" fill="#F6851F" points="170.832,-42.828 98.017,-114.827 98.017,-42.828 	"/>
	<polygon opacity="0.5" fill="#C22328" points="170.831,-114.827 98.017,-42.828 98.017,-114.827 	"/>
	<polygon opacity="0.5" fill="#C22328" points="-22,108 -8,93 18,93 33.5,108 	"/>
	<polygon opacity="0.5" fill="#DD5E83" points="3.792,108 17.792,93 43.792,93 59.292,108 	"/>
	<polygon opacity="0.5" fill="#EB3A93" points="29.792,108 43.792,93 69.792,93 85.292,108 	"/>
	<polygon opacity="0.5" fill="#A15BA4" points="55.292,108 69.292,93 95.292,93 110.792,108 	"/>
	<polygon opacity="0.5" fill="#7ACDCA" points="80.625,108 94.625,93 120.625,93 136.125,108 	"/>
	<polygon opacity="0.5" fill="#C22328" points="184.059,108 198.059,93 224.059,93 239.559,108 	"/>
	<polygon opacity="0.5" fill="#DD5E83" points="209.852,108 223.852,93 249.852,93 265.352,108 	"/>
	<polygon opacity="0.5" fill="#EB3A93" points="235.852,108 249.852,93 275.852,93 291.352,108 	"/>
	<polygon opacity="0.5" fill="#A15BA4" points="261.352,108 275.352,93 301.352,93 316.852,108 	"/>
	<polygon opacity="0.5" fill="#7ACDCA" points="286.685,108 300.685,93 326.685,93 342.185,108 	"/>
	<polygon opacity="0.5" fill="#65BB47" points="106.125,108 120.125,93 146.125,93 161.625,108 	"/>
	<polygon opacity="0.5" fill="#FAED28" points="131.745,108 145.744,93 171.744,93 187.244,108 	"/>
	<polygon opacity="0.5" fill="#F6851F" points="158.078,108 172.077,93 198.077,93 213.577,108 	"/>
	<polygon opacity="0.5" fill="#C22328" points="342.689,15 328.689,0 302.689,0 287.189,15 	"/>
	<polygon opacity="0.5" fill="#DD5E83" points="316.898,15 302.898,0 276.898,0 261.398,15 	"/>
	<polygon opacity="0.5" fill="#EB3A93" points="290.898,15 276.898,0 250.898,0 235.398,15 	"/>
	<polygon opacity="0.5" fill="#A15BA4" points="265.398,15 251.398,0 225.398,0 209.898,15 	"/>
	<polygon opacity="0.5" fill="#7ACDCA" points="240.064,15 226.064,0 200.064,0 184.564,15 	"/>
	<polygon opacity="0.5" fill="#C22328" points="136.631,15 122.631,0 96.631,0 81.131,15 	"/>
	<polygon opacity="0.5" fill="#DD5E83" points="110.838,15 96.838,0 70.838,0 55.338,15 	"/>
	<polygon opacity="0.5" fill="#EB3A93" points="84.838,15 70.838,0 44.838,0 29.338,15 	"/>
	<polygon opacity="0.5" fill="#A15BA4" points="59.338,15 45.338,0 19.338,0 3.838,15 	"/>
	<polygon opacity="0.5" fill="#7ACDCA" points="34.006,15 20.006,0 -5.994,0 -21.494,15 	"/>
	<polygon opacity="0.5" fill="#65BB47" points="214.564,15 200.564,0 174.564,0 159.064,15 	"/>
	<polygon opacity="0.5" fill="#FAED28" points="188.945,15 174.945,0 148.945,0 133.445,15 	"/>
	<polygon opacity="0.5" fill="#F6851F" points="162.611,15 148.613,0 122.613,0 107.113,15 	"/>
</g>
</svg>
