<?xml version="1.0" encoding="utf-8"?>
<!-- Generator: Adobe Illustrator 16.0.4, SVG Export Plug-In . SVG Version: 6.00 Build 0)  -->
<!DOCTYPE svg PUBLIC "-//W3C//DTD SVG 1.1//EN" "http://www.w3.org/Graphics/SVG/1.1/DTD/svg11.dtd">
<svg version="1.1" id="Layer_1" xmlns="http://www.w3.org/2000/svg" xmlns:xlink="http://www.w3.org/1999/xlink" x="0px" y="0px"
	 width="320px" height="108px" viewBox="0 0 320 108" enable-background="new 0 0 320 108" xml:space="preserve">
<polygon opacity="0.5" fill="#7ACDCA" points="0,0 101.737,96.852 109.701,0 "/>
<polygon opacity="0.5" fill="#FAED28" points="137.597,77.73 2,108.999 45.363,22.044 "/>
<polygon opacity="0.5" fill="#65BB47" points="176.75,-5.755 60.634,32.187 100.568,109 "/>
<polygon opacity="0.5" fill="#65BB47" points="37.369,152.42 -57.224,44.108 0.522,-0.084 "/>
<polygon opacity="0.5" fill="#F6851F" points="0,-0.171 98.634,107.178 42.389,153.43 "/>
<polygon opacity="0.5" fill="#EB3A93" points="2,109 96.593,0.69 38.849,-43.503 "/>
<polygon opacity="0.5" fill="#DD5E83" points="243.405,122.253 99.649,118.672 106.154,46.248 "/>
<polygon opacity="0.5" fill="#FAED28" points="319.998,-0.084 220.078,96.767 212.258,-0.084 "/>
<polygon opacity="0.5" fill="#C22328" points="184.4,77.646 319.998,108.914 276.635,21.959 "/>
<polygon opacity="0.5" fill="#65BB47" points="145.248,-5.84 261.363,32.102 221.43,108.915 "/>
<polygon opacity="0.5" fill="#EB3A93" points="282.67,152.42 377.263,44.108 319.518,-0.084 "/>
<polygon opacity="0.5" fill="#F6851F" points="319.998,0.367 221.363,107.716 277.608,153.968 "/>
<polygon opacity="0.5" fill="#DD5E83" points="319.998,108.915 225.404,0.605 283.148,-43.588 "/>
<polygon opacity="0.5" fill="#DD5E83" points="78.592,122.168 222.349,118.587 215.844,46.163 "/>
<polygon opacity="0.5" fill="#65BB47" points="148.196,-28.673 143.626,-36.589 148.196,-44.503 157.336,-44.503 161.905,-36.589 
	157.336,-28.673 "/>
<polygon opacity="0.5" fill="#7ACDCA" points="161.041,-28.673 156.472,-36.589 161.041,-44.503 170.181,-44.503 174.75,-36.589 
	170.181,-28.673 "/>
<polygon opacity="0.5" fill="#A15BA4" points="172.851,-28.673 168.28,-36.589 172.851,-44.503 181.989,-44.503 186.56,-36.589 
	181.989,-28.673 "/>
<polygon opacity="0.5" fill="#DD5E83" points="185.695,-28.673 181.127,-36.589 185.695,-44.503 194.836,-44.503 199.405,-36.589 
	194.836,-28.673 "/>
<polygon opacity="0.5" fill="#EB3A93" points="148.195,-12.061 143.626,-19.976 148.195,-27.891 157.335,-27.891 161.905,-19.976 
	157.335,-12.061 "/>
<polygon opacity="0.5" fill="#C22328" points="161.04,-12.061 156.471,-19.976 161.04,-27.891 170.181,-27.891 174.75,-19.976 
	170.181,-12.061 "/>
<polygon opacity="0.5" fill="#F6851F" points="172.851,-12.061 168.28,-19.976 172.851,-27.891 181.989,-27.891 186.56,-19.976 
	181.989,-12.061 "/>
<polygon opacity="0.5" fill="#FAED28" points="185.695,-12.061 181.126,-19.976 185.695,-27.891 194.836,-27.891 199.405,-19.976 
	194.836,-12.061 "/>
<polygon opacity="0.5" fill="#7ACDCA" points="160.825,76.63 170.321,-0.084 215.844,46.163 "/>
<polygon opacity="0.5" fill="#FAED28" points="160.825,76.63 151.338,-0.084 105.86,46.163 "/>
<polygon opacity="0.5" fill="#F6851F" points="109.701,0 160.825,76.63 160.825,0 "/>
<polygon opacity="0.5" fill="#DD5E83" points="211.949,-0.042 160.824,76.588 160.824,-0.042 "/>
</svg>
