<?xml version="1.0" encoding="utf-8"?>
<!-- Generator: Adobe Illustrator 16.0.4, SVG Export Plug-In . SVG Version: 6.00 Build 0)  -->
<!DOCTYPE svg PUBLIC "-//W3C//DTD SVG 1.1//EN" "http://www.w3.org/Graphics/SVG/1.1/DTD/svg11.dtd">
<svg version="1.1" xmlns="http://www.w3.org/2000/svg" xmlns:xlink="http://www.w3.org/1999/xlink" x="0px" y="0px" width="320px"
	 height="150px" viewBox="0 0 320 150" enable-background="new 0 0 320 150" xml:space="preserve">
<g id="Layer_1" display="none">
	<g id="Layer_1_2_">
		<g id="Layer_1_1_" display="inline">
			<polygon fill="#9E9E9E" points="133.271,82 122.854,77.5 133.271,73 154.102,73 164.518,77.5 154.102,82 			"/>
			<rect x="133" y="82" fill="#9E9E9E" width="21" height="88"/>
			<rect x="133" y="82" opacity="0.12" enable-background="new    " width="21" height="88"/>
			<polygon fill="#9E9E9E" points="133.146,82 123,77.5 123,170 133,170 			"/>
			<polygon opacity="0.1" enable-background="new    " points="133.146,82 123,77.5 123,170 133,170 			"/>
			<polygon fill="#9E9E9E" points="154,82 164.518,77.5 165,170 154,170 			"/>
			<polygon opacity="0.05" enable-background="new    " points="154,82 164.518,77.5 165,170 154,170 			"/>
			<polygon fill="#754D9E" points="123.271,102 112.854,97.5 123.271,93 144.102,93 154.518,97.5 144.102,102 			"/>
			<rect x="123" y="102" fill="#754D9E" width="21" height="88"/>
			<rect x="123" y="102" opacity="0.12" enable-background="new    " width="21" height="88"/>
			<polygon fill="#426EB5" points="123.146,102 113,97.5 113,190 123,190 			"/>
			<polygon opacity="0.1" enable-background="new    " points="123.146,102 113,97.5 113,190 123,190 			"/>
			<polygon fill="#754D9E" points="144,102 154.518,97.5 155,190 144,190 			"/>
			<polygon opacity="0.05" enable-background="new    " points="144,102 154.518,97.5 155,190 144,190 			"/>
			<polygon fill="#ED4798" points="100.271,69 89.854,64.5 100.271,60 121.102,60 131.518,64.5 121.102,69 			"/>
			<rect x="100" y="69" fill="#ED4798" width="21" height="88"/>
			<rect x="100" y="69" opacity="0.12" enable-background="new    " width="21" height="88"/>
			<polygon fill="#ED4798" points="100.146,69 90,64.5 90,157 100,157 			"/>
			<polygon opacity="0.1" enable-background="new    " points="100.146,69 90,64.5 90,157 100,157 			"/>
			<polygon fill="#ED4798" points="121,69 131.518,64.5 132,157 121,157 			"/>
			<polygon opacity="0.05" enable-background="new    " points="121,69 131.518,64.5 132,157 121,157 			"/>
			<polygon fill="#426EB5" points="56.271,41 45.854,36.5 56.271,32 77.102,32 87.518,36.5 77.102,41 			"/>
			<rect x="56" y="41" fill="#426EB5" width="21" height="88"/>
			<rect x="56" y="41" opacity="0.12" enable-background="new    " width="21" height="88"/>
			<polygon fill="#426EB5" points="56.146,41 46,36.5 46,129 56,129 			"/>
			<polygon opacity="0.1" enable-background="new    " points="56.146,41 46,36.5 46,129 56,129 			"/>
			<polygon fill="#426EB5" points="77,41 87.518,36.5 88,129 77,129 			"/>
			<polygon opacity="0.05" enable-background="new    " points="77,41 87.518,36.5 88,129 77,129 			"/>
			<g>
				<polygon opacity="0.7" fill="#ED4798" enable-background="new    " points="145.486,-35.907 141.627,-32.543 147.968,-32.543 
					150.357,-25.986 151.84,-35.358 151.656,-35.907 				"/>
				<polygon opacity="0.7" fill="#F8ED40" enable-background="new    " points="124.398,-32.546 129.03,-35.9 134.835,-35.9 
					136.269,-32.544 				"/>
				<polygon opacity="0.7" fill="#F7961D" enable-background="new    " points="129.325,-35.9 131.141,-32.544 138.705,-32.543 
					140.174,-35.9 				"/>
				<polygon opacity="0.7" fill="#754D9E" enable-background="new    " points="151.75,-35.626 149.089,-29.467 151.023,-24.135 
					154.402,-25.986 				"/>
				<polygon opacity="0.7" fill="#426EB5" enable-background="new    " points="153.585,-28.957 150.918,-24.424 154.204,-15.354 
					157.599,-14.299 				"/>
				<polygon opacity="0.7" fill="#06B052" enable-background="new    " points="154.204,-15.354 156.19,-19.446 157.599,-14.299 
					157.372,-6.6 				"/>
				<polygon opacity="0.7" fill="#F8ED40" enable-background="new    " points="159.05,-19.446 160.945,-15.453 157.824,-6.6 
					157.599,-14.299 				"/>
				<polygon opacity="0.7" fill="#F7961D" enable-background="new    " points="157.599,-14.299 161.21,-27.47 162.923,-27.466 
					164.312,-24.95 160.742,-14.879 				"/>
				<polygon opacity="0.6" fill="#ED2A25" enable-background="new    " points="161.21,-27.47 159.945,-22.858 162.986,-21.208 
					164.312,-24.95 168.475,-24.972 168.904,-27.47 				"/>
				<polygon opacity="0.7" fill="#ED4798" enable-background="new    " points="166.229,-27.459 164.312,-24.95 175.104,-24.95 
					173.712,-27.094 172.943,-27.47 				"/>
				<polygon opacity="0.6" fill="#754D9E" enable-background="new    " points="169.212,-24.95 171.02,-27.47 172.943,-27.47 
					178.003,-24.95 				"/>
				<polygon opacity="0.6" fill="#ED2A25" enable-background="new    " points="146.914,-35.907 147.006,-32.544 136.772,-32.543 
					131.472,-35.907 				"/>
			</g>
			<polygon fill="#F8ED40" points="10.271,62 -0.146,57.5 10.271,53 31.102,53 41.518,57.5 31.102,62 			"/>
			<rect x="10" y="62" fill="#F8ED40" width="21" height="88"/>
			<rect x="10" y="62" opacity="0.08" enable-background="new    " width="21" height="88"/>
			<polygon fill="#F8ED40" points="10.146,62 0,57.5 0,150 10,150 			"/>
			<polygon opacity="0.05" enable-background="new    " points="10.146,62 0,57.5 0,150 10,150 			"/>
			<polygon fill="#F8ED40" points="31,62 41.518,57.5 42,150 31,150 			"/>
			<polygon opacity="0.1" enable-background="new    " points="31,62 41.518,57.5 42,150 31,150 			"/>
			<polygon fill="#ED2A25" points="74.271,88 63.854,85 74.271,82 95.102,82 105.518,85 95.102,88 			"/>
			<rect x="74" y="88" fill="#ED2A25" width="21" height="62"/>
			<rect x="74" y="88" opacity="0.12" enable-background="new    " width="21" height="62"/>
			<polygon fill="#F8ED40" points="74.146,88.007 64,84.837 64,150 74,150 			"/>
			<polygon opacity="0.05" enable-background="new    " points="74.146,88.007 64,84.837 64,150 74,150 			"/>
			<polygon fill="#ED2A25" points="95,88.007 105.518,84.837 106,150 95,150 			"/>
			<polygon opacity="0.08" enable-background="new    " points="95,88.007 105.518,84.837 106,150 95,150 			"/>
			<polygon fill="#F7961D" points="47.271,77 36.854,72.5 47.271,68 68.102,68 78.518,72.5 68.102,77 			"/>
			<rect x="47" y="77" fill="#F7961D" width="21" height="88"/>
			<rect x="47" y="77" opacity="0.1" enable-background="new    " width="21" height="88"/>
			<polygon fill="#F7961D" points="47.146,77 37,72.5 37,165 47,165 			"/>
			<polygon opacity="0.07" enable-background="new    " points="47.146,77 37,72.5 37,165 47,165 			"/>
			<polygon fill="#F7961D" points="68,77 78.518,72.5 79,165 68,165 			"/>
			<polygon opacity="0.05" enable-background="new    " points="68,77 78.518,72.5 79,165 68,165 			"/>
			<polygon fill="#06B052" points="23.271,125 12.854,120.5 23.271,116 44.102,116 54.518,120.5 44.102,125 			"/>
			<rect x="23" y="125" fill="#06B052" width="21" height="88"/>
			<rect x="23" y="125" opacity="0.12" enable-background="new    " width="21" height="88"/>
			<polygon fill="#06B052" points="23.146,125 13,120.5 13,213 23,213 			"/>
			<polygon opacity="0.1" enable-background="new    " points="23.146,125 13,120.5 13,213 23,213 			"/>
			<polygon fill="#06B052" points="44,125 54.518,120.5 55,213 44,213 			"/>
			<polygon opacity="0.05" enable-background="new    " points="44,125 54.518,120.5 55,213 44,213 			"/>
			<polygon fill="#F8ED40" points="3.897,27.398 6.579,25.396 19.806,25.4 23.273,38.006 25.37,30.343 32.285,30.319 35.265,31.79 
				27.187,31.8 23.405,42.5 23.141,42.5 17.601,27.398 			"/>
			<polygon fill="#426EB5" points="56.008,11.43 57.802,10.09 66.65,10.093 68.97,18.526 70.372,13.4 74.999,13.384 76.992,14.368 
				71.588,14.375 69.058,21.532 68.881,21.532 65.175,11.43 			"/>
			<polygon fill="#ED4798" points="12.508,5.709 14.302,4.37 23.15,4.373 25.47,12.806 26.872,7.679 31.499,7.664 33.492,8.647 
				28.088,8.654 25.558,15.812 25.381,15.812 21.675,5.709 			"/>
			<polygon fill="#F7961D" points="35.363,17.014 37.157,15.674 46.005,15.677 48.324,24.11 49.727,18.984 54.353,18.968 
				56.346,19.952 50.942,19.959 48.413,27.116 48.236,27.116 44.53,17.014 			"/>
			<polygon fill="#06B052" points="82.119,5.357 83.442,4.37 89.965,4.372 91.675,10.589 92.709,6.81 96.121,6.798 97.59,7.523 
				93.606,7.529 91.741,12.806 91.61,12.806 88.878,5.357 			"/>
			<polygon fill="#754D9E" points="92.765,30.935 94.087,29.948 100.611,29.95 102.321,36.167 103.355,32.388 106.766,32.376 
				108.235,33.102 104.251,33.107 102.386,38.384 102.256,38.384 99.523,30.935 			"/>
			<polygon fill="#ED2A25" points="119.337,41.77 120.66,40.782 127.184,40.784 128.894,47.002 129.928,43.222 133.339,43.211 
				134.808,43.936 130.824,43.941 128.959,49.218 128.829,49.218 126.096,41.77 			"/>
			<polygon fill="#9E9E9E" points="105.265,18.301 106.587,17.314 113.111,17.316 114.821,23.534 115.855,19.754 119.266,19.743 
				120.735,20.468 116.751,20.473 114.886,25.75 114.756,25.75 112.023,18.301 			"/>
		</g>
		<polygon display="inline" opacity="0.8" fill="#F8ED40" enable-background="new    " points="24.11,67.658 42.552,178.49 
			-17.333,147.346 		"/>
		<polygon display="inline" opacity="0.8" fill="#F7961D" enable-background="new    " points="24,150 64.5,65.5 91.5,150 		"/>
		<polygon display="inline" opacity="0.8" fill="#ED2A25" enable-background="new    " points="279,150 305.5,68.5 346,150 		"/>
		<polygon display="inline" opacity="0.8" fill="#06B052" enable-background="new    " points="82,150 117.425,91 143.039,150 		"/>
		<polyline display="inline" opacity="0.8" fill="#ED4798" enable-background="new    " points="127.191,160 155.704,79.5 
			220.387,160 		"/>
		<polyline display="inline" opacity="0.8" fill="#754D9E" enable-background="new    " points="260,150 276,82 307,150 		"/>
		<polyline display="inline" opacity="0.8" fill="#426EB5" enable-background="new    " points="199.5,150 233,75 271.5,150 		"/>
	</g>
	<g id="Layer_2">
		<g display="inline">
			<polygon opacity="0.3" fill="#ED2A25" enable-background="new    " points="9.626,150.5 37.034,66.209 78.92,150.5 			"/>
			<polygon opacity="0.4" fill="#F7961D" enable-background="new    " points="197.209,152.5 239.096,65.106 267.02,152.5 			"/>
			<polygon opacity="0.3" fill="#F8ED40" enable-background="new    " points="186.04,70.379 205.113,185.009 143.177,152.798 			
				"/>
			<polyline opacity="0.4" fill="#ED4798" enable-background="new    " points="251.622,155.627 281.111,72.37 348.011,155.627 			
				"/>
			<polyline opacity="0.3" fill="#426EB5" enable-background="new    " points="53.567,153.491 88.213,75.923 128.032,153.491 			
				"/>
			<polygon opacity="0.8" fill="#F8ED40" enable-background="new    " points="12.008,65.222 40.999,185.009 -30.855,147.641 			"/>
			<polygon opacity="0.8" fill="#F7961D" enable-background="new    " points="23.862,156.5 65.749,69.106 93.673,156.5 			"/>
			<polygon opacity="0.8" fill="#ED2A25" enable-background="new    " points="272.96,156.5 302.1,72.209 346.634,156.5 			"/>
			<polygon opacity="0.8" fill="#06B052" enable-background="new    " points="77.694,152.5 114.332,91.479 140.824,152.5 			"/>
			<polyline opacity="0.8" fill="#ED4798" enable-background="new    " points="207.486,158.704 140.588,75.447 111.099,158.704 			
				"/>
			<polyline opacity="0.8" fill="#754D9E" enable-background="new    " points="239.227,155.543 257.205,85.213 292.044,155.543 			
				"/>
			<polyline opacity="0.8" fill="#426EB5" enable-background="new    " points="179.73,155.543 214.377,77.975 254.195,155.543 			
				"/>
			<polygon fill="#F8ED40" points="12.008,65.222 29.299,90.45 22.887,110.172 			"/>
			<polygon opacity="0.4" fill="#ED2A25" enable-background="new    " points="37.034,66.662 22.888,81.096 29.299,90.45 			"/>
			<polygon opacity="0.9" fill="#F7961D" enable-background="new    " points="65.749,69.714 81.725,90.45 76.274,102.652 			"/>
			<polygon opacity="0.4" fill="#426EB5" enable-background="new    " points="88.213,75.923 108.761,101.264 104.696,108.032 			
				"/>
			<polygon opacity="0.9" fill="#06B052" enable-background="new    " points="114.332,91.982 130.527,103.854 125.566,117.857 			
				"/>
			<polygon fill="#ED4798" points="140.588,75.447 170.539,100.186 166.58,107.796 			"/>
			<polygon opacity="0.4" fill="#F8ED40" enable-background="new    " points="186.04,70.379 203.354,102.652 194.695,122.036 			
				"/>
			<polygon fill="#426EB5" points="214.377,77.975 201.064,98.386 203.354,102.652 			"/>
			<polygon opacity="0.3" fill="#F7961D" enable-background="new    " points="239.096,65.611 219.999,88.927 224.096,96.906 			"/>
			<polygon opacity="0.9" fill="#754D9E" enable-background="new    " points="257.205,85.213 272.668,96.208 268.492,107.998 			
				"/>
			<polygon opacity="0.5" fill="#ED4798" enable-background="new    " points="281.111,72.37 257.205,85.213 272.668,96.208 			"/>
			<polygon opacity="0.9" fill="#ED2A25" enable-background="new    " points="302.1,72.816 324.419,91.462 324.366,114.962 			"/>
			<polygon opacity="0.7" fill="#06B052" enable-background="new    " points="114.332,91.982 140.588,75.447 130.527,103.854 			
				"/>
			<polygon opacity="0.5" fill="#426EB5" enable-background="new    " points="114.332,91.982 88.213,75.923 108.761,101.264 			"/>
			<polygon fill="#F7961D" points="65.749,69.714 88.213,75.923 81.725,90.45 			"/>
			<polygon opacity="0.4" fill="#ED2A25" enable-background="new    " points="37.034,66.662 65.749,69.714 52.396,97.575 			"/>
			<polygon opacity="0.7" fill="#ED4798" enable-background="new    " points="12.008,65.222 -4.335,68.64 -4.106,96.208 			"/>
			<polygon opacity="0.4" fill="#426EB5" enable-background="new    " points="88.213,75.923 98.814,56.844 114.332,91.982 			"/>
			<polygon opacity="0.9" fill="#F7961D" enable-background="new    " points="65.749,69.714 73.737,60.691 88.213,75.923 			"/>
			<polygon opacity="0.5" fill="#F7961D" enable-background="new    " points="239.096,65.611 257.205,85.213 251.939,105.811 			
				"/>
			<polygon opacity="0.9" fill="#426EB5" enable-background="new    " points="214.377,77.975 187.475,50.433 186.04,70.379 
				201.064,98.386 			"/>
			<polygon opacity="0.7" fill="#426EB5" enable-background="new    " points="186.04,70.379 214.377,77.975 201.064,98.386 			"/>
			<polygon opacity="0.45" fill="#F7961D" enable-background="new    " points="239.096,65.611 219.999,52.74 214.377,77.975 
				219.999,88.927 			"/>
			<polygon opacity="0.6" fill="#ED4798" enable-background="new    " points="257.205,85.213 276.712,46.33 281.111,72.37 			"/>
			<polygon opacity="0.7" fill="#ED4798" enable-background="new    " points="276.712,46.33 302.1,72.816 295.895,90.768 
				281.111,72.37 			"/>
			<polygon opacity="0.5" fill="#426EB5" enable-background="new    " points="107.03,75.447 119.607,61.545 114.332,91.982 			"/>
			<polygon fill="#ED2A25" points="324.419,91.462 309.797,46.33 302.1,72.816 			"/>
			<polygon opacity="0.4" fill="#ED2A25" enable-background="new    " points="302.27,72.209 272.96,156.5 307.482,156.5 			"/>
			<polygon opacity="0.5" fill="#ED4798" enable-background="new    " points="140.588,75.243 111.099,158.5 152.6,158.5 			"/>
			<polygon opacity="0.8" fill="#06B052" enable-background="new    " points="114.332,91.982 130.527,56.844 140.588,75.902 			"/>
			<polyline opacity="0.5" fill="#ED2A25" enable-background="new    " points="37.034,66.662 53.567,40.859 65.749,69.714 			"/>
			<polygon opacity="0.8" fill="#ED4798" enable-background="new    " points="-4.335,68.64 15.837,40.859 12.008,65.222 			"/>
			<polygon opacity="0.9" fill="#ED4798" enable-background="new    " points="15.837,40.859 22.888,81.096 12.008,65.222 			"/>
			<polygon fill="#F8ED40" points="-4.335,150.953 -4.106,96.208 12.008,65.222 5.751,151.523 			"/>
			<polygon opacity="0.9" fill="#ED4798" enable-background="new    " points="150.343,83.504 161.318,46.33 179.73,83.504 
				170.539,100.186 			"/>
			<polygon fill="#ED2A25" points="-4.335,151.5 24.728,111.611 36.353,151.5 			"/>
			<polygon opacity="0.9" fill="#ED2A25" enable-background="new    " points="25.563,112.09 -3.5,132.034 -3.5,151.979 			"/>
			<polygon fill="#754D9E" points="28.524,126.141 44.273,98.602 69.859,151.977 36.353,153.005 			"/>
			<polygon fill="#426EB5" points="54.644,151.21 73.525,108.809 90.799,151.523 			"/>
			<polygon opacity="0.9" fill="#754D9E" enable-background="new    " points="44.273,98.602 69,118.969 61.794,135.15 			"/>
			<polygon fill="#F8ED40" points="84.307,135.139 102.234,100.168 122.43,151.5 91.057,151.5 			"/>
			<polygon opacity="0.9" fill="#426EB5" enable-background="new    " points="73.525,108.809 91.766,120.878 84.307,135.378 			"/>
			<polygon fill="#F7961D" points="111.099,151.5 134.309,117.835 153.968,151.5 			"/>
			<polygon opacity="0.9" fill="#F8ED40" enable-background="new    " points="102.234,100.525 128.032,127.693 118.319,141.507 			
				"/>
			<polygon opacity="0.9" fill="#F7961D" enable-background="new    " points="134.309,118.312 155.563,124.1 147.068,140.162 			
				"/>
			<polygon fill="#06B052" points="141.061,152.55 164.012,103.68 187.475,151.979 			"/>
			<polygon fill="#ED4798" points="180.76,138.154 205.113,105.811 224.4,151.523 187.475,151.979 			"/>
			<polygon opacity="0.9" fill="#06B052" enable-background="new    " points="164.012,103.68 188.318,128.115 180.76,138.154 			
				"/>
			<polygon fill="#F8ED40" points="215.938,151.5 236.453,114.938 267.02,151.5 			"/>
			<polygon fill="#426EB5" points="255.686,151.5 286.971,100.503 315.945,151.5 			"/>
			<polygon opacity="0.9" fill="#ED4798" enable-background="new    " points="205.113,105.811 230.516,126.001 220.878,143.176 			
				"/>
			<polygon opacity="0.9" fill="#F8ED40" enable-background="new    " points="236.453,115.417 269.848,128.895 260.482,144.159 			
				"/>
			<polygon fill="#F7961D" points="299.939,123.58 316.548,99.02 325.5,123.592 325.5,151.5 315.689,151.5 			"/>
			<polygon opacity="0.9" fill="#426EB5" enable-background="new    " points="286.971,100.98 308.507,110.861 299.939,123.818 			
				"/>
			<polygon opacity="0.9" fill="#F7961D" enable-background="new    " points="316.259,99.139 324.382,107.998 324.419,122.175 			
				"/>
			<polygon fill="#426EB5" points="187.475,50.433 176.166,76.307 179.73,83.504 186.04,70.379 			"/>
		</g>
	</g>
	<rect y="1" display="inline" fill="#FFFFFF" width="320" height="149.5"/>
	<g display="inline">
		<polygon opacity="0.7" fill="#F8ED40" enable-background="new    " points="59.68,150.5 112.473,71.31 172.652,150.5 		"/>
		<polygon opacity="0.6" fill="#426EB5" enable-background="new    " points="-53.32,150.5 -0.527,71.31 59.652,150.5 		"/>
		<polygon opacity="0.7" fill="#F8ED40" enable-background="new    " points="266.68,150.5 319.473,71.31 379.652,150.5 		"/>
		<polygon opacity="0.6" fill="#ED2A25" enable-background="new    " points="-10.479,150.5 56.482,50.06 132.811,150.5 		"/>
		<polygon opacity="0.5" fill="#ED4798" enable-background="new    " points="10.729,150.5 48.522,93.811 91.604,150.5 		"/>
		<polygon opacity="0.7" fill="#754D9E" enable-background="new    " points="155.68,150.5 208.473,71.31 268.652,150.5 		"/>
		<polygon opacity="0.6" fill="#06B052" enable-background="new    " points="88.969,150.5 155.165,51.205 230.621,150.5 		"/>
		<polygon opacity="0.6" fill="#426EB5" enable-background="new    " points="189.695,150.5 255.893,51.205 331.348,150.5 		"/>
		<polygon opacity="0.8" fill="#F7961D" enable-background="new    " points="222.729,150.5 260.521,93.811 303.604,150.5 		"/>
		<polygon opacity="0.6" fill="#ED4798" enable-background="new    " points="48.522,93.311 84.701,112.468 74.598,127.623 		"/>
		<polygon opacity="0.8" fill="#F8ED40" enable-background="new    " points="112.473,70.81 83.445,85.041 93.854,98.738 		"/>
		<polygon opacity="0.6" fill="#F7961D" enable-background="new    " points="260.521,93.311 234.783,105.432 244.189,117.811 		"/>
		<polygon fill="#F8ED40" points="90.198,148.25 109.43,119.645 132.811,150.5 91.5,150.5 		"/>
		<polyline fill="#F7961D" points="226.634,144.051 244.159,118.061 268.652,150.5 230.5,150.5 226.634,145.003 		"/>
		<polygon opacity="0.7" fill="#426EB5" enable-background="new    " points="-0.527,71.31 31.721,87.202 22.294,101.341 		"/>
		<polygon opacity="0.9" fill="#F8ED40" enable-background="new    " points="319.473,71.31 281.871,85.393 296.9,105.169 		"/>
		<polygon opacity="0.8" fill="#754D9E" enable-background="new    " points="208.473,71.31 226.634,95.208 235.48,81.82 		"/>
	</g>
</g>
<g id="Layer_2_1_">
	<polygon opacity="0.4" fill="#F7961D" enable-background="new    " points="84.09,151.543 98.448,9.81 119.677,151.543 	"/>
	<polygon opacity="0.4" fill="#F8ED40" enable-background="new    " points="242.98,151.543 256.869,2.902 277.407,151.543 	"/>
	<g>
		<rect x="287.381" y="32.311" opacity="0.5" fill="#754D9E" enable-background="new    " width="9.848" height="119.332"/>
		<rect x="26.955" y="52.06" opacity="0.5" fill="#F7961D" enable-background="new    " width="24.551" height="101.775"/>
		<rect x="2.306" y="18.275" opacity="0.5" fill="#F8ED40" enable-background="new    " width="24.552" height="135.56"/>
		<rect x="51.486" y="42.405" opacity="0.5" fill="#ED2A25" enable-background="new    " width="36.747" height="111.432"/>
		<rect x="88.233" y="65.828" opacity="0.5" fill="#ED4798" enable-background="new    " width="24.539" height="88.009"/>
		<rect x="125.007" y="60.258" opacity="0.5" fill="#754D9E" enable-background="new    " width="24.591" height="93.579"/>
		<rect x="149.675" y="39.059" opacity="0.5" fill="#426EB5" enable-background="new    " width="24.592" height="114.778"/>
		<rect x="174.361" y="9.86" opacity="0.5" fill="#06B052" enable-background="new    " width="24.591" height="143.977"/>
		<rect x="198.981" y="21.666" opacity="0.5" fill="#F8ED40" enable-background="new    " width="12.296" height="132.171"/>
		<rect x="211.277" y="42.405" opacity="0.5" fill="#F7961D" enable-background="new    " width="20.154" height="111.432"/>
		<rect x="231.432" y="71.963" opacity="0.5" fill="#ED2A25" enable-background="new    " width="20.154" height="81.874"/>
		<rect x="251.586" y="61.455" opacity="0.5" fill="#ED4798" enable-background="new    " width="21.1" height="92.324"/>
		<rect x="297.366" y="14.584" opacity="0.5" fill="#06B052" enable-background="new    " width="24.746" height="137.015"/>
		<rect x="272.686" y="7.694" opacity="0.5" fill="#F3BCD1" enable-background="new    " width="14.769" height="143.919"/>
		<rect x="112.712" y="39.059" opacity="0.5" fill="#F3BCD1" enable-background="new    " width="12.295" height="114.72"/>
	</g>
	<g opacity="0.9">
		<rect x="0.014" y="48.146" opacity="0.6" fill="#06B052" enable-background="new    " width="24.746" height="103.396"/>
		<rect x="24.565" y="70.037" opacity="0.6" fill="#426EB5" enable-background="new    " width="24.746" height="81.506"/>
		<rect x="49.149" y="50.993" opacity="0.6" fill="#754D9E" enable-background="new    " width="24.746" height="100.55"/>
		<rect x="73.665" y="71.67" opacity="0.6" fill="#F3BCD1" enable-background="new    " width="24.745" height="79.873"/>
		<rect x="98.203" y="88.74" opacity="0.6" fill="#ED4798" enable-background="new    " width="24.746" height="62.803"/>
		<rect x="122.814" y="71.67" opacity="0.6" fill="#ED2A25" enable-background="new    " width="24.746" height="79.873"/>
		<rect x="147.403" y="58.092" opacity="0.6" fill="#F7961D" enable-background="new    " width="24.745" height="93.452"/>
		<rect x="172.089" y="51.132" opacity="0.6" fill="#F8ED40" enable-background="new    " width="24.745" height="100.412"/>
		<rect x="196.696" y="63.92" opacity="0.6" fill="#06B052" enable-background="new    " width="24.745" height="87.623"/>
		<rect x="245.886" y="92.366" opacity="0.6" fill="#754D9E" enable-background="new    " width="24.745" height="59.178"/>
		<rect x="270.49" y="53.419" opacity="0.6" fill="#F3BCD1" enable-background="new    " width="24.746" height="98.124"/>
		<rect x="295.217" y="39.873" opacity="0.6" fill="#ED4798" enable-background="new    " width="15.156" height="111.67"/>
		<rect x="310.243" y="16.109" opacity="0.6" fill="#754D9E" enable-background="new    " width="9.673" height="135.434"/>
		<rect x="221.261" y="81.849" opacity="0.6" fill="#426EB5" enable-background="new    " width="24.745" height="69.694"/>
	</g>
	<g opacity="0.9">
		<rect x="0.007" y="98.95" opacity="0.7" fill="#F7961D" enable-background="new    " width="28.407" height="52.594"/>
		<rect x="28.414" y="106.885" opacity="0.7" fill="#ED2A25" enable-background="new    " width="26.017" height="44.658"/>
		<rect x="54.431" y="87.994" opacity="0.7" fill="#ED4798" enable-background="new    " width="26.628" height="63.55"/>
		<rect x="81.059" y="113.837" opacity="0.7" fill="#754D9E" enable-background="new    " width="27.244" height="37.706"/>
		<rect x="108.303" y="121.457" opacity="0.7" fill="#426EB5" enable-background="new    " width="26.586" height="30.086"/>
		<rect x="234.512" y="121.389" opacity="0.7" fill="#ED2A25" enable-background="new    " width="26.273" height="30.087"/>
		<rect x="260.785" y="107.427" opacity="0.7" fill="#ED4798" enable-background="new    " width="27.949" height="44.049"/>
		<rect x="288.735" y="91.369" opacity="0.7" fill="#754D9E" enable-background="new    " width="32.192" height="59.869"/>
		<rect x="134.889" y="100.451" opacity="0.7" fill="#06B052" enable-background="new    " width="26.507" height="51.093"/>
		<rect x="216.252" y="100.451" opacity="0.7" fill="#F7961D" enable-background="new    " width="18.26" height="51.093"/>
		<rect x="161.396" y="119.769" opacity="0.7" fill="#ED4798" enable-background="new    " width="30.109" height="31.774"/>
		<rect x="191.644" y="93.077" opacity="0.7" fill="#F8ED40" enable-background="new    " width="24.428" height="58.467"/>
	</g>
	<polygon opacity="0.7" fill="#754D9E" enable-background="new    " points="290.867,51.38 292.174,49.379 292.177,51.38 	"/>
</g>
</svg>
