<?xml version="1.0" encoding="utf-8"?>
<!-- Generator: Adobe Illustrator 16.0.4, SVG Export Plug-In . SVG Version: 6.00 Build 0)  -->
<!DOCTYPE svg PUBLIC "-//W3C//DTD SVG 1.1//EN" "http://www.w3.org/Graphics/SVG/1.1/DTD/svg11.dtd">
<svg version="1.1" id="Layer_1" xmlns="http://www.w3.org/2000/svg" xmlns:xlink="http://www.w3.org/1999/xlink" x="0px" y="0px"
	 width="77.816px" height="77.373px" viewBox="0 0 77.816 77.373" enable-background="new 0 0 77.816 77.373" xml:space="preserve">
<g>
	<g>
		<polygon fill="#F3BCD1" points="142.462,76.643 145.265,71.783 142.462,66.927 136.853,66.927 134.047,71.783 136.853,76.643 		
			"/>
		<polygon opacity="0.04" points="142.462,66.927 136.853,76.643 142.462,76.643 145.265,71.783 		"/>
	</g>
	<g>
		<polygon fill="#F3BCD1" points="111.112,76.643 108.308,71.783 111.112,66.927 116.721,66.927 119.527,71.783 116.721,76.643 		
			"/>
		<polygon opacity="0.04" points="111.112,66.927 116.721,76.643 111.112,76.643 108.308,71.783 		"/>
	</g>
	<g>
		<polygon fill="#F3BCD1" points="94.246,56.609 91.665,52.138 94.246,47.667 99.409,47.667 101.99,52.138 99.409,56.609 		"/>
		<polygon fill="#F3BCD1" points="152.986,57.213 150.404,52.741 152.986,48.271 158.149,48.271 160.73,52.741 158.149,57.213 		"/>
		<polygon opacity="0.05" points="94.246,56.689 91.665,52.219 94.246,47.748 99.409,47.748 101.99,52.219 99.409,56.689 		"/>
		<polygon opacity="0.05" points="152.986,57.213 150.404,52.741 152.986,48.271 158.149,48.271 160.73,52.741 158.149,57.213 		"/>
	</g>
	<polygon fill="#F3BCD1" points="106.894,69.561 87.44,35.865 106.894,2.171 145.801,2.171 165.256,35.865 145.801,69.561 	"/>
	<polygon opacity="0.02" fill="#FFFFFF" points="106.894,2.171 145.801,69.561 106.894,69.561 87.44,35.865 	"/>
	<polygon opacity="0.01" points="125.776,34.877 106.894,69.561 145.801,69.561 	"/>
	<polygon opacity="0.02" points="125.776,34.877 145.801,2.171 106.894,2.171 	"/>
	<g>
		<path fill="#575757" d="M107.755,10.822c0,0,2.622-5.302,11.319-5.302"/>
		<path fill="#575757" d="M140.811,10.14c0,0-2.622-5.302-11.32-5.302"/>
		<circle opacity="0.3" fill="#D71E40" cx="105.542" cy="39.161" r="11.96"/>
		<circle opacity="0.3" fill="#D71E40" cx="107.201" cy="36.578" r="10.127"/>
		<circle opacity="0.3" fill="#D71E40" cx="143.48" cy="36.578" r="10.127"/>
		<circle opacity="0.3" fill="#D71E40" cx="144.83" cy="39.161" r="11.96"/>
		<circle fill="#FFFFFF" cx="138.297" cy="28.733" r="9.792"/>
		<path fill="#575757" d="M128.535,27.657c0,0,1.272-8.717,9.792-8.717c8.521,0,9.733,8.717,9.733,8.717s-2.624-7.88-9.733-7.88
			C131.218,19.777,128.535,27.657,128.535,27.657z"/>
		<circle fill="#575757" cx="138.297" cy="28.733" r="1.884"/>
		<path opacity="0.1" fill="#FFFFFF" d="M128.832,34.545c0,0,5.027,5.743,9.763,5.743c4.737,0,9.167-5.743,9.167-5.743
			s-3.401,7.22-9.167,7.22S128.832,34.545,128.832,34.545z"/>
		<path opacity="0.4" fill="#FFFFFF" d="M136.96,28.976c0,0,0.128,1.328,1.396,1.328c1.269,0,1.277-1.328,1.277-1.328
			s-0.363,0.664-1.337,0.664C137.324,29.64,136.96,28.976,136.96,28.976z"/>
		<circle fill="#FFFFFF" cx="112.84" cy="28.733" r="9.792"/>
		<path fill="#575757" d="M103.048,27.657c0,0,1.272-8.717,9.792-8.717c8.519,0,9.732,8.717,9.732,8.717s-2.624-7.88-9.732-7.88
			C105.731,19.777,103.048,27.657,103.048,27.657z"/>
		<circle fill="#575757" cx="113.197" cy="28.733" r="1.719"/>
		<path opacity="0.1" fill="#FFFFFF" d="M103.048,34.545c0,0,5.025,5.743,9.762,5.743c4.736,0,9.167-5.743,9.167-5.743
			s-3.402,7.22-9.167,7.22C107.044,41.765,103.048,34.545,103.048,34.545z"/>
		<path opacity="0.4" fill="#FFFFFF" d="M111.922,28.733c0,0,0.117,1.212,1.275,1.212c1.158,0,1.166-1.212,1.166-1.212
			s-0.333,0.605-1.22,0.605C112.254,29.339,111.922,28.733,111.922,28.733z"/>
		<path opacity="0.4" d="M130.396,55.137c0,0.549-0.445,0.993-0.994,0.993h-7.479c-0.549,0-0.993-0.444-0.993-0.993l0,0
			c0-0.549,0.444-0.993,0.993-0.993h7.479C129.951,54.144,130.396,54.588,130.396,55.137L130.396,55.137z"/>
	</g>
</g>
<g>
	<g>
		<polygon fill="#754D9E" points="22.493,279.947 19.69,275.089 22.493,270.231 28.102,270.231 30.909,275.089 28.102,279.947 		"/>
		<polygon opacity="0.05" points="22.493,270.231 28.102,279.947 22.493,279.947 19.69,275.089 		"/>
	</g>
	<g>
		<polygon fill="#754D9E" points="55.135,279.947 57.804,275.321 55.135,270.696 49.794,270.696 47.122,275.321 49.794,279.947 		
			"/>
		<polygon opacity="0.05" points="55.135,270.696 49.794,279.947 55.135,279.947 57.804,275.321 		"/>
	</g>
	<polygon fill="#754D9E" points="7.44,260.757 4.858,256.286 7.44,251.814 12.603,251.814 15.184,256.286 12.603,260.757 	"/>
	<polygon fill="#754D9E" points="64.974,260.757 62.392,256.286 64.974,251.814 70.137,251.814 72.718,256.286 70.137,260.757 	"/>
	<polygon opacity="0.05" points="64.974,260.757 62.392,256.286 64.974,251.814 70.137,251.814 72.718,256.286 70.137,260.757 	"/>
	<polygon opacity="0.05" points="7.44,260.757 4.858,256.286 7.44,251.814 12.603,251.814 15.184,256.286 12.603,260.757 	"/>
	<polygon fill="#754D9E" points="19.454,272.475 0,238.779 19.454,205.083 58.361,205.083 77.816,238.779 58.361,272.475 	"/>
	<polygon opacity="0.02" fill="#FFFFFF" points="19.454,205.083 58.361,272.475 19.454,272.475 0,238.779 	"/>
	<polygon opacity="0.03" points="38.336,237.79 19.454,272.475 58.361,272.475 	"/>
	<polygon opacity="0.03" points="38.336,237.79 58.361,205.083 19.454,205.083 	"/>
	<g>
		<ellipse opacity="0.3" cx="26.148" cy="231.828" rx="11.344" ry="12.833"/>
		<ellipse opacity="0.3" cx="52.023" cy="231.828" rx="11.344" ry="12.833"/>
		<g>
			<ellipse opacity="0.1" fill="#FFFFFF" cx="26.524" cy="231.979" rx="12.838" ry="14.296"/>
			<ellipse opacity="0.1" fill="#FFFFFF" cx="52.136" cy="231.979" rx="12.839" ry="14.296"/>
		</g>
		<path fill="#FFFFFF" stroke="#753D77" stroke-miterlimit="10" d="M16.926,229.534c0,0,0,12.04,10.159,12.04
			s10.159-12.04,10.159-12.04H16.926z"/>
		<path fill="#FFFFFF" stroke="#773D78" stroke-miterlimit="10" d="M41.154,229.534c0,0,0,12.04,10.159,12.04
			s10.159-12.04,10.159-12.04H41.154z"/>
		<ellipse fill="#A254A0" cx="24.048" cy="230.48" rx="6.236" ry="4.461"/>
		<ellipse fill="#A254A0" cx="48.718" cy="230.48" rx="6.178" ry="4.461"/>
		<ellipse fill="#050404" cx="23.924" cy="231.146" rx="4.845" ry="2.989"/>
		<ellipse fill="#050404" cx="48.708" cy="231.146" rx="4.619" ry="2.989"/>
		
			<ellipse transform="matrix(0.007 1 -1 0.007 253.2278 205.9991)" fill="#FFFFFF" cx="22.892" cy="230.502" rx="1.397" ry="1.031"/>
		
			<ellipse transform="matrix(0.007 1 -1 0.007 277.5827 181.4733)" fill="#FFFFFF" cx="47.418" cy="230.502" rx="1.397" ry="1.014"/>
		<g>
			<path fill="#8E4D90" d="M40.568,231.159h23.136c0,0-0.697-12.282-11.568-12.282C41.266,218.877,40.568,231.159,40.568,231.159z"
				/>
			<path fill="#8E4D90" d="M14.58,231.159h23.136c0,0-0.697-12.282-11.568-12.282C15.277,218.877,14.58,231.159,14.58,231.159z"/>
		</g>
		<ellipse opacity="0.1" fill="#FFFFFF" cx="37.508" cy="247.912" rx="1.693" ry="1.865"/>
		<ellipse opacity="0.1" fill="#FFFFFF" cx="40.846" cy="247.912" rx="1.694" ry="1.865"/>
		<ellipse cx="37.668" cy="247.64" rx="1.079" ry="1.187"/>
		<ellipse cx="40.748" cy="247.64" rx="1.065" ry="1.187"/>
		<path fill="none" stroke="#000000" stroke-miterlimit="10" d="M37.876,258.403c0.347-0.587,1.011-1.026,1.545-1.412
			c0.441-0.319,0.7-0.405,1.25-0.403c0.548,0.001,0.952,0.008,1.467,0.179c0.389,0.13,0.845,0.316,1.198,0.529"/>
		<path opacity="0.3" fill="none" stroke="#000000" stroke-miterlimit="10" d="M14.355,231.159c0,0,0.513-12.282,11.944-12.282
			c11.432,0,11.193,12.282,11.193,12.282"/>
		<path opacity="0.3" fill="none" stroke="#000000" stroke-miterlimit="10" d="M40.455,231.159c0,0,0.512-12.282,11.944-12.282
			c11.432,0,11.192,12.282,11.192,12.282"/>
	</g>
</g>
<g>
	<g>
		<polygon fill="#ED2A25" points="55.13,177.489 57.933,172.632 55.13,167.773 49.521,167.773 46.715,172.632 49.521,177.489 		"/>
		<polygon opacity="0.04" points="55.13,167.773 49.521,177.489 55.13,177.489 57.933,172.632 		"/>
	</g>
	<g>
		<polygon fill="#ED2A25" points="22.779,177.489 19.977,172.632 22.779,167.773 28.389,167.773 31.194,172.632 28.389,177.489 		
			"/>
		<polygon opacity="0.04" points="22.779,167.773 28.389,177.489 22.779,177.489 19.977,172.632 		"/>
	</g>
	<g>
		<polygon fill="#ED2A25" points="5.47,154.567 2.889,150.096 5.47,145.625 10.633,145.625 13.215,150.096 10.633,154.567 		"/>
		<polygon opacity="0.05" points="5.47,154.566 2.889,150.096 5.47,145.625 10.633,145.625 13.215,150.096 10.633,154.566 		"/>
	</g>
	<g>
		<polygon fill="#ED2A25" points="66.623,155.17 64.041,150.699 66.623,146.229 71.786,146.229 74.367,150.699 71.786,155.17 		"/>
		<polygon opacity="0.05" points="66.623,155.17 64.041,150.699 66.623,146.229 71.786,146.229 74.367,150.699 71.786,155.17 		"/>
	</g>
	<polygon fill="#ED2A25" points="19.454,169.652 0,135.956 19.454,102.262 58.361,102.262 77.816,135.956 58.361,169.652 	"/>
	<polygon opacity="0.02" fill="#FFFFFF" points="19.454,102.262 58.361,169.652 19.454,169.652 0,135.956 	"/>
	<polygon opacity="0.02" points="38.336,134.968 19.454,169.652 58.361,169.652 	"/>
	<polygon opacity="0.03" points="38.336,134.968 58.361,102.262 19.454,102.262 	"/>
	<path d="M30.987,153.736c0,0,4.131-5.589,7.65-5.589c3.52,0,7.65,5.196,7.65,5.196s-3.771-6.409-7.65-6.409s-7.65,6.409-7.65,6.409
		"/>
	<path opacity="0.8" d="M35.952,124.752c0,0,0.241-3.237-1.546-5.025c-1.788-1.787-6.765-5.7-11.596-5.7s-5.315,1.449-4.349,2.415
		c0.966,0.967,8.166,1.691,10.63,4.155C31.555,123.061,35.952,124.752,35.952,124.752z"/>
	<ellipse fill="#FFFFFF" cx="30.117" cy="128.134" rx="5.17" ry="6.958"/>
	<path opacity="0.6" d="M25.05,129.641c0,0,1.02,5.45,5.033,5.45s5.082-5.45,5.082-5.45s-2.054,4.573-5.082,4.573
		S25.05,129.641,25.05,129.641z"/>
	<path opacity="0.1" fill="#FFFFFF" d="M25.05,129.641c0,0,0.366,6.306,5.058,6.306c4.692,0,5.057-6.306,5.057-6.306
		s-1.079,5.45-5.082,5.45C26.08,135.091,25.05,129.641,25.05,129.641z"/>
	<ellipse fill="#C32127" cx="30.19" cy="128.155" rx="2.527" ry="4.596"/>
	<path fill="#C32127" d="M25.418,125.697c0,0,1.083-4.276,4.771-4.276c3.689,0,4.772,4.276,4.772,4.276s-1.188-2.686-4.699-2.686
		C26.75,123.012,25.418,125.697,25.418,125.697z"/>
	<circle fill="#FFFFFF" cx="30.19" cy="128.134" r="0.528"/>
	<path opacity="0.8" d="M42.121,125.054c0,0-0.242-3.237,1.546-5.025c1.788-1.787,6.764-5.701,11.596-5.701
		c4.832,0,5.315,1.449,4.349,2.416c-0.966,0.966-8.166,1.69-10.629,4.155C46.518,123.362,42.121,125.054,42.121,125.054z"/>
	<ellipse fill="#FFFFFF" cx="47.689" cy="128.436" rx="5.17" ry="6.958"/>
	<path opacity="0.6" d="M42.631,129.941c0,0,1.02,5.45,5.033,5.45s5.082-5.45,5.082-5.45s-2.054,4.573-5.082,4.573
		C44.636,134.515,42.631,129.941,42.631,129.941z"/>
	<path opacity="0.1" fill="#FFFFFF" d="M42.631,129.941c0,0,0.366,6.307,5.058,6.307s5.057-6.307,5.057-6.307s-1.08,5.45-5.082,5.45
		S42.631,129.941,42.631,129.941z"/>
	<ellipse fill="#C32127" cx="47.689" cy="128.457" rx="2.527" ry="4.596"/>
	<path fill="#C32127" d="M42.917,126c0,0,1.083-4.277,4.772-4.277c3.688,0,4.772,4.277,4.772,4.277s-1.188-2.687-4.7-2.687
		S42.917,126,42.917,126z"/>
	<circle fill="#FFFFFF" cx="47.689" cy="128.436" r="0.528"/>
</g>
<g>
	<g>
		<polygon fill="#ED4798" points="109.767,177.887 106.964,173.029 109.767,168.171 115.376,168.171 118.183,173.029 
			115.376,177.887 		"/>
		<polygon opacity="0.03" points="109.767,168.171 115.376,177.887 109.767,177.887 106.964,173.029 		"/>
	</g>
	<g>
		<polygon fill="#ED4798" points="142.409,177.887 145.078,173.262 142.409,168.637 137.068,168.637 134.396,173.262 
			137.068,177.887 		"/>
		<polygon opacity="0.03" points="142.409,168.637 137.068,177.887 142.409,177.887 145.078,173.262 		"/>
	</g>
	<g>
		<polygon fill="#ED4798" points="93.402,155.17 90.82,150.699 93.402,146.229 98.565,146.229 101.146,150.699 98.565,155.17 		"/>
		<polygon opacity="0.05" points="93.402,155.17 90.82,150.699 93.402,146.229 98.565,146.229 101.146,150.699 98.565,155.17 		"/>
	</g>
	<g>
		<polygon fill="#ED4798" points="154.252,155.17 151.671,150.699 154.252,146.229 159.416,146.229 161.997,150.699 159.416,155.17 
					"/>
		<polygon opacity="0.05" points="154.252,155.17 151.671,150.699 154.252,146.229 159.416,146.229 161.997,150.699 159.416,155.17 
					"/>
	</g>
	<polygon fill="#ED4798" points="106.894,169.652 87.44,135.956 106.894,102.262 145.801,102.262 165.256,135.956 145.801,169.652 	
		"/>
	<polygon opacity="0.02" fill="#FFFFFF" points="106.894,102.262 145.801,169.652 106.894,169.652 87.44,135.956 	"/>
	<polygon opacity="0.03" points="125.776,134.968 106.894,169.652 145.801,169.652 	"/>
	<polygon opacity="0.03" points="125.776,134.968 145.801,102.262 106.894,102.262 	"/>
	
		<ellipse transform="matrix(0.9999 -0.012 0.012 0.9999 -1.4833 1.4059)" fill="#FFFFFF" cx="116.062" cy="123.94" rx="7.708" ry="7.841"/>
	
		<ellipse transform="matrix(0.9999 -0.0121 0.0121 0.9999 -1.4745 1.6363)" fill="#FFFFFF" cx="134.495" cy="122.679" rx="7.708" ry="7.842"/>
	<path fill="#4A3E4D" d="M112.173,112.984c0,0,3.687-5.776,7.087-2.457"/>
	<path fill="#4A3E4D" d="M137.721,111.621c0,0-4.545-5.482-7.67-2.281"/>
	<path fill="#E10686" d="M120.58,119.815c-0.15-0.047-0.291-0.083-0.425-0.111c-1.071-0.226-1.681,0.128-2.417,0.706
		c-0.44-0.824-0.858-1.395-1.928-1.619c-0.135-0.028-0.278-0.051-0.434-0.069c-0.947-0.104-2.196,0.521-2.667,2.119l-0.114,0.541
		c-0.205,1.581,0.567,3.748,3.494,6.878c3.94-1.688,5.518-3.361,5.966-4.891l0.113-0.543
		C122.382,121.174,121.489,120.1,120.58,119.815z"/>
	<path fill="#E10686" d="M134.461,117.926c-0.152,0.04-0.292,0.082-0.419,0.126c-1.031,0.369-1.368,0.989-1.694,1.867
		c-0.806-0.473-1.459-0.741-2.488-0.374c-0.131,0.046-0.264,0.103-0.407,0.167c-0.861,0.406-1.601,1.59-1.167,3.2l0.184,0.521
		c0.654,1.454,2.442,2.898,6.573,4.039c2.479-3.498,2.95-5.75,2.532-7.287l-0.185-0.521
		C136.706,118.143,135.385,117.695,134.461,117.926z"/>
	<path opacity="0.2" fill="#FFFFFF" d="M108.543,125.67c0,0,1.235,6.111,7.614,6.111c6.377,0,7.42-6.111,7.42-6.111
		s-3.672,4.321-7.516,4.321C112.218,129.991,108.543,125.67,108.543,125.67z"/>
	<path fill="#4A3E4D" d="M108.457,122.438c0,0,0.932-6.485,7.276-6.485c6.345,0,7.878,6.01,7.878,6.01s-2.416-5.142-7.878-5.142
		C110.271,116.82,108.457,122.438,108.457,122.438z"/>
	<path fill="#4A3E4D" d="M126.786,121.938c0,0,0.719-7.097,7.708-7.097c6.99,0,7.708,7.097,7.708,7.097s-2.542-6.307-7.708-6.307
		C129.328,115.631,126.786,121.938,126.786,121.938z"/>
	<g>
		<path fill="#ED4798" d="M105.85,129.609c0,0,3.707-0.172,10.004,0.479c6.296,0.649,7.634,2.608,7.634,2.608l-7.917,0.143
			L105.85,129.609z"/>
		<path fill="#ED4798" d="M145.519,126.909c0,0-3.69,0.394-9.814,1.994c-6.125,1.601-7.148,3.739-7.148,3.739l7.847-1.063
			L145.519,126.909z"/>
	</g>
	<path fill="#FFFFFF" d="M116.687,120.405c0,0-0.336-1.21-1.627-1.21c-1.29,0-1.786,1.94-1.786,1.94s0.374-0.97,1.706-0.97
		C116.313,120.166,116.687,120.405,116.687,120.405z"/>
	<path fill="#FFFFFF" d="M136.347,119.599c0,0-0.335-1.21-1.625-1.21c-1.291,0-1.788,1.941-1.788,1.941s0.373-0.971,1.706-0.971
		C135.974,119.359,136.347,119.599,136.347,119.599z"/>
	<g>
		<path fill="none" stroke="#4A3E4D" stroke-width="0.5" stroke-miterlimit="10" d="M104.256,130.438
			c0,0,2.045,13.527,21.556,13.527c19.512,0,19.634-13.527,19.634-13.527"/>
		<path fill="none" stroke="#4A3E4D" stroke-width="0.5" stroke-miterlimit="10" d="M100.842,132.997c0,0,3.82-3.575,5.932-3.575"/>
		<path fill="none" stroke="#4A3E4D" stroke-width="0.5" stroke-miterlimit="10" d="M149.021,132.428c0,0-3.17-2.519-6.014-2.519"/>
	</g>
	<path opacity="0.1" fill="#4A3E4D" d="M114.668,143.884c0,0,6.294,2.274,11.184,2.274c4.889,0,10.169-2.274,10.169-2.274
		s-5.701,5.441-10.081,4.792C121.56,148.027,114.668,143.884,114.668,143.884z"/>
	<path opacity="0.2" fill="#FFFFFF" d="M111.628,140.979c0,0,5.842,3.352,14.224,3.352c8.382,0,13.318-3.352,13.318-3.352
		s-6.539,4.937-13.229,4.937C119.251,145.915,111.628,140.979,111.628,140.979z"/>
</g>
<g>
	<g>
		<polygon fill="#F8ED40" points="54.583,77.373 57.386,72.516 54.583,67.658 48.974,67.658 46.168,72.516 48.974,77.373 		"/>
		<polygon opacity="0.04" points="54.583,67.658 48.974,77.373 54.583,77.373 57.386,72.516 		"/>
	</g>
	<g>
		<polygon fill="#F8ED40" points="23.232,77.373 20.429,72.516 23.232,67.658 28.842,67.658 31.647,72.516 28.842,77.373 		"/>
		<polygon opacity="0.04" points="23.232,67.658 28.842,77.373 23.232,77.373 20.429,72.516 		"/>
	</g>
	<polygon fill="#F8ED40" points="6.234,55.291 3.652,50.819 6.234,46.349 11.396,46.349 13.978,50.819 11.396,55.291 	"/>
	<polygon fill="#F8ED40" points="66.18,55.593 63.598,51.121 66.18,46.65 71.343,46.65 73.924,51.121 71.343,55.593 	"/>
	<polygon opacity="0.05" points="6.234,55.291 3.652,50.819 6.234,46.349 11.396,46.349 13.978,50.819 11.396,55.291 	"/>
	<polygon opacity="0.05" points="66.18,55.592 63.598,51.121 66.18,46.65 71.343,46.65 73.924,51.121 71.343,55.592 	"/>
	<polygon fill="#F8ED40" points="19.454,69.561 0,35.865 19.454,2.171 58.361,2.171 77.816,35.865 58.361,69.561 	"/>
	<polygon opacity="0.02" fill="#020202" points="19.454,2.171 38.908,35.318 58.361,2.171 	"/>
	<polygon opacity="0.03" fill="#020202" points="38.908,35.318 19.454,69.561 58.361,69.561 	"/>
	<polygon opacity="0.02" fill="#020202" points="19.454,2.171 38.908,35.318 19.454,69.561 0,35.865 	"/>
	<path opacity="0.4" fill="none" stroke="#000000" stroke-miterlimit="10" d="M60.718,23.36c0,0,4.345,2.92,4.345,5.146"/>
	<g>
		<ellipse fill="#FFFFFF" cx="30.294" cy="20.44" rx="7.439" ry="8.669"/>
		<ellipse fill="#FFFFFF" cx="46.829" cy="20.44" rx="7.439" ry="8.669"/>
		<path opacity="0.1" d="M25.73,10.098c0,0,3.687-5.776,7.086-2.457"/>
		<path opacity="0.1" d="M51.277,8.734c0,0-4.545-5.482-7.67-2.281"/>
		<path fill="#575757" d="M22.717,18.257c0,0,0.931-6.486,7.275-6.486c6.345,0,7.879,6.011,7.879,6.011s-2.416-5.143-7.879-5.143
			C24.531,12.639,22.717,18.257,22.717,18.257z"/>
		<path fill="#575757" d="M39.251,18.257c0,0,0.932-6.486,7.276-6.486c6.345,0,7.878,6.011,7.878,6.011s-2.416-5.143-7.878-5.143
			C41.066,12.639,39.251,18.257,39.251,18.257z"/>
		<ellipse fill="#F6EB0F" cx="29.831" cy="22.819" rx="6.032" ry="6.485"/>
		<ellipse fill="#F6EB0F" cx="47.432" cy="22.819" rx="6.032" ry="6.485"/>
		<circle fill="#575757" cx="29.991" cy="21.602" r="3.87"/>
		<circle fill="#575757" cx="46.828" cy="21.602" r="3.835"/>
		<ellipse fill="#FFFFFF" cx="27.664" cy="19.349" rx="0.754" ry="1.092"/>
		<ellipse fill="#FFFFFF" cx="49.373" cy="18.858" rx="0.754" ry="1.091"/>
		<path opacity="0.4" fill="none" stroke="#000000" stroke-miterlimit="10" d="M16.908,25.245c0,0,10.271,18.452,22.752,18.452
			c12.48,0,23.23-18.452,23.23-18.452"/>
		<path opacity="0.4" fill="none" stroke="#000000" stroke-miterlimit="10" d="M19.421,23.36c0,0-4.346,2.92-4.346,5.146"/>
		<path fill="#FBED27" d="M43.199,28.007c0,0,11.069-2.023,11.069-5.868s2.197,4.807,1.136,5.868c-1.061,1.061-5.05,3.78-6.784,3.78
			C46.886,31.787,43.199,28.007,43.199,28.007z"/>
		<path fill="#EEE835" d="M34.081,27.979c0,0-11.069-2.022-11.069-5.868c0-3.844-2.197,4.808-1.136,5.868
			c1.062,1.062,5.051,3.781,6.785,3.781C30.394,31.761,34.081,27.979,34.081,27.979z"/>
	</g>
</g>
<g>
	<g>
		<polygon fill="#F7961D" points="109.533,280.317 106.729,275.459 109.533,270.602 115.143,270.602 117.948,275.459 
			115.143,280.317 		"/>
		<polygon opacity="0.03" points="109.533,270.602 115.143,280.317 109.533,280.317 106.729,275.459 		"/>
	</g>
	<g>
		<polygon fill="#F7961D" points="143.174,280.317 145.844,275.692 143.174,271.066 137.834,271.066 135.162,275.692 
			137.834,280.317 		"/>
		<polygon opacity="0.03" points="143.174,271.066 137.834,280.317 143.174,280.317 145.844,275.692 		"/>
	</g>
	<g>
		<polygon fill="#F7961D" points="151.823,262.117 149.242,257.646 151.823,253.176 156.987,253.176 159.568,257.646 
			156.987,262.117 		"/>
		<polygon opacity="0.05" points="151.823,262.117 149.242,257.646 151.823,253.176 156.987,253.176 159.568,257.646 
			156.987,262.117 		"/>
	</g>
	<g>
		<polygon fill="#F7961D" points="95.496,261.815 92.914,257.345 95.496,252.874 100.658,252.874 103.24,257.345 100.658,261.815 		
			"/>
		<polygon opacity="0.05" points="95.496,261.815 92.914,257.345 95.496,252.874 100.658,252.874 103.24,257.345 100.658,261.815 		
			"/>
	</g>
	<polygon fill="#F7961D" points="106.894,272.475 87.44,238.779 106.894,205.083 145.801,205.083 165.256,238.779 145.801,272.475 	
		"/>
	<polygon opacity="0.02" fill="#FFFFFF" points="106.894,205.083 145.801,272.475 106.894,272.475 87.44,238.779 	"/>
	<polygon opacity="0.03" points="125.776,237.79 106.894,272.475 145.801,272.475 	"/>
	<polygon opacity="0.03" points="125.776,237.79 145.801,205.083 106.894,205.083 	"/>
	<g>
		<path fill="none" stroke="#000000" stroke-miterlimit="10" d="M135.598,252.965c0,0,7.824,1.492,7.824-8.304"/>
		<path d="M104.919,214.38c0,0,2.412-5.427,5.578-5.427"/>
		<path d="M146.655,214.38c0,0-2.412-5.427-5.579-5.427"/>
		<g>
			<circle fill="#FFFFFF" cx="110.153" cy="223.535" r="7.713"/>
			<g>
				<ellipse fill="#F5841F" cx="110.374" cy="222.224" rx="4.441" ry="4.774"/>
				<circle fill="#575757" cx="110.491" cy="221.326" r="2.849"/>
				<ellipse fill="#FFFFFF" cx="108.779" cy="219.668" rx="0.555" ry="0.804"/>
			</g>
			<path fill="#575757" d="M101.918,222.956c0,0,1.024-8.24,7.996-8.24c6.973,0,8.659,7.636,8.659,7.636s-2.655-6.533-8.659-6.533
				C103.913,215.818,101.918,222.956,101.918,222.956z"/>
		</g>
		<g>
			<circle fill="#FFFFFF" cx="143.255" cy="223.233" r="7.713"/>
			<g>
				<ellipse fill="#F5841F" cx="144.188" cy="221.922" rx="4.441" ry="4.774"/>
				<circle fill="#575757" cx="144.305" cy="221.024" r="2.849"/>
				<ellipse fill="#FFFFFF" cx="142.592" cy="219.367" rx="0.555" ry="0.803"/>
			</g>
			<path fill="#575757" d="M151.583,223.222c0,0-1.023-8.241-7.996-8.241c-6.973,0-8.658,7.637-8.658,7.637s2.655-6.533,8.658-6.533
				C149.588,216.084,151.583,223.222,151.583,223.222z"/>
		</g>
		<g>
			<path d="M94.722,220.371l-1.415,2.119c0,0,3.537,3.715,3.537,7.074s4.243,11.668,12.021,11.668s13.613-2.654,14.143-7.78
				s2.121-5.657,2.121-5.657h3.183c0,0,2.298,3.183,2.298,5.657c0,2.477,4.42,10.61,14.322,7.78
				c9.9-2.828,11.844-6.542,11.844-11.314c0-4.775,2.121-5.659,3.183-7.249c1.06-1.592,0-2.298,0-2.298h-19.802
				c0,0-7.777,3.535-9.016,3.535c-1.238,0-7.07,0-7.07,0s-6.014-3.535-9.017-3.535C112.048,220.371,94.722,220.371,94.722,220.371z"
				/>
			<path fill="#FFFFFF" d="M103.579,224.649c0,0-5.742,3.326-2.62,6.448c3.121,3.121-1.452-0.125,0.845-2.422
				C104.102,226.378,103.579,224.649,103.579,224.649z"/>
			<path fill="#FFFFFF" d="M135.163,234.223c0,0,0.604,4.131,3.022,4.131c2.417,0,4.231,0,4.231,0s-2.191,0.174-3.627-1.262
				C137.354,235.656,135.163,234.223,135.163,234.223z"/>
			<path fill="#FFFFFF" d="M119.899,233.691c0,0-0.605,4.129-3.022,4.129c-2.418,0-4.232,0-4.232,0s2.192,0.176,3.627-1.26
				C117.708,235.125,119.899,233.691,119.899,233.691z"/>
			<path fill="#FFFFFF" d="M144.381,224.649c0,0,9.639-0.179,9.818,0c0.178,0.18,1.655,2.699,0,3.868
				c-1.657,1.169-1.053-1.975-3.17-1.975C148.914,226.543,144.381,224.649,144.381,224.649z"/>
		</g>
	</g>
</g>
<g>
	<polygon fill="#426EB5" points="22.493,384.443 19.69,379.586 22.493,374.729 28.102,374.729 30.909,379.586 28.102,384.443 	"/>
	<polygon opacity="0.03" points="22.493,374.729 28.102,384.443 22.493,384.443 19.69,379.586 	"/>
	<polygon fill="#426EB5" points="55.135,384.443 57.804,379.819 55.135,375.194 49.794,375.194 47.122,379.819 49.794,384.443 	"/>
	<polygon opacity="0.03" points="55.135,375.194 49.794,384.443 55.135,384.443 57.804,379.819 	"/>
	<polygon fill="#426EB5" points="6.494,364.158 3.913,359.688 6.494,355.217 11.657,355.217 14.238,359.688 11.657,364.158 	"/>
	<polygon fill="#426EB5" points="65.837,364.46 63.256,359.989 65.837,355.519 71,355.519 73.582,359.989 71,364.46 	"/>
	<polygon opacity="0.05" points="65.837,364.46 63.256,359.989 65.837,355.519 71,355.519 73.582,359.989 71,364.46 	"/>
	<polygon opacity="0.05" points="6.494,364.158 3.913,359.688 6.494,355.217 11.657,355.217 14.238,359.688 11.657,364.158 	"/>
	<polygon fill="#426EB5" points="19.454,377.181 0,343.485 19.454,309.79 58.361,309.79 77.816,343.485 58.361,377.181 	"/>
	<polygon opacity="0.02" fill="#FFFFFF" points="19.454,309.79 58.361,377.181 19.454,377.181 0,343.485 	"/>
	<polygon opacity="0.03" points="38.336,342.497 19.454,377.181 58.361,377.181 	"/>
	<polygon opacity="0.03" points="38.336,342.497 58.361,309.79 19.454,309.79 	"/>
	<circle fill="#FFFFFF" cx="52.101" cy="339.02" r="0.835"/>
	<path fill="#575757" d="M57.979,331.247c0,0-0.661,5.285-6.277,5.285c-5.616,0-7.762-5.285-7.762-5.285s3.799,2.642,7.432,2.642
		S57.979,331.247,57.979,331.247z"/>
	<ellipse fill="#FFFFFF" stroke="#000000" stroke-miterlimit="10" cx="27.506" cy="336.076" rx="6.716" ry="10.03"/>
	<ellipse fill="#FFFFFF" stroke="#000000" stroke-miterlimit="10" cx="48.962" cy="335.029" rx="6.716" ry="10.03"/>
	<path fill="#5295CF" d="M28.199,334.265c0,0-3.116,0.251-3.116,1.809s0.201,1.056,1.256,0
		C27.395,335.018,28.199,334.265,28.199,334.265z"/>
	<path fill="#5295CF" d="M51.265,334.265c0,0-3.115,0.251-3.115,1.809s0.201,1.056,1.256,0S51.265,334.265,51.265,334.265z"/>
	<path fill="#426EB5" d="M34.934,323.41c0,0-14.542,16.224-19.146,11.619c-4.604-4.604,3.506-4.499,7.99-8.983
		c4.484-4.484,5.427-5.802,9.046-5.802c3.618,0,3.316,3.934,3.316,4.756S34.934,323.41,34.934,323.41z"/>
	<path fill="#426EB5" d="M41.613,323.41c0,0,14.542,16.224,19.146,11.619c4.604-4.604-3.506-4.499-7.99-8.983
		c-4.484-4.484-5.427-5.802-9.046-5.802c-3.618,0-3.316,3.934-3.316,4.756S41.613,323.41,41.613,323.41z"/>
	<path fill="#426EB5" d="M15.279,342.852c0,0,4.135-0.19,11.159,0.534c7.023,0.725,8.515,2.909,8.515,2.909l-8.831,0.159
		L15.279,342.852z"/>
	<path fill="#426EB5" d="M62.338,339.854c0,0-4.018,0.43-10.683,2.171c-6.668,1.742-7.781,4.07-7.781,4.07l8.542-1.158
		L62.338,339.854z"/>
	<path opacity="0.5" d="M28.065,362.518c0,0,5.404-13.719,10.537-13.719s8.51,10.1,8.51,10.1s-2.836-7.99-8.375-7.99
		C33.198,350.908,28.065,362.518,28.065,362.518z"/>
	<circle fill="#5295CF" cx="29.034" cy="339.02" r="0.835"/>
	<circle fill="#5295CF" cx="51.265" cy="338.184" r="0.835"/>
	<path opacity="0.5" d="M36.146,355.658c0,0,2.729,2.541,5.271,0c2.541-2.541-1.322,1.313-2.635,0
		C37.468,354.345,36.146,355.658,36.146,355.658z"/>
	<path opacity="0.5" d="M34.934,323.41c0,0-10.804,12.253-16.834,12.253s3.055-0.765,8.417-6.126
		C31.879,324.174,34.934,323.41,34.934,323.41z"/>
	<path opacity="0.5" d="M41.651,323.41c0,0,10.804,12.253,16.835,12.253c6.03,0-3.055-0.765-8.418-6.126
		C44.705,324.174,41.651,323.41,41.651,323.41z"/>
	<path opacity="0.1" d="M19.467,342.007c0,0-5.561,10.568,0,10.568C25.028,352.575,19.467,342.007,19.467,342.007z"/>
	<path fill="#FFFFFF" d="M19.467,343.906c0,0-2.65,6.397,0,6.397C22.117,350.304,19.467,343.906,19.467,343.906z"/>
</g>
<g>
	<g>
		<polygon fill="#06B052" points="110.095,384.677 107.291,379.818 110.095,374.961 115.704,374.961 118.51,379.818 
			115.704,384.677 		"/>
		<polygon opacity="0.03" points="110.095,374.961 115.704,384.677 110.095,384.677 107.291,379.818 		"/>
	</g>
	<g>
		<polygon fill="#06B052" points="142.736,384.677 145.405,380.052 142.736,375.427 137.396,375.427 134.724,380.052 
			137.396,384.677 		"/>
		<polygon opacity="0.03" points="142.736,375.427 137.396,384.677 142.736,384.677 145.405,380.052 		"/>
	</g>
	<polygon fill="#06B052" points="153.036,364.61 150.455,360.14 153.036,355.669 158.199,355.669 160.781,360.14 158.199,364.61 	
		"/>
	<polygon fill="#06B052" points="94.095,364.31 91.513,359.838 94.095,355.367 99.257,355.367 101.839,359.838 99.257,364.31 	"/>
	<polygon opacity="0.05" points="94.095,364.31 91.513,359.838 94.095,355.367 99.257,355.367 101.839,359.838 99.257,364.31 	"/>
	<polygon opacity="0.05" points="153.036,364.61 150.455,360.14 153.036,355.669 158.199,355.669 160.781,360.14 158.199,364.61 	
		"/>
	<polygon fill="#06B052" points="106.894,377.181 87.44,343.485 106.894,309.79 145.801,309.79 165.256,343.485 145.801,377.181 	
		"/>
	<polygon opacity="0.02" fill="#FFFFFF" points="106.894,309.79 145.801,377.181 106.894,377.181 87.44,343.485 	"/>
	<polygon opacity="0.03" points="125.776,342.497 106.894,377.181 145.801,377.181 	"/>
	<polygon opacity="0.03" points="125.776,342.497 145.801,309.79 106.894,309.79 	"/>
	<path fill="#575757" d="M106.411,317.25c0,0,10.829,0.21,10.829-3.188"/>
	<path fill="#575757" d="M144.778,317.25c0,0-10.828,0.21-10.828-3.188"/>
	<g>
		<ellipse fill="#FFFFFF" cx="116.495" cy="328.814" rx="5.357" ry="8.132"/>
		<circle fill="#575757" cx="117.029" cy="329.734" r="3.456"/>
	</g>
	<g>
		<ellipse fill="#FFFFFF" cx="135.003" cy="328.814" rx="5.357" ry="8.132"/>
		<circle fill="#575757" cx="135.003" cy="329.734" r="3.457"/>
	</g>
	<path fill="#0EA94B" d="M110.404,333.564c0,0,7.984,3.346,10.714,0.617c2.729-2.73-2.813,4.073-5.899,4.073
		C112.133,338.255,110.404,333.564,110.404,333.564z"/>
	<path fill="#0EA94B" d="M140.436,333.629c0,0-7.983,3.346-10.713,0.617c-2.729-2.73,2.813,4.073,5.899,4.073
		C138.708,338.319,140.436,333.629,140.436,333.629z"/>
	<g>
		<ellipse opacity="0.1" cx="125.939" cy="361.231" rx="6.629" ry="12.799"/>
		<path fill="#FFFFFF" d="M121.118,368.402c0,0,1.847,4.484,4.821,4.484c2.974,0,4.34-4.484,4.34-4.484H121.118z"/>
	</g>
	<path fill="#FFFFFF" d="M145.953,329.864c0,0-2.642,6.376,0,6.376C148.592,336.24,145.953,329.864,145.953,329.864z"/>
	<path fill="#FFFFFF" d="M106.411,321.725c0,0-2.642,6.376,0,6.376C109.051,328.101,106.411,321.725,106.411,321.725z"/>
	<circle fill="#FFFFFF" cx="117.029" cy="329.734" r="0.835"/>
	<circle fill="#FFFFFF" cx="135.004" cy="329.734" r="0.835"/>
</g>
</svg>
