<?xml version="1.0" encoding="utf-8"?>
<!-- Generator: Adobe Illustrator 16.0.4, SVG Export Plug-In . SVG Version: 6.00 Build 0)  -->
<!DOCTYPE svg PUBLIC "-//W3C//DTD SVG 1.1//EN" "http://www.w3.org/Graphics/SVG/1.1/DTD/svg11.dtd">
<svg version="1.1" id="Layer_1" xmlns="http://www.w3.org/2000/svg" xmlns:xlink="http://www.w3.org/1999/xlink" x="0px" y="0px"
	 width="640px" height="1136px" viewBox="0 0 640 1136" enable-background="new 0 0 640 1136" xml:space="preserve">
<line fill="none" stroke="#9E9E9E" stroke-miterlimit="10" x1="326.648" y1="430.763" x2="326.648" y2="517.964"/>
<g>
	<path fill="#9E9E9E" d="M339.116,455.096v-0.384c0-5.628,3.229-8.219,7.034-8.219c4.414,0,6.43,2.718,6.43,7.58v0.991h-11.705
		c0,4.669,2.047,6.716,6.141,6.716c2.174,0,3.711-0.513,5.021-1.151v1.312c-0.991,0.639-2.783,1.343-5.276,1.343
		C341.675,463.283,339.116,460.309,339.116,455.096z M340.907,453.657h9.85c0-3.807-1.504-5.726-4.669-5.726
		C343.529,447.933,341.162,449.532,340.907,453.657z"/>
	<path fill="#9E9E9E" d="M357.121,446.782h1.663v1.503h0.096c1.728-1.087,3.582-1.791,5.405-1.791c1.854,0,3.197,0.606,3.869,1.854
		h0.096c2.079-1.278,3.997-1.854,5.82-1.854c2.719,0,4.445,1.247,4.445,4.349v12.152h-1.728v-11.801
		c0-2.303-1.087-3.198-3.358-3.198c-1.471,0-3.068,0.512-4.893,1.503c0.096,0.416,0.158,0.832,0.158,1.343v12.152h-1.758v-11.801
		c0-2.303-0.992-3.198-3.263-3.198c-1.599,0-3.198,0.576-4.829,1.503v13.495h-1.727v-16.211H357.121z"/>
	<path fill="#9E9E9E" d="M382.993,455.16v-0.448c0-5.309,3.038-8.219,7.228-8.219c4.381,0,7.261,2.813,7.261,8.123v0.416
		c0,5.309-3.07,8.25-7.292,8.25C385.809,463.283,382.993,460.469,382.993,455.16z M395.688,455.192v-0.641
		c0-4.797-2.365-6.62-5.5-6.62c-3.229,0-5.438,2.304-5.438,6.62v0.671c0,4.733,2.367,6.62,5.502,6.62
		C393.482,461.844,395.688,459.605,395.688,455.192z"/>
	<path fill="#9E9E9E" d="M402.853,459.605V448.22h-2.397v-1.438h2.397v-3.838h1.729v3.838h4.412v1.438h-4.412v11.129
		c0,1.663,0.575,2.367,2.59,2.367c0.703,0,1.504-0.128,2.175-0.319v1.184c-0.575,0.288-1.376,0.576-2.622,0.576
		C404.26,463.156,402.853,462.1,402.853,459.605z"/>
	<path fill="#9E9E9E" d="M413.726,441.312h1.791v1.982h-1.791V441.312z M413.758,446.782h1.728v16.213h-1.728V446.782z"/>
	<path fill="#9E9E9E" d="M420.09,455.16v-0.448c0-5.309,3.038-8.219,7.229-8.219c4.381,0,7.26,2.813,7.26,8.123v0.416
		c0,5.309-3.07,8.25-7.292,8.25C422.903,463.283,420.09,460.469,420.09,455.16z M432.785,455.192v-0.641
		c0-4.797-2.366-6.62-5.5-6.62c-3.229,0-5.438,2.304-5.438,6.62v0.671c0,4.733,2.367,6.62,5.502,6.62
		C430.579,461.844,432.785,459.605,432.785,455.192z"/>
	<path fill="#9E9E9E" d="M439.117,446.782h1.664v1.503h0.096c1.727-1.119,3.901-1.791,5.948-1.791c3.102,0,4.7,1.247,4.7,4.349
		v12.152h-1.728v-11.801c0-2.303-0.991-3.198-3.678-3.198c-1.759,0-3.646,0.607-5.276,1.503v13.495h-1.728L439.117,446.782
		L439.117,446.782z"/>
</g>
<g>
	<path fill="#9E9E9E" d="M338.718,484.289h1.663v1.503h0.096c1.729-1.087,3.582-1.791,5.405-1.791c1.854,0,3.198,0.608,3.869,1.855
		h0.097c2.078-1.279,3.997-1.855,5.82-1.855c2.718,0,4.443,1.248,4.443,4.35v12.152h-1.727v-11.801c0-2.303-1.087-3.198-3.357-3.198
		c-1.471,0-3.069,0.512-4.894,1.503c0.097,0.416,0.16,0.832,0.16,1.343v12.152h-1.759v-11.801c0-2.303-0.991-3.198-3.262-3.198
		c-1.601,0-3.198,0.576-4.83,1.503v13.496h-1.728v-16.213H338.718z"/>
	<path fill="#9E9E9E" d="M364.525,496.345c0-2.782,1.728-4.285,4.894-4.637l4.765-0.543v-2.111c0-2.718-1.246-3.55-4.156-3.55
		c-1.601,0-2.941,0.288-4.094,0.641v-1.28c1.406-0.543,2.909-0.863,4.732-0.863c3.357,0,5.245,1.407,5.245,4.669v11.833h-1.438
		l-0.16-1.407h-0.097c-0.8,0.832-2.303,1.695-4.669,1.695C366.572,500.791,364.525,499.192,364.525,496.345z M374.184,497.977v-5.5
		l-4.316,0.48c-2.432,0.255-3.551,1.247-3.551,3.326c0,2.014,1.408,3.134,3.646,3.134
		C371.816,499.416,373.354,498.744,374.184,497.977z"/>
	<path fill="#9E9E9E" d="M381.477,484.289h1.662v1.375h0.096c1.184-0.864,2.91-1.664,5.214-1.664c3.645,0,6.588,1.919,6.588,8.123
		v0.352c0,5.788-2.879,8.314-7.388,8.314c-1.982,0-3.455-0.575-4.445-1.151v7.101h-1.727V484.289z M393.212,492.7v-0.512
		c0-5.182-1.95-6.685-5.181-6.685c-2.111,0-3.838,0.769-4.829,1.439v11.192c0.928,0.64,2.463,1.215,4.317,1.215
		C391.037,499.352,393.212,497.433,393.212,492.7z"/>
	<path fill="#9E9E9E" d="M399.64,484.289h1.663v1.375h0.097c1.183-0.864,2.909-1.664,5.213-1.664c3.646,0,6.588,1.919,6.588,8.123
		v0.352c0,5.788-2.878,8.314-7.388,8.314c-1.982,0-3.453-0.575-4.445-1.151v7.101h-1.728V484.289L399.64,484.289z M411.376,492.7
		v-0.512c0-5.182-1.95-6.685-5.181-6.685c-2.11,0-3.837,0.769-4.829,1.439v11.192c0.928,0.64,2.463,1.215,4.316,1.215
		C409.202,499.352,411.376,497.433,411.376,492.7z"/>
	<path fill="#9E9E9E" d="M417.836,478.82h1.791v1.981h-1.791V478.82z M417.868,484.289h1.727v16.214h-1.727V484.289z"/>
	<path fill="#9E9E9E" d="M425.255,484.289h1.664v1.503h0.096c1.728-1.119,3.901-1.791,5.948-1.791c3.104,0,4.701,1.248,4.701,4.35
		v12.152h-1.729v-11.801c0-2.303-0.99-3.198-3.677-3.198c-1.76,0-3.646,0.608-5.276,1.503v13.496h-1.729L425.255,484.289
		L425.255,484.289z"/>
	<path fill="#9E9E9E" d="M441.405,502.582c0-1.951,1.438-3.23,3.229-3.901v-0.096c-0.896-0.224-1.664-1.023-1.664-2.175
		c0-1.023,0.608-2.079,1.696-2.941c-1.248-0.832-2.047-2.175-2.047-4.029v-0.288c0-3.23,2.494-5.149,5.948-5.149
		c0.768,0,1.471,0.096,2.143,0.256h5.404v1.343h-3.325c1.055,0.769,1.63,1.918,1.63,3.486v0.288c0,3.358-2.526,5.117-5.884,5.117
		c-1.087,0-2.079-0.192-2.942-0.543c-0.544,0.447-0.959,1.119-0.959,1.854c0,0.991,0.607,1.6,1.791,1.6h4.668
		c2.879,0,5.021,1.087,5.021,4.188c0,2.782-2.206,5.245-7.645,5.245C443.484,506.835,441.405,504.98,441.405,502.582z
		 M454.293,501.846c0-2.079-1.184-2.781-3.453-2.781h-4.798c-1.599,0.543-2.813,1.599-2.813,3.294c0,1.759,1.375,3.038,5.182,3.038
		C452.727,505.396,454.293,503.797,454.293,501.846z M452.694,489.438v-0.384c0-2.525-1.663-3.678-4.157-3.678
		c-2.527,0-4.157,1.312-4.157,3.646v0.385c0,2.463,1.694,3.709,4.157,3.709C451.095,493.115,452.694,491.869,452.694,489.438z"/>
</g>
<polygon opacity="0.9" fill="#F8ED40" enable-background="new    " points="414.09,219.722 325.409,343.293 184.394,343.293 "/>
<polygon opacity="0.6" fill="#ED2A25" enable-background="new    " points="325.409,343.293 414.09,219.722 325.409,219.722 "/>
<polygon opacity="0.9" fill="#426EB5" enable-background="new    " points="414.09,219.722 456.433,219.722 389.717,253.685 "/>
<polygon opacity="0.7" fill="#ED4798" enable-background="new    " points="325.409,343.293 389.717,253.685 325.409,219.722 
	244.846,184.61 "/>
<polygon opacity="0.6" fill="#06B052" enable-background="new    " points="325.409,343.293 325.409,253.685 205.582,253.685 "/>
<polygon opacity="0.2" fill="#06B052" enable-background="new    " points="325.409,343.293 295.017,283.496 279.916,253.685 
	325.409,253.685 "/>
<polygon opacity="0.7" fill="#754D9E" enable-background="new    " points="205.582,253.685 242.787,281.507 325.409,253.685 "/>
<g>
	<path fill="#9E9E9E" d="M209.781,454.397h2.529l9.812,26.861h0.043l9.812-26.861h2.311l-11.12,30.22H220.9L209.781,454.397z"/>
	<path fill="#9E9E9E" d="M239.435,455.051h2.442v2.704h-2.442V455.051z M239.479,462.508h2.355v22.109h-2.355V462.508z"/>
	<path fill="#9E9E9E" d="M249.552,483.789v-31.398h2.354v11.774h0.175c1.744-1.047,3.968-2.05,7.282-2.05
		c4.579,0,8.678,2.528,8.678,11.033v0.522c0,7.457-3.968,11.425-10.771,11.425C254.523,485.097,251.427,484.617,249.552,483.789z
		 M265.556,473.978v-0.697c0-6.979-2.573-9.114-7.239-9.114c-2.704,0-5.015,1.047-6.411,1.832v16.091
		c1.309,0.567,3.009,0.959,5.539,0.959C262.024,483.047,265.556,480.649,265.556,473.978z"/>
	<path fill="#9E9E9E" d="M272.927,473.846v-0.522c0-7.675,4.404-11.207,9.594-11.207c6.018,0,8.765,3.707,8.765,10.335v1.352h-15.96
		c0,6.367,2.791,9.158,8.373,9.158c2.965,0,5.059-0.698,6.847-1.57v1.788c-1.352,0.872-3.794,1.832-7.195,1.832
		C276.416,485.01,272.927,480.954,272.927,473.846z M275.369,471.884H288.8c0-5.188-2.049-7.806-6.366-7.806
		C278.945,464.078,275.718,466.258,275.369,471.884z"/>
	<path fill="#9E9E9E" d="M296.126,483.396v-1.92c1.788,0.785,3.576,1.483,6.715,1.483c4.012,0,5.495-1.657,5.495-4.012
		c0-2.53-1.177-3.445-4.317-4.361l-2.398-0.698c-3.271-0.916-5.233-2.354-5.233-5.93c0-3.445,2.354-5.844,7.195-5.844
		c2.834,0,4.709,0.653,5.93,1.308v1.962c-1.352-0.653-3.532-1.221-5.799-1.221c-3.402,0-5.102,1.308-5.102,3.62
		c0,2.267,1.046,3.227,3.793,4.012l2.442,0.698c4.012,1.134,5.843,2.441,5.843,6.279c0,3.75-2.529,6.191-7.588,6.191
		C300.138,484.966,297.784,484.312,296.126,483.396z"/>
</g>
<polygon opacity="0.5" fill="#426EB5" enable-background="new    " points="159.979,1150.556 192.951,742.783 241.708,1150.556 "/>
<polygon opacity="0.4" fill="#F8ED40" enable-background="new    " points="464.75,1135.74 501.562,642.223 555.996,1135.74 "/>
<g>
	<rect x="575.062" y="784.265" opacity="0.5" fill="#754D9E" enable-background="new    " width="20.03" height="381.643"/>
	<rect x="45.334" y="840.5" opacity="0.5" fill="#F7961D" enable-background="new    " width="49.94" height="325.494"/>
	<rect x="-4.803" y="682.983" opacity="0.5" fill="#F8ED40" enable-background="new    " width="49.94" height="483.011"/>
	<rect x="95.233" y="809.621" opacity="0.5" fill="#ED2A25" enable-background="new    " width="74.746" height="356.379"/>
	<rect x="169.979" y="884.534" opacity="0.5" fill="#ED4798" enable-background="new    " width="49.914" height="281.466"/>
	<rect x="244.781" y="904.153" opacity="0.5" fill="#754D9E" enable-background="new    " width="50.021" height="261.847"/>
	<rect x="294.958" y="798.92" opacity="0.5" fill="#426EB5" enable-background="new    " width="50.021" height="367.08"/>
	<rect x="344.979" y="705.538" opacity="0.5" fill="#06B052" enable-background="new    " width="50.213" height="460.462"/>
	<rect x="395.252" y="659.795" opacity="0.5" fill="#F8ED40" enable-background="new    " width="25.01" height="506.205"/>
	<rect x="420.262" y="809.621" opacity="0.5" fill="#F7961D" enable-background="new    " width="40.996" height="356.379"/>
	<rect x="461.258" y="904.153" opacity="0.5" fill="#ED2A25" enable-background="new    " width="40.994" height="261.847"/>
	<rect x="502.252" y="870.544" opacity="0.5" fill="#ED4798" enable-background="new    " width="42.92" height="295.269"/>
	<rect x="595.373" y="727.574" opacity="0.5" fill="#06B052" enable-background="new    " width="50.334" height="438.19"/>
	<rect x="545.172" y="705.538" opacity="0.5" fill="#F3BCD1" enable-background="new    " width="30.039" height="460.274"/>
	<rect x="219.771" y="798.92" opacity="0.5" fill="#F3BCD1" enable-background="new    " width="25.01" height="366.893"/>
</g>
<g>
	<rect x="-11" y="873.582" opacity="0.6" fill="#06B052" enable-background="new    " width="50.334" height="302.158"/>
	<rect x="38.94" y="937.551" opacity="0.6" fill="#426EB5" enable-background="new    " width="50.334" height="238.189"/>
	<rect x="88.947" y="881.899" opacity="0.6" fill="#754D9E" enable-background="new    " width="50.334" height="293.841"/>
	<rect x="138.812" y="942.321" opacity="0.6" fill="#F3BCD1" enable-background="new    " width="50.334" height="233.419"/>
	<rect x="188.726" y="992.209" opacity="0.6" fill="#ED4798" enable-background="new    " width="50.334" height="183.531"/>
	<rect x="238.786" y="942.321" opacity="0.6" fill="#ED2A25" enable-background="new    " width="50.334" height="233.419"/>
	<rect x="288.801" y="902.643" opacity="0.6" fill="#F7961D" enable-background="new    " width="50.333" height="273.099"/>
	<rect x="339.014" y="882.306" opacity="0.6" fill="#F8ED40" enable-background="new    " width="50.334" height="293.436"/>
	<rect x="389.068" y="919.676" opacity="0.6" fill="#06B052" enable-background="new    " width="50.334" height="256.064"/>
	<rect x="489.123" y="1002.808" opacity="0.6" fill="#754D9E" enable-background="new    " width="50.334" height="172.934"/>
	<rect x="539.172" y="888.99" opacity="0.6" fill="#F3BCD1" enable-background="new    " width="50.334" height="286.75"/>
	<rect x="589.467" y="849.4" opacity="0.6" fill="#ED4798" enable-background="new    " width="30.828" height="326.34"/>
	<rect x="620.031" y="779.957" opacity="0.6" fill="#754D9E" enable-background="new    " width="19.676" height="395.783"/>
	<rect x="439.033" y="972.07" opacity="0.6" fill="#426EB5" enable-background="new    " width="50.334" height="203.67"/>
</g>
<g opacity="0.9">
	<rect x="-0.456" y="997.729" opacity="0.7" fill="#F7961D" enable-background="new    " width="57.781" height="178.013"/>
	<rect x="57.325" y="1024.584" opacity="0.7" fill="#ED2A25" enable-background="new    " width="52.921" height="151.156"/>
	<rect x="110.247" y="960.646" opacity="0.7" fill="#ED4798" enable-background="new    " width="54.163" height="215.095"/>
	<rect x="164.409" y="1048.115" opacity="0.7" fill="#754D9E" enable-background="new    " width="55.418" height="127.625"/>
	<rect x="219.827" y="1073.905" opacity="0.7" fill="#426EB5" enable-background="new    " width="54.078" height="101.835"/>
	<rect x="476.543" y="1073.676" opacity="0.7" fill="#ED2A25" enable-background="new    " width="53.443" height="101.834"/>
	<rect x="529.986" y="1026.423" opacity="0.7" fill="#ED4798" enable-background="new    " width="56.854" height="149.087"/>
	<rect x="586.842" y="972.07" opacity="0.7" fill="#754D9E" enable-background="new    " width="65.479" height="202.635"/>
	<rect x="273.905" y="1002.808" opacity="0.7" fill="#06B052" enable-background="new    " width="53.919" height="172.934"/>
	<rect x="439.402" y="1002.808" opacity="0.7" fill="#F7961D" enable-background="new    " width="37.141" height="172.934"/>
	<rect x="327.824" y="1068.192" opacity="0.7" fill="#ED4798" enable-background="new    " width="61.244" height="107.548"/>
	<rect x="389.348" y="977.848" opacity="0.7" fill="#F8ED40" enable-background="new    " width="49.687" height="197.894"/>
</g>
<polygon opacity="0.7" fill="#754D9E" enable-background="new    " points="586.842,932 589.5,927.93 589.506,932 "/>
<g opacity="0.9">
	<rect x="-14" y="-5" opacity="0.9" fill="#F8ED40" enable-background="new    " width="89.457" height="17.813"/>
	<rect x="30.227" y="-5" opacity="0.9" fill="#F7961D" enable-background="new    " width="89.457" height="17.813"/>
	<rect x="75.118" y="-5" opacity="0.8" fill="#ED2A25" enable-background="new    " width="89.456" height="17.813"/>
	<rect x="120.599" y="-5" opacity="0.9" fill="#ED4798" enable-background="new    " width="89.456" height="17.813"/>
	<rect x="165.498" y="-5" opacity="0.9" fill="#754D9E" enable-background="new    " width="89.457" height="17.813"/>
	<rect x="210.138" y="-5" opacity="0.9" fill="#426EB5" enable-background="new    " width="89.457" height="17.813"/>
	<rect x="254.388" y="-5" opacity="0.9" fill="#06B052" enable-background="new    " width="89.458" height="17.813"/>
	<rect x="298.937" y="-5" opacity="0.9" fill="#F8ED40" enable-background="new    " width="89.456" height="17.813"/>
	<rect x="343.164" y="-5" opacity="0.9" fill="#F7961D" enable-background="new    " width="89.457" height="17.813"/>
	<rect x="388.055" y="-5" opacity="0.8" fill="#ED2A25" enable-background="new    " width="89.457" height="17.813"/>
	<rect x="433.535" y="-5" opacity="0.9" fill="#ED4798" enable-background="new    " width="89.457" height="17.813"/>
	<rect x="478.436" y="-5" opacity="0.9" fill="#754D9E" enable-background="new    " width="89.455" height="17.813"/>
	<rect x="523.074" y="-5" opacity="0.9" fill="#426EB5" enable-background="new    " width="89.457" height="17.813"/>
	<rect x="567.326" y="-5" opacity="0.9" fill="#06B052" enable-background="new    " width="89.455" height="17.813"/>
	<rect x="612.054" y="-5" opacity="0.9" fill="#F8ED40" enable-background="new    " width="89.455" height="17.813"/>
</g>
</svg>
