<?xml version="1.0" encoding="utf-8"?>
<!-- Generator: Adobe Illustrator 16.0.4, SVG Export Plug-In . SVG Version: 6.00 Build 0)  -->
<!DOCTYPE svg PUBLIC "-//W3C//DTD SVG 1.1//EN" "http://www.w3.org/Graphics/SVG/1.1/DTD/svg11.dtd">
<svg version="1.1" xmlns="http://www.w3.org/2000/svg" xmlns:xlink="http://www.w3.org/1999/xlink" x="0px" y="0px" width="640px"
	 height="1136px" viewBox="0 0 640 1136" enable-background="new 0 0 640 1136" xml:space="preserve">
<g id="Layer_1" display="none">
	<g id="Icon" display="inline">
		<polygon opacity="0.5" fill="#65BC46" points="82.709,283.334 103.343,255.196 191.67,255.196 239.606,283.334 		"/>
		<polygon opacity="0.5" fill="#79CDCB" points="191.67,255.196 178.99,283.334 239.606,283.334 261.975,333.531 282.455,307.837 
			258.204,255.196 		"/>
		<polygon opacity="0.5" fill="#A25BA4" points="269.476,279.665 261.975,333.531 292.492,399.726 326.681,403.835 		"/>
		<polygon opacity="0.5" fill="#DE5D83" points="306.625,360.3 292.492,399.726 334.415,490.655 340.043,490.655 337.274,426.832 		
			"/>
		<polygon opacity="0.5" fill="#ED3794" points="334.415,490.655 340.043,490.655 382.32,398.335 364.799,366.36 337.274,426.832 		
			"/>
		<polygon opacity="0.5" fill="#C32127" points="345.477,408.522 382.32,398.335 397.996,364.104 379.74,333.531 		"/>
		<polygon opacity="0.5" fill="#F6851F" points="397.996,364.104 369.679,355.549 389.666,311.722 441.039,311.722 409.099,339.86 
					"/>
		<polygon opacity="0.5" fill="#FBEE29" points="409.099,339.86 389.666,311.722 477.9,311.722 468.256,339.86 		"/>
	</g>
	
		<text transform="matrix(1 0 0 1 296.3281 590.4121)" display="inline" fill="#AEADAE" font-family="'MyriadPro-Regular'" font-size="30.4861" letter-spacing="6">vibes</text>
	<g id="emotionmapping" display="inline">
		
			<text transform="matrix(1 0 0 1 153.9746 655.1113)" fill="#AEADAE" font-family="'MyriadPro-Regular'" font-size="30.4861" letter-spacing="6">emotion - mapping</text>
	</g>
</g>
<g id="Layer_2">
	
		<text transform="matrix(1 0 0 1 299.0146 617.2734)" fill="#B2B3B3" font-family="'CenturyGothic'" font-size="30.1875" letter-spacing="9">vibes</text>
	<g id="icon">
		<g>
			<polygon opacity="0.8" fill="#ED3794" points="287.516,343.795 307.055,440.061 340.835,539.434 317.342,392.951 			"/>
			<polygon opacity="0.8" fill="#FFF200" points="213.649,355.13 224.618,298.608 291.542,298.606 303.24,341.381 			"/>
			<polygon opacity="0.7" fill="#79CDCB" points="184.646,298.606 194.826,318.214 213.649,355.13 280.688,318.744 291.542,298.606 
							"/>
			<polygon opacity="0.8" fill="#DE5D83" points="280.688,318.744 291.542,298.606 317.342,392.951 312.959,437.147 			"/>
			<polygon opacity="0.7" fill="#DA1C5C" points="428.178,379.656 439.43,399.189 444.329,408.873 382.497,399.189 371.312,379.656 
							"/>
			<polygon opacity="0.5" fill="#92278F" points="340.835,539.434 312.959,437.147 317.342,392.951 342.445,484.739 
				343.918,539.434 			"/>
			<polygon opacity="0.7" fill="#F6851F" points="307.055,440.061 263.639,327.998 280.688,318.744 287.509,343.795 			"/>
			<polygon opacity="0.7" fill="#ED3794" points="371.312,463.224 393.061,400.717 382.497,399.189 379.712,409.032 			"/>
			<polygon opacity="0.7" fill="#F6851F" points="444.329,408.873 363.287,408.873 371.312,379.656 385.195,379.656 			"/>
			<polyline fill="#79CDCB" points="213.649,355.13 106.614,355.13 184.646,298.606 			"/>
			<polygon opacity="0.8" fill="#79CDCB" points="343.918,539.434 371.312,463.224 379.771,408.919 353.78,443.477 347.042,468.002 
							"/>
			<polygon opacity="0.7" fill="#65BC46" points="343.918,539.434 340.835,539.434 342.445,484.739 353.208,445.562 
				351.475,464.921 367.474,453.803 			"/>
			<polygon opacity="0.7" fill="#FFF200" points="371.312,379.656 382.497,399.189 367.474,453.803 347.042,468.002 			"/>
			<polygon opacity="0.8" fill="#DA1C5C" points="428.178,379.656 434.005,389.772 438.138,396.948 439.43,399.189 441.799,403.872 
				444.329,408.873 487.386,408.919 			"/>
		</g>
		<polygon fill="#79CDCB" points="184.646,298.606 106.614,298.606 106.614,355.13 		"/>
		<polygon opacity="0.03" points="184.646,298.606 106.614,298.606 106.614,355.13 		"/>
		<polygon fill="#DE5D83" points="428.178,379.656 487.386,379.402 487.386,408.919 		"/>
	</g>
	<g id="emotion-mapping">
		<g id="e">
			<path fill="#B2B3B3" d="M197.208,688.355l1.383,0.727c-0.454,0.891-0.978,1.609-1.572,2.156s-1.263,0.963-2.006,1.248
				c-0.743,0.285-1.583,0.428-2.522,0.428c-2.08,0-3.706-0.682-4.879-2.045c-1.173-1.363-1.759-2.904-1.759-4.623
				c0-1.617,0.497-3.059,1.49-4.324c1.259-1.609,2.944-2.414,5.055-2.414c2.174,0,3.91,0.824,5.208,2.473
				c0.923,1.164,1.392,2.617,1.408,4.359H187.54c0.031,1.48,0.504,2.695,1.419,3.642c0.916,0.947,2.045,1.421,3.391,1.421
				c0.649,0,1.281-0.113,1.895-0.339c0.614-0.226,1.136-0.525,1.566-0.898C196.242,689.791,196.707,689.188,197.208,688.355z
				 M197.208,684.922c-0.219-0.875-0.538-1.574-0.957-2.098c-0.418-0.523-0.972-0.945-1.66-1.266s-1.412-0.48-2.17-0.48
				c-1.252,0-2.327,0.402-3.227,1.207c-0.657,0.586-1.154,1.465-1.49,2.637H197.208z"/>
<linearGradient id="e">
<stop offset="0" stop-color="#f15361">
</stop>
<stop offset=".25" stop-color="#fbaf4a">
<animate attributeName="offset" dur="5s" values="0;1;0"
    repeatCount="indefinite" />
</stop>
<stop offset="1" stop-color="#f15361"/> 
</linearGradient>

</g>


                            
                        
                   <g id="m">    
			<path fill="#B2B3B3" d="M209.259,679.836h1.641v2.203c0.571-0.812,1.157-1.406,1.76-1.781c0.829-0.5,1.701-0.75,2.616-0.75
				c0.618,0,1.205,0.121,1.76,0.363c0.556,0.242,1.009,0.564,1.361,0.967c0.352,0.402,0.657,0.979,0.915,1.729
				c0.545-1,1.228-1.76,2.046-2.279s1.699-0.779,2.642-0.779c0.881,0,1.658,0.223,2.333,0.668c0.674,0.445,1.175,1.066,1.502,1.863
				c0.328,0.797,0.491,1.992,0.491,3.586v6.961h-1.676v-6.961c0-1.367-0.098-2.307-0.292-2.818
				c-0.195-0.512-0.527-0.924-0.999-1.236s-1.034-0.469-1.688-0.469c-0.794,0-1.52,0.234-2.178,0.703s-1.139,1.094-1.442,1.875
				c-0.304,0.781-0.456,2.086-0.456,3.914v4.992h-1.641v-6.527c0-1.539-0.096-2.584-0.287-3.135s-0.525-0.992-1.002-1.324
				s-1.043-0.498-1.699-0.498c-0.758,0-1.467,0.229-2.127,0.686s-1.148,1.072-1.465,1.846s-0.475,1.957-0.475,3.551v5.402h-1.641
				V679.836z"/>
                        
                        <linearGradient id="m">
<stop offset="0" stop-color="#f15361">
</stop>
<stop offset=".25" stop-color="#fbaf4a">
<animate attributeName="offset" dur="5s" values="0;1;0"
    repeatCount="indefinite" />
</stop>
<stop offset="1" stop-color="#f15361"/> 
</linearGradient>
                        
                        
                        </g>
                        
                        
			<path fill="#B2B3B3" d="M245.018,679.508c1.964,0,3.592,0.711,4.884,2.133c1.174,1.297,1.761,2.832,1.761,4.605
				c0,1.781-0.62,3.338-1.861,4.67c-1.24,1.332-2.835,1.998-4.784,1.998c-1.957,0-3.555-0.666-4.795-1.998
				c-1.241-1.332-1.861-2.889-1.861-4.67c0-1.766,0.587-3.297,1.761-4.594C241.414,680.223,243.045,679.508,245.018,679.508z
				 M245.012,681.113c-1.364,0-2.536,0.504-3.517,1.512c-0.979,1.008-1.47,2.227-1.47,3.656c0,0.922,0.224,1.781,0.67,2.578
				s1.05,1.412,1.811,1.846c0.76,0.434,1.595,0.65,2.505,0.65c0.909,0,1.744-0.217,2.505-0.65c0.76-0.434,1.364-1.049,1.811-1.846
				s0.67-1.656,0.67-2.578c0-1.43-0.492-2.648-1.476-3.656S246.368,681.113,245.012,681.113z"/>
                        
                        
			<path fill="#B2B3B3" d="M263.327,675.102h1.641v4.734h2.602v1.418h-2.602v11.332h-1.641v-11.332h-2.238v-1.418h2.238V675.102z"/>
                        
                        
			<path fill="#B2B3B3" d="M277.798,674.586c0.374,0,0.692,0.133,0.957,0.398c0.265,0.266,0.396,0.586,0.396,0.961
				c0,0.367-0.132,0.684-0.396,0.949c-0.264,0.266-0.583,0.398-0.957,0.398c-0.366,0-0.681-0.133-0.945-0.398
				c-0.264-0.266-0.396-0.582-0.396-0.949c0-0.375,0.132-0.695,0.396-0.961C277.118,674.719,277.433,674.586,277.798,674.586z
				 M276.984,679.836h1.64v12.75h-1.64V679.836z"/>
                        
                        
			<path fill="#B2B3B3" d="M295.271,679.508c1.965,0,3.592,0.711,4.884,2.133c1.174,1.297,1.761,2.832,1.761,4.605
				c0,1.781-0.62,3.338-1.86,4.67c-1.241,1.332-2.836,1.998-4.784,1.998c-1.957,0-3.555-0.666-4.796-1.998
				c-1.24-1.332-1.86-2.889-1.86-4.67c0-1.766,0.587-3.297,1.761-4.594C291.666,680.223,293.298,679.508,295.271,679.508z
				 M295.265,681.113c-1.364,0-2.536,0.504-3.517,1.512c-0.979,1.008-1.47,2.227-1.47,3.656c0,0.922,0.224,1.781,0.67,2.578
				c0.447,0.797,1.051,1.412,1.812,1.846s1.596,0.65,2.505,0.65s1.744-0.217,2.505-0.65s1.364-1.049,1.812-1.846
				c0.446-0.797,0.67-1.656,0.67-2.578c0-1.43-0.492-2.648-1.476-3.656C297.791,681.617,296.621,681.113,295.265,681.113z"/>
                        
                        
			<path fill="#B2B3B3" d="M312.149,679.836h1.641v2.285c0.656-0.875,1.383-1.529,2.18-1.963s1.664-0.65,2.602-0.65
				c0.953,0,1.799,0.242,2.537,0.727s1.283,1.137,1.635,1.957s0.527,2.098,0.527,3.832v6.562h-1.641v-6.082
				c0-1.469-0.061-2.449-0.183-2.941c-0.19-0.844-0.555-1.479-1.094-1.904s-1.242-0.639-2.109-0.639
				c-0.993,0-1.882,0.328-2.667,0.984s-1.303,1.469-1.553,2.438c-0.156,0.633-0.234,1.789-0.234,3.469v4.676h-1.641V679.836z"/>
                        
                        
			<path fill="#B2B3B3" d="M346.765,685.391h6.445v1.43h-6.445V685.391z"/>
                        
                        
			<path fill="#B2B3B3" d="M376.833,679.836h1.641v2.203c0.571-0.812,1.157-1.406,1.76-1.781c0.829-0.5,1.701-0.75,2.616-0.75
				c0.618,0,1.204,0.121,1.76,0.363s1.009,0.564,1.361,0.967c0.352,0.402,0.657,0.979,0.915,1.729c0.545-1,1.228-1.76,2.046-2.279
				s1.699-0.779,2.642-0.779c0.881,0,1.658,0.223,2.333,0.668c0.674,0.445,1.175,1.066,1.502,1.863s0.491,1.992,0.491,3.586v6.961
				h-1.676v-6.961c0-1.367-0.098-2.307-0.292-2.818s-0.527-0.924-0.999-1.236c-0.471-0.312-1.033-0.469-1.688-0.469
				c-0.794,0-1.521,0.234-2.179,0.703c-0.657,0.469-1.139,1.094-1.442,1.875s-0.455,2.086-0.455,3.914v4.992h-1.641v-6.527
				c0-1.539-0.096-2.584-0.287-3.135s-0.525-0.992-1.002-1.324s-1.043-0.498-1.699-0.498c-0.758,0-1.467,0.229-2.127,0.686
				s-1.148,1.072-1.465,1.846s-0.475,1.957-0.475,3.551v5.402h-1.641V679.836z"/>
                        
                        
			<path fill="#B2B3B3" d="M419.259,679.836v12.75h-1.617v-2.191c-0.688,0.836-1.459,1.465-2.314,1.887s-1.791,0.633-2.807,0.633
				c-1.805,0-3.346-0.654-4.623-1.963s-1.916-2.9-1.916-4.775c0-1.836,0.645-3.406,1.934-4.711s2.84-1.957,4.652-1.957
				c1.047,0,1.994,0.223,2.842,0.668s1.592,1.113,2.232,2.004v-2.344H419.259z M412.702,681.09c-0.913,0-1.756,0.225-2.528,0.673
				c-0.772,0.449-1.388,1.079-1.844,1.891s-0.685,1.67-0.685,2.575c0,0.897,0.23,1.756,0.69,2.575s1.079,1.457,1.855,1.914
				c0.776,0.456,1.609,0.685,2.499,0.685c0.897,0,1.748-0.227,2.552-0.679c0.804-0.453,1.422-1.065,1.855-1.838
				c0.433-0.772,0.649-1.643,0.649-2.61c0-1.475-0.485-2.708-1.457-3.699C415.318,681.586,414.122,681.09,412.702,681.09z"/>
                        
                        
			<path fill="#B2B3B3" d="M430.174,679.836h1.641v2.344c0.647-0.891,1.393-1.559,2.236-2.004c0.843-0.445,1.783-0.668,2.821-0.668
				c1.811,0,3.359,0.652,4.647,1.957s1.932,2.875,1.932,4.711c0,1.875-0.638,3.467-1.914,4.775s-2.815,1.963-4.618,1.963
				c-1.015,0-1.947-0.211-2.798-0.633c-0.852-0.422-1.62-1.051-2.307-1.887v6.855h-1.641V679.836z M436.736,681.09
				c-1.419,0-2.613,0.496-3.584,1.486c-0.97,0.991-1.455,2.225-1.455,3.699c0,0.968,0.216,1.838,0.648,2.61s1.053,1.385,1.859,1.838
				c0.807,0.452,1.658,0.679,2.555,0.679c0.881,0,1.709-0.229,2.484-0.685c0.775-0.457,1.394-1.095,1.854-1.914
				c0.459-0.819,0.689-1.678,0.689-2.575c0-0.905-0.229-1.764-0.684-2.575c-0.456-0.812-1.07-1.441-1.842-1.891
				C438.49,681.314,437.648,681.09,436.736,681.09z"/>
                        
                        
			<path fill="#B2B3B3" d="M453.745,679.836h1.641v2.344c0.647-0.891,1.393-1.559,2.236-2.004c0.843-0.445,1.783-0.668,2.821-0.668
				c1.811,0,3.359,0.652,4.647,1.957s1.932,2.875,1.932,4.711c0,1.875-0.638,3.467-1.914,4.775s-2.815,1.963-4.618,1.963
				c-1.015,0-1.947-0.211-2.798-0.633c-0.852-0.422-1.62-1.051-2.307-1.887v6.855h-1.641V679.836z M460.308,681.09
				c-1.419,0-2.613,0.496-3.584,1.486c-0.97,0.991-1.455,2.225-1.455,3.699c0,0.968,0.216,1.838,0.648,2.61s1.053,1.385,1.859,1.838
				c0.807,0.452,1.658,0.679,2.555,0.679c0.881,0,1.709-0.229,2.484-0.685c0.775-0.457,1.394-1.095,1.854-1.914
				c0.459-0.819,0.689-1.678,0.689-2.575c0-0.905-0.229-1.764-0.684-2.575c-0.456-0.812-1.07-1.441-1.842-1.891
				C462.062,681.314,461.22,681.09,460.308,681.09z"/>
                        
                        
			<path fill="#B2B3B3" d="M477.861,674.586c0.373,0,0.692,0.133,0.957,0.398c0.264,0.266,0.396,0.586,0.396,0.961
				c0,0.367-0.133,0.684-0.396,0.949c-0.265,0.266-0.584,0.398-0.957,0.398c-0.365,0-0.681-0.133-0.945-0.398
				s-0.396-0.582-0.396-0.949c0-0.375,0.132-0.695,0.396-0.961S477.496,674.586,477.861,674.586z M477.047,679.836h1.641v12.75
				h-1.641V679.836z"/>
                        
                        
			<path fill="#B2B3B3" d="M489.298,679.836h1.641v2.285c0.656-0.875,1.383-1.529,2.18-1.963s1.664-0.65,2.602-0.65
				c0.953,0,1.799,0.242,2.537,0.727s1.283,1.137,1.635,1.957s0.527,2.098,0.527,3.832v6.562h-1.641v-6.082
				c0-1.469-0.061-2.449-0.183-2.941c-0.19-0.844-0.555-1.479-1.094-1.904s-1.242-0.639-2.109-0.639
				c-0.993,0-1.882,0.328-2.667,0.984s-1.303,1.469-1.553,2.438c-0.156,0.633-0.234,1.789-0.234,3.469v4.676h-1.641V679.836z"/>
                        
                        
			<path fill="#B2B3B3" d="M522.126,679.836h1.641v10.16c0,1.789-0.156,3.098-0.469,3.926c-0.43,1.172-1.176,2.074-2.238,2.707
				s-2.34,0.949-3.832,0.949c-1.094,0-2.076-0.155-2.947-0.464c-0.871-0.31-1.58-0.726-2.127-1.246
				c-0.547-0.521-1.051-1.283-1.512-2.286h1.781c0.484,0.844,1.11,1.469,1.877,1.875s1.717,0.609,2.852,0.609
				c1.118,0,2.062-0.208,2.833-0.625c0.771-0.416,1.32-0.94,1.648-1.57c0.329-0.631,0.493-1.649,0.493-3.055v-0.656
				c-0.618,0.781-1.373,1.381-2.264,1.799c-0.892,0.418-1.838,0.627-2.839,0.627c-1.174,0-2.276-0.291-3.309-0.873
				s-1.83-1.365-2.393-2.35c-0.563-0.984-0.845-2.066-0.845-3.246s0.293-2.279,0.88-3.299s1.397-1.826,2.434-2.42
				s2.13-0.891,3.279-0.891c0.954,0,1.844,0.197,2.669,0.592c0.824,0.395,1.62,1.045,2.387,1.951V679.836z M517.286,681.09
				c-0.93,0-1.793,0.225-2.59,0.674s-1.422,1.07-1.875,1.863s-0.68,1.65-0.68,2.572c0,1.398,0.469,2.555,1.406,3.469
				s2.152,1.371,3.645,1.371c1.508,0,2.721-0.453,3.639-1.359s1.377-2.098,1.377-3.574c0-0.961-0.211-1.818-0.633-2.572
				s-1.02-1.35-1.793-1.787S518.177,681.09,517.286,681.09z"/>
                        
                        
		</g>
	</g>
</g>
</svg>
