<?xml version="1.0" encoding="utf-8"?>
<!-- Generator: Adobe Illustrator 16.0.0, SVG Export Plug-In . SVG Version: 6.00 Build 0)  -->
<!DOCTYPE svg PUBLIC "-//W3C//DTD SVG 1.1//EN" "http://www.w3.org/Graphics/SVG/1.1/DTD/svg11.dtd">
<svg version="1.1" xmlns="http://www.w3.org/2000/svg" xmlns:xlink="http://www.w3.org/1999/xlink" x="0px" y="0px" width="320px"
	 height="320px" viewBox="0 0 320 320" enable-background="new 0 0 320 320" xml:space="preserve">
<g id="Layer_1">
	<g>
		
			<linearGradient id="SVGID_1_" gradientUnits="userSpaceOnUse" x1="617.6602" y1="905.5449" x2="617.6602" y2="884.4854" gradientTransform="matrix(1 0 0 1 -462 -754.5)">
			<stop  offset="0" style="stop-color:#29B473"/>
			<stop  offset="0.0983" style="stop-color:#27ABCD"/>
			<stop  offset="0.1183" style="stop-color:#26A9E0"/>
			<stop  offset="0.1835" style="stop-color:#287DC0;stop-opacity:0.9908"/>
			<stop  offset="0.2484" style="stop-color:#2A57A5;stop-opacity:0.9815"/>
			<stop  offset="0.3006" style="stop-color:#2B4095;stop-opacity:0.9741"/>
			<stop  offset="0.3335" style="stop-color:#2B388F;stop-opacity:0.9695"/>
			<stop  offset="0.3547" style="stop-color:#35368F;stop-opacity:0.9747"/>
			<stop  offset="0.39" style="stop-color:#4E328F;stop-opacity:0.9833"/>
			<stop  offset="0.4348" style="stop-color:#782B8E;stop-opacity:0.9944"/>
			<stop  offset="0.4578" style="stop-color:#90278E"/>
			<stop  offset="0.5068" style="stop-color:#94278D"/>
			<stop  offset="0.5577" style="stop-color:#A1278B"/>
			<stop  offset="0.6095" style="stop-color:#B52886"/>
			<stop  offset="0.6616" style="stop-color:#D22880"/>
			<stop  offset="0.6992" style="stop-color:#EC297B"/>
			<stop  offset="0.7259" style="stop-color:#EC2C76"/>
			<stop  offset="0.7572" style="stop-color:#ED3668"/>
			<stop  offset="0.7907" style="stop-color:#EE4650"/>
			<stop  offset="0.8256" style="stop-color:#F05C30"/>
			<stop  offset="0.8383" style="stop-color:#F16522"/>
			<stop  offset="0.8654" style="stop-color:#F16922"/>
			<stop  offset="0.8934" style="stop-color:#F27624"/>
			<stop  offset="0.9218" style="stop-color:#F38A26"/>
			<stop  offset="0.9505" style="stop-color:#F5A729"/>
			<stop  offset="0.9791" style="stop-color:#F7CC2D"/>
			<stop  offset="1" style="stop-color:#F9EC31"/>
		</linearGradient>
		<rect x="153.766" y="129.985" opacity="0.7" fill="url(#SVGID_1_)" enable-background="new    " width="3.789" height="21.06"/>
		
			<linearGradient id="SVGID_2_" gradientUnits="userSpaceOnUse" x1="617.6602" y1="905.6699" x2="617.6602" y2="884.6123" gradientTransform="matrix(1 0 0 1 -462 -754.5)">
			<stop  offset="0" style="stop-color:#29B473"/>
			<stop  offset="0.0983" style="stop-color:#27ABCD"/>
			<stop  offset="0.1183" style="stop-color:#26A9E0"/>
			<stop  offset="0.1835" style="stop-color:#287DC0;stop-opacity:0.9908"/>
			<stop  offset="0.2484" style="stop-color:#2A57A5;stop-opacity:0.9815"/>
			<stop  offset="0.3006" style="stop-color:#2B4095;stop-opacity:0.9741"/>
			<stop  offset="0.3335" style="stop-color:#2B388F;stop-opacity:0.9695"/>
			<stop  offset="0.3547" style="stop-color:#35368F;stop-opacity:0.9747"/>
			<stop  offset="0.39" style="stop-color:#4E328F;stop-opacity:0.9833"/>
			<stop  offset="0.4348" style="stop-color:#782B8E;stop-opacity:0.9944"/>
			<stop  offset="0.4578" style="stop-color:#90278E"/>
			<stop  offset="0.5068" style="stop-color:#94278D"/>
			<stop  offset="0.5577" style="stop-color:#A1278B"/>
			<stop  offset="0.6095" style="stop-color:#B52886"/>
			<stop  offset="0.6616" style="stop-color:#D22880"/>
			<stop  offset="0.6992" style="stop-color:#EC297B"/>
			<stop  offset="0.7259" style="stop-color:#EC2C76"/>
			<stop  offset="0.7572" style="stop-color:#ED3668"/>
			<stop  offset="0.7907" style="stop-color:#EE4650"/>
			<stop  offset="0.8256" style="stop-color:#F05C30"/>
			<stop  offset="0.8383" style="stop-color:#F16522"/>
			<stop  offset="0.8654" style="stop-color:#F16922"/>
			<stop  offset="0.8934" style="stop-color:#F27624"/>
			<stop  offset="0.9218" style="stop-color:#F38A26"/>
			<stop  offset="0.9505" style="stop-color:#F5A729"/>
			<stop  offset="0.9791" style="stop-color:#F7CC2D"/>
			<stop  offset="1" style="stop-color:#F9EC31"/>
		</linearGradient>
		<rect x="153.766" y="130.112" fill="url(#SVGID_2_)" width="3.789" height="21.058"/>
		
			<linearGradient id="SVGID_3_" gradientUnits="userSpaceOnUse" x1="635.9346" y1="906.1465" x2="635.9346" y2="876.6719" gradientTransform="matrix(1 0 0 1 -462 -754.5)">
			<stop  offset="0" style="stop-color:#29B473"/>
			<stop  offset="0.0983" style="stop-color:#27ABCD"/>
			<stop  offset="0.1183" style="stop-color:#26A9E0"/>
			<stop  offset="0.1835" style="stop-color:#287DC0;stop-opacity:0.9908"/>
			<stop  offset="0.2484" style="stop-color:#2A57A5;stop-opacity:0.9815"/>
			<stop  offset="0.3006" style="stop-color:#2B4095;stop-opacity:0.9741"/>
			<stop  offset="0.3335" style="stop-color:#2B388F;stop-opacity:0.9695"/>
			<stop  offset="0.3547" style="stop-color:#35368F;stop-opacity:0.9747"/>
			<stop  offset="0.39" style="stop-color:#4E328F;stop-opacity:0.9833"/>
			<stop  offset="0.4348" style="stop-color:#782B8E;stop-opacity:0.9944"/>
			<stop  offset="0.4578" style="stop-color:#90278E"/>
			<stop  offset="0.5068" style="stop-color:#94278D"/>
			<stop  offset="0.5577" style="stop-color:#A1278B"/>
			<stop  offset="0.6095" style="stop-color:#B52886"/>
			<stop  offset="0.6616" style="stop-color:#D22880"/>
			<stop  offset="0.6992" style="stop-color:#EC297B"/>
			<stop  offset="0.7259" style="stop-color:#EC2C76"/>
			<stop  offset="0.7572" style="stop-color:#ED3668"/>
			<stop  offset="0.7907" style="stop-color:#EE4650"/>
			<stop  offset="0.8256" style="stop-color:#F05C30"/>
			<stop  offset="0.8383" style="stop-color:#F16522"/>
			<stop  offset="0.8654" style="stop-color:#F16922"/>
			<stop  offset="0.8934" style="stop-color:#F27624"/>
			<stop  offset="0.9218" style="stop-color:#F38A26"/>
			<stop  offset="0.9505" style="stop-color:#F5A729"/>
			<stop  offset="0.9791" style="stop-color:#F7CC2D"/>
			<stop  offset="1" style="stop-color:#F9EC31"/>
		</linearGradient>
		<path opacity="0.7" fill="url(#SVGID_3_)" enable-background="new    " d="M163.061,151.143v-28.972h2.707v11.666
			c1.116-1.382,2.373-2.435,3.76-3.079c1.389-0.688,2.912-1.051,4.611-1.051c2.934,0,5.441,1.082,7.524,3.204
			c2.124,2.159,3.146,4.763,3.146,7.812c0,3.022-1.029,5.61-3.164,7.729c-2.098,2.155-4.617,3.194-7.603,3.194
			c-1.685,0-3.258-0.338-4.638-1.057c-1.379-0.759-2.565-1.852-3.639-3.289v3.844L163.061,151.143L163.061,151.143L163.061,151.143z
			 M173.807,149.086c1.498,0,2.877-0.38,4.135-1.102c1.299-0.763,2.291-1.775,3.02-3.119c0.771-1.344,1.117-2.74,1.117-4.234
			c0-1.454-0.352-2.899-1.125-4.212c-0.732-1.353-1.771-2.415-3.032-3.144c-1.261-0.773-2.625-1.117-4.048-1.117
			c-1.482,0-2.87,0.344-4.207,1.117c-1.296,0.729-2.337,1.766-3.04,3.025c-0.704,1.258-1.073,2.669-1.073,4.274
			c0,2.396,0.803,4.429,2.412,6.064C169.529,148.271,171.477,149.086,173.807,149.086z"/>
		
			<linearGradient id="SVGID_4_" gradientUnits="userSpaceOnUse" x1="635.9346" y1="906.1465" x2="635.9346" y2="876.6719" gradientTransform="matrix(1 0 0 1 -462 -754.5)">
			<stop  offset="0" style="stop-color:#29B473"/>
			<stop  offset="0.0983" style="stop-color:#27ABCD"/>
			<stop  offset="0.1183" style="stop-color:#26A9E0"/>
			<stop  offset="0.1835" style="stop-color:#287DC0;stop-opacity:0.9908"/>
			<stop  offset="0.2484" style="stop-color:#2A57A5;stop-opacity:0.9815"/>
			<stop  offset="0.3006" style="stop-color:#2B4095;stop-opacity:0.9741"/>
			<stop  offset="0.3335" style="stop-color:#2B388F;stop-opacity:0.9695"/>
			<stop  offset="0.3547" style="stop-color:#35368F;stop-opacity:0.9747"/>
			<stop  offset="0.39" style="stop-color:#4E328F;stop-opacity:0.9833"/>
			<stop  offset="0.4348" style="stop-color:#782B8E;stop-opacity:0.9944"/>
			<stop  offset="0.4578" style="stop-color:#90278E"/>
			<stop  offset="0.5068" style="stop-color:#94278D"/>
			<stop  offset="0.5577" style="stop-color:#A1278B"/>
			<stop  offset="0.6095" style="stop-color:#B52886"/>
			<stop  offset="0.6616" style="stop-color:#D22880"/>
			<stop  offset="0.6992" style="stop-color:#EC297B"/>
			<stop  offset="0.7259" style="stop-color:#EC2C76"/>
			<stop  offset="0.7572" style="stop-color:#ED3668"/>
			<stop  offset="0.7907" style="stop-color:#EE4650"/>
			<stop  offset="0.8256" style="stop-color:#F05C30"/>
			<stop  offset="0.8383" style="stop-color:#F16522"/>
			<stop  offset="0.8654" style="stop-color:#F16922"/>
			<stop  offset="0.8934" style="stop-color:#F27624"/>
			<stop  offset="0.9218" style="stop-color:#F38A26"/>
			<stop  offset="0.9505" style="stop-color:#F5A729"/>
			<stop  offset="0.9791" style="stop-color:#F7CC2D"/>
			<stop  offset="1" style="stop-color:#F9EC31"/>
		</linearGradient>
		<path fill="url(#SVGID_4_)" d="M163.061,151.143v-28.972h2.707v11.666c1.116-1.382,2.373-2.435,3.76-3.079
			c1.389-0.688,2.912-1.051,4.611-1.051c2.934,0,5.441,1.082,7.524,3.204c2.124,2.159,3.146,4.763,3.146,7.812
			c0,3.022-1.029,5.61-3.164,7.729c-2.098,2.155-4.617,3.194-7.603,3.194c-1.685,0-3.258-0.338-4.638-1.057
			c-1.379-0.759-2.565-1.852-3.639-3.289v3.844L163.061,151.143L163.061,151.143L163.061,151.143z M173.807,149.086
			c1.498,0,2.877-0.38,4.135-1.102c1.299-0.763,2.291-1.775,3.02-3.119c0.771-1.344,1.117-2.74,1.117-4.234
			c0-1.454-0.352-2.899-1.125-4.212c-0.732-1.353-1.771-2.415-3.032-3.144c-1.261-0.773-2.625-1.117-4.048-1.117
			c-1.482,0-2.87,0.344-4.207,1.117c-1.296,0.729-2.337,1.766-3.04,3.025c-0.704,1.258-1.073,2.669-1.073,4.274
			c0,2.396,0.803,4.429,2.412,6.064C169.529,148.271,171.477,149.086,173.807,149.086z"/>
		
			<linearGradient id="SVGID_5_" gradientUnits="userSpaceOnUse" x1="662.2676" y1="906.1104" x2="662.2676" y2="884.1738" gradientTransform="matrix(1 0 0 1 -462 -754.5)">
			<stop  offset="0" style="stop-color:#29B473"/>
			<stop  offset="0.0983" style="stop-color:#27ABCD"/>
			<stop  offset="0.1183" style="stop-color:#26A9E0"/>
			<stop  offset="0.1835" style="stop-color:#287DC0;stop-opacity:0.9908"/>
			<stop  offset="0.2484" style="stop-color:#2A57A5;stop-opacity:0.9815"/>
			<stop  offset="0.3006" style="stop-color:#2B4095;stop-opacity:0.9741"/>
			<stop  offset="0.3335" style="stop-color:#2B388F;stop-opacity:0.9695"/>
			<stop  offset="0.3547" style="stop-color:#35368F;stop-opacity:0.9747"/>
			<stop  offset="0.39" style="stop-color:#4E328F;stop-opacity:0.9833"/>
			<stop  offset="0.4348" style="stop-color:#782B8E;stop-opacity:0.9944"/>
			<stop  offset="0.4578" style="stop-color:#90278E"/>
			<stop  offset="0.5068" style="stop-color:#94278D"/>
			<stop  offset="0.5577" style="stop-color:#A1278B"/>
			<stop  offset="0.6095" style="stop-color:#B52886"/>
			<stop  offset="0.6616" style="stop-color:#D22880"/>
			<stop  offset="0.6992" style="stop-color:#EC297B"/>
			<stop  offset="0.7259" style="stop-color:#EC2C76"/>
			<stop  offset="0.7572" style="stop-color:#ED3668"/>
			<stop  offset="0.7907" style="stop-color:#EE4650"/>
			<stop  offset="0.8256" style="stop-color:#F05C30"/>
			<stop  offset="0.8383" style="stop-color:#F16522"/>
			<stop  offset="0.8654" style="stop-color:#F16922"/>
			<stop  offset="0.8934" style="stop-color:#F27624"/>
			<stop  offset="0.9218" style="stop-color:#F38A26"/>
			<stop  offset="0.9505" style="stop-color:#F5A729"/>
			<stop  offset="0.9791" style="stop-color:#F7CC2D"/>
			<stop  offset="1" style="stop-color:#F9EC31"/>
		</linearGradient>
		<path fill="url(#SVGID_5_)" d="M208.08,144.154l2.286,1.204c-0.769,1.438-1.617,2.63-2.587,3.504
			c-0.973,0.918-2.068,1.602-3.291,2.051c-1.223,0.452-2.6,0.697-4.131,0.697c-3.414,0-6.065-1.111-7.988-3.336
			c-1.922-2.225-2.887-4.773-2.887-7.57c0-2.64,0.817-5.034,2.453-7.105c2.062-2.628,4.819-3.926,8.273-3.926
			c3.566,0,6.424,1.319,8.531,4.033c1.51,1.914,2.254,4.282,2.312,7.146h-18.81c0.077,2.439,0.825,4.411,2.329,5.951
			c1.504,1.581,3.338,2.331,5.541,2.331c1.072,0,2.126-0.17,3.119-0.555c0.994-0.384,1.879-0.849,2.582-1.482
			C206.516,146.502,207.257,145.522,208.08,144.154z M208.08,138.524c-0.335-1.416-0.866-2.588-1.555-3.437
			c-0.683-0.847-1.609-1.539-2.728-2.071c-1.121-0.532-2.321-0.799-3.563-0.799c-2.055,0-3.78,0.668-5.268,2.004
			c-1.086,0.96-1.9,2.381-2.453,4.303H208.08z"/>
		
			<linearGradient id="SVGID_6_" gradientUnits="userSpaceOnUse" x1="662.2676" y1="906.1104" x2="662.2676" y2="884.1738" gradientTransform="matrix(1 0 0 1 -462 -754.5)">
			<stop  offset="0" style="stop-color:#29B473"/>
			<stop  offset="0.0983" style="stop-color:#27ABCD"/>
			<stop  offset="0.1183" style="stop-color:#26A9E0"/>
			<stop  offset="0.1835" style="stop-color:#287DC0;stop-opacity:0.9908"/>
			<stop  offset="0.2484" style="stop-color:#2A57A5;stop-opacity:0.9815"/>
			<stop  offset="0.3006" style="stop-color:#2B4095;stop-opacity:0.9741"/>
			<stop  offset="0.3335" style="stop-color:#2B388F;stop-opacity:0.9695"/>
			<stop  offset="0.3547" style="stop-color:#35368F;stop-opacity:0.9747"/>
			<stop  offset="0.39" style="stop-color:#4E328F;stop-opacity:0.9833"/>
			<stop  offset="0.4348" style="stop-color:#782B8E;stop-opacity:0.9944"/>
			<stop  offset="0.4578" style="stop-color:#90278E"/>
			<stop  offset="0.5068" style="stop-color:#94278D"/>
			<stop  offset="0.5577" style="stop-color:#A1278B"/>
			<stop  offset="0.6095" style="stop-color:#B52886"/>
			<stop  offset="0.6616" style="stop-color:#D22880"/>
			<stop  offset="0.6992" style="stop-color:#EC297B"/>
			<stop  offset="0.7259" style="stop-color:#EC2C76"/>
			<stop  offset="0.7572" style="stop-color:#ED3668"/>
			<stop  offset="0.7907" style="stop-color:#EE4650"/>
			<stop  offset="0.8256" style="stop-color:#F05C30"/>
			<stop  offset="0.8383" style="stop-color:#F16522"/>
			<stop  offset="0.8654" style="stop-color:#F16922"/>
			<stop  offset="0.8934" style="stop-color:#F27624"/>
			<stop  offset="0.9218" style="stop-color:#F38A26"/>
			<stop  offset="0.9505" style="stop-color:#F5A729"/>
			<stop  offset="0.9791" style="stop-color:#F7CC2D"/>
			<stop  offset="1" style="stop-color:#F9EC31"/>
		</linearGradient>
		<path fill="url(#SVGID_6_)" d="M208.08,144.154l2.286,1.204c-0.769,1.438-1.617,2.63-2.587,3.504
			c-0.973,0.918-2.068,1.602-3.291,2.051c-1.223,0.452-2.6,0.697-4.131,0.697c-3.414,0-6.065-1.111-7.988-3.336
			c-1.922-2.225-2.887-4.773-2.887-7.57c0-2.64,0.817-5.034,2.453-7.105c2.062-2.628,4.819-3.926,8.273-3.926
			c3.566,0,6.424,1.319,8.531,4.033c1.51,1.914,2.254,4.282,2.312,7.146h-18.81c0.077,2.439,0.825,4.411,2.329,5.951
			c1.504,1.581,3.338,2.331,5.541,2.331c1.072,0,2.126-0.17,3.119-0.555c0.994-0.384,1.879-0.849,2.582-1.482
			C206.516,146.502,207.257,145.522,208.08,144.154z M208.08,138.524c-0.335-1.416-0.866-2.588-1.555-3.437
			c-0.683-0.847-1.609-1.539-2.728-2.071c-1.121-0.532-2.321-0.799-3.563-0.799c-2.055,0-3.78,0.668-5.268,2.004
			c-1.086,0.96-1.9,2.381-2.453,4.303H208.08z"/>
		
			<linearGradient id="SVGID_7_" gradientUnits="userSpaceOnUse" x1="686.2461" y1="906.1104" x2="686.2461" y2="884.1719" gradientTransform="matrix(1 0 0 1 -462 -754.5)">
			<stop  offset="0" style="stop-color:#29B473"/>
			<stop  offset="0.0983" style="stop-color:#27ABCD"/>
			<stop  offset="0.1183" style="stop-color:#26A9E0"/>
			<stop  offset="0.1835" style="stop-color:#287DC0;stop-opacity:0.9908"/>
			<stop  offset="0.2484" style="stop-color:#2A57A5;stop-opacity:0.9815"/>
			<stop  offset="0.3006" style="stop-color:#2B4095;stop-opacity:0.9741"/>
			<stop  offset="0.3335" style="stop-color:#2B388F;stop-opacity:0.9695"/>
			<stop  offset="0.3547" style="stop-color:#35368F;stop-opacity:0.9747"/>
			<stop  offset="0.39" style="stop-color:#4E328F;stop-opacity:0.9833"/>
			<stop  offset="0.4348" style="stop-color:#782B8E;stop-opacity:0.9944"/>
			<stop  offset="0.4578" style="stop-color:#90278E"/>
			<stop  offset="0.5068" style="stop-color:#94278D"/>
			<stop  offset="0.5577" style="stop-color:#A1278B"/>
			<stop  offset="0.6095" style="stop-color:#B52886"/>
			<stop  offset="0.6616" style="stop-color:#D22880"/>
			<stop  offset="0.6992" style="stop-color:#EC297B"/>
			<stop  offset="0.7259" style="stop-color:#EC2C76"/>
			<stop  offset="0.7572" style="stop-color:#ED3668"/>
			<stop  offset="0.7907" style="stop-color:#EE4650"/>
			<stop  offset="0.8256" style="stop-color:#F05C30"/>
			<stop  offset="0.8383" style="stop-color:#F16522"/>
			<stop  offset="0.8654" style="stop-color:#F16922"/>
			<stop  offset="0.8934" style="stop-color:#F27624"/>
			<stop  offset="0.9218" style="stop-color:#F38A26"/>
			<stop  offset="0.9505" style="stop-color:#F5A729"/>
			<stop  offset="0.9791" style="stop-color:#F7CC2D"/>
			<stop  offset="1" style="stop-color:#F9EC31"/>
		</linearGradient>
		<path opacity="0.7" fill="url(#SVGID_7_)" enable-background="new    " d="M230.484,132.476l-1.743,1.786
			c-1.421-1.387-2.818-2.085-4.19-2.085c-0.9,0-1.633,0.284-2.271,0.853c-0.604,0.568-0.902,1.245-0.902,2.029
			c0,0.684,0.264,1.302,0.745,1.936c0.524,0.604,1.608,1.368,3.254,2.208c1.978,1.012,3.342,2.042,4.052,3.004
			c0.697,0.971,1.072,2.067,1.072,3.287c0,1.698-0.59,3.124-1.805,4.33c-1.215,1.206-2.723,1.786-4.523,1.786
			c-1.215,0-2.352-0.266-3.451-0.799c-1.095-0.491-2.018-1.246-2.728-2.139l1.72-1.922c1.332,1.538,2.803,2.326,4.334,2.326
			c1.088,0,2.018-0.363,2.752-1.053c0.78-0.688,1.127-1.508,1.127-2.447c0-0.746-0.219-1.434-0.732-2.06
			c-0.514-0.575-1.633-1.303-3.4-2.219c-1.855-0.97-3.168-1.929-3.85-2.882c-0.642-0.912-1.004-1.999-1.004-3.221
			c0-1.607,0.547-2.9,1.633-3.964c1.09-1.024,2.457-1.559,4.111-1.559C226.609,129.673,228.542,130.621,230.484,132.476z"/>
		
			<linearGradient id="SVGID_8_" gradientUnits="userSpaceOnUse" x1="686.2461" y1="906.1104" x2="686.2461" y2="884.1719" gradientTransform="matrix(1 0 0 1 -462 -754.5)">
			<stop  offset="0" style="stop-color:#29B473"/>
			<stop  offset="0.0983" style="stop-color:#27ABCD"/>
			<stop  offset="0.1183" style="stop-color:#26A9E0"/>
			<stop  offset="0.1835" style="stop-color:#287DC0;stop-opacity:0.9908"/>
			<stop  offset="0.2484" style="stop-color:#2A57A5;stop-opacity:0.9815"/>
			<stop  offset="0.3006" style="stop-color:#2B4095;stop-opacity:0.9741"/>
			<stop  offset="0.3335" style="stop-color:#2B388F;stop-opacity:0.9695"/>
			<stop  offset="0.3547" style="stop-color:#35368F;stop-opacity:0.9747"/>
			<stop  offset="0.39" style="stop-color:#4E328F;stop-opacity:0.9833"/>
			<stop  offset="0.4348" style="stop-color:#782B8E;stop-opacity:0.9944"/>
			<stop  offset="0.4578" style="stop-color:#90278E"/>
			<stop  offset="0.5068" style="stop-color:#94278D"/>
			<stop  offset="0.5577" style="stop-color:#A1278B"/>
			<stop  offset="0.6095" style="stop-color:#B52886"/>
			<stop  offset="0.6616" style="stop-color:#D22880"/>
			<stop  offset="0.6992" style="stop-color:#EC297B"/>
			<stop  offset="0.7259" style="stop-color:#EC2C76"/>
			<stop  offset="0.7572" style="stop-color:#ED3668"/>
			<stop  offset="0.7907" style="stop-color:#EE4650"/>
			<stop  offset="0.8256" style="stop-color:#F05C30"/>
			<stop  offset="0.8383" style="stop-color:#F16522"/>
			<stop  offset="0.8654" style="stop-color:#F16922"/>
			<stop  offset="0.8934" style="stop-color:#F27624"/>
			<stop  offset="0.9218" style="stop-color:#F38A26"/>
			<stop  offset="0.9505" style="stop-color:#F5A729"/>
			<stop  offset="0.9791" style="stop-color:#F7CC2D"/>
			<stop  offset="1" style="stop-color:#F9EC31"/>
		</linearGradient>
		<path fill="url(#SVGID_8_)" d="M230.484,132.475l-1.743,1.787c-1.421-1.387-2.818-2.085-4.19-2.085
			c-0.9,0-1.633,0.284-2.271,0.853c-0.604,0.568-0.902,1.245-0.902,2.029c0,0.684,0.264,1.302,0.745,1.936
			c0.524,0.604,1.608,1.368,3.254,2.208c1.978,1.012,3.342,2.042,4.052,3.004c0.697,0.971,1.072,2.067,1.072,3.287
			c0,1.698-0.59,3.124-1.805,4.33c-1.215,1.206-2.723,1.786-4.523,1.786c-1.215,0-2.352-0.266-3.451-0.799
			c-1.095-0.491-2.018-1.246-2.728-2.139l1.72-1.922c1.332,1.538,2.803,2.326,4.334,2.326c1.088,0,2.018-0.363,2.752-1.053
			c0.78-0.688,1.127-1.508,1.127-2.447c0-0.746-0.219-1.434-0.732-2.06c-0.514-0.575-1.633-1.303-3.4-2.219
			c-1.855-0.97-3.168-1.929-3.85-2.882c-0.642-0.912-1.004-1.999-1.004-3.221c0-1.607,0.547-2.9,1.633-3.964
			c1.09-1.024,2.457-1.559,4.111-1.559C226.609,129.673,228.542,130.621,230.484,132.475z"/>
		
			<linearGradient id="SVGID_9_" gradientUnits="userSpaceOnUse" x1="586.1855" y1="905.5586" x2="586.1855" y2="861.8037" gradientTransform="matrix(1 0 0 1 -462 -754.5)">
			<stop  offset="0" style="stop-color:#29B473"/>
			<stop  offset="0.0983" style="stop-color:#27ABCD"/>
			<stop  offset="0.1183" style="stop-color:#26A9E0"/>
			<stop  offset="0.1835" style="stop-color:#287DC0;stop-opacity:0.9908"/>
			<stop  offset="0.2484" style="stop-color:#2A57A5;stop-opacity:0.9815"/>
			<stop  offset="0.3006" style="stop-color:#2B4095;stop-opacity:0.9741"/>
			<stop  offset="0.3335" style="stop-color:#2B388F;stop-opacity:0.9695"/>
			<stop  offset="0.3547" style="stop-color:#35368F;stop-opacity:0.9747"/>
			<stop  offset="0.39" style="stop-color:#4E328F;stop-opacity:0.9833"/>
			<stop  offset="0.4348" style="stop-color:#782B8E;stop-opacity:0.9944"/>
			<stop  offset="0.4578" style="stop-color:#90278E"/>
			<stop  offset="0.5068" style="stop-color:#94278D"/>
			<stop  offset="0.5577" style="stop-color:#A1278B"/>
			<stop  offset="0.6095" style="stop-color:#B52886"/>
			<stop  offset="0.6616" style="stop-color:#D22880"/>
			<stop  offset="0.6992" style="stop-color:#EC297B"/>
			<stop  offset="0.7259" style="stop-color:#EC2C76"/>
			<stop  offset="0.7572" style="stop-color:#ED3668"/>
			<stop  offset="0.7907" style="stop-color:#EE4650"/>
			<stop  offset="0.8256" style="stop-color:#F05C30"/>
			<stop  offset="0.8383" style="stop-color:#F16522"/>
			<stop  offset="0.8654" style="stop-color:#F16922"/>
			<stop  offset="0.8934" style="stop-color:#F27624"/>
			<stop  offset="0.9218" style="stop-color:#F38A26"/>
			<stop  offset="0.9505" style="stop-color:#F5A729"/>
			<stop  offset="0.9791" style="stop-color:#F7CC2D"/>
			<stop  offset="1" style="stop-color:#F9EC31"/>
		</linearGradient>
		<polygon opacity="0.7" fill="url(#SVGID_9_)" enable-background="new    " points="90.296,117.587 104.194,107.303 
			123.219,107.303 132.289,141.131 137.413,122.026 147.56,122.026 158.078,127.358 140.761,127.358 132.556,151.058 
			132.005,151.058 120.102,117.589 		"/>
		
			<linearGradient id="SVGID_10_" gradientUnits="userSpaceOnUse" x1="551.5" y1="883.6543" x2="620.7383" y2="883.6543" gradientTransform="matrix(1 0 0 1 -462 -754.5)">
			<stop  offset="0" style="stop-color:#29B473"/>
			<stop  offset="0.0983" style="stop-color:#27ABCD"/>
			<stop  offset="0.1183" style="stop-color:#26A9E0"/>
			<stop  offset="0.1835" style="stop-color:#287DC0;stop-opacity:0.9908"/>
			<stop  offset="0.2484" style="stop-color:#2A57A5;stop-opacity:0.9815"/>
			<stop  offset="0.3006" style="stop-color:#2B4095;stop-opacity:0.9741"/>
			<stop  offset="0.3335" style="stop-color:#2B388F;stop-opacity:0.9695"/>
			<stop  offset="0.3547" style="stop-color:#35368F;stop-opacity:0.9747"/>
			<stop  offset="0.39" style="stop-color:#4E328F;stop-opacity:0.9833"/>
			<stop  offset="0.4348" style="stop-color:#782B8E;stop-opacity:0.9944"/>
			<stop  offset="0.4578" style="stop-color:#90278E"/>
			<stop  offset="0.5068" style="stop-color:#94278D"/>
			<stop  offset="0.5577" style="stop-color:#A1278B"/>
			<stop  offset="0.6095" style="stop-color:#B52886"/>
			<stop  offset="0.6616" style="stop-color:#D22880"/>
			<stop  offset="0.6992" style="stop-color:#EC297B"/>
			<stop  offset="0.7259" style="stop-color:#EC2C76"/>
			<stop  offset="0.7572" style="stop-color:#ED3668"/>
			<stop  offset="0.7907" style="stop-color:#EE4650"/>
			<stop  offset="0.8256" style="stop-color:#F05C30"/>
			<stop  offset="0.8383" style="stop-color:#F16522"/>
			<stop  offset="0.8654" style="stop-color:#F16922"/>
			<stop  offset="0.8934" style="stop-color:#F27624"/>
			<stop  offset="0.9218" style="stop-color:#F38A26"/>
			<stop  offset="0.9505" style="stop-color:#F5A729"/>
			<stop  offset="0.9791" style="stop-color:#F7CC2D"/>
			<stop  offset="1" style="stop-color:#F9EC31"/>
		</linearGradient>
		<polygon fill="url(#SVGID_10_)" points="89.5,117.552 103.685,107.26 123.116,107.26 132.361,141.113 137.646,121.996 
			147.979,121.996 158.738,127.329 141.043,127.329 132.632,151.05 132.075,151.05 119.952,117.554 		"/>
	</g>
	<rect y="201.75" fill="none" width="320" height="59"/>
	<text transform="matrix(1 0 0 1 120.2119 214.8896)" font-family="'Raleway-Thin'" font-size="18">Loading ...</text>
</g>
<g id="sqre">
	<rect x="114.5" y="233.5" fill="#FFFFFF" stroke="#000000" stroke-miterlimit="10" width="90" height="59"/>
</g>



</svg>
