<?xml version="1.0" encoding="utf-8"?>
<!-- Generator: Adobe Illustrator 16.0.4, SVG Export Plug-In . SVG Version: 6.00 Build 0)  -->
<!DOCTYPE svg PUBLIC "-//W3C//DTD SVG 1.1//EN" "http://www.w3.org/Graphics/SVG/1.1/DTD/svg11.dtd">
<svg version="1.1" id="Layer_1" xmlns="http://www.w3.org/2000/svg" xmlns:xlink="http://www.w3.org/1999/xlink" x="0px" y="0px"
	 width="320.511px" height="569.557px" viewBox="0 0 320.511 569.557" enable-background="new 0 0 320.511 569.557"
	 xml:space="preserve">
<g id="Layer_1_1_" display="none">
	<g display="inline">
		<polygon opacity="0.3" fill="#ED2A25" enable-background="new    " points="13.611,569 40.332,486.822 81.168,569 		"/>
		<polygon opacity="0.4" fill="#F7961D" enable-background="new    " points="196.49,571 237.326,485.798 264.55,571 		"/>
		<polygon opacity="0.3" fill="#F8ED40" enable-background="new    " points="185.602,490.446 204.197,602.201 143.813,570.798 		
			"/>
		<polyline opacity="0.4" fill="#ED4798" enable-background="new    " points="249.539,573.557 278.289,492.388 343.511,573.557 		
			"/>
		<polyline opacity="0.3" fill="#426EB5" enable-background="new    " points="56.45,571.475 90.228,495.851 129.048,571.475 		"/>
		<polygon opacity="0.8" fill="#F8ED40" enable-background="new    " points="15.933,485.418 44.197,602.201 -25.855,565.77 		"/>
		<polygon opacity="0.8" fill="#F7961D" enable-background="new    " points="27.49,575 68.326,489.798 95.551,575 		"/>
		<polygon opacity="0.8" fill="#ED2A25" enable-background="new    " points="270.341,575 298.751,492.822 342.167,575 		"/>
		<polygon opacity="0.8" fill="#06B052" enable-background="new    " points="79.973,571 115.691,511.509 141.52,571 		"/>
		<polyline opacity="0.8" fill="#ED4798" enable-background="new    " points="206.511,576.557 141.289,495.388 112.539,576.557 		
			"/>
		<polyline opacity="0.8" fill="#754D9E" enable-background="new    " points="237.453,573.475 254.982,504.908 288.947,573.475 		
			"/>
		<polyline opacity="0.8" fill="#426EB5" enable-background="new    " points="179.451,573.475 213.228,497.851 252.048,573.475 		
			"/>
		<polygon fill="#F8ED40" points="15.933,485.418 32.791,510.014 26.539,529.241 		"/>
		<polygon opacity="0.4" fill="#ED2A25" enable-background="new    " points="40.332,486.822 26.54,500.894 32.791,510.014 		"/>
		<polygon opacity="0.9" fill="#F7961D" enable-background="new    " points="68.326,489.798 83.902,510.014 78.587,521.911 		"/>
		<polygon opacity="0.4" fill="#426EB5" enable-background="new    " points="90.228,495.851 110.259,520.556 106.297,527.155 		"/>
		<polygon opacity="0.9" fill="#06B052" enable-background="new    " points="115.691,511.509 131.48,523.081 126.644,536.735 		"/>
		<polygon fill="#ED4798" points="141.289,495.388 170.489,519.505 166.63,526.925 		"/>
		<polygon opacity="0.4" fill="#F8ED40" enable-background="new    " points="185.602,490.446 202.48,521.911 194.041,540.808 		"/>
		<polygon fill="#426EB5" points="213.228,497.851 200.25,517.751 202.48,521.911 		"/>
		<polygon opacity="0.3" fill="#F7961D" enable-background="new    " points="237.326,485.798 218.708,508.528 222.703,516.309 		
			"/>
		<polygon opacity="0.9" fill="#754D9E" enable-background="new    " points="254.982,504.908 270.058,515.627 265.986,527.122 		
			"/>
		<polygon opacity="0.5" fill="#ED4798" enable-background="new    " points="278.289,492.388 254.982,504.908 270.058,515.627 		
			"/>
		<polygon opacity="0.9" fill="#ED2A25" enable-background="new    " points="298.751,492.822 320.511,511 320.458,533.911 		"/>
		<polygon opacity="0.7" fill="#06B052" enable-background="new    " points="115.691,511.509 141.289,495.388 131.48,523.081 		"/>
		<polygon opacity="0.5" fill="#426EB5" enable-background="new    " points="115.691,511.509 90.228,495.851 110.259,520.556 		"/>
		<polygon fill="#F7961D" points="68.326,489.798 90.228,495.851 83.902,510.014 		"/>
		<polygon opacity="0.4" fill="#ED2A25" enable-background="new    " points="40.332,486.822 68.326,489.798 55.308,516.96 		"/>
		<polygon opacity="0.7" fill="#ED4798" enable-background="new    " points="15.933,485.418 0,488.75 0.223,515.627 		"/>
		<polygon opacity="0.4" fill="#426EB5" enable-background="new    " points="90.228,495.851 100.562,477.25 115.691,511.509 		"/>
		<polygon opacity="0.9" fill="#F7961D" enable-background="new    " points="68.326,489.798 76.114,481.001 90.228,495.851 		"/>
		<polygon opacity="0.5" fill="#F7961D" enable-background="new    " points="237.326,485.798 254.982,504.908 249.849,524.988 		
			"/>
		<polygon opacity="0.9" fill="#426EB5" enable-background="new    " points="213.228,497.851 187,471 185.602,490.446 
			200.25,517.751 		"/>
		<polygon opacity="0.7" fill="#426EB5" enable-background="new    " points="185.602,490.446 213.228,497.851 200.25,517.751 		"/>
		<polygon opacity="0.45" fill="#F7961D" enable-background="new    " points="237.326,485.798 218.708,473.25 213.228,497.851 
			218.708,508.528 		"/>
		<polygon opacity="0.6" fill="#ED4798" enable-background="new    " points="254.982,504.908 274,467 278.289,492.388 		"/>
		<polygon opacity="0.7" fill="#ED4798" enable-background="new    " points="274,467 298.751,492.822 292.701,510.323 
			278.289,492.388 		"/>
		<polygon opacity="0.5" fill="#426EB5" enable-background="new    " points="108.572,495.388 120.833,481.833 115.691,511.509 		
			"/>
		<polygon fill="#ED2A25" points="320.511,511 306.255,467 298.751,492.822 		"/>
		<polygon opacity="0.4" fill="#ED2A25" enable-background="new    " points="298.916,492.822 270.341,575 304,575 		"/>
		<polygon opacity="0.5" fill="#ED4798" enable-background="new    " points="141.289,495.831 112.539,577 153,577 		"/>
		<polygon opacity="0.8" fill="#06B052" enable-background="new    " points="115.691,511.509 131.48,477.25 141.289,495.831 		"/>
		<polyline opacity="0.5" fill="#ED2A25" enable-background="new    " points="40.332,486.822 56.45,461.666 68.326,489.798 		"/>
		<polygon opacity="0.8" fill="#ED4798" enable-background="new    " points="0,488.75 19.667,461.666 15.933,485.418 		"/>
		<polygon opacity="0.9" fill="#ED4798" enable-background="new    " points="19.667,461.666 26.54,500.894 15.933,485.418 		"/>
		<polygon fill="#F8ED40" points="0,569 0.223,515.627 15.933,485.418 9.833,569.557 		"/>
		<polygon opacity="0.9" fill="#ED4798" enable-background="new    " points="150.8,503.242 161.5,467 179.451,503.242 
			170.489,519.505 		"/>
		<polygon fill="#ED2A25" points="0,570 28.334,531.111 39.667,570 		"/>
		<polygon opacity="0.9" fill="#ED2A25" enable-background="new    " points="28.334,531.111 0,550.556 0,570 		"/>
		<polygon fill="#754D9E" points="32.035,544.81 47.39,517.96 72.334,569.997 39.667,571 		"/>
		<polygon fill="#426EB5" points="57.5,569.25 75.908,527.911 92.749,569.557 		"/>
		<polygon opacity="0.9" fill="#754D9E" enable-background="new    " points="47.39,517.96 71.497,537.817 64.471,553.594 		"/>
		<polygon fill="#F8ED40" points="86.419,553.815 103.896,519.838 123.586,570 93,570 		"/>
		<polygon opacity="0.9" fill="#426EB5" enable-background="new    " points="75.908,527.911 93.691,539.679 86.419,553.815 		"/>
		<polygon fill="#F7961D" points="112.539,570 135.167,537.179 154.334,570 		"/>
		<polygon opacity="0.9" fill="#F8ED40" enable-background="new    " points="103.896,519.838 129.048,546.324 119.578,559.79 		"/>
		<polygon opacity="0.9" fill="#F7961D" enable-background="new    " points="135.167,537.179 155.889,542.818 147.606,558.479 		
			"/>
		<polygon fill="#06B052" points="141.75,570.557 164.125,522.911 187,570 		"/>
		<polygon fill="#ED4798" points="180.453,556.521 204.197,524.988 223,569.557 187,570 		"/>
		<polygon opacity="0.9" fill="#06B052" enable-background="new    " points="164.125,522.911 187.824,546.734 180.453,556.521 		
			"/>
		<polygon fill="#F8ED40" points="214.75,570 234.75,534.354 264.55,570 		"/>
		<polygon fill="#426EB5" points="253.5,570 284,520.281 312.25,570 		"/>
		<polygon opacity="0.9" fill="#ED4798" enable-background="new    " points="204.197,524.988 228.96,544.673 219.565,561.417 		"/>
		<polygon opacity="0.9" fill="#F8ED40" enable-background="new    " points="234.75,534.354 267.307,547.494 258.177,562.376 		"/>
		<polygon fill="#F7961D" points="296.645,542.546 312.555,518.484 321,542.324 321,570 312,570 		"/>
		<polygon opacity="0.9" fill="#426EB5" enable-background="new    " points="284,520.281 304.998,529.914 296.645,542.546 		"/>
		<polygon opacity="0.9" fill="#F7961D" enable-background="new    " points="312.555,518.484 320.475,527.122 320.511,540.943 		
			"/>
		<polygon fill="#426EB5" points="187,471 175.975,496.224 179.451,503.242 185.602,490.446 		"/>
		<g>
			<polygon opacity="0.3" fill="#ED2A25" enable-background="new    " points="307.044,-51 280.324,31.178 239.488,-51 			"/>
			<polygon opacity="0.4" fill="#F7961D" enable-background="new    " points="124.166,-53 83.33,32.202 56.105,-53 			"/>
			<polygon opacity="0.3" fill="#F8ED40" enable-background="new    " points="135.055,27.421 116.459,-84.334 176.843,-52.931 			
				"/>
			<polyline opacity="0.4" fill="#ED4798" enable-background="new    " points="71.117,-55.689 42.367,25.479 -22.854,-55.689 			
				"/>
			<polyline opacity="0.3" fill="#426EB5" enable-background="new    " points="264.207,-53.607 230.429,22.017 191.608,-53.607 			
				"/>
			<polygon opacity="0.8" fill="#F8ED40" enable-background="new    " points="304.723,32.449 276.458,-84.334 346.512,-47.902 			
				"/>
			<polygon opacity="0.8" fill="#F7961D" enable-background="new    " points="293.166,-57 252.33,28.202 225.105,-57 			"/>
			<polygon opacity="0.8" fill="#ED2A25" enable-background="new    " points="50.314,-57 21.905,25.178 -21.512,-57 			"/>
			<polygon opacity="0.8" fill="#06B052" enable-background="new    " points="240.684,-53 204.964,6.491 179.137,-53 			"/>
			<polyline opacity="0.8" fill="#ED4798" enable-background="new    " points="114.146,-58.689 179.367,22.479 208.117,-58.689 			
				"/>
			<polyline opacity="0.8" fill="#754D9E" enable-background="new    " points="83.203,-55.607 65.674,12.959 31.709,-55.607 			"/>
			<polyline opacity="0.8" fill="#426EB5" enable-background="new    " points="141.206,-55.607 107.429,20.017 68.608,-55.607 			
				"/>
			<polygon fill="#F8ED40" points="304.723,32.449 287.865,7.854 294.117,-11.374 			"/>
			<polygon opacity="0.4" fill="#ED2A25" enable-background="new    " points="280.324,31.045 294.117,16.974 287.865,7.854 			"/>
			<polygon opacity="0.9" fill="#F7961D" enable-background="new    " points="252.33,28.069 236.753,7.854 242.068,-4.044 			"/>
			<polygon opacity="0.4" fill="#426EB5" enable-background="new    " points="230.429,22.017 210.396,-2.688 214.359,-9.288 			"/>
			<polygon opacity="0.9" fill="#06B052" enable-background="new    " points="204.964,6.358 189.175,-5.214 194.013,-18.868 			"/>
			<polygon fill="#ED4798" points="179.367,22.479 150.167,-1.638 154.026,-9.058 			"/>
			<polygon opacity="0.4" fill="#F8ED40" enable-background="new    " points="135.055,27.421 118.176,-4.044 126.615,-22.94 			"/>
			<polygon fill="#426EB5" points="107.429,20.017 120.407,0.116 118.176,-4.044 			"/>
			<polygon opacity="0.3" fill="#F7961D" enable-background="new    " points="83.33,32.069 101.947,9.339 97.953,1.559 			"/>
			<polygon opacity="0.9" fill="#754D9E" enable-background="new    " points="65.674,12.959 50.599,2.24 54.67,-9.255 			"/>
			<polygon opacity="0.5" fill="#ED4798" enable-background="new    " points="42.367,25.479 65.674,12.959 50.599,2.24 			"/>
			<polygon opacity="0.9" fill="#ED2A25" enable-background="new    " points="21.905,25.045 0.146,6.867 0.197,-16.044 			"/>
			<polygon opacity="0.7" fill="#06B052" enable-background="new    " points="204.964,6.358 179.367,22.479 189.175,-5.214 			"/>
			<polygon opacity="0.5" fill="#426EB5" enable-background="new    " points="204.964,6.358 230.429,22.017 210.396,-2.688 			"/>
			<polygon fill="#F7961D" points="252.33,28.069 230.429,22.017 236.753,7.854 			"/>
			<polygon opacity="0.4" fill="#ED2A25" enable-background="new    " points="280.324,31.045 252.33,28.069 265.348,0.907 			"/>
			<polygon opacity="0.7" fill="#ED4798" enable-background="new    " points="304.723,32.449 320.656,29.117 320.434,2.24 			"/>
			<polygon opacity="0.4" fill="#426EB5" enable-background="new    " points="230.429,22.017 220.093,40.617 204.964,6.358 			"/>
			<polygon opacity="0.9" fill="#F7961D" enable-background="new    " points="252.33,28.069 244.542,36.866 230.429,22.017 			"/>
			<polygon opacity="0.5" fill="#F7961D" enable-background="new    " points="83.33,32.069 65.674,12.959 70.808,-7.121 			"/>
			<polygon opacity="0.9" fill="#426EB5" enable-background="new    " points="107.429,20.017 133.656,46.867 135.055,27.421 
				120.407,0.116 			"/>
			<polygon opacity="0.7" fill="#426EB5" enable-background="new    " points="135.055,27.421 107.429,20.017 120.407,0.116 			"/>
			<polygon opacity="0.45" fill="#F7961D" enable-background="new    " points="83.33,32.069 101.947,44.617 107.429,20.017 
				101.947,9.339 			"/>
			<polygon opacity="0.6" fill="#ED4798" enable-background="new    " points="65.674,12.959 46.656,50.867 42.367,25.479 			"/>
			<polygon opacity="0.7" fill="#ED4798" enable-background="new    " points="46.656,50.867 21.905,25.045 27.955,7.544 
				42.367,25.479 			"/>
			<polygon opacity="0.5" fill="#426EB5" enable-background="new    " points="212.083,22.479 199.822,36.034 204.964,6.358 			"/>
			<polygon fill="#ED2A25" points="0.146,6.867 14.401,50.867 21.905,25.045 			"/>
			<polygon opacity="0.4" fill="#ED2A25" enable-background="new    " points="21.74,25.178 50.314,-57 16.656,-57 			"/>
			<polygon opacity="0.5" fill="#ED4798" enable-background="new    " points="179.367,22.169 208.117,-59 167.656,-59 			"/>
			<polygon opacity="0.8" fill="#06B052" enable-background="new    " points="204.964,6.358 189.175,40.617 179.367,22.036 			"/>
			<polyline opacity="0.5" fill="#ED2A25" enable-background="new    " points="280.324,31.045 264.207,56.201 252.33,28.069 			"/>
			<polygon opacity="0.8" fill="#ED4798" enable-background="new    " points="320.656,29.117 300.99,56.201 304.723,32.449 			"/>
			<polygon opacity="0.9" fill="#ED4798" enable-background="new    " points="300.99,56.201 294.117,16.974 304.723,32.449 			"/>
			<polygon fill="#F8ED40" points="320.656,-51.133 320.434,2.24 304.723,32.449 310.824,-51.689 			"/>
			<polygon opacity="0.9" fill="#ED4798" enable-background="new    " points="169.856,14.625 159.156,50.867 141.206,14.625 
				150.167,-1.638 			"/>
			<polygon fill="#ED2A25" points="320.656,-52 292.322,-13.111 280.988,-52 			"/>
			<polygon opacity="0.9" fill="#ED2A25" enable-background="new    " points="292.666,-13.244 321,-32.688 321,-52.133 			"/>
			<polygon fill="#754D9E" points="288.621,-26.942 273.267,-0.093 248.322,-52.13 280.988,-53.133 			"/>
			<polygon fill="#426EB5" points="263.156,-51.383 244.748,-10.044 227.908,-51.689 			"/>
			<polygon opacity="0.9" fill="#754D9E" enable-background="new    " points="273.267,-0.093 249.16,-19.95 256.186,-35.727 			"/>
			<polygon fill="#F8ED40" points="234.237,-35.882 216.759,-1.871 197.07,-52 227.656,-52 			"/>
			<polygon opacity="0.9" fill="#426EB5" enable-background="new    " points="244.748,-10.044 226.964,-21.812 234.237,-35.948 			
				"/>
			<polygon fill="#F7961D" points="208.117,-52 185.489,-19.179 166.322,-52 			"/>
			<polygon opacity="0.9" fill="#F8ED40" enable-background="new    " points="216.759,-1.971 191.608,-28.457 201.078,-41.923 			
				"/>
			<polygon opacity="0.9" fill="#F7961D" enable-background="new    " points="185.489,-19.312 164.768,-24.951 173.05,-40.612 			
				"/>
			<polygon fill="#06B052" points="178.906,-52.689 156.531,-5.044 133.656,-52.133 			"/>
			<polygon fill="#ED4798" points="140.203,-38.655 116.459,-7.121 97.656,-51.689 133.656,-52.133 			"/>
			<polygon opacity="0.9" fill="#06B052" enable-background="new    " points="156.531,-5.044 132.833,-28.867 140.203,-38.655 			
				"/>
			<polygon fill="#F8ED40" points="105.906,-52 85.906,-16.354 56.105,-52 			"/>
			<polygon fill="#426EB5" points="67.156,-52 36.656,-2.281 8.406,-52 			"/>
			<polygon opacity="0.9" fill="#ED4798" enable-background="new    " points="116.459,-7.121 91.695,-26.806 101.091,-43.55 			"/>
			<polygon opacity="0.9" fill="#F8ED40" enable-background="new    " points="85.906,-16.487 53.35,-29.627 62.479,-44.509 			"/>
			<polygon fill="#F7961D" points="20.012,0.388 4.273,24.416 -4,0.543 -4,-27 4.656,-27 			"/>
			<polygon opacity="0.9" fill="#426EB5" enable-background="new    " points="36.656,-2.414 15.659,-12.047 24.012,-24.679 			"/>
			<polygon opacity="0.9" fill="#F7961D" enable-background="new    " points="4.102,24.383 -3.818,15.745 -3.854,1.924 			"/>
			<polygon fill="#426EB5" points="133.656,46.867 144.682,21.644 141.206,14.625 135.055,27.421 			"/>
		</g>
	</g>
</g>
<rect y="15.557" fill="#FFFFFF" width="326" height="569"/>
<g display="none">
	<polygon display="inline" opacity="0.6" fill="#F8ED40" enable-background="new    " points="73.091,569 119.08,500.017 
		171.503,569 	"/>
	<polygon display="inline" opacity="0.6" fill="#ED2A25" enable-background="new    " points="11.976,569 70.306,481.505 
		136.795,569 	"/>
	<polygon display="inline" opacity="0.7" fill="#ED4798" enable-background="new    " points="30.45,569 63.37,519.616 100.901,569 
			"/>
	<polygon display="inline" opacity="0.8" fill="#426EB5" enable-background="new    " points="-5.779,569 13.939,539.424 
		36.416,569 	"/>
	<polygon display="inline" fill="#F8ED40" points="284.271,569 303.988,539.424 326.464,569 	"/>
	<polygon display="inline" opacity="0.4" fill="#754D9E" enable-background="new    " points="156.717,569 202.707,500.017 
		255.128,569 	"/>
	<polygon display="inline" opacity="0.6" fill="#06B052" enable-background="new    " points="98.604,569 156.269,482.502 
		222.001,569 	"/>
	<polygon display="inline" opacity="0.6" fill="#426EB5" enable-background="new    " points="186.349,569 244.014,482.502 
		309.744,569 	"/>
	<polygon display="inline" opacity="0.5" fill="#F7961D" enable-background="new    " points="215.125,569 248.048,519.616 
		285.578,569 	"/>
	<polygon display="inline" opacity="0.7" fill="#ED4798" enable-background="new    " points="63.37,519.207 94.888,535.895 
		86.085,549.1 	"/>
	<polygon display="inline" opacity="0.05" enable-background="new    " points="63.37,519.207 94.888,535.895 86.085,549.1 	"/>
	<polygon display="inline" opacity="0.8" fill="#F8ED40" enable-background="new    " points="119.08,499.607 93.792,512.004 
		102.86,523.936 	"/>
	<polygon display="inline" opacity="0.5" fill="#754D9E" enable-background="new    " points="202.707,499.607 226.813,507.893 
		218.492,520.379 	"/>
	<polygon display="inline" fill="#F8ED40" points="99.675,567.053 116.429,542.127 136.795,569 100.811,569 	"/>
	<polyline display="inline" fill="#F7961D" points="218.526,563.41 233.792,540.754 255.128,569 221.895,569 218.526,564.224 	"/>
	<polygon display="inline" opacity="0.9" fill="#F7961D" enable-background="new    " points="102.86,523.936 74.385,567.993 
		99.675,567.993 116.429,541.749 	"/>
	<polygon display="inline" fill="#F7961D" points="102.86,523.936 87.907,532.201 95.084,535.968 	"/>
	<polygon display="inline" opacity="0.05" enable-background="new    " points="102.364,523.936 87.411,532.201 94.587,535.968 	"/>
	<polygon display="inline" opacity="0.7" fill="#ED4798" enable-background="new    " points="248.048,519.207 285.193,567.993 
		254.746,567.993 233.792,540.502 	"/>
	<polygon display="inline" opacity="0.8" fill="#ED4798" enable-background="new    " points="248.048,519.207 225.837,529.953 
		233.792,540.502 	"/>
	<polygon display="inline" fill="#426EB5" points="13.939,538.92 28.436,543.805 23.396,551.363 	"/>
	<polygon display="inline" fill="#F8ED40" points="303.988,538.92 290.98,543.805 296.175,550.64 	"/>
	<polygon display="inline" opacity="0.05" enable-background="new    " points="303.988,538.92 290.98,543.805 296.175,550.64 	"/>
</g>
<g display="none">
	<polygon display="inline" opacity="0.9" fill="#F7961D" enable-background="new    " points="322.802,-1 291.613,45.783 
		256.061,-1 	"/>
	<polygon display="inline" opacity="0.6" fill="#F8ED40" enable-background="new    " points="220.515,-7 189.326,39.783 
		153.774,-7 	"/>
	<polygon display="inline" opacity="0.5" fill="#06B052" enable-background="new    " points="66.802,0 35.613,46.783 0.061,0 	"/>
	<polygon display="inline" opacity="0.6" fill="#ED2A25" enable-background="new    " points="96.515,-1 65.326,45.783 29.774,-1 	
		"/>
	<polygon display="inline" opacity="0.4" fill="#754D9E" enable-background="new    " points="293.515,0 262.326,46.783 226.774,0 	
		"/>
	<polygon display="inline" opacity="0.6" fill="#ED2A25" enable-background="new    " points="261.962,-7 222.404,52.337 
		177.312,-7 	"/>
	<polygon display="inline" opacity="0.7" fill="#ED4798" enable-background="new    " points="249.434,-7 227.107,26.491 
		201.655,-7 	"/>
	<polygon display="inline" opacity="0.7" fill="#ED4798" enable-background="new    " points="13.297,0 -0.075,20.058 -15.318,0 	
		"/>
	<polygon display="inline" opacity="0.6" fill="#F8ED40" enable-background="new    " points="334.296,0 320.925,20.058 305.682,0 	
		"/>
	<polygon display="inline" opacity="0.4" fill="#754D9E" enable-background="new    " points="163.802,-7 132.613,39.783 97.061,-7 
			"/>
	<polygon display="inline" opacity="0.6" fill="#06B052" enable-background="new    " points="203.212,-7 164.105,51.661 
		119.527,-7 	"/>
	<polygon display="inline" opacity="0.6" fill="#426EB5" enable-background="new    " points="143.706,-7 104.599,51.661 60.022,-7 
			"/>
	<polygon display="inline" opacity="0.5" fill="#F7961D" enable-background="new    " points="124.191,-7 101.863,26.491 76.411,-7 
			"/>
	<polygon display="inline" opacity="0.7" fill="#ED4798" enable-background="new    " points="227.107,26.432 205.733,15.115 
		211.703,6.16 	"/>
	<polygon display="inline" opacity="0.05" enable-background="new    " points="227.107,26.432 205.733,15.115 211.703,6.16 	"/>
	<polygon display="inline" opacity="0.8" fill="#F8ED40" enable-background="new    " points="189.326,39.724 206.477,31.317 
		200.328,23.226 	"/>
	<polygon display="inline" opacity="0.5" fill="#754D9E" enable-background="new    " points="132.613,39.724 116.264,34.105 
		121.908,25.637 	"/>
	<polygon display="inline" fill="#F8ED40" points="202.486,-5.848 191.125,11.141 177.312,-7 201.716,-7 	"/>
	<polyline display="inline" opacity="0.9" fill="#F7961D" enable-background="new    " points="121.884,-3.545 111.53,11.988 
		97.061,-7 119.6,-7 121.884,-3.929 	"/>
	<polygon display="inline" opacity="0.9" fill="#F7961D" enable-background="new    " points="200.328,23.226 219.638,-6.654 
		202.486,-6.654 191.125,11.145 	"/>
	<polygon display="inline" fill="#F7961D" points="200.328,23.226 210.468,17.62 205.6,15.065 	"/>
	<polygon display="inline" opacity="0.05" enable-background="new    " points="200.664,23.226 210.804,17.62 205.938,15.065 	"/>
	<polygon display="inline" opacity="0.7" fill="#ED4798" enable-background="new    " points="101.863,26.432 76.672,-6.654 
		97.321,-6.654 111.53,11.99 	"/>
	<polygon display="inline" opacity="0.8" fill="#ED4798" enable-background="new    " points="101.863,26.432 116.925,19.145 
		111.53,11.99 	"/>
	<polygon display="inline" opacity="0.7" fill="#426EB5" enable-background="new    " points="104.599,51.661 74.865,31.475 
		81.592,21.385 	"/>
	<polygon display="inline" opacity="0.7" fill="#ED2A25" enable-background="new    " points="65.326,45.783 45.818,31.475 
		49.854,25.422 	"/>
	<polygon display="inline" opacity="0.8" fill="#ED4798" enable-background="new    " points="-0.075,20.058 11.08,14.5 
		6.968,9.089 	"/>
	<polygon display="inline" opacity="0.6" fill="#06B052" enable-background="new    " points="35.613,46.783 51.447,35.603 
		45.818,31.475 	"/>
	<polygon display="inline" opacity="0.9" fill="#F8ED40" enable-background="new    " points="29.774,-1 49.854,25.422 66.802,-1 	
		"/>
	<polygon display="inline" opacity="0.7" fill="#ED2A25" enable-background="new    " points="222.404,52.337 249.434,29.817 
		243.033,21.395 	"/>
	<polygon display="inline" opacity="0.6" fill="#754D9E" enable-background="new    " points="262.326,46.783 280.74,31.475 
		276.141,25.422 	"/>
	<polygon display="inline" opacity="0.8" fill="#426EB5" enable-background="new    " points="256.666,0 276.141,25.422 293.515,0 	
		"/>
	<polygon display="inline" opacity="0.8" fill="#F8ED40" enable-background="new    " points="320.232,19.146 312.091,15.065 
		314.708,11.141 	"/>
</g>
<polygon opacity="0.4" fill="#F7961D" enable-background="new    " points="84.083,596.263 98.441,454.529 119.67,596.263 "/>
<polygon opacity="0.4" fill="#F8ED40" enable-background="new    " points="242.973,596.263 256.862,447.622 277.401,596.263 "/>
<g>
	<rect x="287.374" y="475.03" opacity="0.5" fill="#754D9E" enable-background="new    " width="9.848" height="119.332"/>
	<rect x="26.948" y="494.779" opacity="0.5" fill="#F7961D" enable-background="new    " width="24.551" height="101.775"/>
	<rect x="2.299" y="460.995" opacity="0.5" fill="#F8ED40" enable-background="new    " width="24.552" height="135.56"/>
	<rect x="51.479" y="485.125" opacity="0.5" fill="#ED2A25" enable-background="new    " width="36.747" height="111.432"/>
	<rect x="88.226" y="508.547" opacity="0.5" fill="#ED4798" enable-background="new    " width="24.539" height="88.01"/>
	<rect x="125" y="502.979" opacity="0.5" fill="#754D9E" enable-background="new    " width="24.591" height="93.578"/>
	<rect x="149.668" y="481.779" opacity="0.5" fill="#426EB5" enable-background="new    " width="24.592" height="114.777"/>
	<rect x="174.354" y="472.58" opacity="0.5" fill="#06B052" enable-background="new    " width="24.592" height="143.977"/>
	<rect x="198.975" y="464.386" opacity="0.5" fill="#F8ED40" enable-background="new    " width="12.295" height="132.171"/>
	<rect x="211.27" y="485.125" opacity="0.5" fill="#F7961D" enable-background="new    " width="20.154" height="111.432"/>
	<rect x="231.424" y="514.683" opacity="0.5" fill="#ED2A25" enable-background="new    " width="20.154" height="81.874"/>
	<rect x="251.579" y="504.175" opacity="0.5" fill="#ED4798" enable-background="new    " width="21.1" height="92.324"/>
	<rect x="297.36" y="457.304" opacity="0.5" fill="#06B052" enable-background="new    " width="24.746" height="137.015"/>
	<rect x="272.678" y="450.414" opacity="0.5" fill="#F3BCD1" enable-background="new    " width="14.77" height="143.919"/>
	<rect x="112.705" y="481.779" opacity="0.5" fill="#F3BCD1" enable-background="new    " width="12.295" height="114.72"/>
</g>
<g>
	<rect x="0.007" y="491.159" opacity="0.6" fill="#06B052" enable-background="new    " width="24.746" height="103.396"/>
	<rect x="24.558" y="513.05" opacity="0.6" fill="#426EB5" enable-background="new    " width="24.746" height="81.506"/>
	<rect x="49.143" y="494.006" opacity="0.6" fill="#754D9E" enable-background="new    " width="24.746" height="100.55"/>
	<rect x="73.658" y="514.683" opacity="0.6" fill="#F3BCD1" enable-background="new    " width="24.745" height="79.873"/>
	<rect x="98.196" y="531.753" opacity="0.6" fill="#ED4798" enable-background="new    " width="24.746" height="62.803"/>
	<rect x="122.808" y="514.683" opacity="0.6" fill="#ED2A25" enable-background="new    " width="24.746" height="79.873"/>
	<rect x="147.396" y="501.105" opacity="0.6" fill="#F7961D" enable-background="new    " width="24.745" height="93.451"/>
	<rect x="172.083" y="494.145" opacity="0.6" fill="#F8ED40" enable-background="new    " width="24.744" height="100.412"/>
	<rect x="196.69" y="506.934" opacity="0.6" fill="#06B052" enable-background="new    " width="24.744" height="87.622"/>
	<rect x="245.879" y="535.379" opacity="0.6" fill="#754D9E" enable-background="new    " width="24.744" height="59.178"/>
	<rect x="270.483" y="496.432" opacity="0.6" fill="#F3BCD1" enable-background="new    " width="24.746" height="98.124"/>
	<rect x="295.209" y="482.886" opacity="0.6" fill="#ED4798" enable-background="new    " width="15.156" height="111.67"/>
	<rect x="310.237" y="496.432" opacity="0.6" fill="#754D9E" enable-background="new    " width="9.672" height="98.124"/>
	<rect x="221.254" y="524.861" opacity="0.6" fill="#426EB5" enable-background="new    " width="24.744" height="69.694"/>
</g>
<g>
	<rect y="532.963" opacity="0.7" fill="#F7961D" enable-background="new    " width="28.407" height="52.594"/>
	<rect x="28.407" y="540.897" opacity="0.7" fill="#ED2A25" enable-background="new    " width="26.017" height="44.658"/>
	<rect x="54.424" y="522.007" opacity="0.7" fill="#ED4798" enable-background="new    " width="26.628" height="63.55"/>
	<rect x="81.052" y="547.85" opacity="0.7" fill="#754D9E" enable-background="new    " width="27.244" height="37.706"/>
	<rect x="108.296" y="555.47" opacity="0.7" fill="#426EB5" enable-background="new    " width="26.586" height="30.086"/>
	<rect x="234.504" y="555.401" opacity="0.7" fill="#ED2A25" enable-background="new    " width="26.273" height="30.087"/>
	<rect x="260.778" y="541.439" opacity="0.7" fill="#ED4798" enable-background="new    " width="27.949" height="44.049"/>
	<rect x="288.729" y="525.382" opacity="0.7" fill="#754D9E" enable-background="new    " width="32.191" height="59.869"/>
	<rect x="134.882" y="534.464" opacity="0.7" fill="#06B052" enable-background="new    " width="26.507" height="51.093"/>
	<rect x="216.245" y="534.464" opacity="0.7" fill="#F7961D" enable-background="new    " width="18.26" height="51.093"/>
	<rect x="161.389" y="553.781" opacity="0.7" fill="#ED4798" enable-background="new    " width="30.109" height="31.774"/>
	<rect x="191.637" y="527.09" opacity="0.7" fill="#F8ED40" enable-background="new    " width="24.428" height="58.467"/>
</g>
<polygon opacity="0.7" fill="#754D9E" enable-background="new    " points="290.86,496.1 292.167,494.1 292.17,496.1 "/>
<g opacity="0.8">
	<rect x="-6.012" y="0" opacity="0.9" fill="#F8ED40" width="46.593" height="9.278"/>
	<rect x="17.023" y="0" opacity="0.9" fill="#F7961D" width="46.593" height="9.278"/>
	<rect x="40.405" y="0" opacity="0.8" fill="#ED2A25" width="46.593" height="9.278"/>
	<rect x="64.093" y="0" opacity="0.9" fill="#ED4798" width="46.593" height="9.278"/>
	<rect x="87.479" y="0" opacity="0.9" fill="#754D9E" width="46.593" height="9.278"/>
	<rect x="110.729" y="0" opacity="0.9" fill="#426EB5" width="46.593" height="9.278"/>
	<rect x="133.777" y="0" opacity="0.9" fill="#06B052" width="46.593" height="9.278"/>
	<rect x="156.98" y="0" opacity="0.9" fill="#F8ED40" width="46.593" height="9.278"/>
	<rect x="180.015" y="0" opacity="0.9" fill="#F7961D" width="46.593" height="9.278"/>
	<rect x="203.396" y="0" opacity="0.8" fill="#ED2A25" width="46.594" height="9.278"/>
	<rect x="227.084" y="0" opacity="0.9" fill="#ED4798" width="46.594" height="9.278"/>
	<rect x="250.471" y="0" opacity="0.9" fill="#754D9E" width="46.593" height="9.278"/>
	<rect x="273.721" y="0" opacity="0.9" fill="#426EB5" width="46.593" height="9.278"/>
	<rect x="296.769" y="0" opacity="0.9" fill="#06B052" width="46.593" height="9.278"/>
</g>
<g>
	<polygon opacity="0.8" fill="#F8ED40" enable-background="new    " points="191.443,39.654 167.27,73.334 128.836,73.334 	"/>
	<polygon opacity="0.5" fill="#ED2A25" enable-background="new    " points="167.27,73.334 191.443,39.654 167.27,39.654 	"/>
	<polygon opacity="0.6" fill="#426EB5" enable-background="new    " points="191.443,39.654 202.983,39.654 184.797,48.91 	"/>
	<polygon opacity="0.6" fill="#ED4798" enable-background="new    " points="167.27,73.334 184.797,48.91 167.27,39.654 
		145.312,30.084 	"/>
	<polygon opacity="0.5" fill="#06B052" enable-background="new    " points="167.27,73.334 167.27,48.91 134.611,48.91 	"/>
	<polygon opacity="0.2" fill="#06B052" enable-background="new    " points="167.27,73.334 158.984,57.035 154.871,48.91 
		167.27,48.91 	"/>
	<polygon opacity="0.7" fill="#754D9E" enable-background="new    " points="134.611,48.91 144.75,56.495 167.27,48.91 	"/>
</g>
</svg>
