<?xml version="1.0" encoding="utf-8"?>
<!-- Generator: Adobe Illustrator 16.0.4, SVG Export Plug-In . SVG Version: 6.00 Build 0)  -->
<!DOCTYPE svg PUBLIC "-//W3C//DTD SVG 1.1//EN" "http://www.w3.org/Graphics/SVG/1.1/DTD/svg11.dtd">
<svg version="1.1" id="Layer_1" xmlns="http://www.w3.org/2000/svg" xmlns:xlink="http://www.w3.org/1999/xlink" x="0px" y="0px"
	 width="35.5px" height="34.5px" viewBox="0 0 35.5 34.5" enable-background="new 0 0 35.5 34.5" xml:space="preserve">
<polygon fill="#426EB5" points="11.03,31.512 9.992,29.712 11.03,27.914 13.108,27.914 14.148,29.712 13.108,31.512 "/>
<polygon opacity="0.03" enable-background="new    " points="11.03,27.914 13.108,31.512 11.03,31.512 9.992,29.712 "/>
<polygon fill="#426EB5" points="23.123,31.512 24.112,29.799 23.123,28.085 21.144,28.085 20.155,29.799 21.144,31.512 "/>
<polygon opacity="0.03" enable-background="new    " points="23.123,28.085 21.144,31.512 23.123,31.512 24.112,29.799 "/>
<polygon fill="#426EB5" points="5.104,23.998 4.147,22.341 5.104,20.685 7.016,20.685 7.972,22.341 7.016,23.998 "/>
<polygon fill="#426EB5" points="27.087,24.109 26.131,22.453 27.087,20.796 29,20.796 29.957,22.453 29,24.109 "/>
<polygon opacity="0.05" enable-background="new    " points="27.087,24.109 26.131,22.453 27.087,20.796 29,20.796 29.957,22.453 
	29,24.109 "/>
<polygon opacity="0.05" enable-background="new    " points="5.104,23.998 4.147,22.341 5.104,20.685 7.016,20.685 7.972,22.341 
	7.016,23.998 "/>
<polygon fill="#426EB5" points="9.905,28.822 2.698,16.339 9.905,3.856 24.318,3.856 31.525,16.339 24.318,28.822 "/>
<polygon opacity="0.02" fill="#FFFFFF" enable-background="new    " points="9.905,3.856 24.318,28.822 9.905,28.822 2.698,16.339 
	"/>
<polygon opacity="0.03" enable-background="new    " points="16.899,15.973 9.905,28.822 24.318,28.822 "/>
<polygon opacity="0.03" enable-background="new    " points="16.899,15.973 24.318,3.856 9.905,3.856 "/>
<circle fill="#FFFFFF" cx="21.999" cy="14.685" r="0.31"/>
<path fill="#575757" d="M24.176,11.805c0,0-0.244,1.958-2.325,1.958c-2.08,0-2.875-1.958-2.875-1.958s1.407,0.979,2.753,0.979
	S24.176,11.805,24.176,11.805z"/>
<ellipse fill="#FFFFFF" stroke="#000000" stroke-miterlimit="10" cx="12.887" cy="13.594" rx="2.488" ry="3.716"/>
<ellipse fill="#FFFFFF" stroke="#000000" stroke-miterlimit="10" cx="20.836" cy="13.206" rx="2.487" ry="3.715"/>
<path fill="#5295CF" d="M13.144,12.923c0,0-1.154,0.093-1.154,0.67s0.074,0.392,0.465,0S13.144,12.923,13.144,12.923z"/>
<path fill="#5295CF" d="M21.689,12.923c0,0-1.154,0.093-1.154,0.67s0.075,0.392,0.466,0S21.689,12.923,21.689,12.923z"/>
<path fill="#426EB5" d="M15.639,8.902c0,0-5.387,6.011-7.093,4.305s1.299-1.667,2.96-3.328s2.011-2.149,3.351-2.149
	s1.229,1.457,1.229,1.762S15.639,8.902,15.639,8.902z"/>
<path fill="#426EB5" d="M18.113,8.902c0,0,5.388,6.011,7.094,4.305c1.705-1.706-1.299-1.667-2.96-3.328s-2.011-2.149-3.352-2.149
	c-1.34,0-1.229,1.457-1.229,1.762S18.113,8.902,18.113,8.902z"/>
<path fill="#426EB5" d="M8.357,16.104c0,0,1.532-0.07,4.134,0.198s3.155,1.077,3.155,1.077l-3.271,0.06L8.357,16.104z"/>
<path fill="#426EB5" d="M25.792,14.994c0,0-1.489,0.159-3.958,0.805c-2.471,0.645-2.883,1.508-2.883,1.508l3.165-0.429
	L25.792,14.994z"/>
<path opacity="0.5" enable-background="new    " d="M13.094,23.389c0,0,2.002-5.082,3.904-5.082c1.901,0,3.153,3.742,3.153,3.742
	s-1.051-2.96-3.103-2.96C14.996,19.088,13.094,23.389,13.094,23.389z"/>
<circle fill="#5295CF" cx="13.453" cy="14.685" r="0.31"/>
<circle fill="#5295CF" cx="21.689" cy="14.375" r="0.309"/>
<path opacity="0.5" enable-background="new    " d="M16.088,20.848c0,0,1.011,0.941,1.953,0s-0.489,0.486-0.976,0
	C16.578,20.362,16.088,20.848,16.088,20.848z"/>
<path opacity="0.5" enable-background="new    " d="M15.639,8.902c0,0-4.002,4.539-6.236,4.539s1.132-0.283,3.118-2.27
	S15.639,8.902,15.639,8.902z"/>
<path opacity="0.5" enable-background="new    " d="M18.127,8.902c0,0,4.003,4.539,6.236,4.539c2.234,0-1.132-0.283-3.118-2.27
	S18.127,8.902,18.127,8.902z"/>
<path opacity="0.1" enable-background="new    " d="M9.909,15.792c0,0-2.06,3.915,0,3.915S9.909,15.792,9.909,15.792z"/>
<path fill="#FFFFFF" d="M9.909,16.495c0,0-0.982,2.37,0,2.37C10.891,18.865,9.909,16.495,9.909,16.495z"/>
</svg>
