<?xml version="1.0" encoding="utf-8"?>
<!-- Generator: Adobe Illustrator 16.0.4, SVG Export Plug-In . SVG Version: 6.00 Build 0)  -->
<!DOCTYPE svg PUBLIC "-//W3C//DTD SVG 1.1//EN" "http://www.w3.org/Graphics/SVG/1.1/DTD/svg11.dtd">
<svg version="1.1" xmlns="http://www.w3.org/2000/svg" xmlns:xlink="http://www.w3.org/1999/xlink" x="0px" y="0px"
	 width="188.203px" height="55.25px" viewBox="0 -11.75 188.203 55.25" enable-background="new 0 -11.75 188.203 55.25"
	 xml:space="preserve">
<g id="Layer_1" display="none">
	<g id="Layer_1_1_">
		<g display="inline">
			<polygon opacity="0.05" fill="#F8ED40" enable-background="new    " points="30.726,0 17.695,12.774 36.182,12.774 			"/>
			<polygon opacity="0.05" fill="#754D9E" enable-background="new    " points="72.383,10.187 78.74,20.159 67.066,17.454 			"/>
			<polygon opacity="0.05" fill="#F7961D" enable-background="new    " points="25.397,1.496 34.127,17.632 39.861,4.536 			"/>
			<polygon opacity="0.05" fill="#ED2A25" enable-background="new    " points="45.29,2.996 30.386,6.924 45.655,16.401 			"/>
			<polygon opacity="0.05" fill="#ED4798" enable-background="new    " points="51.331,0.469 39.006,11.212 48.742,16.495 			"/>
			<polygon opacity="0.05" fill="#ED2A25" enable-background="new    " points="67.99,7.493 55.666,18.235 65.4,23.52 			"/>
			<polygon opacity="0.05" fill="#754D9E" enable-background="new    " points="50.068,7.189 55.46,14.892 43.97,21.355 			"/>
			<polygon opacity="0.05" fill="#426EB5" enable-background="new    " points="51.884,13.608 49.29,18.009 45.468,24.648 
				55.779,27.854 			"/>
			<polygon opacity="0.05" fill="#06B052" enable-background="new    " points="55.561,35.339 55.779,27.854 54.369,22.852 
				52.48,26.829 53,32.523 			"/>
			<polygon opacity="0.05" fill="#F8ED40" enable-background="new    " points="56,35.339 55.779,27.854 57.191,22.852 
				59.079,26.829 58.561,32.523 			"/>
			<polygon opacity="0.05" fill="#ED4798" enable-background="new    " points="62.372,17.416 67.99,10.098 73.626,18.785 			"/>
			<polygon opacity="0.05" fill="#F7961D" enable-background="new    " points="55.779,27.854 59.836,13.03 66.896,25.805 			"/>
			<g>
				<polygon opacity="0.7" fill="#ED4798" enable-background="new    " points="44.007,6.853 40.257,10.122 46.42,10.122 
					48.742,16.495 50.183,7.387 50.004,6.853 				"/>
				<polygon opacity="0.7" fill="#F8ED40" enable-background="new    " points="23.511,10.12 28.012,6.859 33.655,6.859 
					35.048,10.121 				"/>
				<polygon opacity="0.7" fill="#F7961D" enable-background="new    " points="28.299,6.859 30.064,10.121 37.416,10.122 
					38.845,6.859 				"/>
				<polygon opacity="0.7" fill="#754D9E" enable-background="new    " points="50.095,7.125 47.509,13.111 49.389,18.294 
					52.674,16.495 				"/>
				<polygon opacity="0.7" fill="#426EB5" enable-background="new    " points="51.879,13.608 49.287,18.014 52.48,26.829 
					55.779,27.854 				"/>
				<polygon opacity="0.7" fill="#06B052" enable-background="new    " points="52.48,26.829 54.412,22.852 55.779,27.854 
					55.561,35.339 				"/>
				<polygon opacity="0.7" fill="#F8ED40" enable-background="new    " points="57.191,22.852 59.033,26.732 56,35.339 
					55.779,27.854 				"/>
				<polygon opacity="0.7" fill="#F7961D" enable-background="new    " points="55.779,27.854 59.29,15.053 60.956,15.056 
					62.307,17.502 58.836,27.291 				"/>
				<polygon opacity="0.6" fill="#ED2A25" enable-background="new    " points="59.29,15.053 58.062,19.535 61.018,21.141 
					62.307,17.502 66.352,17.481 66.77,15.053 				"/>
				<polygon opacity="0.7" fill="#ED4798" enable-background="new    " points="64.169,15.063 62.307,17.502 72.794,17.502 
					71.441,15.418 70.693,15.053 				"/>
				<polygon opacity="0.6" fill="#754D9E" enable-background="new    " points="67.066,17.502 68.823,15.053 70.693,15.053 
					75.611,17.502 				"/>
				<polygon opacity="0.6" fill="#ED2A25" enable-background="new    " points="45.396,6.853 45.484,10.121 35.537,10.122 
					30.386,6.853 				"/>
			</g>
		</g>
	</g>
	<g id="Layer_2">
		<g display="inline">
			<polygon opacity="0.3" fill="#ED2A25" enable-background="new    " points="-99.374,154.75 -71.966,70.459 -30.08,154.75 			"/>
			<polygon opacity="0.4" fill="#F7961D" enable-background="new    " points="88.209,156.75 130.096,69.355 158.02,156.75 			"/>
			<polygon opacity="0.3" fill="#F8ED40" enable-background="new    " points="77.04,74.379 96.113,189.009 34.177,156.798 			"/>
			<polyline opacity="0.4" fill="#ED4798" enable-background="new    " points="142.622,159.627 172.111,76.37 239.011,159.627 			
				"/>
			<polyline opacity="0.3" fill="#426EB5" enable-background="new    " points="-55.433,157.491 -20.787,79.923 19.032,157.491 			
				"/>
			<polygon opacity="0.8" fill="#F8ED40" enable-background="new    " points="-96.992,69.223 -68.001,189.009 -139.855,151.641 			
				"/>
			<polygon opacity="0.8" fill="#F7961D" enable-background="new    " points="-85.138,160.75 -43.251,73.355 -15.327,160.75 			"/>
			<polygon opacity="0.8" fill="#ED2A25" enable-background="new    " points="163.96,160.75 193.1,76.459 237.634,160.75 			"/>
			<polygon opacity="0.8" fill="#06B052" enable-background="new    " points="-31.306,156.75 5.332,95.729 31.824,156.75 			"/>
			<polyline opacity="0.8" fill="#ED4798" enable-background="new    " points="98.486,162.704 31.588,79.447 2.099,162.704 			"/>
			<polyline opacity="0.8" fill="#754D9E" enable-background="new    " points="130.227,159.543 148.205,89.213 183.044,159.543 			
				"/>
			<polyline opacity="0.8" fill="#426EB5" enable-background="new    " points="70.73,159.543 105.377,81.975 145.195,159.543 			
				"/>
			<polygon fill="#F8ED40" points="-96.992,69.223 -79.701,94.45 -86.113,114.172 			"/>
			<polygon opacity="0.4" fill="#ED2A25" enable-background="new    " points="-71.966,70.662 -86.112,85.096 -79.701,94.45 			"/>
			<polygon opacity="0.9" fill="#F7961D" enable-background="new    " points="-43.251,73.714 -27.275,94.45 -32.726,106.652 			"/>
			<polygon opacity="0.4" fill="#426EB5" enable-background="new    " points="-20.787,79.923 -0.239,105.264 -4.304,112.032 			"/>
			<polygon opacity="0.9" fill="#06B052" enable-background="new    " points="5.332,95.982 21.527,107.854 16.566,121.857 			"/>
			<polygon fill="#ED4798" points="31.588,79.447 61.539,104.186 57.58,111.796 			"/>
			<polygon opacity="0.4" fill="#F8ED40" enable-background="new    " points="77.04,74.379 94.354,106.652 85.696,126.036 			"/>
			<polygon fill="#426EB5" points="105.377,81.975 92.064,102.386 94.354,106.652 			"/>
			<polygon opacity="0.3" fill="#F7961D" enable-background="new    " points="130.096,69.611 110.999,92.927 115.096,100.906 			
				"/>
			<polygon opacity="0.9" fill="#754D9E" enable-background="new    " points="148.205,89.213 163.668,100.208 159.492,111.998 			
				"/>
			<polygon opacity="0.5" fill="#ED4798" enable-background="new    " points="172.111,76.37 148.205,89.213 163.668,100.208 			"/>
			<polygon opacity="0.9" fill="#ED2A25" enable-background="new    " points="193.1,76.816 215.419,95.462 215.366,118.962 			"/>
			<polygon opacity="0.7" fill="#06B052" enable-background="new    " points="5.332,95.982 31.588,79.447 21.527,107.854 			"/>
			<polygon opacity="0.5" fill="#426EB5" enable-background="new    " points="5.332,95.982 -20.787,79.923 -0.239,105.264 			"/>
			<polygon fill="#F7961D" points="-43.251,73.714 -20.787,79.923 -27.275,94.45 			"/>
			<polygon opacity="0.4" fill="#ED2A25" enable-background="new    " points="-71.966,70.662 -43.251,73.714 -56.604,101.575 			
				"/>
			<polygon opacity="0.7" fill="#ED4798" enable-background="new    " points="-96.992,69.223 -113.335,72.641 -113.106,100.208 			
				"/>
			<polygon opacity="0.4" fill="#426EB5" enable-background="new    " points="-20.787,79.923 -10.186,60.844 5.332,95.982 			"/>
			<polygon opacity="0.9" fill="#F7961D" enable-background="new    " points="-43.251,73.714 -35.263,64.691 -20.787,79.923 			"/>
			<polygon opacity="0.5" fill="#F7961D" enable-background="new    " points="130.096,69.611 148.205,89.213 142.939,109.811 			
				"/>
			<polygon opacity="0.9" fill="#426EB5" enable-background="new    " points="105.377,81.975 78.475,54.434 77.04,74.379 
				92.064,102.386 			"/>
			<polygon opacity="0.7" fill="#426EB5" enable-background="new    " points="77.04,74.379 105.377,81.975 92.064,102.386 			"/>
			<polygon opacity="0.45" fill="#F7961D" enable-background="new    " points="130.096,69.611 110.999,56.74 105.377,81.975 
				110.999,92.927 			"/>
			<polygon opacity="0.6" fill="#ED4798" enable-background="new    " points="148.205,89.213 167.712,50.33 172.111,76.37 			"/>
			<polygon opacity="0.7" fill="#ED4798" enable-background="new    " points="167.712,50.33 193.1,76.816 186.895,94.768 
				172.111,76.37 			"/>
			<polygon opacity="0.5" fill="#426EB5" enable-background="new    " points="-1.97,79.447 10.607,65.545 5.332,95.982 			"/>
			<polygon fill="#ED2A25" points="215.419,95.462 200.797,50.33 193.1,76.816 			"/>
			<polygon opacity="0.4" fill="#ED2A25" enable-background="new    " points="193.27,76.459 163.96,160.75 198.482,160.75 			"/>
			<polygon opacity="0.5" fill="#ED4798" enable-background="new    " points="31.588,79.493 2.099,162.75 43.6,162.75 			"/>
			<polygon opacity="0.8" fill="#06B052" enable-background="new    " points="5.332,95.982 21.527,60.844 31.588,79.902 			"/>
			<polyline opacity="0.5" fill="#ED2A25" enable-background="new    " points="-71.966,70.662 -55.433,44.859 -43.251,73.714 			
				"/>
			<polygon opacity="0.8" fill="#ED4798" enable-background="new    " points="-113.335,72.641 -93.163,44.859 -96.992,69.223 			
				"/>
			<polygon opacity="0.9" fill="#ED4798" enable-background="new    " points="-93.163,44.859 -86.112,85.096 -96.992,69.223 			"/>
			<polygon fill="#F8ED40" points="-113.335,154.953 -113.106,100.208 -96.992,69.223 -103.249,155.523 			"/>
			<polygon opacity="0.9" fill="#ED4798" enable-background="new    " points="41.343,87.504 52.318,50.33 70.73,87.504 
				61.539,104.186 			"/>
			<polygon fill="#ED2A25" points="-113.335,155.75 -84.272,115.861 -72.647,155.75 			"/>
			<polygon opacity="0.9" fill="#ED2A25" enable-background="new    " points="-83.437,116.09 -112.5,136.034 -112.5,155.979 			"/>
			<polygon fill="#754D9E" points="-80.476,130.141 -64.727,102.602 -39.141,155.977 -72.647,157.005 			"/>
			<polygon fill="#426EB5" points="-54.356,155.21 -35.475,112.809 -18.201,155.523 			"/>
			<polygon opacity="0.9" fill="#754D9E" enable-background="new    " points="-64.727,102.602 -40,122.969 -47.206,139.15 			"/>
			<polygon fill="#F8ED40" points="-24.693,139.264 -6.766,104.355 13.43,155.75 -17.943,155.75 			"/>
			<polygon opacity="0.9" fill="#426EB5" enable-background="new    " points="-35.475,112.809 -17.234,124.878 -24.693,139.378 			
				"/>
			<polygon fill="#F7961D" points="2.099,155.75 25.309,122.085 44.968,155.75 			"/>
			<polygon opacity="0.9" fill="#F8ED40" enable-background="new    " points="-6.766,104.525 19.032,131.693 9.319,145.507 			"/>
			<polygon opacity="0.9" fill="#F7961D" enable-background="new    " points="25.309,122.312 46.563,128.1 38.068,144.162 			"/>
			<polygon fill="#06B052" points="32.061,156.55 55.012,107.68 78.475,155.979 			"/>
			<polygon fill="#ED4798" points="71.76,142.154 96.113,109.811 115.4,155.523 78.475,155.979 			"/>
			<polygon opacity="0.9" fill="#06B052" enable-background="new    " points="55.012,107.68 79.319,132.115 71.76,142.154 			"/>
			<polygon fill="#F8ED40" points="106.938,155.75 127.453,119.188 158.02,155.75 			"/>
			<polygon fill="#426EB5" points="146.686,155.75 177.971,104.753 206.945,155.75 			"/>
			<polygon opacity="0.9" fill="#ED4798" enable-background="new    " points="96.113,109.811 121.516,130.001 111.878,147.176 			
				"/>
			<polygon opacity="0.9" fill="#F8ED40" enable-background="new    " points="127.453,119.417 160.848,132.895 151.482,148.159 			
				"/>
			<polygon fill="#F7961D" points="190.939,127.705 207.548,103.081 216.5,127.592 216.5,155.75 206.689,155.75 			"/>
			<polygon opacity="0.9" fill="#426EB5" enable-background="new    " points="177.971,104.98 199.507,114.861 190.939,127.818 			
				"/>
			<polygon opacity="0.9" fill="#F7961D" enable-background="new    " points="207.259,103.139 215.382,111.998 215.419,126.175 			
				"/>
			<polygon fill="#426EB5" points="78.475,54.434 67.166,80.307 70.73,87.504 77.04,74.379 			"/>
		</g>
	</g>
	<rect y="-8.391" display="inline" fill="#FFFFFF" width="189.373" height="51.641"/>
	<polygon display="inline" opacity="0.6" fill="#F8ED40" enable-background="new    " points="48.064,42.5 70.896,8.252 
		96.923,42.5 	"/>
	<polygon display="inline" opacity="0.6" fill="#ED2A25" enable-background="new    " points="17.722,42.5 46.682,-0.938 
		79.692,42.5 	"/>
	<polygon display="inline" opacity="0.7" fill="#ED4798" enable-background="new    " points="26.894,42.5 43.239,17.983 
		61.871,42.5 	"/>
	<polygon display="inline" opacity="0.8" fill="#426EB5" enable-background="new    " points="8.908,42.5 18.697,27.816 
		29.856,42.5 	"/>
	<polygon display="inline" fill="#F8ED40" points="152.908,42.5 162.697,27.816 173.855,42.5 	"/>
	<polygon display="inline" opacity="0.4" fill="#754D9E" enable-background="new    " points="89.582,42.5 112.414,8.252 
		138.439,42.5 	"/>
	<polygon display="inline" opacity="0.6" fill="#06B052" enable-background="new    " points="60.731,42.5 89.359,-0.443 
		121.993,42.5 	"/>
	<polygon display="inline" opacity="0.6" fill="#426EB5" enable-background="new    " points="104.293,42.5 132.922,-0.443 
		165.555,42.5 	"/>
	<polygon display="inline" opacity="0.5" fill="#F7961D" enable-background="new    " points="118.579,42.5 134.926,17.983 
		153.557,42.5 	"/>
	<polygon display="inline" opacity="0.7" fill="#ED4798" enable-background="new    " points="43.239,18.03 58.886,26.314 
		54.516,32.87 	"/>
	<polygon display="inline" opacity="0.05" enable-background="new    " points="43.239,18.03 58.886,26.314 54.516,32.87 	"/>
	<polygon display="inline" opacity="0.8" fill="#F8ED40" enable-background="new    " points="70.896,8.299 58.342,14.454 
		62.844,20.377 	"/>
	<polygon display="inline" opacity="0.5" fill="#754D9E" enable-background="new    " points="112.414,8.299 124.383,12.413 
		120.251,18.611 	"/>
	<polygon display="inline" fill="#F8ED40" points="61.263,41.658 69.58,29.221 79.692,42.5 61.826,42.5 	"/>
	<polyline display="inline" fill="#F7961D" points="120.268,39.975 127.848,28.602 138.439,42.5 121.939,42.5 120.268,40.254 	"/>
	<polygon display="inline" opacity="0.9" fill="#F7961D" enable-background="new    " points="62.844,20.377 48.707,42.25 
		61.263,42.25 69.58,29.221 	"/>
	<polygon display="inline" fill="#F7961D" points="62.844,20.377 55.42,24.48 58.983,26.352 	"/>
	<polygon display="inline" opacity="0.05" enable-background="new    " points="62.598,20.377 55.174,24.48 58.737,26.352 	"/>
	<polygon display="inline" opacity="0.7" fill="#ED4798" enable-background="new    " points="134.926,18.03 153.366,42.25 
		138.25,42.25 127.848,28.602 	"/>
	<polygon display="inline" opacity="0.8" fill="#ED4798" enable-background="new    " points="134.926,18.03 123.898,23.364 
		127.848,28.602 	"/>
	<polygon display="inline" fill="#426EB5" points="18.697,27.816 25.894,30.241 23.393,33.994 	"/>
	<polygon display="inline" fill="#F8ED40" points="162.697,27.816 156.239,30.241 158.818,33.635 	"/>
	<polygon display="inline" opacity="0.05" enable-background="new    " points="162.697,27.816 156.239,30.241 158.818,33.635 	"/>
</g>
<g id="Layer_2_1_">
	<g>
		<polygon opacity="0.8" fill="#F8ED40" enable-background="new    " points="122.213,-0.346 98.039,33.334 59.606,33.334 		"/>
		<polygon opacity="0.5" fill="#ED2A25" enable-background="new    " points="98.039,33.334 122.213,-0.346 98.039,-0.346 		"/>
		<polygon opacity="0.6" fill="#426EB5" enable-background="new    " points="122.213,-0.346 133.752,-0.346 115.566,8.91 		"/>
		<polygon opacity="0.6" fill="#ED4798" enable-background="new    " points="98.039,33.334 115.566,8.91 98.039,-0.346 
			76.082,-9.916 		"/>
		<polygon opacity="0.5" fill="#06B052" enable-background="new    " points="98.039,33.334 98.039,8.91 65.38,8.91 		"/>
		<polygon opacity="0.2" fill="#06B052" enable-background="new    " points="98.039,33.334 89.753,17.035 85.641,8.91 98.039,8.91 
					"/>
		<polygon opacity="0.7" fill="#754D9E" enable-background="new    " points="65.38,8.91 75.52,16.495 98.039,8.91 		"/>
	</g>
</g>
</svg>
