<?xml version="1.0" encoding="utf-8"?>
<!-- Generator: Adobe Illustrator 16.0.4, SVG Export Plug-In . SVG Version: 6.00 Build 0)  -->
<!DOCTYPE svg PUBLIC "-//W3C//DTD SVG 1.1//EN" "http://www.w3.org/Graphics/SVG/1.1/DTD/svg11.dtd">
<svg version="1.1" xmlns="http://www.w3.org/2000/svg" xmlns:xlink="http://www.w3.org/1999/xlink" x="0px" y="0px" width="69.5px"
	 height="44px" viewBox="0 0 69.5 44" enable-background="new 0 0 69.5 44" xml:space="preserve">
<g id="Layer_1" display="none">
	<g id="Layer_1_3_">
		<g id="Layer_1_2_" display="inline">
			<g id="Layer_1_1_">
				<g>
					<polygon opacity="0.01" enable-background="new    " points="41.9,28.084 38.764,26.055 40.906,25.333 					"/>
					<polygon fill="#FBED27" points="61.094,11.886 58.186,9.48 61.094,9.48 					"/>
					<polygon fill="#FBED27" points="61.094,11.886 58.186,11.886 58.186,9.48 					"/>
					<polygon opacity="0.02" enable-background="new    " points="61.094,11.886 58.186,11.886 58.186,9.48 					"/>
					<polygon fill="#FBED27" points="61.094,11.886 58.186,13.545 61.094,13.545 					"/>
					<polygon opacity="0.1" fill="#FFFFFF" enable-background="new    " points="61.094,11.886 58.186,13.545 61.094,13.545 					
						"/>
					<polygon fill="#FBED27" points="61.094,11.886 63.757,9.48 61.094,9.48 					"/>
					<polygon opacity="0.02" enable-background="new    " points="61.094,11.886 63.757,9.48 61.094,9.48 					"/>
					<polygon fill="#FBED27" points="61.094,11.886 63.757,11.886 63.757,9.48 					"/>
					<polygon opacity="0.05" fill="#FFFFFF" enable-background="new    " points="61.094,11.886 63.757,11.886 63.757,9.48 					"/>
					<polygon fill="#FBED27" points="58.186,11.886 56.148,9.48 58.186,9.48 					"/>
					<polygon opacity="0.04" enable-background="new    " points="58.186,11.886 56.148,9.48 58.186,9.48 					"/>
					<polygon fill="#F5841F" points="58.186,11.886 53.82,13.545 53.82,11.886 					"/>
					<polygon fill="#F5841F" points="53.82,11.886 51.014,9.48 49.92,11.886 					"/>
					<polygon fill="#F5841F" points="53.82,11.886 49.92,11.886 48.704,14.557 					"/>
					<polygon opacity="0.05" fill="#FFFFFF" enable-background="new    " points="53.82,11.886 49.92,11.886 48.704,14.557 					"/>
					<polygon fill="#F5841F" points="53.82,11.886 53.82,13.545 50.643,13.545 					"/>
					<polygon opacity="0.02" enable-background="new    " points="53.82,11.886 53.82,13.545 50.643,13.545 					"/>
					<polygon fill="#F5841F" points="50.643,13.545 53.82,13.545 52.48,16.47 					"/>
					<polygon opacity="0.05" fill="#FFFFFF" enable-background="new    " points="50.643,13.545 53.82,13.545 52.48,16.47 					"/>
					<polygon fill="#F5841F" points="50.643,13.545 48.704,14.557 49.92,16.47 					"/>
					<polygon opacity="0.02" enable-background="new    " points="50.643,13.545 48.704,14.557 49.92,16.47 					"/>
					<polygon fill="#F5841F" points="50.643,13.545 52.48,16.47 49.92,16.47 					"/>
					<polygon fill="#F5841F" points="50.643,13.545 52.48,16.47 49.92,16.47 					"/>
					<polygon fill="#F5841F" points="49.92,16.47 50.712,20.337 52.48,16.47 					"/>
					<polygon opacity="0.02" enable-background="new    " points="49.92,16.47 50.712,20.337 52.48,16.47 					"/>
					<polygon fill="#C22127" points="50.712,20.337 47.911,20.337 49.08,23.9 					"/>
					<polygon opacity="0.03" fill="#FFFFFF" enable-background="new    " points="50.712,20.337 47.911,20.337 49.08,23.9 					"/>
					<polygon fill="#C22127" points="47.911,20.337 45.758,21.033 46.836,22.784 					"/>
					<polygon opacity="0.04" enable-background="new    " points="47.911,20.337 45.758,21.033 46.836,22.784 					"/>
					<polygon fill="#C22127" points="47.911,20.337 46.836,22.784 49.08,23.9 					"/>
					<polygon opacity="0.02" enable-background="new    " points="47.911,20.337 46.836,22.784 49.08,23.9 					"/>
					<polygon fill="#C22127" points="45.758,21.033 46.836,22.784 45.214,22.23 					"/>
					<polygon opacity="0.03" fill="#FFFFFF" enable-background="new    " points="45.758,21.033 46.836,22.784 45.214,22.23 					
						"/>
					<polygon fill="#C22127" points="46.836,22.784 44.333,24.167 45.214,22.23 					"/>
					<polygon fill="#C22127" points="46.836,22.784 44.333,24.167 43.448,26.111 					"/>
					<polygon opacity="0.04" enable-background="new    " points="46.836,22.784 44.333,24.167 43.448,26.111 					"/>
					<polygon fill="#C22127" points="46.836,22.784 48.425,25.333 49.08,23.9 					"/>
					<polygon opacity="0.03" fill="#FFFFFF" enable-background="new    " points="46.836,22.784 48.425,25.333 49.08,23.9 					"/>
					<polygon fill="#C22127" points="47.911,24.511 47.389,27.6 48.425,25.333 					"/>
					<polygon fill="#EC3793" points="43.448,26.111 41.9,28.084 43.448,29.148 					"/>
					<polygon fill="#EC3793" points="43.448,29.148 45.143,29.148 43.448,30.952 					"/>
					<polygon fill="#EC3793" points="41.9,28.084 43.448,30.952 43.448,29.148 					"/>
					<polygon opacity="0.04" enable-background="new    " points="41.9,28.084 43.448,30.952 43.448,29.148 					"/>
					<polygon fill="#EC3793" points="41.9,28.084 42.109,30.49 43.064,30.243 					"/>
					<polygon opacity="0.03" fill="#FFFFFF" enable-background="new    " points="41.9,28.084 42.109,30.49 43.064,30.243 					"/>
					<polygon fill="#EC3793" points="43.448,30.952 45.253,32.261 43.448,32.261 					"/>
					<polygon fill="#EC3793" points="42.109,30.49 43.064,30.243 43.448,30.952 					"/>
					<polygon opacity="0.06" enable-background="new    " points="42.109,30.49 43.064,30.243 43.448,30.952 					"/>
					<polygon fill="#EC3793" points="43.448,30.952 42.202,32.261 43.448,32.261 					"/>
					<polygon opacity="0.03" fill="#FFFFFF" enable-background="new    " points="43.448,30.952 42.202,32.261 43.448,32.261 					
						"/>
					<polygon fill="#EC3793" points="43.035,35.332 43.448,33.857 43.848,35.332 					"/>
					<polygon fill="#EC3793" points="43.448,33.857 44.729,33.407 43.848,35.332 					"/>
					<polygon opacity="0.04" enable-background="new    " points="43.448,33.857 44.729,33.407 43.848,35.332 					"/>
					<polygon fill="#EC3793" points="43.448,33.857 45.253,32.261 44.729,33.407 					"/>
					<polygon opacity="0.03" fill="#FFFFFF" enable-background="new    " points="43.448,33.857 45.253,32.261 44.729,33.407 					
						"/>
					<polygon fill="#EC3793" points="45.253,32.261 43.448,32.261 43.448,32.943 					"/>
					<polygon opacity="0.04" enable-background="new    " points="45.253,32.261 43.448,32.261 43.448,32.943 					"/>
					<polygon fill="#EC3793" points="45.253,32.261 43.448,32.943 43.448,33.857 					"/>
					<polygon fill="#EC3793" points="45.143,29.148 43.448,30.952 45.143,30.598 					"/>
					<polygon opacity="0.04" enable-background="new    " points="45.143,29.148 43.448,30.952 45.143,30.598 					"/>
					<polyline fill="#EC3793" points="43.448,30.952 45.253,32.261 45.146,30.652 45.143,30.598 					"/>
					<polyline opacity="0.03" fill="#FFFFFF" enable-background="new    " points="43.448,30.952 45.253,32.261 45.146,30.652 
						45.143,30.598 					"/>
					<polygon fill="#EC3793" points="43.448,29.148 44.564,25.016 43.448,26.111 					"/>
					<polygon opacity="0.04" enable-background="new    " points="43.448,29.148 44.564,25.016 43.448,26.111 					"/>
					<polygon fill="#EC3793" points="43.448,29.148 43.893,27.502 45.143,29.148 					"/>
					<polygon opacity="0.03" fill="#FFFFFF" enable-background="new    " points="43.448,29.148 43.893,27.502 45.143,29.148 					
						"/>
					<polygon fill="#C22127" points="46.836,22.784 47.911,24.511 46.836,24.689 					"/>
					<polygon fill="#C22127" points="47.911,24.511 46.836,24.689 47.389,27.6 					"/>
					<polygon opacity="0.03" fill="#FFFFFF" enable-background="new    " points="47.911,24.511 46.836,24.689 47.389,27.6 					"/>
					<polygon fill="#EC3793" points="45.143,29.148 45.689,27.502 46.68,29.148 					"/>
					<polygon fill="#EC3793" points="45.143,29.148 46.68,29.148 46.016,30.598 					"/>
					<polygon opacity="0.04" enable-background="new    " points="45.143,29.148 46.68,29.148 46.016,30.598 					"/>
					<path fill="#EC3793" d="M45.143,29.148"/>
					<polygon fill="#EC3793" points="41.9,28.084 42.675,24.432 43.448,26.111 					"/>
					<polygon opacity="0.03" fill="#FFFFFF" enable-background="new    " points="41.9,28.084 42.675,24.432 43.448,26.111 					"/>
					<polygon fill="#EC3793" points="45.143,29.148 45.143,30.594 46.016,30.598 					"/>
					<polygon fill="#EC3793" points="45.143,30.594 46.016,30.598 45.253,32.261 					"/>
					<polygon opacity="0.04" enable-background="new    " points="45.143,30.596 46.016,30.6 45.253,32.264 					"/>
					<polygon fill="#DD5D82" points="41.9,28.084 38.764,26.055 40.906,25.333 					"/>
					<polygon opacity="0.02" enable-background="new    " points="41.9,28.084 38.764,26.055 40.906,25.333 					"/>
					<polygon fill="#DD5D82" points="40.906,25.333 41.514,21.909 38.764,26.055 					"/>
					<polygon opacity="0.04" enable-background="new    " points="40.906,25.333 41.514,21.909 38.764,26.055 					"/>
					<polygon fill="#DD5D82" points="38.764,26.055 37.448,23.199 41.514,21.909 					"/>
					<polygon fill="#DD5D82" points="41.514,21.909 40.684,20.107 39.637,22.505 					"/>
					<polygon opacity="0.03" enable-background="new    " points="41.514,21.909 40.684,20.107 39.637,22.505 					"/>
					<polygon fill="#DD5D82" points="39.637,22.505 38.268,19.95 40.684,20.107 					"/>
					<polygon opacity="0.03" fill="#FFFFFF" enable-background="new    " points="39.641,22.505 38.273,19.95 40.688,20.107 					
						"/>
					<polygon fill="#DD5D82" points="38.268,19.95 37.448,23.199 39.637,22.505 					"/>
					<polyline fill="#DD5D82" points="38.268,19.95 40.25,19.165 40.684,20.107 					"/>
					<polyline opacity="0.04" enable-background="new    " points="40.688,20.107 40.254,19.165 38.273,19.95 					"/>
					<polyline opacity="0.05" fill="#FFFFFF" enable-background="new    " points="39.637,22.505 39.626,22.545 38.764,26.055 
						37.473,23.252 					"/>
					<path fill="#FFFFFF" d="M37.448,23.199"/>
					<polygon fill="#DD5D82" points="37.448,23.199 35.404,18.764 38.273,19.948 					"/>
					<polygon opacity="0.04" enable-background="new    " points="37.448,23.199 35.404,18.764 38.273,19.948 					"/>
					<polygon fill="#DD5D82" points="35.404,18.764 35.924,15.388 38.273,19.948 					"/>
					<polygon fill="#DD5D82" points="35.723,16.702 33.289,14.166 35.404,18.764 					"/>
					<polygon opacity="0.03" fill="#FFFFFF" enable-background="new    " points="35.723,16.708 33.289,14.171 35.404,18.768 					
						"/>
					<polygon fill="#A15AA3" points="35.924,15.388 36.956,12.011 35.109,8.002 					"/>
					<polygon fill="#A15AA3" points="35.109,8.002 33.686,10.343 32.205,6.949 					"/>
					<polygon fill="#A15AA3" points="33.686,10.343 35.368,10.343 35.109,8.002 					"/>
					<polygon opacity="0.04" enable-background="new    " points="33.665,10.343 35.346,10.343 35.088,8.002 					"/>
					<polygon fill="#A15AA3" points="32.205,6.949 30.257,7.583 29.242,5.379 					"/>
					<polygon fill="#A15AA3" points="30.257,7.583 33.686,10.343 32.205,6.949 					"/>
					<polygon opacity="0.06" enable-background="new    " points="30.257,7.583 33.686,10.343 32.205,6.949 					"/>
					<polygon fill="#A15AA3" points="32.205,6.949 33.369,4.224 35.088,8.002 					"/>
					<polygon opacity="0.03" fill="#FFFFFF" enable-background="new    " points="32.205,6.949 33.369,4.224 35.088,8.002 					"/>
					<polygon fill="#A15AA3" points="32.205,6.949 31.232,4.434 29.242,5.379 					"/>
					<polygon opacity="0.02" enable-background="new    " points="32.205,6.949 31.232,4.434 29.242,5.379 					"/>
					<polygon fill="#A15AA3" points="32.205,6.949 31.232,4.434 32.029,1.313 					"/>
					<polygon opacity="0.04" enable-background="new    " points="32.205,6.949 31.232,4.434 32.029,1.313 					"/>
					<polygon fill="#A15AA3" points="32.029,1.313 32.205,6.949 33.369,4.224 					"/>
					<polygon fill="#A15AA3" points="32.029,1.313 29.359,2.874 31.232,4.434 					"/>
					<polygon fill="#79CCCA" points="29.242,5.379 27.23,3.346 25.842,5.379 					"/>
					<polygon fill="#79CCCA" points="27.23,3.346 25.842,5.379 23.921,3.346 					"/>
					<polygon opacity="0.04" enable-background="new    " points="27.23,3.346 25.842,5.379 23.921,3.346 					"/>
					<polygon fill="#79CCCA" points="23.921,3.346 23.921,1.313 21.792,3.346 					"/>
					<polygon fill="#79CCCA" points="21.792,3.346 24.75,4.224 23.921,3.346 					"/>
					<polygon opacity="0.06" enable-background="new    " points="21.792,3.346 24.75,4.224 23.921,3.346 					"/>
					<polygon fill="#79CCCA" points="21.792,3.346 20.465,4.295 23.271,3.785 					"/>
					<polygon opacity="0.04" enable-background="new    " points="21.792,3.346 20.465,4.295 23.271,3.785 					"/>
					<polygon fill="#79CCCA" points="21.792,3.346 21.005,1.313 23.921,1.313 					"/>
					<polygon opacity="0.04" enable-background="new    " points="21.792,3.346 21.005,1.313 23.921,1.313 					"/>
					<polygon fill="#79CCCA" points="20.465,4.295 21.792,3.346 20.465,3.346 					"/>
					<polygon opacity="0.05" enable-background="new    " points="20.465,4.295 21.792,3.346 20.465,3.346 					"/>
					<polygon fill="#79CCCA" points="21.005,1.313 20.465,3.346 21.792,3.346 					"/>
					<polygon fill="#79CCCA" points="23.921,3.346 24.646,1.313 23.921,1.313 					"/>
					<polygon opacity="0.02" enable-background="new    " points="23.921,3.346 24.646,1.313 23.921,1.313 					"/>
					<polygon fill="#79CCCA" points="20.465,4.295 20.465,5.379 18.583,5.379 					"/>
					<polygon opacity="0.08" fill="#FFFFFF" enable-background="new    " points="20.465,4.295 20.465,5.379 18.583,5.379 					"/>
					<polygon fill="#79CCCA" points="20.465,3.346 18.583,5.379 20.465,4.295 					"/>
					<polygon opacity="0.02" enable-background="new    " points="20.465,3.346 18.583,5.379 20.465,4.295 					"/>
					<polygon fill="#79CCCA" points="20.465,3.346 18.583,3.346 21.005,1.313 					"/>
					<polygon opacity="0.02" enable-background="new    " points="20.465,3.346 18.583,3.346 21.005,1.313 					"/>
					<polygon fill="#79CCCA" points="20.465,4.295 20.465,5.379 23.271,3.785 					"/>
					<polygon opacity="0.02" enable-background="new    " points="20.465,4.295 20.465,5.379 23.271,3.785 					"/>
					<polygon fill="#79CCCA" points="18.583,3.346 18.583,1.313 21.005,1.313 					"/>
					<polygon fill="#79CCCA" points="18.583,1.313 16.656,1.313 18.583,3.346 					"/>
					<polygon opacity="0.08" fill="#FFFFFF" enable-background="new    " points="18.583,1.313 16.656,1.313 18.583,3.346 					"/>
					<polygon fill="#79CCCA" points="18.583,3.346 17.62,4.434 16.656,1.313 					"/>
					<polygon fill="#79CCCA" points="16.656,1.313 14.989,3.162 17.226,3.162 					"/>
					<polygon opacity="0.04" enable-background="new    " points="16.656,1.313 14.989,3.162 17.226,3.162 					"/>
					<polygon fill="#79CCCA" points="14.989,3.162 14.989,4.582 17.226,3.162 					"/>
					<polygon fill="#64BB46" points="14.989,3.162 12.258,1.313 12.258,3.162 					"/>
					<polygon fill="#64BB46" points="12.258,3.162 10.917,3.162 12.258,1.313 					"/>
					<polygon opacity="0.04" enable-background="new    " points="12.258,3.162 10.917,3.162 12.258,1.313 					"/>
					<polygon fill="#64BB46" points="10.917,3.162 13.076,5.379 12.258,3.162 					"/>
					<polygon fill="#64BB46" points="10.917,3.162 10.917,1.313 12.258,1.313 					"/>
					<polygon fill="#64BB46" points="10.917,3.162 10.917,4.434 12.156,4.434 					"/>
					<polygon opacity="0.04" enable-background="new    " points="10.917,3.162 10.917,4.434 12.156,4.434 					"/>
					<polygon fill="#64BB46" points="10.917,3.162 9.358,1.313 9.358,3.872 					"/>
					<polygon opacity="0.08" fill="#FFFFFF" enable-background="new    " points="10.917,3.162 9.358,1.313 9.358,3.872 					"/>
					<polygon fill="#64BB46" points="9.358,1.313 10.917,1.313 10.917,3.162 					"/>
					<polygon opacity="0.02" enable-background="new    " points="9.358,1.313 10.917,1.313 10.917,3.162 					"/>
					<polygon fill="#64BB46" points="7.723,3.872 6.35,5.379 7.723,5.379 					"/>
					<polygon opacity="0.04" enable-background="new    " points="7.723,3.872 6.35,5.379 7.723,5.379 					"/>
					<polygon fill="#64BB46" points="5.257,1.313 6.936,1.313 6.936,2.521 					"/>
					<polygon fill="#64BB46" points="6.936,2.521 8.17,1.313 6.936,1.313 					"/>
					<polygon opacity="0.08" fill="#FFFFFF" enable-background="new    " points="6.936,2.521 8.17,1.313 6.936,1.313 					"/>
					<polygon fill="#64BB46" points="9.358,1.313 8.17,1.313 9.358,3.872 					"/>
					<polygon opacity="0.02" enable-background="new    " points="9.381,1.313 8.193,1.313 9.381,3.872 					"/>
					<polygon fill="#64BB46" points="8.17,1.313 6.936,2.521 8.731,2.521 					"/>
					<polygon opacity="0.04" enable-background="new    " points="8.17,1.313 6.936,2.521 8.731,2.521 					"/>
					<polygon fill="#64BB46" points="5.257,5.379 7.723,3.872 6.35,5.379 					"/>
					<polygon fill="#64BB46" points="6.936,2.521 9.358,3.872 8.731,2.521 					"/>
					<polygon fill="#64BB46" points="7.723,3.872 6.936,2.521 9.358,3.872 					"/>
					<polygon opacity="0.08" fill="#FFFFFF" enable-background="new    " points="7.746,3.872 6.959,2.521 9.381,3.872 					"/>
					<polygon fill="#64BB46" points="6.936,2.521 5.257,2.521 5.257,1.313 					"/>
					<polygon opacity="0.04" enable-background="new    " points="6.936,2.521 5.257,2.521 5.257,1.313 					"/>
					<polygon fill="#64BB46" points="7.723,3.872 6.49,3.709 6.936,2.521 					"/>
					<polygon opacity="0.04" enable-background="new    " points="7.723,3.872 6.49,3.709 6.936,2.521 					"/>
					<polygon fill="#64BB46" points="6.49,3.709 5.257,5.379 7.723,3.872 					"/>
					<polygon opacity="0.08" fill="#FFFFFF" enable-background="new    " points="6.49,3.709 5.257,5.379 7.723,3.872 					"/>
					<polygon fill="#FBED27" points="58.186,11.886 56.148,9.48 53.82,11.886 					"/>
					<polygon opacity="0.04" fill="#FFFFFF" enable-background="new    " points="58.186,11.886 56.148,9.48 53.82,11.886 					"/>
					<polygon fill="#FBED27" points="61.094,11.886 63.757,13.545 63.757,11.886 					"/>
					<polygon opacity="0.02" enable-background="new    " points="61.094,11.886 63.757,13.545 63.757,11.886 					"/>
					<polygon fill="#C22127" points="45.758,21.033 47.389,17.451 47.911,20.337 					"/>
					<polygon fill="#F5841F" points="49.92,16.47 47.389,17.451 48.704,14.557 					"/>
					<polygon fill="#C22127" points="47.911,20.337 49.08,18.323 50.712,20.337 					"/>
					<polygon fill="#EC3793" points="43.035,35.332 42.148,33.407 43.448,33.857 					"/>
					<polygon opacity="0.03" fill="#FFFFFF" enable-background="new    " points="43.035,35.332 42.148,33.407 43.448,33.857 					
						"/>
					<polygon fill="#EC3793" points="42.148,33.407 43.448,32.261 43.448,33.857 					"/>
					<polygon opacity="0.04" enable-background="new    " points="43.448,32.943 42.148,33.407 43.448,33.857 					"/>
					<polygon fill="#EC3793" points="42.202,32.261 42.148,33.407 43.448,32.261 					"/>
					<polygon opacity="0.04" enable-background="new    " points="42.202,32.261 42.148,33.407 43.448,32.261 					"/>
					<polygon opacity="0.03" fill="#FFFFFF" enable-background="new    " points="43.448,32.261 43.448,32.943 42.148,33.407 					
						"/>
					<polygon fill="#EC3793" points="42.202,32.261 41.02,30.952 42.148,33.407 					"/>
					<polygon fill="#EC3793" points="42.109,30.49 42.202,32.261 43.448,30.952 					"/>
					<polygon fill="#EC3793" points="41.02,30.952 42.038,29.669 42.109,30.49 42.202,32.261 					"/>
					<polygon opacity="0.06" enable-background="new    " points="41.02,30.952 42.038,29.669 42.109,30.49 42.202,32.261 					"/>
					<polygon fill="#DD5D82" points="40.906,25.333 42.675,24.432 41.514,21.909 					"/>
					<polygon fill="#EC3793" points="40.906,25.333 42.675,24.432 41.514,21.909 					"/>
					<polygon opacity="0.05" fill="#FFFFFF" enable-background="new    " points="40.906,25.333 42.675,24.432 41.514,21.909 					
						"/>
					<polygon fill="#EC3793" points="40.906,25.333 42.675,24.432 41.9,28.084 					"/>
					<polygon fill="#DD5D82" points="38.273,19.948 38.542,17.068 40.25,19.165 					"/>
					<polygon fill="#DD5D82" points="38.542,17.068 39.284,17.068 40.25,19.165 					"/>
					<polygon opacity="0.04" enable-background="new    " points="38.542,17.068 39.284,17.068 40.25,19.165 					"/>
					<polygon fill="#DD5D82" points="38.542,17.068 36.9,17.283 38.273,19.948 					"/>
					<polygon opacity="0.05" fill="#FFFFFF" enable-background="new    " points="38.542,17.068 36.9,17.283 38.273,19.948 					"/>
					<polygon fill="#A15AA3" points="36.956,12.011 37.873,14.004 35.924,15.388 					"/>
					<polygon opacity="0.04" enable-background="new    " points="36.956,12.011 37.875,14.004 35.925,15.388 					"/>
					<polygon fill="#A15AA3" points="33.686,10.343 32.531,12.521 34.219,12.521 					"/>
					<polygon fill="#A15AA3" points="32.531,12.521 30.257,7.583 33.686,10.343 					"/>
					<polygon opacity="0.04" enable-background="new    " points="32.531,12.521 30.257,7.583 33.686,10.343 					"/>
					<polygon fill="#A15AA3" points="33.686,10.343 35.368,10.312 34.219,12.521 					"/>
					<polygon opacity="0.03" fill="#FFFFFF" enable-background="new    " points="33.686,10.343 35.368,10.312 34.219,12.521 					
						"/>
					<polygon fill="#A15AA3" points="34.219,12.521 33.289,14.171 32.531,12.521 					"/>
					<polygon opacity="0.04" enable-background="new    " points="34.219,12.521 33.289,14.171 32.531,12.521 					"/>
					<polygon fill="#79CCCA" points="27.23,3.346 29.359,2.874 27.485,1.313 					"/>
					<polygon fill="#79CCCA" points="27.485,1.313 23.921,3.346 27.23,3.346 					"/>
					<polygon opacity="0.08" fill="#FFFFFF" enable-background="new    " points="27.485,1.313 23.921,3.346 27.23,3.346 					"/>
					<polygon fill="#79CCCA" points="24.646,1.313 27.485,1.313 23.921,3.346 					"/>
					<path fill="none" stroke="#79CCCA" stroke-width="0.25" stroke-miterlimit="10" d="M12.258,3.162"/>
					<polygon fill="#64BB46" points="6.49,3.709 5.257,3.709 6.936,2.521 					"/>
					<polygon fill="#64BB46" points="6.936,2.521 5.257,2.521 5.257,3.709 					"/>
					<polygon opacity="0.08" fill="#FFFFFF" enable-background="new    " points="6.936,2.521 5.257,2.521 5.257,3.709 					"/>
					<polygon fill="#64BB46" points="6.49,3.709 5.257,3.709 5.257,5.379 					"/>
					<polygon opacity="0.02" enable-background="new    " points="6.49,3.709 5.257,3.709 5.257,5.379 					"/>
					<polygon fill="#64BB46" points="7.723,3.872 9.358,5.379 7.723,5.379 					"/>
					<polygon fill="#64BB46" points="9.358,5.379 9.381,3.872 7.723,3.872 					"/>
					<polygon opacity="0.02" enable-background="new    " points="9.358,5.379 9.381,3.872 7.723,3.872 					"/>
					<polygon fill="#64BB46" points="9.381,3.872 10.917,4.434 10.917,3.162 					"/>
					<polygon fill="#64BB46" points="12.258,3.162 14.989,3.162 14.033,3.785 					"/>
					<polygon opacity="0.08" fill="#FFFFFF" enable-background="new    " points="12.258,3.162 14.989,3.162 14.033,3.785 					"/>
					<polygon fill="#64BB46" points="12.258,3.162 14.033,3.785 13.076,5.379 					"/>
					<polygon opacity="0.02" enable-background="new    " points="12.258,3.162 14.033,3.785 13.076,5.379 					"/>
					<polygon fill="#64BB46" points="10.917,4.434 9.358,5.379 10.917,5.379 					"/>
					<polygon fill="#79CCCA" points="14.989,4.582 14.033,3.785 14.989,3.162 					"/>
					<polygon opacity="0.04" enable-background="new    " points="14.989,4.582 14.033,3.785 14.989,3.162 					"/>
					<polygon fill="#79CCCA" points="14.989,4.582 17.62,4.434 17.226,3.162 					"/>
					<polygon opacity="0.04" fill="#FFFFFF" enable-background="new    " points="14.989,4.582 17.62,4.434 17.226,3.162 					"/>
					<polygon fill="#79CCCA" points="17.62,4.434 14.989,4.582 17.62,5.379 					"/>
					<polygon opacity="0.1" fill="#FFFFFF" enable-background="new    " points="17.62,4.434 14.989,4.582 17.62,5.379 					"/>
					<polygon fill="#79CCCA" points="17.62,4.434 20.465,3.346 18.583,3.346 					"/>
					<polygon opacity="0.08" fill="#FFFFFF" enable-background="new    " points="17.62,4.434 20.465,3.346 18.583,3.346 					"/>
					<polygon fill="#79CCCA" points="14.989,4.582 13.076,5.379 14.033,3.785 					"/>
					<polygon fill="#79CCCA" points="14.989,4.582 17.62,5.379 13.076,5.379 					"/>
					<polygon opacity="0.04" enable-background="new    " points="14.989,4.582 17.62,5.379 13.076,5.379 					"/>
					<polygon fill="#C22127" points="46.836,22.784 44.913,26.055 46.836,24.689 					"/>
					<polygon opacity="0.04" enable-background="new    " points="46.836,22.784 44.913,26.055 46.836,24.689 					"/>
					<polygon fill="#EC3793" points="46.836,24.689 44.913,26.055 47.389,27.6 					"/>
					<polygon fill="#EC3793" points="45.689,27.502 47.389,27.6 46.68,29.148 					"/>
					<polygon opacity="0.03" fill="#FFFFFF" enable-background="new    " points="45.689,27.502 47.389,27.6 46.68,29.148 					"/>
					<polygon fill="#EC3793" points="45.689,27.502 44.913,26.055 47.389,27.6 					"/>
					<polygon opacity="0.04" enable-background="new    " points="45.689,27.502 44.913,26.055 47.389,27.6 					"/>
					<polygon fill="#EC3793" points="44.913,26.055 43.893,27.502 45.689,27.502 					"/>
					<polygon opacity="0.05" fill="#FFFFFF" enable-background="new    " points="44.913,26.055 43.893,27.502 45.689,27.502 					
						"/>
					<polygon fill="#EC3793" points="45.689,27.502 43.893,27.502 45.143,29.148 					"/>
					<polygon opacity="0.04" enable-background="new    " points="45.689,27.502 43.893,27.502 45.143,29.148 					"/>
					<polygon fill="#EC3793" points="44.913,26.055 44.564,25.016 43.893,27.502 					"/>
					<polygon fill="#EC3793" points="44.564,25.016 46.836,22.784 44.913,26.055 					"/>
					<polygon opacity="0.04" enable-background="new    " points="44.564,25.025 46.836,22.796 44.913,26.066 					"/>
					<polygon fill="#F5841F" points="49.92,16.47 47.546,18.323 47.389,17.451 					"/>
					<polygon opacity="0.02" enable-background="new    " points="49.92,16.47 47.546,18.323 47.389,17.451 					"/>
					<polygon fill="#C22127" points="47.546,18.323 49.273,17.595 49.08,18.323 					"/>
					<polygon fill="#C22127" points="47.911,20.337 49.08,18.323 47.546,18.323 					"/>
					<polygon opacity="0.04" enable-background="new    " points="47.911,20.337 49.08,18.323 47.546,18.323 					"/>
					<polygon fill="#C22127" points="49.273,17.595 49.92,16.47 47.546,18.323 					"/>
					<polygon opacity="0.04" enable-background="new    " points="49.273,17.595 49.92,16.47 47.546,18.323 					"/>
					<polygon fill="#F5841F" points="49.92,16.47 49.273,17.595 50.384,18.734 					"/>
					<polygon fill="#F5841F" points="50.384,18.734 49.08,18.323 50.712,20.337 					"/>
					<polygon fill="#F5841F" points="49.273,17.595 49.08,18.323 50.384,18.734 					"/>
					<polygon opacity="0.02" enable-background="new    " points="49.273,17.595 49.08,18.323 50.384,18.734 					"/>
					<polygon fill="#DD5D82" points="41.9,28.084 40.139,29.041 38.764,26.055 					"/>
					<polygon opacity="0.05" fill="#FFFFFF" enable-background="new    " points="41.9,28.084 40.139,29.041 38.764,26.055 					"/>
					<polygon fill="#EC3793" points="41.9,28.084 41.02,30.952 40.139,29.041 					"/>
					<polygon opacity="0.05" fill="#FFFFFF" enable-background="new    " points="41.9,28.084 41.02,30.952 40.139,29.041 					"/>
					<polygon fill="#EC3793" points="41.9,28.084 41.02,30.952 42.038,29.669 					"/>
					<polygon fill="#F5841F" points="58.186,11.886 59.639,12.716 61.094,11.886 					"/>
					<polygon fill="#F5841F" points="58.186,11.886 58.186,13.545 59.639,12.716 					"/>
					<polygon opacity="0.02" enable-background="new    " points="58.186,11.886 58.186,13.545 59.639,12.716 					"/>
					<polygon opacity="0.03" enable-background="new    " points="59.639,12.716 61.094,13.545 58.186,13.545 					"/>
					<polygon fill="#F5841F" points="58.186,11.886 58.186,13.545 55.893,12.757 					"/>
					<polygon opacity="0.04" enable-background="new    " points="58.186,11.886 58.186,13.545 55.893,12.757 					"/>
					<polygon fill="#F5841F" points="55.893,12.757 55.893,13.545 58.186,13.545 					"/>
					<polygon fill="#F5841F" points="55.893,12.757 53.82,13.545 55.893,13.545 					"/>
					<polygon opacity="0.05" fill="#FFFFFF" enable-background="new    " points="55.893,12.757 53.82,13.545 55.893,13.545 					
						"/>
					<polygon fill="#FBED27" points="56.148,9.48 53.82,9.48 54.822,10.85 					"/>
					<polygon opacity="0.03" enable-background="new    " points="56.148,9.48 53.82,9.48 54.822,10.85 					"/>
					<polygon fill="#FBED27" points="54.822,10.85 51.014,9.48 53.82,9.48 					"/>
					<polygon fill="#FBED27" points="53.82,11.886 54.822,10.85 51.014,9.48 					"/>
					<polygon opacity="0.05" enable-background="new    " points="53.82,11.886 54.822,10.85 51.014,9.48 					"/>
					<polygon fill="#FBED27" points="61.094,11.886 63.757,13.545 61.094,13.545 					"/>
					<polygon fill="#A15AA3" points="34.219,12.521 35.607,12.521 35.368,10.312 					"/>
					<polygon opacity="0.04" enable-background="new    " points="34.219,12.521 35.607,12.521 35.368,10.312 					"/>
					<polygon fill="#A15AA3" points="35.723,16.708 33.289,14.171 35.925,15.388 					"/>
					<polygon fill="#A15AA3" points="33.289,14.171 35.607,12.521 35.925,15.388 					"/>
					<polygon opacity="0.04" enable-background="new    " points="33.289,14.171 35.607,12.521 35.925,15.388 					"/>
					<polygon fill="#A15AA3" points="34.219,12.521 34.527,13.29 33.289,14.171 					"/>
					<polygon fill="#A15AA3" points="34.219,12.521 34.527,13.29 35.607,12.521 					"/>
					<polygon opacity="0.03" fill="#FFFFFF" enable-background="new    " points="34.219,12.521 34.527,13.29 35.607,12.521 					
						"/>
					<polygon fill="#A15AA3" points="35.925,15.388 38.764,15.936 37.875,14.004 					"/>
					<polygon opacity="0.06" enable-background="new    " points="35.925,15.388 38.764,15.936 37.875,14.004 					"/>
					<polygon fill="#A15AA3" points="38.764,15.936 38.542,17.068 39.284,17.068 					"/>
					<polygon opacity="0.04" enable-background="new    " points="38.764,15.936 38.542,17.068 39.284,17.068 					"/>
					<polygon fill="#A15AA3" points="38.542,17.068 35.925,15.388 38.764,15.936 					"/>
					<polygon fill="#DD5D82" points="35.925,15.388 36.9,17.283 38.542,17.068 					"/>
					<polygon opacity="0.04" enable-background="new    " points="35.925,15.388 36.9,17.283 38.542,17.068 					"/>
					<polygon fill="#A15AA3" points="27.23,3.346 31.232,4.434 29.359,2.874 					"/>
					<polygon opacity="0.04" enable-background="new    " points="27.24,3.346 31.244,4.434 29.369,2.874 					"/>
					<polygon fill="#79CCCA" points="29.242,5.379 27.24,3.346 31.244,4.434 					"/>
					<polygon opacity="0.08" fill="#FFFFFF" enable-background="new    " points="29.232,5.379 27.23,3.346 31.232,4.434 					"/>
					<polygon fill="#79CCCA" points="27.485,1.313 30.408,2.261 32.029,1.313 					"/>
					<polygon fill="#79CCCA" points="27.485,1.313 29.369,2.874 30.408,2.261 					"/>
					<polygon opacity="0.06" enable-background="new    " points="27.485,1.313 29.369,2.874 30.408,2.261 					"/>
					<polygon fill="#79CCCA" points="23.271,3.785 23.271,5.379 20.465,5.379 					"/>
					<polygon fill="#79CCCA" points="23.271,3.785 24.75,4.224 23.271,5.379 					"/>
					<polygon opacity="0.08" fill="#FFFFFF" enable-background="new    " points="23.271,3.785 24.75,4.224 23.271,5.379 					"/>
					<polygon fill="#79CCCA" points="24.75,4.224 23.271,5.379 25.842,5.379 					"/>
					<polygon fill="#64BB46" points="12.258,1.313 14.033,1.313 14.033,2.514 					"/>
					<polygon opacity="0.08" fill="#FFFFFF" enable-background="new    " points="12.258,1.313 14.033,1.313 14.033,2.514 					"/>
					<polygon fill="#64BB46" points="14.033,2.514 16.656,1.313 14.033,1.313 					"/>
					<polygon fill="#79CCCA" points="14.989,3.162 14.033,2.514 16.656,1.313 					"/>
					<polygon fill="#64BB46" points="9.381,3.872 9.358,5.379 10.917,4.434 					"/>
					<polygon opacity="0.08" fill="#FFFFFF" enable-background="new    " points="9.381,3.872 9.358,5.379 10.917,4.434 					"/>
					<polygon fill="#64BB46" points="13.076,5.379 10.917,5.379 12.156,4.434 					"/>
					<polygon opacity="0.08" fill="#FFFFFF" enable-background="new    " points="13.076,5.379 10.917,5.379 12.156,4.434 					"/>
					<polygon fill="#64BB46" points="10.917,5.379 10.917,4.434 12.156,4.434 					"/>
					<polygon fill="#64BB46" points="10.917,5.379 10.917,4.434 12.156,4.434 					"/>
					<polygon fill="#79CCCA" points="17.62,4.434 19.321,4.582 20.465,3.346 					"/>
					<polygon fill="#79CCCA" points="17.62,4.434 18.583,5.379 17.62,5.379 					"/>
					<polygon fill="#79CCCA" points="17.62,4.434 18.583,5.379 19.321,4.582 					"/>
					<polygon opacity="0.1" fill="#FFFFFF" enable-background="new    " points="17.62,4.434 18.583,5.379 19.321,4.582 					"/>
				</g>
			</g>
			<g id="Layer_2">
				<polygon opacity="0.5" fill="#A15AA3" enable-background="new    " points="39.415,23.811 29.756,4.911 29.756,18.446 				"/>
				<polygon opacity="0.5" fill="#79CCCA" enable-background="new    " points="33.409,12.058 29.756,4.911 25.048,0.61 
					18.392,0.61 14.821,8.617 24.115,8.617 29.756,18.446 				"/>
				<polygon opacity="0.5" fill="#64BB46" enable-background="new    " points="24.115,8.617 18.392,0.61 6.059,0.61 2.483,8.617 
									"/>
				<polygon opacity="0.5" fill="#DD5D82" enable-background="new    " points="29.756,18.446 39.415,35.391 40.158,24.379 
					40.158,22.49 39.415,23.811 37.001,19.086 				"/>
				<polygon opacity="0.5" fill="#EC3793" enable-background="new    " points="48.965,18.446 39.4,35.391 38.667,24.379 
					38.667,22.49 39.4,23.811 41.792,19.086 				"/>
				<polygon opacity="0.5" fill="#F5841F" enable-background="new    " points="41.792,19.086 44.954,12.058 48.568,4.911 
					54.154,8.617 44.954,25.553 				"/>
				<polygon opacity="0.5" fill="#FBED27" enable-background="new    " points="51.368,13.747 48.568,4.911 61.75,4.911 
					64.062,8.625 54.154,8.617 				"/>
			</g>
		</g>
		<g id="Layer_2_1_" display="inline">
			<g>
				<polygon opacity="0.5" fill="#64BB46" enable-background="new    " points="2.858,6.945 6.214,2.367 20.583,2.367 28.379,6.945 
									"/>
				<polygon opacity="0.5" fill="#79CCCA" enable-background="new    " points="20.583,2.367 18.519,6.945 28.379,6.945 
					32.019,15.109 35.35,10.93 31.404,2.367 				"/>
				<polygon opacity="0.5" fill="#A15AA3" enable-background="new    " points="33.238,6.347 32.019,15.109 36.982,25.878 
					42.542,26.547 				"/>
				<polygon opacity="0.5" fill="#DD5D82" enable-background="new    " points="39.279,19.463 36.982,25.878 43.803,40.668 
					44.718,40.668 44.268,30.286 				"/>
				<polygon opacity="0.5" fill="#EC3793" enable-background="new    " points="43.803,40.668 44.718,40.668 51.594,25.65 
					48.744,20.45 44.268,30.286 				"/>
				<polygon opacity="0.5" fill="#C22127" enable-background="new    " points="45.602,27.309 51.594,25.65 54.145,20.082 
					51.176,15.109 				"/>
				<polygon opacity="0.5" fill="#F5841F" enable-background="new    " points="54.145,20.082 49.538,18.691 52.789,11.562 
					61.145,11.562 55.95,16.139 				"/>
				<polygon opacity="0.5" fill="#FBED27" enable-background="new    " points="55.95,16.139 52.789,11.562 67.143,11.562 
					65.572,16.139 				"/>
			</g>
		</g>
	</g>
	<g id="Layer_2_2_" display="inline">
		<g>
			<polygon opacity="0.8" fill="#EC3793" enable-background="new    " points="32.932,8.643 36.381,25.635 42.344,43.177 
				38.197,17.321 			"/>
			<polygon opacity="0.8" fill="#FFF100" enable-background="new    " points="19.893,10.645 21.83,0.667 33.644,0.667 
				35.709,8.216 			"/>
			<polygon opacity="0.7" fill="#79CCCA" enable-background="new    " points="14.774,0.667 16.571,4.127 19.893,10.645 
				31.729,4.221 33.644,0.667 			"/>
			<polygon opacity="0.8" fill="#DD5D82" enable-background="new    " points="31.729,4.221 33.644,0.667 38.197,17.321 
				37.426,25.122 			"/>
			<polygon opacity="0.7" fill="#D91C5C" enable-background="new    " points="57.764,14.973 59.748,18.422 60.613,20.131 
				49.699,18.422 47.725,14.973 			"/>
			<polygon opacity="0.5" fill="#90278E" enable-background="new    " points="42.344,43.177 37.426,25.122 38.197,17.321 
				42.631,33.521 42.889,43.177 			"/>
			<polygon opacity="0.7" fill="#F5841F" enable-background="new    " points="36.381,25.635 28.718,5.854 31.729,4.221 
				32.932,8.643 			"/>
			<polygon opacity="0.7" fill="#EC3793" enable-background="new    " points="47.725,29.725 51.562,18.69 49.699,18.422 
				49.207,20.159 			"/>
			<polygon opacity="0.7" fill="#F5841F" enable-background="new    " points="60.613,20.131 46.309,20.131 47.725,14.973 
				50.176,14.973 			"/>
			<polyline fill="#79CCCA" points="19.893,10.645 1,10.645 14.774,0.667 			"/>
			<polygon opacity="0.8" fill="#79CCCA" enable-background="new    " points="42.889,43.177 47.725,29.725 49.217,20.139 
				44.627,26.238 43.439,30.568 			"/>
			<polygon opacity="0.7" fill="#64BB46" enable-background="new    " points="42.889,43.177 42.344,43.177 42.631,33.521 
				44.529,26.607 44.223,30.023 47.047,28.061 			"/>
			<polygon opacity="0.7" fill="#FFF100" enable-background="new    " points="47.725,14.973 49.699,18.422 47.047,28.061 
				43.439,30.568 			"/>
			<polygon opacity="0.8" fill="#D91C5C" enable-background="new    " points="57.764,14.973 58.791,16.758 59.52,18.025 
				59.748,18.422 60.166,19.247 60.613,20.131 68.213,20.139 			"/>
		</g>
	</g>
</g>
<g id="Layer_2_3_">
	<linearGradient id="SVGID_1_" gradientUnits="userSpaceOnUse" x1="1" y1="21.6719" x2="68.4434" y2="21.6719">
		<stop  offset="0" style="stop-color:#29B473"/>
		<stop  offset="0.0983" style="stop-color:#27ABCD"/>
		<stop  offset="0.1183" style="stop-color:#26A9E0"/>
		<stop  offset="0.1835" style="stop-color:#287DC0;stop-opacity:0.9908"/>
		<stop  offset="0.2484" style="stop-color:#2A57A5;stop-opacity:0.9815"/>
		<stop  offset="0.3006" style="stop-color:#2B4095;stop-opacity:0.9741"/>
		<stop  offset="0.3335" style="stop-color:#2B388F;stop-opacity:0.9695"/>
		<stop  offset="0.3547" style="stop-color:#35368F;stop-opacity:0.9747"/>
		<stop  offset="0.39" style="stop-color:#4E328F;stop-opacity:0.9833"/>
		<stop  offset="0.4348" style="stop-color:#782B8E;stop-opacity:0.9944"/>
		<stop  offset="0.4578" style="stop-color:#90278E"/>
		<stop  offset="0.5068" style="stop-color:#94278D"/>
		<stop  offset="0.5577" style="stop-color:#A1278B"/>
		<stop  offset="0.6095" style="stop-color:#B52886"/>
		<stop  offset="0.6616" style="stop-color:#D22880"/>
		<stop  offset="0.6992" style="stop-color:#EC297B"/>
		<stop  offset="0.7259" style="stop-color:#EC2C76"/>
		<stop  offset="0.7572" style="stop-color:#ED3668"/>
		<stop  offset="0.7907" style="stop-color:#EE4650"/>
		<stop  offset="0.8256" style="stop-color:#F05C30"/>
		<stop  offset="0.8383" style="stop-color:#F16522"/>
		<stop  offset="0.8654" style="stop-color:#F16922"/>
		<stop  offset="0.8934" style="stop-color:#F27624"/>
		<stop  offset="0.9218" style="stop-color:#F38A26"/>
		<stop  offset="0.9505" style="stop-color:#F5A729"/>
		<stop  offset="0.9791" style="stop-color:#F7CC2D"/>
		<stop  offset="1" style="stop-color:#F9EC31"/>
	</linearGradient>
	<polygon opacity="0.8" fill="url(#SVGID_1_)" points="1,10.355 14.822,0.344 33.756,0.344 42.771,33.312 47.885,14.7 57.957,14.7 
		68.443,19.883 51.23,19.883 43.033,43 42.488,43 30.676,10.359 	"/>
</g>
</svg>
