<?xml version="1.0" encoding="utf-8"?>
<!-- Generator: Adobe Illustrator 16.0.4, SVG Export Plug-In . SVG Version: 6.00 Build 0)  -->
<!DOCTYPE svg PUBLIC "-//W3C//DTD SVG 1.1//EN" "http://www.w3.org/Graphics/SVG/1.1/DTD/svg11.dtd">
<svg version="1.1" id="Layer_1" xmlns="http://www.w3.org/2000/svg" xmlns:xlink="http://www.w3.org/1999/xlink" x="0px" y="0px"
	 width="75.292px" height="57px" viewBox="-11.042 0 75.292 57" enable-background="new -11.042 0 75.292 57" xml:space="preserve">
<g id="Layer_1_5_" display="none">
	<g id="Layer_1_4_" display="inline">
		<g id="Layer_1_3_">
			<g id="Layer_1_2_">
				<g id="Layer_1_1_">
					<g>
						<polygon opacity="0.01" enable-background="new    " points="41.9,28.084 38.764,26.055 40.906,25.333 						"/>
						<polygon fill="#FBED27" points="61.094,11.886 58.186,9.48 61.094,9.48 						"/>
						<polygon fill="#FBED27" points="61.094,11.886 58.186,11.886 58.186,9.48 						"/>
						<polygon opacity="0.02" enable-background="new    " points="61.094,11.886 58.186,11.886 58.186,9.48 						"/>
						<polygon fill="#FBED27" points="61.094,11.886 58.186,13.545 61.094,13.545 						"/>
						<polygon opacity="0.1" fill="#FFFFFF" enable-background="new    " points="61.094,11.886 58.186,13.545 61.094,13.545 						
							"/>
						<polygon fill="#FBED27" points="61.094,11.886 63.757,9.48 61.094,9.48 						"/>
						<polygon opacity="0.02" enable-background="new    " points="61.094,11.886 63.757,9.48 61.094,9.48 						"/>
						<polygon fill="#FBED27" points="61.094,11.886 63.757,11.886 63.757,9.48 						"/>
						<polygon opacity="0.05" fill="#FFFFFF" enable-background="new    " points="61.094,11.886 63.757,11.886 63.757,9.48 						
							"/>
						<polygon fill="#FBED27" points="58.186,11.886 56.148,9.48 58.186,9.48 						"/>
						<polygon opacity="0.04" enable-background="new    " points="58.186,11.886 56.148,9.48 58.186,9.48 						"/>
						<polygon fill="#F5841F" points="58.186,11.886 53.82,13.545 53.82,11.886 						"/>
						<polygon fill="#F5841F" points="53.82,11.886 51.014,9.48 49.92,11.886 						"/>
						<polygon fill="#F5841F" points="53.82,11.886 49.92,11.886 48.704,14.557 						"/>
						<polygon opacity="0.05" fill="#FFFFFF" enable-background="new    " points="53.82,11.886 49.92,11.886 48.704,14.557 						
							"/>
						<polygon fill="#F5841F" points="53.82,11.886 53.82,13.545 50.643,13.545 						"/>
						<polygon opacity="0.02" enable-background="new    " points="53.82,11.886 53.82,13.545 50.643,13.545 						"/>
						<polygon fill="#F5841F" points="50.643,13.545 53.82,13.545 52.48,16.47 						"/>
						<polygon opacity="0.05" fill="#FFFFFF" enable-background="new    " points="50.643,13.545 53.82,13.545 52.48,16.47 						
							"/>
						<polygon fill="#F5841F" points="50.643,13.545 48.704,14.557 49.92,16.47 						"/>
						<polygon opacity="0.02" enable-background="new    " points="50.643,13.545 48.704,14.557 49.92,16.47 						"/>
						<polygon fill="#F5841F" points="50.643,13.545 52.48,16.47 49.92,16.47 						"/>
						<polygon fill="#F5841F" points="50.643,13.545 52.48,16.47 49.92,16.47 						"/>
						<polygon fill="#F5841F" points="49.92,16.47 50.712,20.337 52.48,16.47 						"/>
						<polygon opacity="0.02" enable-background="new    " points="49.92,16.47 50.712,20.337 52.48,16.47 						"/>
						<polygon fill="#C22127" points="50.712,20.337 47.911,20.337 49.08,23.9 						"/>
						<polygon opacity="0.03" fill="#FFFFFF" enable-background="new    " points="50.712,20.337 47.911,20.337 49.08,23.9 						
							"/>
						<polygon fill="#C22127" points="47.911,20.337 45.758,21.033 46.836,22.784 						"/>
						<polygon opacity="0.04" enable-background="new    " points="47.911,20.337 45.758,21.033 46.836,22.784 						"/>
						<polygon fill="#C22127" points="47.911,20.337 46.836,22.784 49.08,23.9 						"/>
						<polygon opacity="0.02" enable-background="new    " points="47.911,20.337 46.836,22.784 49.08,23.9 						"/>
						<polygon fill="#C22127" points="45.758,21.033 46.836,22.784 45.214,22.23 						"/>
						<polygon opacity="0.03" fill="#FFFFFF" enable-background="new    " points="45.758,21.033 46.836,22.784 45.214,22.23 						
							"/>
						<polygon fill="#C22127" points="46.836,22.784 44.333,24.167 45.214,22.23 						"/>
						<polygon fill="#C22127" points="46.836,22.784 44.333,24.167 43.448,26.111 						"/>
						<polygon opacity="0.04" enable-background="new    " points="46.836,22.784 44.333,24.167 43.448,26.111 						"/>
						<polygon fill="#C22127" points="46.836,22.784 48.425,25.333 49.08,23.9 						"/>
						<polygon opacity="0.03" fill="#FFFFFF" enable-background="new    " points="46.836,22.784 48.425,25.333 49.08,23.9 						
							"/>
						<polygon fill="#C22127" points="47.911,24.511 47.389,27.6 48.425,25.333 						"/>
						<polygon fill="#EC3793" points="43.448,26.111 41.9,28.084 43.448,29.148 						"/>
						<polygon fill="#EC3793" points="43.448,29.148 45.143,29.148 43.448,30.952 						"/>
						<polygon fill="#EC3793" points="41.9,28.084 43.448,30.952 43.448,29.148 						"/>
						<polygon opacity="0.04" enable-background="new    " points="41.9,28.084 43.448,30.952 43.448,29.148 						"/>
						<polygon fill="#EC3793" points="41.9,28.084 42.109,30.49 43.064,30.243 						"/>
						<polygon opacity="0.03" fill="#FFFFFF" enable-background="new    " points="41.9,28.084 42.109,30.49 43.064,30.243 						
							"/>
						<polygon fill="#EC3793" points="43.448,30.952 45.253,32.261 43.448,32.261 						"/>
						<polygon fill="#EC3793" points="42.109,30.49 43.064,30.243 43.448,30.952 						"/>
						<polygon opacity="0.06" enable-background="new    " points="42.109,30.49 43.064,30.243 43.448,30.952 						"/>
						<polygon fill="#EC3793" points="43.448,30.952 42.202,32.261 43.448,32.261 						"/>
						<polygon opacity="0.03" fill="#FFFFFF" enable-background="new    " points="43.448,30.952 42.202,32.261 43.448,32.261 
													"/>
						<polygon fill="#EC3793" points="43.035,35.332 43.448,33.857 43.848,35.332 						"/>
						<polygon fill="#EC3793" points="43.448,33.857 44.729,33.407 43.848,35.332 						"/>
						<polygon opacity="0.04" enable-background="new    " points="43.448,33.857 44.729,33.407 43.848,35.332 						"/>
						<polygon fill="#EC3793" points="43.448,33.857 45.253,32.261 44.729,33.407 						"/>
						<polygon opacity="0.03" fill="#FFFFFF" enable-background="new    " points="43.448,33.857 45.253,32.261 44.729,33.407 
													"/>
						<polygon fill="#EC3793" points="45.253,32.261 43.448,32.261 43.448,32.943 						"/>
						<polygon opacity="0.04" enable-background="new    " points="45.253,32.261 43.448,32.261 43.448,32.943 						"/>
						<polygon fill="#EC3793" points="45.253,32.261 43.448,32.943 43.448,33.857 						"/>
						<polygon fill="#EC3793" points="45.143,29.148 43.448,30.952 45.143,30.598 						"/>
						<polygon opacity="0.04" enable-background="new    " points="45.143,29.148 43.448,30.952 45.143,30.598 						"/>
						<polyline fill="#EC3793" points="43.448,30.952 45.253,32.261 45.146,30.652 45.143,30.598 						"/>
						<polyline opacity="0.03" fill="#FFFFFF" enable-background="new    " points="43.448,30.952 45.253,32.261 45.146,30.652 
							45.143,30.598 						"/>
						<polygon fill="#EC3793" points="43.448,29.148 44.564,25.016 43.448,26.111 						"/>
						<polygon opacity="0.04" enable-background="new    " points="43.448,29.148 44.564,25.016 43.448,26.111 						"/>
						<polygon fill="#EC3793" points="43.448,29.148 43.893,27.502 45.143,29.148 						"/>
						<polygon opacity="0.03" fill="#FFFFFF" enable-background="new    " points="43.448,29.148 43.893,27.502 45.143,29.148 
													"/>
						<polygon fill="#C22127" points="46.836,22.784 47.911,24.511 46.836,24.689 						"/>
						<polygon fill="#C22127" points="47.911,24.511 46.836,24.689 47.389,27.6 						"/>
						<polygon opacity="0.03" fill="#FFFFFF" enable-background="new    " points="47.911,24.511 46.836,24.689 47.389,27.6 						
							"/>
						<polygon fill="#EC3793" points="45.143,29.148 45.689,27.502 46.68,29.148 						"/>
						<polygon fill="#EC3793" points="45.143,29.148 46.68,29.148 46.016,30.598 						"/>
						<polygon opacity="0.04" enable-background="new    " points="45.143,29.148 46.68,29.148 46.016,30.598 						"/>
						<path fill="#EC3793" d="M45.143,29.148"/>
						<polygon fill="#EC3793" points="41.9,28.084 42.675,24.432 43.448,26.111 						"/>
						<polygon opacity="0.03" fill="#FFFFFF" enable-background="new    " points="41.9,28.084 42.675,24.432 43.448,26.111 						
							"/>
						<polygon fill="#EC3793" points="45.143,29.148 45.143,30.594 46.016,30.598 						"/>
						<polygon fill="#EC3793" points="45.143,30.594 46.016,30.598 45.253,32.261 						"/>
						<polygon opacity="0.04" enable-background="new    " points="45.143,30.596 46.016,30.6 45.253,32.264 						"/>
						<polygon fill="#DD5D82" points="41.9,28.084 38.764,26.055 40.906,25.333 						"/>
						<polygon opacity="0.02" enable-background="new    " points="41.9,28.084 38.764,26.055 40.906,25.333 						"/>
						<polygon fill="#DD5D82" points="40.906,25.333 41.514,21.909 38.764,26.055 						"/>
						<polygon opacity="0.04" enable-background="new    " points="40.906,25.333 41.514,21.909 38.764,26.055 						"/>
						<polygon fill="#DD5D82" points="38.764,26.055 37.448,23.199 41.514,21.909 						"/>
						<polygon fill="#DD5D82" points="41.514,21.909 40.684,20.107 39.637,22.505 						"/>
						<polygon opacity="0.03" enable-background="new    " points="41.514,21.909 40.684,20.107 39.637,22.505 						"/>
						<polygon fill="#DD5D82" points="39.637,22.505 38.268,19.95 40.684,20.107 						"/>
						<polygon opacity="0.03" fill="#FFFFFF" enable-background="new    " points="39.641,22.505 38.273,19.95 40.688,20.107 						
							"/>
						<polygon fill="#DD5D82" points="38.268,19.95 37.448,23.199 39.637,22.505 						"/>
						<polyline fill="#DD5D82" points="38.268,19.95 40.25,19.165 40.684,20.107 						"/>
						<polyline opacity="0.04" enable-background="new    " points="40.688,20.107 40.254,19.165 38.273,19.95 						"/>
						<polyline opacity="0.05" fill="#FFFFFF" enable-background="new    " points="39.637,22.505 39.626,22.545 38.764,26.055 
							37.473,23.252 						"/>
						<path fill="#FFFFFF" d="M37.448,23.199"/>
						<polygon fill="#DD5D82" points="37.448,23.199 35.404,18.764 38.273,19.948 						"/>
						<polygon opacity="0.04" enable-background="new    " points="37.448,23.199 35.404,18.764 38.273,19.948 						"/>
						<polygon fill="#DD5D82" points="35.404,18.764 35.924,15.388 38.273,19.948 						"/>
						<polygon fill="#DD5D82" points="35.723,16.702 33.289,14.166 35.404,18.764 						"/>
						<polygon opacity="0.03" fill="#FFFFFF" enable-background="new    " points="35.723,16.708 33.289,14.171 35.404,18.768 
													"/>
						<polygon fill="#A15AA3" points="35.924,15.388 36.956,12.011 35.109,8.002 						"/>
						<polygon fill="#A15AA3" points="35.109,8.002 33.686,10.343 32.205,6.949 						"/>
						<polygon fill="#A15AA3" points="33.686,10.343 35.368,10.343 35.109,8.002 						"/>
						<polygon opacity="0.04" enable-background="new    " points="33.665,10.343 35.346,10.343 35.088,8.002 						"/>
						<polygon fill="#A15AA3" points="32.205,6.949 30.257,7.583 29.242,5.379 						"/>
						<polygon fill="#A15AA3" points="30.257,7.583 33.686,10.343 32.205,6.949 						"/>
						<polygon opacity="0.06" enable-background="new    " points="30.257,7.583 33.686,10.343 32.205,6.949 						"/>
						<polygon fill="#A15AA3" points="32.205,6.949 33.369,4.224 35.088,8.002 						"/>
						<polygon opacity="0.03" fill="#FFFFFF" enable-background="new    " points="32.205,6.949 33.369,4.224 35.088,8.002 						
							"/>
						<polygon fill="#A15AA3" points="32.205,6.949 31.232,4.434 29.242,5.379 						"/>
						<polygon opacity="0.02" enable-background="new    " points="32.205,6.949 31.232,4.434 29.242,5.379 						"/>
						<polygon fill="#A15AA3" points="32.205,6.949 31.232,4.434 32.029,1.313 						"/>
						<polygon opacity="0.04" enable-background="new    " points="32.205,6.949 31.232,4.434 32.029,1.313 						"/>
						<polygon fill="#A15AA3" points="32.029,1.313 32.205,6.949 33.369,4.224 						"/>
						<polygon fill="#A15AA3" points="32.029,1.313 29.359,2.874 31.232,4.434 						"/>
						<polygon fill="#79CCCA" points="29.242,5.379 27.23,3.346 25.842,5.379 						"/>
						<polygon fill="#79CCCA" points="27.23,3.346 25.842,5.379 23.921,3.346 						"/>
						<polygon opacity="0.04" enable-background="new    " points="27.23,3.346 25.842,5.379 23.921,3.346 						"/>
						<polygon fill="#79CCCA" points="23.921,3.346 23.921,1.313 21.792,3.346 						"/>
						<polygon fill="#79CCCA" points="21.792,3.346 24.75,4.224 23.921,3.346 						"/>
						<polygon opacity="0.06" enable-background="new    " points="21.792,3.346 24.75,4.224 23.921,3.346 						"/>
						<polygon fill="#79CCCA" points="21.792,3.346 20.465,4.295 23.271,3.785 						"/>
						<polygon opacity="0.04" enable-background="new    " points="21.792,3.346 20.465,4.295 23.271,3.785 						"/>
						<polygon fill="#79CCCA" points="21.792,3.346 21.005,1.313 23.921,1.313 						"/>
						<polygon opacity="0.04" enable-background="new    " points="21.792,3.346 21.005,1.313 23.921,1.313 						"/>
						<polygon fill="#79CCCA" points="20.465,4.295 21.792,3.346 20.465,3.346 						"/>
						<polygon opacity="0.05" enable-background="new    " points="20.465,4.295 21.792,3.346 20.465,3.346 						"/>
						<polygon fill="#79CCCA" points="21.005,1.313 20.465,3.346 21.792,3.346 						"/>
						<polygon fill="#79CCCA" points="23.921,3.346 24.646,1.313 23.921,1.313 						"/>
						<polygon opacity="0.02" enable-background="new    " points="23.921,3.346 24.646,1.313 23.921,1.313 						"/>
						<polygon fill="#79CCCA" points="20.465,4.295 20.465,5.379 18.583,5.379 						"/>
						<polygon opacity="0.08" fill="#FFFFFF" enable-background="new    " points="20.465,4.295 20.465,5.379 18.583,5.379 						
							"/>
						<polygon fill="#79CCCA" points="20.465,3.346 18.583,5.379 20.465,4.295 						"/>
						<polygon opacity="0.02" enable-background="new    " points="20.465,3.346 18.583,5.379 20.465,4.295 						"/>
						<polygon fill="#79CCCA" points="20.465,3.346 18.583,3.346 21.005,1.313 						"/>
						<polygon opacity="0.02" enable-background="new    " points="20.465,3.346 18.583,3.346 21.005,1.313 						"/>
						<polygon fill="#79CCCA" points="20.465,4.295 20.465,5.379 23.271,3.785 						"/>
						<polygon opacity="0.02" enable-background="new    " points="20.465,4.295 20.465,5.379 23.271,3.785 						"/>
						<polygon fill="#79CCCA" points="18.583,3.346 18.583,1.313 21.005,1.313 						"/>
						<polygon fill="#79CCCA" points="18.583,1.313 16.656,1.313 18.583,3.346 						"/>
						<polygon opacity="0.08" fill="#FFFFFF" enable-background="new    " points="18.583,1.313 16.656,1.313 18.583,3.346 						
							"/>
						<polygon fill="#79CCCA" points="18.583,3.346 17.62,4.434 16.656,1.313 						"/>
						<polygon fill="#79CCCA" points="16.656,1.313 14.989,3.162 17.226,3.162 						"/>
						<polygon opacity="0.04" enable-background="new    " points="16.656,1.313 14.989,3.162 17.226,3.162 						"/>
						<polygon fill="#79CCCA" points="14.989,3.162 14.989,4.582 17.226,3.162 						"/>
						<polygon fill="#64BB46" points="14.989,3.162 12.258,1.313 12.258,3.162 						"/>
						<polygon fill="#64BB46" points="12.258,3.162 10.917,3.162 12.258,1.313 						"/>
						<polygon opacity="0.04" enable-background="new    " points="12.258,3.162 10.917,3.162 12.258,1.313 						"/>
						<polygon fill="#64BB46" points="10.917,3.162 13.076,5.379 12.258,3.162 						"/>
						<polygon fill="#64BB46" points="10.917,3.162 10.917,1.313 12.258,1.313 						"/>
						<polygon fill="#64BB46" points="10.917,3.162 10.917,4.434 12.156,4.434 						"/>
						<polygon opacity="0.04" enable-background="new    " points="10.917,3.162 10.917,4.434 12.156,4.434 						"/>
						<polygon fill="#64BB46" points="10.917,3.162 9.358,1.313 9.358,3.872 						"/>
						<polygon opacity="0.08" fill="#FFFFFF" enable-background="new    " points="10.917,3.162 9.358,1.313 9.358,3.872 						"/>
						<polygon fill="#64BB46" points="9.358,1.313 10.917,1.313 10.917,3.162 						"/>
						<polygon opacity="0.02" enable-background="new    " points="9.358,1.313 10.917,1.313 10.917,3.162 						"/>
						<polygon fill="#64BB46" points="7.723,3.872 6.35,5.379 7.723,5.379 						"/>
						<polygon opacity="0.04" enable-background="new    " points="7.723,3.872 6.35,5.379 7.723,5.379 						"/>
						<polygon fill="#64BB46" points="5.257,1.313 6.936,1.313 6.936,2.521 						"/>
						<polygon fill="#64BB46" points="6.936,2.521 8.17,1.313 6.936,1.313 						"/>
						<polygon opacity="0.08" fill="#FFFFFF" enable-background="new    " points="6.936,2.521 8.17,1.313 6.936,1.313 						"/>
						<polygon fill="#64BB46" points="9.358,1.313 8.17,1.313 9.358,3.872 						"/>
						<polygon opacity="0.02" enable-background="new    " points="9.381,1.313 8.193,1.313 9.381,3.872 						"/>
						<polygon fill="#64BB46" points="8.17,1.313 6.936,2.521 8.731,2.521 						"/>
						<polygon opacity="0.04" enable-background="new    " points="8.17,1.313 6.936,2.521 8.731,2.521 						"/>
						<polygon fill="#64BB46" points="5.257,5.379 7.723,3.872 6.35,5.379 						"/>
						<polygon fill="#64BB46" points="6.936,2.521 9.358,3.872 8.731,2.521 						"/>
						<polygon fill="#64BB46" points="7.723,3.872 6.936,2.521 9.358,3.872 						"/>
						<polygon opacity="0.08" fill="#FFFFFF" enable-background="new    " points="7.746,3.872 6.959,2.521 9.381,3.872 						"/>
						<polygon fill="#64BB46" points="6.936,2.521 5.257,2.521 5.257,1.313 						"/>
						<polygon opacity="0.04" enable-background="new    " points="6.936,2.521 5.257,2.521 5.257,1.313 						"/>
						<polygon fill="#64BB46" points="7.723,3.872 6.49,3.709 6.936,2.521 						"/>
						<polygon opacity="0.04" enable-background="new    " points="7.723,3.872 6.49,3.709 6.936,2.521 						"/>
						<polygon fill="#64BB46" points="6.49,3.709 5.257,5.379 7.723,3.872 						"/>
						<polygon opacity="0.08" fill="#FFFFFF" enable-background="new    " points="6.49,3.709 5.257,5.379 7.723,3.872 						"/>
						<polygon fill="#FBED27" points="58.186,11.886 56.148,9.48 53.82,11.886 						"/>
						<polygon opacity="0.04" fill="#FFFFFF" enable-background="new    " points="58.186,11.886 56.148,9.48 53.82,11.886 						
							"/>
						<polygon fill="#FBED27" points="61.094,11.886 63.757,13.545 63.757,11.886 						"/>
						<polygon opacity="0.02" enable-background="new    " points="61.094,11.886 63.757,13.545 63.757,11.886 						"/>
						<polygon fill="#C22127" points="45.758,21.033 47.389,17.451 47.911,20.337 						"/>
						<polygon fill="#F5841F" points="49.92,16.47 47.389,17.451 48.704,14.557 						"/>
						<polygon fill="#C22127" points="47.911,20.337 49.08,18.323 50.712,20.337 						"/>
						<polygon fill="#EC3793" points="43.035,35.332 42.148,33.407 43.448,33.857 						"/>
						<polygon opacity="0.03" fill="#FFFFFF" enable-background="new    " points="43.035,35.332 42.148,33.407 43.448,33.857 
													"/>
						<polygon fill="#EC3793" points="42.148,33.407 43.448,32.261 43.448,33.857 						"/>
						<polygon opacity="0.04" enable-background="new    " points="43.448,32.943 42.148,33.407 43.448,33.857 						"/>
						<polygon fill="#EC3793" points="42.202,32.261 42.148,33.407 43.448,32.261 						"/>
						<polygon opacity="0.04" enable-background="new    " points="42.202,32.261 42.148,33.407 43.448,32.261 						"/>
						<polygon opacity="0.03" fill="#FFFFFF" enable-background="new    " points="43.448,32.261 43.448,32.943 42.148,33.407 
													"/>
						<polygon fill="#EC3793" points="42.202,32.261 41.02,30.952 42.148,33.407 						"/>
						<polygon fill="#EC3793" points="42.109,30.49 42.202,32.261 43.448,30.952 						"/>
						<polygon fill="#EC3793" points="41.02,30.952 42.038,29.669 42.109,30.49 42.202,32.261 						"/>
						<polygon opacity="0.06" enable-background="new    " points="41.02,30.952 42.038,29.669 42.109,30.49 42.202,32.261 						
							"/>
						<polygon fill="#DD5D82" points="40.906,25.333 42.675,24.432 41.514,21.909 						"/>
						<polygon fill="#EC3793" points="40.906,25.333 42.675,24.432 41.514,21.909 						"/>
						<polygon opacity="0.05" fill="#FFFFFF" enable-background="new    " points="40.906,25.333 42.675,24.432 41.514,21.909 
													"/>
						<polygon fill="#EC3793" points="40.906,25.333 42.675,24.432 41.9,28.084 						"/>
						<polygon fill="#DD5D82" points="38.273,19.948 38.542,17.068 40.25,19.165 						"/>
						<polygon fill="#DD5D82" points="38.542,17.068 39.284,17.068 40.25,19.165 						"/>
						<polygon opacity="0.04" enable-background="new    " points="38.542,17.068 39.284,17.068 40.25,19.165 						"/>
						<polygon fill="#DD5D82" points="38.542,17.068 36.9,17.283 38.273,19.948 						"/>
						<polygon opacity="0.05" fill="#FFFFFF" enable-background="new    " points="38.542,17.068 36.9,17.283 38.273,19.948 						
							"/>
						<polygon fill="#A15AA3" points="36.956,12.011 37.873,14.004 35.924,15.388 						"/>
						<polygon opacity="0.04" enable-background="new    " points="36.956,12.011 37.875,14.004 35.925,15.388 						"/>
						<polygon fill="#A15AA3" points="33.686,10.343 32.531,12.521 34.219,12.521 						"/>
						<polygon fill="#A15AA3" points="32.531,12.521 30.257,7.583 33.686,10.343 						"/>
						<polygon opacity="0.04" enable-background="new    " points="32.531,12.521 30.257,7.583 33.686,10.343 						"/>
						<polygon fill="#A15AA3" points="33.686,10.343 35.368,10.312 34.219,12.521 						"/>
						<polygon opacity="0.03" fill="#FFFFFF" enable-background="new    " points="33.686,10.343 35.368,10.312 34.219,12.521 
													"/>
						<polygon fill="#A15AA3" points="34.219,12.521 33.289,14.171 32.531,12.521 						"/>
						<polygon opacity="0.04" enable-background="new    " points="34.219,12.521 33.289,14.171 32.531,12.521 						"/>
						<polygon fill="#79CCCA" points="27.23,3.346 29.359,2.874 27.485,1.313 						"/>
						<polygon fill="#79CCCA" points="27.485,1.313 23.921,3.346 27.23,3.346 						"/>
						<polygon opacity="0.08" fill="#FFFFFF" enable-background="new    " points="27.485,1.313 23.921,3.346 27.23,3.346 						"/>
						<polygon fill="#79CCCA" points="24.646,1.313 27.485,1.313 23.921,3.346 						"/>
						<path fill="none" stroke="#79CCCA" stroke-width="0.25" stroke-miterlimit="10" d="M12.258,3.162"/>
						<polygon fill="#64BB46" points="6.49,3.709 5.257,3.709 6.936,2.521 						"/>
						<polygon fill="#64BB46" points="6.936,2.521 5.257,2.521 5.257,3.709 						"/>
						<polygon opacity="0.08" fill="#FFFFFF" enable-background="new    " points="6.936,2.521 5.257,2.521 5.257,3.709 						"/>
						<polygon fill="#64BB46" points="6.49,3.709 5.257,3.709 5.257,5.379 						"/>
						<polygon opacity="0.02" enable-background="new    " points="6.49,3.709 5.257,3.709 5.257,5.379 						"/>
						<polygon fill="#64BB46" points="7.723,3.872 9.358,5.379 7.723,5.379 						"/>
						<polygon fill="#64BB46" points="9.358,5.379 9.381,3.872 7.723,3.872 						"/>
						<polygon opacity="0.02" enable-background="new    " points="9.358,5.379 9.381,3.872 7.723,3.872 						"/>
						<polygon fill="#64BB46" points="9.381,3.872 10.917,4.434 10.917,3.162 						"/>
						<polygon fill="#64BB46" points="12.258,3.162 14.989,3.162 14.033,3.785 						"/>
						<polygon opacity="0.08" fill="#FFFFFF" enable-background="new    " points="12.258,3.162 14.989,3.162 14.033,3.785 						
							"/>
						<polygon fill="#64BB46" points="12.258,3.162 14.033,3.785 13.076,5.379 						"/>
						<polygon opacity="0.02" enable-background="new    " points="12.258,3.162 14.033,3.785 13.076,5.379 						"/>
						<polygon fill="#64BB46" points="10.917,4.434 9.358,5.379 10.917,5.379 						"/>
						<polygon fill="#79CCCA" points="14.989,4.582 14.033,3.785 14.989,3.162 						"/>
						<polygon opacity="0.04" enable-background="new    " points="14.989,4.582 14.033,3.785 14.989,3.162 						"/>
						<polygon fill="#79CCCA" points="14.989,4.582 17.62,4.434 17.226,3.162 						"/>
						<polygon opacity="0.04" fill="#FFFFFF" enable-background="new    " points="14.989,4.582 17.62,4.434 17.226,3.162 						"/>
						<polygon fill="#79CCCA" points="17.62,4.434 14.989,4.582 17.62,5.379 						"/>
						<polygon opacity="0.1" fill="#FFFFFF" enable-background="new    " points="17.62,4.434 14.989,4.582 17.62,5.379 						"/>
						<polygon fill="#79CCCA" points="17.62,4.434 20.465,3.346 18.583,3.346 						"/>
						<polygon opacity="0.08" fill="#FFFFFF" enable-background="new    " points="17.62,4.434 20.465,3.346 18.583,3.346 						"/>
						<polygon fill="#79CCCA" points="14.989,4.582 13.076,5.379 14.033,3.785 						"/>
						<polygon fill="#79CCCA" points="14.989,4.582 17.62,5.379 13.076,5.379 						"/>
						<polygon opacity="0.04" enable-background="new    " points="14.989,4.582 17.62,5.379 13.076,5.379 						"/>
						<polygon fill="#C22127" points="46.836,22.784 44.913,26.055 46.836,24.689 						"/>
						<polygon opacity="0.04" enable-background="new    " points="46.836,22.784 44.913,26.055 46.836,24.689 						"/>
						<polygon fill="#EC3793" points="46.836,24.689 44.913,26.055 47.389,27.6 						"/>
						<polygon fill="#EC3793" points="45.689,27.502 47.389,27.6 46.68,29.148 						"/>
						<polygon opacity="0.03" fill="#FFFFFF" enable-background="new    " points="45.689,27.502 47.389,27.6 46.68,29.148 						
							"/>
						<polygon fill="#EC3793" points="45.689,27.502 44.913,26.055 47.389,27.6 						"/>
						<polygon opacity="0.04" enable-background="new    " points="45.689,27.502 44.913,26.055 47.389,27.6 						"/>
						<polygon fill="#EC3793" points="44.913,26.055 43.893,27.502 45.689,27.502 						"/>
						<polygon opacity="0.05" fill="#FFFFFF" enable-background="new    " points="44.913,26.055 43.893,27.502 45.689,27.502 
													"/>
						<polygon fill="#EC3793" points="45.689,27.502 43.893,27.502 45.143,29.148 						"/>
						<polygon opacity="0.04" enable-background="new    " points="45.689,27.502 43.893,27.502 45.143,29.148 						"/>
						<polygon fill="#EC3793" points="44.913,26.055 44.564,25.016 43.893,27.502 						"/>
						<polygon fill="#EC3793" points="44.564,25.016 46.836,22.784 44.913,26.055 						"/>
						<polygon opacity="0.04" enable-background="new    " points="44.564,25.025 46.836,22.796 44.913,26.066 						"/>
						<polygon fill="#F5841F" points="49.92,16.47 47.546,18.323 47.389,17.451 						"/>
						<polygon opacity="0.02" enable-background="new    " points="49.92,16.47 47.546,18.323 47.389,17.451 						"/>
						<polygon fill="#C22127" points="47.546,18.323 49.273,17.595 49.08,18.323 						"/>
						<polygon fill="#C22127" points="47.911,20.337 49.08,18.323 47.546,18.323 						"/>
						<polygon opacity="0.04" enable-background="new    " points="47.911,20.337 49.08,18.323 47.546,18.323 						"/>
						<polygon fill="#C22127" points="49.273,17.595 49.92,16.47 47.546,18.323 						"/>
						<polygon opacity="0.04" enable-background="new    " points="49.273,17.595 49.92,16.47 47.546,18.323 						"/>
						<polygon fill="#F5841F" points="49.92,16.47 49.273,17.595 50.384,18.734 						"/>
						<polygon fill="#F5841F" points="50.384,18.734 49.08,18.323 50.712,20.337 						"/>
						<polygon fill="#F5841F" points="49.273,17.595 49.08,18.323 50.384,18.734 						"/>
						<polygon opacity="0.02" enable-background="new    " points="49.273,17.595 49.08,18.323 50.384,18.734 						"/>
						<polygon fill="#DD5D82" points="41.9,28.084 40.139,29.041 38.764,26.055 						"/>
						<polygon opacity="0.05" fill="#FFFFFF" enable-background="new    " points="41.9,28.084 40.139,29.041 38.764,26.055 						
							"/>
						<polygon fill="#EC3793" points="41.9,28.084 41.02,30.952 40.139,29.041 						"/>
						<polygon opacity="0.05" fill="#FFFFFF" enable-background="new    " points="41.9,28.084 41.02,30.952 40.139,29.041 						
							"/>
						<polygon fill="#EC3793" points="41.9,28.084 41.02,30.952 42.038,29.669 						"/>
						<polygon fill="#F5841F" points="58.186,11.886 59.639,12.716 61.094,11.886 						"/>
						<polygon fill="#F5841F" points="58.186,11.886 58.186,13.545 59.639,12.716 						"/>
						<polygon opacity="0.02" enable-background="new    " points="58.186,11.886 58.186,13.545 59.639,12.716 						"/>
						<polygon opacity="0.03" enable-background="new    " points="59.639,12.716 61.094,13.545 58.186,13.545 						"/>
						<polygon fill="#F5841F" points="58.186,11.886 58.186,13.545 55.893,12.757 						"/>
						<polygon opacity="0.04" enable-background="new    " points="58.186,11.886 58.186,13.545 55.893,12.757 						"/>
						<polygon fill="#F5841F" points="55.893,12.757 55.893,13.545 58.186,13.545 						"/>
						<polygon fill="#F5841F" points="55.893,12.757 53.82,13.545 55.893,13.545 						"/>
						<polygon opacity="0.05" fill="#FFFFFF" enable-background="new    " points="55.893,12.757 53.82,13.545 55.893,13.545 						
							"/>
						<polygon fill="#FBED27" points="56.148,9.48 53.82,9.48 54.822,10.85 						"/>
						<polygon opacity="0.03" enable-background="new    " points="56.148,9.48 53.82,9.48 54.822,10.85 						"/>
						<polygon fill="#FBED27" points="54.822,10.85 51.014,9.48 53.82,9.48 						"/>
						<polygon fill="#FBED27" points="53.82,11.886 54.822,10.85 51.014,9.48 						"/>
						<polygon opacity="0.05" enable-background="new    " points="53.82,11.886 54.822,10.85 51.014,9.48 						"/>
						<polygon fill="#FBED27" points="61.094,11.886 63.757,13.545 61.094,13.545 						"/>
						<polygon fill="#A15AA3" points="34.219,12.521 35.607,12.521 35.368,10.312 						"/>
						<polygon opacity="0.04" enable-background="new    " points="34.219,12.521 35.607,12.521 35.368,10.312 						"/>
						<polygon fill="#A15AA3" points="35.723,16.708 33.289,14.171 35.925,15.388 						"/>
						<polygon fill="#A15AA3" points="33.289,14.171 35.607,12.521 35.925,15.388 						"/>
						<polygon opacity="0.04" enable-background="new    " points="33.289,14.171 35.607,12.521 35.925,15.388 						"/>
						<polygon fill="#A15AA3" points="34.219,12.521 34.527,13.29 33.289,14.171 						"/>
						<polygon fill="#A15AA3" points="34.219,12.521 34.527,13.29 35.607,12.521 						"/>
						<polygon opacity="0.03" fill="#FFFFFF" enable-background="new    " points="34.219,12.521 34.527,13.29 35.607,12.521 						
							"/>
						<polygon fill="#A15AA3" points="35.925,15.388 38.764,15.936 37.875,14.004 						"/>
						<polygon opacity="0.06" enable-background="new    " points="35.925,15.388 38.764,15.936 37.875,14.004 						"/>
						<polygon fill="#A15AA3" points="38.764,15.936 38.542,17.068 39.284,17.068 						"/>
						<polygon opacity="0.04" enable-background="new    " points="38.764,15.936 38.542,17.068 39.284,17.068 						"/>
						<polygon fill="#A15AA3" points="38.542,17.068 35.925,15.388 38.764,15.936 						"/>
						<polygon fill="#DD5D82" points="35.925,15.388 36.9,17.283 38.542,17.068 						"/>
						<polygon opacity="0.04" enable-background="new    " points="35.925,15.388 36.9,17.283 38.542,17.068 						"/>
						<polygon fill="#A15AA3" points="27.23,3.346 31.232,4.434 29.359,2.874 						"/>
						<polygon opacity="0.04" enable-background="new    " points="27.24,3.346 31.244,4.434 29.369,2.874 						"/>
						<polygon fill="#79CCCA" points="29.242,5.379 27.24,3.346 31.244,4.434 						"/>
						<polygon opacity="0.08" fill="#FFFFFF" enable-background="new    " points="29.232,5.379 27.23,3.346 31.232,4.434 						"/>
						<polygon fill="#79CCCA" points="27.485,1.313 30.408,2.261 32.029,1.313 						"/>
						<polygon fill="#79CCCA" points="27.485,1.313 29.369,2.874 30.408,2.261 						"/>
						<polygon opacity="0.06" enable-background="new    " points="27.485,1.313 29.369,2.874 30.408,2.261 						"/>
						<polygon fill="#79CCCA" points="23.271,3.785 23.271,5.379 20.465,5.379 						"/>
						<polygon fill="#79CCCA" points="23.271,3.785 24.75,4.224 23.271,5.379 						"/>
						<polygon opacity="0.08" fill="#FFFFFF" enable-background="new    " points="23.271,3.785 24.75,4.224 23.271,5.379 						"/>
						<polygon fill="#79CCCA" points="24.75,4.224 23.271,5.379 25.842,5.379 						"/>
						<polygon fill="#64BB46" points="12.258,1.313 14.033,1.313 14.033,2.514 						"/>
						<polygon opacity="0.08" fill="#FFFFFF" enable-background="new    " points="12.258,1.313 14.033,1.313 14.033,2.514 						
							"/>
						<polygon fill="#64BB46" points="14.033,2.514 16.656,1.313 14.033,1.313 						"/>
						<polygon fill="#79CCCA" points="14.989,3.162 14.033,2.514 16.656,1.313 						"/>
						<polygon fill="#64BB46" points="9.381,3.872 9.358,5.379 10.917,4.434 						"/>
						<polygon opacity="0.08" fill="#FFFFFF" enable-background="new    " points="9.381,3.872 9.358,5.379 10.917,4.434 						"/>
						<polygon fill="#64BB46" points="13.076,5.379 10.917,5.379 12.156,4.434 						"/>
						<polygon opacity="0.08" fill="#FFFFFF" enable-background="new    " points="13.076,5.379 10.917,5.379 12.156,4.434 						
							"/>
						<polygon fill="#64BB46" points="10.917,5.379 10.917,4.434 12.156,4.434 						"/>
						<polygon fill="#64BB46" points="10.917,5.379 10.917,4.434 12.156,4.434 						"/>
						<polygon fill="#79CCCA" points="17.62,4.434 19.321,4.582 20.465,3.346 						"/>
						<polygon fill="#79CCCA" points="17.62,4.434 18.583,5.379 17.62,5.379 						"/>
						<polygon fill="#79CCCA" points="17.62,4.434 18.583,5.379 19.321,4.582 						"/>
						<polygon opacity="0.1" fill="#FFFFFF" enable-background="new    " points="17.62,4.434 18.583,5.379 19.321,4.582 						"/>
					</g>
				</g>
				<g id="Layer_2">
					<polygon opacity="0.5" fill="#A15AA3" enable-background="new    " points="39.415,23.811 29.756,4.911 29.756,18.446 					"/>
					<polygon opacity="0.5" fill="#79CCCA" enable-background="new    " points="33.409,12.058 29.756,4.911 25.048,0.61 
						18.392,0.61 14.821,8.617 24.115,8.617 29.756,18.446 					"/>
					<polygon opacity="0.5" fill="#64BB46" enable-background="new    " points="24.115,8.617 18.392,0.61 6.059,0.61 2.483,8.617 
											"/>
					<polygon opacity="0.5" fill="#DD5D82" enable-background="new    " points="29.756,18.446 39.415,35.391 40.158,24.379 
						40.158,22.49 39.415,23.811 37.001,19.086 					"/>
					<polygon opacity="0.5" fill="#EC3793" enable-background="new    " points="48.965,18.446 39.4,35.391 38.667,24.379 
						38.667,22.49 39.4,23.811 41.792,19.086 					"/>
					<polygon opacity="0.5" fill="#F5841F" enable-background="new    " points="41.792,19.086 44.954,12.058 48.568,4.911 
						54.154,8.617 44.954,25.553 					"/>
					<polygon opacity="0.5" fill="#FBED27" enable-background="new    " points="51.368,13.747 48.568,4.911 61.75,4.911 
						64.062,8.625 54.154,8.617 					"/>
				</g>
			</g>
			<g id="Layer_2_1_">
				<g>
					<polygon opacity="0.5" fill="#64BB46" enable-background="new    " points="5.405,4.582 8.495,0.367 21.725,0.367 
						28.904,4.582 					"/>
					<polygon opacity="0.5" fill="#79CCCA" enable-background="new    " points="21.725,0.367 19.825,4.582 28.904,4.582 
						32.255,12.1 35.322,8.252 31.689,0.367 					"/>
					<polygon opacity="0.5" fill="#A15AA3" enable-background="new    " points="33.378,4.031 32.255,12.1 36.825,22.016 
						41.945,22.631 					"/>
					<polygon opacity="0.5" fill="#DD5D82" enable-background="new    " points="38.941,16.109 36.825,22.016 43.105,35.634 
						43.948,35.634 43.533,26.074 					"/>
					<polygon opacity="0.5" fill="#EC3793" enable-background="new    " points="43.105,35.634 43.948,35.634 50.279,21.807 
						47.654,17.018 43.533,26.074 					"/>
					<polygon opacity="0.5" fill="#C22127" enable-background="new    " points="44.762,23.332 50.279,21.807 52.628,16.679 
						49.895,12.1 					"/>
					<polygon opacity="0.5" fill="#F5841F" enable-background="new    " points="52.628,16.679 48.387,15.398 51.38,8.833 
						59.074,8.833 54.291,13.048 					"/>
					<polygon opacity="0.5" fill="#FBED27" enable-background="new    " points="54.291,13.048 51.38,8.833 64.596,8.833 
						63.15,13.048 					"/>
				</g>
			</g>
		</g>
		<g id="Layer_2_2_">
			<g>
				<polygon opacity="0.8" fill="#EC3793" enable-background="new    " points="28.933,7.061 31.773,21.061 36.688,35.511 
					33.271,14.209 				"/>
				<polygon opacity="0.8" fill="#FFF100" enable-background="new    " points="18.191,8.709 19.786,0.489 29.519,0.489 
					31.221,6.709 				"/>
				<polygon opacity="0.7" fill="#79CCCA" enable-background="new    " points="13.974,0.489 15.454,3.34 18.191,8.709 
					27.941,3.417 29.519,0.489 				"/>
				<polygon opacity="0.8" fill="#DD5D82" enable-background="new    " points="27.941,3.417 29.519,0.489 33.271,14.209 
					32.634,20.637 				"/>
				<polygon opacity="0.7" fill="#D91C5C" enable-background="new    " points="49.391,12.275 51.023,15.117 51.736,16.525 
					42.746,15.117 41.119,12.275 				"/>
				<polygon opacity="0.5" fill="#90278E" enable-background="new    " points="36.688,35.511 32.634,20.637 33.271,14.209 
					36.922,27.557 37.135,35.511 				"/>
				<polygon opacity="0.7" fill="#F5841F" enable-background="new    " points="31.773,21.061 25.461,4.764 27.941,3.417 
					28.933,7.061 				"/>
				<polygon opacity="0.7" fill="#EC3793" enable-background="new    " points="41.119,24.43 44.281,15.338 42.746,15.117 
					42.34,16.548 				"/>
				<polygon opacity="0.7" fill="#F5841F" enable-background="new    " points="51.736,16.525 39.952,16.525 41.119,12.275 
					43.139,12.275 				"/>
				<polyline fill="#79CCCA" points="18.191,8.709 2.626,8.709 13.974,0.489 				"/>
				<polygon opacity="0.8" fill="#79CCCA" enable-background="new    " points="37.135,35.511 41.119,24.43 42.35,16.532 
					38.568,21.557 37.589,25.123 				"/>
				<polygon opacity="0.7" fill="#64BB46" enable-background="new    " points="37.135,35.511 36.688,35.511 36.922,27.557 
					38.486,21.859 38.232,24.674 40.561,23.059 				"/>
				<polygon opacity="0.7" fill="#FFF100" enable-background="new    " points="41.119,12.275 42.746,15.117 40.561,23.059 
					37.589,25.123 				"/>
				<polygon opacity="0.8" fill="#D91C5C" enable-background="new    " points="49.391,12.275 50.236,13.747 50.837,14.79 
					51.023,15.117 51.369,15.796 51.736,16.525 57.999,16.532 				"/>
			</g>
		</g>
	</g>
	<g display="inline">
		<polygon opacity="0.05" fill="#F8ED40" enable-background="new    " points="10.146,-17.25 -3.912,-3.472 16.031,-3.472 		"/>
		<polygon opacity="0.05" fill="#754D9E" enable-background="new    " points="55.078,-6.262 61.938,4.496 49.35,1.577 		"/>
		<polygon opacity="0.05" fill="#F7961D" enable-background="new    " points="4.397,-15.637 13.813,1.768 20,-12.357 		"/>
		<polygon opacity="0.05" fill="#ED2A25" enable-background="new    " points="25.854,-14.019 9.778,-9.781 26.25,0.441 		"/>
		<polygon opacity="0.05" fill="#ED4798" enable-background="new    " points="32.371,-16.744 19.077,-5.155 29.579,0.542 		"/>
		<polygon opacity="0.05" fill="#ED2A25" enable-background="new    " points="50.341,-9.167 37.047,2.419 47.549,8.12 		"/>
		<polygon opacity="0.05" fill="#754D9E" enable-background="new    " points="31.008,-9.496 36.825,-1.185 24.43,5.787 		"/>
		<polygon opacity="0.05" fill="#426EB5" enable-background="new    " points="32.969,-2.57 30.17,2.176 26.049,9.34 37.169,12.797 
					"/>
		<polygon opacity="0.05" fill="#06B052" enable-background="new    " points="36.932,20.867 37.169,12.797 35.648,7.399 
			33.611,11.69 34.172,17.831 		"/>
		<polygon opacity="0.05" fill="#F8ED40" enable-background="new    " points="37.408,20.867 37.169,12.797 38.693,7.399 
			40.729,11.69 40.171,17.831 		"/>
		<polygon opacity="0.05" fill="#ED4798" enable-background="new    " points="44.281,1.536 50.341,-6.356 56.421,3.014 		"/>
		<polygon opacity="0.05" fill="#F7961D" enable-background="new    " points="37.169,12.797 41.547,-3.194 49.163,10.584 		"/>
		<g>
			<polygon opacity="0.7" fill="#ED4798" enable-background="new    " points="24.472,-9.86 20.427,-6.332 27.073,-6.332 
				29.579,0.542 31.133,-9.282 30.939,-9.86 			"/>
			<polygon opacity="0.7" fill="#F8ED40" enable-background="new    " points="2.361,-6.334 7.216,-9.85 13.305,-9.85 
				14.807,-6.332 			"/>
			<polygon opacity="0.7" fill="#F7961D" enable-background="new    " points="7.526,-9.85 9.43,-6.332 17.361,-6.332 18.901,-9.85 
							"/>
			<polygon opacity="0.7" fill="#754D9E" enable-background="new    " points="31.037,-9.565 28.25,-3.108 30.277,2.484 
				33.82,0.542 			"/>
			<polygon opacity="0.7" fill="#426EB5" enable-background="new    " points="32.963,-2.57 30.167,2.182 33.611,11.69 
				37.169,12.797 			"/>
			<polygon opacity="0.7" fill="#06B052" enable-background="new    " points="33.611,11.69 35.693,7.399 37.169,12.797 
				36.932,20.867 			"/>
			<polygon opacity="0.7" fill="#F8ED40" enable-background="new    " points="38.693,7.399 40.682,11.588 37.408,20.867 
				37.169,12.797 			"/>
			<polygon opacity="0.7" fill="#F7961D" enable-background="new    " points="37.169,12.797 40.956,-1.013 42.754,-1.009 
				44.209,1.63 40.467,12.188 			"/>
			<polygon opacity="0.6" fill="#ED2A25" enable-background="new    " points="40.956,-1.013 39.632,3.824 42.82,5.555 44.209,1.63 
				48.575,1.608 49.025,-1.013 			"/>
			<polygon opacity="0.7" fill="#ED4798" enable-background="new    " points="46.223,-1.001 44.209,1.63 55.521,1.63 
				54.064,-0.618 53.256,-1.013 			"/>
			<polygon opacity="0.6" fill="#754D9E" enable-background="new    " points="49.35,1.63 51.243,-1.013 53.256,-1.013 58.566,1.63 
							"/>
			<polygon opacity="0.6" fill="#ED2A25" enable-background="new    " points="25.969,-9.86 26.065,-6.332 15.334,-6.332 
				9.778,-9.86 			"/>
		</g>
	</g>
</g>
<g id="Layer_2_3_" display="none">
	<polygon display="inline" fill="#9E9E9E" points="23.778,-2.126 28.979,-2.126 28.979,-1.406 23.465,-1.406 	"/>
	<g display="inline">
		<polygon fill="#5D5D5D" points="13.773,-55.545 19.916,-55.545 19.916,-55.063 13.403,-55.063 		"/>
		<path fill="#5D5D5D" d="M1.108-62.381h0.781l2.38,5.549l2.419-5.549H7.47L4.345-55.2H4.189L1.108-62.381z"/>
		<rect x="8.509" y="-60.511" fill="#5D5D5D" width="0.684" height="5.312"/>
		<path fill="#5D5D5D" d="M10.658-55.2v-7.362h0.683v2.962c0.286-0.351,0.606-0.614,0.961-0.788
			c0.354-0.174,0.743-0.261,1.166-0.261c0.751,0,1.393,0.271,1.924,0.817c0.531,0.545,0.797,1.206,0.797,1.984
			c0,0.769-0.269,1.424-0.805,1.967c-0.536,0.543-1.182,0.815-1.936,0.815c-0.433,0-0.824-0.093-1.176-0.278
			c-0.352-0.185-0.661-0.464-0.932-0.835v0.977h-0.682V-55.2z M13.392-55.722c0.38,0,0.73-0.093,1.052-0.281
			c0.321-0.187,0.577-0.45,0.768-0.789c0.19-0.338,0.285-0.696,0.285-1.074c0-0.377-0.096-0.737-0.288-1.079
			c-0.19-0.342-0.449-0.608-0.771-0.798c-0.324-0.19-0.67-0.285-1.036-0.285c-0.374,0-0.729,0.095-1.064,0.285
			c-0.336,0.19-0.594,0.447-0.774,0.769c-0.181,0.322-0.271,0.686-0.271,1.089c0,0.615,0.201,1.129,0.606,1.542
			C12.303-55.929,12.801-55.722,13.392-55.722z"/>
		<path fill="#5D5D5D" d="M21.905-56.962l0.577,0.303c-0.189,0.371-0.408,0.671-0.656,0.899c-0.246,0.228-0.524,0.401-0.835,0.52
			c-0.309,0.118-0.659,0.178-1.05,0.178c-0.867,0-1.545-0.284-2.033-0.852c-0.488-0.567-0.733-1.21-0.733-1.926
			c0-0.673,0.208-1.274,0.621-1.801c0.523-0.67,1.227-1.005,2.105-1.005c0.906,0,1.629,0.343,2.17,1.029
			c0.385,0.486,0.58,1.091,0.587,1.817h-4.78c0.014,0.617,0.211,1.123,0.592,1.517c0.382,0.395,0.852,0.592,1.412,0.592
			c0.271,0,0.534-0.046,0.789-0.141c0.257-0.094,0.475-0.219,0.653-0.374C21.504-56.364,21.697-56.616,21.905-56.962z
			 M21.905-58.392c-0.09-0.365-0.224-0.656-0.397-0.875c-0.175-0.218-0.405-0.394-0.692-0.527c-0.286-0.133-0.588-0.2-0.904-0.2
			c-0.521,0-0.97,0.167-1.344,0.502c-0.273,0.244-0.48,0.611-0.621,1.099L21.905-58.392L21.905-58.392z"/>
		<path fill="#5D5D5D" d="M26.603-59.93l-0.439,0.454c-0.365-0.355-0.723-0.531-1.072-0.531c-0.222,0-0.412,0.073-0.569,0.219
			c-0.159,0.146-0.238,0.317-0.238,0.513c0,0.172,0.065,0.336,0.196,0.493c0.13,0.159,0.404,0.347,0.821,0.562
			c0.509,0.263,0.854,0.518,1.038,0.761c0.179,0.248,0.269,0.526,0.269,0.835c0,0.436-0.153,0.805-0.46,1.108
			c-0.306,0.303-0.688,0.454-1.148,0.454c-0.307,0-0.6-0.067-0.879-0.2c-0.278-0.134-0.509-0.318-0.691-0.552l0.431-0.488
			c0.349,0.394,0.719,0.591,1.109,0.591c0.274,0,0.509-0.088,0.7-0.264c0.192-0.176,0.289-0.382,0.289-0.62
			c0-0.195-0.063-0.369-0.191-0.522c-0.127-0.149-0.413-0.338-0.86-0.566c-0.479-0.248-0.806-0.492-0.979-0.732
			c-0.173-0.241-0.259-0.516-0.259-0.825c0-0.403,0.137-0.739,0.412-1.006s0.624-0.399,1.044-0.399
			C25.614-60.647,26.106-60.409,26.603-59.93z"/>
		<polygon fill="#5D5D5D" points="1.108,-62.381 -6.957,-62.381 -7.639,-61.699 1.401,-61.699 		"/>
		<rect x="10.496" y="-63.125" fill="#5D5D5D" width="0.977" height="0.744"/>
		<path fill="#5D5D5D" d="M21.905-56.962c0,0,1.026-0.268,1.954,0.66c0.927,0.927-0.431,0.488-0.431,0.488s-0.639-0.751-1-0.751"/>
		<polygon fill="#5D5D5D" points="7.47,-62.381 8.852,-61.52 10.658,-62.381 10.658,-61.659 8.852,-60.799 7.175,-61.704 		"/>
	</g>
	<polygon display="inline" fill="#686868" points="38.65,1.236 40.953,2.672 43.963,1.236 43.963,2.439 40.953,3.874 38.159,2.365 	
		"/>
	<rect x="-63.938" y="-81.5" display="inline" fill="#FFFFFF" width="20.5" height="11.25"/>
	<g display="inline">
		<polygon fill="#FFFFFF" points="25.062,-23.126 17.938,-35.467 25.062,-47.809 39.312,-47.809 46.438,-35.467 39.312,-23.126 		
			"/>
		<g>
			<polygon opacity="0.9" fill="#ED4798" enable-background="new    " points="28.708,-47.5 27.193,-45.228 25.465,-47.5 			"/>
			<polygon opacity="0.9" fill="#F8ED40" enable-background="new    " points="30.909,-47.5 29.394,-45.228 27.667,-47.5 			"/>
			<polygon opacity="0.9" fill="#ED2A25" enable-background="new    " points="32.836,-47.5 31.32,-45.228 29.592,-47.5 			"/>
			<polygon opacity="0.9" fill="#426EB5" enable-background="new    " points="35.036,-47.5 33.521,-45.228 31.794,-47.5 			"/>
			<polygon opacity="0.8" fill="#06B052" enable-background="new    " points="37.236,-47.5 35.723,-45.228 33.995,-47.5 			"/>
			<polygon opacity="0.9" fill="#F7961D" enable-background="new    " points="39.131,-47.5 37.63,-45.228 35.921,-47.5 			"/>
			<polygon opacity="0.9" fill="#ED4798" enable-background="new    " points="35.921,-23.5 37.436,-25.772 39.164,-23.5 			"/>
			<polygon opacity="0.9" fill="#F8ED40" enable-background="new    " points="33.719,-23.5 35.234,-25.772 36.963,-23.5 			"/>
			<polygon opacity="0.9" fill="#ED2A25" enable-background="new    " points="31.794,-23.5 33.309,-25.772 35.036,-23.5 			"/>
			<polygon opacity="0.9" fill="#426EB5" enable-background="new    " points="29.592,-23.5 31.107,-25.772 32.836,-23.5 			"/>
			<polygon opacity="0.8" fill="#06B052" enable-background="new    " points="27.391,-23.5 28.907,-25.772 30.634,-23.5 			"/>
			<polygon opacity="0.9" fill="#F7961D" enable-background="new    " points="25.465,-23.5 26.981,-25.772 28.708,-23.5 			"/>
			<polygon opacity="0.9" fill="#ED4798" enable-background="new    " points="44.243,-32.83 43.032,-35.279 45.863,-35.639 			"/>
			<polygon opacity="0.9" fill="#F8ED40" enable-background="new    " points="43.143,-30.924 41.932,-33.373 44.764,-33.732 			"/>
			<polygon opacity="0.9" fill="#ED2A25" enable-background="new    " points="42.18,-29.256 40.969,-31.705 43.801,-32.064 			"/>
			<polygon opacity="0.9" fill="#426EB5" enable-background="new    " points="41.079,-27.35 39.868,-29.798 42.7,-30.158 			"/>
			<polygon opacity="0.8" fill="#06B052" enable-background="new    " points="39.979,-25.443 38.768,-27.892 41.6,-28.252 			"/>
			<polygon opacity="0.9" fill="#F7961D" enable-background="new    " points="39.016,-23.775 37.805,-26.224 40.637,-26.583 			"/>
			<polygon opacity="0.9" fill="#F7961D" enable-background="new    " points="20.338,-32.83 21.548,-35.279 18.716,-35.639 			"/>
			<polygon opacity="0.8" fill="#06B052" enable-background="new    " points="21.438,-30.924 22.649,-33.373 19.817,-33.732 			"/>
			<polygon opacity="0.9" fill="#426EB5" enable-background="new    " points="22.401,-29.256 23.612,-31.705 20.78,-32.064 			"/>
			<polygon opacity="0.9" fill="#ED2A25" enable-background="new    " points="23.502,-27.35 24.712,-29.798 21.88,-30.158 			"/>
			<polygon opacity="0.9" fill="#F8ED40" enable-background="new    " points="24.603,-25.443 25.813,-27.892 22.981,-28.252 			"/>
			<polygon opacity="0.9" fill="#ED4798" enable-background="new    " points="25.566,-23.775 26.776,-26.224 23.944,-26.583 			"/>
			<polygon opacity="0.9" fill="#ED4798" enable-background="new    " points="20.338,-38.414 21.548,-35.965 18.716,-35.605 			"/>
			<polygon opacity="0.9" fill="#F8ED40" enable-background="new    " points="21.438,-40.319 22.649,-37.871 19.817,-37.512 			"/>
			<polygon opacity="0.9" fill="#ED2A25" enable-background="new    " points="22.401,-41.988 23.612,-39.539 20.78,-39.179 			"/>
			<polygon opacity="0.9" fill="#426EB5" enable-background="new    " points="23.502,-43.894 24.712,-41.445 21.88,-41.085 			"/>
			<polygon opacity="0.8" fill="#06B052" enable-background="new    " points="24.603,-45.8 25.813,-43.351 22.981,-42.992 			"/>
			<polygon opacity="0.9" fill="#F7961D" enable-background="new    " points="25.566,-47.468 26.776,-45.02 23.944,-44.66 			"/>
			<polygon opacity="0.9" fill="#F7961D" enable-background="new    " points="44.243,-38.414 43.032,-35.965 45.863,-35.605 			"/>
			<polygon opacity="0.8" fill="#06B052" enable-background="new    " points="43.143,-40.319 41.932,-37.871 44.764,-37.512 			"/>
			<polygon opacity="0.9" fill="#426EB5" enable-background="new    " points="42.18,-41.988 40.969,-39.539 43.801,-39.179 			"/>
			<polygon opacity="0.9" fill="#ED2A25" enable-background="new    " points="41.079,-43.894 39.868,-41.445 42.7,-41.085 			"/>
			<polygon opacity="0.9" fill="#F8ED40" enable-background="new    " points="39.979,-45.8 38.768,-43.351 41.6,-42.992 			"/>
			<polygon opacity="0.9" fill="#ED4798" enable-background="new    " points="39.016,-47.468 37.805,-45.02 40.637,-44.66 			"/>
		</g>
	</g>
	<path display="inline" fill="#9E9E9E" d="M18.019-15.447h1.005l3.064,7.142l3.113-7.142h1.006l-4.021,9.244h-0.201L18.019-15.447z"
		/>
	<polygon display="inline" fill="#9E9E9E" points="16.568,-18.837 17.573,-18.837 18.475,-16.736 17.469,-16.736 	"/>
	<polygon display="inline" fill="#9E9E9E" points="17.189,-17.381 18.195,-17.381 19.097,-15.28 18.092,-15.28 	"/>
	<polygon display="inline" fill="#9E9E9E" points="16.781,-18.837 10.562,-18.837 10.562,-17.938 17.189,-17.938 	"/>
	<polygon display="inline" fill="#9E9E9E" points="25.811,-15.447 45.396,-15.447 45.396,-14.656 25.01,-14.656 	"/>
	<g display="inline" opacity="0.9">
		<path fill="#ED4798" d="M63.51-22.598h0.488l1.488,4.529l1.512-4.529h0.488l-1.952,5.862h-0.099L63.51-22.598z"/>
		<polygon fill="#ED4798" points="62.807,-24.748 63.294,-24.748 63.73,-23.416 63.243,-23.416 		"/>
		<polygon fill="#ED4798" points="63.107,-23.825 63.596,-23.825 64.033,-22.493 63.545,-22.493 		"/>
		<polygon fill="#ED4798" points="62.831,-24.748 58.613,-24.748 58.613,-24.178 63.107,-24.178 		"/>
		<polygon fill="#ED4798" points="67.109,-22.598 72.091,-22.598 72.091,-22.097 66.904,-22.097 		"/>
	</g>
	<rect x="26.866" y="-11.516" display="inline" fill="#9E9E9E" width="0.684" height="5.312"/>
	<path display="inline" fill="#9E9E9E" d="M29.014-6.203v-7.363h0.684v2.964c0.287-0.352,0.607-0.614,0.961-0.789
		c0.355-0.174,0.744-0.261,1.166-0.261c0.752,0,1.393,0.272,1.924,0.818c0.533,0.545,0.799,1.207,0.799,1.985
		c0,0.768-0.271,1.424-0.805,1.968c-0.537,0.543-1.184,0.815-1.938,0.815c-0.432,0-0.824-0.093-1.176-0.278
		c-0.352-0.185-0.662-0.464-0.932-0.835v0.977L29.014-6.203L29.014-6.203z M31.748-6.726c0.381,0,0.73-0.094,1.053-0.281
		c0.323-0.187,0.578-0.45,0.768-0.789c0.19-0.339,0.285-0.697,0.285-1.074s-0.096-0.737-0.287-1.079
		c-0.191-0.342-0.447-0.608-0.771-0.798c-0.322-0.19-0.668-0.286-1.035-0.286c-0.373,0-0.729,0.095-1.064,0.286
		S30.1-10.3,29.92-9.978c-0.182,0.322-0.271,0.685-0.271,1.089c0,0.615,0.203,1.129,0.607,1.543
		C30.66-6.932,31.158-6.726,31.748-6.726z"/>
	<path display="inline" fill="#9E9E9E" d="M40.264-7.966l0.576,0.303c-0.189,0.371-0.406,0.67-0.654,0.898s-0.524,0.401-0.836,0.52
		c-0.31,0.119-0.66,0.178-1.051,0.178c-0.867,0-1.545-0.284-2.033-0.852s-0.731-1.21-0.731-1.926c0-0.674,0.207-1.274,0.62-1.802
		c0.523-0.67,1.228-1.006,2.105-1.006c0.905,0,1.629,0.343,2.17,1.03c0.385,0.485,0.579,1.09,0.586,1.816h-4.779
		c0.014,0.617,0.209,1.123,0.593,1.518c0.381,0.395,0.853,0.592,1.413,0.592c0.271,0,0.531-0.047,0.787-0.141
		c0.258-0.094,0.476-0.219,0.652-0.375C39.861-7.368,40.055-7.619,40.264-7.966z M40.264-9.396
		c-0.091-0.365-0.224-0.656-0.396-0.874c-0.176-0.218-0.405-0.394-0.691-0.527c-0.285-0.133-0.589-0.2-0.902-0.2
		c-0.522,0-0.972,0.167-1.347,0.503c-0.272,0.244-0.479,0.61-0.62,1.099L40.264-9.396L40.264-9.396z"/>
	<path display="inline" fill="#9E9E9E" d="M44.962-10.935l-0.438,0.454c-0.364-0.355-0.724-0.532-1.071-0.532
		c-0.224,0-0.412,0.073-0.57,0.22c-0.157,0.147-0.235,0.317-0.235,0.513c0,0.172,0.063,0.337,0.193,0.493
		c0.133,0.16,0.405,0.347,0.822,0.562c0.509,0.264,0.854,0.518,1.037,0.762c0.18,0.248,0.27,0.526,0.27,0.835
		c0,0.436-0.152,0.806-0.46,1.108c-0.307,0.302-0.688,0.454-1.147,0.454c-0.307,0-0.6-0.067-0.877-0.2
		c-0.279-0.133-0.51-0.317-0.692-0.552l0.431-0.488c0.348,0.394,0.719,0.591,1.11,0.591c0.272,0,0.507-0.088,0.698-0.264
		c0.193-0.176,0.289-0.382,0.289-0.62c0-0.195-0.062-0.37-0.189-0.522c-0.128-0.15-0.415-0.338-0.861-0.566
		c-0.479-0.248-0.806-0.492-0.979-0.732c-0.173-0.24-0.26-0.516-0.26-0.825c0-0.404,0.138-0.739,0.412-1.006s0.625-0.4,1.045-0.4
		C43.975-11.652,44.467-11.413,44.962-10.935z"/>
	<polygon display="inline" fill="#9E9E9E" points="26.921,-12.575 26.635,-13.071 26.921,-13.566 27.494,-13.566 27.78,-13.071 
		27.494,-12.575 	"/>
</g>
<g id="Layer_3" display="none">
	<path display="inline" fill="#9E9E9E" d="M19.269-19.447h1.005l3.064,7.142l3.113-7.142h1.006l-4.021,9.244h-0.201L19.269-19.447z"
		/>
	<polygon display="inline" fill="#9E9E9E" points="17.818,-22.837 18.823,-22.837 19.725,-20.736 18.719,-20.736 	"/>
	<polygon display="inline" fill="#9E9E9E" points="18.439,-21.381 19.445,-21.381 20.347,-19.28 19.342,-19.28 	"/>
	<polygon display="inline" fill="#9E9E9E" points="18.031,-22.837 11.812,-22.837 11.812,-21.938 18.439,-21.938 	"/>
	<polygon display="inline" fill="#9E9E9E" points="27.061,-19.447 46.646,-19.447 46.646,-18.656 26.26,-18.656 	"/>
	<g display="inline" opacity="0.9">
		<path fill="#ED4798" d="M72.23-39.897h0.487l1.488,4.529l1.512-4.529h0.488l-1.952,5.862h-0.098L72.23-39.897z"/>
		<polygon fill="#ED4798" points="71.527,-42.047 72.016,-42.047 72.453,-40.715 71.965,-40.715 		"/>
		<polygon fill="#ED4798" points="71.829,-41.125 72.316,-41.125 72.755,-39.792 72.268,-39.792 		"/>
		<polygon fill="#ED4798" points="71.553,-42.047 67.336,-42.047 67.336,-41.477 71.829,-41.477 		"/>
		<polygon fill="#ED4798" points="75.831,-39.897 80.812,-39.897 80.812,-39.396 75.627,-39.396 		"/>
	</g>
	<rect x="28.115" y="-15.516" display="inline" fill="#9E9E9E" width="0.684" height="5.312"/>
	<path display="inline" fill="#9E9E9E" d="M30.264-10.203v-7.363h0.684v2.964c0.287-0.352,0.607-0.614,0.961-0.789
		c0.355-0.174,0.743-0.261,1.166-0.261c0.752,0,1.393,0.272,1.924,0.818c0.533,0.545,0.799,1.207,0.799,1.985
		c0,0.768-0.271,1.424-0.805,1.968c-0.537,0.543-1.185,0.815-1.938,0.815c-0.432,0-0.824-0.093-1.176-0.278
		c-0.352-0.185-0.662-0.464-0.932-0.835v0.977L30.264-10.203L30.264-10.203z M32.998-10.726c0.381,0,0.73-0.094,1.053-0.281
		c0.323-0.187,0.578-0.45,0.768-0.789c0.19-0.339,0.285-0.697,0.285-1.074s-0.096-0.737-0.287-1.079
		c-0.191-0.342-0.447-0.608-0.771-0.798c-0.32-0.19-0.668-0.286-1.035-0.286c-0.371,0-0.729,0.095-1.064,0.286
		c-0.335,0.191-0.596,0.447-0.776,0.769c-0.182,0.322-0.271,0.685-0.271,1.089c0,0.615,0.203,1.129,0.607,1.543
		C31.91-10.932,32.408-10.726,32.998-10.726z"/>
	<path display="inline" fill="#9E9E9E" d="M41.514-11.966l0.576,0.303c-0.189,0.371-0.406,0.67-0.654,0.898s-0.524,0.401-0.836,0.52
		c-0.31,0.119-0.66,0.178-1.051,0.178c-0.867,0-1.545-0.284-2.033-0.852s-0.731-1.21-0.731-1.926c0-0.674,0.207-1.274,0.62-1.802
		c0.523-0.67,1.228-1.006,2.105-1.006c0.905,0,1.629,0.343,2.17,1.03c0.385,0.485,0.579,1.09,0.586,1.816h-4.779
		c0.014,0.617,0.209,1.123,0.593,1.518c0.381,0.395,0.853,0.592,1.413,0.592c0.271,0,0.531-0.047,0.787-0.141
		c0.258-0.094,0.476-0.219,0.652-0.375C41.111-11.368,41.305-11.619,41.514-11.966z M41.514-13.396
		c-0.091-0.365-0.224-0.656-0.396-0.874c-0.176-0.218-0.405-0.394-0.691-0.527c-0.285-0.133-0.589-0.2-0.902-0.2
		c-0.522,0-0.972,0.167-1.347,0.503c-0.272,0.244-0.479,0.61-0.62,1.099L41.514-13.396L41.514-13.396z"/>
	<path display="inline" fill="#9E9E9E" d="M46.212-14.935l-0.438,0.454c-0.364-0.355-0.724-0.532-1.071-0.532
		c-0.224,0-0.412,0.073-0.57,0.22c-0.157,0.147-0.235,0.317-0.235,0.513c0,0.172,0.063,0.337,0.193,0.493
		c0.133,0.16,0.405,0.347,0.822,0.562c0.509,0.264,0.854,0.518,1.037,0.762c0.18,0.248,0.27,0.526,0.27,0.835
		c0,0.436-0.152,0.806-0.46,1.108c-0.307,0.302-0.688,0.454-1.147,0.454c-0.307,0-0.6-0.067-0.877-0.2
		c-0.279-0.133-0.51-0.317-0.692-0.552l0.431-0.488c0.348,0.394,0.719,0.591,1.11,0.591c0.272,0,0.507-0.088,0.698-0.264
		c0.193-0.176,0.289-0.382,0.289-0.62c0-0.195-0.062-0.37-0.189-0.522c-0.128-0.15-0.415-0.338-0.861-0.566
		c-0.479-0.248-0.806-0.492-0.979-0.732c-0.173-0.24-0.26-0.516-0.26-0.825c0-0.404,0.138-0.739,0.412-1.006s0.625-0.4,1.045-0.4
		C45.225-15.652,45.717-15.413,46.212-14.935z"/>
	<polygon display="inline" fill="#9E9E9E" points="28.172,-16.575 27.885,-17.071 28.172,-17.566 28.744,-17.566 29.029,-17.071 
		28.744,-16.575 	"/>
</g>
<g id="Layer_4" display="none">
	<polygon display="inline" fill="#FFFFFF" points="17.143,3.625 1.427,-23.595 17.143,-50.815 48.573,-50.815 64.288,-23.595 
		48.573,3.625 	"/>
	<g display="inline">
		<path fill="#FFFFFF" d="M31.89,2.537"/>
		<g>
			<g>
				<polygon opacity="0.9" fill="#FFFFFF" enable-background="new    " points="11.516,-39.6 2.35,-23.692 11.516,-7.649 
					32.816,-23.857 				"/>
				<polyline opacity="0.9" fill="#FFFFFF" enable-background="new    " points="54.174,-8.085 32.816,-23.857 54.594,-38.913 
					63.377,-23.857 				"/>
				<polyline opacity="0.8" fill="#FFFFFF" enable-background="new    " points="2.35,-23.692 17.583,-50.25 32.816,-23.857 				"/>
				<polyline opacity="0.9" fill="#FFFFFF" enable-background="new    " points="63.377,-23.692 48.145,-50.25 32.911,-23.857 				
					"/>
				<polyline opacity="0.9" fill="#FFFFFF" enable-background="new    " points="48.145,-50.25 32.816,-23.857 17.583,-50.25 				
					"/>
				<polyline opacity="0.1" fill="#FFFFFF" enable-background="new    " points="48.145,-50.25 32.911,-23.857 31.89,-50.25 				"/>
				<polyline opacity="0.9" fill="#FFFFFF" enable-background="new    " points="8.278,-13.304 32.812,-23.76 32.812,3 
					17.579,2.537 				"/>
				<polyline opacity="0.9" fill="#FFFFFF" enable-background="new    " points="57.184,-13.294 32.812,-23.76 32.812,3 
					48.047,2.537 				"/>
				<polygon opacity="0.05" fill="#FFFFFF" enable-background="new    " points="35.596,-23.857 32.816,-27.735 30.038,-23.857 
					32.816,-19.785 				"/>
			</g>
			<polygon opacity="0.05" fill="#FFFFFF" enable-background="new    " points="32.812,-23.76 17.579,2.537 32.812,3 			"/>
			<polyline opacity="0.05" fill="#FFFFFF" enable-background="new    " points="32.816,-23.583 48.047,2.625 32.812,3 
				32.812,-23.5 			"/>
		</g>
		<polygon fill="#FFFFFF" points="26.093,-12.5 19.483,-24.5 26.093,-36.5 39.309,-36.5 45.917,-24.5 39.309,-12.5 		"/>
		<g opacity="0.9">
			<path fill="#FFFFFF" d="M30.997-25.764h0.659l2.007,6.66l2.044-6.66h0.658l-2.635,8.623h-0.133L30.997-25.764z"/>
			<polygon fill="#FFFFFF" points="30.044,-28.925 30.705,-28.925 31.297,-26.966 30.637,-26.966 			"/>
			<polygon fill="#FFFFFF" points="30.453,-27.57 31.113,-27.57 31.703,-25.609 31.044,-25.609 			"/>
			<polygon fill="#FFFFFF" points="30.08,-28.925 24.385,-28.925 24.385,-28.086 30.453,-28.086 			"/>
			<polygon fill="#FFFFFF" points="35.857,-25.764 42.584,-25.764 42.584,-25.027 35.582,-25.027 			"/>
		</g>
	</g>
	<g display="inline">
		<path fill="#426EB5" d="M31.89,2.537"/>
		<g>
			<g>
				<polygon opacity="0.9" fill="#426EB5" enable-background="new    " points="11.516,-39.6 2.35,-23.692 11.516,-7.649 
					32.816,-23.857 				"/>
				<polyline opacity="0.9" fill="#F7961D" enable-background="new    " points="54.174,-8.085 32.816,-23.857 54.594,-38.913 
					63.377,-23.857 				"/>
				<polyline opacity="0.8" fill="#06B052" enable-background="new    " points="2.35,-23.692 17.583,-50.25 32.816,-23.857 				"/>
				<polyline opacity="0.9" fill="#F8ED40" enable-background="new    " points="63.377,-23.692 48.145,-50.25 32.911,-23.857 				
					"/>
				<polyline opacity="0.9" fill="#754D9E" enable-background="new    " points="48.145,-50.25 32.816,-23.857 17.583,-50.25 				
					"/>
				<polyline opacity="0.1" enable-background="new    " points="48.145,-50.25 32.911,-23.857 31.89,-50.25 				"/>
				<polyline opacity="0.9" fill="#ED4798" enable-background="new    " points="8.278,-13.304 32.812,-23.76 32.812,3 
					17.579,2.537 				"/>
				<polyline opacity="0.9" fill="#ED2A25" enable-background="new    " points="57.184,-13.294 32.812,-23.76 32.812,3 
					48.047,2.537 				"/>
				<polygon opacity="0.05" enable-background="new    " points="35.596,-23.857 32.816,-27.735 30.038,-23.857 32.816,-19.785 				
					"/>
			</g>
			<polygon opacity="0.05" fill="#FFFFFF" enable-background="new    " points="32.812,-23.76 17.579,2.537 32.812,3 			"/>
			<polyline opacity="0.05" enable-background="new    " points="32.816,-23.583 48.047,2.625 32.812,3 32.812,-23.5 			"/>
		</g>
		<polygon fill="#FFFFFF" points="26.093,-12.5 19.483,-24.5 26.093,-36.5 39.309,-36.5 45.917,-24.5 39.309,-12.5 		"/>
		<g opacity="0.9">
			<path fill="#9E9E9E" d="M30.997-25.764h0.659l2.007,6.66l2.044-6.66h0.658l-2.635,8.623h-0.133L30.997-25.764z"/>
			<polygon fill="#9E9E9E" points="30.044,-28.925 30.705,-28.925 31.297,-26.966 30.637,-26.966 			"/>
			<polygon fill="#9E9E9E" points="30.453,-27.57 31.113,-27.57 31.703,-25.609 31.044,-25.609 			"/>
			<polygon fill="#9E9E9E" points="30.08,-28.925 24.385,-28.925 24.385,-28.086 30.453,-28.086 			"/>
			<polygon fill="#9E9E9E" points="35.857,-25.764 42.584,-25.764 42.584,-25.027 35.582,-25.027 			"/>
		</g>
	</g>
</g>
<g>
	<polygon opacity="0.8" fill="#F8ED40" enable-background="new    " points="52.171,14.654 27.998,48.334 -10.436,48.334 	"/>
	<polygon opacity="0.5" fill="#ED2A25" enable-background="new    " points="27.998,48.334 52.171,14.654 27.998,14.654 	"/>
	<polygon opacity="0.6" fill="#426EB5" enable-background="new    " points="52.171,14.654 63.711,14.654 45.525,23.91 	"/>
	<polygon opacity="0.6" fill="#ED4798" enable-background="new    " points="27.998,48.334 45.525,23.91 27.998,14.654 6.041,5.084 
			"/>
	<polygon opacity="0.5" fill="#06B052" enable-background="new    " points="27.998,48.334 27.998,23.91 -4.661,23.91 	"/>
	<polygon opacity="0.2" fill="#06B052" enable-background="new    " points="27.998,48.334 19.712,32.035 15.599,23.91 
		27.998,23.91 	"/>
	<polygon opacity="0.7" fill="#754D9E" enable-background="new    " points="-4.661,23.91 5.479,31.495 27.998,23.91 	"/>
</g>
</svg>
