<?xml version="1.0" encoding="utf-8"?>
<!-- Generator: Adobe Illustrator 16.0.4, SVG Export Plug-In . SVG Version: 6.00 Build 0)  -->
<!DOCTYPE svg PUBLIC "-//W3C//DTD SVG 1.1//EN" "http://www.w3.org/Graphics/SVG/1.1/DTD/svg11.dtd">
<svg version="1.1" xmlns="http://www.w3.org/2000/svg" xmlns:xlink="http://www.w3.org/1999/xlink" x="0px" y="0px" width="320px"
	 height="264.25px" viewBox="0 -120.75 320 264.25" enable-background="new 0 -120.75 320 264.25" xml:space="preserve">
<g id="Layer_1" display="none">
	<g id="Layer_1_1_">
		<g display="inline">
			<polyline fill="#7ACDCA" points="-12.291,132.046 47.832,101.809 19.971,155.605 			"/>
			<polyline opacity="0.8" fill="#FCEE21" enable-background="new    " points="260.873,86.947 192.796,116.932 226.596,59.114 			
				"/>
			<polyline opacity="0.8" fill="#FCEE21" enable-background="new    " points="110.745,75.393 52.587,101.008 81.46,51.616 			"/>
			<polyline opacity="0.3" fill="#FCEE21" enable-background="new    " points="193.971,61.169 152.674,79.357 173.176,44.287 			
				"/>
			<polyline opacity="0.8" fill="#EB3A93" enable-background="new    " points="34.796,72.205 50.51,150.357 -2.224,101.676 			"/>
			<polyline opacity="0.4" fill="#EB3A93" enable-background="new    " points="44.105,16.18 53.962,65.205 20.882,34.667 			"/>
			<polyline opacity="0.7" fill="#F6851F" enable-background="new    " points="302.966,161.102 248.332,142.756 297.854,127.275 
							"/>
			<polyline opacity="0.3" fill="#65BB47" enable-background="new    " points="298.486,88.023 256.086,48.99 307.615,55.054 			"/>
			<polyline opacity="0.7" fill="#F6851F" enable-background="new    " points="105.815,132.54 36.553,162.952 70.988,104.199 			
				"/>
			<polyline opacity="0.7" fill="#65BB47" enable-background="new    " points="115.374,98.027 206.646,112.195 132.623,150.073 			
				"/>
			<polyline opacity="0.8" fill="#DD5E83" enable-background="new    " points="206.814,154.688 161.771,85.098 231.361,112.04 			
				"/>
			<polyline opacity="0.5" fill="#90298D" enable-background="new    " points="350.318,124.346 281.852,154.501 315.842,96.354 			
				"/>
			<polyline opacity="0.8" fill="#D62140" enable-background="new    " points="301.467,111.032 218.986,147.359 259.936,77.312 			
				"/>
			<polyline opacity="0.2" fill="#D62140" enable-background="new    " points="141.197,26.937 138.556,61.106 122.435,34.799 			
				"/>
			<polyline opacity="0.5" fill="#90298D" enable-background="new    " points="160.376,95.574 86.091,128.291 122.97,65.205 			"/>
			<polyline opacity="0.2" fill="#90298D" enable-background="new    " points="248.876,19.478 209.566,36.792 229.082,3.407 			"/>
		</g>
	</g>
	<g display="inline">
		<polygon opacity="0.9" fill="#EB3A93" enable-background="new    " points="221.672,143.361 209.738,122.689 221.672,102.02 
			245.54,102.02 257.477,122.689 245.54,143.361 		"/>
		<polygon opacity="0.02" enable-background="new    " points="233.607,122.689 221.672,143.361 209.738,122.689 221.672,102.02 		
			"/>
		<polygon opacity="0.05" enable-background="new    " points="233.607,122.689 245.54,143.361 221.672,143.361 		"/>
		<polygon opacity="0.02" fill="#FFFFFF" enable-background="new    " points="233.607,122.689 245.54,102.02 257.477,122.689 
			245.54,143.361 		"/>
	</g>
	<g display="inline">
		<polygon opacity="0.9" fill="#7ACDCA" enable-background="new    " points="184.42,121.997 172.326,101.049 184.42,80.102 
			208.607,80.102 220.701,101.049 208.607,121.997 		"/>
		<polygon opacity="0.02" enable-background="new    " points="196.514,101.049 184.42,121.997 172.326,101.049 184.42,80.102 		"/>
		<polygon opacity="0.05" enable-background="new    " points="196.514,101.049 208.607,121.997 184.42,121.997 		"/>
		<polygon opacity="0.02" fill="#FFFFFF" enable-background="new    " points="196.514,101.049 208.607,80.102 220.701,101.049 
			208.607,121.997 		"/>
	</g>
	<g display="inline">
		<polygon opacity="0.9" fill="#FCEE21" enable-background="new    " points="147.284,143.342 135.427,122.805 147.284,102.268 
			170.997,102.268 182.854,122.805 170.997,143.342 		"/>
		<polygon opacity="0.02" enable-background="new    " points="159.14,122.805 147.284,143.342 135.427,122.805 147.284,102.268 		
			"/>
		<polygon opacity="0.05" enable-background="new    " points="159.14,122.805 170.997,143.342 147.284,143.342 		"/>
		<polygon opacity="0.02" fill="#FFFFFF" enable-background="new    " points="159.14,122.805 170.997,102.268 182.854,122.805 
			170.997,143.342 		"/>
	</g>
	<g display="inline">
		<polygon opacity="0.9" fill="#FCEE21" enable-background="new    " points="27.434,52.646 21.573,42.493 27.434,32.342 
			39.155,32.342 45.016,42.493 39.155,52.646 		"/>
		<polygon opacity="0.02" enable-background="new    " points="33.294,42.493 27.434,52.646 21.573,42.493 27.434,32.342 		"/>
		<polygon opacity="0.05" enable-background="new    " points="33.294,42.493 39.155,52.646 27.434,52.646 		"/>
		<polygon opacity="0.02" fill="#FFFFFF" enable-background="new    " points="33.294,42.493 39.155,32.342 45.016,42.493 
			39.155,52.646 		"/>
	</g>
	<g display="inline">
		<polygon opacity="0.9" fill="#FCEE21" enable-background="new    " points="168.494,24.504 162.634,14.352 168.494,4.201 
			180.216,4.201 186.076,14.352 180.216,24.504 		"/>
		<polygon opacity="0.02" enable-background="new    " points="174.355,14.352 168.494,24.504 162.634,14.352 168.494,4.201 		"/>
		<polygon opacity="0.05" enable-background="new    " points="174.355,14.352 180.216,24.504 168.494,24.504 		"/>
		<polygon opacity="0.02" fill="#FFFFFF" enable-background="new    " points="174.355,14.352 180.216,4.201 186.076,14.352 
			180.216,24.504 		"/>
	</g>
	<g display="inline">
		<polygon opacity="0.9" fill="#65BB47" enable-background="new    " points="111.666,163.283 100.153,143.344 111.666,123.4 
			134.69,123.4 146.203,143.344 134.69,163.283 		"/>
		<polygon opacity="0.02" enable-background="new    " points="123.178,143.344 111.666,163.283 100.153,143.344 111.666,123.4 		
			"/>
		<polygon opacity="0.05" enable-background="new    " points="123.178,143.344 134.69,163.283 111.666,163.283 		"/>
		<polygon opacity="0.02" fill="#FFFFFF" enable-background="new    " points="123.178,143.344 134.69,123.4 146.203,143.344 
			134.69,163.283 		"/>
	</g>
	<g display="inline">
		<polygon opacity="0.9" fill="#65BB47" enable-background="new    " points="77.024,77.509 70.45,66.123 77.024,54.735 
			90.171,54.735 96.745,66.123 90.171,77.509 		"/>
		<polygon opacity="0.02" enable-background="new    " points="83.598,66.123 77.024,77.509 70.45,66.123 77.024,54.735 		"/>
		<polygon opacity="0.05" enable-background="new    " points="83.598,66.123 90.171,77.509 77.024,77.509 		"/>
		<polygon opacity="0.02" fill="#FFFFFF" enable-background="new    " points="83.598,66.123 90.171,54.735 96.745,66.123 
			90.171,77.509 		"/>
	</g>
	<g display="inline">
		<polygon opacity="0.9" fill="#65BB47" enable-background="new    " points="306.284,42.158 302.997,36.465 306.284,30.771 
			312.857,30.771 316.146,36.465 312.857,42.158 		"/>
		<polygon opacity="0.02" enable-background="new    " points="309.57,36.465 306.284,42.158 302.997,36.465 306.284,30.771 		"/>
		<polygon opacity="0.05" enable-background="new    " points="309.57,36.465 312.857,42.158 306.284,42.158 		"/>
		<polygon opacity="0.02" fill="#FFFFFF" enable-background="new    " points="309.57,36.465 312.857,30.771 316.146,36.465 
			312.857,42.158 		"/>
	</g>
	<g display="inline">
		<polygon opacity="0.9" fill="#90298D" enable-background="new    " points="258.042,164.173 246.107,143.503 258.042,122.831 
			281.908,122.831 293.844,143.503 281.908,164.173 		"/>
		<polygon opacity="0.02" enable-background="new    " points="269.977,143.503 258.042,164.173 246.107,143.503 258.042,122.831 		
			"/>
		<polygon opacity="0.05" enable-background="new    " points="269.977,143.503 281.908,164.173 258.042,164.173 		"/>
		<polygon opacity="0.02" fill="#FFFFFF" enable-background="new    " points="269.977,143.503 281.908,122.831 293.844,143.503 
			281.908,164.173 		"/>
	</g>
	<g display="inline">
		<polygon opacity="0.9" fill="#90298D" enable-background="new    " points="111.29,122.426 99.652,102.27 111.29,82.109 
			134.563,82.109 146.203,102.27 134.563,122.426 		"/>
		<polygon opacity="0.02" enable-background="new    " points="122.927,102.27 111.29,122.426 99.652,102.27 111.29,82.109 		"/>
		<polygon opacity="0.05" enable-background="new    " points="122.927,102.27 134.563,122.426 111.29,122.426 		"/>
		<polygon opacity="0.02" fill="#FFFFFF" enable-background="new    " points="122.927,102.27 134.563,82.109 146.203,102.27 
			134.563,122.426 		"/>
	</g>
	<g display="inline">
		<polygon opacity="0.9" fill="#90298D" enable-background="new    " points="268.497,22.615 263.841,14.549 268.497,6.482 
			277.811,6.482 282.468,14.549 277.811,22.615 		"/>
		<polygon opacity="0.02" enable-background="new    " points="273.154,14.549 268.497,22.615 263.841,14.549 268.497,6.482 		"/>
		<polygon opacity="0.05" enable-background="new    " points="273.154,14.549 277.811,22.615 268.497,22.615 		"/>
		<polygon opacity="0.02" fill="#FFFFFF" enable-background="new    " points="273.154,14.549 277.811,6.482 282.468,14.549 
			277.811,22.615 		"/>
	</g>
	<g display="inline">
		<polygon opacity="0.9" fill="#D62327" enable-background="new    " points="258.042,121.721 246.107,101.05 258.042,80.378 
			281.909,80.378 293.844,101.05 281.909,121.721 		"/>
		<polygon opacity="0.02" enable-background="new    " points="269.977,101.05 258.042,121.721 246.107,101.05 258.042,80.378 		"/>
		<polygon opacity="0.05" enable-background="new    " points="269.977,101.05 281.909,121.721 258.042,121.721 		"/>
		<polygon opacity="0.02" fill="#FFFFFF" enable-background="new    " points="269.977,101.05 281.909,80.378 293.844,101.05 
			281.909,121.721 		"/>
	</g>
	<g display="inline">
		<polygon opacity="0.9" fill="#D62327" enable-background="new    " points="159.711,85.964 154.83,77.51 159.711,69.055 
			169.473,69.055 174.354,77.51 169.473,85.964 		"/>
		<polygon opacity="0.02" enable-background="new    " points="164.592,77.51 159.711,85.964 154.83,77.51 159.711,69.055 		"/>
		<polygon opacity="0.05" enable-background="new    " points="164.592,77.51 169.473,85.964 159.711,85.964 		"/>
		<polygon opacity="0.02" fill="#FFFFFF" enable-background="new    " points="164.592,77.51 169.473,69.055 174.354,77.51 
			169.473,85.964 		"/>
	</g>
	<g display="inline">
		<polygon opacity="0.9" fill="#D62327" enable-background="new    " points="309.572,10.816 307.132,6.589 309.572,2.361 
			314.453,2.361 316.895,6.589 314.453,10.816 		"/>
		<polygon opacity="0.02" enable-background="new    " points="312.014,6.589 309.572,10.816 307.132,6.589 309.572,2.361 		"/>
		<polygon opacity="0.05" enable-background="new    " points="312.014,6.589 314.453,10.816 309.572,10.816 		"/>
		<polygon opacity="0.02" fill="#FFFFFF" enable-background="new    " points="312.014,6.589 314.453,2.361 316.895,6.589 
			314.453,10.816 		"/>
	</g>
	<g display="inline">
		<polygon opacity="0.9" fill="#D62327" enable-background="new    " points="0.422,100.704 -11.762,79.602 0.422,58.497 
			24.789,58.497 36.974,79.602 24.789,100.704 		"/>
		<polygon opacity="0.02" enable-background="new    " points="12.605,79.602 0.422,100.704 -11.762,79.602 0.422,58.497 		"/>
		<polygon opacity="0.05" enable-background="new    " points="12.605,79.602 24.789,100.704 0.422,100.704 		"/>
		<polygon opacity="0.02" fill="#FFFFFF" enable-background="new    " points="12.605,79.602 24.789,58.497 36.974,79.602 
			24.789,100.704 		"/>
	</g>
	<g display="inline">
		<polygon opacity="0.8" fill="#DD5E83" enable-background="new    " points="295.198,143.5 283.266,122.83 295.198,102.158 
			319.064,102.158 331,122.83 319.064,143.5 		"/>
		<polygon opacity="0.02" enable-background="new    " points="307.132,122.83 295.198,143.5 283.266,122.83 295.198,102.158 		"/>
		<polygon opacity="0.05" enable-background="new    " points="307.132,122.83 319.064,143.5 295.198,143.5 		"/>
		<polygon opacity="0.02" fill="#FFFFFF" enable-background="new    " points="307.132,122.83 319.064,102.158 331,122.83 
			319.064,143.5 		"/>
	</g>
	<g display="inline">
		<polygon opacity="0.8" fill="#DD5E83" enable-background="new    " points="277.477,53.41 273.045,45.736 277.477,38.062 
			286.336,38.062 290.768,45.736 286.336,53.41 		"/>
		<polygon opacity="0.02" enable-background="new    " points="281.904,45.736 277.477,53.41 273.045,45.736 277.477,38.062 		"/>
		<polygon opacity="0.05" enable-background="new    " points="281.904,45.736 286.336,53.41 277.477,53.41 		"/>
		<polygon opacity="0.02" fill="#FFFFFF" enable-background="new    " points="281.904,45.736 286.336,38.062 290.768,45.736 
			286.336,53.41 		"/>
	</g>
	<g display="inline">
		<polygon opacity="0.8" fill="#DD5E83" enable-background="new    " points="102.994,18.386 98.563,10.712 102.994,3.038 
			111.854,3.038 116.285,10.712 111.854,18.386 		"/>
		<polygon opacity="0.02" enable-background="new    " points="107.424,10.712 102.994,18.386 98.563,10.712 102.994,3.038 		"/>
		<polygon opacity="0.05" enable-background="new    " points="107.424,10.712 111.854,18.386 102.994,18.386 		"/>
		<polygon opacity="0.02" fill="#FFFFFF" enable-background="new    " points="107.424,10.712 111.854,3.038 116.285,10.712 
			111.854,18.386 		"/>
	</g>
	<g display="inline">
		<polygon opacity="0.9" fill="#F6851F" enable-background="new    " points="184.5,164.309 172.486,143.5 184.5,122.689 
			208.527,122.689 220.541,143.5 208.527,164.309 		"/>
		<polygon opacity="0.02" enable-background="new    " points="196.514,143.5 184.5,164.309 172.486,143.5 184.5,122.689 		"/>
		<polygon opacity="0.05" enable-background="new    " points="196.514,143.5 208.527,164.309 184.5,164.309 		"/>
		<polygon opacity="0.02" fill="#FFFFFF" enable-background="new    " points="196.514,143.5 208.527,122.689 220.541,143.5 
			208.527,164.309 		"/>
	</g>
	<g display="inline">
		<polygon opacity="0.9" fill="#F6851F" enable-background="new    " points="240.756,81.021 235.402,71.751 240.756,62.479 
			251.461,62.479 256.812,71.751 251.461,81.021 		"/>
		<polygon opacity="0.02" enable-background="new    " points="246.107,71.751 240.756,81.021 235.402,71.751 240.756,62.479 		"/>
		<polygon opacity="0.05" enable-background="new    " points="246.107,71.751 251.461,81.021 240.756,81.021 		"/>
		<polygon opacity="0.02" fill="#FFFFFF" enable-background="new    " points="246.107,71.751 251.461,62.479 256.812,71.751 
			251.461,81.021 		"/>
	</g>
	<g display="inline">
		<polygon opacity="0.9" fill="#F6851F" enable-background="new    " points="121.638,55.007 116.285,45.736 121.638,36.465 
			132.343,36.465 137.694,45.736 132.343,55.007 		"/>
		<polygon opacity="0.02" enable-background="new    " points="126.99,45.736 121.638,55.007 116.285,45.736 121.638,36.465 		"/>
		<polygon opacity="0.05" enable-background="new    " points="126.99,45.736 132.343,55.007 121.638,55.007 		"/>
		<polygon opacity="0.02" fill="#FFFFFF" enable-background="new    " points="126.99,45.736 132.343,36.465 137.694,45.736 
			132.343,55.007 		"/>
	</g>
	<g display="inline">
		<polygon opacity="0.9" fill="#F6851F" enable-background="new    " points="0.148,143.934 -12.125,122.672 0.148,101.411 
			24.697,101.411 36.974,122.672 24.697,143.934 		"/>
		<polygon opacity="0.02" enable-background="new    " points="12.424,122.672 0.148,143.934 -12.125,122.672 0.148,101.411 		"/>
		<polygon opacity="0.05" enable-background="new    " points="12.424,122.672 24.697,143.934 0.148,143.934 		"/>
		<polygon opacity="0.02" fill="#FFFFFF" enable-background="new    " points="12.424,122.672 24.697,101.411 36.974,122.672 
			24.697,143.934 		"/>
	</g>
	<g display="inline">
		<polygon opacity="0.9" fill="#FCEE21" enable-background="new    " points="37.79,164.014 25.855,143.344 37.79,122.672 
			61.656,122.672 73.592,143.344 61.656,164.014 		"/>
		<polygon opacity="0.02" enable-background="new    " points="49.724,143.344 37.79,164.014 25.855,143.344 37.79,122.672 		"/>
		<polygon opacity="0.05" enable-background="new    " points="49.724,143.344 61.656,164.014 37.79,164.014 		"/>
		<polygon opacity="0.02" fill="#FFFFFF" enable-background="new    " points="49.724,143.344 61.656,122.672 73.592,143.344 
			61.656,164.014 		"/>
	</g>
	<g display="inline">
		<polygon opacity="0.9" fill="#FCEE21" enable-background="new    " points="295.197,100.271 283.264,79.602 295.197,58.93 
			319.064,58.93 331,79.602 319.064,100.271 		"/>
		<polygon opacity="0.02" enable-background="new    " points="307.131,79.602 295.197,100.271 283.264,79.602 295.197,58.93 		"/>
		<polygon opacity="0.05" enable-background="new    " points="307.131,79.602 319.064,100.271 295.197,100.271 		"/>
		<polygon opacity="0.02" fill="#FFFFFF" enable-background="new    " points="307.131,79.602 319.064,58.93 331,79.602 
			319.064,100.271 		"/>
	</g>
	<g display="inline">
		<polygon opacity="0.9" fill="#EB3A93" enable-background="new    " points="37.789,121.918 25.855,101.248 37.789,80.576 
			61.656,80.576 73.591,101.248 61.656,121.918 		"/>
		<polygon opacity="0.02" enable-background="new    " points="49.723,101.248 37.789,121.918 25.855,101.248 37.789,80.576 		"/>
		<polygon opacity="0.05" enable-background="new    " points="49.723,101.248 61.656,121.918 37.789,121.918 		"/>
		<polygon opacity="0.02" fill="#FFFFFF" enable-background="new    " points="49.723,101.248 61.656,80.576 73.591,101.248 
			61.656,121.918 		"/>
	</g>
	<g display="inline">
		<polygon opacity="0.9" fill="#EB3A93" enable-background="new    " points="9.202,24.587 4.007,15.588 9.202,6.588 19.593,6.588 
			24.789,15.588 19.593,24.587 		"/>
		<polygon opacity="0.02" enable-background="new    " points="14.398,15.588 9.202,24.587 4.007,15.588 9.202,6.588 		"/>
		<polygon opacity="0.05" enable-background="new    " points="14.398,15.588 19.593,24.587 9.202,24.587 		"/>
		<polygon opacity="0.02" fill="#FFFFFF" enable-background="new    " points="14.398,15.588 19.593,6.588 24.789,15.588 
			19.593,24.587 		"/>
	</g>
	<g display="inline">
		<polygon opacity="0.9" fill="#EB3A93" enable-background="new    " points="204.543,63.734 199.348,54.736 204.543,45.736 
			214.936,45.736 220.131,54.736 214.936,63.734 		"/>
		<polygon opacity="0.02" enable-background="new    " points="209.738,54.736 204.543,63.734 199.348,54.736 204.543,45.736 		"/>
		<polygon opacity="0.05" enable-background="new    " points="209.738,54.736 214.936,63.734 204.543,63.734 		"/>
		<polygon opacity="0.02" fill="#FFFFFF" enable-background="new    " points="209.738,54.736 214.936,45.736 220.131,54.736 
			214.936,63.734 		"/>
	</g>
	<g display="inline">
		<polygon opacity="0.9" fill="#7ACDCA" enable-background="new    " points="74.696,143.361 62.763,122.691 74.696,102.02 
			98.563,102.02 110.498,122.691 98.563,143.361 		"/>
		<polygon opacity="0.02" enable-background="new    " points="86.63,122.691 74.696,143.361 62.763,122.691 74.696,102.02 		"/>
		<polygon opacity="0.05" enable-background="new    " points="86.63,122.691 98.563,143.361 74.696,143.361 		"/>
		<polygon opacity="0.02" fill="#FFFFFF" enable-background="new    " points="86.63,122.691 98.563,102.02 110.498,122.691 
			98.563,143.361 		"/>
	</g>
	<g display="inline">
		<polygon opacity="0.9" fill="#7ACDCA" enable-background="new    " points="62.763,32.342 58.046,24.173 62.763,16.003 
			72.195,16.003 76.912,24.173 72.195,32.342 		"/>
		<polygon opacity="0.02" enable-background="new    " points="67.479,24.173 62.763,32.342 58.046,24.173 62.763,16.003 		"/>
		<polygon opacity="0.05" enable-background="new    " points="67.479,24.173 72.195,32.342 62.763,32.342 		"/>
		<polygon opacity="0.02" fill="#FFFFFF" enable-background="new    " points="67.479,24.173 72.195,16.003 76.912,24.173 
			72.195,32.342 		"/>
	</g>
	<g display="inline">
		<polygon opacity="0.9" fill="#7ACDCA" enable-background="new    " points="221.771,25.555 218.232,19.428 221.771,13.3 
			228.846,13.3 232.383,19.428 228.846,25.555 		"/>
		<polygon opacity="0.02" enable-background="new    " points="225.309,19.428 221.771,25.555 218.232,19.428 221.771,13.3 		"/>
		<polygon opacity="0.05" enable-background="new    " points="225.309,19.428 228.846,25.555 221.771,25.555 		"/>
		<polygon opacity="0.02" fill="#FFFFFF" enable-background="new    " points="225.309,19.428 228.846,13.3 232.383,19.428 
			228.846,25.555 		"/>
	</g>
</g>
<g id="Layer_2">
	
		<linearGradient id="SVGID_1_" gradientUnits="userSpaceOnUse" x1="31.9404" y1="71.7451" x2="311.3438" y2="71.7451" gradientTransform="matrix(0 -1 1 0 88.0938 230.5938)">
		<stop  offset="0" style="stop-color:#29B473"/>
		<stop  offset="0.0265" style="stop-color:#29B477"/>
		<stop  offset="0.0548" style="stop-color:#29B284"/>
		<stop  offset="0.0841" style="stop-color:#28B09A"/>
		<stop  offset="0.1139" style="stop-color:#27ADB8"/>
		<stop  offset="0.144" style="stop-color:#26A9DE"/>
		<stop  offset="0.1456" style="stop-color:#26A9E0"/>
		<stop  offset="0.2097" style="stop-color:#296EB6"/>
		<stop  offset="0.2596" style="stop-color:#2A479A"/>
		<stop  offset="0.2856" style="stop-color:#2B388F"/>
		<stop  offset="0.3148" style="stop-color:#35368F"/>
		<stop  offset="0.3638" style="stop-color:#4E328F"/>
		<stop  offset="0.4259" style="stop-color:#782B8E"/>
		<stop  offset="0.4578" style="stop-color:#90278E"/>
		<stop  offset="0.4846" style="stop-color:#94278D"/>
		<stop  offset="0.5124" style="stop-color:#A1278B"/>
		<stop  offset="0.5407" style="stop-color:#B52886"/>
		<stop  offset="0.5692" style="stop-color:#D22880"/>
		<stop  offset="0.5897" style="stop-color:#EC297B"/>
		<stop  offset="0.6171" style="stop-color:#EC2C76"/>
		<stop  offset="0.6492" style="stop-color:#ED3668"/>
		<stop  offset="0.6837" style="stop-color:#EE4650"/>
		<stop  offset="0.7195" style="stop-color:#F05C30"/>
		<stop  offset="0.7325" style="stop-color:#F16522"/>
		<stop  offset="0.8017" style="stop-color:#F6B22B"/>
		<stop  offset="0.8567" style="stop-color:#F9EC31"/>
		<stop  offset="0.8821" style="stop-color:#FBF165"/>
		<stop  offset="0.9118" style="stop-color:#FCF69C"/>
		<stop  offset="0.9395" style="stop-color:#FDFAC7"/>
		<stop  offset="0.9643" style="stop-color:#FEFDE5"/>
		<stop  offset="0.9853" style="stop-color:#FFFEF8"/>
		<stop  offset="1" style="stop-color:#FFFFFF"/>
	</linearGradient>
	<rect x="-1.987" y="-80.75" opacity="0.7" fill="url(#SVGID_1_)" width="323.652" height="279.403"/>
	<g opacity="0.8">
		<rect x="-1.987" y="-31.176" opacity="0.04" fill="#FFFFFF" width="27.97" height="265.084"/>
		<rect x="292.849" y="-31.176" opacity="0.04" fill="#FFFFFF" width="27.969" height="265.084"/>
		<rect x="25.983" y="2.133" opacity="0.04" fill="#FFFFFF" width="19.985" height="231.775"/>
		<rect x="45.968" y="55.861" opacity="0.04" fill="#FFFFFF" width="29.972" height="178.047"/>
		<rect x="75.63" y="26.607" opacity="0.04" fill="#FFFFFF" width="29.973" height="207.301"/>
		<rect x="105.603" y="-11.726" opacity="0.04" fill="#FFFFFF" width="29.973" height="245.634"/>
		<rect x="135.756" y="14.502" opacity="0.04" fill="#FFFFFF" width="29.972" height="219.406"/>
		<rect x="165.729" y="2.133" opacity="0.04" fill="#FFFFFF" width="29.974" height="231.775"/>
		<rect x="195.702" y="26.607" opacity="0.04" fill="#FFFFFF" width="29.973" height="207.301"/>
		<rect x="225.546" y="55.861" opacity="0.04" fill="#FFFFFF" width="29.972" height="178.047"/>
		<rect x="255.518" y="26.607" opacity="0.04" fill="#FFFFFF" width="37.331" height="207.301"/>
		<rect x="-1.987" y="14.502" opacity="0.06" fill="#FFFFFF" width="27.97" height="219.406"/>
		<rect x="25.983" y="37.704" opacity="0.06" fill="#FFFFFF" width="19.985" height="196.204"/>
		<rect x="45.968" y="74.02" opacity="0.06" fill="#FFFFFF" width="29.662" height="159.889"/>
		<rect x="75.94" y="42.031" opacity="0.06" fill="#FFFFFF" width="29.818" height="191.877"/>
		<rect x="105.758" y="2.133" opacity="0.06" fill="#FFFFFF" width="29.998" height="231.775"/>
		<rect x="135.576" y="26.607" opacity="0.06" fill="#FFFFFF" width="29.998" height="207.301"/>
		<rect x="165.574" y="47.328" opacity="0.06" fill="#FFFFFF" width="30.128" height="186.58"/>
		<rect x="195.857" y="63.971" opacity="0.06" fill="#FFFFFF" width="29.662" height="169.938"/>
		<rect x="225.701" y="82.884" opacity="0.06" fill="#FFFFFF" width="29.661" height="151.024"/>
		<rect x="255.362" y="55.861" opacity="0.06" fill="#FFFFFF" width="36.641" height="178.047"/>
		<rect x="292.003" y="-2.604" opacity="0.06" fill="#FFFFFF" width="29.662" height="236.513"/>
		<rect x="-1.987" y="47.328" opacity="0.08" fill="#FFFFFF" width="27.97" height="189.89"/>
		<rect x="26.151" y="63.971" opacity="0.08" fill="#FFFFFF" width="19.779" height="173.247"/>
		<rect x="45.949" y="101.367" opacity="0.08" fill="#FFFFFF" width="29.701" height="135.851"/>
		<rect x="75.766" y="63.971" opacity="0.08" fill="#FFFFFF" width="29.701" height="173.247"/>
		<rect x="105.739" y="31.903" opacity="0.08" fill="#FFFFFF" width="29.701" height="205.314"/>
		<rect x="135.725" y="58.131" opacity="0.08" fill="#FFFFFF" width="29.7" height="179.087"/>
		<rect x="165.788" y="79.819" opacity="0.08" fill="#FFFFFF" width="29.7" height="157.398"/>
		<rect x="195.839" y="89.655" opacity="0.08" fill="#FFFFFF" width="29.7" height="147.562"/>
		<rect x="225.682" y="101.367" opacity="0.08" fill="#FFFFFF" width="29.7" height="135.851"/>
		<rect x="255.584" y="70.347" opacity="0.08" fill="#FFFFFF" width="36.419" height="167.234"/>
		<rect x="292.094" y="37.704" opacity="0.08" fill="#FFFFFF" width="29.479" height="199.877"/>
		<rect x="-1.987" y="88.478" opacity="0.06" fill="#FFFFFF" width="27.97" height="145.352"/>
		<rect x="25.983" y="108.653" opacity="0.06" fill="#FFFFFF" width="19.985" height="125.216"/>
		<rect x="45.968" y="137.969" opacity="0.06" fill="#FFFFFF" width="29.721" height="95.9"/>
		<rect x="75.756" y="118.021" opacity="0.06" fill="#FFFFFF" width="29.721" height="115.849"/>
		<rect x="105.467" y="93.857" opacity="0.06" fill="#FFFFFF" width="29.973" height="140.012"/>
		<rect x="135.44" y="101.367" opacity="0.06" fill="#FFFFFF" width="29.985" height="132.502"/>
		<rect x="165.425" y="101.367" opacity="0.06" fill="#FFFFFF" width="30.151" height="132.502"/>
		<rect x="195.612" y="132.275" opacity="0.06" fill="#FFFFFF" width="30.152" height="101.594"/>
		<rect x="225.765" y="144.885" opacity="0.06" fill="#FFFFFF" width="30.151" height="88.984"/>
		<rect x="255.518" y="106.804" opacity="0.06" fill="#FFFFFF" width="36.485" height="127.025"/>
		<rect x="292.094" y="79.819" opacity="0.06" fill="#FFFFFF" width="28.724" height="154.01"/>
		<rect x="-1.987" y="-31.176" opacity="0.04" fill="#FFFFFF" width="27.97" height="265.084"/>
		<rect x="292.849" y="-31.176" opacity="0.04" fill="#FFFFFF" width="27.969" height="265.084"/>
		<rect x="25.983" y="2.133" opacity="0.04" fill="#FFFFFF" width="19.985" height="231.775"/>
		<rect x="45.968" y="55.861" opacity="0.04" fill="#FFFFFF" width="29.972" height="178.047"/>
		<rect x="75.63" y="26.607" opacity="0.04" fill="#FFFFFF" width="29.973" height="207.301"/>
		<rect x="105.603" y="-11.726" opacity="0.04" fill="#FFFFFF" width="29.973" height="245.634"/>
		<rect x="135.756" y="14.502" opacity="0.04" fill="#FFFFFF" width="29.972" height="219.406"/>
		<rect x="165.729" y="2.133" opacity="0.04" fill="#FFFFFF" width="29.974" height="231.775"/>
		<rect x="195.702" y="26.607" opacity="0.04" fill="#FFFFFF" width="29.973" height="207.301"/>
		<rect x="225.546" y="55.861" opacity="0.04" fill="#FFFFFF" width="29.972" height="178.047"/>
		<rect x="255.518" y="26.607" opacity="0.04" fill="#FFFFFF" width="37.331" height="207.301"/>
		<rect x="-1.987" y="14.502" opacity="0.06" fill="#FFFFFF" width="27.97" height="219.406"/>
		<rect x="25.983" y="37.704" opacity="0.06" fill="#FFFFFF" width="19.985" height="196.204"/>
		<rect x="45.968" y="74.02" opacity="0.06" fill="#FFFFFF" width="29.662" height="159.889"/>
		<rect x="75.94" y="42.031" opacity="0.06" fill="#FFFFFF" width="29.818" height="191.877"/>
		<rect x="105.758" y="2.133" opacity="0.06" fill="#FFFFFF" width="29.998" height="231.775"/>
		<rect x="135.576" y="26.607" opacity="0.06" fill="#FFFFFF" width="29.998" height="207.301"/>
		<rect x="165.574" y="47.328" opacity="0.06" fill="#FFFFFF" width="30.128" height="186.58"/>
		<rect x="195.857" y="63.971" opacity="0.06" fill="#FFFFFF" width="29.662" height="169.938"/>
		<rect x="225.701" y="82.884" opacity="0.06" fill="#FFFFFF" width="29.661" height="151.024"/>
		<rect x="255.362" y="55.861" opacity="0.06" fill="#FFFFFF" width="36.641" height="178.047"/>
		<rect x="292.003" y="-2.604" opacity="0.06" fill="#FFFFFF" width="29.662" height="236.513"/>
		<rect x="-1.987" y="47.328" opacity="0.08" fill="#FFFFFF" width="27.97" height="189.89"/>
		<rect x="26.151" y="63.971" opacity="0.08" fill="#FFFFFF" width="19.779" height="173.247"/>
		<rect x="45.949" y="101.367" opacity="0.08" fill="#FFFFFF" width="29.701" height="135.851"/>
		<rect x="75.766" y="63.971" opacity="0.08" fill="#FFFFFF" width="29.701" height="173.247"/>
		<rect x="105.739" y="31.903" opacity="0.08" fill="#FFFFFF" width="29.701" height="205.314"/>
		<rect x="135.725" y="58.131" opacity="0.08" fill="#FFFFFF" width="29.7" height="179.087"/>
		<rect x="165.788" y="79.819" opacity="0.08" fill="#FFFFFF" width="29.7" height="157.398"/>
		<rect x="195.839" y="89.655" opacity="0.08" fill="#FFFFFF" width="29.7" height="147.562"/>
		<rect x="225.682" y="101.367" opacity="0.08" fill="#FFFFFF" width="29.7" height="135.851"/>
		<rect x="255.584" y="70.347" opacity="0.08" fill="#FFFFFF" width="36.419" height="167.234"/>
		<rect x="292.094" y="37.704" opacity="0.08" fill="#FFFFFF" width="29.479" height="199.877"/>
		<rect x="-1.987" y="88.478" opacity="0.06" fill="#FFFFFF" width="27.97" height="145.352"/>
		<rect x="25.983" y="108.653" opacity="0.06" fill="#FFFFFF" width="19.985" height="125.216"/>
		<rect x="45.968" y="137.969" opacity="0.06" fill="#FFFFFF" width="29.721" height="95.9"/>
		<rect x="75.756" y="118.021" opacity="0.06" fill="#FFFFFF" width="29.721" height="115.849"/>
		<rect x="105.467" y="93.857" opacity="0.06" fill="#FFFFFF" width="29.973" height="140.012"/>
		<rect x="135.44" y="101.367" opacity="0.06" fill="#FFFFFF" width="29.985" height="132.502"/>
		<rect x="165.425" y="101.367" opacity="0.06" fill="#FFFFFF" width="30.151" height="132.502"/>
		<rect x="195.612" y="132.275" opacity="0.06" fill="#FFFFFF" width="30.152" height="101.594"/>
		<rect x="225.765" y="144.885" opacity="0.06" fill="#FFFFFF" width="30.151" height="88.984"/>
		<rect x="255.518" y="106.804" opacity="0.06" fill="#FFFFFF" width="36.485" height="127.025"/>
		<rect x="292.094" y="79.819" opacity="0.06" fill="#FFFFFF" width="28.724" height="154.01"/>
	</g>
</g>
</svg>
