<?xml version="1.0" encoding="utf-8"?>
<!-- Generator: Adobe Illustrator 16.0.4, SVG Export Plug-In . SVG Version: 6.00 Build 0)  -->
<!DOCTYPE svg PUBLIC "-//W3C//DTD SVG 1.1//EN" "http://www.w3.org/Graphics/SVG/1.1/DTD/svg11.dtd">
<svg version="1.1" id="Layer_2" xmlns="http://www.w3.org/2000/svg" xmlns:xlink="http://www.w3.org/1999/xlink" x="0px" y="0px"
     width="960px" height="1080px" viewBox="0 0 960 1080" enable-background="new 0 0 960 1080" xml:space="preserve">
<g>
	<g>
		<!--	<image overflow="visible" width="5184" height="3456" xlink:href="../../../../../Sona&apos;s files/TravelsTrains../Trainstravels/IMG_3088.JPG"  transform="matrix(0.3125 0 0 0.3125 -163 0)">
		</image>-->
		
	</g>
	<linearGradient id="SVGID_1_" gradientUnits="userSpaceOnUse" x1="480.0005" y1="1080" x2="480.0004" y2="-9.7349">
		<stop  offset="0" style="stop-color:#F8ED40"/>
		<stop  offset="0.2576" style="stop-color:#FF8A15"/>
		<stop  offset="0.5424" style="stop-color:#FF3FE5"/>
		<stop  offset="0.7917" style="stop-color:#3F81FF"/>
		<stop  offset="1" style="stop-color:#00944C"/>
	</linearGradient>
	<rect y="-9.735" opacity="0.1" fill="url(#SVGID_1_)" width="960" height="1089.735"/>
	<g>
		<text transform="matrix(1 0 0 1 252.5 517.5)" fill="#9E9E9E" font-family="'GuardianSans-Light'" font-size="60">Tap to take a photo</text>
		<g>
			<rect x="253.5" y="559.693" opacity="0.9" fill="#F8ED40" width="63.68" height="4.232"/>
			<rect x="284.983" y="559.693" opacity="0.9" fill="#F7961D" width="63.68" height="4.232"/>
			<rect x="316.939" y="559.693" opacity="0.8" fill="#ED2A25" width="63.68" height="4.232"/>
			<rect x="349.315" y="559.693" opacity="0.9" fill="#ED4798" width="63.68" height="4.232"/>
			<rect x="381.277" y="559.693" opacity="0.9" fill="#754D9E" width="63.681" height="4.232"/>
			<rect x="413.054" y="559.693" opacity="0.9" fill="#426EB5" width="63.681" height="4.232"/>
			<rect x="444.554" y="559.693" opacity="0.9" fill="#06B052" width="63.681" height="4.232"/>
			<rect x="476.266" y="559.693" opacity="0.9" fill="#F8ED40" width="63.682" height="4.232"/>
			<rect x="507.749" y="559.693" opacity="0.9" fill="#F7961D" width="63.68" height="4.232"/>
			<rect x="539.704" y="559.693" opacity="0.8" fill="#ED2A25" width="63.682" height="4.232"/>
			<rect x="572.08" y="559.693" opacity="0.9" fill="#ED4798" width="63.682" height="4.232"/>
			<rect x="604.044" y="559.693" opacity="0.9" fill="#754D9E" width="63.679" height="4.232"/>
			<rect x="635.82" y="559.693" opacity="0.9" fill="#426EB5" width="63.68" height="4.232"/>
			<rect x="667.319" y="559.693" opacity="0.9" fill="#06B052" width="32.181" height="4.232"/>
		</g>
	</g>
</g>
</svg>
