<?xml version="1.0" encoding="utf-8"?>
<!-- Generator: Adobe Illustrator 16.0.0, SVG Export Plug-In . SVG Version: 6.00 Build 0)  -->
<!DOCTYPE svg PUBLIC "-//W3C//DTD SVG 1.1//EN" "http://www.w3.org/Graphics/SVG/1.1/DTD/svg11.dtd">
<svg version="1.1" id="Layer_1" xmlns="http://www.w3.org/2000/svg" xmlns:xlink="http://www.w3.org/1999/xlink" x="0px" y="0px"
	 width="960px" height="1080px" viewBox="0 0 960 1080" enable-background="new 0 0 960 1080" xml:space="preserve">
<g>
	<g opacity="0.7" enable-background="new    ">
		<g>
			
				<linearGradient id="SVGID_1_" gradientUnits="userSpaceOnUse" x1="504.877" y1="479.9448" x2="910.7617" y2="479.9448" gradientTransform="matrix(1 0 0 -1 -231 760)">
				<stop  offset="0" style="stop-color:#FFDE17"/>
				<stop  offset="0.1467" style="stop-color:#F7941E"/>
				<stop  offset="0.3114" style="stop-color:#ED1C24"/>
				<stop  offset="0.4607" style="stop-color:#EE2A7B"/>
				<stop  offset="0.6641" style="stop-color:#92278F"/>
				<stop  offset="0.6845" style="stop-color:#902C91"/>
				<stop  offset="0.7069" style="stop-color:#8B3995"/>
				<stop  offset="0.7301" style="stop-color:#824A9D"/>
				<stop  offset="0.754" style="stop-color:#725DA8"/>
				<stop  offset="0.7784" style="stop-color:#5970B6"/>
				<stop  offset="0.8031" style="stop-color:#1586C8"/>
				<stop  offset="0.8277" style="stop-color:#009DDE"/>
				<stop  offset="0.8439" style="stop-color:#00AEEF"/>
				<stop  offset="1" style="stop-color:#2BB673"/>
			</linearGradient>
			<polygon fill="url(#SVGID_1_)" points="375.348,455.809 273.877,280.055 375.348,104.302 578.29,104.302 679.762,280.055 
				578.29,455.809 			"/>
		</g>
	</g>
	<g enable-background="new    ">
		<g>
			<g>
				<path fill="#FFFFFF" d="M572.07,217.176h-32.354c-3.791,0-8.88-2.382-11.299-5.299l-14.133-16.965
					c-2.434-2.904-7.52-5.292-11.31-5.292h-48.24c-3.787,0-8.705,2.507-10.921,5.587l-11.826,16.384
					c-2.22,3.062-7.141,5.583-10.928,5.583h-35.054c-7.581,0-13.786,6.194-13.786,13.78v103.372c0,7.577,6.208,13.783,13.786,13.783
					H572.07c7.587,0,13.786-6.206,13.786-13.783v-103.37C585.856,223.369,579.657,217.176,572.07,217.176z"/>
				<rect x="396.343" y="200.514" fill="#FFFFFF" width="18.382" height="9.767"/>
			</g>
		</g>
	</g>
	<circle opacity="0.5" fill="#B7B7B7" enable-background="new    " cx="537.616" cy="237.846" r="6.892"/>
	<path opacity="0.5" fill="#B7B7B7" enable-background="new    " d="M479.039,237.318c-22.8,0-41.348,18.544-41.348,41.348
		c0,22.798,18.548,41.35,41.348,41.35s41.35-18.552,41.35-41.35C520.389,255.864,501.839,237.318,479.039,237.318z"/>
</g>
<g display="none">
	<path display="inline" fill="#F9ED2D" d="M165.542,332.545h4.645l10.336,16.66l10.173-16.66h4.668l-12.797,21.09v19.305h-3.981
		v-19.305L165.542,332.545z"/>
	<path display="inline" fill="#F68521" d="M216.146,342.293c4.603,0,8.417,1.666,11.444,4.998c2.751,3.039,4.126,6.636,4.126,10.792
		c0,4.174-1.454,7.822-4.36,10.943c-2.907,3.122-6.644,4.682-11.21,4.682c-4.585,0-8.331-1.561-11.237-4.682
		c-2.907-3.121-4.36-6.769-4.36-10.943c0-4.137,1.375-7.726,4.126-10.765C207.7,343.969,211.524,342.293,216.146,342.293z
		 M216.132,346.056c-3.196,0-5.943,1.181-8.24,3.542c-2.296,2.361-3.444,5.217-3.444,8.567c0,2.161,0.523,4.174,1.571,6.042
		c1.047,1.867,2.461,3.309,4.244,4.325c1.782,1.016,3.739,1.524,5.87,1.524c2.131,0,4.087-0.508,5.87-1.524
		c1.782-1.016,3.197-2.458,4.244-4.325s1.571-3.881,1.571-6.042c0-3.35-1.153-6.206-3.459-8.567
		C222.052,347.236,219.31,346.056,216.132,346.056z"/>
	<path display="inline" fill="#C32328" d="M243.958,343.062h3.844v13.95c0,3.405,0.184,5.749,0.55,7.03
		c0.55,1.831,1.6,3.277,3.149,4.338c1.549,1.062,3.396,1.593,5.542,1.593c2.145,0,3.964-0.517,5.459-1.551
		c1.494-1.034,2.525-2.394,3.094-4.078c0.385-1.153,0.577-3.597,0.577-7.332v-13.95h3.927v14.664c0,4.119-0.481,7.222-1.442,9.309
		s-2.408,3.721-4.339,4.901c-1.932,1.181-4.353,1.771-7.263,1.771c-2.91,0-5.341-0.59-7.291-1.771
		c-1.95-1.181-3.405-2.828-4.366-4.943c-0.961-2.114-1.442-5.295-1.442-9.542L243.958,343.062L243.958,343.062z"/>
	<path display="inline" fill="#EB3B94" d="M282.809,343.062h3.927v4.366c1.171-1.721,2.407-3.007,3.707-3.858
		c1.3-0.851,2.654-1.277,4.064-1.277c1.062,0,2.197,0.339,3.405,1.016l-2.004,3.24c-0.806-0.347-1.483-0.521-2.032-0.521
		c-1.282,0-2.518,0.526-3.707,1.579c-1.19,1.053-2.097,2.687-2.719,4.901c-0.476,1.703-0.714,5.145-0.714,10.325v10.105h-3.927
		V343.062z"/>
	<path display="inline" fill="#DE5E83" d="M325.169,343.062h4.091l10.029,21.779l9.908-21.779h4.119l-13.676,29.877h-0.714
		L325.169,343.062z"/>
	<path display="inline" fill="#A25CA5" d="M366.121,330.76c0.875,0,1.622,0.312,2.242,0.934c0.62,0.623,0.93,1.373,0.93,2.252
		c0,0.86-0.31,1.602-0.93,2.224c-0.62,0.623-1.367,0.934-2.242,0.934c-0.857,0-1.595-0.311-2.215-0.934
		c-0.62-0.622-0.93-1.364-0.93-2.224c0-0.879,0.311-1.629,0.93-2.252C364.526,331.072,365.264,330.76,366.121,330.76z
		 M364.212,343.062h3.845v29.877h-3.845V343.062z"/>
	<path display="inline" fill="#7ACDCB" d="M381.918,372.939v-41.41h3.845v16.668c1.609-1.978,3.411-3.456,5.404-4.435
		s4.179-1.469,6.556-1.469c4.226,0,7.832,1.534,10.822,4.6c2.99,3.067,4.485,6.788,4.485,11.163c0,4.321-1.51,8.01-4.526,11.067
		c-3.018,3.058-6.648,4.586-10.891,4.586c-2.434,0-4.637-0.522-6.611-1.565c-1.976-1.043-3.722-2.609-5.24-4.696v5.492
		L381.918,372.939L381.918,372.939z M397.296,370.001c2.137,0,4.11-0.526,5.917-1.579c1.809-1.053,3.247-2.531,4.315-4.435
		c1.067-1.904,1.603-3.917,1.603-6.041c0-2.124-0.539-4.147-1.616-6.069c-1.078-1.922-2.524-3.419-4.343-4.49
		c-1.816-1.071-3.758-1.606-5.821-1.606c-2.101,0-4.096,0.535-5.985,1.606c-1.892,1.071-3.343,2.512-4.356,4.325
		c-1.014,1.812-1.521,3.854-1.521,6.124c0,3.46,1.136,6.353,3.411,8.677C391.173,368.839,393.972,370.001,397.296,370.001z"/>
	<path display="inline" fill="#67BD47" d="M450.812,363.026l3.239,1.703c-1.062,2.087-2.29,3.771-3.683,5.053
		c-1.395,1.281-2.96,2.256-4.7,2.924c-1.741,0.668-3.711,1.002-5.91,1.002c-4.874,0-8.685-1.597-11.434-4.792
		c-2.748-3.194-4.123-6.806-4.123-10.833c0-3.79,1.163-7.167,3.491-10.133c2.948-3.771,6.897-5.657,11.846-5.657
		c5.094,0,9.161,1.932,12.203,5.794c2.162,2.728,3.262,6.133,3.299,10.215h-26.884c0.071,3.47,1.182,6.315,3.326,8.534
		c2.145,2.219,4.793,3.329,7.945,3.329c1.521,0,3.001-0.264,4.439-0.793c1.438-0.529,2.662-1.231,3.67-2.106
		C448.548,366.391,449.639,364.978,450.812,363.026z M450.812,354.98c-0.514-2.05-1.261-3.689-2.241-4.916s-2.277-2.215-3.891-2.966
		c-1.612-0.75-3.309-1.126-5.087-1.126c-2.933,0-5.453,0.943-7.561,2.829c-1.54,1.373-2.704,3.433-3.492,6.179H450.812z"/>
	<path display="inline" fill="#F9ED2D" d="M490.357,330.76c0.875,0,1.623,0.312,2.241,0.934c0.62,0.623,0.931,1.373,0.931,2.252
		c0,0.86-0.311,1.602-0.931,2.224c-0.618,0.623-1.366,0.934-2.241,0.934c-0.856,0-1.596-0.311-2.216-0.934
		c-0.618-0.622-0.929-1.364-0.929-2.224c0-0.879,0.311-1.629,0.929-2.252C488.763,331.072,489.501,330.76,490.357,330.76z
		 M488.449,343.062h3.845v29.877h-3.845V343.062z"/>
	<path display="inline" fill="#F68521" d="M520.93,346.33l-2.472,2.554c-2.056-1.995-4.065-2.993-6.029-2.993
		c-1.248,0-2.316,0.412-3.207,1.235c-0.891,0.824-1.336,1.785-1.336,2.883c0,0.971,0.367,1.895,1.102,2.774
		c0.733,0.897,2.274,1.95,4.623,3.158c2.861,1.483,4.807,2.911,5.834,4.284c1.009,1.392,1.514,2.957,1.514,4.696
		c0,2.454-0.862,4.531-2.585,6.233c-1.724,1.703-3.878,2.554-6.463,2.554c-1.726,0-3.37-0.375-4.938-1.126
		c-1.567-0.751-2.863-1.785-3.892-3.103l2.417-2.746c1.963,2.215,4.046,3.323,6.248,3.323c1.541,0,2.853-0.494,3.936-1.483
		c1.083-0.989,1.624-2.151,1.624-3.487c0-1.099-0.356-2.078-1.072-2.938c-0.716-0.842-2.33-1.904-4.844-3.186
		c-2.696-1.391-4.531-2.764-5.504-4.119c-0.973-1.354-1.459-2.901-1.459-4.641c0-2.27,0.774-4.155,2.324-5.657
		c1.55-1.501,3.507-2.252,5.873-2.252C515.373,342.293,518.143,343.639,520.93,346.33z"/>
	<path display="inline" fill="#C32328" d="M553.98,331.529h3.845v41.41h-3.845V331.529z"/>
	<path display="inline" fill="#EB3B94" d="M585.582,342.293c4.604,0,8.418,1.666,11.444,4.998c2.75,3.039,4.126,6.636,4.126,10.792
		c0,4.174-1.454,7.822-4.36,10.943c-2.907,3.122-6.644,4.682-11.21,4.682c-4.585,0-8.331-1.561-11.237-4.682
		c-2.907-3.121-4.359-6.769-4.359-10.943c0-4.137,1.375-7.726,4.127-10.765C577.137,343.969,580.961,342.293,585.582,342.293z
		 M585.568,346.056c-3.196,0-5.943,1.181-8.239,3.542c-2.297,2.361-3.445,5.217-3.445,8.567c0,2.161,0.523,4.174,1.571,6.042
		c1.047,1.867,2.461,3.309,4.244,4.325c1.781,1.016,3.737,1.524,5.869,1.524c2.131,0,4.088-0.508,5.869-1.524
		c1.781-1.016,3.196-2.458,4.243-4.325c1.048-1.867,1.571-3.881,1.571-6.042c0-3.35-1.153-6.206-3.459-8.567
		C591.488,347.236,588.747,346.056,585.568,346.056z"/>
	<path display="inline" fill="#DE5E83" d="M643.655,343.062v29.877h-3.789v-5.135c-1.611,1.959-3.419,3.433-5.424,4.421
		c-2.005,0.988-4.197,1.483-6.577,1.483c-4.229,0-7.84-1.533-10.833-4.6s-4.489-6.796-4.489-11.19c0-4.302,1.51-7.981,4.531-11.039
		c3.021-3.057,6.653-4.586,10.9-4.586c2.453,0,4.674,0.522,6.659,1.565c1.986,1.043,3.729,2.609,5.231,4.696v-5.492H643.655z
		 M628.291,346.001c-2.139,0-4.114,0.526-5.924,1.577c-1.812,1.052-3.251,2.528-4.32,4.43c-1.07,1.901-1.604,3.913-1.604,6.034
		c0,2.104,0.539,4.115,1.617,6.035s2.527,3.415,4.348,4.484c1.818,1.07,3.771,1.605,5.855,1.605c2.104,0,4.097-0.53,5.979-1.591
		c1.884-1.061,3.332-2.496,4.348-4.306c1.016-1.811,1.522-3.85,1.522-6.117c0-3.456-1.14-6.345-3.415-8.667
		C634.422,347.162,631.619,346.001,628.291,346.001z"/>
	<path display="inline" fill="#A25CA5" d="M687.751,331.529v41.41h-3.789v-5.135c-1.611,1.959-3.419,3.433-5.424,4.421
		c-2.004,0.988-4.197,1.483-6.576,1.483c-4.229,0-7.84-1.533-10.833-4.6s-4.49-6.796-4.49-11.19c0-4.302,1.512-7.981,4.531-11.039
		c3.021-3.057,6.654-4.586,10.901-4.586c2.453,0,4.673,0.522,6.659,1.565c1.985,1.043,3.729,2.609,5.23,4.696v-17.025H687.751z
		 M672.388,346.001c-2.14,0-4.114,0.526-5.925,1.577c-1.811,1.052-3.251,2.528-4.32,4.43c-1.069,1.901-1.604,3.913-1.604,6.034
		c0,2.104,0.539,4.115,1.618,6.035c1.078,1.92,2.527,3.415,4.348,4.484c1.818,1.07,3.771,1.605,5.855,1.605
		c2.104,0,4.097-0.53,5.979-1.591c1.884-1.061,3.333-2.496,4.349-4.306c1.015-1.811,1.521-3.85,1.521-6.117
		c0-3.456-1.139-6.345-3.415-8.667C678.518,347.162,675.715,346.001,672.388,346.001z"/>
	<path display="inline" fill="#7ACDCB" d="M703.412,330.76c0.875,0,1.623,0.312,2.242,0.934c0.62,0.623,0.93,1.373,0.93,2.252
		c0,0.86-0.31,1.602-0.93,2.224c-0.619,0.623-1.367,0.934-2.242,0.934c-0.856,0-1.595-0.311-2.215-0.934
		c-0.619-0.622-0.93-1.364-0.93-2.224c0-0.879,0.311-1.629,0.93-2.252C701.817,331.072,702.556,330.76,703.412,330.76z
		 M701.504,343.062h3.845v29.877h-3.845V343.062z"/>
	<path display="inline" fill="#67BD47" d="M718.963,343.062h3.844v5.355c1.538-2.05,3.24-3.584,5.108-4.6
		c1.867-1.016,3.899-1.524,6.096-1.524c2.233,0,4.215,0.568,5.945,1.703c1.729,1.135,3.007,2.664,3.831,4.586
		c0.823,1.922,1.234,4.916,1.234,8.979v15.378h-3.845v-14.252c0-3.441-0.143-5.739-0.428-6.893c-0.445-1.977-1.3-3.464-2.563-4.462
		c-1.263-0.998-2.91-1.497-4.941-1.497c-2.326,0-4.409,0.769-6.249,2.307s-3.054,3.442-3.639,5.712
		c-0.366,1.483-0.551,4.192-0.551,8.128v10.957h-3.844L718.963,343.062L718.963,343.062z"/>
	<path display="inline" fill="#F9ED2D" d="M784.644,343.062h3.845v23.808c0,4.192-0.366,7.259-1.099,9.199
		c-1.008,2.746-2.756,4.861-5.245,6.343c-2.489,1.483-5.482,2.225-8.979,2.225c-2.563,0-4.865-0.363-6.906-1.088
		c-2.042-0.726-3.703-1.699-4.983-2.919c-1.281-1.221-2.462-3.007-3.542-5.357h4.174c1.136,1.978,2.603,3.442,4.397,4.394
		c1.796,0.952,4.023,1.428,6.683,1.428c2.62,0,4.834-0.488,6.64-1.464c1.806-0.977,3.093-2.204,3.862-3.681
		c0.771-1.478,1.154-3.864,1.154-7.157v-1.538c-1.447,1.831-3.217,3.236-5.306,4.215s-4.307,1.469-6.651,1.469
		c-2.75,0-5.332-0.682-7.753-2.046c-2.419-1.363-4.288-3.199-5.606-5.506c-1.319-2.307-1.979-4.842-1.979-7.606
		c0-2.764,0.688-5.341,2.062-7.73c1.374-2.389,3.274-4.279,5.704-5.671c2.428-1.391,4.988-2.087,7.683-2.087
		c2.235,0,4.32,0.463,6.254,1.387c1.934,0.925,3.798,2.449,5.595,4.572v-5.19H784.644z M773.302,346.001
		c-2.179,0-4.201,0.526-6.067,1.579c-1.867,1.053-3.332,2.508-4.395,4.366c-1.062,1.858-1.593,3.868-1.593,6.028
		c0,3.277,1.099,5.986,3.295,8.128c2.197,2.142,5.044,3.213,8.54,3.213c3.533,0,6.376-1.062,8.527-3.185
		c2.149-2.124,3.227-4.916,3.227-8.375c0-2.252-0.495-4.261-1.483-6.028c-0.987-1.766-2.389-3.162-4.2-4.188
		C777.339,346.514,775.389,346.001,773.302,346.001z"/>
	<rect x="144.5" y="332.5" display="inline" fill="#F9ED2D" width="23.75" height="2.833"/>
	<polygon display="inline" fill="#F9ED2D" points="107,332.292 114.186,322.5 122.531,332.292 144.784,332.292 144.784,335.125 
		120.908,335.125 114.302,326.5 108.971,335.125 107,335.125 92.25,335.125 92.25,332.167 	"/>
	<polygon display="inline" fill="#F9ED2D" points="839.351,345.92 829.499,355.712 818.058,345.92 787.549,345.92 787.549,343.086 
		820.282,343.086 829.34,351.712 836.648,343.086 839.351,343.086 859.572,343.086 859.572,346.044 	"/>
</g>
<g enable-background="new    ">
	<path fill="#9D9D9D" d="M381.305,546.74l-2.719,2.086c-1.5-1.953-3.301-3.434-5.402-4.441s-4.41-1.512-6.926-1.512
		c-2.75,0-5.297,0.66-7.641,1.98s-4.16,3.094-5.449,5.32s-1.934,4.73-1.934,7.512c0,4.203,1.441,7.711,4.324,10.523
		s6.52,4.219,10.91,4.219c4.828,0,8.867-1.891,12.117-5.672l2.719,2.062c-1.719,2.188-3.863,3.879-6.434,5.074
		s-5.441,1.793-8.613,1.793c-6.031,0-10.789-2.008-14.273-6.023c-2.922-3.391-4.383-7.484-4.383-12.281
		c0-5.047,1.77-9.293,5.309-12.738s7.973-5.168,13.301-5.168c3.219,0,6.125,0.637,8.719,1.91S379.648,544.443,381.305,546.74z"/>
	<path fill="#9D9D9D" d="M422.062,549.318v25.5h-3.235v-4.383c-1.375,1.672-2.918,2.93-4.629,3.773s-3.582,1.266-5.613,1.266
		c-3.609,0-6.691-1.309-9.246-3.926s-3.832-5.801-3.832-9.551c0-3.672,1.289-6.812,3.867-9.422s5.68-3.914,9.305-3.914
		c2.094,0,3.988,0.445,5.684,1.336s3.184,2.227,4.465,4.008v-4.688H422.062z M408.949,551.826c-1.826,0-3.512,0.449-5.057,1.346
		c-1.545,0.898-2.774,2.158-3.688,3.781s-1.369,3.34-1.369,5.15c0,1.795,0.46,3.512,1.381,5.15c0.921,1.639,2.158,2.915,3.71,3.828
		s3.219,1.369,4.999,1.369c1.795,0,3.496-0.453,5.104-1.357c1.607-0.906,2.844-2.131,3.71-3.676
		c0.866-1.545,1.299-3.285,1.299-5.221c0-2.949-0.972-5.416-2.915-7.397C414.181,552.817,411.789,551.826,408.949,551.826z"/>
	<path fill="#9D9D9D" d="M438.468,549.318h3.281v4.688c1.296-1.781,2.786-3.117,4.473-4.008c1.686-0.891,3.566-1.336,5.643-1.336
		c3.621,0,6.719,1.305,9.295,3.914c2.575,2.609,3.863,5.75,3.863,9.422c0,3.75-1.276,6.934-3.828,9.551
		c-2.553,2.617-5.631,3.926-9.236,3.926c-2.03,0-3.896-0.422-5.597-1.266s-3.239-2.102-4.612-3.773v13.711h-3.281V549.318z
		 M451.593,551.826c-2.838,0-5.227,0.991-7.167,2.974c-1.941,1.981-2.911,4.448-2.911,7.397c0,1.936,0.433,3.676,1.298,5.221
		s2.104,2.77,3.718,3.676c1.613,0.904,3.316,1.357,5.109,1.357c1.762,0,3.418-0.456,4.969-1.369s2.786-2.189,3.706-3.828
		s1.38-3.355,1.38-5.15c0-1.811-0.456-3.527-1.368-5.15s-2.14-2.883-3.683-3.781C455.101,552.275,453.417,551.826,451.593,551.826z"
		/>
	<path fill="#9D9D9D" d="M482.998,539.85h3.281v9.469h5.203v2.836h-5.203v22.664h-3.281v-22.664h-4.477v-2.836h4.477V539.85z"/>
	<path fill="#9D9D9D" d="M504.959,549.318h3.281v11.906c0,2.906,0.156,4.906,0.47,6c0.47,1.562,1.365,2.797,2.688,3.703
		s2.898,1.359,4.729,1.359s3.384-0.441,4.659-1.324s2.155-2.043,2.641-3.48c0.329-0.984,0.493-3.07,0.493-6.258v-11.906h3.352
		v12.516c0,3.516-0.41,6.164-1.23,7.945s-2.055,3.176-3.703,4.184s-3.715,1.512-6.199,1.512s-4.559-0.504-6.223-1.512
		s-2.906-2.414-3.727-4.219s-1.23-4.52-1.23-8.145V549.318z"/>
	<path fill="#9D9D9D" d="M542.294,549.318h3.352v3.727c1-1.469,2.055-2.566,3.164-3.293s2.266-1.09,3.469-1.09
		c0.906,0,1.875,0.289,2.906,0.867l-1.711,2.766c-0.688-0.297-1.266-0.445-1.734-0.445c-1.094,0-2.148,0.449-3.164,1.348
		s-1.789,2.293-2.32,4.184c-0.406,1.453-0.609,4.391-0.609,8.812v8.625h-3.352V549.318z"/>
	<path fill="#9D9D9D" d="M588.231,566.357l2.766,1.453c-0.907,1.781-1.955,3.219-3.144,4.312s-2.525,1.926-4.012,2.496
		c-1.485,0.57-3.167,0.855-5.044,0.855c-4.16,0-7.412-1.363-9.759-4.09c-2.346-2.727-3.519-5.809-3.519-9.246
		c0-3.234,0.993-6.117,2.979-8.648c2.518-3.219,5.888-4.828,10.11-4.828c4.348,0,7.819,1.648,10.415,4.945
		c1.846,2.328,2.784,5.234,2.815,8.719h-22.945c0.062,2.962,1.009,5.39,2.839,7.284c1.831,1.894,4.091,2.841,6.782,2.841
		c1.298,0,2.562-0.226,3.789-0.677c1.229-0.451,2.272-1.051,3.133-1.798C586.3,569.229,587.23,568.023,588.231,566.357z
		 M588.231,559.49c-0.438-1.75-1.075-3.148-1.913-4.195c-0.837-1.047-1.943-1.891-3.32-2.531s-2.823-0.961-4.341-0.961
		c-2.504,0-4.654,0.805-6.453,2.414c-1.314,1.172-2.309,2.93-2.98,5.273H588.231z"/>
</g>
<g enable-background="new    ">
	<path fill="#9D9D9D" d="M339.195,739v-34.477h7.148c5.156,0,8.898,0.414,11.227,1.242c3.344,1.172,5.957,3.203,7.84,6.094
		s2.824,6.336,2.824,10.336c0,3.453-0.746,6.492-2.238,9.117s-3.43,4.562-5.812,5.812S354.461,739,350.164,739H339.195z
		 M342.5,735.742h3.984c4.766,0,8.07-0.297,9.914-0.89c2.594-0.843,4.633-2.361,6.117-4.555s2.227-4.875,2.227-8.044
		c0-3.325-0.805-6.167-2.414-8.524s-3.852-3.973-6.727-4.848c-2.156-0.655-5.711-0.983-10.664-0.983H342.5V735.742z"/>
	<path fill="#9D9D9D" d="M404.82,730.539l2.766,1.453c-0.907,1.781-1.955,3.219-3.144,4.312s-2.526,1.926-4.012,2.496
		s-3.167,0.855-5.043,0.855c-4.16,0-7.413-1.363-9.759-4.09c-2.346-2.727-3.519-5.809-3.519-9.246c0-3.234,0.993-6.117,2.979-8.648
		c2.518-3.219,5.888-4.828,10.111-4.828c4.348,0,7.819,1.648,10.416,4.945c1.845,2.328,2.784,5.234,2.815,8.719h-22.945
		c0.062,2.962,1.009,5.39,2.839,7.284c1.83,1.894,4.091,2.841,6.782,2.841c1.298,0,2.562-0.226,3.79-0.677s2.272-1.051,3.132-1.798
		C402.888,733.411,403.819,732.205,404.82,730.539z M404.82,723.672c-0.438-1.75-1.076-3.148-1.913-4.195
		c-0.837-1.047-1.944-1.891-3.321-2.531s-2.824-0.961-4.341-0.961c-2.503,0-4.654,0.805-6.453,2.414
		c-1.314,1.172-2.308,2.93-2.98,5.273H404.82z"/>
	<path fill="#9D9D9D" d="M436.343,716.289l-2.109,2.18c-1.755-1.703-3.471-2.555-5.146-2.555c-1.065,0-1.978,0.352-2.737,1.055
		s-1.14,1.523-1.14,2.461c0,0.828,0.313,1.617,0.939,2.367c0.626,0.766,1.941,1.664,3.945,2.695
		c2.443,1.266,4.103,2.484,4.979,3.656c0.861,1.188,1.292,2.523,1.292,4.008c0,2.094-0.735,3.867-2.207,5.32
		c-1.471,1.453-3.31,2.18-5.516,2.18c-1.472,0-2.876-0.32-4.214-0.961s-2.445-1.523-3.321-2.648l2.062-2.344
		c1.676,1.891,3.453,2.836,5.333,2.836c1.315,0,2.435-0.422,3.359-1.266c0.924-0.844,1.386-1.836,1.386-2.977
		c0-0.938-0.306-1.773-0.916-2.508c-0.61-0.719-1.988-1.625-4.134-2.719c-2.302-1.188-3.868-2.359-4.697-3.516
		c-0.83-1.156-1.245-2.477-1.245-3.961c0-1.938,0.661-3.547,1.983-4.828c1.323-1.281,2.993-1.922,5.013-1.922
		C431.601,712.844,433.964,713.992,436.343,716.289z"/>
	<path fill="#9D9D9D" d="M475.881,718.797l-2.602,1.617c-2.247-2.984-5.314-4.477-9.2-4.477c-3.106,0-5.685,0.999-7.737,2.997
		c-2.052,1.997-3.078,4.424-3.078,7.28c0,1.857,0.472,3.605,1.416,5.244s2.24,2.91,3.887,3.816c1.646,0.904,3.491,1.357,5.536,1.357
		c3.745,0,6.805-1.492,9.177-4.477l2.602,1.711c-1.219,1.836-2.855,3.26-4.91,4.271s-4.395,1.518-7.02,1.518
		c-4.031,0-7.375-1.281-10.031-3.844s-3.984-5.68-3.984-9.352c0-2.469,0.621-4.762,1.863-6.879s2.949-3.77,5.121-4.957
		s4.602-1.781,7.289-1.781c1.688,0,3.316,0.258,4.887,0.773s2.902,1.188,3.996,2.016S475.115,717.516,475.881,718.797z"/>
	<path fill="#9D9D9D" d="M489.92,713.5h3.352v3.727c1-1.469,2.055-2.566,3.164-3.293s2.266-1.09,3.469-1.09
		c0.906,0,1.875,0.289,2.906,0.867l-1.711,2.766c-0.688-0.297-1.266-0.445-1.734-0.445c-1.094,0-2.148,0.449-3.164,1.348
		s-1.789,2.293-2.32,4.184c-0.406,1.453-0.609,4.391-0.609,8.812V739h-3.352V713.5z"/>
	<path fill="#9D9D9D" d="M515.712,703c0.747,0,1.385,0.266,1.913,0.797c0.529,0.531,0.794,1.172,0.794,1.922
		c0,0.734-0.265,1.367-0.794,1.898c-0.528,0.531-1.166,0.797-1.913,0.797c-0.731,0-1.361-0.266-1.891-0.797
		c-0.528-0.531-0.793-1.164-0.793-1.898c0-0.75,0.265-1.391,0.793-1.922C514.351,703.266,514.98,703,515.712,703z M514.083,713.5
		h3.281V739h-3.281V713.5z"/>
	<path fill="#9D9D9D" d="M533.372,739v-35.344h3.281v14.227c1.373-1.688,2.911-2.949,4.612-3.785s3.566-1.254,5.597-1.254
		c3.605,0,6.684,1.309,9.236,3.926c2.552,2.617,3.828,5.793,3.828,9.527c0,3.688-1.288,6.836-3.863,9.445
		c-2.576,2.609-5.674,3.914-9.295,3.914c-2.076,0-3.957-0.445-5.643-1.336c-1.687-0.891-3.177-2.227-4.473-4.008V739H533.372z
		 M546.497,736.492c1.824,0,3.508-0.449,5.051-1.348s2.771-2.16,3.683-3.785s1.368-3.344,1.368-5.156s-0.46-3.539-1.38-5.18
		s-2.155-2.918-3.706-3.832s-3.207-1.371-4.969-1.371c-1.793,0-3.496,0.457-5.109,1.371s-2.853,2.145-3.718,3.691
		s-1.298,3.289-1.298,5.227c0,2.953,0.97,5.422,2.911,7.406C541.271,735.5,543.659,736.492,546.497,736.492z"/>
	<path fill="#9D9D9D" d="M596.348,730.539l2.766,1.453c-0.907,1.781-1.955,3.219-3.144,4.312s-2.525,1.926-4.012,2.496
		c-1.485,0.57-3.167,0.855-5.044,0.855c-4.16,0-7.412-1.363-9.759-4.09c-2.346-2.727-3.519-5.809-3.519-9.246
		c0-3.234,0.993-6.117,2.979-8.648c2.518-3.219,5.888-4.828,10.11-4.828c4.348,0,7.819,1.648,10.415,4.945
		c1.846,2.328,2.784,5.234,2.815,8.719h-22.945c0.062,2.962,1.009,5.39,2.839,7.284c1.831,1.894,4.091,2.841,6.782,2.841
		c1.298,0,2.562-0.226,3.789-0.677c1.229-0.451,2.272-1.051,3.133-1.798C594.416,733.411,595.347,732.205,596.348,730.539z
		 M596.348,723.672c-0.438-1.75-1.075-3.148-1.913-4.195c-0.837-1.047-1.943-1.891-3.32-2.531s-2.823-0.961-4.341-0.961
		c-2.504,0-4.654,0.805-6.453,2.414c-1.314,1.172-2.309,2.93-2.98,5.273H596.348z"/>
</g>
<g enable-background="new    ">
	<path fill="#9D9D9D" d="M404.295,868.523h3.75l11.426,26.636l11.613-26.636h3.75l-15,34.477h-0.75L404.295,868.523z"/>
	<path fill="#9D9D9D" d="M450.431,867c0.747,0,1.385,0.266,1.914,0.797s0.793,1.172,0.793,1.922c0,0.734-0.265,1.367-0.793,1.898
		s-1.167,0.797-1.914,0.797c-0.731,0-1.361-0.266-1.891-0.797c-0.528-0.531-0.793-1.164-0.793-1.898c0-0.75,0.265-1.391,0.793-1.922
		C449.07,867.266,449.7,867,450.431,867z M448.802,877.5h3.281V903h-3.281V877.5z"/>
	<path fill="#9D9D9D" d="M468.091,903v-35.344h3.281v14.227c1.373-1.688,2.911-2.949,4.612-3.785
		c1.702-0.836,3.566-1.254,5.597-1.254c3.605,0,6.684,1.309,9.236,3.926c2.552,2.617,3.828,5.793,3.828,9.527
		c0,3.688-1.288,6.836-3.863,9.445c-2.576,2.609-5.674,3.914-9.295,3.914c-2.076,0-3.958-0.445-5.643-1.336
		c-1.686-0.891-3.176-2.227-4.472-4.008V903H468.091z M481.216,900.492c1.824,0,3.508-0.449,5.051-1.348s2.771-2.16,3.683-3.785
		s1.368-3.344,1.368-5.156s-0.46-3.539-1.38-5.18s-2.155-2.918-3.706-3.832s-3.207-1.371-4.969-1.371
		c-1.793,0-3.496,0.457-5.109,1.371s-2.853,2.145-3.718,3.691s-1.298,3.289-1.298,5.227c0,2.953,0.97,5.422,2.911,7.406
		S478.378,900.492,481.216,900.492z"/>
	<path fill="#9D9D9D" d="M531.066,894.539l2.766,1.453c-0.907,1.781-1.955,3.219-3.144,4.312s-2.525,1.926-4.012,2.496
		c-1.485,0.57-3.167,0.855-5.044,0.855c-4.16,0-7.412-1.363-9.759-4.09c-2.346-2.727-3.519-5.809-3.519-9.246
		c0-3.234,0.993-6.117,2.979-8.648c2.518-3.219,5.888-4.828,10.11-4.828c4.348,0,7.819,1.648,10.415,4.945
		c1.846,2.328,2.784,5.234,2.815,8.719H511.73c0.062,2.962,1.009,5.39,2.839,7.284c1.831,1.894,4.091,2.841,6.782,2.841
		c1.298,0,2.562-0.226,3.789-0.677c1.229-0.451,2.272-1.051,3.133-1.798C529.135,897.411,530.065,896.205,531.066,894.539z
		 M531.066,887.672c-0.438-1.75-1.075-3.148-1.913-4.195c-0.837-1.047-1.943-1.891-3.32-2.531s-2.823-0.961-4.341-0.961
		c-2.504,0-4.654,0.805-6.453,2.414c-1.314,1.172-2.309,2.93-2.98,5.273H531.066z"/>
</g>
<g>
	<polygon fill="#79CDCB" points="468.37,658.958 460.649,645.585 468.37,632.212 483.812,632.212 491.533,645.585 483.812,658.958 	
		"/>
	<polygon opacity="0.05" fill="#FFFFFF" enable-background="new    " points="468.37,632.212 475.819,645.585 483.812,632.212 	"/>
	<polygon opacity="0.02" enable-background="new    " points="468.37,632.212 460.649,645.585 468.37,658.958 475.819,645.585 	"/>
	<polygon opacity="0.03" enable-background="new    " points="475.819,645.585 483.812,658.958 468.37,658.958 	"/>
</g>
<g>
	<polygon fill="#F6851F" points="469.37,818.248 461.649,804.875 469.37,791.502 484.812,791.502 492.533,804.875 484.812,818.248 	
		"/>
	<polygon opacity="0.05" fill="#FFFFFF" enable-background="new    " points="469.37,791.502 476.819,804.875 484.812,791.502 	"/>
	<polygon opacity="0.02" enable-background="new    " points="469.37,791.502 461.649,804.875 469.37,818.248 476.819,804.875 	"/>
	<polygon opacity="0.03" enable-background="new    " points="476.819,804.875 484.812,818.248 469.37,818.248 	"/>
</g>
<g>
	<polygon fill="#ED3794" points="469.37,981.111 461.649,967.738 469.37,954.365 484.812,954.365 492.533,967.738 484.812,981.111 	
		"/>
	<polygon opacity="0.05" fill="#FFFFFF" enable-background="new    " points="469.37,954.365 476.819,967.738 484.812,954.365 	"/>
	<polygon opacity="0.02" enable-background="new    " points="469.37,954.365 461.649,967.738 469.37,981.111 476.819,967.738 	"/>
	<polygon opacity="0.03" enable-background="new    " points="476.819,967.738 484.812,981.111 469.37,981.111 	"/>
</g>
</svg>
