<?xml version="1.0" encoding="utf-8"?>
<!-- Generator: Adobe Illustrator 16.0.4, SVG Export Plug-In . SVG Version: 6.00 Build 0)  -->
<!DOCTYPE svg PUBLIC "-//W3C//DTD SVG 1.1//EN" "http://www.w3.org/Graphics/SVG/1.1/DTD/svg11.dtd">
<svg version="1.1" id="Layer_1" xmlns="http://www.w3.org/2000/svg" xmlns:xlink="http://www.w3.org/1999/xlink" x="0px" y="0px"
	 width="289.5px" height="87.5px" viewBox="0 0 289.5 87.5" enable-background="new 0 0 289.5 87.5" xml:space="preserve">
<g id="Layer_1_2_" display="none">
	<g id="Layer_1_1_" display="inline">
		<rect x="-0.5" y="7" fill="#FFFFFF" width="290" height="79"/>
		<g>
			<rect x="-10.5" fill="#FFFFFF" width="300" height="79"/>
			<polygon opacity="0.9" fill="#F7961D" enable-background="new    " points="38.162,79 50.249,60.867 64.028,79 			"/>
			<polygon opacity="0.9" fill="#F7961D" enable-background="new    " points="209.137,79 221.223,60.867 235.003,79 			"/>
			<polygon opacity="0.9" fill="#F8ED40" enable-background="new    " points="52.317,79 67.552,56.145 84.92,79 			"/>
			<polygon opacity="0.9" fill="#ED4798" enable-background="new    " points="184.874,79 200.107,56.145 217.477,79 			"/>
			<polygon opacity="0.8" fill="#06B052" enable-background="new    " points="73.839,79 93.526,49.466 115.969,79 			"/>
			<polygon opacity="0.9" fill="#426EB5" enable-background="new    " points="98.196,79 122.205,42.981 149.576,79 			"/>
			<polygon opacity="0.9" fill="#ED2A25" enable-background="new    " points="124.196,79 148.205,42.981 175.576,79 			"/>
			<polygon opacity="0.9" fill="#754D9E" enable-background="new    " points="152.465,79 173.423,47.559 197.314,79 			"/>
			<polygon opacity="0.2" fill="#F7961D" enable-background="new    " points="38.037,79 -10.5,24.5 -10.5,0 10.5,0 50.249,60.867 
							"/>
			<polygon opacity="0.2" fill="#F8ED40" enable-background="new    " points="57.665,70.79 50.186,60.867 10.5,0 39.5,0 
				67.552,56.145 			"/>
			<polygon opacity="0.2" fill="#06B052" enable-background="new    " points="78.955,71.232 67.521,56.145 39.5,0 79.5,0 
				93.526,49.466 			"/>
			<polygon opacity="0.2" fill="#426EB5" enable-background="new    " points="106.401,66.541 93.476,49.466 79.5,0 112.5,0 
				122.205,42.981 			"/>
			<polyline opacity="0.1" fill="#ED2A25" enable-background="new    " points="135.889,61.208 122.121,42.981 112.5,0 141.5,0 
				148.205,42.981 136.056,61.208 			"/>
			<polygon opacity="0.2" fill="#F7961D" enable-background="new    " points="289.5,26 289.5,0 261.5,0 221.223,60.867 235.003,79 
							"/>
			<polygon opacity="0.2" fill="#ED4798" enable-background="new    " points="200.275,56.145 213.116,73.152 221.266,60.867 
				261.5,0 226.5,0 			"/>
			<polygon opacity="0.2" fill="#754D9E" enable-background="new    " points="173.516,47.559 190.732,70.277 200.132,56.145 
				226.5,0 197.5,0 			"/>
			<polygon opacity="0.2" fill="#ED2A25" enable-background="new    " points="148.205,42.981 156.695,0 197.5,0 173.516,47.559 
				163.63,63.279 			"/>
		</g>
		<polygon fill="#06B052" points="139.223,131 131.728,118 139.223,105 154.215,105 161.71,118 154.215,131 		"/>
		<polygon fill="#06B052" points="124.223,157 116.728,144 124.223,131 139.215,131 146.71,144 139.215,157 		"/>
		<polygon fill="#06B052" points="146.223,144 138.728,131 146.223,118 161.215,118 168.71,131 161.215,144 		"/>
		<polygon fill="#06B052" points="139.223,157 131.728,144 139.223,131 154.215,131 161.71,144 154.215,157 		"/>
		<polygon fill="none" stroke="#FFFFFF" stroke-miterlimit="10" points="131.551,289.5 115.103,261 131.551,232.5 164.449,232.5 
			180.896,261 164.449,289.5 		"/>
		<path fill="none" stroke="#FFFFFF" stroke-miterlimit="10" d="M131.551,232.5"/>
		<g opacity="0.9">
			<path fill="#ED4798" d="M188.254,249.27h0.488l1.488,4.528l1.512-4.528h0.488l-1.953,5.862h-0.098L188.254,249.27z"/>
			<polygon fill="#ED4798" points="187.55,247.12 188.038,247.12 188.477,248.452 187.986,248.452 			"/>
			<polygon fill="#ED4798" points="187.852,248.042 188.34,248.042 188.777,249.375 188.289,249.375 			"/>
			<polygon fill="#ED4798" points="187.575,247.12 183.357,247.12 183.357,247.689 187.852,247.689 			"/>
			<polygon fill="#ED4798" points="191.854,249.27 196.835,249.27 196.835,249.771 191.648,249.771 			"/>
		</g>
		<g>
			<path fill="#426EB5" d="M56,156.5"/>
			<g>
				<g>
					<polygon opacity="0.9" fill="#426EB5" enable-background="new    " points="34,111 24.103,128.177 34,145.5 57,128 					"/>
					<polyline opacity="0.9" fill="#F7961D" enable-background="new    " points="80.062,145.031 57,128 80.515,111.742 90,128 
											"/>
					<polyline opacity="0.8" fill="#06B052" enable-background="new    " points="24.103,128.177 40.551,99.5 57,128 					"/>
					<polyline opacity="0.9" fill="#F8ED40" enable-background="new    " points="90,128.177 73.551,99.5 57.103,128 					"/>
					<polyline opacity="0.9" fill="#754D9E" enable-background="new    " points="73.551,99.5 57,128 40.551,99.5 					"/>
					<polyline opacity="0.1" enable-background="new    " points="73.551,99.5 57.103,128 56,99.5 					"/>
					<polyline opacity="0.9" fill="#ED4798" enable-background="new    " points="30.256,139.396 56.5,128.104 56.5,157 
						40.176,156.5 					"/>
					<polyline opacity="0.9" fill="#ED2A25" enable-background="new    " points="83.064,139.404 56.5,128.104 56.5,157 
						73.074,156.5 					"/>
					<polygon opacity="0.05" enable-background="new    " points="60,128 57,123.812 54,128 57,132.396 					"/>
				</g>
				<polygon opacity="0.05" fill="#FFFFFF" enable-background="new    " points="56.5,128.104 40.051,156.5 56.5,157 				"/>
				<polyline opacity="0.05" enable-background="new    " points="56.75,128.104 73.074,156.5 56.5,157 56.5,128 				"/>
			</g>
			<polygon fill="#FFFFFF" points="49.739,140 42.603,127.5 49.739,115 64.012,115 71.146,127.5 64.012,140 			"/>
			<g opacity="0.9">
				<path fill="#9E9E9E" d="M55.035,125.939h0.711l2.17,7.188l2.205-7.188h0.712l-2.847,9.311h-0.142L55.035,125.939z"/>
				<polygon fill="#9E9E9E" points="54.008,122.527 54.72,122.527 55.357,124.643 54.646,124.643 				"/>
				<polygon fill="#9E9E9E" points="54.447,123.99 55.16,123.99 55.798,126.107 55.086,126.107 				"/>
				<polygon fill="#9E9E9E" points="54.045,122.527 47.896,122.527 47.896,123.434 54.447,123.434 				"/>
				<polygon fill="#9E9E9E" points="60.283,125.939 67.548,125.939 67.548,126.736 59.986,126.736 				"/>
			</g>
		</g>
		<path fill="#ED2A25" d="M230.003,86"/>
		<polygon opacity="0.6" fill="#F8ED40" enable-background="new    " points="40.679,86 93.473,6.81 153.652,86 		"/>
		<polygon opacity="0.3" fill="#ED2A25" enable-background="new    " points="-29.479,86 37.482,-14.44 113.81,86 		"/>
		<polygon opacity="0.5" fill="#ED4798" enable-background="new    " points="-8.271,86 29.522,29.31 72.603,86 		"/>
		<polygon opacity="0.4" fill="#754D9E" enable-background="new    " points="136.68,86 189.473,6.81 249.652,86 		"/>
		<polygon opacity="0.4" fill="#06B052" enable-background="new    " points="69.969,86 136.165,-13.295 211.621,86 		"/>
		<polygon opacity="0.4" fill="#426EB5" enable-background="new    " points="170.695,86 236.893,-13.295 312.348,86 		"/>
		<polygon opacity="0.5" fill="#F7961D" enable-background="new    " points="203.729,86 241.521,29.31 284.604,86 		"/>
		<polygon opacity="0.6" fill="#ED4798" enable-background="new    " points="29.522,29.31 65.701,48.468 55.598,63.623 		"/>
		<polygon opacity="0.8" fill="#F8ED40" enable-background="new    " points="93.473,6.81 64.446,21.041 74.854,34.738 		"/>
		<polygon opacity="0.5" fill="#754D9E" enable-background="new    " points="189.473,6.81 217.146,16.322 207.593,30.654 		"/>
		<polygon opacity="0.6" fill="#F7961D" enable-background="new    " points="241.521,29.31 215.783,41.432 225.189,53.811 		"/>
		<polygon fill="#ED4798" points="40.679,86 55.598,63.623 72.603,86 		"/>
		<polygon fill="#F8ED40" points="71.198,84 90.43,55.27 113.81,86 72.5,86 		"/>
		<polygon fill="#06B052" points="136.68,86 144.611,74.104 153.652,86 		"/>
		<polygon fill="#426EB5" points="170.695,86 189.82,57.312 211.621,86 		"/>
		<polyline fill="#F7961D" points="207.634,80.051 225.159,53.811 249.652,86 211.5,86 207.634,80.753 		"/>
	</g>
	<polygon display="inline" opacity="0.7" fill="#F8ED40" enable-background="new    " points="-130.5,-41.876 -94.299,-17.742 
		-130.5,9.77 	"/>
	<polygon display="inline" opacity="0.6" fill="#754D9E" enable-background="new    " points="-130.5,3.91 -94.811,27.703 
		-130.5,54.826 	"/>
	<polygon display="inline" opacity="0.6" fill="#ED2A25" enable-background="new    " points="-130.5,-83.123 -88.822,-46.582 
		-130.5,-16.84 	"/>
	<polygon display="inline" opacity="0.6" fill="#06B052" enable-background="new    " points="-130.5,-26.18 -88.822,10.361 
		-130.5,40.104 	"/>
	<polygon display="inline" opacity="0.6" fill="#426EB5" enable-background="new    " points="-130.5,24.764 -88.822,61.305 
		-130.5,91.047 	"/>
	<polygon display="inline" opacity="0.8" fill="#F8ED40" enable-background="new    " points="-93.977,-17.742 -112.077,-29.809 
		-102.672,-36.469 	"/>
	<polygon display="inline" opacity="0.7" fill="#06B052" enable-background="new    " points="-130.5,48.18 -106.64,64.086 
		-130.5,82.218 	"/>
	<polygon display="inline" opacity="0.8" fill="#754D9E" enable-background="new    " points="-94.488,27.703 -111.811,40.867 
		-102.342,49.168 	"/>
	<polygon display="inline" opacity="0.7" fill="#ED4798" enable-background="new    " points="-104.277,21.4 -130.5,3.91 
		-130.5,40.123 	"/>
	<polygon display="inline" opacity="0.7" fill="#ED4798" enable-background="new    " points="-103.955,21.4 -111.811,40.867 
		-120.522,33.229 	"/>
	<polygon display="inline" opacity="0.9" fill="#06B052" enable-background="new    " points="-106.317,64.086 -118.928,46.373 
		-125.518,51.285 	"/>
	<polygon display="inline" opacity="0.8" fill="#06B052" enable-background="new    " points="-130.5,48.18 -125.84,51.285 
		-130.5,54.826 	"/>
	<polygon display="inline" opacity="0.5" fill="#426EB5" enable-background="new    " points="-111.811,40.867 -115.607,51.037 
		-118.928,46.373 	"/>
	<polygon display="inline" opacity="0.8" fill="#06B052" enable-background="new    " points="-88.5,10.361 -98.146,25.264 
		-103.955,21.4 	"/>
	<polygon display="inline" opacity="0.6" fill="#426EB5" enable-background="new    " points="-130.5,-26.18 -108.535,-6.922 
		-130.5,9.77 	"/>
	<polygon display="inline" opacity="0.7" fill="#426EB5" enable-background="new    " points="-108.213,-6.922 -119.195,11.231 
		-126.07,6.648 	"/>
	<polygon display="inline" opacity="0.6" fill="#426EB5" enable-background="new    " points="-130.5,-26.18 -124.627,-21.03 
		-130.5,-16.84 	"/>
	<polyline display="inline" opacity="0.8" fill="#ED2A25" enable-background="new    " points="-112.077,-29.809 -112.135,-29.701 
		-119.195,-16.551 -124.305,-21.03 	"/>
	<polygon display="inline" opacity="0.7" fill="#ED2A25" enable-background="new    " points="-88.5,-46.582 -101.49,-33.922 
		-102.672,-36.469 	"/>
	<polygon display="inline" opacity="0.7" fill="#426EB5" enable-background="new    " points="-88.5,61.305 -101.166,45.952 
		-102.342,49.168 	"/>
	<polygon display="inline" opacity="0.04" enable-background="new    " points="-88.5,10.361 -119.195,11.231 -108.213,-6.922 	"/>
	<polyline display="inline" opacity="0.05" fill="#FFFFFF" enable-background="new    " points="-88.5,-46.336 -109.5,-48.729 
		-130.5,-58.877 -130.5,-82.877 -130.5,-82.877 -88.661,-46.795 	"/>
	<polygon display="inline" opacity="0.9" fill="#ED4798" enable-background="new    " points="-106.317,-53.914 -118.248,-33.922 
		-125.928,-39.064 	"/>
	<polygon display="inline" opacity="0.7" fill="#ED4798" enable-background="new    " points="-130.5,-69.821 -106.64,-53.914 
		-130.5,-35.782 	"/>
	<polygon display="inline" opacity="0.05" fill="#FFFFFF" enable-background="new    " points="-88.661,61.343 -107.783,62.158 
		-106.519,64.096 -130.5,82.218 -130.5,91.123 	"/>
	<polygon display="inline" fill="#F8ED40" points="-126.393,-38.951 -130.5,-41.876 -130.5,-35.877 	"/>
	<polygon display="inline" opacity="0.9" fill="#F7961D" enable-background="new    " points="-130.5,72.173 -114.008,83.951 
		-130.5,101.119 	"/>
	<polygon display="inline" opacity="0.02" enable-background="new    " points="-93.977,-17.742 -119.195,-16.551 -108.213,-6.922 	
		"/>
	<polygon display="inline" fill="#F7961D" points="-113.885,83.951 -119.395,73.902 -123.55,77.049 	"/>
	<g display="inline">
		<rect y="-4" fill="#FFFFFF" width="272" height="94.745"/>
		<polygon opacity="0.8" fill="#426EB5" enable-background="new    " points="0.25,55.307 14.934,65.096 0.25,76.255 		"/>
		<polygon opacity="0.9" fill="#426EB5" enable-background="new    " points="14.306,65.096 13.03,68.055 11.598,67.152 		"/>
		<polygon opacity="0.7" fill="#F8ED40" enable-background="new    " points="-0.75,1.462 33.498,24.295 -0.75,50.32 		"/>
		<polygon opacity="0.6" fill="#ED2A25" enable-background="new    " points="-0.75,-25.38 42.689,1.944 -0.75,33.09 		"/>
		<polygon opacity="0.8" fill="#426EB5" enable-background="new    " points="-0.75,-29.694 13.934,-19.905 -0.75,-8.745 		"/>
		<polygon opacity="0.7" fill="#754D9E" enable-background="new    " points="-0.75,43.463 33.498,66.295 -0.75,92.32 		"/>
		<polygon opacity="0.6" fill="#06B052" enable-background="new    " points="-0.75,16.129 42.193,44.758 -0.75,77.391 		"/>
		<polygon opacity="0.7" fill="#ED4798" enable-background="new    " points="-0.75,-13.708 23.768,2.636 -0.75,21.27 		"/>
		<polygon opacity="0.6" fill="#ED4798" enable-background="new    " points="23.14,2.636 18.011,14.389 12.505,10.718 		"/>
		<polygon opacity="0.6" fill="#F8ED40" enable-background="new    " points="32.87,24.295 27.132,12.648 21.479,16.701 		"/>
		<polygon opacity="0.9" fill="#426EB5" enable-background="new    " points="13.306,-19.905 12.03,-16.946 10.598,-17.847 		"/>
		<polygon opacity="0.6" fill="#754D9E" enable-background="new    " points="23.254,74.079 33.498,66.295 26.458,76.124 		"/>
		<polygon opacity="0.8" fill="#426EB5" enable-background="new    " points="271.25,55.307 256.566,65.096 271.25,76.255 		"/>
		<polygon opacity="0.9" fill="#426EB5" enable-background="new    " points="257.634,65.096 258.909,68.055 260.342,67.152 		"/>
		<polygon opacity="0.7" fill="#F8ED40" enable-background="new    " points="272.25,1.462 238.002,24.295 272.25,50.32 		"/>
		<polygon opacity="0.6" fill="#ED2A25" enable-background="new    " points="272.25,-25.38 228.811,1.944 272.25,33.09 		"/>
		<polygon opacity="0.8" fill="#426EB5" enable-background="new    " points="272.25,-29.694 257.566,-19.905 272.25,-8.745 		"/>
		<polygon opacity="0.7" fill="#754D9E" enable-background="new    " points="272.25,43.463 238.002,66.295 272.25,92.32 		"/>
		<polygon opacity="0.6" fill="#06B052" enable-background="new    " points="272.25,16.129 229.307,44.758 272.25,77.391 		"/>
		<polygon opacity="0.7" fill="#ED4798" enable-background="new    " points="272.25,-13.708 247.732,2.636 272.25,21.27 		"/>
		<polygon opacity="0.9" fill="#426EB5" enable-background="new    " points="258.634,-19.905 259.909,-16.946 261.342,-17.847 		
			"/>
		<polygon opacity="0.6" fill="#F8ED40" enable-background="new    " points="238.002,24.295 244.157,12.948 249.393,16.701 		"/>
		<polygon opacity="0.6" fill="#ED4798" enable-background="new    " points="247.732,2.636 253.668,13.749 258.366,10.718 		"/>
		<polygon opacity="0.6" fill="#754D9E" enable-background="new    " points="238.002,66.295 242.999,77.391 248.254,74.085 		"/>
		<polygon opacity="0.7" fill="#ED4798" enable-background="new    " points="249.529,85.771 271.25,71.292 271.25,86 249.529,86 		
			"/>
		<polygon opacity="0.6" fill="#ED2A25" enable-background="new    " points="229.312,86 271.25,59.62 271.25,86 		"/>
		<polygon opacity="0.7" fill="#ED4798" enable-background="new    " points="0.25,71.292 22.314,86 0.25,86 		"/>
		<polygon opacity="0.7" fill="#ED4798" enable-background="new    " points="249.167,85.917 271.25,71.292 271.25,86 		"/>
		<polygon opacity="0.6" fill="#ED2A25" enable-background="new    " points="42.188,86 0,59.438 0,86 		"/>
	</g>
</g>
<rect x="0.033" y="-1.5" fill="#FFFFFF" width="272.551" height="89"/>
<linearGradient id="SVGID_1_" gradientUnits="userSpaceOnUse" x1="115.2666" y1="-150.603" x2="115.2666" y2="-59.522" gradientTransform="matrix(1 0 0 -1 29.5 -61)">
	<stop  offset="0" style="stop-color:#06B052;stop-opacity:0.5"/>
	<stop  offset="0.0256" style="stop-color:#11B351;stop-opacity:0.5089"/>
	<stop  offset="0.0703" style="stop-color:#2EBA4F;stop-opacity:0.5246"/>
	<stop  offset="0.1289" style="stop-color:#5DC64C;stop-opacity:0.545"/>
	<stop  offset="0.199" style="stop-color:#9ED647;stop-opacity:0.5696"/>
	<stop  offset="0.2782" style="stop-color:#EFEB41;stop-opacity:0.5972"/>
	<stop  offset="0.2861" style="stop-color:#F8ED40;stop-opacity:0.6"/>
	<stop  offset="0.577" style="stop-color:#F7961D;stop-opacity:0.6"/>
	<stop  offset="0.5888" style="stop-color:#F19522;stop-opacity:0.6028"/>
	<stop  offset="0.7367" style="stop-color:#A68461;stop-opacity:0.6378"/>
	<stop  offset="0.8593" style="stop-color:#70788E;stop-opacity:0.6667"/>
	<stop  offset="0.9504" style="stop-color:#4F71AA;stop-opacity:0.6883"/>
	<stop  offset="1" style="stop-color:#426EB5;stop-opacity:0.7"/>
</linearGradient>
<rect x="0.033" y="-1.478" display="none" fill="url(#SVGID_1_)" width="289.467" height="91.082"/>
<linearGradient id="SVGID_2_" gradientUnits="userSpaceOnUse" x1="94.7925" y1="290.5" x2="94.7925" y2="201.5" gradientTransform="matrix(1 0 0 1 43.5 -203)">
	<stop  offset="0.0568" style="stop-color:#9E9E9E;stop-opacity:0.3"/>
	<stop  offset="1" style="stop-color:#9E9E9E;stop-opacity:0.7"/>
</linearGradient>
<rect y="-1.5" display="none" fill="url(#SVGID_2_)" width="276.584" height="89"/>
<g display="none">
	<polygon display="inline" opacity="0.05" fill="#F8ED40" enable-background="new    " points="123.625,0 110.773,12.598 
		129.005,12.598 	"/>
	<polygon display="inline" opacity="0.05" fill="#754D9E" enable-background="new    " points="164.709,10.047 170.979,19.883 
		159.466,17.214 	"/>
	<polygon display="inline" opacity="0.05" fill="#F7961D" enable-background="new    " points="118.37,1.475 126.979,17.389 
		132.635,4.474 	"/>
	<polygon display="inline" opacity="0.05" fill="#ED2A25" enable-background="new    " points="137.989,2.955 123.29,6.829 
		138.349,16.176 	"/>
	<polygon display="inline" opacity="0.05" fill="#ED4798" enable-background="new    " points="143.945,0.462 131.791,11.058 
		141.393,16.268 	"/>
	<polygon display="inline" opacity="0.05" fill="#ED2A25" enable-background="new    " points="160.376,7.39 148.223,17.984 
		157.823,23.195 	"/>
	<polygon display="inline" opacity="0.05" fill="#754D9E" enable-background="new    " points="142.701,7.09 148.018,14.688 
		136.686,21.062 	"/>
	<polygon display="inline" opacity="0.05" fill="#426EB5" enable-background="new    " points="144.492,13.421 141.934,17.761 
		138.164,24.311 148.334,27.471 	"/>
	<polygon display="inline" opacity="0.05" fill="#06B052" enable-background="new    " points="148.117,34.852 148.334,27.471 
		146.941,22.537 145.081,26.459 145.592,32.076 	"/>
	<polygon display="inline" opacity="0.05" fill="#F8ED40" enable-background="new    " points="148.551,34.852 148.334,27.471 
		149.727,22.537 151.588,26.459 151.076,32.076 	"/>
	<polygon display="inline" opacity="0.05" fill="#ED4798" enable-background="new    " points="154.835,17.176 160.376,9.959 
		165.936,18.526 	"/>
	<polygon display="inline" opacity="0.05" fill="#F7961D" enable-background="new    " points="148.334,27.471 152.334,12.852 
		159.298,25.449 	"/>
	<g display="inline">
		<polygon opacity="0.7" fill="#ED4798" enable-background="new    " points="136.723,6.758 133.025,9.982 139.103,9.982 
			141.393,16.268 142.813,7.285 142.638,6.758 		"/>
		<polygon opacity="0.7" fill="#F8ED40" enable-background="new    " points="116.509,9.98 120.948,6.765 126.514,6.765 
			127.888,9.982 		"/>
		<polygon opacity="0.7" fill="#F7961D" enable-background="new    " points="121.231,6.765 122.972,9.982 130.223,9.982 
			131.631,6.765 		"/>
		<polygon opacity="0.7" fill="#754D9E" enable-background="new    " points="142.728,7.027 140.177,12.932 142.031,18.043 
			145.271,16.268 		"/>
		<polygon opacity="0.7" fill="#426EB5" enable-background="new    " points="144.487,13.421 141.931,17.766 145.081,26.459 
			148.334,27.471 		"/>
		<polygon opacity="0.7" fill="#06B052" enable-background="new    " points="145.081,26.459 146.984,22.537 148.334,27.471 
			148.117,34.852 		"/>
		<polygon opacity="0.7" fill="#F8ED40" enable-background="new    " points="149.727,22.537 151.543,26.365 148.551,34.852 
			148.334,27.471 		"/>
		<polygon opacity="0.7" fill="#F7961D" enable-background="new    " points="148.334,27.471 151.796,14.846 153.438,14.85 
			154.771,17.262 151.35,26.916 		"/>
		<polygon opacity="0.6" fill="#ED2A25" enable-background="new    " points="151.796,14.846 150.584,19.267 153.499,20.85 
			154.771,17.262 158.76,17.24 159.172,14.846 		"/>
		<polygon opacity="0.7" fill="#ED4798" enable-background="new    " points="156.607,14.855 154.771,17.262 165.113,17.262 
			163.779,15.206 163.044,14.846 		"/>
		<polygon opacity="0.6" fill="#754D9E" enable-background="new    " points="159.466,17.262 161.198,14.846 163.044,14.846 
			167.895,17.262 		"/>
		<polygon opacity="0.6" fill="#ED2A25" enable-background="new    " points="138.093,6.758 138.18,9.982 128.37,9.982 
			123.29,6.758 		"/>
	</g>
</g>
<g display="none">
	<polygon display="inline" opacity="0.5" fill="#426EB5" enable-background="new    " points="204,72.875 219.125,0 182.507,0 
		180.378,41.85 	"/>
	<polygon display="inline" opacity="0.5" fill="#F7961D" enable-background="new    " points="204,72.875 206.715,71.891 223.625,0 
		219.125,0 	"/>
	<g display="inline">
		<polyline opacity="0.5" fill="#ED4798" enable-background="new    " points="40.387,49.459 21.583,0 0.033,0 0.033,49.459 
			19.881,87.5 		"/>
		<polygon opacity="0.5" fill="#F7961D" enable-background="new    " points="48.44,65.688 40.387,49.459 21.375,0 48.44,-0.166 
			54.652,61.438 		"/>
		<polygon opacity="0.5" fill="#ED2A25" enable-background="new    " points="70.244,73.82 67.789,-0.166 91.125,0 90.687,41.323 		
			"/>
		<polygon opacity="0.5" fill="#ED2A25" enable-background="new    " points="103.79,59.6 90.687,41.323 91.125,0 103.095,0 		"/>
		<polygon opacity="0.5" fill="#ED4798" enable-background="new    " points="103.79,59.6 103.095,0 114.445,0 114.445,51.096 		"/>
		<polygon opacity="0.5" fill="#ED4798" enable-background="new    " points="114.445,51.096 114.445,0 122.75,-0.166 122.75,62.02 
					"/>
		<polygon opacity="0.5" fill="#06B052" enable-background="new    " points="122.75,62.02 122.75,-0.166 136.25,-0.166 
			136.197,41.85 		"/>
		<polygon opacity="0.5" fill="#06B052" enable-background="new    " points="136.197,41.85 136.25,-0.166 152.25,0 151.676,62.221 
					"/>
		<polygon opacity="0.5" fill="#754D9E" enable-background="new    " points="159.093,51.096 159.093,0 152.25,0 151.676,62.221 		
			"/>
		<polygon opacity="0.5" fill="#426EB5" enable-background="new    " points="61.322,77.908 54.652,61.438 48.457,0 57.417,-0.166 
			65.333,71.891 		"/>
		<polygon opacity="0.5" fill="#426EB5" enable-background="new    " points="65.333,71.891 57.417,-0.166 67.789,-0.166 
			70.244,73.834 		"/>
		<polygon opacity="0.5" fill="#426EB5" enable-background="new    " points="169.837,57.662 169.837,0 182.507,0 180.378,41.85 		
			"/>
		<polygon opacity="0.5" fill="#F7961D" enable-background="new    " points="212.363,79.323 219.605,61.438 233.625,0 223.625,0 
			206.715,71.891 		"/>
		<polygon opacity="0.5" fill="#ED2A25" enable-background="new    " points="219.605,61.438 233.625,0 247.084,0 233.871,49.459 
			225.753,65.705 		"/>
		<polygon opacity="0.6" fill="#F8ED40" enable-background="new    " points="254.377,87.5 276.617,49.833 276.617,-0.166 
			247.084,0 233.917,49.5 		"/>
		<polygon opacity="0.5" fill="#754D9E" enable-background="new    " points="159.093,51.096 169.837,57.662 169.837,0 159.093,0 		
			"/>
	</g>
</g>
<rect x="-24.25" y="841.5" opacity="0.7" fill="#ED4798" enable-background="new    " width="8" height="44"/>
<rect x="-24.25" y="808.5" opacity="0.6" fill="#ED2A25" enable-background="new    " width="8" height="44"/>
<rect x="-24.25" y="775.5" opacity="0.7" fill="#754D9E" enable-background="new    " width="8" height="44"/>
<rect x="-24.25" y="744.5" opacity="0.8" fill="#426EB5" enable-background="new    " width="8" height="44"/>
<rect x="-24.25" y="708.5" opacity="0.6" fill="#06B052" enable-background="new    " width="8" height="44"/>
<rect x="-24.25" y="635.5" opacity="0.8" fill="#F7961D" enable-background="new    " width="8" height="44"/>
<rect x="-24.25" y="671.5" opacity="0.8" fill="#F8ED40" enable-background="new    " width="8" height="44"/>
<rect x="-24.25" y="601.5" opacity="0.7" fill="#ED4798" enable-background="new    " width="8" height="44"/>
<rect x="-24.25" y="568.5" opacity="0.6" fill="#ED2A25" enable-background="new    " width="8" height="44"/>
<rect x="-24.25" y="535.5" opacity="0.7" fill="#754D9E" enable-background="new    " width="8" height="44"/>
<rect x="-24.25" y="504.5" opacity="0.8" fill="#426EB5" enable-background="new    " width="8" height="44"/>
<rect x="-24.25" y="468.5" opacity="0.6" fill="#06B052" enable-background="new    " width="8" height="44"/>
<rect x="248.584" y="-13.75" opacity="0.7" fill="#ED4798" enable-background="new    " width="8" height="44"/>
<rect x="343.25" y="-34.5" opacity="0.6" fill="#ED2A25" enable-background="new    " width="8" height="44"/>
<rect x="343.25" y="-67.5" opacity="0.7" fill="#754D9E" enable-background="new    " width="8" height="44"/>
<rect x="248.584" y="21.25" opacity="0.8" fill="#F7961D" enable-background="new    " width="8" height="44"/>
<rect x="276.084" y="-50.75" opacity="0.6" fill="#06B052" enable-background="new    " width="8" height="44"/>
<rect x="248.584" y="43.5" opacity="0.8" fill="#F8ED40" enable-background="new    " width="8" height="44"/>
<rect x="0.033" y="-162.75" opacity="0.7" fill="#ED4798" enable-background="new    " width="8" height="44"/>
<rect x="0.033" y="-129.75" opacity="0.6" fill="#ED2A25" enable-background="new    " width="8" height="44"/>
<rect x="0.033" y="-96.75" opacity="0.7" fill="#754D9E" enable-background="new    " width="8" height="44"/>
<rect x="0.033" y="-65.75" opacity="0.8" fill="#426EB5" enable-background="new    " width="8" height="44"/>
<rect x="-3" y="-28.75" opacity="0.6" fill="#06B052" enable-background="new    " width="8" height="44"/>
<rect x="-3" y="44.25" opacity="0.7" fill="#F7961D" enable-background="new    " width="8" height="44"/>
<rect x="-3" y="8.25" opacity="0.8" fill="#F8ED40" enable-background="new    " width="8" height="44"/>
<path display="none" opacity="0.4" fill="#9E9E9E" enable-background="new    " d="M63.697,72.816c0,0,4.33-59.566,72.665-59.566
	c68.335,0,68.09,59.729,68.09,59.729l-3.29,2.162l-23.24-30.584l-8.539,12.856l-11.969-4.114l-7.686,11.482l-15.37-20.225
	L122.643,62.13l-6.748-8.879l-12.554,6.202l-11.66-15.392l-20.787,31.18L63.697,72.816z"/>
<line opacity="0.8" fill="none" stroke="#9E9E9E" stroke-width="0.25" stroke-miterlimit="10" x1="40.25" y1="84.582" x2="216.583" y2="84.582"/>
</svg>
