<?xml version="1.0" encoding="utf-8"?>
<!-- Generator: Adobe Illustrator 16.0.4, SVG Export Plug-In . SVG Version: 6.00 Build 0)  -->
<!DOCTYPE svg PUBLIC "-//W3C//DTD SVG 1.1//EN" "http://www.w3.org/Graphics/SVG/1.1/DTD/svg11.dtd">
<svg version="1.1" id="Layer_1" xmlns="http://www.w3.org/2000/svg" xmlns:xlink="http://www.w3.org/1999/xlink" x="0px" y="0px"
	 width="199.975px" height="365.973px" viewBox="0 0 199.975 365.973" enable-background="new 0 0 199.975 365.973"
	 xml:space="preserve">
<rect x="0" fill="#FFFFFF" width="199.975" height="442.945"/>
<g>
	<polygon id="Yellow" fill="#F5EB30" points="30.204,52.252 16.838,29.1 30.204,5.948 56.938,5.948 70.304,29.1 56.938,52.252 	"/>
	<text transform="matrix(1 0 0 1 25.4465 65.1797)" fill="#B5B6B6" font-family="'CenturyGothic'" font-size="10.4324">Happy</text>
	<text transform="matrix(1 0 0 1 30.8308 77.6978)" fill="#B5B6B6" font-family="'CenturyGothic'" font-size="10.4324">Vibe</text>
	<ellipse fill="#FFFFFF" cx="38.298" cy="19.723" rx="5.119" ry="5.966"/>
	<ellipse fill="#FFFFFF" cx="49.676" cy="19.723" rx="5.119" ry="5.966"/>
	<path opacity="0.1" enable-background="new    " d="M35.156,12.606c0,0,2.537-3.975,4.877-1.691"/>
	<path opacity="0.1" enable-background="new    " d="M52.736,11.667c0,0-3.127-3.772-5.277-1.569"/>
	<path fill="#565656" d="M33.083,18.221c0,0,0.641-4.463,5.007-4.463c4.366,0,5.421,4.136,5.421,4.136s-1.662-3.54-5.421-3.54
		C34.331,14.354,33.083,18.221,33.083,18.221z"/>
	<path fill="#565656" d="M44.462,18.221c0,0,0.641-4.463,5.006-4.463c4.367,0,5.422,4.136,5.422,4.136s-1.663-3.54-5.422-3.54
		C45.71,14.354,44.462,18.221,44.462,18.221z"/>
	<ellipse fill="#F6EC13" cx="37.979" cy="21.36" rx="4.151" ry="4.462"/>
	<ellipse fill="#F6EC13" cx="50.091" cy="21.36" rx="4.151" ry="4.462"/>
	<circle fill="#565656" cx="38.089" cy="20.521" r="2.663"/>
	<circle fill="#565656" cx="49.676" cy="20.521" r="2.639"/>
	<ellipse fill="#FFFFFF" cx="36.488" cy="18.972" rx="0.519" ry="0.751"/>
	<ellipse fill="#FFFFFF" cx="51.426" cy="18.635" rx="0.52" ry="0.751"/>
	<path opacity="0.4" fill="none" stroke="#000000" stroke-miterlimit="10" enable-background="new    " d="M29.087,23.03
		c0,0,7.068,12.697,15.656,12.697c8.588,0,15.985-12.697,15.985-12.697"/>
	<path opacity="0.4" fill="none" stroke="#000000" stroke-miterlimit="10" enable-background="new    " d="M30.816,21.733
		c0,0-2.99,2.009-2.99,3.541"/>
	<path opacity="0.4" fill="none" stroke="#000000" stroke-miterlimit="10" enable-background="new    " d="M59.467,21.733
		c0,0,2.991,2.009,2.991,3.541"/>
	<path fill="#FBEE29" d="M47.177,24.93c0,0,7.616-1.392,7.616-4.038c0-2.646,1.512,3.308,0.782,4.038
		c-0.73,0.73-3.476,2.603-4.668,2.603C49.715,27.531,47.177,24.93,47.177,24.93z"/>
	<path fill="#EEE935" d="M40.904,24.912c0,0-7.616-1.393-7.616-4.038s-1.513,3.308-0.782,4.038c0.73,0.73,3.476,2.601,4.669,2.601
		S40.904,24.912,40.904,24.912z	">
<animate  fill="remove" attributeName="Expression_2" accumulate="none" dur="2sec" additive="replace" from="1sec" to="3sec" restart="always" calcMode="linear" repeatCount="3">
			</animate>
	</path>
	<path fill="#EEE935" d="M2.071,0"/>
</g>
<g id="Relaxed_Vibe">
	<polygon id="Orange" fill="#F68521" points="141.054,52.252 127.687,29.1 141.054,5.948 167.786,5.948 181.154,29.1 
		167.786,52.252 	"/>
	<text transform="matrix(1 0 0 1 134.8782 65.1797)" fill="#B5B6B6" font-family="'CenturyGothic'" font-size="10.4324">Relaxed</text>
	<text transform="matrix(1 0 0 1 143.8538 77.6978)" fill="#B5B6B6" font-family="'CenturyGothic'" font-size="10.4324">Vibe</text>
	<g id="Expression_1_">
		<path fill="none" stroke="#000000" stroke-miterlimit="10" d="M160.36,34.625c0,0,4.852,0.925,4.852-5.148"/>
		<path d="M141.34,10.704c0,0,1.495-3.365,3.458-3.365"/>
		<path d="M167.215,10.704c0,0-1.496-3.365-3.459-3.365"/>
		
			<animateTransform  type="opacity" fill="remove" begin="0s" attributeName="transform" accumulate="none" dur="3s" additive="replace" from="0" to="100%" restart="always" calcMode="linear" repeatCount="indefinite">
			</animateTransform>
		<g>
			<circle fill="#FFFFFF" cx="144.583" cy="16.379" r="4.781"/>
			<g>
				<ellipse fill="#F6851F" cx="144.722" cy="15.566" rx="2.754" ry="2.96"/>
				<circle fill="#565656" cx="144.794" cy="15.01" r="1.766"/>
				<ellipse fill="#FFFFFF" cx="143.732" cy="13.982" rx="0.345" ry="0.498"/>
			</g>
			<path fill="#565656" d="M139.479,16.02c0,0,0.634-5.108,4.958-5.108c4.323,0,5.368,4.734,5.368,4.734s-1.646-4.05-5.368-4.05
				C140.716,11.595,139.479,16.02,139.479,16.02z"/>
		</g>
		<g>
			<circle fill="#FFFFFF" cx="165.108" cy="16.192" r="4.781"/>
			<g>
				<ellipse fill="#F6851F" cx="165.686" cy="15.379" rx="2.753" ry="2.96"/>
				<circle fill="#565656" cx="165.758" cy="14.823" r="1.767"/>
				<ellipse fill="#FFFFFF" cx="164.697" cy="13.795" rx="0.345" ry="0.498"/>
			</g>
			<path fill="#565656" d="M170.271,16.185c0,0-0.635-5.109-4.957-5.109c-4.323,0-5.368,4.733-5.368,4.733s1.646-4.051,5.368-4.051
				C169.034,11.759,170.271,16.185,170.271,16.185z"/>
		</g>
		<g>
			<path d="M135.017,14.417l-0.877,1.315c0,0,2.192,2.302,2.192,4.385s2.631,7.235,7.453,7.235s8.44-1.646,8.769-4.824
				c0.329-3.178,1.314-3.507,1.314-3.507h1.974c0,0,1.426,1.973,1.426,3.507c0,1.536,2.74,6.578,8.879,4.824
				c6.139-1.754,7.344-4.057,7.344-7.015c0-2.96,1.314-3.509,1.973-4.494c0.658-0.987,0-1.425,0-1.425h-12.277
				c0,0-4.822,2.192-5.59,2.192c-0.767,0-4.383,0-4.383,0s-3.729-2.192-5.59-2.192C145.759,14.417,135.017,14.417,135.017,14.417z"
				/>
			<path fill="#FFFFFF" d="M140.508,17.07c0,0-3.561,2.062-1.624,3.998c1.935,1.935-0.9-0.077,0.523-1.501
				C140.832,18.142,140.508,17.07,140.508,17.07z"/>
			<path fill="#FFFFFF" d="M160.09,23.005c0,0,0.374,2.561,1.873,2.561c1.5,0,2.624,0,2.624,0s-1.358,0.107-2.249-0.782
				C161.448,23.894,160.09,23.005,160.09,23.005z"/>
			<path fill="#FFFFFF" d="M150.627,22.676c0,0-0.376,2.56-1.874,2.56s-2.623,0-2.623,0s1.358,0.109,2.249-0.781
				C149.269,23.564,150.627,22.676,150.627,22.676z"/>
			<path fill="#FFFFFF" d="M165.806,17.07c0,0,5.977-0.111,6.087,0c0.11,0.112,1.026,1.674,0,2.398
				c-1.027,0.724-0.652-1.224-1.964-1.224C168.615,18.245,165.806,17.07,165.806,17.07z"/>
		</g>
	</g>
</g>
<g id="Love_Vibe">
	<polygon id="Pink" fill="#E30E89" points="87.448,110.976 74.082,87.824 87.448,64.672 114.181,64.672 127.548,87.824 
		114.181,110.976 	"/>
	<text transform="matrix(1 0 0 1 87.6238 126.6255)" fill="#B5B6B6" font-family="'CenturyGothic'" font-size="10.4324">Love</text>
	<text transform="matrix(1 0 0 1 88.0745 139.1436)" fill="#B5B6B6" font-family="'CenturyGothic'" font-size="10.4324">Vibe</text>
	<g id="Expression">
		
			<ellipse transform="matrix(-0.0121 -0.9999 0.9999 -0.0121 18.6178 173.2905)" fill="#FFFFFF" cx="94.908" cy="77.449" rx="5.225" ry="5.136"/>
		
			<ellipse transform="matrix(-0.0121 -0.9999 0.9999 -0.0121 31.8854 184.7202)" fill="#FFFFFF" cx="107.188" cy="76.61" rx="5.226" ry="5.136"/>
		<path fill="#4A3E4D" d="M92.313,70.151c0,0,2.457-3.85,4.723-1.638"/>
		<path fill="#4A3E4D" d="M109.339,69.242c0,0-3.028-3.654-5.111-1.521"/>
		<path fill="#E10687" d="M97.915,74.704c-0.099-0.031-0.193-0.056-0.283-0.074c-0.714-0.15-1.121,0.086-1.611,0.471
			c-0.293-0.549-0.572-0.929-1.284-1.079c-0.091-0.019-0.185-0.034-0.289-0.046c-0.631-0.07-1.464,0.346-1.777,1.412l-0.076,0.36
			c-0.137,1.054,0.377,2.498,2.329,4.584c2.625-1.126,3.677-2.241,3.977-3.26l0.076-0.362
			C99.117,75.609,98.521,74.893,97.915,74.704z"/>
		<path fill="#E10687" d="M107.167,73.445c-0.102,0.026-0.195,0.054-0.279,0.084c-0.688,0.246-0.912,0.659-1.129,1.244
			c-0.537-0.315-0.973-0.494-1.658-0.249c-0.087,0.031-0.176,0.068-0.271,0.111c-0.573,0.271-1.067,1.06-0.778,2.133l0.124,0.347
			c0.436,0.97,1.628,1.933,4.381,2.692c1.65-2.332,1.966-3.832,1.687-4.857l-0.124-0.347
			C108.663,73.589,107.782,73.291,107.167,73.445z"/>
		<path opacity="0.2" fill="#FFFFFF" enable-background="new    " d="M89.893,78.605c0,0,0.823,4.073,5.075,4.073
			c4.25,0,4.945-4.073,4.945-4.073s-2.449,2.879-5.011,2.879C92.343,81.485,89.893,78.605,89.893,78.605z"/>
		<path fill="#4A3E4D" d="M89.836,76.452c0,0,0.621-4.324,4.85-4.324c4.229,0,5.251,4.006,5.251,4.006s-1.61-3.427-5.251-3.427
			C91.046,72.708,89.836,76.452,89.836,76.452z"/>
		<path fill="#4A3E4D" d="M102.052,76.118c0,0,0.479-4.729,5.138-4.729c4.658,0,5.138,4.729,5.138,4.729s-1.694-4.203-5.138-4.203
			C103.745,71.915,102.052,76.118,102.052,76.118z"/>
		<g>
			<path fill="#D70D87" d="M88.098,81.231c0,0,2.471-0.114,6.667,0.319c4.197,0.433,5.088,1.738,5.088,1.738l-5.277,0.095
				L88.098,81.231z"/>
			<path fill="#D70D87" d="M114.537,79.431c0,0-2.461,0.263-6.541,1.329c-4.083,1.067-4.765,2.493-4.765,2.493l5.23-0.709
				L114.537,79.431z"/>
		</g>
		<path fill="#FFFFFF" d="M95.321,75.097c0,0-0.223-0.806-1.084-0.806c-0.86,0-1.19,1.293-1.19,1.293s0.25-0.647,1.137-0.647
			C95.072,74.938,95.321,75.097,95.321,75.097z"/>
		<path fill="#FFFFFF" d="M108.424,74.559c0,0-0.223-0.806-1.083-0.806c-0.861,0-1.192,1.293-1.192,1.293s0.249-0.647,1.137-0.647
			C108.175,74.4,108.424,74.559,108.424,74.559z"/>
		<g>
			<path fill="none" stroke="#4A3E4D" stroke-width="0.5" stroke-miterlimit="10" d="M87.036,81.783c0,0,1.362,9.015,14.366,9.015
				c13.005,0,13.085-9.015,13.085-9.015"/>
			<path fill="none" stroke="#4A3E4D" stroke-width="0.5" stroke-miterlimit="10" d="M84.76,83.489c0,0,2.546-2.383,3.953-2.383"/>
			<path fill="none" stroke="#4A3E4D" stroke-width="0.5" stroke-miterlimit="10" d="M116.871,83.109c0,0-2.113-1.679-4.009-1.679"
				/>
		</g>
		<path opacity="0.1" fill="#4A3E4D" enable-background="new    " d="M93.975,90.746c0,0,4.195,1.515,7.454,1.515
			c3.258,0,6.778-1.515,6.778-1.515s-3.8,3.626-6.72,3.194C98.569,93.506,93.975,90.746,93.975,90.746z"/>
		<path opacity="0.2" fill="#FFFFFF" enable-background="new    " d="M91.949,88.809c0,0,3.894,2.233,9.479,2.233
			s8.875-2.233,8.875-2.233s-4.357,3.29-8.816,3.29C97.029,92.098,91.949,88.809,91.949,88.809z"/>
	</g>
</g>
<g id="Bored_Vibe">
	<polygon id="Purple" fill="#A555A1" points="142.769,172.896 129.403,149.744 142.769,126.592 169.502,126.592 182.868,149.744 
		169.502,172.896 	"/>
	<text transform="matrix(1 0 0 1 141.1936 188.5454)" fill="#B5B6B6" font-family="'CenturyGothic'" font-size="10.4324">Bored</text>
	<text transform="matrix(1 0 0 1 144.4817 201.0635)" fill="#B5B6B6" font-family="'CenturyGothic'" font-size="10.4324">Vibe</text>
	<g id="Expresssion">
		<ellipse opacity="0.3" fill="#010101" enable-background="new    " cx="148.104" cy="142.389" rx="7.1" ry="8.031"/>
		<ellipse opacity="0.3" fill="#010101" enable-background="new    " cx="164.297" cy="142.389" rx="7.101" ry="8.031"/>
		<g>
			<ellipse opacity="0.1" fill="#FFFFFF" enable-background="new    " cx="148.338" cy="142.483" rx="8.035" ry="8.948"/>
			<ellipse opacity="0.1" fill="#FFFFFF" enable-background="new    " cx="164.368" cy="142.483" rx="8.035" ry="8.948"/>
		</g>
		<path fill="#FFFFFF" stroke="#753E78" stroke-miterlimit="10" d="M142.331,140.953c0,0,0,7.534,6.358,7.534
			c6.357,0,6.357-7.534,6.357-7.534H142.331L142.331,140.953z"/>
		<path fill="#FFFFFF" stroke="#773D78" stroke-miterlimit="10" d="M157.494,140.953c0,0,0,7.534,6.357,7.534
			c6.358,0,6.358-7.534,6.358-7.534H157.494L157.494,140.953z"/>
		<ellipse fill="#A355A1" cx="146.788" cy="141.545" rx="3.903" ry="2.792"/>
		<ellipse fill="#A355A1" cx="162.229" cy="141.545" rx="3.866" ry="2.792"/>
		<ellipse fill="#060505" cx="146.71" cy="141.962" rx="3.033" ry="1.871"/>
		<ellipse fill="#060505" cx="162.222" cy="141.962" rx="2.891" ry="1.871"/>
		<ellipse fill="#FFFFFF" cx="146.063" cy="141.562" rx="0.646" ry="0.876"/>
		<ellipse fill="#FFFFFF" cx="161.413" cy="141.563" rx="0.635" ry="0.874"/>
		<g>
			<path fill="#8F4D91" d="M157.128,141.97h14.479c0,0-0.436-7.687-7.239-7.687C157.564,134.284,157.128,141.97,157.128,141.97z"/>
			<path fill="#8F4D91" d="M140.864,141.97h14.479c0,0-0.437-7.687-7.24-7.687S140.864,141.97,140.864,141.97z"/>
		</g>
		<ellipse opacity="0.1" fill="#FFFFFF" enable-background="new    " cx="155.213" cy="152.456" rx="1.06" ry="1.167"/>
		<ellipse opacity="0.1" fill="#FFFFFF" enable-background="new    " cx="157.302" cy="152.456" rx="1.06" ry="1.167"/>
		<ellipse fill="#010101" cx="155.314" cy="152.284" rx="0.674" ry="0.743"/>
		<ellipse fill="#010101" cx="157.241" cy="152.284" rx="0.667" ry="0.743"/>
		<path fill="none" stroke="#010101" stroke-miterlimit="10" d="M155.444,159.021c0.217-0.368,0.633-0.642,0.967-0.885
			c0.276-0.198,0.438-0.253,0.783-0.253c0.343,0.001,0.595,0.005,0.917,0.112c0.244,0.082,0.529,0.199,0.75,0.331"/>
		<path opacity="0.3" fill="none" stroke="#010101" stroke-miterlimit="10" enable-background="new    " d="M140.723,141.97
			c0,0,0.32-7.687,7.476-7.687s7.006,7.687,7.006,7.687"/>
		<path opacity="0.3" fill="none" stroke="#010101" stroke-miterlimit="10" enable-background="new    " d="M157.057,141.97
			c0,0,0.321-7.687,7.476-7.687s7.005,7.687,7.005,7.687"/>
	</g>
</g>
<g id="Angry_Vibes">
	<polygon id="Red" fill="#C72128" points="87.76,247.834 74.393,224.682 87.76,201.53 114.493,201.53 127.86,224.682 
		114.493,247.834 	"/>
	<text transform="matrix(1 0 0 1 85.1262 264.2393)" fill="#B5B6B6" font-family="'CenturyGothic'" font-size="10.4324">Angry</text>
	<text transform="matrix(1 0 0 1 88.386 276.7578)" fill="#B5B6B6" font-family="'CenturyGothic'" font-size="10.4324">Vibe</text>
	<g id="expression">
		<path d="M94.728,234.011c0,0,3.46-3.418,6.41-3.418c2.95,0,6.411,3.178,6.411,3.178s-3.16-3.92-6.411-3.92
			c-3.25,0-6.41,3.92-6.41,3.92"/>
		<g>
			<path opacity="0.8" enable-background="new    " d="M99.609,215.544c0,0,0.147-1.979-0.947-3.073
				c-1.094-1.093-4.137-3.486-7.092-3.486c-2.955,0-3.25,0.886-2.66,1.478c0.592,0.592,4.995,1.033,6.502,2.541
				C96.919,214.511,99.609,215.544,99.609,215.544z"/>
			<ellipse cx="96.039" cy="217.613" rx="3.162" ry="4.255"/>
			<path opacity="0.6" enable-background="new    " d="M92.94,218.535c0,0,0.624,3.333,3.078,3.333c2.456,0,3.108-3.333,3.108-3.333
				s-1.256,2.797-3.108,2.797C94.166,221.332,92.94,218.535,92.94,218.535z"/>
			<path opacity="0.1" fill="#FFFFFF" enable-background="new    " d="M92.94,218.535c0,0,0.224,3.857,3.094,3.857
				s3.093-3.857,3.093-3.857s-0.66,3.333-3.108,3.333C93.57,221.868,92.94,218.535,92.94,218.535z"/>
			<ellipse opacity="0.2" fill="#FFFFFF" enable-background="new    " cx="96.084" cy="217.627" rx="1.545" ry="2.811"/>
			<path fill="#C32126" d="M93.165,216.123c0,0,0.662-2.615,2.918-2.615c2.257,0,2.919,2.615,2.919,2.615s-0.726-1.643-2.875-1.643
				C93.98,214.48,93.165,216.123,93.165,216.123z"/>
			<circle fill="#FFFFFF" cx="96.083" cy="217.613" r="0.322"/>
		</g>
		<g>
			<path opacity="0.8" enable-background="new    " d="M103.381,215.729c0,0-0.146-1.979,0.946-3.074
				c1.093-1.093,4.137-3.486,7.093-3.486c2.955,0,3.25,0.887,2.659,1.478c-0.59,0.591-4.993,1.034-6.501,2.541
				S103.381,215.729,103.381,215.729z"/>
			<ellipse cx="106.787" cy="217.798" rx="3.162" ry="4.256"/>
			<path opacity="0.6" enable-background="new    " d="M103.693,218.719c0,0,0.624,3.334,3.079,3.334
				c2.454,0,3.107-3.334,3.107-3.334s-1.256,2.798-3.107,2.798S103.693,218.719,103.693,218.719z"/>
			<path opacity="0.1" fill="#FFFFFF" enable-background="new    " d="M103.693,218.719c0,0,0.224,3.858,3.094,3.858
				c2.871,0,3.093-3.858,3.093-3.858s-0.659,3.334-3.107,3.334C104.324,222.053,103.693,218.719,103.693,218.719z"/>
			<ellipse opacity="0.2" fill="#FFFFFF" enable-background="new    " cx="106.786" cy="217.812" rx="1.546" ry="2.811"/>
			<path fill="#C32126" d="M103.867,216.309c0,0,0.662-2.616,2.919-2.616s2.919,2.616,2.919,2.616s-0.727-1.643-2.875-1.643
				C104.684,214.666,103.867,216.309,103.867,216.309z"/>
			<circle fill="#FFFFFF" cx="106.786" cy="217.798" r="0.322"/>
		</g>
	</g>
</g>
<g id="Embarrassed_Vibe">
	<polygon id="Blush" fill="#DB6081" points="32.026,172.523 18.66,149.371 32.026,126.219 58.76,126.219 72.126,149.371 
		58.76,172.523 	"/>
	<text transform="matrix(1 0 0 1 12.8694 188.9277)" fill="#B5B6B6" font-family="'CenturyGothic'" font-size="10.4324">Embarrassed</text>
	<text transform="matrix(1 0 0 1 33.7395 201.4458)" fill="#B5B6B6" font-family="'CenturyGothic'" font-size="10.4324">Vibe</text>
	<g id="Expression_5_">
		<path fill="#565656" d="M32.998,131.654c0,0,1.871-3.784,8.079-3.784"/>
		<path fill="#565656" d="M56.594,131.167c0,0-1.871-3.784-8.079-3.784"/>
		<circle opacity="0.3" fill="#D81E41" enable-background="new    " cx="31.419" cy="151.881" r="8.537"/>
		<circle opacity="0.3" fill="#D81E41" enable-background="new    " cx="32.604" cy="150.038" r="7.229"/>
		<circle opacity="0.3" fill="#D81E41" enable-background="new    " cx="58.498" cy="150.038" r="7.229"/>
		<circle opacity="0.3" fill="#D81E41" enable-background="new    " cx="59.462" cy="151.881" r="8.537"/>
		<circle fill="#FFFFFF" cx="54.799" cy="144.438" r="6.989"/>
		<path fill="#565656" d="M47.831,143.67c0,0,0.908-6.222,6.989-6.222c6.082,0,6.946,6.222,6.946,6.222s-1.872-5.625-6.946-5.625
			C49.746,138.045,47.831,143.67,47.831,143.67z"/>
		<circle fill="#565656" cx="54.798" cy="144.438" r="1.344"/>
		<path opacity="0.1" fill="#FFFFFF" enable-background="new    " d="M48.043,148.586c0,0,3.588,4.099,6.968,4.099
			c3.381,0,6.543-4.099,6.543-4.099s-2.427,5.153-6.543,5.153C50.896,153.74,48.043,148.586,48.043,148.586z"/>
		<path opacity="0.4" fill="#FFFFFF" enable-background="new    " d="M53.844,144.612c0,0,0.091,0.947,0.996,0.947
			c0.906,0,0.911-0.947,0.911-0.947s-0.259,0.474-0.953,0.474C54.104,145.085,53.844,144.612,53.844,144.612z"/>
		<circle fill="#FFFFFF" cx="36.63" cy="144.438" r="6.989"/>
		<path fill="#565656" d="M29.64,143.67c0,0,0.908-6.222,6.988-6.222c6.082,0,6.948,6.222,6.948,6.222s-1.872-5.625-6.948-5.625
			C31.554,138.045,29.64,143.67,29.64,143.67z"/>
		<circle fill="#565656" cx="36.884" cy="144.438" r="1.228"/>
		<path opacity="0.1" fill="#FFFFFF" enable-background="new    " d="M29.64,148.586c0,0,3.587,4.099,6.968,4.099
			c3.38,0,6.543-4.099,6.543-4.099s-2.427,5.153-6.543,5.153C32.491,153.74,29.64,148.586,29.64,148.586z"/>
		<path opacity="0.4" fill="#FFFFFF" enable-background="new    " d="M35.973,144.438c0,0,0.084,0.865,0.91,0.865
			c0.825,0,0.831-0.865,0.831-0.865s-0.236,0.433-0.871,0.433C36.21,144.871,35.973,144.438,35.973,144.438z"/>
		<path opacity="0.4" enable-background="new    " d="M49.159,163.284c0,0.391-0.316,0.708-0.708,0.708h-5.339
			c-0.391,0-0.708-0.317-0.708-0.708l0,0c0-0.391,0.317-0.708,0.708-0.708h5.339C48.843,162.575,49.159,162.892,49.159,163.284
			L49.159,163.284z"/>
	</g>
</g>
<g id="Sad_vibe">
	<polygon id="Blue" fill="#6BCCE3" points="32.027,313.261 18.66,290.108 32.027,266.958 58.76,266.958 72.126,290.108 
		58.76,313.261 	"/>
	<text transform="matrix(1 0 0 1 34.573 328.7969)" fill="#B5B6B6" font-family="'CenturyGothic'" font-size="10.4324">Sad</text>
	<text transform="matrix(1 0 0 1 32.6526 341.3154)" fill="#B5B6B6" font-family="'CenturyGothic'" font-size="10.4324">Vibe</text>
	<g id="Expression_4_">
		<circle fill="#FFFFFF" cx="57.181" cy="286.633" r="0.717"/>
		<path fill="#565656" d="M62.226,279.963c0,0-0.567,4.535-5.387,4.535s-6.661-4.535-6.661-4.535s3.26,2.268,6.377,2.268
			C59.673,282.23,62.226,279.963,62.226,279.963z"/>
		<ellipse fill="#010101" cx="36.074" cy="284.106" rx="5.764" ry="8.607"/>
		<ellipse fill="#010101" cx="54.487" cy="283.209" rx="5.764" ry="8.608"/>
		<path fill="#FFFFFF" d="M36.669,282.553c0,0-2.673,0.216-2.673,1.553c0,1.336,0.172,0.906,1.078,0S36.669,282.553,36.669,282.553z
			"/>
		<path fill="#FFFFFF" d="M56.464,282.553c0,0-2.674,0.216-2.674,1.553c0,1.336,0.173,0.906,1.079,0
			C55.775,283.199,56.464,282.553,56.464,282.553z"/>
		<path fill="#69CCE1" d="M42.448,273.237c0,0-12.479,13.923-16.43,9.972c-3.952-3.95,3.009-3.86,6.857-7.71
			c3.848-3.849,4.657-4.979,7.763-4.979c3.105,0,2.847,3.376,2.847,4.081C43.485,275.308,42.448,273.237,42.448,273.237z"/>
		<path fill="#69CCE1" d="M48.18,273.237c0,0,12.48,13.923,16.431,9.972c3.951-3.95-3.009-3.86-6.856-7.71
			c-3.849-3.849-4.658-4.979-7.764-4.979c-3.104,0-2.846,3.376-2.846,4.081C47.145,275.308,48.18,273.237,48.18,273.237z"/>
		<path fill="#69CCE1" d="M25.582,289.922c0,0,3.548-0.164,9.576,0.459c6.027,0.621,7.307,2.496,7.307,2.496l-7.58,0.137
			L25.582,289.922z"/>
		<path fill="#69CCE1" d="M65.967,287.35c0,0-3.448,0.367-9.168,1.863c-5.722,1.495-6.677,3.493-6.677,3.493l7.331-0.993
			L65.967,287.35z"/>
		<path opacity="0.5" fill="#010101" enable-background="new    " d="M36.553,306.798c0,0,4.637-11.773,9.043-11.773
			c4.405,0,7.304,8.668,7.304,8.668s-2.436-6.857-7.189-6.857C40.959,296.836,36.553,306.798,36.553,306.798z"/>
		<circle fill="#FFFFFF" cx="37.385" cy="286.633" r="0.717"/>
		<path opacity="0.5" fill="#010101" enable-background="new    " d="M43.489,300.912c0,0,2.342,2.181,4.523,0s-1.135,1.128-2.262,0
			C44.623,299.785,43.489,300.912,43.489,300.912z"/>
		<path opacity="0.5" fill="#010101" enable-background="new    " d="M42.448,273.237c0,0-9.272,10.516-14.447,10.516
			c-5.174,0,2.623-0.656,7.224-5.258C39.827,273.893,42.448,273.237,42.448,273.237z"/>
		<path opacity="0.5" fill="#010101" enable-background="new    " d="M48.213,273.237c0,0,9.271,10.516,14.447,10.516
			c5.175,0-2.622-0.656-7.224-5.258C50.835,273.893,48.213,273.237,48.213,273.237z"/>
	</g>
</g>
<g id="Fear_Vibe">
	<polygon id="Green" fill="#6DBA45" points="145.494,313.14 132.127,289.987 145.494,266.837 172.227,266.837 185.594,289.987 
		172.227,313.14 	"/>
	<text transform="matrix(1 0 0 1 147.8108 328.2412)" fill="#B5B6B6" font-family="'CenturyGothic'" font-size="10.4324">Fear</text>
	<text transform="matrix(1 0 0 1 147.2073 340.7598)" fill="#B5B6B6" font-family="'CenturyGothic'" font-size="10.4324">Vibe</text>
	<g id="Expression_3_">
		<path fill="#565656" d="M145.061,269.613c0,0,8.035,0.154,8.035-2.365"/>
		<path fill="#565656" d="M173.529,269.613c0,0-8.033,0.154-8.033-2.365"/>
		<g>
			<ellipse fill="#FFFFFF" cx="152.544" cy="278.194" rx="3.975" ry="6.034"/>
			<circle fill="#565656" cx="152.94" cy="278.876" r="2.564"/>
		</g>
		<g>
			<ellipse fill="#FFFFFF" cx="166.277" cy="278.194" rx="3.975" ry="6.034"/>
			<circle fill="#565656" cx="166.276" cy="278.876" r="2.564"/>
		</g>
		<path fill="#60AF46" d="M148.024,281.718c0,0,5.926,2.483,7.95,0.458c2.026-2.025-2.088,3.022-4.376,3.022
			C149.308,285.198,148.024,281.718,148.024,281.718z"/>
		<path fill="#60AF46" d="M170.308,281.766c0,0-5.924,2.482-7.949,0.459c-2.025-2.026,2.088,3.022,4.376,3.022
			C169.026,285.247,170.308,281.766,170.308,281.766z"/>
		<g>
			<ellipse opacity="0.1" enable-background="new    " cx="159.552" cy="302.247" rx="4.918" ry="9.496"/>
			<path fill="#FFFFFF" d="M155.975,307.567c0,0,1.369,3.327,3.577,3.327c2.204,0,3.22-3.327,3.22-3.327H155.975z"/>
		</g>
		<path fill="#FFFFFF" d="M174.4,278.972c0,0-1.959,4.73,0,4.73C176.361,283.702,174.4,278.972,174.4,278.972z"/>
		<path fill="#FFFFFF" d="M145.061,272.933c0,0-1.96,4.731,0,4.731S145.061,272.933,145.061,272.933z"/>
	</g>
</g>
</svg>
