<?xml version="1.0" encoding="utf-8"?>
<!-- Generator: Adobe Illustrator 16.0.4, SVG Export Plug-In . SVG Version: 6.00 Build 0)  -->
<!DOCTYPE svg PUBLIC "-//W3C//DTD SVG 1.1//EN" "http://www.w3.org/Graphics/SVG/1.1/DTD/svg11.dtd">
<svg version="1.1" xmlns="http://www.w3.org/2000/svg" xmlns:xlink="http://www.w3.org/1999/xlink" x="0px" y="0px"
	 width="222.001px" height="46.584px" viewBox="-24.25 0 222.001 46.584" enable-background="new -24.25 0 222.001 46.584"
	 xml:space="preserve">
<g id="Layer_1" display="none">
	<g id="Layer_1_1_">
		<g id="Layer_2" display="inline">
			<g>
				<polygon fill="#ADADAD" points="-26.145,25.665 -33.5,12.923 -26.145,0.183 -11.433,0.183 -4.079,12.923 -11.433,25.665 				"/>
				<polygon fill="#ADADAD" points="-33.5,12.923 -18.79,42 -4.079,12.923 				"/>
			</g>
			<polygon opacity="0.05" enable-background="new    " points="-33.5,12.923 -18.79,42 -17.159,38.779 -28.989,14 			"/>
			<polyline opacity="0.1" fill="#FFFFFF" enable-background="new    " points="-23.854,3.493 -26.145,0.183 -33.5,12.923 
				-28.989,14 			"/>
		</g>
		<path display="inline" fill="#79CCCA" d="M73.553,27.521l1.912-13.353h0.217l5.428,10.954l5.375-10.954h0.214l1.922,13.353h-1.31
			l-1.318-9.548l-4.721,9.548H80.93L76.153,17.9l-1.312,9.622H73.553L73.553,27.521z"/>
		<path display="inline" fill="#64BB46" d="M102.917,17.646v9.875h-1.252v-1.697c-0.533,0.646-1.13,1.134-1.794,1.46
			c-0.663,0.327-1.387,0.491-2.173,0.491c-1.397,0-2.591-0.508-3.58-1.521c-0.99-1.014-1.485-2.248-1.485-3.697
			c0-1.425,0.5-2.642,1.498-3.648c0.999-1.012,2.199-1.516,3.604-1.516c0.812,0,1.545,0.171,2.201,0.517
			c0.657,0.346,1.232,0.862,1.729,1.553v-1.816H102.917z M97.84,18.618c-0.708,0-1.359,0.174-1.958,0.521
			c-0.598,0.349-1.073,0.836-1.429,1.464c-0.354,0.628-0.53,1.293-0.53,1.995c0,0.695,0.179,1.36,0.535,1.994
			c0.356,0.635,0.835,1.131,1.438,1.483c0.601,0.353,1.246,0.53,1.936,0.53c0.695,0,1.354-0.176,1.977-0.526
			s1.103-0.826,1.438-1.423c0.336-0.598,0.504-1.272,0.504-2.022c0-1.141-0.376-2.097-1.129-2.864S98.939,18.618,97.84,18.618z"/>
		<path display="inline" opacity="0.8" fill="#D81D34" enable-background="new    " d="M107.839,17.646h1.271v1.816
			c0.502-0.69,1.078-1.207,1.731-1.553c0.653-0.344,1.382-0.517,2.187-0.517c1.402,0,2.604,0.503,3.601,1.516
			c0.997,1.011,1.496,2.227,1.496,3.648c0,1.449-0.494,2.686-1.479,3.697c-0.988,1.014-2.184,1.521-3.578,1.521
			c-0.785,0-1.508-0.164-2.168-0.491c-0.658-0.326-1.254-0.813-1.785-1.46v5.309h-1.271L107.839,17.646L107.839,17.646z
			 M112.921,18.618c-1.099,0-2.022,0.384-2.774,1.151c-0.752,0.768-1.127,1.723-1.127,2.864c0,0.75,0.168,1.424,0.502,2.022
			c0.336,0.597,0.816,1.071,1.439,1.423c0.625,0.352,1.286,0.525,1.979,0.525c0.686,0,1.324-0.179,1.924-0.529
			c0.604-0.354,1.08-0.85,1.438-1.483c0.356-0.633,0.534-1.3,0.534-1.993c0-0.701-0.176-1.367-0.526-1.996
			c-0.354-0.628-0.83-1.117-1.431-1.464C114.279,18.792,113.628,18.618,112.921,18.618z"/>
		<g id="Layer_3" display="inline">
		</g>
	</g>
	<path display="inline" opacity="0.8" fill="#9E9E9E" enable-background="new    " d="M36.331,11.644h-5.056
		c-0.594,0-1.388-0.373-1.766-0.83L27.3,8.165c-0.379-0.454-1.174-0.828-1.766-0.828h-7.539c-0.593,0-1.36,0.393-1.707,0.874
		l-1.848,2.56c-0.346,0.478-1.115,0.874-1.708,0.874H7.254c-1.184,0-2.155,0.969-2.155,2.152v16.157
		c0,1.183,0.971,2.153,2.155,2.153h29.078c1.185,0,2.155-0.972,2.155-2.153V13.796C38.487,12.613,37.517,11.644,36.331,11.644z"/>
	<path display="inline" fill="#FFFFFF" d="M21.387,14.791c-3.562,0-6.461,2.897-6.461,6.461c0,3.564,2.899,6.462,6.461,6.462
		c3.563,0,6.462-2.897,6.462-6.462C27.849,17.689,24.95,14.791,21.387,14.791z"/>
	<g display="inline" opacity="0.8" enable-background="new    ">
		<path fill="#9E9E9E" d="M108.205,14.343h2.654c1.521,0,2.55,0.064,3.082,0.198c0.762,0.188,1.382,0.572,1.865,1.155
			c0.48,0.583,0.726,1.314,0.726,2.197c0,0.889-0.235,1.621-0.707,2.196c-0.472,0.577-1.119,0.964-1.948,1.165
			c-0.604,0.145-1.732,0.217-3.389,0.217h-0.95v6.198h-1.333V14.343L108.205,14.343z M109.538,15.647v4.521l2.255,0.027
			c0.912,0,1.58-0.082,2.003-0.247c0.423-0.168,0.757-0.436,0.996-0.807c0.242-0.371,0.362-0.785,0.362-1.244
			c0-0.444-0.12-0.854-0.362-1.225c-0.239-0.371-0.562-0.635-0.956-0.79c-0.396-0.157-1.042-0.235-1.943-0.235H109.538z"/>
		<path fill="#9E9E9E" d="M125.695,17.558c1.519,0,2.777,0.551,3.777,1.65c0.904,1.002,1.357,2.188,1.357,3.562
			c0,1.377-0.479,2.582-1.438,3.609c-0.957,1.03-2.19,1.545-3.697,1.545c-1.514,0-2.75-0.515-3.709-1.545
			c-0.959-1.027-1.438-2.232-1.438-3.609c0-1.363,0.454-2.55,1.362-3.553C122.91,18.11,124.17,17.558,125.695,17.558z M125.689,18.8
			c-1.053,0-1.961,0.391-2.719,1.167c-0.759,0.779-1.138,1.725-1.138,2.829c0,0.712,0.172,1.376,0.519,1.993
			c0.348,0.616,0.812,1.091,1.398,1.427s1.232,0.504,1.938,0.504c0.703,0,1.35-0.168,1.938-0.504c0.589-0.336,1.057-0.811,1.4-1.427
			c0.348-0.617,0.52-1.281,0.52-1.993c0-1.104-0.382-2.05-1.143-2.829C127.645,19.19,126.738,18.8,125.689,18.8z"/>
		<path fill="#9E9E9E" d="M140.18,18.89l-0.816,0.842c-0.68-0.657-1.342-0.986-1.986-0.986c-0.411,0-0.768,0.137-1.062,0.407
			c-0.293,0.271-0.438,0.59-0.438,0.954c0,0.317,0.121,0.625,0.361,0.914c0.242,0.295,0.753,0.644,1.525,1.042
			c0.943,0.489,1.588,0.961,1.926,1.414c0.334,0.459,0.498,0.977,0.498,1.551c0,0.811-0.285,1.494-0.853,2.057
			c-0.569,0.562-1.28,0.843-2.134,0.843c-0.567,0-1.111-0.122-1.631-0.37c-0.516-0.248-0.943-0.591-1.282-1.022l0.798-0.905
			c0.646,0.729,1.335,1.098,2.062,1.098c0.509,0,0.938-0.164,1.299-0.49c0.354-0.324,0.535-0.709,0.535-1.148
			c0-0.361-0.117-0.688-0.354-0.97c-0.235-0.279-0.769-0.629-1.599-1.052c-0.891-0.459-1.494-0.912-1.816-1.358
			c-0.32-0.447-0.48-0.957-0.48-1.532c0-0.748,0.254-1.371,0.77-1.866c0.512-0.494,1.157-0.742,1.938-0.742
			C138.344,17.558,139.259,18.002,140.18,18.89z"/>
		<path fill="#9E9E9E" d="M145.572,14.152h1.269v3.661h2.013v1.096h-2.013v8.763h-1.269v-8.763h-1.73v-1.096h1.73V14.152z"/>
	</g>
	<g id="Layer_3_1_" display="inline">
	</g>
	<g id="Layer_3_2_">
		<path display="inline" opacity="0.7" fill="#A9A8A8" enable-background="new    " d="M6.81,38.675L-5.063,26.802
			c2.029-2.688,3.248-6.021,3.248-9.648c0-8.863-7.185-16.05-16.047-16.05c-8.862,0-16.047,7.187-16.047,16.049
			c0,8.861,7.186,16.047,16.047,16.047c4.018,0,7.681-1.484,10.496-3.927L4.423,41.064L6.81,38.675z M-32.221,17.153
			c0-7.918,6.439-14.356,14.357-14.356c7.916,0,14.358,6.438,14.358,14.356c0,7.917-6.442,14.357-14.358,14.357
			C-25.78,31.51-32.221,25.07-32.221,17.153z"/>
		<g display="inline">
			<path fill="#79CCCA" d="M73.023,25.076l1.104-0.66c0.779,1.432,1.678,2.146,2.695,2.146c0.437,0,0.846-0.104,1.228-0.31
				c0.384-0.202,0.677-0.476,0.876-0.813c0.2-0.342,0.301-0.703,0.301-1.088c0-0.438-0.149-0.86-0.442-1.281
				c-0.404-0.577-1.147-1.271-2.228-2.083c-1.082-0.816-1.756-1.41-2.021-1.775c-0.461-0.614-0.688-1.276-0.688-1.987
				c0-0.565,0.135-1.081,0.404-1.548c0.271-0.465,0.654-0.831,1.146-1.1c0.49-0.268,1.023-0.401,1.603-0.401
				c0.612,0,1.185,0.151,1.72,0.456c0.532,0.301,1.096,0.859,1.69,1.673l-1.062,0.804c-0.488-0.646-0.906-1.074-1.25-1.279
				c-0.347-0.207-0.72-0.31-1.127-0.31c-0.521,0-0.951,0.157-1.285,0.476c-0.332,0.319-0.5,0.711-0.5,1.176
				c0,0.283,0.062,0.556,0.179,0.822c0.118,0.266,0.333,0.555,0.645,0.865c0.171,0.161,0.73,0.598,1.681,1.299
				c1.123,0.832,1.895,1.568,2.312,2.217c0.416,0.648,0.63,1.301,0.63,1.951c0,0.941-0.36,1.762-1.075,2.457
				c-0.716,0.693-1.586,1.043-2.609,1.043c-0.791,0-1.506-0.211-2.146-0.633C74.16,26.771,73.564,26.066,73.023,25.076z"/>
			<path fill="#EC3793" d="M93.258,24.309l1.043,0.547c-0.342,0.675-0.736,1.215-1.184,1.627c-0.449,0.412-0.955,0.727-1.516,0.94
				s-1.193,0.319-1.899,0.319c-1.569,0-2.794-0.512-3.679-1.539c-0.885-1.029-1.326-2.188-1.326-3.487
				c0-1.218,0.375-2.306,1.121-3.259c0.951-1.217,2.221-1.819,3.812-1.819c1.642,0,2.948,0.62,3.929,1.862
				c0.692,0.879,1.051,1.975,1.062,3.285h-8.649c0.023,1.121,0.379,2.033,1.07,2.748c0.689,0.715,1.542,1.068,2.559,1.068
				c0.487,0,0.959-0.084,1.424-0.252c0.467-0.174,0.858-0.396,1.185-0.682C92.527,25.391,92.88,24.934,93.258,24.309z
				 M93.258,21.718c-0.165-0.658-0.402-1.187-0.722-1.581c-0.312-0.393-0.731-0.711-1.251-0.951
				c-0.518-0.244-1.062-0.363-1.635-0.363c-0.945,0-1.758,0.301-2.435,0.91c-0.495,0.44-0.872,1.104-1.124,1.985H93.258z"/>
			<path fill="#F5841F" d="M108.493,17.887v9.611h-1.222v-1.65c-0.52,0.629-1.101,1.104-1.742,1.42
				c-0.646,0.318-1.354,0.479-2.117,0.479c-1.361,0-2.521-0.492-3.486-1.479c-0.961-0.986-1.443-2.188-1.443-3.604
				c0-1.383,0.486-2.565,1.459-3.551c0.974-0.983,2.141-1.477,3.511-1.477c0.786,0,1.501,0.17,2.141,0.503
				c0.644,0.336,1.2,0.841,1.685,1.512v-1.766L108.493,17.887L108.493,17.887z M103.55,18.832c-0.688,0-1.323,0.17-1.907,0.506
				c-0.58,0.339-1.047,0.813-1.391,1.427c-0.345,0.61-0.516,1.26-0.516,1.938c0,0.676,0.175,1.324,0.521,1.943
				c0.347,0.613,0.813,1.1,1.397,1.441c0.586,0.344,1.214,0.516,1.885,0.516c0.677,0,1.316-0.17,1.926-0.513
				c0.604-0.343,1.07-0.804,1.398-1.386c0.324-0.58,0.488-1.238,0.488-1.967c0-1.111-0.367-2.041-1.103-2.789
				C105.521,19.203,104.62,18.832,103.55,18.832z"/>
			<path fill="#FFF100" d="M112.797,17.887h1.264v1.402c0.377-0.551,0.775-0.967,1.192-1.241c0.419-0.271,0.854-0.41,1.308-0.41
				c0.344,0,0.709,0.108,1.101,0.327l-0.646,1.042c-0.263-0.111-0.479-0.167-0.654-0.167c-0.412,0-0.812,0.167-1.19,0.508
				c-0.384,0.337-0.675,0.865-0.875,1.576c-0.151,0.549-0.229,1.654-0.229,3.322v3.252H112.8v-9.611H112.797z"/>
			<path fill="#DD5D82" d="M129.902,19.882l-0.979,0.608c-0.847-1.125-2.002-1.688-3.467-1.688c-1.173,0-2.144,0.377-2.918,1.132
				c-0.772,0.752-1.16,1.667-1.16,2.743c0,0.697,0.179,1.357,0.534,1.979c0.354,0.613,0.844,1.094,1.464,1.438
				c0.62,0.34,1.315,0.512,2.087,0.512c1.412,0,2.564-0.562,3.46-1.688l0.979,0.646c-0.457,0.688-1.073,1.229-1.848,1.607
				c-0.777,0.385-1.656,0.571-2.646,0.571c-1.521,0-2.78-0.483-3.781-1.449c-1.002-0.963-1.502-2.142-1.502-3.522
				c0-0.933,0.234-1.795,0.702-2.592c0.469-0.8,1.112-1.422,1.931-1.869c0.819-0.447,1.733-0.671,2.748-0.671
				c0.635,0,1.251,0.096,1.842,0.29c0.592,0.196,1.094,0.446,1.508,0.76C129.266,19.004,129.613,19.399,129.902,19.882z"/>
			<path fill="#90278E" d="M134.27,14.175h1.242v5.433c0.496-0.658,1.049-1.152,1.647-1.48c0.603-0.324,1.252-0.488,1.952-0.488
				c0.721,0,1.359,0.182,1.914,0.55c0.559,0.364,0.968,0.853,1.23,1.47c0.268,0.615,0.396,1.58,0.396,2.893V27.5h-1.237v-4.586
				c0-1.109-0.043-1.847-0.131-2.217c-0.153-0.637-0.435-1.115-0.835-1.438c-0.403-0.318-0.934-0.48-1.588-0.48
				c-0.745,0-1.418,0.248-2.008,0.743c-0.596,0.493-0.982,1.105-1.172,1.837c-0.117,0.47-0.178,1.343-0.178,2.615V27.5h-1.238
				V14.175H134.27z"/>
		</g>
	</g>
	<g id="Layer_4">
		<path display="inline" opacity="0.7" fill="#A9A8A8" enable-background="new    " d="M-16.811,40.732
			c-6.578,0-12.512-2.797-16.689-7.256c3.125-1.027,9.074-3.277,9.984-3.687c2.084-0.938,2.087-3.952,1.991-5.207l-0.019-0.228
			l-0.16-0.166c-1.066-1.104-1.881-3.038-2.494-5.906l-0.085-0.401l-0.399-0.085c-0.184-0.042-0.526-0.315-0.896-0.958
			c-0.658-1.145-0.971-2.67-0.713-3.477c0.152-0.475,0.314-0.566,0.344-0.579c0.067-0.03,0.178,0.018,0.223,0.038l0.932,0.44
			l-0.026-1.031c-0.038-1.536-0.009-2.779,0.026-4.128C-24.616,1.519-18.523,1-16.627,1c0.009,0,0.021,0,0.031,0
			c1.893,0,7.986,0.521,8.163,7.101c0.042,1.548,0.06,2.718,0.024,4.13l-0.024,1.03l0.932-0.438
			c0.046-0.021,0.157-0.068,0.224-0.038c0.029,0.014,0.191,0.104,0.342,0.579c0.258,0.809-0.056,2.336-0.712,3.479
			c-0.37,0.641-0.714,0.915-0.896,0.957l-0.399,0.088l-0.087,0.398c-0.611,2.87-1.424,4.806-2.493,5.907l-0.159,0.166l-0.018,0.229
			c-0.094,1.253-0.094,4.27,1.992,5.207c0.894,0.398,6.716,2.639,9.669,3.598C-4.217,37.9-10.188,40.732-16.811,40.732z"/>
		<g display="inline">
			<path fill="#EC3793" d="M73.287,14.4h2.662c1.525,0,2.554,0.064,3.087,0.197c0.766,0.188,1.385,0.575,1.872,1.158
				c0.484,0.583,0.726,1.318,0.726,2.202c0,0.891-0.236,1.627-0.707,2.203c-0.473,0.58-1.125,0.967-1.955,1.17
				c-0.606,0.143-1.738,0.216-3.395,0.216h-0.956v6.213h-1.332V14.4H73.287z M74.621,15.709v4.529l2.265,0.027
				c0.912,0,1.582-0.083,2.005-0.25c0.425-0.167,0.758-0.434,0.998-0.808c0.243-0.368,0.363-0.786,0.363-1.244
				c0-0.448-0.12-0.858-0.363-1.23c-0.24-0.37-0.561-0.634-0.956-0.792c-0.397-0.158-1.048-0.234-1.948-0.234h-2.363L74.621,15.709
				L74.621,15.709z"/>
			<path fill="#FFF100" d="M85.662,17.879h1.298v1.443c0.388-0.569,0.795-0.994,1.227-1.276c0.429-0.282,0.878-0.423,1.342-0.423
				c0.352,0,0.728,0.114,1.127,0.337l-0.661,1.071c-0.269-0.114-0.492-0.171-0.673-0.171c-0.425,0-0.833,0.173-1.229,0.522
				c-0.395,0.349-0.691,0.889-0.9,1.621c-0.158,0.563-0.236,1.702-0.236,3.417v3.342h-1.299v-9.883H85.662z"/>
			<path fill="#F5841F" d="M98.391,17.623c1.521,0,2.782,0.552,3.784,1.655c0.91,1.005,1.364,2.193,1.364,3.57
				c0,1.381-0.479,2.586-1.441,3.621c-0.961,1.031-2.199,1.547-3.707,1.547c-1.518,0-2.757-0.516-3.718-1.547
				c-0.962-1.035-1.444-2.24-1.444-3.621c0-1.371,0.455-2.556,1.369-3.561C95.598,18.177,96.859,17.623,98.391,17.623z
				 M98.384,18.867c-1.058,0-1.964,0.391-2.724,1.171c-0.762,0.78-1.139,1.728-1.139,2.834c0,0.715,0.17,1.383,0.52,1.998
				c0.343,0.616,0.812,1.096,1.402,1.43c0.591,0.336,1.236,0.505,1.939,0.505s1.352-0.169,1.94-0.505
				c0.591-0.336,1.058-0.812,1.403-1.43c0.35-0.619,0.521-1.283,0.521-1.998c0-1.106-0.381-2.052-1.146-2.834
				C100.346,19.258,99.438,18.867,98.384,18.867z"/>
			<path fill="#79CCCA" d="M112.009,14.064v1.242c-0.466-0.199-0.866-0.302-1.198-0.302c-0.248,0-0.453,0.053-0.621,0.151
				c-0.16,0.101-0.265,0.217-0.306,0.346c-0.042,0.13-0.063,0.476-0.063,1.04v1.335h2.062v1.099h-2.064l-0.008,8.78h-1.271v-8.78
				h-1.3v-1.099h1.3v-1.544c0-0.71,0.063-1.213,0.192-1.516c0.131-0.304,0.352-0.547,0.664-0.731
				c0.312-0.186,0.688-0.277,1.131-0.277C110.938,13.809,111.434,13.893,112.009,14.064z"/>
			<path fill="#DD5D82" d="M116.268,13.809c0.289,0,0.537,0.104,0.742,0.309c0.205,0.206,0.307,0.452,0.307,0.745
				c0,0.285-0.102,0.53-0.307,0.734c-0.205,0.207-0.453,0.31-0.742,0.31c-0.285,0-0.526-0.105-0.731-0.31
				c-0.206-0.205-0.308-0.45-0.308-0.734c0-0.292,0.103-0.539,0.308-0.745C115.738,13.913,115.982,13.809,116.268,13.809z
				 M115.637,17.879h1.271v9.881h-1.271V17.879z"/>
			<path fill="#90278E" d="M121.404,14.064h1.275V27.76h-1.275V14.064z"/>
			<path fill="#64BB46" d="M135.688,24.48l1.07,0.562c-0.348,0.688-0.755,1.248-1.217,1.67c-0.458,0.426-0.977,0.75-1.555,0.969
				c-0.576,0.223-1.229,0.334-1.955,0.334c-1.612,0-2.872-0.531-3.78-1.586c-0.909-1.057-1.364-2.254-1.364-3.586
				c0-1.254,0.387-2.37,1.155-3.351c0.978-1.249,2.281-1.872,3.916-1.872c1.687,0,3.032,0.64,4.038,1.916
				c0.716,0.905,1.079,2.031,1.091,3.379h-8.892c0.021,1.148,0.391,2.09,1.101,2.824c0.707,0.732,1.585,1.102,2.629,1.102
				c0.503,0,0.993-0.088,1.47-0.262c0.476-0.176,0.879-0.408,1.213-0.697C134.939,25.595,135.3,25.125,135.688,24.48z
				 M135.688,21.82c-0.168-0.679-0.416-1.221-0.738-1.625c-0.323-0.409-0.756-0.733-1.287-0.985c-0.534-0.248-1.094-0.37-1.682-0.37
				c-0.974,0-1.807,0.312-2.502,0.937c-0.508,0.453-0.896,1.135-1.154,2.043H135.688L135.688,21.82z"/>
		</g>
	</g>
	<g id="Layer_2_1_">
		<g id="Layer_3_3_" display="inline">
			<g>
				<polygon opacity="0.6" fill="#ED4798" enable-background="new    " points="9.16,42.5 51.013,-20.276 98.719,42.5 				"/>
				<polygon opacity="0.6" fill="#ED2A25" enable-background="new    " points="-40.043,42.5 10.044,-37.126 67.136,42.5 				"/>
				<polygon opacity="0.6" fill="#426EB5" enable-background="new    " points="112.229,42.5 164.706,-36.217 224.525,42.5 				"/>
				<polygon opacity="0.7" fill="#754D9E" enable-background="new    " points="86.147,42.5 128.003,-20.276 175.706,42.5 				"/>
				<polygon opacity="0.6" fill="#06B052" enable-background="new    " points="36.044,42.5 88.521,-36.217 148.34,42.5 				"/>
				<polygon opacity="0.8" fill="#F7961D" enable-background="new    " points="192.18,42.5 210.12,15.583 230.576,42.5 				"/>
				<polygon opacity="0.7" fill="#ED4798" enable-background="new    " points="138.416,42.5 168.377,-2.441 202.533,42.5 				"/>
				<polygon opacity="0.7" fill="#F8ED40" enable-background="new    " points="-18.647,42.5 11.312,-2.441 45.469,42.5 				"/>
				<polygon opacity="0.8" fill="#F7961D" enable-background="new    " points="-73.615,42.5 -52.091,-2.441 -33.894,42.5 				"/>
				<polygon opacity="0.8" fill="#426EB5" enable-background="new    " points="-51.617,42.5 -33.673,15.583 -13.217,42.5 				"/>
				<polygon opacity="0.5" fill="#ED4798" enable-background="new    " points="51.013,-20.276 32.64,-5.613 37.094,0.601 				"/>
				<polygon opacity="0.6" fill="#F8ED40" enable-background="new    " points="11.312,-2.441 31.442,9.061 26.126,17.05 				"/>
				<polygon opacity="0.6" fill="#754D9E" enable-background="new    " points="128.003,-20.276 146.529,-8.952 141.893,-1.998 				
					"/>
				<polygon opacity="0.6" fill="#ED4798" enable-background="new    " points="168.377,-2.441 150.745,9.654 155.842,16.36 				"/>
				<polygon opacity="0.7" fill="#F7961D" enable-background="new    " points="210.12,15.583 205.607,17.605 207.294,19.825 				
					"/>
				<polygon opacity="0.7" fill="#426EB5" enable-background="new    " points="-33.673,15.583 -25.205,18.912 -27.895,23.186 				
					"/>
				<polygon opacity="0.7" fill="#ED4798" enable-background="new    " points="-44.143,42.5 -76.69,-23.097 -112.051,42.5 				"/>
				<polygon opacity="0.7" fill="#ED2A25" enable-background="new    " points="253.873,42.5 232.35,-2.441 214.152,42.5 				"/>
				<polygon opacity="0.7" fill="#F7961D" enable-background="new    " points="-52.091,-2.441 -62.804,4.889 -59.14,12.276 				"/>
				<polygon opacity="0.6" fill="#ED2A25" enable-background="new    " points="232.35,-2.441 243.021,4.967 239.396,12.276 				"/>
				<polygon opacity="0.6" fill="#F8ED40" enable-background="new    " points="224.4,42.5 256.948,-23.097 292.309,42.5 				"/>
			</g>
			<polygon fill="#FFFFFF" points="168.377,-2.833 180.706,13.878 180.706,-2.833 			"/>
			<polygon fill="#FFFFFF" points="-2.555,18.527 -2.555,-1.333 10.685,-1.333 			"/>
		</g>
		<g display="inline">
			<path fill="#FFFFFF" d="M62.465,10.572h-6.146c-0.722,0-1.687-0.453-2.146-1.008l-2.686-3.221
				c-0.461-0.552-1.427-1.006-2.147-1.006h-9.164c-0.721,0-1.653,0.478-2.075,1.062l-2.246,3.112
				c-0.421,0.581-1.356,1.062-2.076,1.062H27.12c-1.439,0-2.619,1.178-2.619,2.616v19.64c0,1.438,1.18,2.619,2.619,2.619h35.347
				c1.44,0,2.619-1.183,2.619-2.619v-19.64C65.086,11.75,63.906,10.572,62.465,10.572z"/>
			<path opacity="0.6" fill="#ED2A25" enable-background="new    " d="M45.299,16.398c-3.405,0-6.175,2.769-6.175,6.175
				c0,3.405,2.771,6.177,6.175,6.177c3.406,0,6.176-2.771,6.176-6.177S48.705,16.398,45.299,16.398z"/>
			<g enable-background="new    ">
				<path fill="#FFFFFF" d="M131.205,16.343h2.654c1.521,0,2.55,0.064,3.082,0.198c0.762,0.188,1.382,0.572,1.865,1.154
					c0.48,0.584,0.726,1.314,0.726,2.197c0,0.89-0.235,1.622-0.707,2.196c-0.472,0.577-1.119,0.964-1.948,1.165
					c-0.604,0.146-1.732,0.217-3.389,0.217h-0.95v6.198h-1.333V16.343L131.205,16.343z M132.538,17.646v4.521l2.255,0.026
					c0.912,0,1.58-0.082,2.003-0.246c0.423-0.168,0.757-0.438,0.996-0.808c0.242-0.371,0.362-0.785,0.362-1.244
					c0-0.443-0.12-0.854-0.362-1.225c-0.239-0.371-0.562-0.635-0.956-0.79c-0.396-0.157-1.042-0.235-1.943-0.235L132.538,17.646
					L132.538,17.646z"/>
				<path fill="#FFFFFF" d="M148.695,19.559c1.519,0,2.777,0.551,3.777,1.649c0.904,1.002,1.357,2.188,1.357,3.562
					c0,1.377-0.479,2.582-1.438,3.609c-0.957,1.03-2.19,1.545-3.697,1.545c-1.514,0-2.75-0.515-3.709-1.545
					c-0.959-1.027-1.438-2.232-1.438-3.609c0-1.363,0.454-2.55,1.362-3.553C145.91,20.109,147.17,19.559,148.695,19.559z
					 M148.689,20.8c-1.053,0-1.961,0.392-2.719,1.167c-0.759,0.779-1.138,1.725-1.138,2.829c0,0.712,0.172,1.376,0.519,1.993
					c0.348,0.616,0.812,1.091,1.398,1.427s1.232,0.504,1.938,0.504c0.703,0,1.35-0.168,1.938-0.504
					c0.589-0.336,1.057-0.811,1.4-1.427c0.348-0.617,0.52-1.281,0.52-1.993c0-1.104-0.382-2.05-1.143-2.829
					C150.645,21.189,149.738,20.8,148.689,20.8z"/>
				<path fill="#FFFFFF" d="M163.18,20.891l-0.816,0.841c-0.68-0.656-1.342-0.985-1.986-0.985c-0.411,0-0.768,0.137-1.062,0.406
					c-0.293,0.271-0.438,0.591-0.438,0.955c0,0.316,0.121,0.625,0.361,0.914c0.242,0.295,0.753,0.645,1.525,1.041
					c0.943,0.489,1.588,0.961,1.926,1.414c0.334,0.459,0.498,0.977,0.498,1.551c0,0.811-0.285,1.494-0.853,2.057
					c-0.569,0.562-1.28,0.843-2.134,0.843c-0.567,0-1.111-0.122-1.631-0.37c-0.516-0.248-0.943-0.591-1.282-1.022l0.798-0.905
					c0.646,0.729,1.335,1.098,2.062,1.098c0.509,0,0.938-0.164,1.299-0.49c0.354-0.324,0.535-0.709,0.535-1.148
					c0-0.361-0.117-0.688-0.354-0.97c-0.235-0.279-0.769-0.629-1.599-1.052c-0.891-0.459-1.494-0.911-1.816-1.358
					c-0.32-0.447-0.48-0.957-0.48-1.532c0-0.748,0.254-1.371,0.77-1.866c0.512-0.494,1.157-0.742,1.938-0.742
					C161.344,19.559,162.259,20.002,163.18,20.891z"/>
				<path fill="#FFFFFF" d="M168.572,16.152h1.269v3.661h2.013v1.097h-2.013v8.763h-1.269V20.91h-1.73v-1.097h1.73V16.152z"/>
			</g>
		</g>
	</g>
	<g id="Layer_4_1_">
		<polygon display="inline" opacity="0.6" fill="#ED4798" enable-background="new    " points="40.16,-22.5 82.014,-85.276 
			129.719,-22.5 		"/>
		<polygon display="inline" opacity="0.6" fill="#ED2A25" enable-background="new    " points="-9.043,-22.5 41.044,-102.126 
			98.137,-22.5 		"/>
		<polygon display="inline" opacity="0.6" fill="#426EB5" enable-background="new    " points="143.229,-22.5 195.706,-101.217 
			255.525,-22.5 		"/>
		<polygon display="inline" opacity="0.7" fill="#754D9E" enable-background="new    " points="117.146,-22.5 159.003,-85.276 
			206.706,-22.5 		"/>
		<polygon display="inline" opacity="0.6" fill="#06B052" enable-background="new    " points="67.045,-22.5 119.521,-101.217 
			179.34,-22.5 		"/>
		<polygon display="inline" opacity="0.8" fill="#F7961D" enable-background="new    " points="223.18,-22.5 241.12,-49.417 
			261.576,-22.5 		"/>
		<polygon display="inline" opacity="0.7" fill="#ED4798" enable-background="new    " points="169.416,-22.5 199.377,-67.441 
			233.533,-22.5 		"/>
		<polygon display="inline" opacity="0.7" fill="#F8ED40" enable-background="new    " points="12.353,-22.5 42.312,-67.441 
			76.469,-22.5 		"/>
		<polygon display="inline" opacity="0.8" fill="#F7961D" enable-background="new    " points="-42.615,-22.5 -21.091,-67.441 
			-2.894,-22.5 		"/>
		<polygon display="inline" opacity="0.8" fill="#426EB5" enable-background="new    " points="-20.617,-22.5 -2.673,-49.417 
			17.783,-22.5 		"/>
		<polygon display="inline" opacity="0.5" fill="#ED4798" enable-background="new    " points="82.014,-85.276 63.64,-70.613 
			68.094,-64.399 		"/>
		<polygon display="inline" opacity="0.6" fill="#F8ED40" enable-background="new    " points="42.312,-67.441 62.442,-55.939 
			57.127,-47.949 		"/>
		<polygon display="inline" opacity="0.6" fill="#754D9E" enable-background="new    " points="159.003,-85.276 177.529,-73.952 
			172.893,-66.998 		"/>
		<polygon display="inline" opacity="0.6" fill="#ED4798" enable-background="new    " points="199.377,-67.441 181.745,-55.346 
			186.842,-48.641 		"/>
		<polygon display="inline" opacity="0.7" fill="#F7961D" enable-background="new    " points="241.12,-49.417 236.607,-47.395 
			238.294,-45.176 		"/>
		<polygon display="inline" opacity="0.7" fill="#426EB5" enable-background="new    " points="-2.673,-49.417 5.795,-46.088 
			3.105,-41.814 		"/>
		<polygon display="inline" opacity="0.7" fill="#ED4798" enable-background="new    " points="-13.143,-22.5 -45.69,-88.097 
			-81.051,-22.5 		"/>
		<polygon display="inline" opacity="0.7" fill="#ED2A25" enable-background="new    " points="284.873,-22.5 263.35,-67.441 
			245.152,-22.5 		"/>
		<polygon display="inline" opacity="0.7" fill="#F7961D" enable-background="new    " points="-21.091,-67.441 -31.804,-60.111 
			-28.14,-52.725 		"/>
		<polygon display="inline" opacity="0.8" fill="#F7961D" enable-background="new    " points="8.983,41.5 35.277,-13.403 
			57.508,41.5 		"/>
		<polygon display="inline" opacity="0.8" fill="#426EB5" enable-background="new    " points="19.383,41.5 52.281,-7.848 
			89.783,41.5 		"/>
		<polygon display="inline" opacity="0.7" fill="#ED4798" enable-background="new    " points="46.058,41.5 24.136,-3.441 
			0.319,41.5 		"/>
		<polygon display="inline" opacity="0.6" fill="#ED2A25" enable-background="new    " points="263.35,-67.441 274.021,-60.033 
			270.396,-52.725 		"/>
		<polygon display="inline" opacity="0.6" fill="#F8ED40" enable-background="new    " points="255.4,-22.5 287.948,-88.097 
			323.309,-22.5 		"/>
		<path display="inline" fill="#FFFFFF" d="M60.465,14.125h-6.146c-0.721,0-1.687-0.453-2.146-1.008l-2.687-3.221
			C49.025,9.344,48.061,8.89,47.34,8.89h-9.164c-0.721,0-1.652,0.478-2.074,1.062l-2.246,3.112
			c-0.422,0.581-1.356,1.062-2.076,1.062h-6.66c-1.439,0-2.619,1.178-2.619,2.615v19.641c0,1.438,1.18,2.619,2.619,2.619h35.347
			c1.44,0,2.619-1.183,2.619-2.619V16.74C63.086,15.303,61.906,14.125,60.465,14.125z"/>
		<path display="inline" opacity="0.7" fill="#ED4798" enable-background="new    " d="M43.299,19.951
			c-3.404,0-6.176,2.769-6.176,6.175s2.771,6.177,6.176,6.177c3.406,0,6.176-2.771,6.176-6.177
			C49.475,22.721,46.705,19.951,43.299,19.951z"/>
		<g display="inline" enable-background="new    ">
			<path fill="#9E9E9E" d="M128.205,9.896h2.654c1.521,0,2.55,0.064,3.082,0.198c0.762,0.188,1.382,0.572,1.865,1.154
				c0.48,0.584,0.726,1.314,0.726,2.197c0,0.89-0.235,1.621-0.707,2.196c-0.472,0.577-1.119,0.964-1.948,1.165
				c-0.604,0.145-1.732,0.217-3.389,0.217h-0.95v6.198h-1.333V9.896L128.205,9.896z M129.538,11.199v4.521l2.255,0.027
				c0.912,0,1.58-0.082,2.003-0.247c0.423-0.168,0.757-0.437,0.996-0.808c0.242-0.371,0.362-0.785,0.362-1.244
				c0-0.443-0.12-0.854-0.362-1.225c-0.239-0.371-0.562-0.635-0.956-0.79c-0.396-0.157-1.042-0.235-1.943-0.235L129.538,11.199
				L129.538,11.199z"/>
			<path fill="#9E9E9E" d="M145.695,13.111c1.519,0,2.777,0.551,3.777,1.649c0.904,1.002,1.357,2.188,1.357,3.562
				c0,1.377-0.479,2.582-1.438,3.609c-0.957,1.029-2.19,1.545-3.697,1.545c-1.514,0-2.75-0.516-3.709-1.545
				c-0.959-1.028-1.438-2.232-1.438-3.609c0-1.364,0.454-2.55,1.362-3.553C142.91,13.662,144.17,13.111,145.695,13.111z
				 M145.689,14.353c-1.053,0-1.961,0.392-2.719,1.167c-0.759,0.779-1.138,1.725-1.138,2.829c0,0.712,0.172,1.376,0.519,1.993
				c0.348,0.616,0.812,1.092,1.398,1.428s1.232,0.504,1.938,0.504c0.703,0,1.35-0.168,1.938-0.504
				c0.589-0.336,1.057-0.812,1.4-1.428c0.348-0.617,0.52-1.281,0.52-1.993c0-1.104-0.382-2.05-1.143-2.829
				C147.645,14.742,146.738,14.353,145.689,14.353z"/>
			<path fill="#9E9E9E" d="M160.18,14.443l-0.816,0.842c-0.68-0.657-1.342-0.986-1.986-0.986c-0.411,0-0.768,0.137-1.062,0.406
				c-0.293,0.271-0.438,0.591-0.438,0.955c0,0.316,0.121,0.625,0.361,0.914c0.242,0.295,0.753,0.644,1.525,1.041
				c0.943,0.489,1.588,0.961,1.926,1.414c0.334,0.459,0.498,0.976,0.498,1.551c0,0.811-0.285,1.494-0.853,2.056
				c-0.569,0.562-1.28,0.843-2.134,0.843c-0.567,0-1.111-0.123-1.631-0.371c-0.516-0.248-0.943-0.59-1.282-1.021l0.798-0.905
				c0.646,0.729,1.335,1.098,2.062,1.098c0.509,0,0.938-0.164,1.299-0.49c0.354-0.325,0.535-0.709,0.535-1.149
				c0-0.362-0.117-0.687-0.354-0.97c-0.235-0.279-0.769-0.629-1.599-1.051c-0.891-0.459-1.494-0.912-1.816-1.359
				c-0.32-0.447-0.48-0.957-0.48-1.532c0-0.748,0.254-1.371,0.77-1.866c0.512-0.494,1.157-0.742,1.938-0.742
				C158.344,13.111,159.259,13.555,160.18,14.443z"/>
			<path fill="#9E9E9E" d="M165.572,9.705h1.269v3.66h2.013v1.097h-2.013v8.763h-1.269v-8.763h-1.73v-1.097h1.73V9.705z"/>
		</g>
	</g>
</g>
<g id="Layer_2_2_" display="none">
	<path display="inline" opacity="0.8" fill="#9E9E9E" d="M6.999,12.999H2.304c-0.551,0-1.289-0.347-1.64-0.771l-2.051-2.46
		C-1.738,9.347-2.477,9-3.026,9h-7c-0.551,0-1.263,0.365-1.585,0.812l-1.716,2.377C-13.648,12.632-14.362,13-14.913,13H-20
		c-1.099,0-2,0.9-2,1.998V30c0,1.098,0.901,2,2,2H7c1.1,0,2-0.902,2-2V14.997C9,13.898,8.1,12.999,6.999,12.999z"/>
	<polygon display="inline" fill="#FFFFFF" points="-9.844,27.551 -13.09,21.93 -9.844,16.307 -3.354,16.307 -0.107,21.93 
		-3.354,27.551 	"/>
	<g display="inline">
		<path fill="#848484" d="M135.167,14.47h3.841c3.281,0,4.621,1.46,4.621,3.98c0,2.601-1.641,4.042-4.381,4.042h-2.961v5.841h-1.12
			V14.47z M139.027,21.552c2.381,0,3.4-1.041,3.4-3.021c0-2.08-0.859-3.101-3.52-3.101h-2.621v6.122H139.027z"/>
		<path fill="#848484" d="M146.127,23.432v-0.279c0-3.321,1.9-5.142,4.521-5.142c2.74,0,4.541,1.76,4.541,5.081v0.26
			c0,3.321-1.921,5.162-4.562,5.162C147.887,28.514,146.127,26.752,146.127,23.432z M154.068,23.452v-0.4
			c0-3-1.48-4.141-3.441-4.141c-2.02,0-3.4,1.44-3.4,4.141v0.421c0,2.96,1.48,4.141,3.441,4.141
			C152.688,27.613,154.068,26.213,154.068,23.452z"/>
		<path fill="#848484" d="M157.807,27.773v-0.881c0.82,0.36,1.641,0.68,3.081,0.68c1.84,0,2.521-0.76,2.521-1.84
			c0-1.16-0.54-1.58-1.98-2l-1.101-0.32c-1.5-0.42-2.4-1.08-2.4-2.721c0-1.581,1.08-2.681,3.301-2.681c1.3,0,2.16,0.3,2.721,0.6v0.9
			c-0.62-0.3-1.62-0.56-2.661-0.56c-1.56,0-2.34,0.6-2.34,1.66c0,1.04,0.479,1.48,1.74,1.84l1.12,0.32
			c1.841,0.521,2.681,1.121,2.681,2.881c0,1.721-1.16,2.841-3.48,2.841C159.647,28.493,158.566,28.193,157.807,27.773z"/>
		<path fill="#848484" d="M168.367,26.213v-7.122h-1.501v-0.9h1.501v-2.4h1.08v2.4h2.761v0.9h-2.761v6.962
			c0,1.04,0.359,1.48,1.62,1.48c0.44,0,0.94-0.08,1.36-0.2v0.739c-0.36,0.181-0.86,0.361-1.641,0.361
			C169.247,28.434,168.367,27.773,168.367,26.213z"/>
	</g>
	<polygon display="inline" opacity="0.7" fill="#F8ED40" enable-background="new    " points="88.041,-8.589 84.065,-14.552 
		79.534,-8.589 	"/>
	<polygon display="inline" opacity="0.6" fill="#754D9E" enable-background="new    " points="80.499,-8.589 76.58,-14.468 
		72.112,-8.589 	"/>
	<polygon display="inline" opacity="0.6" fill="#ED2A25" enable-background="new    " points="94.834,-8.589 88.816,-15.454 
		83.917,-8.589 	"/>
	<polygon display="inline" opacity="0.6" fill="#06B052" enable-background="new    " points="85.455,-8.589 79.436,-15.454 
		74.537,-8.589 	"/>
	<polygon display="inline" opacity="0.6" fill="#426EB5" enable-background="new    " points="77.064,-8.589 71.045,-15.454 
		66.146,-8.589 	"/>
	<polygon display="inline" opacity="0.8" fill="#F8ED40" enable-background="new    " points="84.065,-14.699 86.052,-11.717 
		87.15,-13.266 	"/>
	<polygon display="inline" opacity="0.7" fill="#06B052" enable-background="new    " points="73.207,-8.589 70.587,-12.519 
		67.6,-8.589 	"/>
	<polygon display="inline" opacity="0.8" fill="#754D9E" enable-background="new    " points="76.58,-14.614 74.411,-11.761 
		73.044,-13.32 	"/>
	<polygon display="inline" opacity="0.7" fill="#ED4798" enable-background="new    " points="77.618,-12.908 80.499,-8.589 
		74.534,-8.589 	"/>
	<polygon display="inline" opacity="0.7" fill="#ED4798" enable-background="new    " points="77.618,-13.055 74.411,-11.761 
		75.669,-10.326 	"/>
	<polygon display="inline" opacity="0.9" fill="#06B052" enable-background="new    " points="70.587,-12.665 73.504,-10.589 
		72.695,-9.503 	"/>
	<polygon display="inline" opacity="0.5" fill="#426EB5" enable-background="new    " points="74.411,-11.761 72.736,-11.136 
		73.504,-10.589 	"/>
	<polygon display="inline" opacity="0.8" fill="#06B052" enable-background="new    " points="79.436,-15.6 76.982,-14.012 
		77.618,-13.055 	"/>
	<polygon display="inline" opacity="0.6" fill="#426EB5" enable-background="new    " points="85.455,-8.589 82.283,-12.206 
		79.534,-8.589 	"/>
	<polygon display="inline" opacity="0.7" fill="#426EB5" enable-background="new    " points="82.283,-12.354 79.293,-10.545 
		80.047,-9.412 	"/>
	<polygon display="inline" opacity="0.6" fill="#426EB5" enable-background="new    " points="85.455,-9.089 84.607,-10.057 
		83.917,-9.089 	"/>
	<polyline display="inline" opacity="0.8" fill="#ED2A25" enable-background="new    " points="86.052,-11.717 86.035,-11.707 
		83.869,-10.545 84.607,-9.703 	"/>
	<polygon display="inline" opacity="0.7" fill="#ED2A25" enable-background="new    " points="88.816,-15.6 86.731,-13.461 
		87.15,-13.266 	"/>
	<polygon display="inline" opacity="0.7" fill="#426EB5" enable-background="new    " points="71.045,-15.6 73.574,-13.514 
		73.044,-13.32 	"/>
	<polygon display="inline" opacity="0.04" enable-background="new    " points="79.436,-15.6 79.293,-10.545 82.283,-12.354 	"/>
	<polyline display="inline" opacity="0.05" fill="#FFFFFF" enable-background="new    " points="88.775,-15.6 89.17,-12.095 
		90.84,-8.589 94.793,-8.589 94.793,-8.589 88.85,-15.527 	"/>
	<polygon display="inline" opacity="0.9" fill="#ED4798" enable-background="new    " points="90.023,-12.665 86.731,-10.701 
		87.578,-9.436 	"/>
	<polygon display="inline" opacity="0.7" fill="#ED4798" enable-background="new    " points="92.643,-8.589 90.023,-12.519 
		87.037,-8.589 	"/>
	<polygon display="inline" opacity="0.05" fill="#FFFFFF" enable-background="new    " points="71.039,-15.527 70.904,-12.4 
		70.586,-12.574 67.6,-8.589 66.133,-8.589 	"/>
	<polygon display="inline" fill="#F8ED40" points="87.558,-10.016 88.041,-9.339 87.052,-9.339 	"/>
	<polygon display="inline" opacity="0.9" fill="#F7961D" enable-background="new    " points="69.254,-8.589 67.315,-11.306 
		64.487,-8.589 	"/>
	<polygon display="inline" opacity="0.02" enable-background="new    " points="84.065,-14.699 83.869,-10.545 82.283,-12.354 	"/>
	<polygon display="inline" fill="#F7961D" points="67.315,-11.419 68.97,-10.512 68.451,-9.828 	"/>
</g>
<g id="Layer_3_4_">
	<g>
		<path fill="#848484" d="M136.168,15.346h3.84c3.281,0,4.621,1.46,4.621,3.98c0,2.601-1.641,4.041-4.381,4.041h-2.961v5.842h-1.119
			V15.346z M140.028,22.428c2.38,0,3.4-1.041,3.4-3.021c0-2.08-0.86-3.101-3.521-3.101h-2.621v6.122H140.028z"/>
		<path fill="#848484" d="M147.987,19.067h1.04v1.2h0.061c0.619-0.66,1.74-1.32,3-1.32c0.221,0,0.48,0.02,0.601,0.06v0.98
			c-0.22-0.04-0.501-0.06-0.681-0.06c-1.14,0-2.221,0.5-2.94,1.141v8.142h-1.08V19.067z"/>
		<path fill="#848484" d="M155.027,24.309v-0.281c0-3.32,1.9-5.141,4.52-5.141c2.74,0,4.541,1.76,4.541,5.081v0.261
			c0,3.32-1.92,5.16-4.561,5.16C156.787,29.389,155.027,27.629,155.027,24.309z M162.969,24.328v-0.4c0-3-1.48-4.141-3.441-4.141
			c-2.02,0-3.4,1.44-3.4,4.141v0.42c0,2.961,1.48,4.141,3.439,4.141C161.588,28.488,162.969,27.088,162.969,24.328z"/>
		<path fill="#848484" d="M168.127,19.967h-1.58v-0.9h1.58v-1.701c0-2.06,1.26-3.041,2.92-3.041c0.641,0,1.021,0.1,1.361,0.22v0.8
			c-0.32-0.08-0.641-0.12-1.18-0.12c-1.24,0-2.021,0.66-2.021,2.22v1.621h5.162v10.142h-1.102v-9.242h-4.061v9.242h-1.08V19.967z
			 M173.268,15.646h1.102v1.24h-1.102V15.646z"/>
		<path fill="#848484" d="M178.508,14.426h1.1v14.783h-1.1V14.426z"/>
		<path fill="#848484" d="M183.088,24.268v-0.24c0-3.52,2.02-5.141,4.4-5.141c2.76,0,4.02,1.7,4.02,4.741v0.62h-7.32
			c0,2.92,1.279,4.201,3.84,4.201c1.361,0,2.32-0.32,3.141-0.721v0.82c-0.619,0.4-1.74,0.84-3.301,0.84
			C184.688,29.389,183.088,27.529,183.088,24.268z M184.207,23.367h6.162c0-2.38-0.941-3.58-2.922-3.58
			C185.848,19.787,184.367,20.787,184.207,23.367z"/>
	</g>
	<g display="none">
		<rect x="-21.935" y="22.204" display="inline" fill="#FFFFFF" width="25.955" height="13.6"/>
		<g display="inline" opacity="0.7">
			<path fill="#9E9E9E" d="M-9.468,30.685c-4.914,0-9.347-2.091-12.467-5.422c2.334-0.768,6.778-2.448,7.459-2.753
				c1.557-0.701,1.558-2.954,1.487-3.891l-0.014-0.17l-0.12-0.124c-0.795-0.824-1.405-2.27-1.863-4.413l-0.064-0.3l-0.297-0.063
				c-0.138-0.032-0.394-0.236-0.67-0.716c-0.491-0.855-0.726-1.995-0.533-2.598c0.114-0.354,0.235-0.423,0.258-0.432
				c0.049-0.023,0.133,0.013,0.167,0.028l0.696,0.328l-0.02-0.769c-0.028-1.149-0.007-2.077,0.02-3.085
				C-15.298,1.388-10.747,1-9.329,1c0.006,0,0.016,0,0.022,0c1.414,0,5.967,0.389,6.099,5.304c0.031,1.157,0.044,2.031,0.018,3.086
				l-0.018,0.769l0.697-0.326c0.034-0.017,0.117-0.051,0.168-0.029c0.021,0.01,0.142,0.077,0.255,0.432
				c0.192,0.605-0.042,1.745-0.532,2.6c-0.276,0.479-0.533,0.684-0.67,0.714l-0.298,0.066l-0.064,0.298
				c-0.457,2.144-1.064,3.591-1.863,4.414l-0.12,0.124l-0.013,0.172c-0.07,0.935-0.07,3.189,1.489,3.889
				c0.668,0.299,5.018,1.972,7.223,2.688C-0.058,28.567-4.519,30.685-9.468,30.685z"/>
			<polygon fill="#9E9E9E" points="1.799,36.94 -9.436,43.427 -20.671,36.94 -20.671,23.969 -9.436,17.481 1.799,23.969 			"/>
		</g>
		<rect x="-23.25" y="22.204" display="inline" fill="#FFFFFF" width="2.579" height="15.335"/>
		<rect x="1.774" y="22.204" display="inline" fill="#FFFFFF" width="2.579" height="15.335"/>
	</g>
	<g>
		<g>
			<rect x="-22.279" y="23.066" fill="#FFFFFF" width="26.356" height="13.814"/>
			<g>
				<path fill="#9E9E9E" d="M-9.619,31.683c-4.991,0-9.497-2.12-12.66-5.513c2.373-0.771,6.881-2.487,7.575-2.796
					c1.583-0.704,1.583-2.99,1.508-3.943l-0.012-0.184l-0.125-0.124c-0.806-0.835-1.424-2.298-1.888-4.477l-0.069-0.308
					l-0.302-0.054c-0.141-0.039-0.4-0.243-0.68-0.731c-0.498-0.873-0.734-2.028-0.539-2.638c0.118-0.367,0.235-0.438,0.262-0.438
					c0.049-0.023,0.136,0.012,0.172,0.029l0.704,0.332l-0.02-0.781c-0.027-1.164-0.007-2.115,0.02-3.139
					c0.13-4.986,4.756-5.383,6.197-5.383c0.006,0,0.018,0,0.019,0c1.438,0,6.07,0.396,6.197,5.383
					c0.042,1.173,0.051,2.066,0.021,3.139l-0.021,0.781l0.714-0.332c0.027-0.018,0.109-0.053,0.169-0.029
					c0.008,0.006,0.139,0.077,0.254,0.438c0.19,0.616-0.044,1.765-0.536,2.638c-0.285,0.489-0.551,0.702-0.687,0.731l-0.296,0.06
					l-0.071,0.302c-0.462,2.179-1.081,3.648-1.898,4.483l-0.11,0.13l-0.015,0.172c-0.068,0.953-0.068,3.244,1.504,3.943
					c0.684,0.309,5.107,2.008,7.34,2.742C-0.06,29.532-4.583,31.683-9.619,31.683z"/>
				<polygon fill="#9E9E9E" points="1.833,38.03 -9.587,44.621 -20.997,38.03 -20.997,24.86 -9.587,18.27 1.833,24.86 				"/>
			</g>
			<rect x="-23.611" y="23.066" fill="#FFFFFF" width="2.615" height="15.58"/>
			<rect x="1.803" y="23.066" fill="#FFFFFF" width="2.612" height="15.58"/>
			<polygon fill="#9E9E9E" points="-16.5,14.258 -17.701,12.176 -16.5,10.098 -14.101,10.098 -12.9,12.176 -14.101,14.258 			"/>
			<polygon fill="#9E9E9E" points="-4.915,14.258 -6.117,12.173 -4.915,10.095 -2.517,10.095 -1.315,12.173 -2.517,14.258 			"/>
		</g>
		<rect x="-20.997" y="38.03" fill="#FFFFFF" width="22.8" height="7.219"/>
	</g>
</g>
<g id="Layer_4_2_" display="none">
	<g display="inline">
		<polygon fill="#9E9E9E" points="-16.014,24.619 -21.677,14.809 -16.014,5 -4.687,5 0.975,14.809 -4.687,24.619 		"/>
		<polygon fill="#9E9E9E" points="-21.677,14.809 -10.352,37.195 0.975,14.809 		"/>
		<polygon opacity="0.05" enable-background="new    " points="-21.677,14.809 -10.352,37.195 -9.096,34.717 -18.204,15.639 		"/>
		<polyline opacity="0.1" fill="#FFFFFF" enable-background="new    " points="-14.25,7.548 -16.014,5 -21.677,14.809 
			-18.204,15.639 		"/>
	</g>
	<g display="inline">
		<path fill="#848484" d="M135.5,14.688h1.681l4.541,12.342h0.06l4.541-12.342h1.701v13.863h-1.141V16.128h-0.04l-4.621,12.423
			h-1.04l-4.602-12.423h-0.039v12.423H135.5V14.688z"/>
		<path fill="#848484" d="M151.68,25.95c0-1.74,1.08-2.681,3.061-2.9l2.98-0.341v-1.32c0-1.7-0.78-2.22-2.601-2.22
			c-1,0-1.84,0.18-2.56,0.4v-0.8c0.879-0.34,1.819-0.54,2.96-0.54c2.101,0,3.28,0.88,3.28,2.921v7.401h-0.899l-0.101-0.881h-0.06
			c-0.5,0.521-1.44,1.061-2.921,1.061C152.96,28.73,151.68,27.73,151.68,25.95z M157.721,26.971v-3.441l-2.7,0.301
			c-1.521,0.16-2.221,0.779-2.221,2.08c0,1.26,0.88,1.961,2.28,1.961C156.24,27.871,157.201,27.451,157.721,26.971z"/>
		<path fill="#848484" d="M162.88,18.409h1.04v0.86h0.06c0.74-0.54,1.82-1.04,3.261-1.04c2.28,0,4.121,1.2,4.121,5.081v0.22
			c0,3.621-1.801,5.201-4.621,5.201c-1.24,0-2.16-0.359-2.78-0.72v4.44h-1.08V18.409z M170.221,23.67v-0.32
			c0-3.241-1.22-4.181-3.24-4.181c-1.32,0-2.4,0.48-3.021,0.9v7.001c0.58,0.4,1.54,0.76,2.7,0.76
			C168.86,27.83,170.221,26.631,170.221,23.67z"/>
	</g>
</g>
<g id="Layer_5" display="none">
	<polygon display="inline" fill="none" stroke="#9E9E9E" stroke-width="3" stroke-miterlimit="10" points="-20.469,23.934 
		-20.677,12.656 -11.016,6.837 -1.146,12.295 -0.938,23.57 -10.599,29.393 	"/>
	
		<rect x="-2.168" y="23.491" transform="matrix(-0.6364 0.7713 -0.7713 -0.6364 21.137 48.8222)" display="inline" fill="#9E9E9E" width="2.461" height="11.803"/>
	<g display="inline">
		<path fill="#848484" d="M135.039,27.469v-0.961c1.041,0.561,2.421,0.94,3.881,0.94c2.421,0,3.461-1.08,3.461-2.82
			c0-1.681-0.96-2.321-2.74-2.901l-1.12-0.379c-2.181-0.721-3.241-1.681-3.241-3.741c0-1.98,1.4-3.461,4.182-3.461
			c1.58,0,2.62,0.38,3.36,0.76v0.98c-0.761-0.4-1.9-0.78-3.401-0.78c-2,0-3,0.98-3,2.401c0,1.54,0.62,2.2,2.541,2.82l1.119,0.38
			c2.102,0.7,3.441,1.54,3.441,3.841c0,2.341-1.36,3.881-4.541,3.881C137.32,28.429,135.939,27.988,135.039,27.469z"/>
		<path fill="#848484" d="M146.5,23.268v-0.24c0-3.521,2.02-5.141,4.4-5.141c2.76,0,4.021,1.7,4.021,4.741v0.621H147.6
			c0,2.92,1.28,4.2,3.841,4.2c1.36,0,2.321-0.319,3.142-0.72v0.82c-0.621,0.399-1.741,0.84-3.301,0.84
			C148.1,28.389,146.5,26.528,146.5,23.268z M147.619,22.367h6.162c0-2.38-0.94-3.581-2.921-3.581
			C149.26,18.787,147.779,19.787,147.619,22.367z"/>
		<path fill="#848484" d="M157.66,25.607c0-1.74,1.08-2.68,3.061-2.9l2.98-0.34v-1.32c0-1.7-0.781-2.22-2.602-2.22
			c-1,0-1.84,0.18-2.561,0.4v-0.8c0.881-0.34,1.82-0.54,2.961-0.54c2.1,0,3.281,0.88,3.281,2.921v7.402h-0.9l-0.1-0.881h-0.061
			c-0.5,0.521-1.441,1.061-2.92,1.061C158.939,28.389,157.66,27.389,157.66,25.607z M163.701,26.628v-3.44l-2.701,0.3
			c-1.52,0.16-2.221,0.78-2.221,2.081c0,1.26,0.881,1.96,2.281,1.96C162.221,27.528,163.18,27.108,163.701,26.628z"/>
		<path fill="#848484" d="M168.859,18.066h1.041v1.2h0.059c0.621-0.66,1.74-1.32,3.002-1.32c0.219,0,0.479,0.02,0.6,0.06v0.98
			c-0.221-0.04-0.5-0.06-0.68-0.06c-1.141,0-2.221,0.5-2.941,1.141v8.142h-1.08V18.066z"/>
		<path fill="#848484" d="M175.9,23.287v-0.26c0-3.581,2.02-5.141,4.619-5.141c1.301,0,2.082,0.24,2.801,0.68v0.92
			c-0.859-0.42-1.561-0.66-2.881-0.66c-1.979,0-3.439,1.28-3.439,4.041v0.4c0,2.721,1.141,4.181,3.58,4.181
			c1.42,0,2.301-0.44,2.861-0.761v0.881c-0.66,0.42-1.5,0.82-2.98,0.82C177.5,28.389,175.9,26.549,175.9,23.287z"/>
		<path fill="#848484" d="M186.799,13.425h1.08v5.561h0.08c1.041-0.68,2.381-1.1,3.66-1.1c1.941,0,2.941,0.78,2.941,2.721v7.602
			h-1.08v-7.382c0-1.44-0.621-2-2.301-2c-1.1,0-2.281,0.38-3.301,0.94v8.442h-1.08V13.425z"/>
	</g>
	<g id="Layer_2_3_" display="inline">
		
			<linearGradient id="SVGID_1_" gradientUnits="userSpaceOnUse" x1="290.4023" y1="1220.9512" x2="340.5986" y2="1220.9512" gradientTransform="matrix(1 0 0 1 -222 -1238.5)">
			<stop  offset="0" style="stop-color:#29B473"/>
			<stop  offset="0.0983" style="stop-color:#27ABCD"/>
			<stop  offset="0.1183" style="stop-color:#26A9E0"/>
			<stop  offset="0.1835" style="stop-color:#287DC0;stop-opacity:0.9908"/>
			<stop  offset="0.2484" style="stop-color:#2A57A5;stop-opacity:0.9815"/>
			<stop  offset="0.3006" style="stop-color:#2B4095;stop-opacity:0.9741"/>
			<stop  offset="0.3335" style="stop-color:#2B388F;stop-opacity:0.9695"/>
			<stop  offset="0.3547" style="stop-color:#35368F;stop-opacity:0.9747"/>
			<stop  offset="0.39" style="stop-color:#4E328F;stop-opacity:0.9833"/>
			<stop  offset="0.4348" style="stop-color:#782B8E;stop-opacity:0.9944"/>
			<stop  offset="0.4578" style="stop-color:#90278E"/>
			<stop  offset="0.5068" style="stop-color:#94278D"/>
			<stop  offset="0.5577" style="stop-color:#A1278B"/>
			<stop  offset="0.6095" style="stop-color:#B52886"/>
			<stop  offset="0.6616" style="stop-color:#D22880"/>
			<stop  offset="0.6992" style="stop-color:#EC297B"/>
			<stop  offset="0.7259" style="stop-color:#EC2C76"/>
			<stop  offset="0.7572" style="stop-color:#ED3668"/>
			<stop  offset="0.7907" style="stop-color:#EE4650"/>
			<stop  offset="0.8256" style="stop-color:#F05C30"/>
			<stop  offset="0.8383" style="stop-color:#F16522"/>
			<stop  offset="0.8654" style="stop-color:#F16922"/>
			<stop  offset="0.8934" style="stop-color:#F27624"/>
			<stop  offset="0.9218" style="stop-color:#F38A26"/>
			<stop  offset="0.9505" style="stop-color:#F5A729"/>
			<stop  offset="0.9791" style="stop-color:#F7CC2D"/>
			<stop  offset="1" style="stop-color:#F9EC31"/>
		</linearGradient>
		<polygon fill="url(#SVGID_1_)" points="68.402,-17.748 82.397,-17.75 83.147,-16.066 84.27,-17.748 99.603,-17.75 101.59,-19.768 
			103.681,-17.75 118.599,-17.75 118.599,-17.208 103.112,-17.208 101.611,-19.085 100.046,-17.208 84.713,-17.208 83.147,-15.331 
			81.797,-17.208 68.402,-17.208 		"/>
	</g>
	<g id="Layer_2_4_" display="inline">
		
			<linearGradient id="SVGID_2_" gradientUnits="userSpaceOnUse" x1="290.4023" y1="1220.9512" x2="340.5986" y2="1220.9512" gradientTransform="matrix(1 0 0 1 -222 -1238.5)">
			<stop  offset="0" style="stop-color:#29B473"/>
			<stop  offset="0.0983" style="stop-color:#27ABCD"/>
			<stop  offset="0.1183" style="stop-color:#26A9E0"/>
			<stop  offset="0.1835" style="stop-color:#287DC0;stop-opacity:0.9908"/>
			<stop  offset="0.2484" style="stop-color:#2A57A5;stop-opacity:0.9815"/>
			<stop  offset="0.3006" style="stop-color:#2B4095;stop-opacity:0.9741"/>
			<stop  offset="0.3335" style="stop-color:#2B388F;stop-opacity:0.9695"/>
			<stop  offset="0.3547" style="stop-color:#35368F;stop-opacity:0.9747"/>
			<stop  offset="0.39" style="stop-color:#4E328F;stop-opacity:0.9833"/>
			<stop  offset="0.4348" style="stop-color:#782B8E;stop-opacity:0.9944"/>
			<stop  offset="0.4578" style="stop-color:#90278E"/>
			<stop  offset="0.5068" style="stop-color:#94278D"/>
			<stop  offset="0.5577" style="stop-color:#A1278B"/>
			<stop  offset="0.6095" style="stop-color:#B52886"/>
			<stop  offset="0.6616" style="stop-color:#D22880"/>
			<stop  offset="0.6992" style="stop-color:#EC297B"/>
			<stop  offset="0.7259" style="stop-color:#EC2C76"/>
			<stop  offset="0.7572" style="stop-color:#ED3668"/>
			<stop  offset="0.7907" style="stop-color:#EE4650"/>
			<stop  offset="0.8256" style="stop-color:#F05C30"/>
			<stop  offset="0.8383" style="stop-color:#F16522"/>
			<stop  offset="0.8654" style="stop-color:#F16922"/>
			<stop  offset="0.8934" style="stop-color:#F27624"/>
			<stop  offset="0.9218" style="stop-color:#F38A26"/>
			<stop  offset="0.9505" style="stop-color:#F5A729"/>
			<stop  offset="0.9791" style="stop-color:#F7CC2D"/>
			<stop  offset="1" style="stop-color:#F9EC31"/>
		</linearGradient>
		<polygon fill="url(#SVGID_2_)" points="68.402,-17.748 82.396,-17.75 83.147,-16.066 84.27,-17.748 99.603,-17.75 101.59,-19.768 
			103.681,-17.75 118.599,-17.75 118.599,-17.208 103.112,-17.208 101.611,-19.085 100.046,-17.208 84.713,-17.208 83.147,-15.331 
			81.797,-17.208 68.402,-17.208 		"/>
	</g>
	<g id="Layer_2_5_" display="inline">
		
			<linearGradient id="SVGID_3_" gradientUnits="userSpaceOnUse" x1="290.4023" y1="1220.9512" x2="340.5986" y2="1220.9512" gradientTransform="matrix(1 0 0 1 -222 -1238.5)">
			<stop  offset="0" style="stop-color:#29B473"/>
			<stop  offset="0.0983" style="stop-color:#27ABCD"/>
			<stop  offset="0.1183" style="stop-color:#26A9E0"/>
			<stop  offset="0.1835" style="stop-color:#287DC0;stop-opacity:0.9908"/>
			<stop  offset="0.2484" style="stop-color:#2A57A5;stop-opacity:0.9815"/>
			<stop  offset="0.3006" style="stop-color:#2B4095;stop-opacity:0.9741"/>
			<stop  offset="0.3335" style="stop-color:#2B388F;stop-opacity:0.9695"/>
			<stop  offset="0.3547" style="stop-color:#35368F;stop-opacity:0.9747"/>
			<stop  offset="0.39" style="stop-color:#4E328F;stop-opacity:0.9833"/>
			<stop  offset="0.4348" style="stop-color:#782B8E;stop-opacity:0.9944"/>
			<stop  offset="0.4578" style="stop-color:#90278E"/>
			<stop  offset="0.5068" style="stop-color:#94278D"/>
			<stop  offset="0.5577" style="stop-color:#A1278B"/>
			<stop  offset="0.6095" style="stop-color:#B52886"/>
			<stop  offset="0.6616" style="stop-color:#D22880"/>
			<stop  offset="0.6992" style="stop-color:#EC297B"/>
			<stop  offset="0.7259" style="stop-color:#EC2C76"/>
			<stop  offset="0.7572" style="stop-color:#ED3668"/>
			<stop  offset="0.7907" style="stop-color:#EE4650"/>
			<stop  offset="0.8256" style="stop-color:#F05C30"/>
			<stop  offset="0.8383" style="stop-color:#F16522"/>
			<stop  offset="0.8654" style="stop-color:#F16922"/>
			<stop  offset="0.8934" style="stop-color:#F27624"/>
			<stop  offset="0.9218" style="stop-color:#F38A26"/>
			<stop  offset="0.9505" style="stop-color:#F5A729"/>
			<stop  offset="0.9791" style="stop-color:#F7CC2D"/>
			<stop  offset="1" style="stop-color:#F9EC31"/>
		</linearGradient>
		<polygon fill="url(#SVGID_3_)" points="68.402,-17.748 82.396,-17.75 83.147,-16.066 84.27,-17.748 99.603,-17.75 101.59,-19.768 
			103.681,-17.75 118.599,-17.75 118.599,-17.208 103.112,-17.208 101.611,-19.085 100.046,-17.208 84.713,-17.208 83.147,-15.331 
			81.797,-17.208 68.402,-17.208 		"/>
	</g>
	<linearGradient id="SVGID_4_" gradientUnits="userSpaceOnUse" x1="140.667" y1="-8.75" x2="195.751" y2="-8.75">
		<stop  offset="0" style="stop-color:#FFDD15"/>
		<stop  offset="0.1467" style="stop-color:#F6921E"/>
		<stop  offset="0.3114" style="stop-color:#EC1C24"/>
		<stop  offset="0.4607" style="stop-color:#EC297B"/>
		<stop  offset="0.6641" style="stop-color:#90278E"/>
		<stop  offset="0.6919" style="stop-color:#8C2B91"/>
		<stop  offset="0.7222" style="stop-color:#7E379A"/>
		<stop  offset="0.7538" style="stop-color:#694CA8"/>
		<stop  offset="0.7862" style="stop-color:#4A68BD"/>
		<stop  offset="0.8189" style="stop-color:#238CD7"/>
		<stop  offset="0.8439" style="stop-color:#00ADEE"/>
		<stop  offset="1" style="stop-color:#29B473"/>
	</linearGradient>
	
		<line display="inline" fill="none" stroke="url(#SVGID_4_)" stroke-width="0.5" stroke-miterlimit="10" x1="140.667" y1="-8.75" x2="195.751" y2="-8.75"/>
</g>
<g id="Layer_6" display="none">
	
		<linearGradient id="SVGID_5_" gradientUnits="userSpaceOnUse" x1="841.4609" y1="-1968.5981" x2="870.8242" y2="-1968.5981" gradientTransform="matrix(1 0 0 -1 -865 -1950.0586)">
		<stop  offset="0" style="stop-color:#FFDD15"/>
		<stop  offset="0.1467" style="stop-color:#F6921E"/>
		<stop  offset="0.3114" style="stop-color:#EC1C24"/>
		<stop  offset="0.4607" style="stop-color:#EC297B"/>
		<stop  offset="0.6641" style="stop-color:#90278E"/>
		<stop  offset="0.6919" style="stop-color:#8C2B91"/>
		<stop  offset="0.7222" style="stop-color:#7E379A"/>
		<stop  offset="0.7538" style="stop-color:#694CA8"/>
		<stop  offset="0.7862" style="stop-color:#4A68BD"/>
		<stop  offset="0.8189" style="stop-color:#238CD7"/>
		<stop  offset="0.8439" style="stop-color:#00ADEE"/>
		<stop  offset="1" style="stop-color:#29B473"/>
	</linearGradient>
	
		<polygon display="inline" opacity="0.7" fill="#9E9E9E" stroke="url(#SVGID_5_)" stroke-width="0.5" stroke-miterlimit="10" enable-background="new    " points="
		-16.053,31.005 -23.25,18.538 -16.053,6.074 -1.661,6.074 5.536,18.538 -1.661,31.005 	"/>
	<g display="inline">
		<path fill="#848484" d="M133.638,15.184h1.16l4.501,12.323h0.021l4.501-12.323h1.061l-5.102,13.863h-1.04L133.638,15.184z"/>
		<path fill="#848484" d="M147.838,15.484h1.12v1.24h-1.12V15.484z M147.857,18.905h1.081v10.142h-1.081V18.905z"/>
		<path fill="#848484" d="M153.079,28.667V14.264h1.08v5.401h0.08c0.8-0.48,1.82-0.94,3.341-0.94c2.1,0,3.98,1.16,3.98,5.062v0.239
			c0,3.421-1.82,5.241-4.941,5.241C155.359,29.267,153.938,29.047,153.079,28.667z M160.42,24.166v-0.32
			c0-3.201-1.18-4.181-3.32-4.181c-1.24,0-2.301,0.48-2.94,0.84v7.382c0.6,0.26,1.38,0.44,2.54,0.44
			C158.8,28.327,160.42,27.227,160.42,24.166z"/>
		<path fill="#848484" d="M164.398,24.105v-0.239c0-3.521,2.02-5.142,4.4-5.142c2.761,0,4.021,1.7,4.021,4.741v0.62h-7.321
			c0,2.921,1.28,4.201,3.841,4.201c1.36,0,2.32-0.32,3.141-0.721v0.82c-0.62,0.4-1.74,0.84-3.301,0.84
			C165.998,29.227,164.398,27.366,164.398,24.105z M165.519,23.206h6.161c0-2.381-0.94-3.581-2.921-3.581
			C167.158,19.625,165.679,20.625,165.519,23.206z"/>
		<path fill="#848484" d="M175.638,28.486v-0.88c0.82,0.36,1.641,0.681,3.081,0.681c1.84,0,2.521-0.761,2.521-1.841
			c0-1.16-0.54-1.58-1.98-2l-1.101-0.32c-1.5-0.42-2.4-1.08-2.4-2.721c0-1.581,1.08-2.681,3.301-2.681c1.3,0,2.16,0.3,2.721,0.6v0.9
			c-0.62-0.3-1.62-0.56-2.661-0.56c-1.56,0-2.34,0.6-2.34,1.66c0,1.04,0.479,1.48,1.74,1.841l1.12,0.319
			c1.841,0.521,2.681,1.12,2.681,2.881c0,1.721-1.16,2.841-3.48,2.841C177.479,29.207,176.397,28.907,175.638,28.486z"/>
	</g>
</g>
</svg>
