<?xml version="1.0" encoding="utf-8"?>
<!-- Generator: Adobe Illustrator 16.0.4, SVG Export Plug-In . SVG Version: 6.00 Build 0)  -->
<!DOCTYPE svg PUBLIC "-//W3C//DTD SVG 1.1//EN" "http://www.w3.org/Graphics/SVG/1.1/DTD/svg11.dtd">
<svg version="1.1" id="Layer_1" xmlns="http://www.w3.org/2000/svg" xmlns:xlink="http://www.w3.org/1999/xlink" x="0px" y="0px"
	 width="46px" height="46px" viewBox="0 0 46 46" enable-background="new 0 0 46 46" xml:space="preserve">
<polygon fill="#FBEE29" points="-177.444,9.027 -179.93,4.722 -177.444,0.417 -172.473,0.417 -169.987,4.722 -172.473,9.027 "/>
<polygon fill="#F6851F" points="-164.866,15.176 -167.351,10.871 -164.866,6.566 -159.895,6.566 -157.409,10.871 -159.895,15.176 
	"/>
<polygon fill="#EE3255" points="-159.895,27.305 -162.38,23 -159.895,18.695 -154.923,18.695 -152.438,23 -154.923,27.305 "/>
<polygon fill="#A555A1" points="-177.444,45.458 -179.929,41.153 -177.444,36.848 -172.473,36.848 -169.987,41.153 -172.473,45.458 
	"/>
<polygon fill="#E44A9A" points="-164.866,39.528 -167.351,35.223 -164.866,30.918 -159.895,30.918 -157.409,35.223 -159.895,39.528 
	"/>
<polygon fill="#69CCE2" points="-194.994,27.305 -197.479,23 -194.994,18.695 -190.022,18.695 -187.537,23 -190.022,27.305 "/>
<polygon fill="#5296D0" points="-190.023,39.528 -192.508,35.223 -190.023,30.918 -185.052,30.918 -182.566,35.223 -185.052,39.528 
	"/>
<polygon fill="#65BC46" points="-190.023,15.176 -192.508,10.872 -190.023,6.566 -185.052,6.566 -182.566,10.872 -185.052,15.176 
	"/>
<g>
	<path fill="#8C8C8C" d="M-104.878,17.348c-3.832,0-6.949,3.12-6.949,6.952c0,3.829,3.117,6.946,6.949,6.946s6.95-3.117,6.95-6.946
		C-97.928,20.468-101.046,17.348-104.878,17.348z"/>
	<path fill="#FFFFFF" d="M-106.713,28.043c-0.844-0.752-1.386-1.833-1.386-3.053c0-2.268,1.837-4.104,4.104-4.104
		c1.26,0,2.375,0.58,3.127,1.475C-103.903,22.688-106.306,25.034-106.713,28.043z"/>
	<path fill="none" stroke="#8C8C8C" stroke-miterlimit="10" d="M-91.761,10.261h-2.762V7.5h-2.761v2.761h-13.807
		c0-1.33-1.244-2.761-2.762-2.761h-5.522c-1.518,0-2.761,1.432-2.761,2.761h-2.762c-1.518,0-2.761,1.244-2.761,2.762v22.091
		c0,1.519,1.244,2.761,2.761,2.761h33.137c1.518,0,2.761-1.243,2.761-2.761V13.023C-89,11.505-90.244,10.261-91.761,10.261z
		 M-121.047,19.576c-1.11,0-2.011-0.901-2.011-2.012c0-1.109,0.901-2.009,2.011-2.009s2.01,0.9,2.01,2.009
		C-119.037,18.675-119.937,19.576-121.047,19.576z M-104.878,34.838c-5.811,0-10.539-4.729-10.539-10.538
		c0-5.811,4.728-10.539,10.539-10.539s10.539,4.728,10.539,10.539C-94.339,30.109-99.067,34.838-104.878,34.838z"/>
</g>
<path fill="none" stroke="#8C8C8C" stroke-miterlimit="10" d="M-24.953,35.166l-6.176-6.178c1.562-2.442,2.483-5.339,2.483-8.456
	c0-8.671-7.026-15.699-15.699-15.699c-8.669,0-15.699,7.028-15.699,15.699c0,8.67,7.03,15.699,15.699,15.699
	c3.119,0,6.015-0.919,8.456-2.485l6.179,6.178c0.434,0.436,1.147,0.436,1.585,0l3.172-3.171
	C-24.515,36.314-24.515,35.6-24.953,35.166z"/>
<path fill="none" stroke="#8C8C8C" stroke-miterlimit="10" d="M-44.345,31.745c-6.181,0-11.214-5.03-11.214-11.213
	c0-6.183,5.033-11.213,11.214-11.213c6.186,0,11.214,5.031,11.214,11.213C-33.131,26.715-38.159,31.745-44.345,31.745z"/>
<path fill="none" stroke="#8C8C8C" stroke-miterlimit="10" d="M41.393,32.028c-1.1-1.717-4.801-2.785-8.46-4.311
	c-3.662-1.526-4.53-2.055-4.53-2.055l-0.034-3.512c0,0,1.372-1.054,1.798-4.359c0.855,0.249,1.758-1.28,1.807-2.085
	c0.048-0.775-0.117-2.927-1.165-2.711c0.214-1.621,0.368-3.078,0.293-3.849c-0.272-2.822-3.05-5.798-7.322-5.798
	c-4.271,0-7.05,2.976-7.321,5.798c-0.078,0.771,0.078,2.228,0.29,3.849c-1.045-0.216-1.21,1.936-1.164,2.711
	c0.051,0.806,0.948,2.334,1.809,2.085c0.424,3.305,1.798,4.359,1.798,4.359l-0.035,3.512c0,0-0.869,0.529-4.529,2.055
	c-3.662,1.526-7.36,2.594-8.461,4.311c-0.989,1.538-0.69,8.93-0.69,8.93h36.609C42.083,40.958,42.38,33.565,41.393,32.028z"/>
</svg>
