<?xml version="1.0" encoding="utf-8"?>
<!-- Generator: Adobe Illustrator 16.0.4, SVG Export Plug-In . SVG Version: 6.00 Build 0)  -->
<!DOCTYPE svg PUBLIC "-//W3C//DTD SVG 1.1//EN" "http://www.w3.org/Graphics/SVG/1.1/DTD/svg11.dtd">
<svg version="1.1" id="Layer_1" xmlns="http://www.w3.org/2000/svg" xmlns:xlink="http://www.w3.org/1999/xlink" x="0px" y="0px"
	 width="320px" height="20.793px" viewBox="0 0 320 20.793" enable-background="new 0 0 320 20.793" xml:space="preserve">
<polygon opacity="0.8" fill="#06B052" enable-background="new    " points="9.893,-29.832 14.123,-36.177 18.945,-29.832 "/>
<polygon fill="#754D9E" points="19.877,-29.832 24.107,-36.177 28.93,-29.832 "/>
<polygon opacity="0.9" fill="#ED2A25" enable-background="new    " points="29.862,-29.832 34.091,-36.177 38.914,-29.832 "/>
<polygon opacity="0.9" fill="#F8ED40" enable-background="new    " points="39.846,-29.832 44.076,-36.177 48.898,-29.832 "/>
<polygon opacity="0.9" fill="#426EB5" enable-background="new    " points="43.906,-29.832 39.676,-23.487 34.854,-29.832 "/>
<polygon opacity="0.9" fill="#ED4798" enable-background="new    " points="33.922,-29.832 29.691,-23.487 24.87,-29.832 "/>
<polygon opacity="0.9" fill="#F7961D" enable-background="new    " points="23.938,-29.832 19.708,-23.487 14.885,-29.832 "/>
<polygon opacity="0.9" fill="#F8ED40" enable-background="new    " points="83.219,-29.832 78.989,-23.487 74.167,-29.832 "/>
<polygon opacity="0.9" fill="#426EB5" enable-background="new    " points="73.235,-29.832 69.005,-23.487 64.183,-29.832 "/>
<polygon opacity="0.9" fill="#ED4798" enable-background="new    " points="63.251,-29.832 59.021,-23.487 54.199,-29.832 "/>
<polygon opacity="0.9" fill="#F7961D" enable-background="new    " points="53.267,-29.832 49.037,-23.487 44.214,-29.832 "/>
<polygon opacity="0.9" fill="#ED2A25" enable-background="new    " points="49.207,-29.832 53.437,-36.177 58.258,-29.832 "/>
<polygon fill="#754D9E" points="59.19,-29.832 63.421,-36.177 68.243,-29.832 "/>
<polygon opacity="0.8" fill="#06B052" enable-background="new    " points="69.175,-29.832 73.405,-36.177 78.228,-29.832 "/>
<polygon opacity="0.9" fill="#426EB5" enable-background="new    " points="142.501,-29.832 138.271,-23.487 133.448,-29.832 "/>
<polygon opacity="0.9" fill="#ED4798" enable-background="new    " points="132.517,-29.832 128.287,-23.487 123.464,-29.832 "/>
<polygon opacity="0.9" fill="#F7961D" enable-background="new    " points="122.532,-29.832 118.303,-23.487 113.48,-29.832 "/>
<polygon opacity="0.9" fill="#ED2A25" enable-background="new    " points="118.472,-29.832 122.702,-36.177 127.524,-29.832 "/>
<polygon fill="#754D9E" points="128.456,-29.832 132.687,-36.177 137.509,-29.832 "/>
<polygon opacity="0.8" fill="#06B052" enable-background="new    " points="138.44,-29.832 142.671,-36.177 147.493,-29.832 "/>
<polygon opacity="0.9" fill="#F7961D" enable-background="new    " points="79.159,-29.832 83.388,-36.177 88.211,-29.832 "/>
<polygon opacity="0.9" fill="#F8ED40" enable-background="new    " points="222.719,-29.832 218.489,-23.487 213.667,-29.832 "/>
<polygon opacity="0.9" fill="#426EB5" enable-background="new    " points="212.734,-29.832 208.505,-23.487 203.684,-29.832 "/>
<polygon opacity="0.9" fill="#ED4798" enable-background="new    " points="202.751,-29.832 198.521,-23.487 193.698,-29.832 "/>
<polygon fill="#754D9E" points="198.689,-29.832 202.921,-36.177 207.743,-29.832 "/>
<polygon opacity="0.8" fill="#06B052" enable-background="new    " points="208.675,-29.832 212.905,-36.177 217.729,-29.832 "/>
<polygon opacity="0.9" fill="#F7961D" enable-background="new    " points="218.659,-29.832 222.889,-36.177 227.711,-29.832 "/>
<polygon opacity="0.9" fill="#ED4798" enable-background="new    " points="89.144,-29.832 93.373,-36.177 98.195,-29.832 "/>
<polygon opacity="0.9" fill="#426EB5" enable-background="new    " points="99.128,-29.832 103.357,-36.177 108.179,-29.832 "/>
<polygon opacity="0.9" fill="#F8ED40" enable-background="new    " points="109.112,-29.832 113.341,-36.177 118.164,-29.832 "/>
<polygon opacity="0.8" fill="#06B052" enable-background="new    " points="113.171,-29.832 108.941,-23.487 104.12,-29.832 "/>
<polygon opacity="0.9" fill="#F7961D" enable-background="new    " points="193.046,-29.832 188.816,-23.487 183.994,-29.832 "/>
<polygon opacity="0.9" fill="#ED2A25" enable-background="new    " points="188.986,-29.832 193.217,-36.177 198.038,-29.832 "/>
<polygon opacity="0.9" fill="#F8ED40" enable-background="new    " points="179.626,-29.832 183.854,-36.177 188.678,-29.832 "/>
<polygon opacity="0.8" fill="#06B052" enable-background="new    " points="183.686,-29.832 179.455,-23.487 174.634,-29.832 "/>
<polygon fill="#754D9E" points="103.188,-29.832 98.957,-23.487 94.136,-29.832 "/>
<polygon opacity="0.9" fill="#ED2A25" enable-background="new    " points="93.203,-29.832 88.973,-23.487 84.151,-29.832 "/>
<polygon opacity="0.9" fill="#F8ED40" enable-background="new    " points="153.109,-29.832 148.879,-23.487 144.057,-29.832 "/>
<polygon opacity="0.9" fill="#F7961D" enable-background="new    " points="149.049,-29.832 153.278,-36.177 158.102,-29.832 "/>
<polygon opacity="0.9" fill="#ED4798" enable-background="new    " points="159.033,-29.832 163.264,-36.177 168.085,-29.832 "/>
<polygon opacity="0.9" fill="#426EB5" enable-background="new    " points="169.018,-29.832 173.247,-36.177 178.068,-29.832 "/>
<polygon fill="#754D9E" points="173.077,-29.832 168.848,-23.487 164.025,-29.832 "/>
<polygon opacity="0.9" fill="#ED2A25" enable-background="new    " points="163.093,-29.832 158.863,-23.487 154.041,-29.832 "/>
<polygon opacity="0.9" fill="#ED4798" enable-background="new    " points="228.783,-29.832 233.014,-36.177 237.835,-29.832 "/>
<polygon opacity="0.9" fill="#ED2A25" enable-background="new    " points="232.843,-29.832 228.613,-23.487 223.791,-29.832 "/>
<polygon opacity="0.9" fill="#F8ED40" enable-background="new    " points="292.719,-29.832 288.489,-23.487 283.667,-29.832 "/>
<polygon opacity="0.9" fill="#426EB5" enable-background="new    " points="282.734,-29.832 278.505,-23.487 273.684,-29.832 "/>
<polygon opacity="0.9" fill="#ED4798" enable-background="new    " points="272.751,-29.832 268.521,-23.487 263.698,-29.832 "/>
<polygon fill="#754D9E" points="268.689,-29.832 272.921,-36.177 277.743,-29.832 "/>
<polygon opacity="0.8" fill="#06B052" enable-background="new    " points="278.675,-29.832 282.905,-36.177 287.729,-29.832 "/>
<polygon opacity="0.9" fill="#F7961D" enable-background="new    " points="288.659,-29.832 292.889,-36.177 297.711,-29.832 "/>
<polygon opacity="0.9" fill="#F7961D" enable-background="new    " points="263.046,-29.832 258.816,-23.487 253.994,-29.832 "/>
<polygon opacity="0.9" fill="#ED2A25" enable-background="new    " points="258.986,-29.832 263.217,-36.177 268.038,-29.832 "/>
<polygon opacity="0.9" fill="#F8ED40" enable-background="new    " points="249.626,-29.832 253.854,-36.177 258.678,-29.832 "/>
<polygon opacity="0.8" fill="#06B052" enable-background="new    " points="253.686,-29.832 249.455,-23.487 244.634,-29.832 "/>
<polygon opacity="0.9" fill="#426EB5" enable-background="new    " points="239.018,-29.832 243.247,-36.177 248.068,-29.832 "/>
<polygon fill="#754D9E" points="243.077,-29.832 238.848,-23.487 234.025,-29.832 "/>
<polygon opacity="0.9" fill="#ED4798" enable-background="new    " points="298.783,-29.832 303.014,-36.177 307.835,-29.832 "/>
<polygon opacity="0.9" fill="#ED2A25" enable-background="new    " points="302.843,-29.832 298.613,-23.487 293.791,-29.832 "/>
<g>
	<rect x="255.586" y="16.334" opacity="0.9" fill="#F8ED40" width="34.845" height="2.729"/>
	<rect x="238.359" y="16.334" opacity="0.9" fill="#F7961D" width="34.845" height="2.729"/>
	<rect x="220.873" y="16.334" opacity="0.8" fill="#ED2A25" width="34.845" height="2.729"/>
	<rect x="203.158" y="16.334" opacity="0.9" fill="#ED4798" width="34.845" height="2.729"/>
	<rect x="185.669" y="16.334" opacity="0.9" fill="#754D9E" width="34.845" height="2.729"/>
	<rect x="168.537" y="16.334" opacity="0.9" fill="#426EB5" width="34.845" height="2.729"/>
	<rect x="168.537" y="16.334" opacity="0.9" fill="#06B052" width="17.353" height="2.729"/>
	<rect x="133.692" y="16.334" opacity="0.9" fill="#F8ED40" width="34.845" height="2.729"/>
	<rect x="116.466" y="16.334" opacity="0.9" fill="#F7961D" width="34.844" height="2.729"/>
	<rect x="98.979" y="16.334" opacity="0.8" fill="#ED2A25" width="34.845" height="2.729"/>
	<rect x="81.265" y="16.334" opacity="0.9" fill="#ED4798" width="34.845" height="2.729"/>
	<rect x="63.775" y="16.334" opacity="0.9" fill="#754D9E" width="34.845" height="2.729"/>
	<rect x="46.388" y="16.334" opacity="0.9" fill="#426EB5" width="34.845" height="2.729"/>
	<rect x="29.151" y="16.334" opacity="0.9" fill="#06B052" width="34.845" height="2.729"/>
</g>
</svg>
