<?xml version="1.0" encoding="utf-8"?>
<!-- Generator: Adobe Illustrator 16.0.0, SVG Export Plug-In . SVG Version: 6.00 Build 0)  -->
<!DOCTYPE svg PUBLIC "-//W3C//DTD SVG 1.1//EN" "http://www.w3.org/Graphics/SVG/1.1/DTD/svg11.dtd">
<svg version="1.1" id="Layer_1" xmlns="http://www.w3.org/2000/svg" xmlns:xlink="http://www.w3.org/1999/xlink" x="0px" y="0px"
	 width="150px" height="150px" viewBox="0 0 150 150" enable-background="new 0 0 150 150" xml:space="preserve">
<g id="settings">
	<g>
		<g>
			<path id="svgCog" fill="none" stroke="#535353" stroke-width="3" stroke-miterlimit="10" d="M118.323,71.379l-7.064-1.132
				c-0.924-0.15-1.719-0.348-1.768-0.449c-0.05-0.095-0.297-1.134-0.297-1.439c0-0.311,0.676-0.941,1.489-1.396l6.26-3.515
				c0.812-0.45,1.221-1.549,0.901-2.442l-1.115-3.067c-0.315-0.886-1.327-1.464-2.243-1.285l-7.031,1.367
				c-0.919,0.18-1.729,0.268-1.812,0.193c-0.077-0.069-0.659-0.96-0.766-1.256c-0.103-0.286,0.313-1.109,0.926-1.822l4.691-5.453
				c0.614-0.713,0.621-1.885,0.023-2.604l-2.088-2.503c-0.601-0.727-1.748-0.923-2.544-0.435l-6.143,3.714
				c-0.806,0.483-1.538,0.847-1.639,0.808c-0.1-0.047-0.951-0.674-1.148-0.913c-0.193-0.242-0.08-1.161,0.253-2.034l2.558-6.743
				c0.335-0.881-0.057-1.983-0.862-2.457l-2.812-1.637c-0.806-0.473-1.949-0.258-2.537,0.471l-4.51,5.608
				c-0.587,0.736-1.159,1.325-1.263,1.322c-0.113-0.004-1.125-0.307-1.391-0.465c-0.263-0.158-0.466-1.051-0.451-1.998l0.114-7.213
				c0.017-0.941-0.727-1.85-1.647-2.017l-3.189-0.563c-0.924-0.165-1.924,0.426-2.228,1.32l-2.34,6.824
				c-0.3,0.892-0.637,1.643-0.742,1.679c-0.102,0.028-1.162,0.097-1.463,0.043c-0.296-0.057-0.794-0.831-1.097-1.723l-2.339-6.825
				c-0.303-0.888-1.308-1.481-2.227-1.318l-3.196,0.563c-0.921,0.168-1.661,1.074-1.646,2.012l0.118,7.222
				c0.017,0.941-0.043,1.765-0.131,1.832c-0.08,0.063-1.052,0.493-1.354,0.546c-0.304,0.052-1.031-0.506-1.621-1.238l-4.513-5.606
				c-0.586-0.735-1.732-0.949-2.542-0.478l-2.805,1.639c-0.81,0.474-1.198,1.574-0.865,2.459l2.563,6.742
				c0.334,0.874,0.556,1.675,0.498,1.768c-0.056,0.088-0.825,0.823-1.091,0.979c-0.266,0.154-1.146-0.12-1.939-0.606l-6.146-3.711
				c-0.8-0.487-1.947-0.293-2.549,0.427l-2.085,2.509c-0.597,0.722-0.587,1.892,0.022,2.602l4.694,5.455
				c0.613,0.713,1.095,1.382,1.069,1.486c-0.025,0.111-0.493,1.069-0.691,1.3c-0.2,0.235-1.114,0.281-2.03,0.1l-7.032-1.367
				c-0.917-0.18-1.93,0.399-2.247,1.286l-1.111,3.074c-0.322,0.883,0.085,1.983,0.905,2.441l6.259,3.505
				c0.816,0.455,1.497,0.917,1.508,1.025c0.015,0.112-0.104,1.168-0.212,1.461c-0.104,0.29-0.946,0.646-1.869,0.793l-7.076,1.138
				C30.748,71.53,30,72.423,30,73.366v3.269c0,0.949,0.75,1.837,1.674,1.986l7.071,1.13c0.923,0.155,1.714,0.356,1.765,0.448
				c0.048,0.099,0.297,1.135,0.295,1.445c-0.003,0.312-0.671,0.942-1.485,1.395l-6.261,3.501c-0.818,0.457-1.226,1.559-0.903,2.444
				l1.11,3.073c0.314,0.884,1.331,1.462,2.248,1.285l7.03-1.372c0.916-0.18,1.733-0.266,1.808-0.193
				c0.08,0.075,0.666,0.963,0.771,1.259c0.101,0.288-0.314,1.107-0.931,1.816l-4.691,5.461c-0.612,0.706-0.624,1.881-0.023,2.602
				l2.086,2.508c0.602,0.72,1.748,0.913,2.551,0.431l6.141-3.715c0.799-0.482,1.536-0.847,1.636-0.806
				c0.1,0.044,0.955,0.674,1.15,0.91c0.193,0.245,0.08,1.156-0.253,2.032l-2.562,6.749c-0.334,0.877,0.058,1.982,0.864,2.453
				l2.811,1.636c0.809,0.476,1.956,0.26,2.543-0.471l4.51-5.604c0.587-0.737,1.156-1.328,1.265-1.323
				c0.108,0.007,1.123,0.309,1.389,0.46c0.26,0.158,0.465,1.056,0.45,1.996l-0.118,7.223c-0.016,0.943,0.725,1.844,1.645,2.007
				l3.201,0.572c0.919,0.16,1.924-0.432,2.228-1.327l2.335-6.823c0.302-0.884,0.639-1.642,0.744-1.671
				c0.101-0.035,1.158-0.105,1.463-0.045c0.302,0.052,0.802,0.823,1.104,1.716l2.336,6.825c0.31,0.895,1.311,1.486,2.23,1.325
				l3.192-0.562c0.923-0.169,1.662-1.073,1.646-2.013l-0.116-7.227c-0.019-0.936,0.041-1.766,0.129-1.828
				c0.082-0.063,1.052-0.494,1.356-0.545c0.304-0.051,1.026,0.507,1.616,1.235l4.51,5.605c0.594,0.732,1.737,0.944,2.542,0.475
				l2.81-1.633c0.812-0.477,1.199-1.58,0.864-2.461l-2.561-6.74c-0.338-0.881-0.561-1.677-0.5-1.763
				c0.062-0.097,0.824-0.834,1.092-0.986s1.139,0.115,1.941,0.604l6.142,3.714c0.796,0.481,1.95,0.291,2.548-0.433l2.083-2.51
				c0.604-0.716,0.593-1.89-0.019-2.599l-4.694-5.458c-0.614-0.71-1.094-1.378-1.073-1.486c0.03-0.103,0.497-1.062,0.695-1.292
				c0.201-0.24,1.114-0.283,2.029-0.105l7.032,1.37c0.916,0.178,1.927-0.399,2.249-1.284l1.105-3.068
				c0.319-0.887-0.082-1.986-0.902-2.444l-6.256-3.503c-0.817-0.456-1.499-0.919-1.519-1.029c-0.008-0.11,0.273-1.711,0.322-1.808
				c0.049-0.099,0.845-0.295,1.764-0.451l7.067-1.133c0.924-0.145,1.679-1.039,1.679-1.983v-3.27
				C120.001,72.419,119.247,71.528,118.323,71.379z"/>
		</g>
		<g>
			
				<ellipse opacity="0.9" fill="none" stroke="#535353" stroke-width="3" stroke-miterlimit="10" enable-background="new    " cx="75" cy="75.001" rx="26.95" ry="27.159"/>
		</g>
	</g>
</g>
</svg>
