<?xml version="1.0" encoding="utf-8"?>
<!-- Generator: Adobe Illustrator 16.0.4, SVG Export Plug-In . SVG Version: 6.00 Build 0)  -->
<!DOCTYPE svg PUBLIC "-//W3C//DTD SVG 1.1//EN" "http://www.w3.org/Graphics/SVG/1.1/DTD/svg11.dtd">
<svg version="1.1" id="Layer_1" xmlns="http://www.w3.org/2000/svg" xmlns:xlink="http://www.w3.org/1999/xlink" x="0px" y="0px"
	 width="62.583px" height="36px" viewBox="0 0 62.583 36" enable-background="new 0 0 62.583 36" xml:space="preserve">
<g>
	<polygon opacity="0.01" points="38.897,28.158 35.63,26.047 37.86,25.297 	"/>
	<polygon fill="#FBEE29" points="58.872,11.301 55.843,8.797 58.872,8.797 	"/>
	<polygon fill="#FBEE29" points="58.872,11.301 55.843,11.301 55.843,8.797 	"/>
	<polygon opacity="0.02" points="58.872,11.301 55.843,11.301 55.843,8.797 	"/>
	<polygon fill="#FBEE29" points="58.872,11.301 55.843,13.028 58.872,13.028 	"/>
	<polygon opacity="0.1" fill="#FFFFFF" points="58.872,11.301 55.843,13.028 58.872,13.028 	"/>
	<polygon fill="#FBEE29" points="58.872,11.301 61.642,8.797 58.872,8.797 	"/>
	<polygon opacity="0.02" points="58.872,11.301 61.642,8.797 58.872,8.797 	"/>
	<polygon fill="#FBEE29" points="58.872,11.301 61.642,11.301 61.642,8.797 	"/>
	<polygon opacity="0.05" fill="#FFFFFF" points="58.872,11.301 61.642,11.301 61.642,8.797 	"/>
	<polygon fill="#FBEE29" points="55.843,11.301 53.724,8.797 55.843,8.797 	"/>
	<polygon opacity="0.04" points="55.843,11.301 53.724,8.797 55.843,8.797 	"/>
	<polygon fill="#F6851F" points="55.843,11.301 51.3,13.028 51.3,11.301 	"/>
	<polygon fill="#F6851F" points="51.3,11.301 48.38,8.797 47.241,11.301 	"/>
	<polygon fill="#F6851F" points="51.3,11.301 47.241,11.301 45.978,14.081 	"/>
	<polygon opacity="0.05" fill="#FFFFFF" points="51.3,11.301 47.241,11.301 45.978,14.081 	"/>
	<polygon fill="#F6851F" points="51.3,11.301 51.3,13.028 47.993,13.028 	"/>
	<polygon opacity="0.02" points="51.3,11.301 51.3,13.028 47.993,13.028 	"/>
	<polygon fill="#F6851F" points="47.993,13.028 51.3,13.028 49.909,16.072 	"/>
	<polygon opacity="0.05" fill="#FFFFFF" points="47.993,13.028 51.3,13.028 49.909,16.072 	"/>
	<polygon fill="#F6851F" points="47.993,13.028 45.978,14.081 47.241,16.072 	"/>
	<polygon opacity="0.02" points="47.993,13.028 45.978,14.081 47.241,16.072 	"/>
	<polygon fill="#F6851F" points="47.993,13.028 49.909,16.072 47.241,16.072 	"/>
	<polygon fill="#F6851F" points="47.993,13.028 49.909,16.072 47.241,16.072 	"/>
	<polygon fill="#F6851F" points="47.241,16.072 48.065,20.096 49.909,16.072 	"/>
	<polygon opacity="0.02" points="47.241,16.072 48.065,20.096 49.909,16.072 	"/>
	<polygon fill="#C32127" points="48.065,20.096 45.151,20.096 46.368,23.805 	"/>
	<polygon opacity="0.03" fill="#FFFFFF" points="48.065,20.096 45.151,20.096 46.368,23.805 	"/>
	<polygon fill="#C32127" points="45.151,20.096 42.911,20.82 44.03,22.643 	"/>
	<polygon opacity="0.04" points="45.151,20.096 42.911,20.82 44.03,22.643 	"/>
	<polygon fill="#C32127" points="45.151,20.096 44.03,22.643 46.368,23.805 	"/>
	<polygon opacity="0.02" points="45.151,20.096 44.03,22.643 46.368,23.805 	"/>
	<polygon fill="#C32127" points="42.911,20.82 44.03,22.643 42.343,22.066 	"/>
	<polygon opacity="0.03" fill="#FFFFFF" points="42.911,20.82 44.03,22.643 42.343,22.066 	"/>
	<polygon fill="#C32127" points="44.03,22.643 41.429,24.082 42.343,22.066 	"/>
	<polygon fill="#C32127" points="44.03,22.643 41.429,24.082 40.507,26.105 	"/>
	<polygon opacity="0.04" points="44.03,22.643 41.429,24.082 40.507,26.105 	"/>
	<polygon fill="#C32127" points="44.03,22.643 45.687,25.297 46.368,23.805 	"/>
	<polygon opacity="0.03" fill="#FFFFFF" points="44.03,22.643 45.687,25.297 46.368,23.805 	"/>
	<polygon fill="#C32127" points="45.151,24.439 44.606,27.654 45.687,25.297 	"/>
	<polygon fill="#ED3794" points="40.507,26.105 38.897,28.158 40.507,29.266 	"/>
	<polygon fill="#ED3794" points="40.507,29.266 42.269,29.266 40.507,31.145 	"/>
	<polygon fill="#ED3794" points="38.897,28.158 40.507,31.145 40.507,29.266 	"/>
	<polygon opacity="0.04" points="38.897,28.158 40.507,31.145 40.507,29.266 	"/>
	<polygon fill="#ED3794" points="38.897,28.158 39.114,30.662 40.108,30.406 	"/>
	<polygon opacity="0.03" fill="#FFFFFF" points="38.897,28.158 39.114,30.662 40.108,30.406 	"/>
	<polygon fill="#ED3794" points="40.507,31.145 42.384,32.506 40.507,32.506 	"/>
	<polygon fill="#ED3794" points="39.114,30.662 40.108,30.406 40.507,31.145 	"/>
	<polygon opacity="0.06" points="39.114,30.662 40.108,30.406 40.507,31.145 	"/>
	<polygon fill="#ED3794" points="40.507,31.145 39.21,32.506 40.507,32.506 	"/>
	<polygon opacity="0.03" fill="#FFFFFF" points="40.507,31.145 39.21,32.506 40.507,32.506 	"/>
	<polygon fill="#ED3794" points="40.077,35.701 40.507,34.168 40.923,35.701 	"/>
	<polygon fill="#ED3794" points="40.507,34.168 41.839,33.699 40.923,35.701 	"/>
	<polygon opacity="0.04" points="40.507,34.168 41.839,33.699 40.923,35.701 	"/>
	<polygon fill="#ED3794" points="40.507,34.168 42.384,32.506 41.839,33.699 	"/>
	<polygon opacity="0.03" fill="#FFFFFF" points="40.507,34.168 42.384,32.506 41.839,33.699 	"/>
	<polygon fill="#ED3794" points="42.384,32.506 40.507,32.506 40.507,33.217 	"/>
	<polygon opacity="0.04" points="42.384,32.506 40.507,32.506 40.507,33.217 	"/>
	<polygon fill="#ED3794" points="42.384,32.506 40.507,33.217 40.507,34.168 	"/>
	<polygon fill="#ED3794" points="42.269,29.266 40.507,31.145 42.269,30.775 	"/>
	<polygon opacity="0.04" points="42.269,29.266 40.507,31.145 42.269,30.775 	"/>
	<polyline fill="#ED3794" points="40.507,31.145 42.384,32.506 42.272,30.832 42.269,30.775 	"/>
	<polyline opacity="0.03" fill="#FFFFFF" points="40.507,31.145 42.384,32.506 42.272,30.832 42.269,30.775 	"/>
	<polygon fill="#ED3794" points="40.507,29.266 41.669,24.965 40.507,26.105 	"/>
	<polygon opacity="0.04" points="40.507,29.266 41.669,24.965 40.507,26.105 	"/>
	<polygon fill="#ED3794" points="40.507,29.266 40.97,27.553 42.269,29.266 	"/>
	<polygon opacity="0.03" fill="#FFFFFF" points="40.507,29.266 40.97,27.553 42.269,29.266 	"/>
	<polygon fill="#C32127" points="44.03,22.643 45.151,24.439 44.03,24.625 	"/>
	<polygon fill="#C32127" points="45.151,24.439 44.03,24.625 44.606,27.654 	"/>
	<polygon opacity="0.03" fill="#FFFFFF" points="45.151,24.439 44.03,24.625 44.606,27.654 	"/>
	<polygon fill="#ED3794" points="42.269,29.266 42.839,27.553 43.868,29.266 	"/>
	<polygon fill="#ED3794" points="42.269,29.266 43.868,29.266 43.179,30.775 	"/>
	<polygon opacity="0.04" points="42.269,29.266 43.868,29.266 43.179,30.775 	"/>
	<path fill="#ED3794" d="M42.269,29.266"/>
	<polygon fill="#ED3794" points="38.897,28.158 39.702,24.357 40.507,26.105 	"/>
	<polygon opacity="0.03" fill="#FFFFFF" points="38.897,28.158 39.702,24.357 40.507,26.105 	"/>
	<polygon fill="#ED3794" points="42.269,29.266 42.269,30.771 43.179,30.775 	"/>
	<polygon fill="#ED3794" points="42.269,30.771 43.179,30.775 42.384,32.506 	"/>
	<polygon opacity="0.04" points="42.269,30.773 43.179,30.777 42.384,32.508 	"/>
	<polygon fill="#DE5D83" points="38.897,28.158 35.63,26.047 37.86,25.297 	"/>
	<polygon opacity="0.02" points="38.897,28.158 35.63,26.047 37.86,25.297 	"/>
	<polygon fill="#DE5D83" points="37.86,25.297 38.493,21.732 35.63,26.047 	"/>
	<polygon opacity="0.04" points="37.86,25.297 38.493,21.732 35.63,26.047 	"/>
	<polygon fill="#DE5D83" points="35.63,26.047 34.262,23.074 38.493,21.732 	"/>
	<polygon fill="#DE5D83" points="38.493,21.732 37.63,19.855 36.54,22.352 	"/>
	<polygon opacity="0.03" points="38.493,21.732 37.63,19.855 36.54,22.352 	"/>
	<polygon fill="#DE5D83" points="36.54,22.352 35.116,19.693 37.63,19.855 	"/>
	<polygon opacity="0.03" fill="#FFFFFF" points="36.546,22.352 35.122,19.693 37.636,19.855 	"/>
	<polygon fill="#DE5D83" points="35.116,19.693 34.262,23.074 36.54,22.352 	"/>
	<polyline fill="#DE5D83" points="35.116,19.693 37.177,18.876 37.63,19.855 	"/>
	<polyline opacity="0.04" points="37.634,19.855 37.183,18.876 35.12,19.693 	"/>
	<polyline opacity="0.05" fill="#FFFFFF" points="36.54,22.352 36.528,22.395 35.63,26.047 34.288,23.131 	"/>
	<path fill="#FFFFFF" d="M34.262,23.074"/>
	<polygon fill="#DE5D83" points="34.262,23.074 32.137,18.458 35.122,19.691 	"/>
	<polygon opacity="0.04" points="34.262,23.074 32.137,18.458 35.122,19.691 	"/>
	<polygon fill="#DE5D83" points="32.137,18.458 32.676,14.946 35.122,19.691 	"/>
	<polygon fill="#DE5D83" points="32.466,16.313 29.934,13.674 32.137,18.458 	"/>
	<polygon opacity="0.03" fill="#FFFFFF" points="32.466,16.319 29.934,13.68 32.137,18.464 	"/>
	<polygon fill="#A25BA4" points="32.676,14.946 33.75,11.431 31.83,7.261 	"/>
	<polygon fill="#A25BA4" points="31.83,7.261 30.348,9.696 28.807,6.164 	"/>
	<polygon fill="#A25BA4" points="30.348,9.696 32.097,9.696 31.83,7.261 	"/>
	<polygon opacity="0.04" points="30.325,9.696 32.075,9.696 31.806,7.261 	"/>
	<polygon fill="#A25BA4" points="28.807,6.164 26.778,6.824 25.722,4.53 	"/>
	<polygon fill="#A25BA4" points="26.778,6.824 30.348,9.696 28.807,6.164 	"/>
	<polygon opacity="0.06" points="26.778,6.824 30.348,9.696 28.807,6.164 	"/>
	<polygon fill="#A25BA4" points="28.807,6.164 30.018,3.327 31.806,7.261 	"/>
	<polygon opacity="0.03" fill="#FFFFFF" points="28.807,6.164 30.018,3.327 31.806,7.261 	"/>
	<polygon fill="#A25BA4" points="28.807,6.164 27.794,3.546 25.722,4.53 	"/>
	<polygon opacity="0.02" points="28.807,6.164 27.794,3.546 25.722,4.53 	"/>
	<polygon fill="#A25BA4" points="28.807,6.164 27.794,3.546 28.624,0.298 	"/>
	<polygon opacity="0.04" points="28.807,6.164 27.794,3.546 28.624,0.298 	"/>
	<polygon fill="#A25BA4" points="28.624,0.298 28.807,6.164 30.018,3.327 	"/>
	<polygon fill="#A25BA4" points="28.624,0.298 25.845,1.922 27.794,3.546 	"/>
	<polygon fill="#79CDCB" points="25.722,4.53 23.629,2.414 22.184,4.53 	"/>
	<polygon fill="#79CDCB" points="23.629,2.414 22.184,4.53 20.185,2.414 	"/>
	<polygon opacity="0.04" points="23.629,2.414 22.184,4.53 20.185,2.414 	"/>
	<polygon fill="#79CDCB" points="20.185,2.414 20.185,0.298 17.969,2.414 	"/>
	<polygon fill="#79CDCB" points="17.969,2.414 21.047,3.327 20.185,2.414 	"/>
	<polygon opacity="0.06" points="17.969,2.414 21.047,3.327 20.185,2.414 	"/>
	<polygon fill="#79CDCB" points="17.969,2.414 16.589,3.401 19.508,2.87 	"/>
	<polygon opacity="0.04" points="17.969,2.414 16.589,3.401 19.508,2.87 	"/>
	<polygon fill="#79CDCB" points="17.969,2.414 17.15,0.298 20.185,0.298 	"/>
	<polygon opacity="0.04" points="17.969,2.414 17.15,0.298 20.185,0.298 	"/>
	<polygon fill="#79CDCB" points="16.589,3.401 17.969,2.414 16.589,2.414 	"/>
	<polygon opacity="0.05" points="16.589,3.401 17.969,2.414 16.589,2.414 	"/>
	<polygon fill="#79CDCB" points="17.15,0.298 16.589,2.414 17.969,2.414 	"/>
	<polygon fill="#79CDCB" points="20.185,2.414 20.938,0.298 20.185,0.298 	"/>
	<polygon opacity="0.02" points="20.185,2.414 20.938,0.298 20.185,0.298 	"/>
	<polygon fill="#79CDCB" points="16.589,3.401 16.589,4.53 14.63,4.53 	"/>
	<polygon opacity="0.08" fill="#FFFFFF" points="16.589,3.401 16.589,4.53 14.63,4.53 	"/>
	<polygon fill="#79CDCB" points="16.589,2.414 14.63,4.53 16.589,3.401 	"/>
	<polygon opacity="0.02" points="16.589,2.414 14.63,4.53 16.589,3.401 	"/>
	<polygon fill="#79CDCB" points="16.589,2.414 14.63,2.414 17.15,0.298 	"/>
	<polygon opacity="0.02" points="16.589,2.414 14.63,2.414 17.15,0.298 	"/>
	<polygon fill="#79CDCB" points="16.589,3.401 16.589,4.53 19.508,2.87 	"/>
	<polygon opacity="0.02" points="16.589,3.401 16.589,4.53 19.508,2.87 	"/>
	<polygon fill="#79CDCB" points="14.63,2.414 14.63,0.298 17.15,0.298 	"/>
	<polygon fill="#79CDCB" points="14.63,0.298 12.624,0.298 14.63,2.414 	"/>
	<polygon opacity="0.08" fill="#FFFFFF" points="14.63,0.298 12.624,0.298 14.63,2.414 	"/>
	<polygon fill="#79CDCB" points="14.63,2.414 13.627,3.546 12.624,0.298 	"/>
	<polygon fill="#79CDCB" points="12.624,0.298 10.889,2.222 13.218,2.222 	"/>
	<polygon opacity="0.04" points="12.624,0.298 10.889,2.222 13.218,2.222 	"/>
	<polygon fill="#79CDCB" points="10.889,2.222 10.889,3.699 13.218,2.222 	"/>
	<polygon fill="#65BC46" points="10.889,2.222 8.047,0.298 8.047,2.222 	"/>
	<polygon fill="#65BC46" points="8.047,2.222 6.651,2.222 8.047,0.298 	"/>
	<polygon opacity="0.04" points="8.047,2.222 6.651,2.222 8.047,0.298 	"/>
	<polygon fill="#65BC46" points="6.651,2.222 8.899,4.53 8.047,2.222 	"/>
	<polygon fill="#65BC46" points="6.651,2.222 6.651,0.298 8.047,0.298 	"/>
	<polygon fill="#65BC46" points="6.651,2.222 6.651,3.546 7.941,3.546 	"/>
	<polygon opacity="0.04" points="6.651,2.222 6.651,3.546 7.941,3.546 	"/>
	<polygon fill="#65BC46" points="6.651,2.222 5.03,0.298 5.03,2.96 	"/>
	<polygon opacity="0.08" fill="#FFFFFF" points="6.651,2.222 5.03,0.298 5.03,2.96 	"/>
	<polygon fill="#65BC46" points="5.03,0.298 6.651,0.298 6.651,2.222 	"/>
	<polygon opacity="0.02" points="5.03,0.298 6.651,0.298 6.651,2.222 	"/>
	<polygon fill="#65BC46" points="3.328,2.96 1.899,4.53 3.328,4.53 	"/>
	<polygon opacity="0.04" points="3.328,2.96 1.899,4.53 3.328,4.53 	"/>
	<polygon fill="#65BC46" points="0.762,0.298 2.509,0.298 2.509,1.556 	"/>
	<polygon fill="#65BC46" points="2.509,1.556 3.793,0.298 2.509,0.298 	"/>
	<polygon opacity="0.08" fill="#FFFFFF" points="2.509,1.556 3.793,0.298 2.509,0.298 	"/>
	<polygon fill="#65BC46" points="5.03,0.298 3.793,0.298 5.03,2.96 	"/>
	<polygon opacity="0.02" points="5.054,0.298 3.817,0.298 5.054,2.96 	"/>
	<polygon fill="#65BC46" points="3.793,0.298 2.509,1.556 4.377,1.556 	"/>
	<polygon opacity="0.04" points="3.793,0.298 2.509,1.556 4.377,1.556 	"/>
	<polygon fill="#65BC46" points="0.762,4.53 3.328,2.96 1.899,4.53 	"/>
	<polygon fill="#65BC46" points="2.509,1.556 5.03,2.96 4.377,1.556 	"/>
	<polygon fill="#65BC46" points="3.328,2.96 2.509,1.556 5.03,2.96 	"/>
	<polygon opacity="0.08" fill="#FFFFFF" points="3.352,2.96 2.533,1.556 5.054,2.96 	"/>
	<polygon fill="#65BC46" points="2.509,1.556 0.762,1.556 0.762,0.298 	"/>
	<polygon opacity="0.04" points="2.509,1.556 0.762,1.556 0.762,0.298 	"/>
	<polygon fill="#65BC46" points="3.328,2.96 2.045,2.792 2.509,1.556 	"/>
	<polygon opacity="0.04" points="3.328,2.96 2.045,2.792 2.509,1.556 	"/>
	<polygon fill="#65BC46" points="2.045,2.792 0.762,4.53 3.328,2.96 	"/>
	<polygon opacity="0.08" fill="#FFFFFF" points="2.045,2.792 0.762,4.53 3.328,2.96 	"/>
	<polygon fill="#FBEE29" points="55.843,11.301 53.724,8.797 51.3,11.301 	"/>
	<polygon opacity="0.04" fill="#FFFFFF" points="55.843,11.301 53.724,8.797 51.3,11.301 	"/>
	<polygon fill="#FBEE29" points="58.872,11.301 61.642,13.028 61.642,11.301 	"/>
	<polygon opacity="0.02" points="58.872,11.301 61.642,13.028 61.642,11.301 	"/>
	<polygon fill="#C32127" points="42.911,20.82 44.606,17.093 45.151,20.096 	"/>
	<polygon fill="#F6851F" points="47.241,16.072 44.606,17.093 45.978,14.081 	"/>
	<polygon fill="#C32127" points="45.151,20.096 46.368,18 48.065,20.096 	"/>
	<polygon fill="#ED3794" points="40.077,35.701 39.155,33.699 40.507,34.168 	"/>
	<polygon opacity="0.03" fill="#FFFFFF" points="40.077,35.701 39.155,33.699 40.507,34.168 	"/>
	<polygon fill="#ED3794" points="39.155,33.699 40.507,32.506 40.507,34.168 	"/>
	<polygon opacity="0.04" points="40.507,33.217 39.155,33.699 40.507,34.168 	"/>
	<polygon fill="#ED3794" points="39.21,32.506 39.155,33.699 40.507,32.506 	"/>
	<polygon opacity="0.04" points="39.21,32.506 39.155,33.699 40.507,32.506 	"/>
	<polygon opacity="0.03" fill="#FFFFFF" points="40.507,32.506 40.507,33.217 39.155,33.699 	"/>
	<polygon fill="#ED3794" points="39.21,32.506 37.978,31.145 39.155,33.699 	"/>
	<polygon fill="#ED3794" points="39.114,30.662 39.21,32.506 40.507,31.145 	"/>
	<polygon fill="#ED3794" points="37.978,31.145 39.04,29.809 39.114,30.662 39.21,32.506 	"/>
	<polygon opacity="0.06" points="37.978,31.145 39.04,29.809 39.114,30.662 39.21,32.506 	"/>
	<polygon fill="#DE5D83" points="37.86,25.297 39.702,24.357 38.493,21.732 	"/>
	<polygon fill="#ED3794" points="37.86,25.297 39.702,24.357 38.493,21.732 	"/>
	<polygon opacity="0.05" fill="#FFFFFF" points="37.86,25.297 39.702,24.357 38.493,21.732 	"/>
	<polygon fill="#ED3794" points="37.86,25.297 39.702,24.357 38.897,28.158 	"/>
	<polygon fill="#DE5D83" points="35.122,19.691 35.401,16.695 37.177,18.876 	"/>
	<polygon fill="#DE5D83" points="35.401,16.695 36.173,16.695 37.177,18.876 	"/>
	<polygon opacity="0.04" points="35.401,16.695 36.173,16.695 37.177,18.876 	"/>
	<polygon fill="#DE5D83" points="35.401,16.695 33.692,16.918 35.122,19.691 	"/>
	<polygon opacity="0.05" fill="#FFFFFF" points="35.401,16.695 33.692,16.918 35.122,19.691 	"/>
	<polygon fill="#A25BA4" points="33.75,11.431 34.706,13.506 32.676,14.946 	"/>
	<polygon opacity="0.04" points="33.751,11.431 34.708,13.506 32.678,14.946 	"/>
	<polygon fill="#A25BA4" points="30.348,9.696 29.145,11.961 30.902,11.961 	"/>
	<polygon fill="#A25BA4" points="29.145,11.961 26.778,6.824 30.348,9.696 	"/>
	<polygon opacity="0.04" points="29.145,11.961 26.778,6.824 30.348,9.696 	"/>
	<polygon fill="#A25BA4" points="30.348,9.696 32.097,9.663 30.902,11.961 	"/>
	<polygon opacity="0.03" fill="#FFFFFF" points="30.348,9.696 32.097,9.663 30.902,11.961 	"/>
	<polygon fill="#A25BA4" points="30.902,11.961 29.934,13.68 29.145,11.961 	"/>
	<polygon opacity="0.04" points="30.902,11.961 29.934,13.68 29.145,11.961 	"/>
	<polygon fill="#79CDCB" points="23.629,2.414 25.845,1.922 23.894,0.298 	"/>
	<polygon fill="#79CDCB" points="23.894,0.298 20.185,2.414 23.629,2.414 	"/>
	<polygon opacity="0.08" fill="#FFFFFF" points="23.894,0.298 20.185,2.414 23.629,2.414 	"/>
	<polygon fill="#79CDCB" points="20.938,0.298 23.894,0.298 20.185,2.414 	"/>
	<path fill="none" stroke="#79CDCB" stroke-width="0.25" stroke-miterlimit="10" d="M8.047,2.222"/>
	<polygon fill="#65BC46" points="2.045,2.792 0.762,2.792 2.509,1.556 	"/>
	<polygon fill="#65BC46" points="2.509,1.556 0.762,1.556 0.762,2.792 	"/>
	<polygon opacity="0.08" fill="#FFFFFF" points="2.509,1.556 0.762,1.556 0.762,2.792 	"/>
	<polygon fill="#65BC46" points="2.045,2.792 0.762,2.792 0.762,4.53 	"/>
	<polygon opacity="0.02" points="2.045,2.792 0.762,2.792 0.762,4.53 	"/>
	<polygon fill="#65BC46" points="3.328,2.96 5.03,4.53 3.328,4.53 	"/>
	<polygon fill="#65BC46" points="5.03,4.53 5.054,2.96 3.328,2.96 	"/>
	<polygon opacity="0.02" points="5.03,4.53 5.054,2.96 3.328,2.96 	"/>
	<polygon fill="#65BC46" points="5.054,2.96 6.651,3.546 6.651,2.222 	"/>
	<polygon fill="#65BC46" points="8.047,2.222 10.889,2.222 9.894,2.87 	"/>
	<polygon opacity="0.08" fill="#FFFFFF" points="8.047,2.222 10.889,2.222 9.894,2.87 	"/>
	<polygon fill="#65BC46" points="8.047,2.222 9.894,2.87 8.899,4.53 	"/>
	<polygon opacity="0.02" points="8.047,2.222 9.894,2.87 8.899,4.53 	"/>
	<polygon fill="#65BC46" points="6.651,3.546 5.03,4.53 6.651,4.53 	"/>
	<polygon fill="#79CDCB" points="10.889,3.699 9.894,2.87 10.889,2.222 	"/>
	<polygon opacity="0.04" points="10.889,3.699 9.894,2.87 10.889,2.222 	"/>
	<polygon fill="#79CDCB" points="10.889,3.699 13.627,3.546 13.218,2.222 	"/>
	<polygon opacity="0.04" fill="#FFFFFF" points="10.889,3.699 13.627,3.546 13.218,2.222 	"/>
	<polygon fill="#79CDCB" points="13.627,3.546 10.889,3.699 13.627,4.53 	"/>
	<polygon opacity="0.1" fill="#FFFFFF" points="13.627,3.546 10.889,3.699 13.627,4.53 	"/>
	<polygon fill="#79CDCB" points="13.627,3.546 16.589,2.414 14.63,2.414 	"/>
	<polygon opacity="0.08" fill="#FFFFFF" points="13.627,3.546 16.589,2.414 14.63,2.414 	"/>
	<polygon fill="#79CDCB" points="10.889,3.699 8.899,4.53 9.894,2.87 	"/>
	<polygon fill="#79CDCB" points="10.889,3.699 13.627,4.53 8.899,4.53 	"/>
	<polygon opacity="0.04" points="10.889,3.699 13.627,4.53 8.899,4.53 	"/>
	<polygon fill="#C32127" points="44.03,22.643 42.03,26.047 44.03,24.625 	"/>
	<polygon opacity="0.04" points="44.03,22.643 42.03,26.047 44.03,24.625 	"/>
	<polygon fill="#ED3794" points="44.03,24.625 42.03,26.047 44.606,27.654 	"/>
	<polygon fill="#ED3794" points="42.839,27.553 44.606,27.654 43.868,29.266 	"/>
	<polygon opacity="0.03" fill="#FFFFFF" points="42.839,27.553 44.606,27.654 43.868,29.266 	"/>
	<polygon fill="#ED3794" points="42.839,27.553 42.03,26.047 44.606,27.654 	"/>
	<polygon opacity="0.04" points="42.839,27.553 42.03,26.047 44.606,27.654 	"/>
	<polygon fill="#ED3794" points="42.03,26.047 40.97,27.553 42.839,27.553 	"/>
	<polygon opacity="0.05" fill="#FFFFFF" points="42.03,26.047 40.97,27.553 42.839,27.553 	"/>
	<polygon fill="#ED3794" points="42.839,27.553 40.97,27.553 42.269,29.266 	"/>
	<polygon opacity="0.04" points="42.839,27.553 40.97,27.553 42.269,29.266 	"/>
	<polygon fill="#ED3794" points="42.03,26.047 41.669,24.965 40.97,27.553 	"/>
	<polygon fill="#ED3794" points="41.669,24.965 44.03,22.643 42.03,26.047 	"/>
	<polygon opacity="0.04" points="41.669,24.977 44.03,22.656 42.03,26.059 	"/>
	<polygon fill="#F6851F" points="47.241,16.072 44.771,18 44.606,17.093 	"/>
	<polygon opacity="0.02" points="47.241,16.072 44.771,18 44.606,17.093 	"/>
	<polygon fill="#C32127" points="44.771,18 46.569,17.242 46.368,18 	"/>
	<polygon fill="#C32127" points="45.151,20.096 46.368,18 44.771,18 	"/>
	<polygon opacity="0.04" points="45.151,20.096 46.368,18 44.771,18 	"/>
	<polygon fill="#C32127" points="46.569,17.242 47.241,16.072 44.771,18 	"/>
	<polygon opacity="0.04" points="46.569,17.242 47.241,16.072 44.771,18 	"/>
	<polygon fill="#F6851F" points="47.241,16.072 46.569,17.242 47.724,18.428 	"/>
	<polygon fill="#F6851F" points="47.724,18.428 46.368,18 48.065,20.096 	"/>
	<polygon fill="#F6851F" points="46.569,17.242 46.368,18 47.724,18.428 	"/>
	<polygon opacity="0.02" points="46.569,17.242 46.368,18 47.724,18.428 	"/>
	<polygon fill="#DE5D83" points="38.897,28.158 37.062,29.154 35.63,26.047 	"/>
	<polygon opacity="0.05" fill="#FFFFFF" points="38.897,28.158 37.062,29.154 35.63,26.047 	"/>
	<polygon fill="#ED3794" points="38.897,28.158 37.978,31.145 37.062,29.154 	"/>
	<polygon opacity="0.05" fill="#FFFFFF" points="38.897,28.158 37.978,31.145 37.062,29.154 	"/>
	<polygon fill="#ED3794" points="38.897,28.158 37.978,31.145 39.04,29.809 	"/>
	<polygon fill="#F6851F" points="55.843,11.301 57.356,12.165 58.872,11.301 	"/>
	<polygon fill="#F6851F" points="55.843,11.301 55.843,13.028 57.356,12.165 	"/>
	<polygon opacity="0.02" points="55.843,11.301 55.843,13.028 57.356,12.165 	"/>
	<polygon opacity="0.03" points="57.356,12.165 58.872,13.028 55.843,13.028 	"/>
	<polygon fill="#F6851F" points="55.843,11.301 55.843,13.028 53.458,12.208 	"/>
	<polygon opacity="0.04" points="55.843,11.301 55.843,13.028 53.458,12.208 	"/>
	<polygon fill="#F6851F" points="53.458,12.208 53.458,13.028 55.843,13.028 	"/>
	<polygon fill="#F6851F" points="53.458,12.208 51.3,13.028 53.458,13.028 	"/>
	<polygon opacity="0.05" fill="#FFFFFF" points="53.458,12.208 51.3,13.028 53.458,13.028 	"/>
	<polygon fill="#FBEE29" points="53.724,8.797 51.3,8.797 52.345,10.223 	"/>
	<polygon opacity="0.03" points="53.724,8.797 51.3,8.797 52.345,10.223 	"/>
	<polygon fill="#FBEE29" points="52.345,10.223 48.38,8.797 51.3,8.797 	"/>
	<polygon fill="#FBEE29" points="51.3,11.301 52.345,10.223 48.38,8.797 	"/>
	<polygon opacity="0.05" points="51.3,11.301 52.345,10.223 48.38,8.797 	"/>
	<polygon fill="#FBEE29" points="58.872,11.301 61.642,13.028 58.872,13.028 	"/>
	<polygon fill="#A25BA4" points="30.902,11.961 32.347,11.961 32.097,9.663 	"/>
	<polygon opacity="0.04" points="30.902,11.961 32.347,11.961 32.097,9.663 	"/>
	<polygon fill="#A25BA4" points="32.466,16.319 29.934,13.68 32.678,14.946 	"/>
	<polygon fill="#A25BA4" points="29.934,13.68 32.347,11.961 32.678,14.946 	"/>
	<polygon opacity="0.04" points="29.934,13.68 32.347,11.961 32.678,14.946 	"/>
	<polygon fill="#A25BA4" points="30.902,11.961 31.223,12.762 29.934,13.68 	"/>
	<polygon fill="#A25BA4" points="30.902,11.961 31.223,12.762 32.347,11.961 	"/>
	<polygon opacity="0.03" fill="#FFFFFF" points="30.902,11.961 31.223,12.762 32.347,11.961 	"/>
	<polygon fill="#A25BA4" points="32.678,14.946 35.63,15.517 34.708,13.506 	"/>
	<polygon opacity="0.06" points="32.678,14.946 35.63,15.517 34.708,13.506 	"/>
	<polygon fill="#A25BA4" points="35.63,15.517 35.401,16.695 36.173,16.695 	"/>
	<polygon opacity="0.04" points="35.63,15.517 35.401,16.695 36.173,16.695 	"/>
	<polygon fill="#A25BA4" points="35.401,16.695 32.678,14.946 35.63,15.517 	"/>
	<polygon fill="#DE5D83" points="32.678,14.946 33.692,16.918 35.401,16.695 	"/>
	<polygon opacity="0.04" points="32.678,14.946 33.692,16.918 35.401,16.695 	"/>
	<polygon fill="#A25BA4" points="23.629,2.414 27.794,3.546 25.845,1.922 	"/>
	<polygon opacity="0.04" points="23.639,2.414 27.806,3.546 25.854,1.922 	"/>
	<polygon fill="#79CDCB" points="25.722,4.53 23.639,2.414 27.806,3.546 	"/>
	<polygon opacity="0.08" fill="#FFFFFF" points="25.712,4.53 23.629,2.414 27.794,3.546 	"/>
	<polygon fill="#79CDCB" points="23.894,0.298 26.935,1.285 28.624,0.298 	"/>
	<polygon fill="#79CDCB" points="23.894,0.298 25.854,1.922 26.935,1.285 	"/>
	<polygon opacity="0.06" points="23.894,0.298 25.854,1.922 26.935,1.285 	"/>
	<polygon fill="#79CDCB" points="19.508,2.87 19.508,4.53 16.589,4.53 	"/>
	<polygon fill="#79CDCB" points="19.508,2.87 21.047,3.327 19.508,4.53 	"/>
	<polygon opacity="0.08" fill="#FFFFFF" points="19.508,2.87 21.047,3.327 19.508,4.53 	"/>
	<polygon fill="#79CDCB" points="21.047,3.327 19.508,4.53 22.184,4.53 	"/>
	<polygon fill="#65BC46" points="8.047,0.298 9.894,0.298 9.894,1.548 	"/>
	<polygon opacity="0.08" fill="#FFFFFF" points="8.047,0.298 9.894,0.298 9.894,1.548 	"/>
	<polygon fill="#65BC46" points="9.894,1.548 12.624,0.298 9.894,0.298 	"/>
	<polygon fill="#79CDCB" points="10.889,2.222 9.894,1.548 12.624,0.298 	"/>
	<polygon fill="#65BC46" points="5.054,2.96 5.03,4.53 6.651,3.546 	"/>
	<polygon opacity="0.08" fill="#FFFFFF" points="5.054,2.96 5.03,4.53 6.651,3.546 	"/>
	<polygon fill="#65BC46" points="8.899,4.53 6.651,4.53 7.941,3.546 	"/>
	<polygon opacity="0.08" fill="#FFFFFF" points="8.899,4.53 6.651,4.53 7.941,3.546 	"/>
	<polygon fill="#65BC46" points="6.651,4.53 6.651,3.546 7.941,3.546 	"/>
	<polygon fill="#65BC46" points="6.651,4.53 6.651,3.546 7.941,3.546 	"/>
	<polygon fill="#79CDCB" points="13.627,3.546 15.398,3.699 16.589,2.414 	"/>
	<polygon fill="#79CDCB" points="13.627,3.546 14.63,4.53 13.627,4.53 	"/>
	<polygon fill="#79CDCB" points="13.627,3.546 14.63,4.53 15.398,3.699 	"/>
	<polygon opacity="0.1" fill="#FFFFFF" points="13.627,3.546 14.63,4.53 15.398,3.699 	"/>
</g>
</svg>
