<?xml version="1.0" encoding="utf-8"?>
<!-- Generator: Adobe Illustrator 16.0.4, SVG Export Plug-In . SVG Version: 6.00 Build 0)  -->
<!DOCTYPE svg PUBLIC "-//W3C//DTD SVG 1.1//EN" "http://www.w3.org/Graphics/SVG/1.1/DTD/svg11.dtd">
<svg version="1.1" xmlns="http://www.w3.org/2000/svg" xmlns:xlink="http://www.w3.org/1999/xlink" x="0px" y="0px" width="320px"
	 height="34px" viewBox="0 0 320 34" enable-background="new 0 0 320 34" xml:space="preserve">
<g id="Layer_2" display="none">
	<g display="inline">
		<polygon opacity="0.7" fill="#F8ED40" enable-background="new    " points="53.758,36.975 45.809,25.05 36.746,36.975 		"/>
		<polygon opacity="0.6" fill="#754D9E" enable-background="new    " points="38.676,36.975 30.838,25.218 21.904,36.975 		"/>
		<polygon opacity="0.6" fill="#ED2A25" enable-background="new    " points="67.345,36.975 55.309,23.246 45.511,36.975 		"/>
		<polygon opacity="0.6" fill="#06B052" enable-background="new    " points="48.587,36.975 36.551,23.246 26.753,36.975 		"/>
		<polygon opacity="0.6" fill="#426EB5" enable-background="new    " points="31.807,36.975 19.77,23.246 9.973,36.975 		"/>
		<polygon opacity="0.8" fill="#F8ED40" enable-background="new    " points="45.809,24.756 49.783,30.719 51.977,27.621 		"/>
		<polygon opacity="0.7" fill="#06B052" enable-background="new    " points="24.094,36.975 18.854,29.115 12.881,36.975 		"/>
		<polygon opacity="0.8" fill="#754D9E" enable-background="new    " points="30.838,24.925 26.502,30.631 23.768,27.512 		"/>
		<polygon opacity="0.7" fill="#ED4798" enable-background="new    " points="32.915,28.336 38.676,36.975 26.748,36.975 		"/>
		<polygon opacity="0.7" fill="#ED4798" enable-background="new    " points="32.915,28.043 26.502,30.631 29.018,33.5 		"/>
		<polygon opacity="0.9" fill="#06B052" enable-background="new    " points="18.854,28.822 24.688,32.976 23.07,35.146 		"/>
		<polygon opacity="0.8" fill="#06B052" enable-background="new    " points="24.094,35.975 23.07,34.439 21.904,35.975 		"/>
		<polygon opacity="0.5" fill="#426EB5" enable-background="new    " points="26.502,30.631 23.152,31.881 24.688,32.976 		"/>
		<polygon opacity="0.8" fill="#06B052" enable-background="new    " points="36.551,22.953 31.642,26.13 32.915,28.043 		"/>
		<polygon opacity="0.6" fill="#426EB5" enable-background="new    " points="48.587,36.975 42.244,29.74 36.746,36.975 		"/>
		<polygon opacity="0.7" fill="#426EB5" enable-background="new    " points="42.244,29.445 36.265,33.063 37.774,35.328 		"/>
		<polygon opacity="0.6" fill="#426EB5" enable-background="new    " points="48.587,35.975 46.892,34.039 45.511,35.975 		"/>
		<polyline opacity="0.8" fill="#ED2A25" enable-background="new    " points="49.783,30.719 49.748,30.738 45.416,33.063 
			46.892,34.746 		"/>
		<polygon opacity="0.7" fill="#ED2A25" enable-background="new    " points="55.309,22.953 51.138,27.231 51.977,27.621 		"/>
		<polygon opacity="0.7" fill="#426EB5" enable-background="new    " points="19.77,22.953 24.827,27.125 23.768,27.512 		"/>
		<polygon opacity="0.04" enable-background="new    " points="36.551,22.953 36.265,33.063 42.244,29.445 		"/>
		<polyline opacity="0.05" fill="#FFFFFF" enable-background="new    " points="55.228,22.953 56.015,29.964 59.358,36.975 
			67.264,36.975 67.264,36.975 55.378,23.099 		"/>
		<polygon opacity="0.9" fill="#ED4798" enable-background="new    " points="57.724,28.822 51.138,32.75 52.832,35.281 		"/>
		<polygon opacity="0.7" fill="#ED4798" enable-background="new    " points="62.963,36.975 57.724,29.115 51.751,36.975 		"/>
		<polygon opacity="0.05" fill="#FFFFFF" enable-background="new    " points="19.757,23.099 19.489,29.352 18.851,29.005 
			12.881,36.975 9.947,36.975 		"/>
		<polygon fill="#F8ED40" points="52.794,34.121 53.758,35.474 51.782,35.474 		"/>
		<polygon opacity="0.9" fill="#F7961D" enable-background="new    " points="16.19,36.975 12.31,31.541 6.655,36.975 		"/>
		<polygon opacity="0.02" enable-background="new    " points="45.809,24.756 45.416,33.063 42.244,29.445 		"/>
		<polygon fill="#F7961D" points="12.31,31.314 15.62,33.129 14.583,34.496 		"/>
		<polygon opacity="0.7" fill="#F8ED40" enable-background="new    " points="301.758,36.975 293.809,25.05 284.746,36.975 		"/>
		<polygon opacity="0.6" fill="#754D9E" enable-background="new    " points="286.676,36.975 278.838,25.218 269.904,36.975 		"/>
		<polygon opacity="0.6" fill="#ED2A25" enable-background="new    " points="315.346,36.975 303.309,23.246 293.512,36.975 		"/>
		<polygon opacity="0.6" fill="#06B052" enable-background="new    " points="296.588,36.975 284.551,23.246 274.754,36.975 		"/>
		<polygon opacity="0.6" fill="#426EB5" enable-background="new    " points="279.807,36.975 267.77,23.246 257.973,36.975 		"/>
		<polygon opacity="0.8" fill="#F8ED40" enable-background="new    " points="293.809,24.756 297.783,30.719 299.977,27.621 		"/>
		<polygon opacity="0.7" fill="#06B052" enable-background="new    " points="272.094,36.975 266.854,29.115 260.881,36.975 		"/>
		<polygon opacity="0.8" fill="#754D9E" enable-background="new    " points="278.838,24.925 274.502,30.631 271.768,27.512 		"/>
		<polygon opacity="0.7" fill="#ED4798" enable-background="new    " points="280.914,28.336 286.676,36.975 274.748,36.975 		"/>
		<polygon opacity="0.7" fill="#ED4798" enable-background="new    " points="280.914,28.043 274.502,30.631 277.018,33.5 		"/>
		<polygon opacity="0.9" fill="#06B052" enable-background="new    " points="266.854,28.822 272.688,32.976 271.07,35.146 		"/>
		<polygon opacity="0.8" fill="#06B052" enable-background="new    " points="272.094,36.975 271.07,35.439 269.904,36.975 		"/>
		<polygon opacity="0.5" fill="#426EB5" enable-background="new    " points="274.502,30.631 271.152,31.881 272.688,32.976 		"/>
		<polygon opacity="0.8" fill="#06B052" enable-background="new    " points="284.551,22.953 279.643,26.13 280.914,28.043 		"/>
		<polygon opacity="0.6" fill="#426EB5" enable-background="new    " points="296.588,36.975 290.244,29.74 284.746,36.975 		"/>
		<polygon opacity="0.7" fill="#426EB5" enable-background="new    " points="290.244,29.445 284.266,33.063 285.773,35.328 		"/>
		<polygon opacity="0.6" fill="#426EB5" enable-background="new    " points="296.588,36.975 294.893,35.039 293.512,36.975 		"/>
		<polyline opacity="0.8" fill="#ED2A25" enable-background="new    " points="297.783,30.719 297.748,30.738 293.416,33.063 
			294.893,34.746 		"/>
		<polygon opacity="0.7" fill="#ED2A25" enable-background="new    " points="303.309,22.953 299.139,27.231 299.977,27.621 		"/>
		<polygon opacity="0.7" fill="#426EB5" enable-background="new    " points="267.77,22.953 272.827,27.125 271.768,27.512 		"/>
		<polygon opacity="0.04" enable-background="new    " points="284.551,22.953 284.266,33.063 290.244,29.445 		"/>
		<polyline opacity="0.05" fill="#FFFFFF" enable-background="new    " points="303.229,22.953 304.016,29.964 307.357,36.975 
			315.264,36.975 315.264,36.975 303.379,23.099 		"/>
		<polygon opacity="0.9" fill="#ED4798" enable-background="new    " points="305.725,28.822 299.139,32.75 300.832,35.281 		"/>
		<polygon opacity="0.7" fill="#ED4798" enable-background="new    " points="310.963,36.975 305.725,29.115 299.751,36.975 		"/>
		<polygon opacity="0.05" fill="#FFFFFF" enable-background="new    " points="267.758,23.099 267.488,29.352 266.852,29.005 
			260.881,36.975 257.947,36.975 		"/>
		<polygon fill="#F8ED40" points="300.795,35.121 301.758,36.474 299.782,36.474 		"/>
		<polygon opacity="0.9" fill="#F7961D" enable-background="new    " points="264.189,36.975 260.311,31.541 254.654,36.975 		"/>
		<polygon opacity="0.02" enable-background="new    " points="293.809,24.756 293.416,33.063 290.244,29.445 		"/>
		<polygon fill="#F7961D" points="260.311,31.314 263.62,33.129 262.584,34.496 		"/>
	</g>
</g>
<g id="Layer_1">
	<path fill="#9E9E9E" d="M71.022,8.521h1.509l3.003,10.594L79.75,8.521h0.305l4.166,10.594l3.055-10.594h1.498l-4.225,14.704h-0.273
		l-4.364-11.125l-4.447,11.125H75.19L71.022,8.521z"/>
	<path fill="#9E9E9E" d="M91.783,8.151h1.399v6.147c0.566-0.746,1.19-1.304,1.87-1.674c0.68-0.369,1.416-0.554,2.209-0.554
		c0.812,0,1.534,0.207,2.164,0.62c0.629,0.413,1.094,0.968,1.395,1.665c0.3,0.696,0.45,1.787,0.45,3.273v5.597h-1.4v-5.187
		c0-1.253-0.049-2.089-0.149-2.51c-0.173-0.72-0.488-1.261-0.945-1.625c-0.456-0.362-1.054-0.544-1.793-0.544
		c-0.846,0-1.604,0.28-2.273,0.84c-0.671,0.56-1.112,1.253-1.325,2.079c-0.133,0.534-0.2,1.521-0.2,2.958v3.988h-1.399V8.151H91.783
		z"/>
	<path fill="#9E9E9E" d="M115.614,12.349v10.875h-1.379v-1.869c-0.586,0.713-1.245,1.248-1.974,1.608
		c-0.729,0.359-1.528,0.539-2.394,0.539c-1.539,0-2.854-0.56-3.943-1.673c-1.09-1.116-1.634-2.475-1.634-4.074
		c0-1.565,0.549-2.905,1.649-4.018c1.1-1.113,2.422-1.669,3.968-1.669c0.893,0,1.7,0.19,2.424,0.569
		c0.723,0.38,1.357,0.949,1.904,1.709v-1.999L115.614,12.349L115.614,12.349z M110.022,13.418c-0.779,0-1.498,0.192-2.157,0.575
		c-0.659,0.383-1.183,0.92-1.573,1.611c-0.389,0.693-0.583,1.425-0.583,2.197c0,0.766,0.196,1.498,0.589,2.197
		c0.393,0.699,0.92,1.241,1.583,1.632c0.662,0.39,1.373,0.584,2.131,0.584c0.766,0,1.491-0.192,2.177-0.579
		c0.685-0.386,1.213-0.908,1.582-1.566c0.37-0.658,0.554-1.401,0.554-2.228c0-1.256-0.415-2.309-1.243-3.154
		C112.253,13.841,111.233,13.418,110.022,13.418z"/>
	<path fill="#9E9E9E" d="M120.494,8.311h1.399v4.039h2.219v1.209h-2.219v9.666h-1.399v-9.666h-1.909V12.35h1.909V8.311z"/>
	<path fill="#9E9E9E" d="M132.19,13.539l-0.9,0.929c-0.748-0.726-1.479-1.089-2.194-1.089c-0.454,0-0.844,0.15-1.167,0.45
		c-0.324,0.3-0.486,0.65-0.486,1.05c0,0.353,0.133,0.689,0.4,1.009c0.267,0.327,0.828,0.711,1.683,1.15
		c1.042,0.538,1.75,1.06,2.123,1.56c0.368,0.506,0.551,1.075,0.551,1.709c0,0.894-0.314,1.649-0.941,2.269
		c-0.627,0.62-1.412,0.93-2.352,0.93c-0.627,0-1.227-0.137-1.797-0.409c-0.571-0.271-1.042-0.648-1.417-1.13l0.879-0.999
		c0.715,0.807,1.473,1.208,2.274,1.208c0.561,0,1.038-0.179,1.433-0.538c0.393-0.359,0.59-0.783,0.59-1.269
		c0-0.401-0.129-0.757-0.39-1.071c-0.261-0.307-0.848-0.693-1.763-1.16c-0.981-0.506-1.649-1.004-2.003-1.497
		c-0.354-0.494-0.53-1.057-0.53-1.69c0-0.826,0.282-1.512,0.846-2.059c0.564-0.547,1.276-0.819,2.138-0.819
		C130.167,12.069,131.175,12.559,132.19,13.539z"/>
	<path fill="#9E9E9E" d="M140.189,12.349h1.479l3.738,8.375l3.629-8.375h1.49l-6.487,14.853h-1.478l2.094-4.804L140.189,12.349z"/>
	<path fill="#9E9E9E" d="M157.993,12.069c1.676,0,3.063,0.606,4.167,1.819c1,1.106,1.502,2.416,1.502,3.928
		c0,1.519-0.53,2.847-1.588,3.983c-1.059,1.136-2.418,1.703-4.081,1.703c-1.668,0-3.032-0.567-4.09-1.703
		c-1.059-1.137-1.588-2.465-1.588-3.983c0-1.505,0.501-2.812,1.502-3.918C154.919,12.679,156.311,12.069,157.993,12.069z
		 M157.988,13.439c-1.163,0-2.164,0.429-3,1.289c-0.835,0.86-1.253,1.899-1.253,3.118c0,0.787,0.19,1.52,0.572,2.199
		c0.38,0.68,0.896,1.205,1.545,1.575c0.647,0.37,1.36,0.553,2.136,0.553c0.776,0,1.487-0.183,2.137-0.553
		c0.648-0.37,1.164-0.896,1.544-1.575c0.382-0.68,0.573-1.412,0.573-2.199c0-1.219-0.422-2.258-1.262-3.118
		C160.144,13.868,159.145,13.439,157.988,13.439z"/>
	<path fill="#9E9E9E" d="M166.582,12.349h1.398v5.077c0,1.24,0.066,2.094,0.199,2.559c0.2,0.668,0.584,1.193,1.146,1.58
		c0.564,0.388,1.236,0.58,2.019,0.58s1.442-0.188,1.987-0.565c0.543-0.375,0.918-0.869,1.125-1.483
		c0.141-0.419,0.21-1.31,0.21-2.669V12.35h1.431v5.337c0,1.498-0.176,2.629-0.524,3.39c-0.351,0.758-0.876,1.353-1.579,1.782
		c-0.703,0.431-1.584,0.645-2.645,0.645c-1.06,0-1.943-0.214-2.654-0.645c-0.709-0.43-1.239-1.028-1.588-1.799
		c-0.351-0.77-0.524-1.929-0.524-3.474L166.582,12.349L166.582,12.349z"/>
	<path fill="#9E9E9E" d="M179.188,12.349h1.429v1.589c0.428-0.626,0.876-1.095,1.351-1.404c0.473-0.311,0.967-0.465,1.479-0.465
		c0.387,0,0.801,0.124,1.24,0.37l-0.73,1.179c-0.293-0.126-0.539-0.189-0.739-0.189c-0.467,0-0.916,0.192-1.351,0.574
		c-0.434,0.385-0.762,0.979-0.988,1.785c-0.173,0.619-0.261,1.872-0.261,3.757v3.68h-1.429V12.349z"/>
	<path fill="#9E9E9E" d="M191.675,8.521h1.601l4.873,11.358l4.953-11.358h1.598l-6.396,14.704h-0.318L191.675,8.521z"/>
	<path fill="#9E9E9E" d="M208.034,7.871c0.317,0,0.591,0.113,0.815,0.34c0.226,0.227,0.34,0.5,0.34,0.82
		c0,0.312-0.113,0.583-0.34,0.809c-0.226,0.227-0.498,0.34-0.815,0.34c-0.312,0-0.58-0.113-0.806-0.34s-0.338-0.496-0.338-0.809
		c0-0.32,0.112-0.593,0.338-0.82S207.723,7.871,208.034,7.871z M207.34,12.349h1.398v10.875h-1.398V12.349z"/>
	<path fill="#9E9E9E" d="M212.249,23.225V8.151h1.399v6.067c0.584-0.72,1.24-1.258,1.965-1.615c0.727-0.356,1.521-0.534,2.387-0.534
		c1.539,0,2.852,0.559,3.939,1.673c1.09,1.117,1.634,2.471,1.634,4.064c0,1.571-0.552,2.916-1.647,4.026
		c-1.1,1.114-2.421,1.669-3.965,1.669c-0.886,0-1.688-0.189-2.406-0.568s-1.354-0.949-1.906-1.709v1.998h-1.399V23.225z
		 M217.848,22.155c0.774,0,1.493-0.192,2.152-0.577c0.658-0.381,1.18-0.92,1.568-1.613c0.391-0.691,0.584-1.426,0.584-2.199
		c0-0.772-0.195-1.509-0.588-2.208c-0.394-0.7-0.92-1.245-1.582-1.635c-0.66-0.389-1.367-0.584-2.117-0.584
		c-0.764,0-1.49,0.195-2.178,0.584c-0.69,0.39-1.219,0.915-1.586,1.574c-0.369,0.66-0.557,1.404-0.557,2.229
		c0,1.26,0.415,2.312,1.243,3.158C215.616,21.73,216.636,22.155,217.848,22.155z"/>
	<path fill="#9E9E9E" d="M235.789,19.614l1.18,0.62c-0.387,0.761-0.835,1.373-1.341,1.841c-0.507,0.466-1.076,0.821-1.712,1.063
		c-0.633,0.242-1.35,0.363-2.148,0.363c-1.774,0-3.162-0.58-4.162-1.744c-1-1.162-1.502-2.478-1.502-3.943
		c0-1.377,0.424-2.607,1.271-3.688c1.073-1.372,2.511-2.059,4.312-2.059c1.854,0,3.334,0.703,4.441,2.108
		c0.787,0.993,1.188,2.233,1.201,3.719h-9.786c0.026,1.263,0.431,2.299,1.21,3.105c0.781,0.809,1.745,1.212,2.893,1.212
		c0.557,0,1.095-0.097,1.617-0.288c0.524-0.191,0.969-0.447,1.336-0.766C234.966,20.839,235.361,20.327,235.789,19.614z
		 M235.789,16.687c-0.188-0.747-0.459-1.343-0.814-1.789c-0.356-0.447-0.83-0.806-1.418-1.08c-0.587-0.273-1.203-0.409-1.852-0.409
		c-1.066,0-1.982,0.343-2.75,1.029c-0.562,0.5-0.985,1.25-1.271,2.25L235.789,16.687L235.789,16.687z"/>
	<path fill="#9E9E9E" d="M243.268,9.324c0.823-0.876,1.955-1.314,3.392-1.314c1.327,0,2.393,0.375,3.192,1.125
		c0.799,0.749,1.198,1.707,1.198,2.874c0,0.706-0.146,1.279-0.435,1.719c-0.29,0.439-0.885,1.086-1.782,1.939
		c-0.653,0.619-1.08,1.144-1.276,1.574c-0.197,0.43-0.296,1.063-0.296,1.903h-1.776c0-0.953,0.111-1.721,0.338-2.304
		s0.73-1.251,1.513-2.004l0.815-0.789c0.244-0.227,0.442-0.464,0.597-0.71c0.276-0.434,0.416-0.883,0.416-1.35
		c0-0.653-0.201-1.219-0.601-1.699c-0.396-0.479-1.055-0.719-1.974-0.719c-1.136,0-1.923,0.413-2.356,1.239
		c-0.246,0.46-0.383,1.123-0.42,1.989h-1.777C242.034,11.358,242.445,10.201,243.268,9.324z"/>
	<polygon opacity="0.9" fill="#ED2A25" enable-background="new    " points="246.096,22.225 246.809,23.588 245.381,23.588 	"/>
	<polygon opacity="0.9" fill="#426EB5" enable-background="new    " points="247.521,22.225 248.234,23.588 246.809,23.588 	"/>
	<polygon fill="#754D9E" points="246.104,22.225 247.468,22.225 246.809,23.588 	"/>
	<polygon opacity="0.9" fill="#F8ED40" enable-background="new    " points="247.521,24.954 246.809,23.588 248.234,23.588 	"/>
	<polygon opacity="0.9" fill="#F7961D" enable-background="new    " points="246.096,24.954 245.381,23.588 246.809,23.588 	"/>
	<polygon opacity="0.8" fill="#06B052" enable-background="new    " points="247.512,24.954 246.146,24.954 246.809,23.588 	"/>
	<line fill="none" x1="5" y1="31" x2="315" y2="31"/>
	<line fill="none" x1="3" y1="3" x2="313" y2="3"/>
	<g>
		<rect x="57.999" y="16.387" opacity="0.9" fill="#F8ED40" width="9.958" height="2.4"/>
		<rect x="53.076" y="16.387" opacity="0.9" fill="#F7961D" width="9.958" height="2.4"/>
		<rect x="48.079" y="16.387" opacity="0.8" fill="#ED2A25" width="9.958" height="2.4"/>
		<rect x="43.016" y="16.387" opacity="0.9" fill="#ED4798" width="9.958" height="2.4"/>
		<rect x="38.018" y="16.387" opacity="0.9" fill="#754D9E" width="9.958" height="2.4"/>
		<rect x="33.123" y="16.387" opacity="0.9" fill="#426EB5" width="9.958" height="2.4"/>
		<rect x="33.123" y="16.387" opacity="0.9" fill="#06B052" width="4.958" height="2.4"/>
		<rect x="23.164" y="16.387" opacity="0.9" fill="#F8ED40" width="9.958" height="2.4"/>
		<rect x="18.242" y="16.387" opacity="0.9" fill="#F7961D" width="9.958" height="2.4"/>
		<rect x="13.244" y="16.387" opacity="0.8" fill="#ED2A25" width="9.958" height="2.4"/>
		<rect x="8.182" y="16.387" opacity="0.9" fill="#ED4798" width="9.958" height="2.4"/>
		<rect x="3.184" y="16.387" opacity="0.9" fill="#754D9E" width="9.958" height="2.4"/>
	</g>
	<g>
		<rect x="253.266" y="16" opacity="0.9" fill="#F8ED40" width="9.959" height="2.4"/>
		<rect x="258.189" y="16" opacity="0.9" fill="#F7961D" width="9.958" height="2.4"/>
		<rect x="263.187" y="16" opacity="0.8" fill="#ED2A25" width="9.958" height="2.4"/>
		<rect x="268.249" y="16" opacity="0.9" fill="#ED4798" width="9.958" height="2.4"/>
		<rect x="273.247" y="16" opacity="0.9" fill="#754D9E" width="9.958" height="2.4"/>
		<rect x="278.143" y="16" opacity="0.9" fill="#426EB5" width="9.958" height="2.4"/>
		<rect x="283.143" y="16" opacity="0.9" fill="#06B052" width="4.958" height="2.4"/>
		<rect x="288.101" y="16" opacity="0.9" fill="#F8ED40" width="9.958" height="2.4"/>
		<rect x="293.023" y="16" opacity="0.9" fill="#F7961D" width="9.958" height="2.4"/>
		<rect x="298.021" y="16" opacity="0.8" fill="#ED2A25" width="9.957" height="2.4"/>
		<rect x="303.084" y="16" opacity="0.9" fill="#ED4798" width="9.957" height="2.4"/>
		<rect x="308.082" y="16" opacity="0.9" fill="#754D9E" width="9.957" height="2.4"/>
	</g>
</g>
</svg>
