<?xml version="1.0" encoding="utf-8"?>
<!-- Generator: Adobe Illustrator 16.0.0, SVG Export Plug-In . SVG Version: 6.00 Build 0)  -->
<!DOCTYPE svg PUBLIC "-//W3C//DTD SVG 1.1//EN" "http://www.w3.org/Graphics/SVG/1.1/DTD/svg11.dtd">
<svg version="1.1" id="Layer_1" xmlns="http://www.w3.org/2000/svg" xmlns:xlink="http://www.w3.org/1999/xlink" x="0px" y="0px"
	 width="77.816px" height="76.643px" viewBox="0 0 77.816 76.643" enable-background="new 0 0 77.816 76.643" xml:space="preserve">
<g>
	<polygon fill="#F3BCD1" points="55.022,76.643 57.825,71.783 55.022,66.927 49.413,66.927 46.607,71.783 49.413,76.643 	"/>
	<polygon opacity="0.04" enable-background="new    " points="55.022,66.927 49.413,76.643 55.022,76.643 57.825,71.783 	"/>
	<polygon fill="#F3BCD1" points="23.672,76.643 20.868,71.783 23.672,66.927 29.281,66.927 32.087,71.783 29.281,76.643 	"/>
	<polygon opacity="0.04" enable-background="new    " points="23.672,66.927 29.281,76.643 23.672,76.643 20.868,71.783 	"/>
	<polygon fill="#F3BCD1" points="6.806,56.689 4.225,52.219 6.806,47.748 11.969,47.748 14.55,52.219 11.969,56.689 	"/>
	<polygon fill="#F3BCD1" points="65.546,57.213 62.964,52.741 65.546,48.271 70.709,48.271 73.291,52.741 70.709,57.213 	"/>
	<polygon fill="#F3BCD1" points="19.454,69.561 0,35.865 19.454,2.171 58.361,2.171 77.816,35.865 58.361,69.561 	"/>
	<polygon opacity="0.02" fill="#FFFFFF" enable-background="new    " points="19.454,2.171 58.361,69.561 19.454,69.561 0,35.865 	
		"/>
	<polygon opacity="0.01" enable-background="new    " points="38.336,34.877 19.454,69.561 58.361,69.561 	"/>
	<polygon opacity="0.02" enable-background="new    " points="38.336,34.877 58.361,2.171 19.454,2.171 	"/>
	<g>
		<path fill="#575757" d="M20.315,10.823c0,0,2.622-5.304,11.317-5.304"/>
		<path fill="#575757" d="M53.371,10.14c0,0-2.622-5.302-11.32-5.302"/>
		<circle opacity="0.3" fill="#D71E40" enable-background="new    " cx="18.102" cy="39.161" r="11.96"/>
		<circle opacity="0.3" fill="#D71E40" enable-background="new    " cx="19.761" cy="36.578" r="10.127"/>
		<circle opacity="0.3" fill="#D71E40" enable-background="new    " cx="56.041" cy="36.578" r="10.127"/>
		<circle opacity="0.3" fill="#D71E40" enable-background="new    " cx="57.39" cy="39.161" r="11.96"/>
		<circle fill="#FFFFFF" cx="50.857" cy="28.733" r="9.792"/>
		<path fill="#575757" d="M41.095,27.657c0,0,1.271-8.719,9.792-8.719c8.521,0,9.731,8.719,9.731,8.719s-2.624-7.882-9.731-7.882
			C43.778,19.777,41.095,27.657,41.095,27.657z"/>
		<circle fill="#575757" cx="50.857" cy="28.733" r="1.884"/>
		<path opacity="0.1" fill="#FFFFFF" enable-background="new    " d="M41.392,34.545c0,0,5.025,5.743,9.763,5.743
			s9.167-5.743,9.167-5.743s-3.401,7.22-9.167,7.22S41.392,34.545,41.392,34.545z"/>
		<path opacity="0.4" fill="#FFFFFF" enable-background="new    " d="M49.52,28.976c0,0,0.128,1.328,1.396,1.328
			c1.271,0,1.277-1.328,1.277-1.328s-0.363,0.664-1.337,0.664C49.884,29.64,49.52,28.976,49.52,28.976z"/>
		<circle fill="#FFFFFF" cx="25.4" cy="28.733" r="9.792"/>
		<path fill="#575757" d="M15.608,27.657c0,0,1.271-8.719,9.792-8.719c8.519,0,9.73,8.719,9.73,8.719s-2.624-7.882-9.73-7.882
			C18.292,19.777,15.608,27.657,15.608,27.657z"/>
		<circle fill="#575757" cx="25.757" cy="28.733" r="1.719"/>
		<path opacity="0.1" fill="#FFFFFF" enable-background="new    " d="M15.608,34.545c0,0,5.023,5.743,9.762,5.743
			c4.736,0,9.167-5.743,9.167-5.743s-3.402,7.22-9.167,7.22C19.604,41.765,15.608,34.545,15.608,34.545z"/>
		<path opacity="0.4" fill="#FFFFFF" enable-background="new    " d="M24.482,28.733c0,0,0.117,1.212,1.273,1.212
			c1.158,0,1.166-1.212,1.166-1.212s-0.333,0.605-1.22,0.605C24.814,29.339,24.482,28.733,24.482,28.733z"/>
		<path opacity="0.4" enable-background="new    " d="M42.956,55.137c0,0.549-0.443,0.993-0.994,0.993h-7.479
			c-0.549,0-0.993-0.444-0.993-0.993l0,0c0-0.549,0.444-0.993,0.993-0.993h7.479C42.511,54.144,42.956,54.588,42.956,55.137
			L42.956,55.137z"/>
	</g>
	<polygon opacity="0.05" enable-background="new    " points="6.72,47.748 4.225,52.219 6.806,56.689 12.022,56.689 	"/>
	<polygon opacity="0.05" enable-background="new    " points="70.679,48.226 73.291,52.741 70.709,57.213 65.49,57.213 	"/>
</g>
</svg>
