<?xml version="1.0" encoding="utf-8"?>
<!-- Generator: Adobe Illustrator 16.0.0, SVG Export Plug-In . SVG Version: 6.00 Build 0)  -->
<!DOCTYPE svg PUBLIC "-//W3C//DTD SVG 1.1//EN" "http://www.w3.org/Graphics/SVG/1.1/DTD/svg11.dtd">
<svg version="1.1" id="Layer_1" xmlns="http://www.w3.org/2000/svg" xmlns:xlink="http://www.w3.org/1999/xlink" x="0px" y="0px"
	 width="77.816px" height="77.373px" viewBox="0 0 77.816 77.373" enable-background="new 0 0 77.816 77.373" xml:space="preserve">
<g>
	<g>
		<polygon fill="#F8ED40" points="54.583,77.373 57.386,72.517 54.583,67.658 48.974,67.658 46.168,72.517 48.974,77.373 		"/>
		<polygon opacity="0.04" enable-background="new    " points="54.583,67.658 48.974,77.373 54.583,77.373 57.386,72.517 		"/>
	</g>
	<g>
		<polygon fill="#F8ED40" points="23.232,77.373 20.429,72.517 23.232,67.658 28.842,67.658 31.647,72.517 28.842,77.373 		"/>
		<polygon opacity="0.04" enable-background="new    " points="23.232,67.658 28.842,77.373 23.232,77.373 20.429,72.517 		"/>
	</g>
	<polygon fill="#F8ED40" points="6.234,55.291 3.652,50.819 6.234,46.349 11.396,46.349 13.978,50.819 11.396,55.291 	"/>
	<polygon fill="#F8ED40" points="66.18,55.593 63.598,51.121 66.18,46.649 71.343,46.649 73.924,51.121 71.343,55.593 	"/>
	<polygon opacity="0.05" enable-background="new    " points="6.234,55.291 3.652,50.819 6.234,46.349 11.396,46.349 13.978,50.819 
		11.396,55.291 	"/>
	<polygon opacity="0.05" enable-background="new    " points="66.18,55.592 63.598,51.121 66.18,46.649 71.343,46.649 
		73.924,51.121 71.343,55.592 	"/>
	<polygon fill="#F8ED40" points="19.454,69.562 0,35.865 19.454,2.171 58.361,2.171 77.816,35.865 58.361,69.562 	"/>
	<polygon opacity="0.02" fill="#020202" enable-background="new    " points="19.454,2.171 38.908,35.318 58.361,2.171 	"/>
	<polygon opacity="0.03" fill="#020202" enable-background="new    " points="38.908,35.318 19.454,69.562 58.361,69.562 	"/>
	<polygon opacity="0.02" fill="#020202" enable-background="new    " points="19.454,2.171 38.908,35.318 19.454,69.562 0,35.865 	
		"/>
	<path opacity="0.4" fill="none" stroke="#000000" stroke-miterlimit="10" enable-background="new    " d="M60.718,23.36
		c0,0,4.346,2.92,4.346,5.146"/>
	<g>
		<ellipse fill="#FFFFFF" cx="30.294" cy="20.44" rx="7.439" ry="8.669"/>
		<ellipse fill="#FFFFFF" cx="46.829" cy="20.44" rx="7.439" ry="8.669"/>
		<path opacity="0.1" enable-background="new    " d="M25.73,10.098c0,0,3.687-5.776,7.086-2.457"/>
		<path opacity="0.1" enable-background="new    " d="M51.277,8.734c0,0-4.545-5.482-7.67-2.281"/>
		<path fill="#575757" d="M22.717,18.257c0,0,0.932-6.486,7.275-6.486c6.345,0,7.879,6.011,7.879,6.011s-2.416-5.143-7.879-5.143
			C24.531,12.639,22.717,18.257,22.717,18.257z"/>
		<path fill="#575757" d="M39.251,18.257c0,0,0.933-6.486,7.276-6.486c6.345,0,7.878,6.011,7.878,6.011s-2.416-5.143-7.878-5.143
			C41.066,12.639,39.251,18.257,39.251,18.257z"/>
		<ellipse fill="#F6EB0F" cx="29.831" cy="22.819" rx="6.032" ry="6.485"/>
		<ellipse fill="#F6EB0F" cx="47.432" cy="22.819" rx="6.031" ry="6.485"/>
		<circle fill="#575757" cx="29.991" cy="21.602" r="3.87"/>
		<circle fill="#575757" cx="46.828" cy="21.602" r="3.835"/>
		<ellipse fill="#FFFFFF" cx="27.664" cy="19.349" rx="0.754" ry="1.092"/>
		<ellipse fill="#FFFFFF" cx="49.373" cy="18.858" rx="0.754" ry="1.091"/>
		<path opacity="0.4" fill="none" stroke="#000000" stroke-miterlimit="10" enable-background="new    " d="M16.908,25.245
			c0,0,10.271,18.452,22.752,18.452s23.23-18.452,23.23-18.452"/>
		<path opacity="0.4" fill="none" stroke="#000000" stroke-miterlimit="10" enable-background="new    " d="M19.421,23.36
			c0,0-4.346,2.92-4.346,5.146"/>
		<path fill="#FBED27" d="M43.199,28.007c0,0,11.069-2.023,11.069-5.868c0-3.845,2.196,4.807,1.136,5.868
			c-1.062,1.061-5.05,3.78-6.784,3.78C46.886,31.787,43.199,28.007,43.199,28.007z"/>
		<path fill="#EEE835" d="M34.081,27.979c0,0-11.068-2.022-11.068-5.868c0-3.844-2.197,4.808-1.137,5.868
			c1.062,1.062,5.051,3.781,6.785,3.781C30.394,31.761,34.081,27.979,34.081,27.979z"/>
	</g>
</g>
</svg>
