<?xml version="1.0" encoding="utf-8"?>
<!-- Generator: Adobe Illustrator 16.0.0, SVG Export Plug-In . SVG Version: 6.00 Build 0)  -->
<!DOCTYPE svg PUBLIC "-//W3C//DTD SVG 1.1//EN" "http://www.w3.org/Graphics/SVG/1.1/DTD/svg11.dtd">
<svg version="1.1" id="Layer_1" xmlns="http://www.w3.org/2000/svg" xmlns:xlink="http://www.w3.org/1999/xlink" x="0px" y="0px"
	 width="77.816px" height="77.489px" viewBox="0 0 77.816 77.489" enable-background="new 0 0 77.816 77.489" xml:space="preserve">
<g>
	<g>
		<polygon fill="#ED2A25" points="55.13,77.489 57.933,72.631 55.13,67.773 49.521,67.773 46.715,72.631 49.521,77.489 		"/>
		<polygon opacity="0.04" enable-background="new    " points="55.13,67.773 49.521,77.489 55.13,77.489 57.933,72.631 		"/>
	</g>
	<g>
		<polygon fill="#ED2A25" points="22.779,77.489 19.977,72.631 22.779,67.773 28.389,67.773 31.194,72.631 28.389,77.489 		"/>
		<polygon opacity="0.04" enable-background="new    " points="22.779,67.773 28.389,77.489 22.779,77.489 19.977,72.631 		"/>
	</g>
	<g>
		<polygon fill="#ED2A25" points="5.47,54.567 2.889,50.096 5.47,45.625 10.633,45.625 13.215,50.096 10.633,54.567 		"/>
		<polygon opacity="0.05" enable-background="new    " points="5.47,54.566 2.889,50.096 5.47,45.625 10.633,45.625 13.215,50.096 
			10.633,54.566 		"/>
	</g>
	<g>
		<polygon fill="#ED2A25" points="66.623,55.17 64.041,50.7 66.623,46.229 71.786,46.229 74.367,50.7 71.786,55.17 		"/>
		<polygon opacity="0.05" enable-background="new    " points="66.623,55.17 64.041,50.7 66.623,46.229 71.786,46.229 74.367,50.7 
			71.786,55.17 		"/>
	</g>
	<polygon fill="#ED2A25" points="19.454,69.652 0,35.956 19.454,2.262 58.361,2.262 77.816,35.956 58.361,69.652 	"/>
	<polygon opacity="0.02" fill="#FFFFFF" enable-background="new    " points="19.454,2.262 58.361,69.652 19.454,69.652 0,35.956 	
		"/>
	<polygon opacity="0.02" enable-background="new    " points="38.336,34.968 19.454,69.652 58.361,69.652 	"/>
	<polygon opacity="0.03" enable-background="new    " points="38.336,34.968 58.361,2.262 19.454,2.262 	"/>
	<path d="M30.987,53.736c0,0,4.131-5.589,7.65-5.589s7.649,5.195,7.649,5.195s-3.771-6.408-7.649-6.408
		c-3.88,0-7.65,6.408-7.65,6.408"/>
	<path opacity="0.8" enable-background="new    " d="M35.952,24.752c0,0,0.241-3.237-1.546-5.025c-1.788-1.787-6.765-5.7-11.596-5.7
		s-5.315,1.449-4.35,2.415c0.966,0.967,8.166,1.691,10.63,4.155C31.555,23.061,35.952,24.752,35.952,24.752z"/>
	<ellipse fill="#FFFFFF" cx="30.117" cy="28.134" rx="5.17" ry="6.958"/>
	<path opacity="0.6" enable-background="new    " d="M25.05,29.641c0,0,1.021,5.45,5.033,5.45c4.014,0,5.082-5.45,5.082-5.45
		s-2.054,4.573-5.082,4.573C27.055,34.214,25.05,29.641,25.05,29.641z"/>
	<path opacity="0.1" fill="#FFFFFF" enable-background="new    " d="M25.05,29.641c0,0,0.366,6.306,5.059,6.306
		c4.691,0,5.057-6.306,5.057-6.306s-1.079,5.45-5.082,5.45S25.05,29.641,25.05,29.641z"/>
	<ellipse fill="#C32127" cx="30.19" cy="28.155" rx="2.526" ry="4.596"/>
	<path fill="#C32127" d="M25.418,25.697c0,0,1.083-4.276,4.771-4.276s4.771,4.276,4.771,4.276s-1.188-2.687-4.698-2.687
		C26.75,23.012,25.418,25.697,25.418,25.697z"/>
	<circle fill="#FFFFFF" cx="30.19" cy="28.134" r="0.528"/>
	<path opacity="0.8" enable-background="new    " d="M42.121,25.054c0,0-0.242-3.237,1.546-5.025
		c1.788-1.787,6.765-5.701,11.597-5.701s5.314,1.449,4.349,2.416c-0.966,0.966-8.166,1.69-10.629,4.155
		C46.518,23.362,42.121,25.054,42.121,25.054z"/>
	<ellipse fill="#FFFFFF" cx="47.689" cy="28.436" rx="5.17" ry="6.958"/>
	<path opacity="0.6" enable-background="new    " d="M42.631,29.941c0,0,1.021,5.45,5.033,5.45s5.082-5.45,5.082-5.45
		s-2.054,4.573-5.082,4.573C44.636,34.515,42.631,29.941,42.631,29.941z"/>
	<path opacity="0.1" fill="#FFFFFF" enable-background="new    " d="M42.631,29.941c0,0,0.366,6.307,5.059,6.307
		c4.691,0,5.057-6.307,5.057-6.307s-1.08,5.45-5.082,5.45S42.631,29.941,42.631,29.941z"/>
	<ellipse fill="#C32127" cx="47.689" cy="28.457" rx="2.526" ry="4.596"/>
	<path fill="#C32127" d="M42.917,26c0,0,1.083-4.277,4.772-4.277c3.688,0,4.771,4.277,4.771,4.277s-1.188-2.687-4.699-2.687
		C44.249,23.313,42.917,26,42.917,26z"/>
	<circle fill="#FFFFFF" cx="47.689" cy="28.436" r="0.528"/>
</g>
</svg>
