<?xml version="1.0" encoding="utf-8"?>
<!-- Generator: Adobe Illustrator 16.0.0, SVG Export Plug-In . SVG Version: 6.00 Build 0)  -->
<!DOCTYPE svg PUBLIC "-//W3C//DTD SVG 1.1//EN" "http://www.w3.org/Graphics/SVG/1.1/DTD/svg11.dtd">
<svg version="1.1" id="Layer_1" xmlns="http://www.w3.org/2000/svg" xmlns:xlink="http://www.w3.org/1999/xlink" x="0px" y="0px"
	 width="77.816px" height="76.947px" viewBox="0 0 77.816 76.947" enable-background="new 0 0 77.816 76.947" xml:space="preserve">
<g>
	<g>
		<polygon fill="#754D9E" points="22.493,76.947 19.69,72.089 22.493,67.231 28.102,67.231 30.909,72.089 28.102,76.947 		"/>
		<polygon opacity="0.05" enable-background="new    " points="22.493,67.231 28.102,76.947 22.493,76.947 19.69,72.089 		"/>
	</g>
	<g>
		<polygon fill="#754D9E" points="55.135,76.947 57.804,72.321 55.135,67.696 49.794,67.696 47.122,72.321 49.794,76.947 		"/>
		<polygon opacity="0.05" enable-background="new    " points="55.135,67.696 49.794,76.947 55.135,76.947 57.804,72.321 		"/>
	</g>
	<polygon fill="#754D9E" points="7.44,57.757 4.858,53.286 7.44,48.813 12.603,48.813 15.184,53.286 12.603,57.757 	"/>
	<polygon fill="#754D9E" points="64.974,57.757 62.392,53.286 64.974,48.813 70.137,48.813 72.718,53.286 70.137,57.757 	"/>
	<polygon opacity="0.05" enable-background="new    " points="64.974,57.757 62.392,53.286 64.974,48.813 70.137,48.813 
		72.718,53.286 70.137,57.757 	"/>
	<polygon opacity="0.05" enable-background="new    " points="7.44,57.757 4.858,53.286 7.44,48.813 12.603,48.813 15.184,53.286 
		12.603,57.757 	"/>
	<polygon fill="#754D9E" points="19.454,69.476 0,35.779 19.454,2.083 58.361,2.083 77.816,35.779 58.361,69.476 	"/>
	<polygon opacity="0.02" fill="#FFFFFF" enable-background="new    " points="19.454,2.083 58.361,69.476 19.454,69.476 0,35.779 	
		"/>
	<polygon opacity="0.03" enable-background="new    " points="38.336,34.79 19.454,69.476 58.361,69.476 	"/>
	<polygon opacity="0.03" enable-background="new    " points="38.336,34.79 58.361,2.083 19.454,2.083 	"/>
	<g>
		<ellipse opacity="0.3" enable-background="new    " cx="26.148" cy="28.828" rx="11.344" ry="12.833"/>
		<ellipse opacity="0.3" enable-background="new    " cx="52.023" cy="28.828" rx="11.344" ry="12.833"/>
		<g>
			<ellipse opacity="0.1" fill="#FFFFFF" enable-background="new    " cx="26.524" cy="28.979" rx="12.838" ry="14.296"/>
			<ellipse opacity="0.1" fill="#FFFFFF" enable-background="new    " cx="52.136" cy="28.979" rx="12.839" ry="14.296"/>
		</g>
		<path fill="#FFFFFF" stroke="#753D77" stroke-miterlimit="10" d="M16.926,26.534c0,0,0,12.04,10.159,12.04
			s10.159-12.04,10.159-12.04H16.926z"/>
		<path fill="#FFFFFF" stroke="#773D78" stroke-miterlimit="10" d="M41.154,26.534c0,0,0,12.04,10.159,12.04
			s10.159-12.04,10.159-12.04H41.154z"/>
		<ellipse fill="#A254A0" cx="24.048" cy="27.48" rx="6.236" ry="4.461"/>
		<ellipse fill="#A254A0" cx="48.718" cy="27.48" rx="6.179" ry="4.461"/>
		<ellipse fill="#050404" cx="23.924" cy="28.146" rx="4.846" ry="2.989"/>
		<ellipse fill="#050404" cx="48.708" cy="28.146" rx="4.619" ry="2.989"/>
		<ellipse transform="matrix(1 -0.0069 0.0069 1 -0.1884 0.1579)" fill="#FFFFFF" cx="22.891" cy="27.503" rx="1.031" ry="1.397"/>
		<ellipse transform="matrix(1 -0.007 0.007 1 -0.1909 0.3319)" fill="#FFFFFF" cx="47.418" cy="27.503" rx="1.014" ry="1.397"/>
		<g>
			<path fill="#8E4D90" d="M40.568,28.159h23.136c0,0-0.697-12.282-11.567-12.282S40.568,28.159,40.568,28.159z"/>
			<path fill="#8E4D90" d="M14.58,28.159h23.136c0,0-0.696-12.282-11.567-12.282S14.58,28.159,14.58,28.159z"/>
		</g>
		<ellipse opacity="0.1" fill="#FFFFFF" enable-background="new    " cx="37.508" cy="44.912" rx="1.693" ry="1.865"/>
		<ellipse opacity="0.1" fill="#FFFFFF" enable-background="new    " cx="40.846" cy="44.912" rx="1.693" ry="1.865"/>
		<ellipse cx="37.668" cy="44.64" rx="1.079" ry="1.187"/>
		<ellipse cx="40.748" cy="44.64" rx="1.065" ry="1.187"/>
		<path fill="none" stroke="#000000" stroke-miterlimit="10" d="M37.876,55.403c0.348-0.588,1.012-1.026,1.545-1.412
			c0.441-0.319,0.7-0.405,1.25-0.403c0.548,0.001,0.952,0.009,1.468,0.179c0.389,0.131,0.845,0.316,1.197,0.529"/>
		<path opacity="0.3" fill="none" stroke="#000000" stroke-miterlimit="10" enable-background="new    " d="M14.355,28.159
			c0,0,0.513-12.282,11.943-12.282c11.433,0,11.193,12.282,11.193,12.282"/>
		<path opacity="0.3" fill="none" stroke="#000000" stroke-miterlimit="10" enable-background="new    " d="M40.455,28.159
			c0,0,0.512-12.282,11.944-12.282c11.432,0,11.191,12.282,11.191,12.282"/>
	</g>
</g>
</svg>
