<?xml version="1.0" encoding="utf-8"?>
<!-- Generator: Adobe Illustrator 16.0.0, SVG Export Plug-In . SVG Version: 6.00 Build 0)  -->
<!DOCTYPE svg PUBLIC "-//W3C//DTD SVG 1.1//EN" "http://www.w3.org/Graphics/SVG/1.1/DTD/svg11.dtd">
<svg version="1.1" id="Layer_1" xmlns="http://www.w3.org/2000/svg" xmlns:xlink="http://www.w3.org/1999/xlink" x="0px" y="0px"
	 width="77.816px" height="76.943px" viewBox="0 0 77.816 76.943" enable-background="new 0 0 77.816 76.943" xml:space="preserve">
<g>
	<polygon fill="#426EB5" points="22.493,76.943 19.69,72.086 22.493,67.229 28.102,67.229 30.909,72.086 28.102,76.943 	"/>
	<polygon opacity="0.03" enable-background="new    " points="22.493,67.229 28.102,76.943 22.493,76.943 19.69,72.086 	"/>
	<polygon fill="#426EB5" points="55.135,76.943 57.804,72.319 55.135,67.694 49.794,67.694 47.122,72.319 49.794,76.943 	"/>
	<polygon opacity="0.03" enable-background="new    " points="55.135,67.694 49.794,76.943 55.135,76.943 57.804,72.319 	"/>
	<polygon fill="#426EB5" points="6.494,56.658 3.913,52.188 6.494,47.717 11.657,47.717 14.238,52.188 11.657,56.658 	"/>
	<polygon fill="#426EB5" points="65.837,56.96 63.256,52.489 65.837,48.019 71,48.019 73.582,52.489 71,56.96 	"/>
	<polygon opacity="0.05" enable-background="new    " points="65.837,56.96 63.256,52.489 65.837,48.019 71,48.019 73.582,52.489 
		71,56.96 	"/>
	<polygon opacity="0.05" enable-background="new    " points="6.494,56.658 3.913,52.188 6.494,47.717 11.657,47.717 14.238,52.188 
		11.657,56.658 	"/>
	<polygon fill="#426EB5" points="19.454,69.681 0,35.985 19.454,2.29 58.361,2.29 77.816,35.985 58.361,69.681 	"/>
	<polygon opacity="0.02" fill="#FFFFFF" enable-background="new    " points="19.454,2.29 58.361,69.681 19.454,69.681 0,35.985 	
		"/>
	<polygon opacity="0.03" enable-background="new    " points="38.336,34.997 19.454,69.681 58.361,69.681 	"/>
	<polygon opacity="0.03" enable-background="new    " points="38.336,34.997 58.361,2.29 19.454,2.29 	"/>
	<circle fill="#FFFFFF" cx="52.101" cy="31.52" r="0.835"/>
	<path fill="#575757" d="M57.979,23.747c0,0-0.661,5.285-6.277,5.285s-7.762-5.285-7.762-5.285s3.799,2.643,7.432,2.643
		S57.979,23.747,57.979,23.747z"/>
	<ellipse fill="#FFFFFF" stroke="#000000" stroke-miterlimit="10" cx="27.506" cy="28.576" rx="6.717" ry="10.03"/>
	<ellipse fill="#FFFFFF" stroke="#000000" stroke-miterlimit="10" cx="48.962" cy="27.529" rx="6.717" ry="10.03"/>
	<path fill="#5295CF" d="M28.199,26.765c0,0-3.116,0.251-3.116,1.809s0.201,1.056,1.256,0
		C27.395,27.518,28.199,26.765,28.199,26.765z"/>
	<path fill="#5295CF" d="M51.265,26.765c0,0-3.115,0.251-3.115,1.809s0.201,1.056,1.256,0S51.265,26.765,51.265,26.765z"/>
	<path fill="#426EB5" d="M34.934,15.91c0,0-14.542,16.224-19.146,11.619c-4.604-4.604,3.506-4.499,7.99-8.983
		c4.484-4.483,5.427-5.802,9.046-5.802c3.618,0,3.316,3.934,3.316,4.756S34.934,15.91,34.934,15.91z"/>
	<path fill="#426EB5" d="M41.613,15.91c0,0,14.542,16.224,19.146,11.619c4.604-4.604-3.506-4.499-7.989-8.983
		c-4.484-4.483-5.428-5.802-9.046-5.802s-3.316,3.934-3.316,4.756S41.613,15.91,41.613,15.91z"/>
	<path fill="#426EB5" d="M15.279,35.352c0,0,4.135-0.19,11.159,0.533c7.022,0.726,8.515,2.909,8.515,2.909l-8.831,0.159
		L15.279,35.352z"/>
	<path fill="#426EB5" d="M62.338,32.354c0,0-4.018,0.43-10.683,2.171c-6.668,1.742-7.781,4.069-7.781,4.069l8.542-1.157
		L62.338,32.354z"/>
	<path opacity="0.5" enable-background="new    " d="M28.065,55.018c0,0,5.404-13.72,10.537-13.72s8.51,10.101,8.51,10.101
		s-2.836-7.99-8.375-7.99C33.198,43.408,28.065,55.018,28.065,55.018z"/>
	<circle fill="#5295CF" cx="29.034" cy="31.52" r="0.835"/>
	<circle fill="#5295CF" cx="51.265" cy="30.684" r="0.835"/>
	<path opacity="0.5" enable-background="new    " d="M36.146,48.158c0,0,2.729,2.541,5.271,0c2.541-2.541-1.321,1.313-2.635,0
		C37.468,46.844,36.146,48.158,36.146,48.158z"/>
	<path opacity="0.5" enable-background="new    " d="M34.934,15.91c0,0-10.805,12.253-16.834,12.253
		c-6.03,0,3.055-0.765,8.417-6.126C31.879,16.674,34.934,15.91,34.934,15.91z"/>
	<path opacity="0.5" enable-background="new    " d="M41.651,15.91c0,0,10.804,12.253,16.835,12.253c6.03,0-3.055-0.765-8.418-6.126
		C44.705,16.674,41.651,15.91,41.651,15.91z"/>
	<path opacity="0.1" enable-background="new    " d="M19.467,34.507c0,0-5.561,10.568,0,10.568
		C25.028,45.075,19.467,34.507,19.467,34.507z"/>
	<path fill="#FFFFFF" d="M19.467,36.406c0,0-2.649,6.396,0,6.396C22.117,42.804,19.467,36.406,19.467,36.406z"/>
</g>
</svg>
