<?xml version="1.0" encoding="utf-8"?>
<!-- Generator: Adobe Illustrator 16.0.0, SVG Export Plug-In . SVG Version: 6.00 Build 0)  -->
<!DOCTYPE svg PUBLIC "-//W3C//DTD SVG 1.1//EN" "http://www.w3.org/Graphics/SVG/1.1/DTD/svg11.dtd">
<svg version="1.1" id="Layer_1" xmlns="http://www.w3.org/2000/svg" xmlns:xlink="http://www.w3.org/1999/xlink" x="0px" y="0px"
	 width="77.816px" height="77.176px" viewBox="0 0 77.816 77.176" enable-background="new 0 0 77.816 77.176" xml:space="preserve">
<g>
	<g>
		<polygon fill="#06B052" points="22.655,77.176 19.851,72.318 22.655,67.461 28.264,67.461 31.07,72.318 28.264,77.176 		"/>
		<polygon opacity="0.03" enable-background="new    " points="22.655,67.461 28.264,77.176 22.655,77.176 19.851,72.318 		"/>
	</g>
	<g>
		<polygon fill="#06B052" points="55.296,77.176 57.965,72.551 55.296,67.926 49.956,67.926 47.284,72.551 49.956,77.176 		"/>
		<polygon opacity="0.03" enable-background="new    " points="55.296,67.926 49.956,77.176 55.296,77.176 57.965,72.551 		"/>
	</g>
	<polygon fill="#06B052" points="65.596,57.11 63.015,52.64 65.596,48.168 70.759,48.168 73.341,52.64 70.759,57.11 	"/>
	<polygon fill="#06B052" points="6.655,56.81 4.073,52.338 6.655,47.868 11.817,47.868 14.399,52.338 11.817,56.81 	"/>
	<polygon opacity="0.05" enable-background="new    " points="6.655,56.81 4.073,52.338 6.655,47.868 11.817,47.868 14.399,52.338 
		11.817,56.81 	"/>
	<polygon opacity="0.05" enable-background="new    " points="65.596,57.11 63.015,52.64 65.596,48.168 70.759,48.168 73.341,52.64 
		70.759,57.11 	"/>
	<polygon fill="#06B052" points="19.454,69.681 0,35.985 19.454,2.29 58.361,2.29 77.816,35.985 58.361,69.681 	"/>
	<polygon opacity="0.02" fill="#FFFFFF" enable-background="new    " points="19.454,2.29 58.361,69.681 19.454,69.681 0,35.985 	
		"/>
	<polygon opacity="0.03" enable-background="new    " points="38.336,34.997 19.454,69.681 58.361,69.681 	"/>
	<polygon opacity="0.03" enable-background="new    " points="38.336,34.997 58.361,2.29 19.454,2.29 	"/>
	<path fill="#575757" d="M18.971,9.75c0,0,10.828,0.21,10.828-3.188"/>
	<path fill="#575757" d="M57.338,9.75c0,0-10.828,0.21-10.828-3.188"/>
	<g>
		<ellipse fill="#FFFFFF" cx="29.055" cy="21.314" rx="5.356" ry="8.132"/>
		<circle fill="#575757" cx="29.589" cy="22.234" r="3.456"/>
	</g>
	<g>
		<ellipse fill="#FFFFFF" cx="47.563" cy="21.314" rx="5.356" ry="8.132"/>
		<circle fill="#575757" cx="47.563" cy="22.234" r="3.457"/>
	</g>
	<path fill="#0EA94B" d="M22.964,26.064c0,0,7.984,3.346,10.715,0.617c2.729-2.73-2.813,4.073-5.899,4.073
		C24.693,30.755,22.964,26.064,22.964,26.064z"/>
	<path fill="#0EA94B" d="M52.996,26.129c0,0-7.982,3.346-10.713,0.617c-2.729-2.73,2.813,4.073,5.899,4.073
		S52.996,26.129,52.996,26.129z"/>
	<g>
		<ellipse opacity="0.1" enable-background="new    " cx="38.5" cy="53.731" rx="6.629" ry="12.799"/>
		<path fill="#FFFFFF" d="M33.678,60.902c0,0,1.847,4.483,4.82,4.483c2.975,0,4.34-4.483,4.34-4.483H33.678z"/>
	</g>
	<path fill="#FFFFFF" d="M58.513,22.364c0,0-2.643,6.376,0,6.376C61.152,28.74,58.513,22.364,58.513,22.364z"/>
	<path fill="#FFFFFF" d="M18.971,14.225c0,0-2.643,6.376,0,6.376C21.611,20.601,18.971,14.225,18.971,14.225z"/>
	<circle fill="#FFFFFF" cx="29.589" cy="22.234" r="0.835"/>
	<circle fill="#FFFFFF" cx="47.564" cy="22.234" r="0.835"/>
</g>
</svg>
