<?xml version="1.0" encoding="utf-8"?>
<!-- Generator: Adobe Illustrator 16.0.0, SVG Export Plug-In . SVG Version: 6.00 Build 0)  -->
<!DOCTYPE svg PUBLIC "-//W3C//DTD SVG 1.1//EN" "http://www.w3.org/Graphics/SVG/1.1/DTD/svg11.dtd">
<svg version="1.1" id="Layer_1" xmlns="http://www.w3.org/2000/svg" xmlns:xlink="http://www.w3.org/1999/xlink" x="0px" y="0px"
	 width="77.816px" height="77.887px" viewBox="0 0 77.816 77.887" enable-background="new 0 0 77.816 77.887" xml:space="preserve">
<g>
	<g>
		<polygon fill="#ED4798" points="22.327,77.887 19.524,73.029 22.327,68.171 27.936,68.171 30.743,73.029 27.936,77.887 		"/>
		<polygon opacity="0.03" enable-background="new    " points="22.327,68.171 27.936,77.887 22.327,77.887 19.524,73.029 		"/>
	</g>
	<g>
		<polygon fill="#ED4798" points="54.969,77.887 57.638,73.262 54.969,68.637 49.628,68.637 46.956,73.262 49.628,77.887 		"/>
		<polygon opacity="0.03" enable-background="new    " points="54.969,68.637 49.628,77.887 54.969,77.887 57.638,73.262 		"/>
	</g>
	<g>
		<polygon fill="#ED4798" points="5.962,55.17 3.38,50.699 5.962,46.229 11.125,46.229 13.706,50.699 11.125,55.17 		"/>
		<polygon opacity="0.05" enable-background="new    " points="5.962,55.17 3.38,50.699 5.962,46.229 11.125,46.229 13.706,50.699 
			11.125,55.17 		"/>
	</g>
	<g>
		<polygon fill="#ED4798" points="66.812,55.17 64.231,50.699 66.812,46.229 71.976,46.229 74.557,50.699 71.976,55.17 		"/>
		<polygon opacity="0.05" enable-background="new    " points="66.812,55.17 64.231,50.699 66.812,46.229 71.976,46.229 
			74.557,50.699 71.976,55.17 		"/>
	</g>
	<polygon fill="#ED4798" points="19.454,69.652 0,35.956 19.454,2.262 58.361,2.262 77.816,35.956 58.361,69.652 	"/>
	<polygon opacity="0.02" fill="#FFFFFF" enable-background="new    " points="19.454,2.262 58.361,69.652 19.454,69.652 0,35.956 	
		"/>
	<polygon opacity="0.03" enable-background="new    " points="38.336,34.968 19.454,69.652 58.361,69.652 	"/>
	<polygon opacity="0.03" enable-background="new    " points="38.336,34.968 58.361,2.262 19.454,2.262 	"/>
	
		<ellipse transform="matrix(-0.012 -0.9999 0.9999 -0.012 5.0259 52.8462)" fill="#FFFFFF" cx="28.62" cy="23.94" rx="7.841" ry="7.708"/>
	
		<ellipse transform="matrix(-0.0121 -0.9999 0.9999 -0.0121 24.945 70.0024)" fill="#FFFFFF" cx="47.053" cy="22.678" rx="7.842" ry="7.708"/>
	<path fill="#4A3E4D" d="M24.733,12.984c0,0,3.687-5.775,7.087-2.457"/>
	<path fill="#4A3E4D" d="M50.281,11.621c0,0-4.545-5.482-7.67-2.281"/>
	<path fill="#E10686" d="M33.14,19.815c-0.15-0.047-0.291-0.083-0.426-0.11c-1.07-0.227-1.681,0.128-2.417,0.706
		c-0.439-0.824-0.857-1.396-1.928-1.619c-0.135-0.028-0.278-0.051-0.434-0.069c-0.947-0.104-2.196,0.521-2.667,2.119l-0.114,0.541
		c-0.205,1.581,0.567,3.748,3.494,6.878c3.939-1.688,5.518-3.361,5.966-4.891l0.113-0.543C34.942,21.174,34.049,20.1,33.14,19.815z"
		/>
	<path fill="#E10686" d="M47.021,17.926c-0.152,0.04-0.292,0.082-0.419,0.126c-1.031,0.369-1.368,0.989-1.694,1.867
		c-0.806-0.474-1.459-0.741-2.488-0.374c-0.131,0.046-0.264,0.103-0.406,0.167c-0.861,0.406-1.602,1.59-1.167,3.2l0.184,0.521
		c0.654,1.454,2.442,2.898,6.573,4.039c2.479-3.498,2.95-5.75,2.531-7.287l-0.185-0.521C49.266,18.143,47.945,17.695,47.021,17.926z
		"/>
	<path opacity="0.2" fill="#FFFFFF" enable-background="new    " d="M21.104,25.67c0,0,1.234,6.111,7.613,6.111
		c6.378,0,7.421-6.111,7.421-6.111s-3.673,4.321-7.517,4.321S21.104,25.67,21.104,25.67z"/>
	<path fill="#4A3E4D" d="M21.017,22.438c0,0,0.932-6.484,7.275-6.484c6.346,0,7.878,6.01,7.878,6.01s-2.416-5.143-7.878-5.143
		C22.832,16.82,21.017,22.438,21.017,22.438z"/>
	<path fill="#4A3E4D" d="M39.346,21.938c0,0,0.719-7.097,7.708-7.097s7.708,7.097,7.708,7.097s-2.542-6.307-7.708-6.307
		S39.346,21.938,39.346,21.938z"/>
	<g>
		<path fill="#ED4798" d="M18.41,29.609c0,0,3.707-0.172,10.004,0.479c6.296,0.648,7.634,2.607,7.634,2.607l-7.917,0.144
			L18.41,29.609z"/>
		<path fill="#ED4798" d="M58.079,26.909c0,0-3.689,0.394-9.813,1.993c-6.125,1.602-7.148,3.739-7.148,3.739l7.847-1.062
			L58.079,26.909z"/>
	</g>
	<path fill="#FFFFFF" d="M29.247,20.406c0,0-0.336-1.211-1.627-1.211c-1.29,0-1.786,1.94-1.786,1.94s0.374-0.97,1.706-0.97
		C28.874,20.166,29.247,20.406,29.247,20.406z"/>
	<path fill="#FFFFFF" d="M48.907,19.599c0,0-0.335-1.21-1.625-1.21c-1.291,0-1.788,1.941-1.788,1.941s0.373-0.972,1.706-0.972
		C48.534,19.359,48.907,19.599,48.907,19.599z"/>
	<g>
		<path fill="none" stroke="#4A3E4D" stroke-width="0.5" stroke-miterlimit="10" d="M16.816,30.438c0,0,2.045,13.527,21.556,13.527
			c19.512,0,19.634-13.527,19.634-13.527"/>
		<path fill="none" stroke="#4A3E4D" stroke-width="0.5" stroke-miterlimit="10" d="M13.402,32.997c0,0,3.82-3.575,5.932-3.575"/>
		<path fill="none" stroke="#4A3E4D" stroke-width="0.5" stroke-miterlimit="10" d="M61.581,32.428c0,0-3.17-2.519-6.014-2.519"/>
	</g>
	<path opacity="0.1" fill="#4A3E4D" enable-background="new    " d="M27.229,43.884c0,0,6.294,2.274,11.184,2.274
		c4.889,0,10.169-2.274,10.169-2.274s-5.701,5.441-10.081,4.792C34.12,48.027,27.229,43.884,27.229,43.884z"/>
	<path opacity="0.2" fill="#FFFFFF" enable-background="new    " d="M24.188,40.979c0,0,5.842,3.353,14.224,3.353
		s13.318-3.353,13.318-3.353s-6.539,4.938-13.229,4.938C31.811,45.915,24.188,40.979,24.188,40.979z"/>
</g>
</svg>
