<?xml version="1.0" encoding="utf-8"?>
<!-- Generator: Adobe Illustrator 16.0.0, SVG Export Plug-In . SVG Version: 6.00 Build 0)  -->
<!DOCTYPE svg PUBLIC "-//W3C//DTD SVG 1.1//EN" "http://www.w3.org/Graphics/SVG/1.1/DTD/svg11.dtd">
<svg version="1.1" id="Layer_1" xmlns="http://www.w3.org/2000/svg" xmlns:xlink="http://www.w3.org/1999/xlink" x="0px" y="0px"
	 width="77.816px" height="77.316px" viewBox="0 0 77.816 77.316" enable-background="new 0 0 77.816 77.316" xml:space="preserve">
<g>
	<g>
		<polygon fill="#F7961D" points="22.093,77.317 19.29,72.459 22.093,67.602 27.703,67.602 30.508,72.459 27.703,77.317 		"/>
		<polygon opacity="0.03" enable-background="new    " points="22.093,67.602 27.703,77.317 22.093,77.317 19.29,72.459 		"/>
	</g>
	<g>
		<polygon fill="#F7961D" points="55.734,77.317 58.404,72.692 55.734,68.066 50.394,68.066 47.722,72.692 50.394,77.317 		"/>
		<polygon opacity="0.03" enable-background="new    " points="55.734,68.066 50.394,77.317 55.734,77.317 58.404,72.692 		"/>
	</g>
	<g>
		<polygon fill="#F7961D" points="64.383,59.117 61.802,54.646 64.383,50.176 69.547,50.176 72.128,54.646 69.547,59.117 		"/>
		<polygon opacity="0.05" enable-background="new    " points="64.383,59.117 61.802,54.646 64.383,50.176 69.547,50.176 
			72.128,54.646 69.547,59.117 		"/>
	</g>
	<g>
		<polygon fill="#F7961D" points="8.056,58.815 5.474,54.345 8.056,49.874 13.218,49.874 15.8,54.345 13.218,58.815 		"/>
		<polygon opacity="0.05" enable-background="new    " points="8.056,58.815 5.474,54.345 8.056,49.874 13.218,49.874 15.8,54.345 
			13.218,58.815 		"/>
	</g>
	<polygon fill="#F7961D" points="19.454,69.475 0,35.779 19.454,2.083 58.361,2.083 77.816,35.779 58.361,69.475 	"/>
	<polygon opacity="0.02" fill="#FFFFFF" enable-background="new    " points="19.454,2.083 58.361,69.475 19.454,69.475 0,35.779 	
		"/>
	<polygon opacity="0.03" enable-background="new    " points="38.336,34.79 19.454,69.475 58.361,69.475 	"/>
	<polygon opacity="0.03" enable-background="new    " points="38.336,34.79 58.361,2.083 19.454,2.083 	"/>
	<g>
		<path fill="none" stroke="#000000" stroke-miterlimit="10" d="M48.158,49.965c0,0,7.824,1.492,7.824-8.304"/>
		<path d="M17.479,11.38c0,0,2.412-5.427,5.578-5.427"/>
		<path d="M59.215,11.38c0,0-2.411-5.427-5.578-5.427"/>
		<g>
			<circle fill="#FFFFFF" cx="22.713" cy="20.535" r="7.713"/>
			<g>
				<ellipse fill="#F5841F" cx="22.934" cy="19.224" rx="4.44" ry="4.774"/>
				<circle fill="#575757" cx="23.052" cy="18.326" r="2.849"/>
				<ellipse fill="#FFFFFF" cx="21.339" cy="16.668" rx="0.556" ry="0.804"/>
			</g>
			<path fill="#575757" d="M14.479,19.956c0,0,1.023-8.24,7.996-8.24s8.658,7.636,8.658,7.636s-2.654-6.533-8.658-6.533
				C16.473,12.818,14.479,19.956,14.479,19.956z"/>
		</g>
		<g>
			<circle fill="#FFFFFF" cx="55.815" cy="20.233" r="7.713"/>
			<g>
				<ellipse fill="#F5841F" cx="56.748" cy="18.922" rx="4.441" ry="4.774"/>
				<circle fill="#575757" cx="56.865" cy="18.024" r="2.849"/>
				<ellipse fill="#FFFFFF" cx="55.152" cy="16.367" rx="0.555" ry="0.803"/>
			</g>
			<path fill="#575757" d="M64.143,20.222c0,0-1.023-8.241-7.996-8.241c-6.974,0-8.658,7.638-8.658,7.638s2.655-6.533,8.658-6.533
				C62.148,13.084,64.143,20.222,64.143,20.222z"/>
		</g>
		<g>
			<path d="M7.282,17.371L5.867,19.49c0,0,3.537,3.715,3.537,7.073c0,3.359,4.243,11.668,12.021,11.668
				c7.778,0,13.613-2.653,14.144-7.779s2.121-5.657,2.121-5.657h3.183c0,0,2.298,3.183,2.298,5.657
				c0,2.477,4.42,10.609,14.322,7.779c9.9-2.828,11.844-6.542,11.844-11.313c0-4.775,2.121-5.659,3.184-7.249
				c1.06-1.592,0-2.298,0-2.298H52.717c0,0-7.776,3.535-9.016,3.535c-1.238,0-7.07,0-7.07,0s-6.014-3.535-9.017-3.535
				C24.608,17.371,7.282,17.371,7.282,17.371z"/>
			<path fill="#FFFFFF" d="M16.139,21.649c0,0-5.742,3.326-2.62,6.448c3.121,3.121-1.452-0.125,0.845-2.422
				C16.662,23.378,16.139,21.649,16.139,21.649z"/>
			<path fill="#FFFFFF" d="M47.723,31.223c0,0,0.604,4.131,3.021,4.131c2.417,0,4.231,0,4.231,0s-2.191,0.174-3.627-1.262
				S47.723,31.223,47.723,31.223z"/>
			<path fill="#FFFFFF" d="M32.459,30.691c0,0-0.604,4.129-3.021,4.129c-2.418,0-4.232,0-4.232,0s2.192,0.177,3.627-1.26
				C30.268,32.125,32.459,30.691,32.459,30.691z"/>
			<path fill="#FFFFFF" d="M56.941,21.649c0,0,9.639-0.179,9.817,0c0.179,0.181,1.655,2.699,0,3.868
				c-1.656,1.169-1.053-1.975-3.17-1.975C61.474,23.543,56.941,21.649,56.941,21.649z"/>
		</g>
	</g>
</g>
</svg>
